  0
SECTION
  2
HEADER
  9
$ANGBASE
  50
0.0
  9
$ANGDIR
  70
1
  9
$MEASUREMENT
  70
0
  0
ENDSEC
  0
SECTION
  2
TABLES
  0
TABLE
  2
LTYPE
  70
4
  0
LTYPE
  5
40F
  2
CONTINUOUS
  70
0
  3
Solid line
  72
65
  73
0
  40
0.0
  0
LTYPE
  5
410
  2
DASHDOT
 70
0
  3
Dash Dot ____ _ ____ _
 72
65
 73
4
 40
2.0
 49
1.25
 49
-0.25
 49
0.25
 49
-0.25
  0
LTYPE
  5
411
  2
DASHED
 70
0
  3
Dashed __ __ __ __ __
 72
65
 73
2
 40
0.75
 49
0.5
 49
-0.25
  0
LTYPE
  5
43B
  2
DOTTED
 70
0
  3
Dotted .  .  .  .
 72
65
 73
2
 40
0.2
 49
0.0
 49
-0.2
  0
ENDTAB
  0
TABLE
  2
STYLE
  70
4
  0
STYLE
  2
KICAD
  70
0
  40
0
  41
1
  42
1
  50
0
  71
0
  3
isocp.shx
  0
STYLE
  2
KICADB
  70
0
  40
0
  41
1
  42
1
  50
0
  71
0
  3
isocp.shx
  0
STYLE
  2
KICADI
  70
0
  40
0
  41
1
  42
1
  50
15
  71
0
  3
isocp.shx
  0
STYLE
  2
KICADBI
  70
0
  40
0
  41
1
  42
1
  50
15
  71
0
  3
isocp.shx
  0
ENDTAB
  0
TABLE
  2
LAYER
  70
1
  0
LAYER
  2
BLACK
  70
0
  62
7
  6
CONTINUOUS
  0
ENDTAB
  0
ENDSEC
  0
SECTION
  2
ENTITIES
0
LINE
8
BLACK
6
CONTINUOUS
10
5.66769342519685
20
-4.6047257086614168
11
5.6815462204724412
21
-4.6077749606299214
0
LINE
8
BLACK
6
CONTINUOUS
10
5.6815462204724412
20
-4.6077749606299214
11
5.6949881102362205
21
-4.61230405511811
0
LINE
8
BLACK
6
CONTINUOUS
10
5.6949881102362205
20
-4.61230405511811
11
5.7078614960629919
21
-4.6182599212598427
0
LINE
8
BLACK
6
CONTINUOUS
10
5.7078614960629919
20
-4.6182599212598427
11
5.7200155118110239
21
-4.6255727559055115
0
LINE
8
BLACK
6
CONTINUOUS
10
5.7200155118110239
20
-4.6255727559055115
11
5.7313075984251967
21
-4.6341567716535428
0
LINE
8
BLACK
6
CONTINUOUS
10
5.7313075984251967
20
-4.6341567716535428
11
5.7416053937007874
21
-4.6439113779527554
0
LINE
8
BLACK
6
CONTINUOUS
10
5.7416053937007874
20
-4.6439113779527554
11
5.7507881889763777
21
-4.6547221653543307
0
LINE
8
BLACK
6
CONTINUOUS
10
5.7507881889763777
20
-4.6547221653543307
11
5.7587483070866137
21
-4.6664624409448816
0
LINE
8
BLACK
6
CONTINUOUS
10
5.7587483070866137
20
-4.6664624409448816
11
5.7653923622047243
21
-4.6789945275590554
0
LINE
8
BLACK
6
CONTINUOUS
10
5.7653923622047243
20
-4.6789945275590554
11
5.7706425590551182
21
-4.6921714960629917
0
LINE
8
BLACK
6
CONTINUOUS
10
5.7706425590551182
20
-4.6921714960629917
11
5.7744372834645672
21
-4.7058388582677164
0
LINE
8
BLACK
6
CONTINUOUS
10
5.7744372834645672
20
-4.7058388582677164
11
5.7767320866141727
21
-4.7198364173228349
0
LINE
8
BLACK
6
CONTINUOUS
10
5.7767320866141727
20
-4.7198364173228349
11
5.7774999999999999
21
-4.734
0
LINE
8
BLACK
6
CONTINUOUS
10
5.7774999999999999
20
-4.734
11
5.7767320866141727
21
-4.7481635826771651
0
LINE
8
BLACK
6
CONTINUOUS
10
5.7767320866141727
20
-4.7481635826771651
11
5.7744372834645672
21
-4.7621611417322836
0
LINE
8
BLACK
6
CONTINUOUS
10
5.7744372834645672
20
-4.7621611417322836
11
5.7706425590551182
21
-4.7758285039370074
0
LINE
8
BLACK
6
CONTINUOUS
10
5.7706425590551182
20
-4.7758285039370074
11
5.7653923622047243
21
-4.7890054724409445
0
LINE
8
BLACK
6
CONTINUOUS
10
5.7653923622047243
20
-4.7890054724409445
11
5.7587483070866137
21
-4.8015375590551184
0
LINE
8
BLACK
6
CONTINUOUS
10
5.7587483070866137
20
-4.8015375590551184
11
5.7507881889763777
21
-4.8132778346456693
0
LINE
8
BLACK
6
CONTINUOUS
10
5.7507881889763777
20
-4.8132778346456693
11
5.7416053937007874
21
-4.8240886220472436
0
LINE
8
BLACK
6
CONTINUOUS
10
5.7416053937007874
20
-4.8240886220472436
11
5.7313075984251967
21
-4.8338432283464563
0
LINE
8
BLACK
6
CONTINUOUS
10
5.7313075984251967
20
-4.8338432283464563
11
5.7200155118110239
21
-4.8424272440944884
0
LINE
8
BLACK
6
CONTINUOUS
10
5.7200155118110239
20
-4.8424272440944884
11
5.7078614960629919
21
-4.8497400787401572
0
LINE
8
BLACK
6
CONTINUOUS
10
5.7078614960629919
20
-4.8497400787401572
11
5.6949881102362205
21
-4.8556959448818899
0
LINE
8
BLACK
6
CONTINUOUS
10
5.6949881102362205
20
-4.8556959448818899
11
5.6815462204724412
21
-4.8602250393700785
0
LINE
8
BLACK
6
CONTINUOUS
10
5.6815462204724412
20
-4.8602250393700785
11
5.66769342519685
21
-4.8632742913385822
0
LINE
8
BLACK
6
CONTINUOUS
10
5.66769342519685
20
-4.8632742913385822
11
5.6535922047244096
21
-4.8648078740157477
0
LINE
8
BLACK
6
CONTINUOUS
10
5.6535922047244096
20
-4.8648078740157477
11
5.6394077952755906
21
-4.8648078740157477
0
LINE
8
BLACK
6
CONTINUOUS
10
5.6394077952755906
20
-4.8648078740157477
11
5.6253065748031492
21
-4.8632742913385822
0
LINE
8
BLACK
6
CONTINUOUS
10
5.6253065748031492
20
-4.8632742913385822
11
5.611453779527559
21
-4.8602250393700785
0
LINE
8
BLACK
6
CONTINUOUS
10
5.611453779527559
20
-4.8602250393700785
11
5.5980118897637796
21
-4.8556959448818899
0
LINE
8
BLACK
6
CONTINUOUS
10
5.5980118897637796
20
-4.8556959448818899
11
5.5851385039370074
21
-4.8497400787401572
0
LINE
8
BLACK
6
CONTINUOUS
10
5.5851385039370074
20
-4.8497400787401572
11
5.5729844881889763
21
-4.8424272440944884
0
LINE
8
BLACK
6
CONTINUOUS
10
5.5729844881889763
20
-4.8424272440944884
11
5.5616924015748026
21
-4.8338432283464563
0
LINE
8
BLACK
6
CONTINUOUS
10
5.5616924015748026
20
-4.8338432283464563
11
5.5513946062992128
21
-4.8240886220472436
0
LINE
8
BLACK
6
CONTINUOUS
10
5.5513946062992128
20
-4.8240886220472436
11
5.5422118110236216
21
-4.8132778346456693
0
LINE
8
BLACK
6
CONTINUOUS
10
5.5422118110236216
20
-4.8132778346456693
11
5.5342516929133856
21
-4.8015375590551184
0
LINE
8
BLACK
6
CONTINUOUS
10
5.5342516929133856
20
-4.8015375590551184
11
5.5276076377952759
21
-4.7890054724409445
0
LINE
8
BLACK
6
CONTINUOUS
10
5.5276076377952759
20
-4.7890054724409445
11
5.5223574409448819
21
-4.7758285039370074
0
LINE
8
BLACK
6
CONTINUOUS
10
5.5223574409448819
20
-4.7758285039370074
11
5.518562716535433
21
-4.7621611417322836
0
LINE
8
BLACK
6
CONTINUOUS
10
5.518562716535433
20
-4.7621611417322836
11
5.5162679133858266
21
-4.7481635826771651
0
LINE
8
BLACK
6
CONTINUOUS
10
5.5162679133858266
20
-4.7481635826771651
11
5.5155000000000003
21
-4.734
0
LINE
8
BLACK
6
CONTINUOUS
10
5.5155000000000003
20
-4.734
11
5.5162679133858266
21
-4.7198364173228349
0
LINE
8
BLACK
6
CONTINUOUS
10
5.5162679133858266
20
-4.7198364173228349
11
5.518562716535433
21
-4.7058388582677164
0
LINE
8
BLACK
6
CONTINUOUS
10
5.518562716535433
20
-4.7058388582677164
11
5.5223574409448819
21
-4.6921714960629917
0
LINE
8
BLACK
6
CONTINUOUS
10
5.5223574409448819
20
-4.6921714960629917
11
5.5276076377952759
21
-4.6789945275590554
0
LINE
8
BLACK
6
CONTINUOUS
10
5.5276076377952759
20
-4.6789945275590554
11
5.5342516929133856
21
-4.6664624409448816
0
LINE
8
BLACK
6
CONTINUOUS
10
5.5342516929133856
20
-4.6664624409448816
11
5.5422118110236216
21
-4.6547221653543307
0
LINE
8
BLACK
6
CONTINUOUS
10
5.5422118110236216
20
-4.6547221653543307
11
5.5513946062992128
21
-4.6439113779527554
0
LINE
8
BLACK
6
CONTINUOUS
10
5.5513946062992128
20
-4.6439113779527554
11
5.5616924015748026
21
-4.6341567716535428
0
LINE
8
BLACK
6
CONTINUOUS
10
5.5616924015748026
20
-4.6341567716535428
11
5.5729844881889763
21
-4.6255727559055115
0
LINE
8
BLACK
6
CONTINUOUS
10
5.5729844881889763
20
-4.6255727559055115
11
5.5851385039370074
21
-4.6182599212598427
0
LINE
8
BLACK
6
CONTINUOUS
10
5.5851385039370074
20
-4.6182599212598427
11
5.5980118897637796
21
-4.61230405511811
0
LINE
8
BLACK
6
CONTINUOUS
10
5.5980118897637796
20
-4.61230405511811
11
5.611453779527559
21
-4.6077749606299214
0
LINE
8
BLACK
6
CONTINUOUS
10
5.611453779527559
20
-4.6077749606299214
11
5.6253065748031492
21
-4.6047257086614168
0
LINE
8
BLACK
6
CONTINUOUS
10
5.6253065748031492
20
-4.6047257086614168
11
5.6394077952755906
21
-4.6031921259842514
0
LINE
8
BLACK
6
CONTINUOUS
10
5.6394077952755906
20
-4.6031921259842514
11
5.6535922047244096
21
-4.6031921259842514
0
LINE
8
BLACK
6
CONTINUOUS
10
5.6535922047244096
20
-4.6031921259842514
11
5.66769342519685
21
-4.6047257086614168
0
LINE
8
BLACK
6
CONTINUOUS
10
6.0676934251968504
20
-4.6047257086614168
11
6.0815462204724406
21
-4.6077749606299214
0
LINE
8
BLACK
6
CONTINUOUS
10
6.0815462204724406
20
-4.6077749606299214
11
6.09498811023622
21
-4.61230405511811
0
LINE
8
BLACK
6
CONTINUOUS
10
6.09498811023622
20
-4.61230405511811
11
6.1078614960629922
21
-4.6182599212598427
0
LINE
8
BLACK
6
CONTINUOUS
10
6.1078614960629922
20
-4.6182599212598427
11
6.1200155118110233
21
-4.6255727559055115
0
LINE
8
BLACK
6
CONTINUOUS
10
6.1200155118110233
20
-4.6255727559055115
11
6.131307598425197
21
-4.6341567716535428
0
LINE
8
BLACK
6
CONTINUOUS
10
6.131307598425197
20
-4.6341567716535428
11
6.1416053937007868
21
-4.6439113779527554
0
LINE
8
BLACK
6
CONTINUOUS
10
6.1416053937007868
20
-4.6439113779527554
11
6.150788188976378
21
-4.6547221653543307
0
LINE
8
BLACK
6
CONTINUOUS
10
6.150788188976378
20
-4.6547221653543307
11
6.158748307086614
21
-4.6664624409448816
0
LINE
8
BLACK
6
CONTINUOUS
10
6.158748307086614
20
-4.6664624409448816
11
6.1653923622047246
21
-4.6789945275590554
0
LINE
8
BLACK
6
CONTINUOUS
10
6.1653923622047246
20
-4.6789945275590554
11
6.1706425590551177
21
-4.6921714960629917
0
LINE
8
BLACK
6
CONTINUOUS
10
6.1706425590551177
20
-4.6921714960629917
11
6.1744372834645667
21
-4.7058388582677164
0
LINE
8
BLACK
6
CONTINUOUS
10
6.1744372834645667
20
-4.7058388582677164
11
6.1767320866141731
21
-4.7198364173228349
0
LINE
8
BLACK
6
CONTINUOUS
10
6.1767320866141731
20
-4.7198364173228349
11
6.1775000000000002
21
-4.734
0
LINE
8
BLACK
6
CONTINUOUS
10
6.1775000000000002
20
-4.734
11
6.1767320866141731
21
-4.7481635826771651
0
LINE
8
BLACK
6
CONTINUOUS
10
6.1767320866141731
20
-4.7481635826771651
11
6.1744372834645667
21
-4.7621611417322836
0
LINE
8
BLACK
6
CONTINUOUS
10
6.1744372834645667
20
-4.7621611417322836
11
6.1706425590551177
21
-4.7758285039370074
0
LINE
8
BLACK
6
CONTINUOUS
10
6.1706425590551177
20
-4.7758285039370074
11
6.1653923622047246
21
-4.7890054724409445
0
LINE
8
BLACK
6
CONTINUOUS
10
6.1653923622047246
20
-4.7890054724409445
11
6.158748307086614
21
-4.8015375590551184
0
LINE
8
BLACK
6
CONTINUOUS
10
6.158748307086614
20
-4.8015375590551184
11
6.150788188976378
21
-4.8132778346456693
0
LINE
8
BLACK
6
CONTINUOUS
10
6.150788188976378
20
-4.8132778346456693
11
6.1416053937007868
21
-4.8240886220472436
0
LINE
8
BLACK
6
CONTINUOUS
10
6.1416053937007868
20
-4.8240886220472436
11
6.131307598425197
21
-4.8338432283464563
0
LINE
8
BLACK
6
CONTINUOUS
10
6.131307598425197
20
-4.8338432283464563
11
6.1200155118110233
21
-4.8424272440944884
0
LINE
8
BLACK
6
CONTINUOUS
10
6.1200155118110233
20
-4.8424272440944884
11
6.1078614960629922
21
-4.8497400787401572
0
LINE
8
BLACK
6
CONTINUOUS
10
6.1078614960629922
20
-4.8497400787401572
11
6.09498811023622
21
-4.8556959448818899
0
LINE
8
BLACK
6
CONTINUOUS
10
6.09498811023622
20
-4.8556959448818899
11
6.0815462204724406
21
-4.8602250393700785
0
LINE
8
BLACK
6
CONTINUOUS
10
6.0815462204724406
20
-4.8602250393700785
11
6.0676934251968504
21
-4.8632742913385822
0
LINE
8
BLACK
6
CONTINUOUS
10
6.0676934251968504
20
-4.8632742913385822
11
6.0535922047244091
21
-4.8648078740157477
0
LINE
8
BLACK
6
CONTINUOUS
10
6.0535922047244091
20
-4.8648078740157477
11
6.03940779527559
21
-4.8648078740157477
0
LINE
8
BLACK
6
CONTINUOUS
10
6.03940779527559
20
-4.8648078740157477
11
6.0253065748031496
21
-4.8632742913385822
0
LINE
8
BLACK
6
CONTINUOUS
10
6.0253065748031496
20
-4.8632742913385822
11
6.0114537795275593
21
-4.8602250393700785
0
LINE
8
BLACK
6
CONTINUOUS
10
6.0114537795275593
20
-4.8602250393700785
11
5.9980118897637791
21
-4.8556959448818899
0
LINE
8
BLACK
6
CONTINUOUS
10
5.9980118897637791
20
-4.8556959448818899
11
5.9851385039370077
21
-4.8497400787401572
0
LINE
8
BLACK
6
CONTINUOUS
10
5.9851385039370077
20
-4.8497400787401572
11
5.9729844881889766
21
-4.8424272440944884
0
LINE
8
BLACK
6
CONTINUOUS
10
5.9729844881889766
20
-4.8424272440944884
11
5.961692401574803
21
-4.8338432283464563
0
LINE
8
BLACK
6
CONTINUOUS
10
5.961692401574803
20
-4.8338432283464563
11
5.9513946062992122
21
-4.8240886220472436
0
LINE
8
BLACK
6
CONTINUOUS
10
5.9513946062992122
20
-4.8240886220472436
11
5.9422118110236219
21
-4.8132778346456693
0
LINE
8
BLACK
6
CONTINUOUS
10
5.9422118110236219
20
-4.8132778346456693
11
5.9342516929133859
21
-4.8015375590551184
0
LINE
8
BLACK
6
CONTINUOUS
10
5.9342516929133859
20
-4.8015375590551184
11
5.9276076377952753
21
-4.7890054724409445
0
LINE
8
BLACK
6
CONTINUOUS
10
5.9276076377952753
20
-4.7890054724409445
11
5.9223574409448814
21
-4.7758285039370074
0
LINE
8
BLACK
6
CONTINUOUS
10
5.9223574409448814
20
-4.7758285039370074
11
5.9185627165354333
21
-4.7621611417322836
0
LINE
8
BLACK
6
CONTINUOUS
10
5.9185627165354333
20
-4.7621611417322836
11
5.9162679133858269
21
-4.7481635826771651
0
LINE
8
BLACK
6
CONTINUOUS
10
5.9162679133858269
20
-4.7481635826771651
11
5.9154999999999998
21
-4.734
0
LINE
8
BLACK
6
CONTINUOUS
10
5.9154999999999998
20
-4.734
11
5.9162679133858269
21
-4.7198364173228349
0
LINE
8
BLACK
6
CONTINUOUS
10
5.9162679133858269
20
-4.7198364173228349
11
5.9185627165354333
21
-4.7058388582677164
0
LINE
8
BLACK
6
CONTINUOUS
10
5.9185627165354333
20
-4.7058388582677164
11
5.9223574409448814
21
-4.6921714960629917
0
LINE
8
BLACK
6
CONTINUOUS
10
5.9223574409448814
20
-4.6921714960629917
11
5.9276076377952753
21
-4.6789945275590554
0
LINE
8
BLACK
6
CONTINUOUS
10
5.9276076377952753
20
-4.6789945275590554
11
5.9342516929133859
21
-4.6664624409448816
0
LINE
8
BLACK
6
CONTINUOUS
10
5.9342516929133859
20
-4.6664624409448816
11
5.9422118110236219
21
-4.6547221653543307
0
LINE
8
BLACK
6
CONTINUOUS
10
5.9422118110236219
20
-4.6547221653543307
11
5.9513946062992122
21
-4.6439113779527554
0
LINE
8
BLACK
6
CONTINUOUS
10
5.9513946062992122
20
-4.6439113779527554
11
5.961692401574803
21
-4.6341567716535428
0
LINE
8
BLACK
6
CONTINUOUS
10
5.961692401574803
20
-4.6341567716535428
11
5.9729844881889766
21
-4.6255727559055115
0
LINE
8
BLACK
6
CONTINUOUS
10
5.9729844881889766
20
-4.6255727559055115
11
5.9851385039370077
21
-4.6182599212598427
0
LINE
8
BLACK
6
CONTINUOUS
10
5.9851385039370077
20
-4.6182599212598427
11
5.9980118897637791
21
-4.61230405511811
0
LINE
8
BLACK
6
CONTINUOUS
10
5.9980118897637791
20
-4.61230405511811
11
6.0114537795275593
21
-4.6077749606299214
0
LINE
8
BLACK
6
CONTINUOUS
10
6.0114537795275593
20
-4.6077749606299214
11
6.0253065748031496
21
-4.6047257086614168
0
LINE
8
BLACK
6
CONTINUOUS
10
6.0253065748031496
20
-4.6047257086614168
11
6.03940779527559
21
-4.6031921259842514
0
LINE
8
BLACK
6
CONTINUOUS
10
6.03940779527559
20
-4.6031921259842514
11
6.0535922047244091
21
-4.6031921259842514
0
LINE
8
BLACK
6
CONTINUOUS
10
6.0535922047244091
20
-4.6031921259842514
11
6.0676934251968504
21
-4.6047257086614168
0
LINE
8
BLACK
6
CONTINUOUS
10
5.6330307480314961
20
-4.4978044881889767
11
5.6343284251968502
21
-4.4986715748031498
0
LINE
8
BLACK
6
CONTINUOUS
10
5.6343284251968502
20
-4.4986715748031498
11
5.6351955118110233
21
-4.4999692519685039
0
LINE
8
BLACK
6
CONTINUOUS
10
5.6351955118110233
20
-4.4999692519685039
11
5.6354999999999995
21
-4.5015000000000001
0
LINE
8
BLACK
6
CONTINUOUS
10
5.6354999999999995
20
-4.5015000000000001
11
5.6354999999999995
21
-4.5664999999999996
0
LINE
8
BLACK
6
CONTINUOUS
10
5.6354999999999995
20
-4.5664999999999996
11
5.6351955118110233
21
-4.5680307480314957
0
LINE
8
BLACK
6
CONTINUOUS
10
5.6351955118110233
20
-4.5680307480314957
11
5.6343284251968502
21
-4.5693284251968507
0
LINE
8
BLACK
6
CONTINUOUS
10
5.6343284251968502
20
-4.5693284251968507
11
5.6330307480314961
21
-4.5701955118110238
0
LINE
8
BLACK
6
CONTINUOUS
10
5.6330307480314961
20
-4.5701955118110238
11
5.6315
21
-4.5705
0
LINE
8
BLACK
6
CONTINUOUS
10
5.6315
20
-4.5705
11
5.5664999999999996
21
-4.5705
0
LINE
8
BLACK
6
CONTINUOUS
10
5.5664999999999996
20
-4.5705
11
5.5649692519685034
21
-4.5701955118110238
0
LINE
8
BLACK
6
CONTINUOUS
10
5.5649692519685034
20
-4.5701955118110238
11
5.5636715748031493
21
-4.5693284251968507
0
LINE
8
BLACK
6
CONTINUOUS
10
5.5636715748031493
20
-4.5693284251968507
11
5.5628044881889762
21
-4.5680307480314957
0
LINE
8
BLACK
6
CONTINUOUS
10
5.5628044881889762
20
-4.5680307480314957
11
5.5625
21
-4.5664999999999996
0
LINE
8
BLACK
6
CONTINUOUS
10
5.5625
20
-4.5664999999999996
11
5.5625
21
-4.5015000000000001
0
LINE
8
BLACK
6
CONTINUOUS
10
5.5625
20
-4.5015000000000001
11
5.5628044881889762
21
-4.4999692519685039
0
LINE
8
BLACK
6
CONTINUOUS
10
5.5628044881889762
20
-4.4999692519685039
11
5.5636715748031493
21
-4.4986715748031498
0
LINE
8
BLACK
6
CONTINUOUS
10
5.5636715748031493
20
-4.4986715748031498
11
5.5649692519685034
21
-4.4978044881889767
0
LINE
8
BLACK
6
CONTINUOUS
10
5.5649692519685034
20
-4.4978044881889767
11
5.5664999999999996
21
-4.4974999999999996
0
LINE
8
BLACK
6
CONTINUOUS
10
5.5664999999999996
20
-4.4974999999999996
11
5.6315
21
-4.4974999999999996
0
LINE
8
BLACK
6
CONTINUOUS
10
5.6315
20
-4.4974999999999996
11
5.6330307480314961
21
-4.4978044881889767
0
LINE
8
BLACK
6
CONTINUOUS
10
6.0380307480314963
20
-4.4528044881889759
11
6.0393284251968504
21
-4.4536715748031499
0
LINE
8
BLACK
6
CONTINUOUS
10
6.0393284251968504
20
-4.4536715748031499
11
6.0401955118110235
21
-4.454969251968504
0
LINE
8
BLACK
6
CONTINUOUS
10
6.0401955118110235
20
-4.454969251968504
11
6.0404999999999998
21
-4.4565000000000001
0
LINE
8
BLACK
6
CONTINUOUS
10
6.0404999999999998
20
-4.4565000000000001
11
6.0404999999999998
21
-4.5214999999999996
0
LINE
8
BLACK
6
CONTINUOUS
10
6.0404999999999998
20
-4.5214999999999996
11
6.0401955118110235
21
-4.5230307480314957
0
LINE
8
BLACK
6
CONTINUOUS
10
6.0401955118110235
20
-4.5230307480314957
11
6.0393284251968504
21
-4.5243284251968499
0
LINE
8
BLACK
6
CONTINUOUS
10
6.0393284251968504
20
-4.5243284251968499
11
6.0380307480314963
21
-4.5251955118110239
0
LINE
8
BLACK
6
CONTINUOUS
10
6.0380307480314963
20
-4.5251955118110239
11
6.0365000000000002
21
-4.5255000000000001
0
LINE
8
BLACK
6
CONTINUOUS
10
6.0365000000000002
20
-4.5255000000000001
11
5.9714999999999998
21
-4.5255000000000001
0
LINE
8
BLACK
6
CONTINUOUS
10
5.9714999999999998
20
-4.5255000000000001
11
5.9699692519685037
21
-4.5251955118110239
0
LINE
8
BLACK
6
CONTINUOUS
10
5.9699692519685037
20
-4.5251955118110239
11
5.9686715748031496
21
-4.5243284251968499
0
LINE
8
BLACK
6
CONTINUOUS
10
5.9686715748031496
20
-4.5243284251968499
11
5.9678044881889765
21
-4.5230307480314957
0
LINE
8
BLACK
6
CONTINUOUS
10
5.9678044881889765
20
-4.5230307480314957
11
5.9675000000000002
21
-4.5214999999999996
0
LINE
8
BLACK
6
CONTINUOUS
10
5.9675000000000002
20
-4.5214999999999996
11
5.9675000000000002
21
-4.4565000000000001
0
LINE
8
BLACK
6
CONTINUOUS
10
5.9675000000000002
20
-4.4565000000000001
11
5.9678044881889765
21
-4.454969251968504
0
LINE
8
BLACK
6
CONTINUOUS
10
5.9678044881889765
20
-4.454969251968504
11
5.9686715748031496
21
-4.4536715748031499
0
LINE
8
BLACK
6
CONTINUOUS
10
5.9686715748031496
20
-4.4536715748031499
11
5.9699692519685037
21
-4.4528044881889759
0
LINE
8
BLACK
6
CONTINUOUS
10
5.9699692519685037
20
-4.4528044881889759
11
5.9714999999999998
21
-4.4524999999999997
0
LINE
8
BLACK
6
CONTINUOUS
10
5.9714999999999998
20
-4.4524999999999997
11
6.0365000000000002
21
-4.4524999999999997
0
LINE
8
BLACK
6
CONTINUOUS
10
6.0365000000000002
20
-4.4524999999999997
11
6.0380307480314963
21
-4.4528044881889759
0
LINE
8
BLACK
6
CONTINUOUS
10
6.138030748031496
20
-4.4528044881889759
11
6.1393284251968501
21
-4.4536715748031499
0
LINE
8
BLACK
6
CONTINUOUS
10
6.1393284251968501
20
-4.4536715748031499
11
6.1401955118110232
21
-4.454969251968504
0
LINE
8
BLACK
6
CONTINUOUS
10
6.1401955118110232
20
-4.454969251968504
11
6.1405000000000003
21
-4.4565000000000001
0
LINE
8
BLACK
6
CONTINUOUS
10
6.1405000000000003
20
-4.4565000000000001
11
6.1405000000000003
21
-4.5214999999999996
0
LINE
8
BLACK
6
CONTINUOUS
10
6.1405000000000003
20
-4.5214999999999996
11
6.1401955118110232
21
-4.5230307480314957
0
LINE
8
BLACK
6
CONTINUOUS
10
6.1401955118110232
20
-4.5230307480314957
11
6.1393284251968501
21
-4.5243284251968499
0
LINE
8
BLACK
6
CONTINUOUS
10
6.1393284251968501
20
-4.5243284251968499
11
6.138030748031496
21
-4.5251955118110239
0
LINE
8
BLACK
6
CONTINUOUS
10
6.138030748031496
20
-4.5251955118110239
11
6.1364999999999998
21
-4.5255000000000001
0
LINE
8
BLACK
6
CONTINUOUS
10
6.1364999999999998
20
-4.5255000000000001
11
6.0714999999999995
21
-4.5255000000000001
0
LINE
8
BLACK
6
CONTINUOUS
10
6.0714999999999995
20
-4.5255000000000001
11
6.0699692519685042
21
-4.5251955118110239
0
LINE
8
BLACK
6
CONTINUOUS
10
6.0699692519685042
20
-4.5251955118110239
11
6.0686715748031492
21
-4.5243284251968499
0
LINE
8
BLACK
6
CONTINUOUS
10
6.0686715748031492
20
-4.5243284251968499
11
6.0678044881889761
21
-4.5230307480314957
0
LINE
8
BLACK
6
CONTINUOUS
10
6.0678044881889761
20
-4.5230307480314957
11
6.0674999999999999
21
-4.5214999999999996
0
LINE
8
BLACK
6
CONTINUOUS
10
6.0674999999999999
20
-4.5214999999999996
11
6.0674999999999999
21
-4.4565000000000001
0
LINE
8
BLACK
6
CONTINUOUS
10
6.0674999999999999
20
-4.4565000000000001
11
6.0678044881889761
21
-4.454969251968504
0
LINE
8
BLACK
6
CONTINUOUS
10
6.0678044881889761
20
-4.454969251968504
11
6.0686715748031492
21
-4.4536715748031499
0
LINE
8
BLACK
6
CONTINUOUS
10
6.0686715748031492
20
-4.4536715748031499
11
6.0699692519685042
21
-4.4528044881889759
0
LINE
8
BLACK
6
CONTINUOUS
10
6.0699692519685042
20
-4.4528044881889759
11
6.0714999999999995
21
-4.4524999999999997
0
LINE
8
BLACK
6
CONTINUOUS
10
6.0714999999999995
20
-4.4524999999999997
11
6.1364999999999998
21
-4.4524999999999997
0
LINE
8
BLACK
6
CONTINUOUS
10
6.1364999999999998
20
-4.4524999999999997
11
6.138030748031496
21
-4.4528044881889759
0
LINE
8
BLACK
6
CONTINUOUS
10
5.6330307480314961
20
-4.3978044881889762
11
5.6343284251968502
21
-4.3986715748031493
0
LINE
8
BLACK
6
CONTINUOUS
10
5.6343284251968502
20
-4.3986715748031493
11
5.6351955118110233
21
-4.3999692519685034
0
LINE
8
BLACK
6
CONTINUOUS
10
5.6351955118110233
20
-4.3999692519685034
11
5.6354999999999995
21
-4.4014999999999995
0
LINE
8
BLACK
6
CONTINUOUS
10
5.6354999999999995
20
-4.4014999999999995
11
5.6354999999999995
21
-4.4664999999999999
0
LINE
8
BLACK
6
CONTINUOUS
10
5.6354999999999995
20
-4.4664999999999999
11
5.6351955118110233
21
-4.468030748031496
0
LINE
8
BLACK
6
CONTINUOUS
10
5.6351955118110233
20
-4.468030748031496
11
5.6343284251968502
21
-4.4693284251968501
0
LINE
8
BLACK
6
CONTINUOUS
10
5.6343284251968502
20
-4.4693284251968501
11
5.6330307480314961
21
-4.4701955118110233
0
LINE
8
BLACK
6
CONTINUOUS
10
5.6330307480314961
20
-4.4701955118110233
11
5.6315
21
-4.4704999999999995
0
LINE
8
BLACK
6
CONTINUOUS
10
5.6315
20
-4.4704999999999995
11
5.5664999999999996
21
-4.4704999999999995
0
LINE
8
BLACK
6
CONTINUOUS
10
5.5664999999999996
20
-4.4704999999999995
11
5.5649692519685034
21
-4.4701955118110233
0
LINE
8
BLACK
6
CONTINUOUS
10
5.5649692519685034
20
-4.4701955118110233
11
5.5636715748031493
21
-4.4693284251968501
0
LINE
8
BLACK
6
CONTINUOUS
10
5.5636715748031493
20
-4.4693284251968501
11
5.5628044881889762
21
-4.468030748031496
0
LINE
8
BLACK
6
CONTINUOUS
10
5.5628044881889762
20
-4.468030748031496
11
5.5625
21
-4.4664999999999999
0
LINE
8
BLACK
6
CONTINUOUS
10
5.5625
20
-4.4664999999999999
11
5.5625
21
-4.4014999999999995
0
LINE
8
BLACK
6
CONTINUOUS
10
5.5625
20
-4.4014999999999995
11
5.5628044881889762
21
-4.3999692519685034
0
LINE
8
BLACK
6
CONTINUOUS
10
5.5628044881889762
20
-4.3999692519685034
11
5.5636715748031493
21
-4.3986715748031493
0
LINE
8
BLACK
6
CONTINUOUS
10
5.5636715748031493
20
-4.3986715748031493
11
5.5649692519685034
21
-4.3978044881889762
0
LINE
8
BLACK
6
CONTINUOUS
10
5.5649692519685034
20
-4.3978044881889762
11
5.5664999999999996
21
-4.3975
0
LINE
8
BLACK
6
CONTINUOUS
10
5.5664999999999996
20
-4.3975
11
5.6315
21
-4.3975
0
LINE
8
BLACK
6
CONTINUOUS
10
5.6315
20
-4.3975
11
5.6330307480314961
21
-4.3978044881889762
0
LINE
8
BLACK
6
CONTINUOUS
10
6.0380307480314963
20
-4.3528044881889763
11
6.0393284251968504
21
-4.3536715748031494
0
LINE
8
BLACK
6
CONTINUOUS
10
6.0393284251968504
20
-4.3536715748031494
11
6.0401955118110235
21
-4.3549692519685035
0
LINE
8
BLACK
6
CONTINUOUS
10
6.0401955118110235
20
-4.3549692519685035
11
6.0404999999999998
21
-4.3564999999999996
0
LINE
8
BLACK
6
CONTINUOUS
10
6.0404999999999998
20
-4.3564999999999996
11
6.0404999999999998
21
-4.4215
0
LINE
8
BLACK
6
CONTINUOUS
10
6.0404999999999998
20
-4.4215
11
6.0401955118110235
21
-4.4230307480314961
0
LINE
8
BLACK
6
CONTINUOUS
10
6.0401955118110235
20
-4.4230307480314961
11
6.0393284251968504
21
-4.4243284251968502
0
LINE
8
BLACK
6
CONTINUOUS
10
6.0393284251968504
20
-4.4243284251968502
11
6.0380307480314963
21
-4.4251955118110233
0
LINE
8
BLACK
6
CONTINUOUS
10
6.0380307480314963
20
-4.4251955118110233
11
6.0365000000000002
21
-4.4254999999999995
0
LINE
8
BLACK
6
CONTINUOUS
10
6.0365000000000002
20
-4.4254999999999995
11
5.9714999999999998
21
-4.4254999999999995
0
LINE
8
BLACK
6
CONTINUOUS
10
5.9714999999999998
20
-4.4254999999999995
11
5.9699692519685037
21
-4.4251955118110233
0
LINE
8
BLACK
6
CONTINUOUS
10
5.9699692519685037
20
-4.4251955118110233
11
5.9686715748031496
21
-4.4243284251968502
0
LINE
8
BLACK
6
CONTINUOUS
10
5.9686715748031496
20
-4.4243284251968502
11
5.9678044881889765
21
-4.4230307480314961
0
LINE
8
BLACK
6
CONTINUOUS
10
5.9678044881889765
20
-4.4230307480314961
11
5.9675000000000002
21
-4.4215
0
LINE
8
BLACK
6
CONTINUOUS
10
5.9675000000000002
20
-4.4215
11
5.9675000000000002
21
-4.3564999999999996
0
LINE
8
BLACK
6
CONTINUOUS
10
5.9675000000000002
20
-4.3564999999999996
11
5.9678044881889765
21
-4.3549692519685035
0
LINE
8
BLACK
6
CONTINUOUS
10
5.9678044881889765
20
-4.3549692519685035
11
5.9686715748031496
21
-4.3536715748031494
0
LINE
8
BLACK
6
CONTINUOUS
10
5.9686715748031496
20
-4.3536715748031494
11
5.9699692519685037
21
-4.3528044881889763
0
LINE
8
BLACK
6
CONTINUOUS
10
5.9699692519685037
20
-4.3528044881889763
11
5.9714999999999998
21
-4.3525
0
LINE
8
BLACK
6
CONTINUOUS
10
5.9714999999999998
20
-4.3525
11
6.0365000000000002
21
-4.3525
0
LINE
8
BLACK
6
CONTINUOUS
10
6.0365000000000002
20
-4.3525
11
6.0380307480314963
21
-4.3528044881889763
0
LINE
8
BLACK
6
CONTINUOUS
10
6.138030748031496
20
-4.3528044881889763
11
6.1393284251968501
21
-4.3536715748031494
0
LINE
8
BLACK
6
CONTINUOUS
10
6.1393284251968501
20
-4.3536715748031494
11
6.1401955118110232
21
-4.3549692519685035
0
LINE
8
BLACK
6
CONTINUOUS
10
6.1401955118110232
20
-4.3549692519685035
11
6.1405000000000003
21
-4.3564999999999996
0
LINE
8
BLACK
6
CONTINUOUS
10
6.1405000000000003
20
-4.3564999999999996
11
6.1405000000000003
21
-4.4215
0
LINE
8
BLACK
6
CONTINUOUS
10
6.1405000000000003
20
-4.4215
11
6.1401955118110232
21
-4.4230307480314961
0
LINE
8
BLACK
6
CONTINUOUS
10
6.1401955118110232
20
-4.4230307480314961
11
6.1393284251968501
21
-4.4243284251968502
0
LINE
8
BLACK
6
CONTINUOUS
10
6.1393284251968501
20
-4.4243284251968502
11
6.138030748031496
21
-4.4251955118110233
0
LINE
8
BLACK
6
CONTINUOUS
10
6.138030748031496
20
-4.4251955118110233
11
6.1364999999999998
21
-4.4254999999999995
0
LINE
8
BLACK
6
CONTINUOUS
10
6.1364999999999998
20
-4.4254999999999995
11
6.0714999999999995
21
-4.4254999999999995
0
LINE
8
BLACK
6
CONTINUOUS
10
6.0714999999999995
20
-4.4254999999999995
11
6.0699692519685042
21
-4.4251955118110233
0
LINE
8
BLACK
6
CONTINUOUS
10
6.0699692519685042
20
-4.4251955118110233
11
6.0686715748031492
21
-4.4243284251968502
0
LINE
8
BLACK
6
CONTINUOUS
10
6.0686715748031492
20
-4.4243284251968502
11
6.0678044881889761
21
-4.4230307480314961
0
LINE
8
BLACK
6
CONTINUOUS
10
6.0678044881889761
20
-4.4230307480314961
11
6.0674999999999999
21
-4.4215
0
LINE
8
BLACK
6
CONTINUOUS
10
6.0674999999999999
20
-4.4215
11
6.0674999999999999
21
-4.3564999999999996
0
LINE
8
BLACK
6
CONTINUOUS
10
6.0674999999999999
20
-4.3564999999999996
11
6.0678044881889761
21
-4.3549692519685035
0
LINE
8
BLACK
6
CONTINUOUS
10
6.0678044881889761
20
-4.3549692519685035
11
6.0686715748031492
21
-4.3536715748031494
0
LINE
8
BLACK
6
CONTINUOUS
10
6.0686715748031492
20
-4.3536715748031494
11
6.0699692519685042
21
-4.3528044881889763
0
LINE
8
BLACK
6
CONTINUOUS
10
6.0699692519685042
20
-4.3528044881889763
11
6.0714999999999995
21
-4.3525
0
LINE
8
BLACK
6
CONTINUOUS
10
6.0714999999999995
20
-4.3525
11
6.1364999999999998
21
-4.3525
0
LINE
8
BLACK
6
CONTINUOUS
10
6.1364999999999998
20
-4.3525
11
6.138030748031496
21
-4.3528044881889763
0
LINE
8
BLACK
6
CONTINUOUS
10
5.6330307480314961
20
-4.2978044881889765
11
5.6343284251968502
21
-4.2986715748031497
0
LINE
8
BLACK
6
CONTINUOUS
10
5.6343284251968502
20
-4.2986715748031497
11
5.6351955118110233
21
-4.2999692519685038
0
LINE
8
BLACK
6
CONTINUOUS
10
5.6351955118110233
20
-4.2999692519685038
11
5.6354999999999995
21
-4.3014999999999999
0
LINE
8
BLACK
6
CONTINUOUS
10
5.6354999999999995
20
-4.3014999999999999
11
5.6354999999999995
21
-4.3665000000000003
0
LINE
8
BLACK
6
CONTINUOUS
10
5.6354999999999995
20
-4.3665000000000003
11
5.6351955118110233
21
-4.3680307480314964
0
LINE
8
BLACK
6
CONTINUOUS
10
5.6351955118110233
20
-4.3680307480314964
11
5.6343284251968502
21
-4.3693284251968505
0
LINE
8
BLACK
6
CONTINUOUS
10
5.6343284251968502
20
-4.3693284251968505
11
5.6330307480314961
21
-4.3701955118110236
0
LINE
8
BLACK
6
CONTINUOUS
10
5.6330307480314961
20
-4.3701955118110236
11
5.6315
21
-4.3704999999999998
0
LINE
8
BLACK
6
CONTINUOUS
10
5.6315
20
-4.3704999999999998
11
5.5664999999999996
21
-4.3704999999999998
0
LINE
8
BLACK
6
CONTINUOUS
10
5.5664999999999996
20
-4.3704999999999998
11
5.5649692519685034
21
-4.3701955118110236
0
LINE
8
BLACK
6
CONTINUOUS
10
5.5649692519685034
20
-4.3701955118110236
11
5.5636715748031493
21
-4.3693284251968505
0
LINE
8
BLACK
6
CONTINUOUS
10
5.5636715748031493
20
-4.3693284251968505
11
5.5628044881889762
21
-4.3680307480314964
0
LINE
8
BLACK
6
CONTINUOUS
10
5.5628044881889762
20
-4.3680307480314964
11
5.5625
21
-4.3665000000000003
0
LINE
8
BLACK
6
CONTINUOUS
10
5.5625
20
-4.3665000000000003
11
5.5625
21
-4.3014999999999999
0
LINE
8
BLACK
6
CONTINUOUS
10
5.5625
20
-4.3014999999999999
11
5.5628044881889762
21
-4.2999692519685038
0
LINE
8
BLACK
6
CONTINUOUS
10
5.5628044881889762
20
-4.2999692519685038
11
5.5636715748031493
21
-4.2986715748031497
0
LINE
8
BLACK
6
CONTINUOUS
10
5.5636715748031493
20
-4.2986715748031497
11
5.5649692519685034
21
-4.2978044881889765
0
LINE
8
BLACK
6
CONTINUOUS
10
5.5649692519685034
20
-4.2978044881889765
11
5.5664999999999996
21
-4.2975000000000003
0
LINE
8
BLACK
6
CONTINUOUS
10
5.5664999999999996
20
-4.2975000000000003
11
5.6315
21
-4.2975000000000003
0
LINE
8
BLACK
6
CONTINUOUS
10
5.6315
20
-4.2975000000000003
11
5.6330307480314961
21
-4.2978044881889765
0
LINE
8
BLACK
6
CONTINUOUS
10
6.0380307480314963
20
-4.2528044881889766
11
6.0393284251968504
21
-4.2536715748031497
0
LINE
8
BLACK
6
CONTINUOUS
10
6.0393284251968504
20
-4.2536715748031497
11
6.0401955118110235
21
-4.2549692519685038
0
LINE
8
BLACK
6
CONTINUOUS
10
6.0401955118110235
20
-4.2549692519685038
11
6.0404999999999998
21
-4.2565
0
LINE
8
BLACK
6
CONTINUOUS
10
6.0404999999999998
20
-4.2565
11
6.0404999999999998
21
-4.3215000000000003
0
LINE
8
BLACK
6
CONTINUOUS
10
6.0404999999999998
20
-4.3215000000000003
11
6.0401955118110235
21
-4.3230307480314956
0
LINE
8
BLACK
6
CONTINUOUS
10
6.0401955118110235
20
-4.3230307480314956
11
6.0393284251968504
21
-4.3243284251968506
0
LINE
8
BLACK
6
CONTINUOUS
10
6.0393284251968504
20
-4.3243284251968506
11
6.0380307480314963
21
-4.3251955118110237
0
LINE
8
BLACK
6
CONTINUOUS
10
6.0380307480314963
20
-4.3251955118110237
11
6.0365000000000002
21
-4.3254999999999999
0
LINE
8
BLACK
6
CONTINUOUS
10
6.0365000000000002
20
-4.3254999999999999
11
5.9714999999999998
21
-4.3254999999999999
0
LINE
8
BLACK
6
CONTINUOUS
10
5.9714999999999998
20
-4.3254999999999999
11
5.9699692519685037
21
-4.3251955118110237
0
LINE
8
BLACK
6
CONTINUOUS
10
5.9699692519685037
20
-4.3251955118110237
11
5.9686715748031496
21
-4.3243284251968506
0
LINE
8
BLACK
6
CONTINUOUS
10
5.9686715748031496
20
-4.3243284251968506
11
5.9678044881889765
21
-4.3230307480314956
0
LINE
8
BLACK
6
CONTINUOUS
10
5.9678044881889765
20
-4.3230307480314956
11
5.9675000000000002
21
-4.3215000000000003
0
LINE
8
BLACK
6
CONTINUOUS
10
5.9675000000000002
20
-4.3215000000000003
11
5.9675000000000002
21
-4.2565
0
LINE
8
BLACK
6
CONTINUOUS
10
5.9675000000000002
20
-4.2565
11
5.9678044881889765
21
-4.2549692519685038
0
LINE
8
BLACK
6
CONTINUOUS
10
5.9678044881889765
20
-4.2549692519685038
11
5.9686715748031496
21
-4.2536715748031497
0
LINE
8
BLACK
6
CONTINUOUS
10
5.9686715748031496
20
-4.2536715748031497
11
5.9699692519685037
21
-4.2528044881889766
0
LINE
8
BLACK
6
CONTINUOUS
10
5.9699692519685037
20
-4.2528044881889766
11
5.9714999999999998
21
-4.2524999999999995
0
LINE
8
BLACK
6
CONTINUOUS
10
5.9714999999999998
20
-4.2524999999999995
11
6.0365000000000002
21
-4.2524999999999995
0
LINE
8
BLACK
6
CONTINUOUS
10
6.0365000000000002
20
-4.2524999999999995
11
6.0380307480314963
21
-4.2528044881889766
0
LINE
8
BLACK
6
CONTINUOUS
10
6.138030748031496
20
-4.2528044881889766
11
6.1393284251968501
21
-4.2536715748031497
0
LINE
8
BLACK
6
CONTINUOUS
10
6.1393284251968501
20
-4.2536715748031497
11
6.1401955118110232
21
-4.2549692519685038
0
LINE
8
BLACK
6
CONTINUOUS
10
6.1401955118110232
20
-4.2549692519685038
11
6.1405000000000003
21
-4.2565
0
LINE
8
BLACK
6
CONTINUOUS
10
6.1405000000000003
20
-4.2565
11
6.1405000000000003
21
-4.3215000000000003
0
LINE
8
BLACK
6
CONTINUOUS
10
6.1405000000000003
20
-4.3215000000000003
11
6.1401955118110232
21
-4.3230307480314956
0
LINE
8
BLACK
6
CONTINUOUS
10
6.1401955118110232
20
-4.3230307480314956
11
6.1393284251968501
21
-4.3243284251968506
0
LINE
8
BLACK
6
CONTINUOUS
10
6.1393284251968501
20
-4.3243284251968506
11
6.138030748031496
21
-4.3251955118110237
0
LINE
8
BLACK
6
CONTINUOUS
10
6.138030748031496
20
-4.3251955118110237
11
6.1364999999999998
21
-4.3254999999999999
0
LINE
8
BLACK
6
CONTINUOUS
10
6.1364999999999998
20
-4.3254999999999999
11
6.0714999999999995
21
-4.3254999999999999
0
LINE
8
BLACK
6
CONTINUOUS
10
6.0714999999999995
20
-4.3254999999999999
11
6.0699692519685042
21
-4.3251955118110237
0
LINE
8
BLACK
6
CONTINUOUS
10
6.0699692519685042
20
-4.3251955118110237
11
6.0686715748031492
21
-4.3243284251968506
0
LINE
8
BLACK
6
CONTINUOUS
10
6.0686715748031492
20
-4.3243284251968506
11
6.0678044881889761
21
-4.3230307480314956
0
LINE
8
BLACK
6
CONTINUOUS
10
6.0678044881889761
20
-4.3230307480314956
11
6.0674999999999999
21
-4.3215000000000003
0
LINE
8
BLACK
6
CONTINUOUS
10
6.0674999999999999
20
-4.3215000000000003
11
6.0674999999999999
21
-4.2565
0
LINE
8
BLACK
6
CONTINUOUS
10
6.0674999999999999
20
-4.2565
11
6.0678044881889761
21
-4.2549692519685038
0
LINE
8
BLACK
6
CONTINUOUS
10
6.0678044881889761
20
-4.2549692519685038
11
6.0686715748031492
21
-4.2536715748031497
0
LINE
8
BLACK
6
CONTINUOUS
10
6.0686715748031492
20
-4.2536715748031497
11
6.0699692519685042
21
-4.2528044881889766
0
LINE
8
BLACK
6
CONTINUOUS
10
6.0699692519685042
20
-4.2528044881889766
11
6.0714999999999995
21
-4.2524999999999995
0
LINE
8
BLACK
6
CONTINUOUS
10
6.0714999999999995
20
-4.2524999999999995
11
6.1364999999999998
21
-4.2524999999999995
0
LINE
8
BLACK
6
CONTINUOUS
10
6.1364999999999998
20
-4.2524999999999995
11
6.138030748031496
21
-4.2528044881889766
0
LINE
8
BLACK
6
CONTINUOUS
10
5.6330307480314961
20
-4.197804488188976
11
5.6343284251968502
21
-4.1986715748031491
0
LINE
8
BLACK
6
CONTINUOUS
10
5.6343284251968502
20
-4.1986715748031491
11
5.6351955118110233
21
-4.1999692519685041
0
LINE
8
BLACK
6
CONTINUOUS
10
5.6351955118110233
20
-4.1999692519685041
11
5.6354999999999995
21
-4.2015000000000002
0
LINE
8
BLACK
6
CONTINUOUS
10
5.6354999999999995
20
-4.2015000000000002
11
5.6354999999999995
21
-4.2664999999999997
0
LINE
8
BLACK
6
CONTINUOUS
10
5.6354999999999995
20
-4.2664999999999997
11
5.6351955118110233
21
-4.2680307480314958
0
LINE
8
BLACK
6
CONTINUOUS
10
5.6351955118110233
20
-4.2680307480314958
11
5.6343284251968502
21
-4.26932842519685
0
LINE
8
BLACK
6
CONTINUOUS
10
5.6343284251968502
20
-4.26932842519685
11
5.6330307480314961
21
-4.2701955118110231
0
LINE
8
BLACK
6
CONTINUOUS
10
5.6330307480314961
20
-4.2701955118110231
11
5.6315
21
-4.2705000000000002
0
LINE
8
BLACK
6
CONTINUOUS
10
5.6315
20
-4.2705000000000002
11
5.5664999999999996
21
-4.2705000000000002
0
LINE
8
BLACK
6
CONTINUOUS
10
5.5664999999999996
20
-4.2705000000000002
11
5.5649692519685034
21
-4.2701955118110231
0
LINE
8
BLACK
6
CONTINUOUS
10
5.5649692519685034
20
-4.2701955118110231
11
5.5636715748031493
21
-4.26932842519685
0
LINE
8
BLACK
6
CONTINUOUS
10
5.5636715748031493
20
-4.26932842519685
11
5.5628044881889762
21
-4.2680307480314958
0
LINE
8
BLACK
6
CONTINUOUS
10
5.5628044881889762
20
-4.2680307480314958
11
5.5625
21
-4.2664999999999997
0
LINE
8
BLACK
6
CONTINUOUS
10
5.5625
20
-4.2664999999999997
11
5.5625
21
-4.2015000000000002
0
LINE
8
BLACK
6
CONTINUOUS
10
5.5625
20
-4.2015000000000002
11
5.5628044881889762
21
-4.1999692519685041
0
LINE
8
BLACK
6
CONTINUOUS
10
5.5628044881889762
20
-4.1999692519685041
11
5.5636715748031493
21
-4.1986715748031491
0
LINE
8
BLACK
6
CONTINUOUS
10
5.5636715748031493
20
-4.1986715748031491
11
5.5649692519685034
21
-4.197804488188976
0
LINE
8
BLACK
6
CONTINUOUS
10
5.5649692519685034
20
-4.197804488188976
11
5.5664999999999996
21
-4.1974999999999998
0
LINE
8
BLACK
6
CONTINUOUS
10
5.5664999999999996
20
-4.1974999999999998
11
5.6315
21
-4.1974999999999998
0
LINE
8
BLACK
6
CONTINUOUS
10
5.6315
20
-4.1974999999999998
11
5.6330307480314961
21
-4.197804488188976
0
LINE
8
BLACK
6
CONTINUOUS
10
6.1912125590551179
20
-3.9872194094488189
11
6.1993000787401575
21
-3.9903525196850391
0
LINE
8
BLACK
6
CONTINUOUS
10
6.1993000787401575
20
-3.9903525196850391
11
6.2066742125984247
21
-3.9949183858267716
0
LINE
8
BLACK
6
CONTINUOUS
10
6.2066742125984247
20
-3.9949183858267716
11
6.2130838188976378
21
-4.0007614960629923
0
LINE
8
BLACK
6
CONTINUOUS
10
6.2130838188976378
20
-4.0007614960629923
11
6.2183105905511811
21
-4.0076828740157477
0
LINE
8
BLACK
6
CONTINUOUS
10
6.2183105905511811
20
-4.0076828740157477
11
6.2221765748031492
21
-4.0154468503937011
0
LINE
8
BLACK
6
CONTINUOUS
10
6.2221765748031492
20
-4.0154468503937011
11
6.2245501181102361
21
-4.0237889763779524
0
LINE
8
BLACK
6
CONTINUOUS
10
6.2245501181102361
20
-4.0237889763779524
11
6.2253503937007872
21
-4.0324251968503937
0
LINE
8
BLACK
6
CONTINUOUS
10
6.2253503937007872
20
-4.0324251968503937
11
6.2245501181102361
21
-4.041061417322835
0
LINE
8
BLACK
6
CONTINUOUS
10
6.2245501181102361
20
-4.041061417322835
11
6.2221765748031492
21
-4.0494035433070863
0
LINE
8
BLACK
6
CONTINUOUS
10
6.2221765748031492
20
-4.0494035433070863
11
6.2183105905511811
21
-4.0571675196850396
0
LINE
8
BLACK
6
CONTINUOUS
10
6.2183105905511811
20
-4.0571675196850396
11
6.2130838188976378
21
-4.0640888976377951
0
LINE
8
BLACK
6
CONTINUOUS
10
6.2130838188976378
20
-4.0640888976377951
11
6.2066742125984247
21
-4.0699320078740158
0
LINE
8
BLACK
6
CONTINUOUS
10
6.2066742125984247
20
-4.0699320078740158
11
6.1993000787401575
21
-4.0744978740157478
0
LINE
8
BLACK
6
CONTINUOUS
10
6.1993000787401575
20
-4.0744978740157478
11
6.1912125590551179
21
-4.077630984251968
0
LINE
8
BLACK
6
CONTINUOUS
10
6.1912125590551179
20
-4.077630984251968
11
6.1826870078740157
21
-4.0792246850393701
0
LINE
8
BLACK
6
CONTINUOUS
10
6.1826870078740157
20
-4.0792246850393701
11
6.1740137795275585
21
-4.0792246850393701
0
LINE
8
BLACK
6
CONTINUOUS
10
6.1740137795275585
20
-4.0792246850393701
11
6.1654882283464563
21
-4.077630984251968
0
LINE
8
BLACK
6
CONTINUOUS
10
6.1654882283464563
20
-4.077630984251968
11
6.1574007086614175
21
-4.0744978740157478
0
LINE
8
BLACK
6
CONTINUOUS
10
6.1574007086614175
20
-4.0744978740157478
11
6.1500265748031495
21
-4.0699320078740158
0
LINE
8
BLACK
6
CONTINUOUS
10
6.1500265748031495
20
-4.0699320078740158
11
6.1436169685039372
21
-4.0640888976377951
0
LINE
8
BLACK
6
CONTINUOUS
10
6.1436169685039372
20
-4.0640888976377951
11
6.138390196850394
21
-4.0571675196850396
0
LINE
8
BLACK
6
CONTINUOUS
10
6.138390196850394
20
-4.0571675196850396
11
6.134524212598425
21
-4.0494035433070863
0
LINE
8
BLACK
6
CONTINUOUS
10
6.134524212598425
20
-4.0494035433070863
11
6.1321506692913381
21
-4.041061417322835
0
LINE
8
BLACK
6
CONTINUOUS
10
6.1321506692913381
20
-4.041061417322835
11
6.1313503937007869
21
-4.0324251968503937
0
LINE
8
BLACK
6
CONTINUOUS
10
6.1313503937007869
20
-4.0324251968503937
11
6.1321506692913381
21
-4.0237889763779524
0
LINE
8
BLACK
6
CONTINUOUS
10
6.1321506692913381
20
-4.0237889763779524
11
6.134524212598425
21
-4.0154468503937011
0
LINE
8
BLACK
6
CONTINUOUS
10
6.134524212598425
20
-4.0154468503937011
11
6.138390196850394
21
-4.0076828740157477
0
LINE
8
BLACK
6
CONTINUOUS
10
6.138390196850394
20
-4.0076828740157477
11
6.1436169685039372
21
-4.0007614960629923
0
LINE
8
BLACK
6
CONTINUOUS
10
6.1436169685039372
20
-4.0007614960629923
11
6.1500265748031495
21
-3.9949183858267716
0
LINE
8
BLACK
6
CONTINUOUS
10
6.1500265748031495
20
-3.9949183858267716
11
6.1574007086614175
21
-3.9903525196850391
0
LINE
8
BLACK
6
CONTINUOUS
10
6.1574007086614175
20
-3.9903525196850391
11
6.1654882283464563
21
-3.9872194094488189
0
LINE
8
BLACK
6
CONTINUOUS
10
6.1654882283464563
20
-3.9872194094488189
11
6.1740137795275585
21
-3.9856257086614173
0
LINE
8
BLACK
6
CONTINUOUS
10
6.1740137795275585
20
-3.9856257086614173
11
6.1826870078740157
21
-3.9856257086614173
0
LINE
8
BLACK
6
CONTINUOUS
10
6.1826870078740157
20
-3.9856257086614173
11
6.1912125590551179
21
-3.9872194094488189
0
LINE
8
BLACK
6
CONTINUOUS
10
5.6305307480314957
20
-3.9228044881889761
11
5.6318284251968507
21
-3.9236715748031497
0
LINE
8
BLACK
6
CONTINUOUS
10
5.6318284251968507
20
-3.9236715748031497
11
5.6326955118110238
21
-3.9249692519685038
0
LINE
8
BLACK
6
CONTINUOUS
10
5.6326955118110238
20
-3.9249692519685038
11
5.633
21
-3.9264999999999999
0
LINE
8
BLACK
6
CONTINUOUS
10
5.633
20
-3.9264999999999999
11
5.633
21
-3.9914999999999998
0
LINE
8
BLACK
6
CONTINUOUS
10
5.633
20
-3.9914999999999998
11
5.6326955118110238
21
-3.9930307480314959
0
LINE
8
BLACK
6
CONTINUOUS
10
5.6326955118110238
20
-3.9930307480314959
11
5.6318284251968507
21
-3.9943284251968505
0
LINE
8
BLACK
6
CONTINUOUS
10
5.6318284251968507
20
-3.9943284251968505
11
5.6305307480314957
21
-3.9951955118110236
0
LINE
8
BLACK
6
CONTINUOUS
10
5.6305307480314957
20
-3.9951955118110236
11
5.6289999999999996
21
-3.9954999999999998
0
LINE
8
BLACK
6
CONTINUOUS
10
5.6289999999999996
20
-3.9954999999999998
11
5.5640000000000001
21
-3.9954999999999998
0
LINE
8
BLACK
6
CONTINUOUS
10
5.5640000000000001
20
-3.9954999999999998
11
5.5624692519685039
21
-3.9951955118110236
0
LINE
8
BLACK
6
CONTINUOUS
10
5.5624692519685039
20
-3.9951955118110236
11
5.5611715748031498
21
-3.9943284251968505
0
LINE
8
BLACK
6
CONTINUOUS
10
5.5611715748031498
20
-3.9943284251968505
11
5.5603044881889758
21
-3.9930307480314959
0
LINE
8
BLACK
6
CONTINUOUS
10
5.5603044881889758
20
-3.9930307480314959
11
5.5599999999999996
21
-3.9914999999999998
0
LINE
8
BLACK
6
CONTINUOUS
10
5.5599999999999996
20
-3.9914999999999998
11
5.5599999999999996
21
-3.9264999999999999
0
LINE
8
BLACK
6
CONTINUOUS
10
5.5599999999999996
20
-3.9264999999999999
11
5.5603044881889758
21
-3.9249692519685038
0
LINE
8
BLACK
6
CONTINUOUS
10
5.5603044881889758
20
-3.9249692519685038
11
5.5611715748031498
21
-3.9236715748031497
0
LINE
8
BLACK
6
CONTINUOUS
10
5.5611715748031498
20
-3.9236715748031497
11
5.5624692519685039
21
-3.9228044881889761
0
LINE
8
BLACK
6
CONTINUOUS
10
5.5624692519685039
20
-3.9228044881889761
11
5.5640000000000001
21
-3.9224999999999999
0
LINE
8
BLACK
6
CONTINUOUS
10
5.5640000000000001
20
-3.9224999999999999
11
5.6289999999999996
21
-3.9224999999999999
0
LINE
8
BLACK
6
CONTINUOUS
10
5.6289999999999996
20
-3.9224999999999999
11
5.6305307480314957
21
-3.9228044881889761
0
LINE
8
BLACK
6
CONTINUOUS
10
5.7305307480314962
20
-3.9228044881889761
11
5.7318284251968503
21
-3.9236715748031497
0
LINE
8
BLACK
6
CONTINUOUS
10
5.7318284251968503
20
-3.9236715748031497
11
5.7326955118110234
21
-3.9249692519685038
0
LINE
8
BLACK
6
CONTINUOUS
10
5.7326955118110234
20
-3.9249692519685038
11
5.7329999999999997
21
-3.9264999999999999
0
LINE
8
BLACK
6
CONTINUOUS
10
5.7329999999999997
20
-3.9264999999999999
11
5.7329999999999997
21
-3.9914999999999998
0
LINE
8
BLACK
6
CONTINUOUS
10
5.7329999999999997
20
-3.9914999999999998
11
5.7326955118110234
21
-3.9930307480314959
0
LINE
8
BLACK
6
CONTINUOUS
10
5.7326955118110234
20
-3.9930307480314959
11
5.7318284251968503
21
-3.9943284251968505
0
LINE
8
BLACK
6
CONTINUOUS
10
5.7318284251968503
20
-3.9943284251968505
11
5.7305307480314962
21
-3.9951955118110236
0
LINE
8
BLACK
6
CONTINUOUS
10
5.7305307480314962
20
-3.9951955118110236
11
5.7290000000000001
21
-3.9954999999999998
0
LINE
8
BLACK
6
CONTINUOUS
10
5.7290000000000001
20
-3.9954999999999998
11
5.6639999999999997
21
-3.9954999999999998
0
LINE
8
BLACK
6
CONTINUOUS
10
5.6639999999999997
20
-3.9954999999999998
11
5.6624692519685036
21
-3.9951955118110236
0
LINE
8
BLACK
6
CONTINUOUS
10
5.6624692519685036
20
-3.9951955118110236
11
5.6611715748031495
21
-3.9943284251968505
0
LINE
8
BLACK
6
CONTINUOUS
10
5.6611715748031495
20
-3.9943284251968505
11
5.6603044881889764
21
-3.9930307480314959
0
LINE
8
BLACK
6
CONTINUOUS
10
5.6603044881889764
20
-3.9930307480314959
11
5.6600000000000001
21
-3.9914999999999998
0
LINE
8
BLACK
6
CONTINUOUS
10
5.6600000000000001
20
-3.9914999999999998
11
5.6600000000000001
21
-3.9264999999999999
0
LINE
8
BLACK
6
CONTINUOUS
10
5.6600000000000001
20
-3.9264999999999999
11
5.6603044881889764
21
-3.9249692519685038
0
LINE
8
BLACK
6
CONTINUOUS
10
5.6603044881889764
20
-3.9249692519685038
11
5.6611715748031495
21
-3.9236715748031497
0
LINE
8
BLACK
6
CONTINUOUS
10
5.6611715748031495
20
-3.9236715748031497
11
5.6624692519685036
21
-3.9228044881889761
0
LINE
8
BLACK
6
CONTINUOUS
10
5.6624692519685036
20
-3.9228044881889761
11
5.6639999999999997
21
-3.9224999999999999
0
LINE
8
BLACK
6
CONTINUOUS
10
5.6639999999999997
20
-3.9224999999999999
11
5.7290000000000001
21
-3.9224999999999999
0
LINE
8
BLACK
6
CONTINUOUS
10
5.7290000000000001
20
-3.9224999999999999
11
5.7305307480314962
21
-3.9228044881889761
0
LINE
8
BLACK
6
CONTINUOUS
10
5.7975117716535429
20
-3.8887942125984249
11
5.8055992913385825
21
-3.8919273228346456
0
LINE
8
BLACK
6
CONTINUOUS
10
5.8055992913385825
20
-3.8919273228346456
11
5.8129734251968506
21
-3.8964931889763781
0
LINE
8
BLACK
6
CONTINUOUS
10
5.8129734251968506
20
-3.8964931889763781
11
5.8193830314960628
21
-3.9023362992125983
0
LINE
8
BLACK
6
CONTINUOUS
10
5.8193830314960628
20
-3.9023362992125983
11
5.8246098031496061
21
-3.9092576771653542
0
LINE
8
BLACK
6
CONTINUOUS
10
5.8246098031496061
20
-3.9092576771653542
11
5.8284757874015742
21
-3.9170216535433071
0
LINE
8
BLACK
6
CONTINUOUS
10
5.8284757874015742
20
-3.9170216535433071
11
5.8308493307086611
21
-3.9253637795275589
0
LINE
8
BLACK
6
CONTINUOUS
10
5.8308493307086611
20
-3.9253637795275589
11
5.8316496062992123
21
-3.9339999999999997
0
LINE
8
BLACK
6
CONTINUOUS
10
5.8316496062992123
20
-3.9339999999999997
11
5.8308493307086611
21
-3.942636220472441
0
LINE
8
BLACK
6
CONTINUOUS
10
5.8308493307086611
20
-3.942636220472441
11
5.8284757874015742
21
-3.9509783464566928
0
LINE
8
BLACK
6
CONTINUOUS
10
5.8284757874015742
20
-3.9509783464566928
11
5.8246098031496061
21
-3.9587423228346457
0
LINE
8
BLACK
6
CONTINUOUS
10
5.8246098031496061
20
-3.9587423228346457
11
5.8193830314960628
21
-3.9656637007874016
0
LINE
8
BLACK
6
CONTINUOUS
10
5.8193830314960628
20
-3.9656637007874016
11
5.8129734251968506
21
-3.9715068110236218
0
LINE
8
BLACK
6
CONTINUOUS
10
5.8129734251968506
20
-3.9715068110236218
11
5.8055992913385825
21
-3.9760726771653543
0
LINE
8
BLACK
6
CONTINUOUS
10
5.8055992913385825
20
-3.9760726771653543
11
5.7975117716535429
21
-3.9792057874015749
0
LINE
8
BLACK
6
CONTINUOUS
10
5.7975117716535429
20
-3.9792057874015749
11
5.7889862204724407
21
-3.9807994881889761
0
LINE
8
BLACK
6
CONTINUOUS
10
5.7889862204724407
20
-3.9807994881889761
11
5.7803129921259844
21
-3.9807994881889761
0
LINE
8
BLACK
6
CONTINUOUS
10
5.7803129921259844
20
-3.9807994881889761
11
5.7717874409448822
21
-3.9792057874015749
0
LINE
8
BLACK
6
CONTINUOUS
10
5.7717874409448822
20
-3.9792057874015749
11
5.7636999212598425
21
-3.9760726771653543
0
LINE
8
BLACK
6
CONTINUOUS
10
5.7636999212598425
20
-3.9760726771653543
11
5.7563257874015745
21
-3.9715068110236218
0
LINE
8
BLACK
6
CONTINUOUS
10
5.7563257874015745
20
-3.9715068110236218
11
5.7499161811023622
21
-3.9656637007874016
0
LINE
8
BLACK
6
CONTINUOUS
10
5.7499161811023622
20
-3.9656637007874016
11
5.744689409448819
21
-3.9587423228346457
0
LINE
8
BLACK
6
CONTINUOUS
10
5.744689409448819
20
-3.9587423228346457
11
5.74082342519685
21
-3.9509783464566928
0
LINE
8
BLACK
6
CONTINUOUS
10
5.74082342519685
20
-3.9509783464566928
11
5.738449881889764
21
-3.942636220472441
0
LINE
8
BLACK
6
CONTINUOUS
10
5.738449881889764
20
-3.942636220472441
11
5.7376496062992128
21
-3.9339999999999997
0
LINE
8
BLACK
6
CONTINUOUS
10
5.7376496062992128
20
-3.9339999999999997
11
5.738449881889764
21
-3.9253637795275589
0
LINE
8
BLACK
6
CONTINUOUS
10
5.738449881889764
20
-3.9253637795275589
11
5.74082342519685
21
-3.9170216535433071
0
LINE
8
BLACK
6
CONTINUOUS
10
5.74082342519685
20
-3.9170216535433071
11
5.744689409448819
21
-3.9092576771653542
0
LINE
8
BLACK
6
CONTINUOUS
10
5.744689409448819
20
-3.9092576771653542
11
5.7499161811023622
21
-3.9023362992125983
0
LINE
8
BLACK
6
CONTINUOUS
10
5.7499161811023622
20
-3.9023362992125983
11
5.7563257874015745
21
-3.8964931889763781
0
LINE
8
BLACK
6
CONTINUOUS
10
5.7563257874015745
20
-3.8964931889763781
11
5.7636999212598425
21
-3.8919273228346456
0
LINE
8
BLACK
6
CONTINUOUS
10
5.7636999212598425
20
-3.8919273228346456
11
5.7717874409448822
21
-3.8887942125984249
0
LINE
8
BLACK
6
CONTINUOUS
10
5.7717874409448822
20
-3.8887942125984249
11
5.7803129921259844
21
-3.8872005118110233
0
LINE
8
BLACK
6
CONTINUOUS
10
5.7803129921259844
20
-3.8872005118110233
11
5.7889862204724407
21
-3.8872005118110233
0
LINE
8
BLACK
6
CONTINUOUS
10
5.7889862204724407
20
-3.8872005118110233
11
5.7975117716535429
21
-3.8887942125984249
0
LINE
8
BLACK
6
CONTINUOUS
10
5.6305307480314957
20
-3.8228044881889764
11
5.6318284251968507
21
-3.8236715748031496
0
LINE
8
BLACK
6
CONTINUOUS
10
5.6318284251968507
20
-3.8236715748031496
11
5.6326955118110238
21
-3.8249692519685037
0
LINE
8
BLACK
6
CONTINUOUS
10
5.6326955118110238
20
-3.8249692519685037
11
5.633
21
-3.8264999999999998
0
LINE
8
BLACK
6
CONTINUOUS
10
5.633
20
-3.8264999999999998
11
5.633
21
-3.8914999999999997
0
LINE
8
BLACK
6
CONTINUOUS
10
5.633
20
-3.8914999999999997
11
5.6326955118110238
21
-3.8930307480314958
0
LINE
8
BLACK
6
CONTINUOUS
10
5.6326955118110238
20
-3.8930307480314958
11
5.6318284251968507
21
-3.8943284251968504
0
LINE
8
BLACK
6
CONTINUOUS
10
5.6318284251968507
20
-3.8943284251968504
11
5.6305307480314957
21
-3.8951955118110235
0
LINE
8
BLACK
6
CONTINUOUS
10
5.6305307480314957
20
-3.8951955118110235
11
5.6289999999999996
21
-3.8954999999999997
0
LINE
8
BLACK
6
CONTINUOUS
10
5.6289999999999996
20
-3.8954999999999997
11
5.5640000000000001
21
-3.8954999999999997
0
LINE
8
BLACK
6
CONTINUOUS
10
5.5640000000000001
20
-3.8954999999999997
11
5.5624692519685039
21
-3.8951955118110235
0
LINE
8
BLACK
6
CONTINUOUS
10
5.5624692519685039
20
-3.8951955118110235
11
5.5611715748031498
21
-3.8943284251968504
0
LINE
8
BLACK
6
CONTINUOUS
10
5.5611715748031498
20
-3.8943284251968504
11
5.5603044881889758
21
-3.8930307480314958
0
LINE
8
BLACK
6
CONTINUOUS
10
5.5603044881889758
20
-3.8930307480314958
11
5.5599999999999996
21
-3.8914999999999997
0
LINE
8
BLACK
6
CONTINUOUS
10
5.5599999999999996
20
-3.8914999999999997
11
5.5599999999999996
21
-3.8264999999999998
0
LINE
8
BLACK
6
CONTINUOUS
10
5.5599999999999996
20
-3.8264999999999998
11
5.5603044881889758
21
-3.8249692519685037
0
LINE
8
BLACK
6
CONTINUOUS
10
5.5603044881889758
20
-3.8249692519685037
11
5.5611715748031498
21
-3.8236715748031496
0
LINE
8
BLACK
6
CONTINUOUS
10
5.5611715748031498
20
-3.8236715748031496
11
5.5624692519685039
21
-3.8228044881889764
0
LINE
8
BLACK
6
CONTINUOUS
10
5.5624692519685039
20
-3.8228044881889764
11
5.5640000000000001
21
-3.8224999999999998
0
LINE
8
BLACK
6
CONTINUOUS
10
5.5640000000000001
20
-3.8224999999999998
11
5.6289999999999996
21
-3.8224999999999998
0
LINE
8
BLACK
6
CONTINUOUS
10
5.6289999999999996
20
-3.8224999999999998
11
5.6305307480314957
21
-3.8228044881889764
0
LINE
8
BLACK
6
CONTINUOUS
10
5.7305307480314962
20
-3.8228044881889764
11
5.7318284251968503
21
-3.8236715748031496
0
LINE
8
BLACK
6
CONTINUOUS
10
5.7318284251968503
20
-3.8236715748031496
11
5.7326955118110234
21
-3.8249692519685037
0
LINE
8
BLACK
6
CONTINUOUS
10
5.7326955118110234
20
-3.8249692519685037
11
5.7329999999999997
21
-3.8264999999999998
0
LINE
8
BLACK
6
CONTINUOUS
10
5.7329999999999997
20
-3.8264999999999998
11
5.7329999999999997
21
-3.8914999999999997
0
LINE
8
BLACK
6
CONTINUOUS
10
5.7329999999999997
20
-3.8914999999999997
11
5.7326955118110234
21
-3.8930307480314958
0
LINE
8
BLACK
6
CONTINUOUS
10
5.7326955118110234
20
-3.8930307480314958
11
5.7318284251968503
21
-3.8943284251968504
0
LINE
8
BLACK
6
CONTINUOUS
10
5.7318284251968503
20
-3.8943284251968504
11
5.7305307480314962
21
-3.8951955118110235
0
LINE
8
BLACK
6
CONTINUOUS
10
5.7305307480314962
20
-3.8951955118110235
11
5.7290000000000001
21
-3.8954999999999997
0
LINE
8
BLACK
6
CONTINUOUS
10
5.7290000000000001
20
-3.8954999999999997
11
5.6639999999999997
21
-3.8954999999999997
0
LINE
8
BLACK
6
CONTINUOUS
10
5.6639999999999997
20
-3.8954999999999997
11
5.6624692519685036
21
-3.8951955118110235
0
LINE
8
BLACK
6
CONTINUOUS
10
5.6624692519685036
20
-3.8951955118110235
11
5.6611715748031495
21
-3.8943284251968504
0
LINE
8
BLACK
6
CONTINUOUS
10
5.6611715748031495
20
-3.8943284251968504
11
5.6603044881889764
21
-3.8930307480314958
0
LINE
8
BLACK
6
CONTINUOUS
10
5.6603044881889764
20
-3.8930307480314958
11
5.6600000000000001
21
-3.8914999999999997
0
LINE
8
BLACK
6
CONTINUOUS
10
5.6600000000000001
20
-3.8914999999999997
11
5.6600000000000001
21
-3.8264999999999998
0
LINE
8
BLACK
6
CONTINUOUS
10
5.6600000000000001
20
-3.8264999999999998
11
5.6603044881889764
21
-3.8249692519685037
0
LINE
8
BLACK
6
CONTINUOUS
10
5.6603044881889764
20
-3.8249692519685037
11
5.6611715748031495
21
-3.8236715748031496
0
LINE
8
BLACK
6
CONTINUOUS
10
5.6611715748031495
20
-3.8236715748031496
11
5.6624692519685036
21
-3.8228044881889764
0
LINE
8
BLACK
6
CONTINUOUS
10
5.6624692519685036
20
-3.8228044881889764
11
5.6639999999999997
21
-3.8224999999999998
0
LINE
8
BLACK
6
CONTINUOUS
10
5.6639999999999997
20
-3.8224999999999998
11
5.7290000000000001
21
-3.8224999999999998
0
LINE
8
BLACK
6
CONTINUOUS
10
5.7290000000000001
20
-3.8224999999999998
11
5.7305307480314962
21
-3.8228044881889764
0
LINE
8
BLACK
6
CONTINUOUS
10
6.1912125590551179
20
-3.7903690157480314
11
6.1993000787401575
21
-3.7935021259842521
0
LINE
8
BLACK
6
CONTINUOUS
10
6.1993000787401575
20
-3.7935021259842521
11
6.2066742125984247
21
-3.7980679921259841
0
LINE
8
BLACK
6
CONTINUOUS
10
6.2066742125984247
20
-3.7980679921259841
11
6.2130838188976378
21
-3.8039111023622048
0
LINE
8
BLACK
6
CONTINUOUS
10
6.2130838188976378
20
-3.8039111023622048
11
6.2183105905511811
21
-3.8108324803149607
0
LINE
8
BLACK
6
CONTINUOUS
10
6.2183105905511811
20
-3.8108324803149607
11
6.2221765748031492
21
-3.8185964566929131
0
LINE
8
BLACK
6
CONTINUOUS
10
6.2221765748031492
20
-3.8185964566929131
11
6.2245501181102361
21
-3.8269385826771654
0
LINE
8
BLACK
6
CONTINUOUS
10
6.2245501181102361
20
-3.8269385826771654
11
6.2253503937007872
21
-3.8355748031496062
0
LINE
8
BLACK
6
CONTINUOUS
10
6.2253503937007872
20
-3.8355748031496062
11
6.2245501181102361
21
-3.844211023622047
0
LINE
8
BLACK
6
CONTINUOUS
10
6.2245501181102361
20
-3.844211023622047
11
6.2221765748031492
21
-3.8525531496062992
0
LINE
8
BLACK
6
CONTINUOUS
10
6.2221765748031492
20
-3.8525531496062992
11
6.2183105905511811
21
-3.8603171259842517
0
LINE
8
BLACK
6
CONTINUOUS
10
6.2183105905511811
20
-3.8603171259842517
11
6.2130838188976378
21
-3.8672385039370076
0
LINE
8
BLACK
6
CONTINUOUS
10
6.2130838188976378
20
-3.8672385039370076
11
6.2066742125984247
21
-3.8730816141732283
0
LINE
8
BLACK
6
CONTINUOUS
10
6.2066742125984247
20
-3.8730816141732283
11
6.1993000787401575
21
-3.8776474803149608
0
LINE
8
BLACK
6
CONTINUOUS
10
6.1993000787401575
20
-3.8776474803149608
11
6.1912125590551179
21
-3.880780590551181
0
LINE
8
BLACK
6
CONTINUOUS
10
6.1912125590551179
20
-3.880780590551181
11
6.1826870078740157
21
-3.8823742913385826
0
LINE
8
BLACK
6
CONTINUOUS
10
6.1826870078740157
20
-3.8823742913385826
11
6.1740137795275585
21
-3.8823742913385826
0
LINE
8
BLACK
6
CONTINUOUS
10
6.1740137795275585
20
-3.8823742913385826
11
6.1654882283464563
21
-3.880780590551181
0
LINE
8
BLACK
6
CONTINUOUS
10
6.1654882283464563
20
-3.880780590551181
11
6.1574007086614175
21
-3.8776474803149608
0
LINE
8
BLACK
6
CONTINUOUS
10
6.1574007086614175
20
-3.8776474803149608
11
6.1500265748031495
21
-3.8730816141732283
0
LINE
8
BLACK
6
CONTINUOUS
10
6.1500265748031495
20
-3.8730816141732283
11
6.1436169685039372
21
-3.8672385039370076
0
LINE
8
BLACK
6
CONTINUOUS
10
6.1436169685039372
20
-3.8672385039370076
11
6.138390196850394
21
-3.8603171259842517
0
LINE
8
BLACK
6
CONTINUOUS
10
6.138390196850394
20
-3.8603171259842517
11
6.134524212598425
21
-3.8525531496062992
0
LINE
8
BLACK
6
CONTINUOUS
10
6.134524212598425
20
-3.8525531496062992
11
6.1321506692913381
21
-3.844211023622047
0
LINE
8
BLACK
6
CONTINUOUS
10
6.1321506692913381
20
-3.844211023622047
11
6.1313503937007869
21
-3.8355748031496062
0
LINE
8
BLACK
6
CONTINUOUS
10
6.1313503937007869
20
-3.8355748031496062
11
6.1321506692913381
21
-3.8269385826771654
0
LINE
8
BLACK
6
CONTINUOUS
10
6.1321506692913381
20
-3.8269385826771654
11
6.134524212598425
21
-3.8185964566929131
0
LINE
8
BLACK
6
CONTINUOUS
10
6.134524212598425
20
-3.8185964566929131
11
6.138390196850394
21
-3.8108324803149607
0
LINE
8
BLACK
6
CONTINUOUS
10
6.138390196850394
20
-3.8108324803149607
11
6.1436169685039372
21
-3.8039111023622048
0
LINE
8
BLACK
6
CONTINUOUS
10
6.1436169685039372
20
-3.8039111023622048
11
6.1500265748031495
21
-3.7980679921259841
0
LINE
8
BLACK
6
CONTINUOUS
10
6.1500265748031495
20
-3.7980679921259841
11
6.1574007086614175
21
-3.7935021259842521
0
LINE
8
BLACK
6
CONTINUOUS
10
6.1574007086614175
20
-3.7935021259842521
11
6.1654882283464563
21
-3.7903690157480314
0
LINE
8
BLACK
6
CONTINUOUS
10
6.1654882283464563
20
-3.7903690157480314
11
6.1740137795275585
21
-3.7887753149606298
0
LINE
8
BLACK
6
CONTINUOUS
10
6.1740137795275585
20
-3.7887753149606298
11
6.1826870078740157
21
-3.7887753149606298
0
LINE
8
BLACK
6
CONTINUOUS
10
6.1826870078740157
20
-3.7887753149606298
11
6.1912125590551179
21
-3.7903690157480314
0
LINE
8
BLACK
6
CONTINUOUS
10
5.6305307480314957
20
-3.7228044881889764
11
5.6318284251968507
21
-3.7236715748031495
0
LINE
8
BLACK
6
CONTINUOUS
10
5.6318284251968507
20
-3.7236715748031495
11
5.6326955118110238
21
-3.724969251968504
0
LINE
8
BLACK
6
CONTINUOUS
10
5.6326955118110238
20
-3.724969251968504
11
5.633
21
-3.7264999999999997
0
LINE
8
BLACK
6
CONTINUOUS
10
5.633
20
-3.7264999999999997
11
5.633
21
-3.7915000000000001
0
LINE
8
BLACK
6
CONTINUOUS
10
5.633
20
-3.7915000000000001
11
5.6326955118110238
21
-3.7930307480314958
0
LINE
8
BLACK
6
CONTINUOUS
10
5.6326955118110238
20
-3.7930307480314958
11
5.6318284251968507
21
-3.7943284251968503
0
LINE
8
BLACK
6
CONTINUOUS
10
5.6318284251968507
20
-3.7943284251968503
11
5.6305307480314957
21
-3.7951955118110234
0
LINE
8
BLACK
6
CONTINUOUS
10
5.6305307480314957
20
-3.7951955118110234
11
5.6289999999999996
21
-3.7955000000000001
0
LINE
8
BLACK
6
CONTINUOUS
10
5.6289999999999996
20
-3.7955000000000001
11
5.5640000000000001
21
-3.7955000000000001
0
LINE
8
BLACK
6
CONTINUOUS
10
5.5640000000000001
20
-3.7955000000000001
11
5.5624692519685039
21
-3.7951955118110234
0
LINE
8
BLACK
6
CONTINUOUS
10
5.5624692519685039
20
-3.7951955118110234
11
5.5611715748031498
21
-3.7943284251968503
0
LINE
8
BLACK
6
CONTINUOUS
10
5.5611715748031498
20
-3.7943284251968503
11
5.5603044881889758
21
-3.7930307480314958
0
LINE
8
BLACK
6
CONTINUOUS
10
5.5603044881889758
20
-3.7930307480314958
11
5.5599999999999996
21
-3.7915000000000001
0
LINE
8
BLACK
6
CONTINUOUS
10
5.5599999999999996
20
-3.7915000000000001
11
5.5599999999999996
21
-3.7264999999999997
0
LINE
8
BLACK
6
CONTINUOUS
10
5.5599999999999996
20
-3.7264999999999997
11
5.5603044881889758
21
-3.724969251968504
0
LINE
8
BLACK
6
CONTINUOUS
10
5.5603044881889758
20
-3.724969251968504
11
5.5611715748031498
21
-3.7236715748031495
0
LINE
8
BLACK
6
CONTINUOUS
10
5.5611715748031498
20
-3.7236715748031495
11
5.5624692519685039
21
-3.7228044881889764
0
LINE
8
BLACK
6
CONTINUOUS
10
5.5624692519685039
20
-3.7228044881889764
11
5.5640000000000001
21
-3.7224999999999997
0
LINE
8
BLACK
6
CONTINUOUS
10
5.5640000000000001
20
-3.7224999999999997
11
5.6289999999999996
21
-3.7224999999999997
0
LINE
8
BLACK
6
CONTINUOUS
10
5.6289999999999996
20
-3.7224999999999997
11
5.6305307480314957
21
-3.7228044881889764
0
LINE
8
BLACK
6
CONTINUOUS
10
5.7305307480314962
20
-3.7228044881889764
11
5.7318284251968503
21
-3.7236715748031495
0
LINE
8
BLACK
6
CONTINUOUS
10
5.7318284251968503
20
-3.7236715748031495
11
5.7326955118110234
21
-3.724969251968504
0
LINE
8
BLACK
6
CONTINUOUS
10
5.7326955118110234
20
-3.724969251968504
11
5.7329999999999997
21
-3.7264999999999997
0
LINE
8
BLACK
6
CONTINUOUS
10
5.7329999999999997
20
-3.7264999999999997
11
5.7329999999999997
21
-3.7915000000000001
0
LINE
8
BLACK
6
CONTINUOUS
10
5.7329999999999997
20
-3.7915000000000001
11
5.7326955118110234
21
-3.7930307480314958
0
LINE
8
BLACK
6
CONTINUOUS
10
5.7326955118110234
20
-3.7930307480314958
11
5.7318284251968503
21
-3.7943284251968503
0
LINE
8
BLACK
6
CONTINUOUS
10
5.7318284251968503
20
-3.7943284251968503
11
5.7305307480314962
21
-3.7951955118110234
0
LINE
8
BLACK
6
CONTINUOUS
10
5.7305307480314962
20
-3.7951955118110234
11
5.7290000000000001
21
-3.7955000000000001
0
LINE
8
BLACK
6
CONTINUOUS
10
5.7290000000000001
20
-3.7955000000000001
11
5.6639999999999997
21
-3.7955000000000001
0
LINE
8
BLACK
6
CONTINUOUS
10
5.6639999999999997
20
-3.7955000000000001
11
5.6624692519685036
21
-3.7951955118110234
0
LINE
8
BLACK
6
CONTINUOUS
10
5.6624692519685036
20
-3.7951955118110234
11
5.6611715748031495
21
-3.7943284251968503
0
LINE
8
BLACK
6
CONTINUOUS
10
5.6611715748031495
20
-3.7943284251968503
11
5.6603044881889764
21
-3.7930307480314958
0
LINE
8
BLACK
6
CONTINUOUS
10
5.6603044881889764
20
-3.7930307480314958
11
5.6600000000000001
21
-3.7915000000000001
0
LINE
8
BLACK
6
CONTINUOUS
10
5.6600000000000001
20
-3.7915000000000001
11
5.6600000000000001
21
-3.7264999999999997
0
LINE
8
BLACK
6
CONTINUOUS
10
5.6600000000000001
20
-3.7264999999999997
11
5.6603044881889764
21
-3.724969251968504
0
LINE
8
BLACK
6
CONTINUOUS
10
5.6603044881889764
20
-3.724969251968504
11
5.6611715748031495
21
-3.7236715748031495
0
LINE
8
BLACK
6
CONTINUOUS
10
5.6611715748031495
20
-3.7236715748031495
11
5.6624692519685036
21
-3.7228044881889764
0
LINE
8
BLACK
6
CONTINUOUS
10
5.6624692519685036
20
-3.7228044881889764
11
5.6639999999999997
21
-3.7224999999999997
0
LINE
8
BLACK
6
CONTINUOUS
10
5.6639999999999997
20
-3.7224999999999997
11
5.7290000000000001
21
-3.7224999999999997
0
LINE
8
BLACK
6
CONTINUOUS
10
5.7290000000000001
20
-3.7224999999999997
11
5.7305307480314962
21
-3.7228044881889764
0
LINE
8
BLACK
6
CONTINUOUS
10
5.66769342519685
20
-3.4047257086614171
11
5.6815462204724412
21
-3.4077749606299212
0
LINE
8
BLACK
6
CONTINUOUS
10
5.6815462204724412
20
-3.4077749606299212
11
5.6949881102362205
21
-3.4123040551181103
0
LINE
8
BLACK
6
CONTINUOUS
10
5.6949881102362205
20
-3.4123040551181103
11
5.7078614960629919
21
-3.4182599212598426
0
LINE
8
BLACK
6
CONTINUOUS
10
5.7078614960629919
20
-3.4182599212598426
11
5.7200155118110239
21
-3.4255727559055118
0
LINE
8
BLACK
6
CONTINUOUS
10
5.7200155118110239
20
-3.4255727559055118
11
5.7313075984251967
21
-3.434156771653543
0
LINE
8
BLACK
6
CONTINUOUS
10
5.7313075984251967
20
-3.434156771653543
11
5.7416053937007874
21
-3.4439113779527557
0
LINE
8
BLACK
6
CONTINUOUS
10
5.7416053937007874
20
-3.4439113779527557
11
5.7507881889763777
21
-3.4547221653543305
0
LINE
8
BLACK
6
CONTINUOUS
10
5.7507881889763777
20
-3.4547221653543305
11
5.7587483070866137
21
-3.4664624409448819
0
LINE
8
BLACK
6
CONTINUOUS
10
5.7587483070866137
20
-3.4664624409448819
11
5.7653923622047243
21
-3.4789945275590552
0
LINE
8
BLACK
6
CONTINUOUS
10
5.7653923622047243
20
-3.4789945275590552
11
5.7706425590551182
21
-3.4921714960629919
0
LINE
8
BLACK
6
CONTINUOUS
10
5.7706425590551182
20
-3.4921714960629919
11
5.7744372834645672
21
-3.5058388582677162
0
LINE
8
BLACK
6
CONTINUOUS
10
5.7744372834645672
20
-3.5058388582677162
11
5.7767320866141727
21
-3.5198364173228347
0
LINE
8
BLACK
6
CONTINUOUS
10
5.7767320866141727
20
-3.5198364173228347
11
5.7774999999999999
21
-3.5339999999999998
0
LINE
8
BLACK
6
CONTINUOUS
10
5.7774999999999999
20
-3.5339999999999998
11
5.7767320866141727
21
-3.5481635826771654
0
LINE
8
BLACK
6
CONTINUOUS
10
5.7767320866141727
20
-3.5481635826771654
11
5.7744372834645672
21
-3.5621611417322834
0
LINE
8
BLACK
6
CONTINUOUS
10
5.7744372834645672
20
-3.5621611417322834
11
5.7706425590551182
21
-3.5758285039370077
0
LINE
8
BLACK
6
CONTINUOUS
10
5.7706425590551182
20
-3.5758285039370077
11
5.7653923622047243
21
-3.5890054724409448
0
LINE
8
BLACK
6
CONTINUOUS
10
5.7653923622047243
20
-3.5890054724409448
11
5.7587483070866137
21
-3.6015375590551182
0
LINE
8
BLACK
6
CONTINUOUS
10
5.7587483070866137
20
-3.6015375590551182
11
5.7507881889763777
21
-3.6132778346456691
0
LINE
8
BLACK
6
CONTINUOUS
10
5.7507881889763777
20
-3.6132778346456691
11
5.7416053937007874
21
-3.6240886220472439
0
LINE
8
BLACK
6
CONTINUOUS
10
5.7416053937007874
20
-3.6240886220472439
11
5.7313075984251967
21
-3.6338432283464566
0
LINE
8
BLACK
6
CONTINUOUS
10
5.7313075984251967
20
-3.6338432283464566
11
5.7200155118110239
21
-3.6424272440944883
0
LINE
8
BLACK
6
CONTINUOUS
10
5.7200155118110239
20
-3.6424272440944883
11
5.7078614960629919
21
-3.6497400787401575
0
LINE
8
BLACK
6
CONTINUOUS
10
5.7078614960629919
20
-3.6497400787401575
11
5.6949881102362205
21
-3.6556959448818898
0
LINE
8
BLACK
6
CONTINUOUS
10
5.6949881102362205
20
-3.6556959448818898
11
5.6815462204724412
21
-3.6602250393700788
0
LINE
8
BLACK
6
CONTINUOUS
10
5.6815462204724412
20
-3.6602250393700788
11
5.66769342519685
21
-3.6632742913385825
0
LINE
8
BLACK
6
CONTINUOUS
10
5.66769342519685
20
-3.6632742913385825
11
5.6535922047244096
21
-3.6648078740157479
0
LINE
8
BLACK
6
CONTINUOUS
10
5.6535922047244096
20
-3.6648078740157479
11
5.6394077952755906
21
-3.6648078740157479
0
LINE
8
BLACK
6
CONTINUOUS
10
5.6394077952755906
20
-3.6648078740157479
11
5.6253065748031492
21
-3.6632742913385825
0
LINE
8
BLACK
6
CONTINUOUS
10
5.6253065748031492
20
-3.6632742913385825
11
5.611453779527559
21
-3.6602250393700788
0
LINE
8
BLACK
6
CONTINUOUS
10
5.611453779527559
20
-3.6602250393700788
11
5.5980118897637796
21
-3.6556959448818898
0
LINE
8
BLACK
6
CONTINUOUS
10
5.5980118897637796
20
-3.6556959448818898
11
5.5851385039370074
21
-3.6497400787401575
0
LINE
8
BLACK
6
CONTINUOUS
10
5.5851385039370074
20
-3.6497400787401575
11
5.5729844881889763
21
-3.6424272440944883
0
LINE
8
BLACK
6
CONTINUOUS
10
5.5729844881889763
20
-3.6424272440944883
11
5.5616924015748026
21
-3.6338432283464566
0
LINE
8
BLACK
6
CONTINUOUS
10
5.5616924015748026
20
-3.6338432283464566
11
5.5513946062992128
21
-3.6240886220472439
0
LINE
8
BLACK
6
CONTINUOUS
10
5.5513946062992128
20
-3.6240886220472439
11
5.5422118110236216
21
-3.6132778346456691
0
LINE
8
BLACK
6
CONTINUOUS
10
5.5422118110236216
20
-3.6132778346456691
11
5.5342516929133856
21
-3.6015375590551182
0
LINE
8
BLACK
6
CONTINUOUS
10
5.5342516929133856
20
-3.6015375590551182
11
5.5276076377952759
21
-3.5890054724409448
0
LINE
8
BLACK
6
CONTINUOUS
10
5.5276076377952759
20
-3.5890054724409448
11
5.5223574409448819
21
-3.5758285039370077
0
LINE
8
BLACK
6
CONTINUOUS
10
5.5223574409448819
20
-3.5758285039370077
11
5.518562716535433
21
-3.5621611417322834
0
LINE
8
BLACK
6
CONTINUOUS
10
5.518562716535433
20
-3.5621611417322834
11
5.5162679133858266
21
-3.5481635826771654
0
LINE
8
BLACK
6
CONTINUOUS
10
5.5162679133858266
20
-3.5481635826771654
11
5.5155000000000003
21
-3.5339999999999998
0
LINE
8
BLACK
6
CONTINUOUS
10
5.5155000000000003
20
-3.5339999999999998
11
5.5162679133858266
21
-3.5198364173228347
0
LINE
8
BLACK
6
CONTINUOUS
10
5.5162679133858266
20
-3.5198364173228347
11
5.518562716535433
21
-3.5058388582677162
0
LINE
8
BLACK
6
CONTINUOUS
10
5.518562716535433
20
-3.5058388582677162
11
5.5223574409448819
21
-3.4921714960629919
0
LINE
8
BLACK
6
CONTINUOUS
10
5.5223574409448819
20
-3.4921714960629919
11
5.5276076377952759
21
-3.4789945275590552
0
LINE
8
BLACK
6
CONTINUOUS
10
5.5276076377952759
20
-3.4789945275590552
11
5.5342516929133856
21
-3.4664624409448819
0
LINE
8
BLACK
6
CONTINUOUS
10
5.5342516929133856
20
-3.4664624409448819
11
5.5422118110236216
21
-3.4547221653543305
0
LINE
8
BLACK
6
CONTINUOUS
10
5.5422118110236216
20
-3.4547221653543305
11
5.5513946062992128
21
-3.4439113779527557
0
LINE
8
BLACK
6
CONTINUOUS
10
5.5513946062992128
20
-3.4439113779527557
11
5.5616924015748026
21
-3.434156771653543
0
LINE
8
BLACK
6
CONTINUOUS
10
5.5616924015748026
20
-3.434156771653543
11
5.5729844881889763
21
-3.4255727559055118
0
LINE
8
BLACK
6
CONTINUOUS
10
5.5729844881889763
20
-3.4255727559055118
11
5.5851385039370074
21
-3.4182599212598426
0
LINE
8
BLACK
6
CONTINUOUS
10
5.5851385039370074
20
-3.4182599212598426
11
5.5980118897637796
21
-3.4123040551181103
0
LINE
8
BLACK
6
CONTINUOUS
10
5.5980118897637796
20
-3.4123040551181103
11
5.611453779527559
21
-3.4077749606299212
0
LINE
8
BLACK
6
CONTINUOUS
10
5.611453779527559
20
-3.4077749606299212
11
5.6253065748031492
21
-3.4047257086614171
0
LINE
8
BLACK
6
CONTINUOUS
10
5.6253065748031492
20
-3.4047257086614171
11
5.6394077952755906
21
-3.4031921259842517
0
LINE
8
BLACK
6
CONTINUOUS
10
5.6394077952755906
20
-3.4031921259842517
11
5.6535922047244096
21
-3.4031921259842517
0
LINE
8
BLACK
6
CONTINUOUS
10
5.6535922047244096
20
-3.4031921259842517
11
5.66769342519685
21
-3.4047257086614171
0
LINE
8
BLACK
6
CONTINUOUS
10
6.0676934251968504
20
-3.4047257086614171
11
6.0815462204724406
21
-3.4077749606299212
0
LINE
8
BLACK
6
CONTINUOUS
10
6.0815462204724406
20
-3.4077749606299212
11
6.09498811023622
21
-3.4123040551181103
0
LINE
8
BLACK
6
CONTINUOUS
10
6.09498811023622
20
-3.4123040551181103
11
6.1078614960629922
21
-3.4182599212598426
0
LINE
8
BLACK
6
CONTINUOUS
10
6.1078614960629922
20
-3.4182599212598426
11
6.1200155118110233
21
-3.4255727559055118
0
LINE
8
BLACK
6
CONTINUOUS
10
6.1200155118110233
20
-3.4255727559055118
11
6.131307598425197
21
-3.434156771653543
0
LINE
8
BLACK
6
CONTINUOUS
10
6.131307598425197
20
-3.434156771653543
11
6.1416053937007868
21
-3.4439113779527557
0
LINE
8
BLACK
6
CONTINUOUS
10
6.1416053937007868
20
-3.4439113779527557
11
6.150788188976378
21
-3.4547221653543305
0
LINE
8
BLACK
6
CONTINUOUS
10
6.150788188976378
20
-3.4547221653543305
11
6.158748307086614
21
-3.4664624409448819
0
LINE
8
BLACK
6
CONTINUOUS
10
6.158748307086614
20
-3.4664624409448819
11
6.1653923622047246
21
-3.4789945275590552
0
LINE
8
BLACK
6
CONTINUOUS
10
6.1653923622047246
20
-3.4789945275590552
11
6.1706425590551177
21
-3.4921714960629919
0
LINE
8
BLACK
6
CONTINUOUS
10
6.1706425590551177
20
-3.4921714960629919
11
6.1744372834645667
21
-3.5058388582677162
0
LINE
8
BLACK
6
CONTINUOUS
10
6.1744372834645667
20
-3.5058388582677162
11
6.1767320866141731
21
-3.5198364173228347
0
LINE
8
BLACK
6
CONTINUOUS
10
6.1767320866141731
20
-3.5198364173228347
11
6.1775000000000002
21
-3.5339999999999998
0
LINE
8
BLACK
6
CONTINUOUS
10
6.1775000000000002
20
-3.5339999999999998
11
6.1767320866141731
21
-3.5481635826771654
0
LINE
8
BLACK
6
CONTINUOUS
10
6.1767320866141731
20
-3.5481635826771654
11
6.1744372834645667
21
-3.5621611417322834
0
LINE
8
BLACK
6
CONTINUOUS
10
6.1744372834645667
20
-3.5621611417322834
11
6.1706425590551177
21
-3.5758285039370077
0
LINE
8
BLACK
6
CONTINUOUS
10
6.1706425590551177
20
-3.5758285039370077
11
6.1653923622047246
21
-3.5890054724409448
0
LINE
8
BLACK
6
CONTINUOUS
10
6.1653923622047246
20
-3.5890054724409448
11
6.158748307086614
21
-3.6015375590551182
0
LINE
8
BLACK
6
CONTINUOUS
10
6.158748307086614
20
-3.6015375590551182
11
6.150788188976378
21
-3.6132778346456691
0
LINE
8
BLACK
6
CONTINUOUS
10
6.150788188976378
20
-3.6132778346456691
11
6.1416053937007868
21
-3.6240886220472439
0
LINE
8
BLACK
6
CONTINUOUS
10
6.1416053937007868
20
-3.6240886220472439
11
6.131307598425197
21
-3.6338432283464566
0
LINE
8
BLACK
6
CONTINUOUS
10
6.131307598425197
20
-3.6338432283464566
11
6.1200155118110233
21
-3.6424272440944883
0
LINE
8
BLACK
6
CONTINUOUS
10
6.1200155118110233
20
-3.6424272440944883
11
6.1078614960629922
21
-3.6497400787401575
0
LINE
8
BLACK
6
CONTINUOUS
10
6.1078614960629922
20
-3.6497400787401575
11
6.09498811023622
21
-3.6556959448818898
0
LINE
8
BLACK
6
CONTINUOUS
10
6.09498811023622
20
-3.6556959448818898
11
6.0815462204724406
21
-3.6602250393700788
0
LINE
8
BLACK
6
CONTINUOUS
10
6.0815462204724406
20
-3.6602250393700788
11
6.0676934251968504
21
-3.6632742913385825
0
LINE
8
BLACK
6
CONTINUOUS
10
6.0676934251968504
20
-3.6632742913385825
11
6.0535922047244091
21
-3.6648078740157479
0
LINE
8
BLACK
6
CONTINUOUS
10
6.0535922047244091
20
-3.6648078740157479
11
6.03940779527559
21
-3.6648078740157479
0
LINE
8
BLACK
6
CONTINUOUS
10
6.03940779527559
20
-3.6648078740157479
11
6.0253065748031496
21
-3.6632742913385825
0
LINE
8
BLACK
6
CONTINUOUS
10
6.0253065748031496
20
-3.6632742913385825
11
6.0114537795275593
21
-3.6602250393700788
0
LINE
8
BLACK
6
CONTINUOUS
10
6.0114537795275593
20
-3.6602250393700788
11
5.9980118897637791
21
-3.6556959448818898
0
LINE
8
BLACK
6
CONTINUOUS
10
5.9980118897637791
20
-3.6556959448818898
11
5.9851385039370077
21
-3.6497400787401575
0
LINE
8
BLACK
6
CONTINUOUS
10
5.9851385039370077
20
-3.6497400787401575
11
5.9729844881889766
21
-3.6424272440944883
0
LINE
8
BLACK
6
CONTINUOUS
10
5.9729844881889766
20
-3.6424272440944883
11
5.961692401574803
21
-3.6338432283464566
0
LINE
8
BLACK
6
CONTINUOUS
10
5.961692401574803
20
-3.6338432283464566
11
5.9513946062992122
21
-3.6240886220472439
0
LINE
8
BLACK
6
CONTINUOUS
10
5.9513946062992122
20
-3.6240886220472439
11
5.9422118110236219
21
-3.6132778346456691
0
LINE
8
BLACK
6
CONTINUOUS
10
5.9422118110236219
20
-3.6132778346456691
11
5.9342516929133859
21
-3.6015375590551182
0
LINE
8
BLACK
6
CONTINUOUS
10
5.9342516929133859
20
-3.6015375590551182
11
5.9276076377952753
21
-3.5890054724409448
0
LINE
8
BLACK
6
CONTINUOUS
10
5.9276076377952753
20
-3.5890054724409448
11
5.9223574409448814
21
-3.5758285039370077
0
LINE
8
BLACK
6
CONTINUOUS
10
5.9223574409448814
20
-3.5758285039370077
11
5.9185627165354333
21
-3.5621611417322834
0
LINE
8
BLACK
6
CONTINUOUS
10
5.9185627165354333
20
-3.5621611417322834
11
5.9162679133858269
21
-3.5481635826771654
0
LINE
8
BLACK
6
CONTINUOUS
10
5.9162679133858269
20
-3.5481635826771654
11
5.9154999999999998
21
-3.5339999999999998
0
LINE
8
BLACK
6
CONTINUOUS
10
5.9154999999999998
20
-3.5339999999999998
11
5.9162679133858269
21
-3.5198364173228347
0
LINE
8
BLACK
6
CONTINUOUS
10
5.9162679133858269
20
-3.5198364173228347
11
5.9185627165354333
21
-3.5058388582677162
0
LINE
8
BLACK
6
CONTINUOUS
10
5.9185627165354333
20
-3.5058388582677162
11
5.9223574409448814
21
-3.4921714960629919
0
LINE
8
BLACK
6
CONTINUOUS
10
5.9223574409448814
20
-3.4921714960629919
11
5.9276076377952753
21
-3.4789945275590552
0
LINE
8
BLACK
6
CONTINUOUS
10
5.9276076377952753
20
-3.4789945275590552
11
5.9342516929133859
21
-3.4664624409448819
0
LINE
8
BLACK
6
CONTINUOUS
10
5.9342516929133859
20
-3.4664624409448819
11
5.9422118110236219
21
-3.4547221653543305
0
LINE
8
BLACK
6
CONTINUOUS
10
5.9422118110236219
20
-3.4547221653543305
11
5.9513946062992122
21
-3.4439113779527557
0
LINE
8
BLACK
6
CONTINUOUS
10
5.9513946062992122
20
-3.4439113779527557
11
5.961692401574803
21
-3.434156771653543
0
LINE
8
BLACK
6
CONTINUOUS
10
5.961692401574803
20
-3.434156771653543
11
5.9729844881889766
21
-3.4255727559055118
0
LINE
8
BLACK
6
CONTINUOUS
10
5.9729844881889766
20
-3.4255727559055118
11
5.9851385039370077
21
-3.4182599212598426
0
LINE
8
BLACK
6
CONTINUOUS
10
5.9851385039370077
20
-3.4182599212598426
11
5.9980118897637791
21
-3.4123040551181103
0
LINE
8
BLACK
6
CONTINUOUS
10
5.9980118897637791
20
-3.4123040551181103
11
6.0114537795275593
21
-3.4077749606299212
0
LINE
8
BLACK
6
CONTINUOUS
10
6.0114537795275593
20
-3.4077749606299212
11
6.0253065748031496
21
-3.4047257086614171
0
LINE
8
BLACK
6
CONTINUOUS
10
6.0253065748031496
20
-3.4047257086614171
11
6.03940779527559
21
-3.4031921259842517
0
LINE
8
BLACK
6
CONTINUOUS
10
6.03940779527559
20
-3.4031921259842517
11
6.0535922047244091
21
-3.4031921259842517
0
LINE
8
BLACK
6
CONTINUOUS
10
6.0535922047244091
20
-3.4031921259842517
11
6.0676934251968504
21
-3.4047257086614171
  0
ENDSEC
  0
EOF
