  0
SECTION
  2
HEADER
  9
$ANGBASE
  50
0.0
  9
$ANGDIR
  70
1
  9
$MEASUREMENT
  70
0
  0
ENDSEC
  0
SECTION
  2
TABLES
  0
TABLE
  2
LTYPE
  70
4
  0
LTYPE
  5
40F
  2
CONTINUOUS
  70
0
  3
Solid line
  72
65
  73
0
  40
0.0
  0
LTYPE
  5
410
  2
DASHDOT
 70
0
  3
Dash Dot ____ _ ____ _
 72
65
 73
4
 40
2.0
 49
1.25
 49
-0.25
 49
0.25
 49
-0.25
  0
LTYPE
  5
411
  2
DASHED
 70
0
  3
Dashed __ __ __ __ __
 72
65
 73
2
 40
0.75
 49
0.5
 49
-0.25
  0
LTYPE
  5
43B
  2
DOTTED
 70
0
  3
Dotted .  .  .  .
 72
65
 73
2
 40
0.2
 49
0.0
 49
-0.2
  0
ENDTAB
  0
TABLE
  2
STYLE
  70
4
  0
STYLE
  2
KICAD
  70
0
  40
0
  41
1
  42
1
  50
0
  71
0
  3
isocp.shx
  0
STYLE
  2
KICADB
  70
0
  40
0
  41
1
  42
1
  50
0
  71
0
  3
isocp.shx
  0
STYLE
  2
KICADI
  70
0
  40
0
  41
1
  42
1
  50
15
  71
0
  3
isocp.shx
  0
STYLE
  2
KICADBI
  70
0
  40
0
  41
1
  42
1
  50
15
  71
0
  3
isocp.shx
  0
ENDTAB
  0
TABLE
  2
LAYER
  70
1
  0
LAYER
  2
BLACK
  70
0
  62
7
  6
CONTINUOUS
  0
ENDTAB
  0
ENDSEC
  0
SECTION
  2
ENTITIES
0
LINE
8
BLACK
6
CONTINUOUS
10
5.533023622047244
20
-4.6215362204724411
11
5.533682637795275
21
-4.6231272047244092
0
LINE
8
BLACK
6
CONTINUOUS
10
5.533682637795275
20
-4.6231272047244092
11
5.533023622047244
21
-4.6247181889763782
0
LINE
8
BLACK
6
CONTINUOUS
10
5.533023622047244
20
-4.6247181889763782
11
5.5314326377952758
21
-4.6253772047244093
0
LINE
8
BLACK
6
CONTINUOUS
10
5.5314326377952758
20
-4.6253772047244093
11
5.4960746062992127
21
-4.6253772047244093
0
LINE
8
BLACK
6
CONTINUOUS
10
5.4960746062992127
20
-4.6253772047244093
11
5.5193841338582672
21
-4.6362550000000002
0
LINE
8
BLACK
6
CONTINUOUS
10
5.5193841338582672
20
-4.6362550000000002
11
5.5199038188976379
21
-4.6368224409448819
0
LINE
8
BLACK
6
CONTINUOUS
10
5.5199038188976379
20
-4.6368224409448819
11
5.5204715748031497
21
-4.637342401574803
0
LINE
8
BLACK
6
CONTINUOUS
10
5.5204715748031497
20
-4.637342401574803
11
5.5204761811023619
21
-4.6374474409448814
0
LINE
8
BLACK
6
CONTINUOUS
10
5.5204761811023619
20
-4.6374474409448814
11
5.5205471653543308
21
-4.6375249606299214
0
LINE
8
BLACK
6
CONTINUOUS
10
5.5205471653543308
20
-4.6375249606299214
11
5.5205133464566929
21
-4.6382936614173227
0
LINE
8
BLACK
6
CONTINUOUS
10
5.5205133464566929
20
-4.6382936614173227
11
5.5205471653543308
21
-4.6390627952755903
0
LINE
8
BLACK
6
CONTINUOUS
10
5.5205471653543308
20
-4.6390627952755903
11
5.5204761417322832
21
-4.6391403149606294
0
LINE
8
BLACK
6
CONTINUOUS
10
5.5204761417322832
20
-4.6391403149606294
11
5.5204715354330709
21
-4.6392453937007874
0
LINE
8
BLACK
6
CONTINUOUS
10
5.5204715354330709
20
-4.6392453937007874
11
5.5199038976377954
21
-4.6397651574803147
0
LINE
8
BLACK
6
CONTINUOUS
10
5.5199038976377954
20
-4.6397651574803147
11
5.5193841338582672
21
-4.6403327952755902
0
LINE
8
BLACK
6
CONTINUOUS
10
5.5193841338582672
20
-4.6403327952755902
11
5.4960746456692915
21
-4.6512105511811024
0
LINE
8
BLACK
6
CONTINUOUS
10
5.4960746456692915
20
-4.6512105511811024
11
5.5314326377952758
21
-4.6512105511811024
0
LINE
8
BLACK
6
CONTINUOUS
10
5.5314326377952758
20
-4.6512105511811024
11
5.533023622047244
21
-4.6518695669291334
0
LINE
8
BLACK
6
CONTINUOUS
10
5.533023622047244
20
-4.6518695669291334
11
5.533682637795275
21
-4.6534605511811025
0
LINE
8
BLACK
6
CONTINUOUS
10
5.533682637795275
20
-4.6534605511811025
11
5.533023622047244
21
-4.6550515354330706
0
LINE
8
BLACK
6
CONTINUOUS
10
5.533023622047244
20
-4.6550515354330706
11
5.5314326377952758
21
-4.6557105511811026
0
LINE
8
BLACK
6
CONTINUOUS
10
5.5314326377952758
20
-4.6557105511811026
11
5.4859326377952753
21
-4.6557105511811026
0
LINE
8
BLACK
6
CONTINUOUS
10
5.4859326377952753
20
-4.6557105511811026
11
5.4855631496062989
21
-4.6555574803149602
0
LINE
8
BLACK
6
CONTINUOUS
10
5.4855631496062989
20
-4.6555574803149602
11
5.4851637007874015
21
-4.6555750787401573
0
LINE
8
BLACK
6
CONTINUOUS
10
5.4851637007874015
20
-4.6555750787401573
11
5.4847987795275586
21
-4.6552408661417326
0
LINE
8
BLACK
6
CONTINUOUS
10
5.4847987795275586
20
-4.6552408661417326
11
5.4843416535433072
21
-4.6550515354330706
0
LINE
8
BLACK
6
CONTINUOUS
10
5.4843416535433072
20
-4.6550515354330706
11
5.4841886220472436
21
-4.6546820866141729
0
LINE
8
BLACK
6
CONTINUOUS
10
5.4841886220472436
20
-4.6546820866141729
11
5.4838937401574803
21
-4.6544120472440946
0
LINE
8
BLACK
6
CONTINUOUS
10
5.4838937401574803
20
-4.6544120472440946
11
5.483872007874016
21
-4.6539177165354326
0
LINE
8
BLACK
6
CONTINUOUS
10
5.483872007874016
20
-4.6539177165354326
11
5.4836826377952752
21
-4.6534605511811025
0
LINE
8
BLACK
6
CONTINUOUS
10
5.4836826377952752
20
-4.6534605511811025
11
5.4838356692913388
21
-4.653091062992126
0
LINE
8
BLACK
6
CONTINUOUS
10
5.4838356692913388
20
-4.653091062992126
11
5.4838181102362205
21
-4.6526916141732286
0
LINE
8
BLACK
6
CONTINUOUS
10
5.4838181102362205
20
-4.6526916141732286
11
5.4841522834645664
21
-4.6523266929133857
0
LINE
8
BLACK
6
CONTINUOUS
10
5.4841522834645664
20
-4.6523266929133857
11
5.4843416535433072
21
-4.6518695669291334
0
LINE
8
BLACK
6
CONTINUOUS
10
5.4843416535433072
20
-4.6518695669291334
11
5.4847110629921261
21
-4.6517165354330707
0
LINE
8
BLACK
6
CONTINUOUS
10
5.4847110629921261
20
-4.6517165354330707
11
5.4849811417322831
21
-4.6514216535433066
0
LINE
8
BLACK
6
CONTINUOUS
10
5.4849811417322831
20
-4.6514216535433066
11
5.5131120078740157
21
-4.6382938582677165
0
LINE
8
BLACK
6
CONTINUOUS
10
5.5131120078740157
20
-4.6382938582677165
11
5.4849811417322831
21
-4.625166102362205
0
LINE
8
BLACK
6
CONTINUOUS
10
5.4849811417322831
20
-4.625166102362205
11
5.4847110629921261
21
-4.6248711811023622
0
LINE
8
BLACK
6
CONTINUOUS
10
5.4847110629921261
20
-4.6248711811023622
11
5.4843416535433072
21
-4.6247181889763782
0
LINE
8
BLACK
6
CONTINUOUS
10
5.4843416535433072
20
-4.6247181889763782
11
5.4841522834645664
21
-4.6242610236220472
0
LINE
8
BLACK
6
CONTINUOUS
10
5.4841522834645664
20
-4.6242610236220472
11
5.4838181102362205
21
-4.623896141732283
0
LINE
8
BLACK
6
CONTINUOUS
10
5.4838181102362205
20
-4.623896141732283
11
5.4838356692913388
21
-4.6234966535433069
0
LINE
8
BLACK
6
CONTINUOUS
10
5.4838356692913388
20
-4.6234966535433069
11
5.4836826377952752
21
-4.6231272047244092
0
LINE
8
BLACK
6
CONTINUOUS
10
5.4836826377952752
20
-4.6231272047244092
11
5.483872007874016
21
-4.6226700000000003
0
LINE
8
BLACK
6
CONTINUOUS
10
5.483872007874016
20
-4.6226700000000003
11
5.4838937401574803
21
-4.622175708661417
0
LINE
8
BLACK
6
CONTINUOUS
10
5.4838937401574803
20
-4.622175708661417
11
5.4841886220472436
21
-4.62190562992126
0
LINE
8
BLACK
6
CONTINUOUS
10
5.4841886220472436
20
-4.62190562992126
11
5.4843416535433072
21
-4.6215362204724411
0
LINE
8
BLACK
6
CONTINUOUS
10
5.4843416535433072
20
-4.6215362204724411
11
5.4847987795275586
21
-4.6213468503937003
0
LINE
8
BLACK
6
CONTINUOUS
10
5.4847987795275586
20
-4.6213468503937003
11
5.4851637007874015
21
-4.6210126771653544
0
LINE
8
BLACK
6
CONTINUOUS
10
5.4851637007874015
20
-4.6210126771653544
11
5.4855631496062989
21
-4.6210302362204727
0
LINE
8
BLACK
6
CONTINUOUS
10
5.4855631496062989
20
-4.6210302362204727
11
5.4859326377952753
21
-4.6208772047244091
0
LINE
8
BLACK
6
CONTINUOUS
10
5.4859326377952753
20
-4.6208772047244091
11
5.5314326377952758
21
-4.6208772047244091
0
LINE
8
BLACK
6
CONTINUOUS
10
5.5314326377952758
20
-4.6208772047244091
11
5.533023622047244
21
-4.6215362204724411
0
LINE
8
BLACK
6
CONTINUOUS
10
5.5324388582677164
20
-4.5756147637795275
11
5.5335671653543308
21
-4.5769157086614172
0
LINE
8
BLACK
6
CONTINUOUS
10
5.5335671653543308
20
-4.5769157086614172
11
5.533445078740157
21
-4.5786334251968501
0
LINE
8
BLACK
6
CONTINUOUS
10
5.533445078740157
20
-4.5786334251968501
11
5.5321441338582673
21
-4.5797617322834645
0
LINE
8
BLACK
6
CONTINUOUS
10
5.5321441338582673
20
-4.5797617322834645
11
5.5206826377952751
21
-4.5835822047244097
0
LINE
8
BLACK
6
CONTINUOUS
10
5.5206826377952751
20
-4.5835822047244097
11
5.5206826377952751
21
-4.6020055118110239
0
LINE
8
BLACK
6
CONTINUOUS
10
5.5206826377952751
20
-4.6020055118110239
11
5.5321441732283461
21
-4.605826023622047
0
LINE
8
BLACK
6
CONTINUOUS
10
5.5321441732283461
20
-4.605826023622047
11
5.5334451181102358
21
-4.6069543307086613
0
LINE
8
BLACK
6
CONTINUOUS
10
5.5334451181102358
20
-4.6069543307086613
11
5.5335672047244095
21
-4.608672086614173
0
LINE
8
BLACK
6
CONTINUOUS
10
5.5335672047244095
20
-4.608672086614173
11
5.5324388582677164
21
-4.609972992125984
0
LINE
8
BLACK
6
CONTINUOUS
10
5.5324388582677164
20
-4.609972992125984
11
5.5307211417322835
21
-4.6100950787401578
0
LINE
8
BLACK
6
CONTINUOUS
10
5.5307211417322835
20
-4.6100950787401578
11
5.4852211417322829
21
-4.5949284251968505
0
LINE
8
BLACK
6
CONTINUOUS
10
5.4852211417322829
20
-4.5949284251968505
11
5.485094094488189
21
-4.5948182283464565
0
LINE
8
BLACK
6
CONTINUOUS
10
5.485094094488189
20
-4.5948182283464565
11
5.4849264173228347
21
-4.5948063385826767
0
LINE
8
BLACK
6
CONTINUOUS
10
5.4849264173228347
20
-4.5948063385826767
11
5.4844590551181103
21
-4.5942674409448818
0
LINE
8
BLACK
6
CONTINUOUS
10
5.4844590551181103
20
-4.5942674409448818
11
5.4839201968503932
21
-4.5938001181102361
0
LINE
8
BLACK
6
CONTINUOUS
10
5.4839201968503932
20
-4.5938001181102361
11
5.4839082677165356
21
-4.5936324015748031
0
LINE
8
BLACK
6
CONTINUOUS
10
5.4839082677165356
20
-4.5936324015748031
11
5.4837981102362203
21
-4.593505393700787
0
LINE
8
BLACK
6
CONTINUOUS
10
5.4837981102362203
20
-4.593505393700787
11
5.4838486614173227
21
-4.5927938976377956
0
LINE
8
BLACK
6
CONTINUOUS
10
5.4838486614173227
20
-4.5927938976377956
11
5.4837981102362203
21
-4.5920824015748032
0
LINE
8
BLACK
6
CONTINUOUS
10
5.4837981102362203
20
-4.5920824015748032
11
5.4839082677165356
21
-4.5919553543307083
0
LINE
8
BLACK
6
CONTINUOUS
10
5.4839082677165356
20
-4.5919553543307083
11
5.4839201968503932
21
-4.5917876771653541
0
LINE
8
BLACK
6
CONTINUOUS
10
5.4839201968503932
20
-4.5917876771653541
11
5.4844590551181103
21
-4.5913203149606296
0
LINE
8
BLACK
6
CONTINUOUS
10
5.4844590551181103
20
-4.5913203149606296
11
5.4849264173228347
21
-4.5907814566929135
0
LINE
8
BLACK
6
CONTINUOUS
10
5.4849264173228347
20
-4.5907814566929135
11
5.485094094488189
21
-4.590769527559055
0
LINE
8
BLACK
6
CONTINUOUS
10
5.485094094488189
20
-4.590769527559055
11
5.4852211417322829
21
-4.5906593700787397
0
LINE
8
BLACK
6
CONTINUOUS
10
5.4852211417322829
20
-4.5906593700787397
11
5.5307211417322835
21
-4.5754926771653546
0
LINE
8
BLACK
6
CONTINUOUS
10
5.5307211417322835
20
-4.5754926771653546
11
5.5324388582677164
21
-4.5756147637795275
0
LINE
8
BLACK
6
CONTINUOUS
10
5.4930476771653538
20
-4.5927938582677168
11
5.5161826377952758
21
-4.6005055118110239
0
LINE
8
BLACK
6
CONTINUOUS
10
5.5161826377952758
20
-4.6005055118110239
11
5.5161826377952758
21
-4.5850822047244097
0
LINE
8
BLACK
6
CONTINUOUS
10
5.5161826377952758
20
-4.5850822047244097
11
5.4930476771653538
21
-4.5927938582677168
0
LINE
8
BLACK
6
CONTINUOUS
10
5.5143627952755905
20
-4.5364863385826775
11
5.5146449999999998
21
-4.5364443700787405
0
LINE
8
BLACK
6
CONTINUOUS
10
5.5146449999999998
20
-4.5364443700787405
11
5.5233116929133859
21
-4.5386110629921257
0
LINE
8
BLACK
6
CONTINUOUS
10
5.5233116929133859
20
-4.5386110629921257
11
5.5235171259842515
21
-4.5387632677165355
0
LINE
8
BLACK
6
CONTINUOUS
10
5.5235171259842515
20
-4.5387632677165355
11
5.5237722047244091
21
-4.5387814173228342
0
LINE
8
BLACK
6
CONTINUOUS
10
5.5237722047244091
20
-4.5387814173228342
11
5.5281055511811026
21
-4.5409481102362204
0
LINE
8
BLACK
6
CONTINUOUS
10
5.5281055511811026
20
-4.5409481102362204
11
5.5283481102362204
21
-4.5412277952755904
0
LINE
8
BLACK
6
CONTINUOUS
10
5.5283481102362204
20
-4.5412277952755904
11
5.5286902755905514
21
-4.5413695275590547
0
LINE
8
BLACK
6
CONTINUOUS
10
5.5286902755905514
20
-4.5413695275590547
11
5.5308569685039366
21
-4.543536181102362
0
LINE
8
BLACK
6
CONTINUOUS
10
5.5308569685039366
20
-4.543536181102362
11
5.530998661417323
21
-4.5438783070866142
0
LINE
8
BLACK
6
CONTINUOUS
10
5.530998661417323
20
-4.5438783070866142
11
5.5312784645669293
21
-4.5441209842519683
0
LINE
8
BLACK
6
CONTINUOUS
10
5.5312784645669293
20
-4.5441209842519683
11
5.533445078740157
21
-4.5484543307086609
0
LINE
8
BLACK
6
CONTINUOUS
10
5.533445078740157
20
-4.5484543307086609
11
5.5334821653543305
21
-4.5489766535433072
0
LINE
8
BLACK
6
CONTINUOUS
10
5.5334821653543305
20
-4.5489766535433072
11
5.533682637795275
21
-4.5494605511811024
0
LINE
8
BLACK
6
CONTINUOUS
10
5.533682637795275
20
-4.5494605511811024
11
5.533682637795275
21
-4.553793897637795
0
LINE
8
BLACK
6
CONTINUOUS
10
5.533682637795275
20
-4.553793897637795
11
5.5334822047244092
21
-4.5542776771653539
0
LINE
8
BLACK
6
CONTINUOUS
10
5.5334822047244092
20
-4.5542776771653539
11
5.5334451181102358
21
-4.5548001181102364
0
LINE
8
BLACK
6
CONTINUOUS
10
5.5334451181102358
20
-4.5548001181102364
11
5.5312784645669293
21
-4.5591334251968503
0
LINE
8
BLACK
6
CONTINUOUS
10
5.5312784645669293
20
-4.5591334251968503
11
5.530998661417323
21
-4.5593760629921256
0
LINE
8
BLACK
6
CONTINUOUS
10
5.530998661417323
20
-4.5593760629921256
11
5.5308569685039366
21
-4.5597181889763778
0
LINE
8
BLACK
6
CONTINUOUS
10
5.5308569685039366
20
-4.5597181889763778
11
5.5286902755905514
21
-4.5618848818897639
0
LINE
8
BLACK
6
CONTINUOUS
10
5.5286902755905514
20
-4.5618848818897639
11
5.5283481496062992
21
-4.5620265748031494
0
LINE
8
BLACK
6
CONTINUOUS
10
5.5283481496062992
20
-4.5620265748031494
11
5.5281055511811026
21
-4.562306338582677
0
LINE
8
BLACK
6
CONTINUOUS
10
5.5281055511811026
20
-4.562306338582677
11
5.5237722047244091
21
-4.5644730314960631
0
LINE
8
BLACK
6
CONTINUOUS
10
5.5237722047244091
20
-4.5644730314960631
11
5.5235171259842515
21
-4.5644911417322831
0
LINE
8
BLACK
6
CONTINUOUS
10
5.5235171259842515
20
-4.5644911417322831
11
5.5233116929133859
21
-4.5646433858267716
0
LINE
8
BLACK
6
CONTINUOUS
10
5.5233116929133859
20
-4.5646433858267716
11
5.5146449999999998
21
-4.566810039370079
0
LINE
8
BLACK
6
CONTINUOUS
10
5.5146449999999998
20
-4.566810039370079
11
5.5143627952755905
21
-4.5667680314960633
0
LINE
8
BLACK
6
CONTINUOUS
10
5.5143627952755905
20
-4.5667680314960633
11
5.5140992913385825
21
-4.5668772047244097
0
LINE
8
BLACK
6
CONTINUOUS
10
5.5140992913385825
20
-4.5668772047244097
11
5.5032659842519687
21
-4.5668772047244097
0
LINE
8
BLACK
6
CONTINUOUS
10
5.5032659842519687
20
-4.5668772047244097
11
5.5030024409448819
21
-4.5667680314960633
0
LINE
8
BLACK
6
CONTINUOUS
10
5.5030024409448819
20
-4.5667680314960633
11
5.5027202755905513
21
-4.566810039370079
0
LINE
8
BLACK
6
CONTINUOUS
10
5.5027202755905513
20
-4.566810039370079
11
5.4940535826771653
21
-4.5646433858267716
0
LINE
8
BLACK
6
CONTINUOUS
10
5.4940535826771653
20
-4.5646433858267716
11
5.49384811023622
21
-4.5644911417322831
0
LINE
8
BLACK
6
CONTINUOUS
10
5.49384811023622
20
-4.5644911417322831
11
5.493593070866142
21
-4.5644730314960631
0
LINE
8
BLACK
6
CONTINUOUS
10
5.493593070866142
20
-4.5644730314960631
11
5.4892597637795273
21
-4.5623063779527557
0
LINE
8
BLACK
6
CONTINUOUS
10
5.4892597637795273
20
-4.5623063779527557
11
5.4890170866141732
21
-4.5620265748031494
0
LINE
8
BLACK
6
CONTINUOUS
10
5.4890170866141732
20
-4.5620265748031494
11
5.4886749999999997
21
-4.5618848818897639
0
LINE
8
BLACK
6
CONTINUOUS
10
5.4886749999999997
20
-4.5618848818897639
11
5.4865083070866136
21
-4.5597181889763778
0
LINE
8
BLACK
6
CONTINUOUS
10
5.4865083070866136
20
-4.5597181889763778
11
5.4863665748031494
21
-4.5593760629921256
0
LINE
8
BLACK
6
CONTINUOUS
10
5.4863665748031494
20
-4.5593760629921256
11
5.4860868503937006
21
-4.559133464566929
0
LINE
8
BLACK
6
CONTINUOUS
10
5.4860868503937006
20
-4.559133464566929
11
5.4839201574803145
21
-4.5548001181102364
0
LINE
8
BLACK
6
CONTINUOUS
10
5.4839201574803145
20
-4.5548001181102364
11
5.4838830314960632
21
-4.5542776771653539
0
LINE
8
BLACK
6
CONTINUOUS
10
5.4838830314960632
20
-4.5542776771653539
11
5.4836826377952752
21
-4.553793897637795
0
LINE
8
BLACK
6
CONTINUOUS
10
5.4836826377952752
20
-4.553793897637795
11
5.4836826377952752
21
-4.5494605511811024
0
LINE
8
BLACK
6
CONTINUOUS
10
5.4836826377952752
20
-4.5494605511811024
11
5.4838830314960632
21
-4.5489767322834647
0
LINE
8
BLACK
6
CONTINUOUS
10
5.4838830314960632
20
-4.5489767322834647
11
5.4839201574803145
21
-4.5484543307086609
0
LINE
8
BLACK
6
CONTINUOUS
10
5.4839201574803145
20
-4.5484543307086609
11
5.4860868110236218
21
-4.5441209842519683
0
LINE
8
BLACK
6
CONTINUOUS
10
5.4860868110236218
20
-4.5441209842519683
11
5.4863665748031494
21
-4.5438783070866142
0
LINE
8
BLACK
6
CONTINUOUS
10
5.4863665748031494
20
-4.5438783070866142
11
5.4865083070866136
21
-4.543536181102362
0
LINE
8
BLACK
6
CONTINUOUS
10
5.4865083070866136
20
-4.543536181102362
11
5.4886749999999997
21
-4.5413695669291334
0
LINE
8
BLACK
6
CONTINUOUS
10
5.4886749999999997
20
-4.5413695669291334
11
5.4890170866141732
21
-4.5412278346456691
0
LINE
8
BLACK
6
CONTINUOUS
10
5.4890170866141732
20
-4.5412278346456691
11
5.4892597637795273
21
-4.5409480708661416
0
LINE
8
BLACK
6
CONTINUOUS
10
5.4892597637795273
20
-4.5409480708661416
11
5.493593070866142
21
-4.5387814173228342
0
LINE
8
BLACK
6
CONTINUOUS
10
5.493593070866142
20
-4.5387814173228342
11
5.49384811023622
21
-4.5387632677165355
0
LINE
8
BLACK
6
CONTINUOUS
10
5.49384811023622
20
-4.5387632677165355
11
5.4940535826771653
21
-4.5386110629921257
0
LINE
8
BLACK
6
CONTINUOUS
10
5.4940535826771653
20
-4.5386110629921257
11
5.5027202755905513
21
-4.5364443700787405
0
LINE
8
BLACK
6
CONTINUOUS
10
5.5027202755905513
20
-4.5364443700787405
11
5.5030024409448819
21
-4.5364863385826775
0
LINE
8
BLACK
6
CONTINUOUS
10
5.5030024409448819
20
-4.5364863385826775
11
5.5032659842519687
21
-4.5363772047244098
0
LINE
8
BLACK
6
CONTINUOUS
10
5.5032659842519687
20
-4.5363772047244098
11
5.5140992913385825
21
-4.5363772047244098
0
LINE
8
BLACK
6
CONTINUOUS
10
5.5140992913385825
20
-4.5363772047244098
11
5.5143627952755905
21
-4.5364863385826775
0
LINE
8
BLACK
6
CONTINUOUS
10
5.4953845275590547
20
-4.5429168110236215
11
5.4915987795275587
21
-4.5448097244094487
0
LINE
8
BLACK
6
CONTINUOUS
10
5.4915987795275587
20
-4.5448097244094487
11
5.4899483858267715
21
-4.546460118110236
0
LINE
8
BLACK
6
CONTINUOUS
10
5.4899483858267715
20
-4.546460118110236
11
5.4881826377952754
21
-4.5499916929133857
0
LINE
8
BLACK
6
CONTINUOUS
10
5.4881826377952754
20
-4.5499916929133857
11
5.4881826377952754
21
-4.5532627165354329
0
LINE
8
BLACK
6
CONTINUOUS
10
5.4881826377952754
20
-4.5532627165354329
11
5.4899485039370077
21
-4.5567944488188976
0
LINE
8
BLACK
6
CONTINUOUS
10
5.4899485039370077
20
-4.5567944488188976
11
5.49159874015748
21
-4.5584446850393698
0
LINE
8
BLACK
6
CONTINUOUS
10
5.49159874015748
20
-4.5584446850393698
11
5.4953845275590547
21
-4.5603375590551183
0
LINE
8
BLACK
6
CONTINUOUS
10
5.4953845275590547
20
-4.5603375590551183
11
5.5035430314960632
21
-4.5623772047244096
0
LINE
8
BLACK
6
CONTINUOUS
10
5.5035430314960632
20
-4.5623772047244096
11
5.513822244094488
21
-4.5623772047244096
0
LINE
8
BLACK
6
CONTINUOUS
10
5.513822244094488
20
-4.5623772047244096
11
5.521980669291338
21
-4.560337598425197
0
LINE
8
BLACK
6
CONTINUOUS
10
5.521980669291338
20
-4.560337598425197
11
5.5257665354330712
21
-4.5584446850393698
0
LINE
8
BLACK
6
CONTINUOUS
10
5.5257665354330712
20
-4.5584446850393698
11
5.5274167716535434
21
-4.5567944094488189
0
LINE
8
BLACK
6
CONTINUOUS
10
5.5274167716535434
20
-4.5567944094488189
11
5.5291826377952757
21
-4.5532627165354329
0
LINE
8
BLACK
6
CONTINUOUS
10
5.5291826377952757
20
-4.5532627165354329
11
5.5291826377952757
21
-4.5499916929133857
0
LINE
8
BLACK
6
CONTINUOUS
10
5.5291826377952757
20
-4.5499916929133857
11
5.5274167716535434
21
-4.546459960629921
0
LINE
8
BLACK
6
CONTINUOUS
10
5.5274167716535434
20
-4.546459960629921
11
5.5257664566929137
21
-4.5448097244094487
0
LINE
8
BLACK
6
CONTINUOUS
10
5.5257664566929137
20
-4.5448097244094487
11
5.5219806299212602
21
-4.5429168110236215
0
LINE
8
BLACK
6
CONTINUOUS
10
5.5219806299212602
20
-4.5429168110236215
11
5.513822244094488
21
-4.540877204724409
0
LINE
8
BLACK
6
CONTINUOUS
10
5.513822244094488
20
-4.540877204724409
11
5.5035430314960632
21
-4.540877204724409
0
LINE
8
BLACK
6
CONTINUOUS
10
5.5035430314960632
20
-4.540877204724409
11
5.4953845275590547
21
-4.5429168110236215
0
LINE
8
BLACK
6
CONTINUOUS
10
5.4992747637795274
20
-4.4931855511811021
11
5.4996441732283463
21
-4.4931593307086617
0
LINE
8
BLACK
6
CONTINUOUS
10
5.4996441732283463
20
-4.4931593307086617
11
5.5061441732283463
21
-4.4953260236220469
0
LINE
8
BLACK
6
CONTINUOUS
10
5.5061441732283463
20
-4.4953260236220469
11
5.5065398031496064
21
-4.4956691338582679
0
LINE
8
BLACK
6
CONTINUOUS
10
5.5065398031496064
20
-4.4956691338582679
11
5.5070236220472442
21
-4.4958695669291338
0
LINE
8
BLACK
6
CONTINUOUS
10
5.5070236220472442
20
-4.4958695669291338
11
5.5291826377952757
21
-4.5180285826771653
0
LINE
8
BLACK
6
CONTINUOUS
10
5.5291826377952757
20
-4.5180285826771653
11
5.5291826377952757
21
-4.4952938582677167
0
LINE
8
BLACK
6
CONTINUOUS
10
5.5291826377952757
20
-4.4952938582677167
11
5.5298416535433068
21
-4.4937028740157476
0
LINE
8
BLACK
6
CONTINUOUS
10
5.5298416535433068
20
-4.4937028740157476
11
5.5314326377952758
21
-4.4930438582677166
0
LINE
8
BLACK
6
CONTINUOUS
10
5.5314326377952758
20
-4.4930438582677166
11
5.533023622047244
21
-4.4937028740157476
0
LINE
8
BLACK
6
CONTINUOUS
10
5.533023622047244
20
-4.4937028740157476
11
5.533682637795275
21
-4.4952938582677167
0
LINE
8
BLACK
6
CONTINUOUS
10
5.533682637795275
20
-4.4952938582677167
11
5.533682637795275
21
-4.5234605511811026
0
LINE
8
BLACK
6
CONTINUOUS
10
5.533682637795275
20
-4.5234605511811026
11
5.533023622047244
21
-4.5250515354330707
0
LINE
8
BLACK
6
CONTINUOUS
10
5.533023622047244
20
-4.5250515354330707
11
5.5314326377952758
21
-4.5257105511811027
0
LINE
8
BLACK
6
CONTINUOUS
10
5.5314326377952758
20
-4.5257105511811027
11
5.5298416535433068
21
-4.5250515354330707
0
LINE
8
BLACK
6
CONTINUOUS
10
5.5298416535433068
20
-4.5250515354330707
11
5.5042172047244096
21
-4.4994270866141735
0
LINE
8
BLACK
6
CONTINUOUS
10
5.5042172047244096
20
-4.4994270866141735
11
5.4985675196850394
21
-4.4975438582677167
0
LINE
8
BLACK
6
CONTINUOUS
10
5.4985675196850394
20
-4.4975438582677167
11
5.4951304330708659
21
-4.4975438582677167
0
LINE
8
BLACK
6
CONTINUOUS
10
5.4951304330708659
20
-4.4975438582677167
11
5.4915988188976375
21
-4.4993096456692916
0
LINE
8
BLACK
6
CONTINUOUS
10
5.4915988188976375
20
-4.4993096456692916
11
5.4899483858267715
21
-4.5009601181102363
0
LINE
8
BLACK
6
CONTINUOUS
10
5.4899483858267715
20
-4.5009601181102363
11
5.4881826377952754
21
-4.504491692913386
0
LINE
8
BLACK
6
CONTINUOUS
10
5.4881826377952754
20
-4.504491692913386
11
5.4881826377952754
21
-4.5142626771653545
0
LINE
8
BLACK
6
CONTINUOUS
10
5.4881826377952754
20
-4.5142626771653545
11
5.4899483858267715
21
-4.5177942519685041
0
LINE
8
BLACK
6
CONTINUOUS
10
5.4899483858267715
20
-4.5177942519685041
11
5.4918569685039369
21
-4.5197028346456696
0
LINE
8
BLACK
6
CONTINUOUS
10
5.4918569685039369
20
-4.5197028346456696
11
5.492515984251968
21
-4.5212938188976377
0
LINE
8
BLACK
6
CONTINUOUS
10
5.492515984251968
20
-4.5212938188976377
11
5.4918569685039369
21
-4.5228848425196846
0
LINE
8
BLACK
6
CONTINUOUS
10
5.4918569685039369
20
-4.5228848425196846
11
5.4902659842519688
21
-4.5235438582677165
0
LINE
8
BLACK
6
CONTINUOUS
10
5.4902659842519688
20
-4.5235438582677165
11
5.4886749999999997
21
-4.5228848425196846
0
LINE
8
BLACK
6
CONTINUOUS
10
5.4886749999999997
20
-4.5228848425196846
11
5.4865083070866136
21
-4.5207182283464569
0
LINE
8
BLACK
6
CONTINUOUS
10
5.4865083070866136
20
-4.5207182283464569
11
5.4863665748031494
21
-4.5203760629921259
0
LINE
8
BLACK
6
CONTINUOUS
10
5.4863665748031494
20
-4.5203760629921259
11
5.4860868110236218
21
-4.5201334251968506
0
LINE
8
BLACK
6
CONTINUOUS
10
5.4860868110236218
20
-4.5201334251968506
11
5.4839201574803145
21
-4.5158000787401571
0
LINE
8
BLACK
6
CONTINUOUS
10
5.4839201574803145
20
-4.5158000787401571
11
5.4838830314960632
21
-4.5152776377952755
0
LINE
8
BLACK
6
CONTINUOUS
10
5.4838830314960632
20
-4.5152776377952755
11
5.4836826377952752
21
-4.5147938582677165
0
LINE
8
BLACK
6
CONTINUOUS
10
5.4836826377952752
20
-4.5147938582677165
11
5.4836826377952752
21
-4.5039605511811018
0
LINE
8
BLACK
6
CONTINUOUS
10
5.4836826377952752
20
-4.5039605511811018
11
5.4838830314960632
21
-4.5034767322834641
0
LINE
8
BLACK
6
CONTINUOUS
10
5.4838830314960632
20
-4.5034767322834641
11
5.4839201574803145
21
-4.5029543307086612
0
LINE
8
BLACK
6
CONTINUOUS
10
5.4839201574803145
20
-4.5029543307086612
11
5.4860868110236218
21
-4.4986209842519687
0
LINE
8
BLACK
6
CONTINUOUS
10
5.4860868110236218
20
-4.4986209842519687
11
5.4863665748031494
21
-4.4983783070866137
0
LINE
8
BLACK
6
CONTINUOUS
10
5.4863665748031494
20
-4.4983783070866137
11
5.4865083070866136
21
-4.4980361811023624
0
LINE
8
BLACK
6
CONTINUOUS
10
5.4865083070866136
20
-4.4980361811023624
11
5.4886749999999997
21
-4.4958695669291338
0
LINE
8
BLACK
6
CONTINUOUS
10
5.4886749999999997
20
-4.4958695669291338
11
5.4890170866141732
21
-4.4957278346456695
0
LINE
8
BLACK
6
CONTINUOUS
10
5.4890170866141732
20
-4.4957278346456695
11
5.4892597244094485
21
-4.4954481102362207
0
LINE
8
BLACK
6
CONTINUOUS
10
5.4892597244094485
20
-4.4954481102362207
11
5.4935930314960633
21
-4.4932814173228346
0
LINE
8
BLACK
6
CONTINUOUS
10
5.4935930314960633
20
-4.4932814173228346
11
5.4941153937007874
21
-4.4932442519685036
0
LINE
8
BLACK
6
CONTINUOUS
10
5.4941153937007874
20
-4.4932442519685036
11
5.4945992913385826
21
-4.4930438582677166
0
LINE
8
BLACK
6
CONTINUOUS
10
5.4945992913385826
20
-4.4930438582677166
11
5.4989326377952752
21
-4.4930438582677166
0
LINE
8
BLACK
6
CONTINUOUS
10
5.4989326377952752
20
-4.4930438582677166
11
5.4992747637795274
21
-4.4931855511811021
0
LINE
8
BLACK
6
CONTINUOUS
10
6.0140000000000002
20
-4.4989999999999997
11
5.9939999999999998
21
-4.4989999999999997
0
LINE
8
BLACK
6
CONTINUOUS
10
5.9939999999999998
20
-4.4989999999999997
11
5.9939999999999998
21
-4.4790000000000001
0
LINE
8
BLACK
6
CONTINUOUS
10
5.9939999999999998
20
-4.4790000000000001
11
6.0140000000000002
21
-4.4790000000000001
0
LINE
8
BLACK
6
CONTINUOUS
10
6.0140000000000002
20
-4.4790000000000001
11
6.0140000000000002
21
-4.4989999999999997
0
LINE
8
BLACK
6
CONTINUOUS
10
6.1139999999999999
20
-4.4989999999999997
11
6.0939999999999994
21
-4.4989999999999997
0
LINE
8
BLACK
6
CONTINUOUS
10
6.0939999999999994
20
-4.4989999999999997
11
6.0939999999999994
21
-4.4790000000000001
0
LINE
8
BLACK
6
CONTINUOUS
10
6.0939999999999994
20
-4.4790000000000001
11
6.1139999999999999
21
-4.4790000000000001
0
LINE
8
BLACK
6
CONTINUOUS
10
6.1139999999999999
20
-4.4790000000000001
11
6.1139999999999999
21
-4.4989999999999997
0
LINE
8
BLACK
6
CONTINUOUS
10
5.5324388582677164
20
-4.3756147637795273
11
5.5335671653543308
21
-4.376915708661417
0
LINE
8
BLACK
6
CONTINUOUS
10
5.5335671653543308
20
-4.376915708661417
11
5.533445078740157
21
-4.3786334251968499
0
LINE
8
BLACK
6
CONTINUOUS
10
5.533445078740157
20
-4.3786334251968499
11
5.5321441338582673
21
-4.3797617322834643
0
LINE
8
BLACK
6
CONTINUOUS
10
5.5321441338582673
20
-4.3797617322834643
11
5.5206826377952751
21
-4.3835822047244095
0
LINE
8
BLACK
6
CONTINUOUS
10
5.5206826377952751
20
-4.3835822047244095
11
5.5206826377952751
21
-4.4020055118110237
0
LINE
8
BLACK
6
CONTINUOUS
10
5.5206826377952751
20
-4.4020055118110237
11
5.5291826377952757
21
-4.4048388188976375
0
LINE
8
BLACK
6
CONTINUOUS
10
5.5291826377952757
20
-4.4048388188976375
11
5.5291826377952757
21
-4.3956271653543304
0
LINE
8
BLACK
6
CONTINUOUS
10
5.5291826377952757
20
-4.3956271653543304
11
5.5298416535433068
21
-4.3940361811023623
0
LINE
8
BLACK
6
CONTINUOUS
10
5.5298416535433068
20
-4.3940361811023623
11
5.5314326377952758
21
-4.3933771653543303
0
LINE
8
BLACK
6
CONTINUOUS
10
5.5314326377952758
20
-4.3933771653543303
11
5.533023622047244
21
-4.3940361811023623
0
LINE
8
BLACK
6
CONTINUOUS
10
5.533023622047244
20
-4.3940361811023623
11
5.533682637795275
21
-4.3956271653543304
0
LINE
8
BLACK
6
CONTINUOUS
10
5.533682637795275
20
-4.3956271653543304
11
5.533682637795275
21
-4.4216271653543302
0
LINE
8
BLACK
6
CONTINUOUS
10
5.533682637795275
20
-4.4216271653543302
11
5.5333719291338586
21
-4.4223771653543302
0
LINE
8
BLACK
6
CONTINUOUS
10
5.5333719291338586
20
-4.4223771653543302
11
5.533682637795275
21
-4.423127204724409
0
LINE
8
BLACK
6
CONTINUOUS
10
5.533682637795275
20
-4.423127204724409
11
5.533023622047244
21
-4.424718188976378
0
LINE
8
BLACK
6
CONTINUOUS
10
5.533023622047244
20
-4.424718188976378
11
5.5314326377952758
21
-4.4253772047244091
0
LINE
8
BLACK
6
CONTINUOUS
10
5.5314326377952758
20
-4.4253772047244091
11
5.4960746062992127
21
-4.4253772047244091
0
LINE
8
BLACK
6
CONTINUOUS
10
5.4960746062992127
20
-4.4253772047244091
11
5.5193841338582672
21
-4.4362550000000001
0
LINE
8
BLACK
6
CONTINUOUS
10
5.5193841338582672
20
-4.4362550000000001
11
5.5199038188976379
21
-4.4368224409448818
0
LINE
8
BLACK
6
CONTINUOUS
10
5.5199038188976379
20
-4.4368224409448818
11
5.5204715748031497
21
-4.4373424015748029
0
LINE
8
BLACK
6
CONTINUOUS
10
5.5204715748031497
20
-4.4373424015748029
11
5.5204761811023619
21
-4.4374474409448821
0
LINE
8
BLACK
6
CONTINUOUS
10
5.5204761811023619
20
-4.4374474409448821
11
5.5205471653543308
21
-4.4375249606299212
0
LINE
8
BLACK
6
CONTINUOUS
10
5.5205471653543308
20
-4.4375249606299212
11
5.5205133464566929
21
-4.4382936614173225
0
LINE
8
BLACK
6
CONTINUOUS
10
5.5205133464566929
20
-4.4382936614173225
11
5.5205471653543308
21
-4.4390627952755901
0
LINE
8
BLACK
6
CONTINUOUS
10
5.5205471653543308
20
-4.4390627952755901
11
5.5204761417322832
21
-4.4391403149606301
0
LINE
8
BLACK
6
CONTINUOUS
10
5.5204761417322832
20
-4.4391403149606301
11
5.5204715354330709
21
-4.4392453937007872
0
LINE
8
BLACK
6
CONTINUOUS
10
5.5204715354330709
20
-4.4392453937007872
11
5.5199038976377954
21
-4.4397651574803145
0
LINE
8
BLACK
6
CONTINUOUS
10
5.5199038976377954
20
-4.4397651574803145
11
5.5193841338582672
21
-4.4403327952755909
0
LINE
8
BLACK
6
CONTINUOUS
10
5.5193841338582672
20
-4.4403327952755909
11
5.5163492913385825
21
-4.441749015748031
0
LINE
8
BLACK
6
CONTINUOUS
10
5.5163492913385825
20
-4.441749015748031
11
5.5163492913385825
21
-4.4512105511811022
0
LINE
8
BLACK
6
CONTINUOUS
10
5.5163492913385825
20
-4.4512105511811022
11
5.5314326377952758
21
-4.4512105511811022
0
LINE
8
BLACK
6
CONTINUOUS
10
5.5314326377952758
20
-4.4512105511811022
11
5.533023622047244
21
-4.4518695669291342
0
LINE
8
BLACK
6
CONTINUOUS
10
5.533023622047244
20
-4.4518695669291342
11
5.533682637795275
21
-4.4534605511811023
0
LINE
8
BLACK
6
CONTINUOUS
10
5.533682637795275
20
-4.4534605511811023
11
5.533023622047244
21
-4.4550515354330704
0
LINE
8
BLACK
6
CONTINUOUS
10
5.533023622047244
20
-4.4550515354330704
11
5.5314326377952758
21
-4.4557105511811024
0
LINE
8
BLACK
6
CONTINUOUS
10
5.5314326377952758
20
-4.4557105511811024
11
5.5163492913385825
21
-4.4557105511811024
0
LINE
8
BLACK
6
CONTINUOUS
10
5.5163492913385825
20
-4.4557105511811024
11
5.5163492913385825
21
-4.4757938582677168
0
LINE
8
BLACK
6
CONTINUOUS
10
5.5163492913385825
20
-4.4757938582677168
11
5.5156902755905515
21
-4.4773848425196849
0
LINE
8
BLACK
6
CONTINUOUS
10
5.5156902755905515
20
-4.4773848425196849
11
5.5140992913385825
21
-4.478043858267716
0
LINE
8
BLACK
6
CONTINUOUS
10
5.5140992913385825
20
-4.478043858267716
11
5.5125083070866143
21
-4.4773848425196849
0
LINE
8
BLACK
6
CONTINUOUS
10
5.5125083070866143
20
-4.4773848425196849
11
5.5118492913385824
21
-4.4757938582677168
0
LINE
8
BLACK
6
CONTINUOUS
10
5.5118492913385824
20
-4.4757938582677168
11
5.5118492913385824
21
-4.4557105511811024
0
LINE
8
BLACK
6
CONTINUOUS
10
5.5118492913385824
20
-4.4557105511811024
11
5.4859326377952753
21
-4.4557105511811024
0
LINE
8
BLACK
6
CONTINUOUS
10
5.4859326377952753
20
-4.4557105511811024
11
5.4855631496062989
21
-4.4555574803149609
0
LINE
8
BLACK
6
CONTINUOUS
10
5.4855631496062989
20
-4.4555574803149609
11
5.4851637007874015
21
-4.4555750787401571
0
LINE
8
BLACK
6
CONTINUOUS
10
5.4851637007874015
20
-4.4555750787401571
11
5.4847987795275586
21
-4.4552408661417324
0
LINE
8
BLACK
6
CONTINUOUS
10
5.4847987795275586
20
-4.4552408661417324
11
5.4843416535433072
21
-4.4550515354330704
0
LINE
8
BLACK
6
CONTINUOUS
10
5.4843416535433072
20
-4.4550515354330704
11
5.4841886220472436
21
-4.4546820866141728
0
LINE
8
BLACK
6
CONTINUOUS
10
5.4841886220472436
20
-4.4546820866141728
11
5.4838937401574803
21
-4.4544120472440945
0
LINE
8
BLACK
6
CONTINUOUS
10
5.4838937401574803
20
-4.4544120472440945
11
5.483872007874016
21
-4.4539177165354333
0
LINE
8
BLACK
6
CONTINUOUS
10
5.483872007874016
20
-4.4539177165354333
11
5.4836826377952752
21
-4.4534605511811023
0
LINE
8
BLACK
6
CONTINUOUS
10
5.4836826377952752
20
-4.4534605511811023
11
5.4838356692913388
21
-4.4530910629921259
0
LINE
8
BLACK
6
CONTINUOUS
10
5.4838356692913388
20
-4.4530910629921259
11
5.4838181102362205
21
-4.4526916141732285
0
LINE
8
BLACK
6
CONTINUOUS
10
5.4838181102362205
20
-4.4526916141732285
11
5.4841522834645664
21
-4.4523266929133856
0
LINE
8
BLACK
6
CONTINUOUS
10
5.4841522834645664
20
-4.4523266929133856
11
5.4843416535433072
21
-4.4518695669291342
0
LINE
8
BLACK
6
CONTINUOUS
10
5.4843416535433072
20
-4.4518695669291342
11
5.4847110629921261
21
-4.4517165354330706
0
LINE
8
BLACK
6
CONTINUOUS
10
5.4847110629921261
20
-4.4517165354330706
11
5.4849811417322831
21
-4.4514216535433073
0
LINE
8
BLACK
6
CONTINUOUS
10
5.4849811417322831
20
-4.4514216535433073
11
5.5131120078740157
21
-4.4382938582677163
0
LINE
8
BLACK
6
CONTINUOUS
10
5.5131120078740157
20
-4.4382938582677163
11
5.4849811417322831
21
-4.4251661023622049
0
LINE
8
BLACK
6
CONTINUOUS
10
5.4849811417322831
20
-4.4251661023622049
11
5.4847110629921261
21
-4.424871181102362
0
LINE
8
BLACK
6
CONTINUOUS
10
5.4847110629921261
20
-4.424871181102362
11
5.4843416535433072
21
-4.424718188976378
0
LINE
8
BLACK
6
CONTINUOUS
10
5.4843416535433072
20
-4.424718188976378
11
5.4841522834645664
21
-4.424261023622047
0
LINE
8
BLACK
6
CONTINUOUS
10
5.4841522834645664
20
-4.424261023622047
11
5.4838181102362205
21
-4.4238961417322837
0
LINE
8
BLACK
6
CONTINUOUS
10
5.4838181102362205
20
-4.4238961417322837
11
5.4838356692913388
21
-4.4234966535433067
0
LINE
8
BLACK
6
CONTINUOUS
10
5.4838356692913388
20
-4.4234966535433067
11
5.4836826377952752
21
-4.423127204724409
0
LINE
8
BLACK
6
CONTINUOUS
10
5.4836826377952752
20
-4.423127204724409
11
5.483872007874016
21
-4.4226700000000001
0
LINE
8
BLACK
6
CONTINUOUS
10
5.483872007874016
20
-4.4226700000000001
11
5.4838937401574803
21
-4.4221757086614168
0
LINE
8
BLACK
6
CONTINUOUS
10
5.4838937401574803
20
-4.4221757086614168
11
5.4841886220472436
21
-4.4219056299212598
0
LINE
8
BLACK
6
CONTINUOUS
10
5.4841886220472436
20
-4.4219056299212598
11
5.4843416535433072
21
-4.4215362204724409
0
LINE
8
BLACK
6
CONTINUOUS
10
5.4843416535433072
20
-4.4215362204724409
11
5.4847987795275586
21
-4.421346850393701
0
LINE
8
BLACK
6
CONTINUOUS
10
5.4847987795275586
20
-4.421346850393701
11
5.4851637007874015
21
-4.4210126771653542
0
LINE
8
BLACK
6
CONTINUOUS
10
5.4851637007874015
20
-4.4210126771653542
11
5.4855631496062989
21
-4.4210302362204725
0
LINE
8
BLACK
6
CONTINUOUS
10
5.4855631496062989
20
-4.4210302362204725
11
5.4859326377952753
21
-4.4208772047244089
0
LINE
8
BLACK
6
CONTINUOUS
10
5.4859326377952753
20
-4.4208772047244089
11
5.4960420866141728
21
-4.4208772047244089
0
LINE
8
BLACK
6
CONTINUOUS
10
5.4960420866141728
20
-4.4208772047244089
11
5.4949167716535428
21
-4.4186266141732284
0
LINE
8
BLACK
6
CONTINUOUS
10
5.4949167716535428
20
-4.4186266141732284
11
5.4909992125984255
21
-4.4147090551181103
0
LINE
8
BLACK
6
CONTINUOUS
10
5.4909992125984255
20
-4.4147090551181103
11
5.4846845669291335
21
-4.4104992913385823
0
LINE
8
BLACK
6
CONTINUOUS
10
5.4846845669291335
20
-4.4104992913385823
11
5.4845556299212594
21
-4.4103067716535431
0
LINE
8
BLACK
6
CONTINUOUS
10
5.4845556299212594
20
-4.4103067716535431
11
5.4843416535433072
21
-4.4102181496062993
0
LINE
8
BLACK
6
CONTINUOUS
10
5.4843416535433072
20
-4.4102181496062993
11
5.4840909055118106
21
-4.4096127952755904
0
LINE
8
BLACK
6
CONTINUOUS
10
5.4840909055118106
20
-4.4096127952755904
11
5.4837263385826773
21
-4.4090684251968506
0
LINE
8
BLACK
6
CONTINUOUS
10
5.4837263385826773
20
-4.4090684251968506
11
5.4837712598425199
21
-4.4088411811023622
0
LINE
8
BLACK
6
CONTINUOUS
10
5.4837712598425199
20
-4.4088411811023622
11
5.4836826377952752
21
-4.4086271653543303
0
LINE
8
BLACK
6
CONTINUOUS
10
5.4836826377952752
20
-4.4086271653543303
11
5.4839333464566931
21
-4.408021850393701
0
LINE
8
BLACK
6
CONTINUOUS
10
5.4839333464566931
20
-4.408021850393701
11
5.4840605118110233
21
-4.4073790944881885
0
LINE
8
BLACK
6
CONTINUOUS
10
5.4840605118110233
20
-4.4073790944881885
11
5.4842529921259837
21
-4.4072501574803145
0
LINE
8
BLACK
6
CONTINUOUS
10
5.4842529921259837
20
-4.4072501574803145
11
5.4843416535433072
21
-4.4070361811023622
0
LINE
8
BLACK
6
CONTINUOUS
10
5.4843416535433072
20
-4.4070361811023622
11
5.4849469685039365
21
-4.4067854330708665
0
LINE
8
BLACK
6
CONTINUOUS
10
5.4849469685039365
20
-4.4067854330708665
11
5.4854913779527559
21
-4.4064208661417323
0
LINE
8
BLACK
6
CONTINUOUS
10
5.4854913779527559
20
-4.4064208661417323
11
5.4857185826771655
21
-4.4064657874015749
0
LINE
8
BLACK
6
CONTINUOUS
10
5.4857185826771655
20
-4.4064657874015749
11
5.4859326377952753
21
-4.4063771653543302
0
LINE
8
BLACK
6
CONTINUOUS
10
5.4859326377952753
20
-4.4063771653543302
11
5.5195674015748031
21
-4.4063771653543302
0
LINE
8
BLACK
6
CONTINUOUS
10
5.5195674015748031
20
-4.4063771653543302
11
5.4852211417322829
21
-4.3949284251968503
0
LINE
8
BLACK
6
CONTINUOUS
10
5.4852211417322829
20
-4.3949284251968503
11
5.485094094488189
21
-4.3948182283464563
0
LINE
8
BLACK
6
CONTINUOUS
10
5.485094094488189
20
-4.3948182283464563
11
5.4849264173228347
21
-4.3948063385826774
0
LINE
8
BLACK
6
CONTINUOUS
10
5.4849264173228347
20
-4.3948063385826774
11
5.4844590551181103
21
-4.3942674409448816
0
LINE
8
BLACK
6
CONTINUOUS
10
5.4844590551181103
20
-4.3942674409448816
11
5.4839201968503932
21
-4.393800118110236
0
LINE
8
BLACK
6
CONTINUOUS
10
5.4839201968503932
20
-4.393800118110236
11
5.4839082677165356
21
-4.3936324015748029
0
LINE
8
BLACK
6
CONTINUOUS
10
5.4839082677165356
20
-4.3936324015748029
11
5.4837981102362203
21
-4.3935053937007877
0
LINE
8
BLACK
6
CONTINUOUS
10
5.4837981102362203
20
-4.3935053937007877
11
5.4838486614173227
21
-4.3927938976377954
0
LINE
8
BLACK
6
CONTINUOUS
10
5.4838486614173227
20
-4.3927938976377954
11
5.4837981102362203
21
-4.392082401574803
0
LINE
8
BLACK
6
CONTINUOUS
10
5.4837981102362203
20
-4.392082401574803
11
5.4839082677165356
21
-4.3919553543307082
0
LINE
8
BLACK
6
CONTINUOUS
10
5.4839082677165356
20
-4.3919553543307082
11
5.4839201968503932
21
-4.3917876771653539
0
LINE
8
BLACK
6
CONTINUOUS
10
5.4839201968503932
20
-4.3917876771653539
11
5.4844590551181103
21
-4.3913203149606295
0
LINE
8
BLACK
6
CONTINUOUS
10
5.4844590551181103
20
-4.3913203149606295
11
5.4849264173228347
21
-4.3907814566929133
0
LINE
8
BLACK
6
CONTINUOUS
10
5.4849264173228347
20
-4.3907814566929133
11
5.485094094488189
21
-4.3907695275590548
0
LINE
8
BLACK
6
CONTINUOUS
10
5.485094094488189
20
-4.3907695275590548
11
5.4852211417322829
21
-4.3906593700787404
0
LINE
8
BLACK
6
CONTINUOUS
10
5.4852211417322829
20
-4.3906593700787404
11
5.5307211417322835
21
-4.3754926771653544
0
LINE
8
BLACK
6
CONTINUOUS
10
5.5307211417322835
20
-4.3754926771653544
11
5.5324388582677164
21
-4.3756147637795273
0
LINE
8
BLACK
6
CONTINUOUS
10
5.4960746456692915
20
-4.4512105511811022
11
5.5118492913385824
21
-4.4512105511811022
0
LINE
8
BLACK
6
CONTINUOUS
10
5.5118492913385824
20
-4.4512105511811022
11
5.5118492913385824
21
-4.4438490157480315
0
LINE
8
BLACK
6
CONTINUOUS
10
5.5118492913385824
20
-4.4438490157480315
11
5.4960746456692915
21
-4.4512105511811022
0
LINE
8
BLACK
6
CONTINUOUS
10
5.493680708661417
20
-4.4110884251968505
11
5.4938095669291336
21
-4.4112808661417322
0
LINE
8
BLACK
6
CONTINUOUS
10
5.4938095669291336
20
-4.4112808661417322
11
5.4940236220472443
21
-4.4113695275590548
0
LINE
8
BLACK
6
CONTINUOUS
10
5.4940236220472443
20
-4.4113695275590548
11
5.4983569685039368
21
-4.4157028740157482
0
LINE
8
BLACK
6
CONTINUOUS
10
5.4983569685039368
20
-4.4157028740157482
11
5.4984986614173224
21
-4.4160449606299208
0
LINE
8
BLACK
6
CONTINUOUS
10
5.4984986614173224
20
-4.4160449606299208
11
5.4987784645669286
21
-4.4162876377952758
0
LINE
8
BLACK
6
CONTINUOUS
10
5.4987784645669286
20
-4.4162876377952758
11
5.500945118110236
21
-4.4206209448818896
0
LINE
8
BLACK
6
CONTINUOUS
10
5.500945118110236
20
-4.4206209448818896
11
5.5009633070866144
21
-4.4208772047244089
0
LINE
8
BLACK
6
CONTINUOUS
10
5.5009633070866144
20
-4.4208772047244089
11
5.5291826377952757
21
-4.4208772047244089
0
LINE
8
BLACK
6
CONTINUOUS
10
5.5291826377952757
20
-4.4208772047244089
11
5.5291826377952757
21
-4.4108771653543304
0
LINE
8
BLACK
6
CONTINUOUS
10
5.5291826377952757
20
-4.4108771653543304
11
5.4933638188976373
21
-4.4108771653543304
0
LINE
8
BLACK
6
CONTINUOUS
10
5.4933638188976373
20
-4.4108771653543304
11
5.493680708661417
21
-4.4110884251968505
0
LINE
8
BLACK
6
CONTINUOUS
10
5.4930476771653538
20
-4.3927938582677166
11
5.5161826377952758
21
-4.4005055118110237
0
LINE
8
BLACK
6
CONTINUOUS
10
5.5161826377952758
20
-4.4005055118110237
11
5.5161826377952758
21
-4.3850822047244096
0
LINE
8
BLACK
6
CONTINUOUS
10
5.5161826377952758
20
-4.3850822047244096
11
5.4930476771653538
21
-4.3927938582677166
0
LINE
8
BLACK
6
CONTINUOUS
10
5.609
20
-4.444
11
5.5889999999999995
21
-4.444
0
LINE
8
BLACK
6
CONTINUOUS
10
5.5889999999999995
20
-4.444
11
5.5889999999999995
21
-4.4239999999999995
0
LINE
8
BLACK
6
CONTINUOUS
10
5.5889999999999995
20
-4.4239999999999995
11
5.609
21
-4.4239999999999995
0
LINE
8
BLACK
6
CONTINUOUS
10
5.609
20
-4.4239999999999995
11
5.609
21
-4.444
0
LINE
8
BLACK
6
CONTINUOUS
10
6.2147886220472444
20
-4.3932818110236216
11
6.2154476377952754
21
-4.3948727952755906
0
LINE
8
BLACK
6
CONTINUOUS
10
6.2154476377952754
20
-4.3948727952755906
11
6.2147886220472444
21
-4.3964637795275587
0
LINE
8
BLACK
6
CONTINUOUS
10
6.2147886220472444
20
-4.3964637795275587
11
6.2131976377952753
21
-4.3971227952755907
0
LINE
8
BLACK
6
CONTINUOUS
10
6.2131976377952753
20
-4.3971227952755907
11
6.1778396062992122
21
-4.3971227952755907
0
LINE
8
BLACK
6
CONTINUOUS
10
6.1778396062992122
20
-4.3971227952755907
11
6.2011491338582676
21
-4.4080005905511808
0
LINE
8
BLACK
6
CONTINUOUS
10
6.2011491338582676
20
-4.4080005905511808
11
6.2016688188976374
21
-4.4085680314960625
0
LINE
8
BLACK
6
CONTINUOUS
10
6.2016688188976374
20
-4.4085680314960625
11
6.2022365748031492
21
-4.4090879921259845
0
LINE
8
BLACK
6
CONTINUOUS
10
6.2022365748031492
20
-4.4090879921259845
11
6.2022411811023623
21
-4.4091930314960628
0
LINE
8
BLACK
6
CONTINUOUS
10
6.2022411811023623
20
-4.4091930314960628
11
6.2023121653543303
21
-4.4092705511811019
0
LINE
8
BLACK
6
CONTINUOUS
10
6.2023121653543303
20
-4.4092705511811019
11
6.2022783464566924
21
-4.4100392519685041
0
LINE
8
BLACK
6
CONTINUOUS
10
6.2022783464566924
20
-4.4100392519685041
11
6.2023121653543303
21
-4.4108083858267717
0
LINE
8
BLACK
6
CONTINUOUS
10
6.2023121653543303
20
-4.4108083858267717
11
6.2022411417322836
21
-4.4108859055118108
0
LINE
8
BLACK
6
CONTINUOUS
10
6.2022411417322836
20
-4.4108859055118108
11
6.2022365354330704
21
-4.4109909842519688
0
LINE
8
BLACK
6
CONTINUOUS
10
6.2022365354330704
20
-4.4109909842519688
11
6.2016688976377949
21
-4.4115107480314961
0
LINE
8
BLACK
6
CONTINUOUS
10
6.2016688976377949
20
-4.4115107480314961
11
6.2011491338582676
21
-4.4120783858267716
0
LINE
8
BLACK
6
CONTINUOUS
10
6.2011491338582676
20
-4.4120783858267716
11
6.177839645669291
21
-4.4229561417322838
0
LINE
8
BLACK
6
CONTINUOUS
10
6.177839645669291
20
-4.4229561417322838
11
6.2131976377952753
21
-4.4229561417322838
0
LINE
8
BLACK
6
CONTINUOUS
10
6.2131976377952753
20
-4.4229561417322838
11
6.2147886220472444
21
-4.4236151574803149
0
LINE
8
BLACK
6
CONTINUOUS
10
6.2147886220472444
20
-4.4236151574803149
11
6.2154476377952754
21
-4.425206141732283
0
LINE
8
BLACK
6
CONTINUOUS
10
6.2154476377952754
20
-4.425206141732283
11
6.2147886220472444
21
-4.426797125984252
0
LINE
8
BLACK
6
CONTINUOUS
10
6.2147886220472444
20
-4.426797125984252
11
6.2131976377952753
21
-4.4274561417322831
0
LINE
8
BLACK
6
CONTINUOUS
10
6.2131976377952753
20
-4.4274561417322831
11
6.1676976377952757
21
-4.4274561417322831
0
LINE
8
BLACK
6
CONTINUOUS
10
6.1676976377952757
20
-4.4274561417322831
11
6.1673281496062993
21
-4.4273030708661416
0
LINE
8
BLACK
6
CONTINUOUS
10
6.1673281496062993
20
-4.4273030708661416
11
6.1669287007874019
21
-4.4273206692913387
0
LINE
8
BLACK
6
CONTINUOUS
10
6.1669287007874019
20
-4.4273206692913387
11
6.166563779527559
21
-4.4269864566929131
0
LINE
8
BLACK
6
CONTINUOUS
10
6.166563779527559
20
-4.4269864566929131
11
6.1661066535433067
21
-4.426797125984252
0
LINE
8
BLACK
6
CONTINUOUS
10
6.1661066535433067
20
-4.426797125984252
11
6.165953622047244
21
-4.4264276771653543
0
LINE
8
BLACK
6
CONTINUOUS
10
6.165953622047244
20
-4.4264276771653543
11
6.1656587401574798
21
-4.4261576377952752
0
LINE
8
BLACK
6
CONTINUOUS
10
6.1656587401574798
20
-4.4261576377952752
11
6.1656370078740155
21
-4.425663307086614
0
LINE
8
BLACK
6
CONTINUOUS
10
6.1656370078740155
20
-4.425663307086614
11
6.1654476377952756
21
-4.425206141732283
0
LINE
8
BLACK
6
CONTINUOUS
10
6.1654476377952756
20
-4.425206141732283
11
6.1656006692913383
21
-4.4248366535433066
0
LINE
8
BLACK
6
CONTINUOUS
10
6.1656006692913383
20
-4.4248366535433066
11
6.16558311023622
21
-4.4244372047244092
0
LINE
8
BLACK
6
CONTINUOUS
10
6.16558311023622
20
-4.4244372047244092
11
6.1659172834645668
21
-4.4240722834645672
0
LINE
8
BLACK
6
CONTINUOUS
10
6.1659172834645668
20
-4.4240722834645672
11
6.1661066535433067
21
-4.4236151574803149
0
LINE
8
BLACK
6
CONTINUOUS
10
6.1661066535433067
20
-4.4236151574803149
11
6.1664760629921256
21
-4.4234621259842521
0
LINE
8
BLACK
6
CONTINUOUS
10
6.1664760629921256
20
-4.4234621259842521
11
6.1667461417322835
21
-4.423167244094488
0
LINE
8
BLACK
6
CONTINUOUS
10
6.1667461417322835
20
-4.423167244094488
11
6.1948770078740152
21
-4.4100394488188979
0
LINE
8
BLACK
6
CONTINUOUS
10
6.1948770078740152
20
-4.4100394488188979
11
6.1667461417322835
21
-4.3969116929133856
0
LINE
8
BLACK
6
CONTINUOUS
10
6.1667461417322835
20
-4.3969116929133856
11
6.1664760629921256
21
-4.3966167716535436
0
LINE
8
BLACK
6
CONTINUOUS
10
6.1664760629921256
20
-4.3966167716535436
11
6.1661066535433067
21
-4.3964637795275587
0
LINE
8
BLACK
6
CONTINUOUS
10
6.1661066535433067
20
-4.3964637795275587
11
6.1659172834645668
21
-4.3960066141732286
0
LINE
8
BLACK
6
CONTINUOUS
10
6.1659172834645668
20
-4.3960066141732286
11
6.16558311023622
21
-4.3956417322834644
0
LINE
8
BLACK
6
CONTINUOUS
10
6.16558311023622
20
-4.3956417322834644
11
6.1656006692913383
21
-4.3952422440944883
0
LINE
8
BLACK
6
CONTINUOUS
10
6.1656006692913383
20
-4.3952422440944883
11
6.1654476377952756
21
-4.3948727952755906
0
LINE
8
BLACK
6
CONTINUOUS
10
6.1654476377952756
20
-4.3948727952755906
11
6.1656370078740155
21
-4.3944155905511808
0
LINE
8
BLACK
6
CONTINUOUS
10
6.1656370078740155
20
-4.3944155905511808
11
6.1656587401574798
21
-4.3939212992125984
0
LINE
8
BLACK
6
CONTINUOUS
10
6.1656587401574798
20
-4.3939212992125984
11
6.165953622047244
21
-4.3936512204724405
0
LINE
8
BLACK
6
CONTINUOUS
10
6.165953622047244
20
-4.3936512204724405
11
6.1661066535433067
21
-4.3932818110236216
0
LINE
8
BLACK
6
CONTINUOUS
10
6.1661066535433067
20
-4.3932818110236216
11
6.166563779527559
21
-4.3930924409448817
0
LINE
8
BLACK
6
CONTINUOUS
10
6.166563779527559
20
-4.3930924409448817
11
6.1669287007874019
21
-4.3927582677165358
0
LINE
8
BLACK
6
CONTINUOUS
10
6.1669287007874019
20
-4.3927582677165358
11
6.1673281496062993
21
-4.3927758267716532
0
LINE
8
BLACK
6
CONTINUOUS
10
6.1673281496062993
20
-4.3927758267716532
11
6.1676976377952757
21
-4.3926227952755905
0
LINE
8
BLACK
6
CONTINUOUS
10
6.1676976377952757
20
-4.3926227952755905
11
6.2131976377952753
21
-4.3926227952755905
0
LINE
8
BLACK
6
CONTINUOUS
10
6.2131976377952753
20
-4.3926227952755905
11
6.2147886220472444
21
-4.3932818110236216
0
LINE
8
BLACK
6
CONTINUOUS
10
6.0140000000000002
20
-4.399
11
5.9939999999999998
21
-4.399
0
LINE
8
BLACK
6
CONTINUOUS
10
5.9939999999999998
20
-4.399
11
5.9939999999999998
21
-4.3789999999999996
0
LINE
8
BLACK
6
CONTINUOUS
10
5.9939999999999998
20
-4.3789999999999996
11
6.0140000000000002
21
-4.3789999999999996
0
LINE
8
BLACK
6
CONTINUOUS
10
6.0140000000000002
20
-4.3789999999999996
11
6.0140000000000002
21
-4.399
0
LINE
8
BLACK
6
CONTINUOUS
10
6.1139999999999999
20
-4.399
11
6.0939999999999994
21
-4.399
0
LINE
8
BLACK
6
CONTINUOUS
10
6.0939999999999994
20
-4.399
11
6.0939999999999994
21
-4.3789999999999996
0
LINE
8
BLACK
6
CONTINUOUS
10
6.0939999999999994
20
-4.3789999999999996
11
6.1139999999999999
21
-4.3789999999999996
0
LINE
8
BLACK
6
CONTINUOUS
10
6.1139999999999999
20
-4.3789999999999996
11
6.1139999999999999
21
-4.399
0
LINE
8
BLACK
6
CONTINUOUS
10
6.2142038582677168
20
-4.3473603543307089
11
6.2153321653543303
21
-4.3486612992125986
0
LINE
8
BLACK
6
CONTINUOUS
10
6.2153321653543303
20
-4.3486612992125986
11
6.2152100787401574
21
-4.3503790157480315
0
LINE
8
BLACK
6
CONTINUOUS
10
6.2152100787401574
20
-4.3503790157480315
11
6.2139091338582677
21
-4.3515073228346459
0
LINE
8
BLACK
6
CONTINUOUS
10
6.2139091338582677
20
-4.3515073228346459
11
6.2024476377952755
21
-4.3553277952755902
0
LINE
8
BLACK
6
CONTINUOUS
10
6.2024476377952755
20
-4.3553277952755902
11
6.2024476377952755
21
-4.3737511023622044
0
LINE
8
BLACK
6
CONTINUOUS
10
6.2024476377952755
20
-4.3737511023622044
11
6.2139091732283465
21
-4.3775716141732284
0
LINE
8
BLACK
6
CONTINUOUS
10
6.2139091732283465
20
-4.3775716141732284
11
6.2152101181102362
21
-4.3786999212598428
0
LINE
8
BLACK
6
CONTINUOUS
10
6.2152101181102362
20
-4.3786999212598428
11
6.2153322047244091
21
-4.3804176771653545
0
LINE
8
BLACK
6
CONTINUOUS
10
6.2153322047244091
20
-4.3804176771653545
11
6.2142038582677168
21
-4.3817185826771654
0
LINE
8
BLACK
6
CONTINUOUS
10
6.2142038582677168
20
-4.3817185826771654
11
6.212486141732283
21
-4.3818406692913383
0
LINE
8
BLACK
6
CONTINUOUS
10
6.212486141732283
20
-4.3818406692913383
11
6.1669861417322833
21
-4.366674015748031
0
LINE
8
BLACK
6
CONTINUOUS
10
6.1669861417322833
20
-4.366674015748031
11
6.1668590944881885
21
-4.3665638188976379
0
LINE
8
BLACK
6
CONTINUOUS
10
6.1668590944881885
20
-4.3665638188976379
11
6.1666914173228342
21
-4.3665519291338581
0
LINE
8
BLACK
6
CONTINUOUS
10
6.1666914173228342
20
-4.3665519291338581
11
6.1662240551181098
21
-4.3660130314960632
0
LINE
8
BLACK
6
CONTINUOUS
10
6.1662240551181098
20
-4.3660130314960632
11
6.1656851968503936
21
-4.3655457086614176
0
LINE
8
BLACK
6
CONTINUOUS
10
6.1656851968503936
20
-4.3655457086614176
11
6.1656732677165351
21
-4.3653779921259845
0
LINE
8
BLACK
6
CONTINUOUS
10
6.1656732677165351
20
-4.3653779921259845
11
6.1655631102362207
21
-4.3652509842519684
0
LINE
8
BLACK
6
CONTINUOUS
10
6.1655631102362207
20
-4.3652509842519684
11
6.1656136614173223
21
-4.3645394881889761
0
LINE
8
BLACK
6
CONTINUOUS
10
6.1656136614173223
20
-4.3645394881889761
11
6.1655631102362207
21
-4.3638279921259837
0
LINE
8
BLACK
6
CONTINUOUS
10
6.1655631102362207
20
-4.3638279921259837
11
6.1656732677165351
21
-4.3637009448818898
0
LINE
8
BLACK
6
CONTINUOUS
10
6.1656732677165351
20
-4.3637009448818898
11
6.1656851968503936
21
-4.3635332677165355
0
LINE
8
BLACK
6
CONTINUOUS
10
6.1656851968503936
20
-4.3635332677165355
11
6.1662240551181098
21
-4.3630659055118111
0
LINE
8
BLACK
6
CONTINUOUS
10
6.1662240551181098
20
-4.3630659055118111
11
6.1666914173228342
21
-4.362527047244094
0
LINE
8
BLACK
6
CONTINUOUS
10
6.1666914173228342
20
-4.362527047244094
11
6.1668590944881885
21
-4.3625151181102364
0
LINE
8
BLACK
6
CONTINUOUS
10
6.1668590944881885
20
-4.3625151181102364
11
6.1669861417322833
21
-4.3624049606299211
0
LINE
8
BLACK
6
CONTINUOUS
10
6.1669861417322833
20
-4.3624049606299211
11
6.212486141732283
21
-4.3472382677165351
0
LINE
8
BLACK
6
CONTINUOUS
10
6.212486141732283
20
-4.3472382677165351
11
6.2142038582677168
21
-4.3473603543307089
0
LINE
8
BLACK
6
CONTINUOUS
10
6.1748126771653542
20
-4.3645394488188973
11
6.1979476377952754
21
-4.3722511023622044
0
LINE
8
BLACK
6
CONTINUOUS
10
6.1979476377952754
20
-4.3722511023622044
11
6.1979476377952754
21
-4.3568277952755903
0
LINE
8
BLACK
6
CONTINUOUS
10
6.1979476377952754
20
-4.3568277952755903
11
6.1748126771653542
21
-4.3645394488188973
0
LINE
8
BLACK
6
CONTINUOUS
10
5.5143627952755905
20
-4.3364863385826773
11
5.5146449999999998
21
-4.3364443700787403
0
LINE
8
BLACK
6
CONTINUOUS
10
5.5146449999999998
20
-4.3364443700787403
11
5.5233116929133859
21
-4.3386110629921255
0
LINE
8
BLACK
6
CONTINUOUS
10
5.5233116929133859
20
-4.3386110629921255
11
5.5235171259842515
21
-4.3387632677165353
0
LINE
8
BLACK
6
CONTINUOUS
10
5.5235171259842515
20
-4.3387632677165353
11
5.5237722047244091
21
-4.338781417322835
0
LINE
8
BLACK
6
CONTINUOUS
10
5.5237722047244091
20
-4.338781417322835
11
5.5281055511811026
21
-4.3409481102362202
0
LINE
8
BLACK
6
CONTINUOUS
10
5.5281055511811026
20
-4.3409481102362202
11
5.5283481102362204
21
-4.3412277952755902
0
LINE
8
BLACK
6
CONTINUOUS
10
5.5283481102362204
20
-4.3412277952755902
11
5.5286902755905514
21
-4.3413695275590554
0
LINE
8
BLACK
6
CONTINUOUS
10
5.5286902755905514
20
-4.3413695275590554
11
5.5308569685039366
21
-4.3435361811023618
0
LINE
8
BLACK
6
CONTINUOUS
10
5.5308569685039366
20
-4.3435361811023618
11
5.530998661417323
21
-4.343878307086614
0
LINE
8
BLACK
6
CONTINUOUS
10
5.530998661417323
20
-4.343878307086614
11
5.5312784645669293
21
-4.3441209842519681
0
LINE
8
BLACK
6
CONTINUOUS
10
5.5312784645669293
20
-4.3441209842519681
11
5.533445078740157
21
-4.3484543307086616
0
LINE
8
BLACK
6
CONTINUOUS
10
5.533445078740157
20
-4.3484543307086616
11
5.5334821653543305
21
-4.348976653543307
0
LINE
8
BLACK
6
CONTINUOUS
10
5.5334821653543305
20
-4.348976653543307
11
5.533682637795275
21
-4.3494605511811022
0
LINE
8
BLACK
6
CONTINUOUS
10
5.533682637795275
20
-4.3494605511811022
11
5.533682637795275
21
-4.3537938976377948
0
LINE
8
BLACK
6
CONTINUOUS
10
5.533682637795275
20
-4.3537938976377948
11
5.5334822047244092
21
-4.3542776771653546
0
LINE
8
BLACK
6
CONTINUOUS
10
5.5334822047244092
20
-4.3542776771653546
11
5.5334451181102358
21
-4.3548001181102363
0
LINE
8
BLACK
6
CONTINUOUS
10
5.5334451181102358
20
-4.3548001181102363
11
5.5312784645669293
21
-4.3591334251968501
0
LINE
8
BLACK
6
CONTINUOUS
10
5.5312784645669293
20
-4.3591334251968501
11
5.530998661417323
21
-4.3593760629921263
0
LINE
8
BLACK
6
CONTINUOUS
10
5.530998661417323
20
-4.3593760629921263
11
5.5308569685039366
21
-4.3597181889763776
0
LINE
8
BLACK
6
CONTINUOUS
10
5.5308569685039366
20
-4.3597181889763776
11
5.5286902755905514
21
-4.3618848818897638
0
LINE
8
BLACK
6
CONTINUOUS
10
5.5286902755905514
20
-4.3618848818897638
11
5.5283481496062992
21
-4.3620265748031493
0
LINE
8
BLACK
6
CONTINUOUS
10
5.5283481496062992
20
-4.3620265748031493
11
5.5281055511811026
21
-4.3623063385826768
0
LINE
8
BLACK
6
CONTINUOUS
10
5.5281055511811026
20
-4.3623063385826768
11
5.5237722047244091
21
-4.3644730314960629
0
LINE
8
BLACK
6
CONTINUOUS
10
5.5237722047244091
20
-4.3644730314960629
11
5.5235171259842515
21
-4.3644911417322838
0
LINE
8
BLACK
6
CONTINUOUS
10
5.5235171259842515
20
-4.3644911417322838
11
5.5233116929133859
21
-4.3646433858267715
0
LINE
8
BLACK
6
CONTINUOUS
10
5.5233116929133859
20
-4.3646433858267715
11
5.5146449999999998
21
-4.3668100393700788
0
LINE
8
BLACK
6
CONTINUOUS
10
5.5146449999999998
20
-4.3668100393700788
11
5.5143627952755905
21
-4.3667680314960631
0
LINE
8
BLACK
6
CONTINUOUS
10
5.5143627952755905
20
-4.3667680314960631
11
5.5140992913385825
21
-4.3668772047244095
0
LINE
8
BLACK
6
CONTINUOUS
10
5.5140992913385825
20
-4.3668772047244095
11
5.5032659842519687
21
-4.3668772047244095
0
LINE
8
BLACK
6
CONTINUOUS
10
5.5032659842519687
20
-4.3668772047244095
11
5.5030024409448819
21
-4.3667680314960631
0
LINE
8
BLACK
6
CONTINUOUS
10
5.5030024409448819
20
-4.3667680314960631
11
5.5027202755905513
21
-4.3668100393700788
0
LINE
8
BLACK
6
CONTINUOUS
10
5.5027202755905513
20
-4.3668100393700788
11
5.4940535826771653
21
-4.3646433858267715
0
LINE
8
BLACK
6
CONTINUOUS
10
5.4940535826771653
20
-4.3646433858267715
11
5.49384811023622
21
-4.3644911417322838
0
LINE
8
BLACK
6
CONTINUOUS
10
5.49384811023622
20
-4.3644911417322838
11
5.493593070866142
21
-4.3644730314960629
0
LINE
8
BLACK
6
CONTINUOUS
10
5.493593070866142
20
-4.3644730314960629
11
5.4892597637795273
21
-4.3623063779527556
0
LINE
8
BLACK
6
CONTINUOUS
10
5.4892597637795273
20
-4.3623063779527556
11
5.4890170866141732
21
-4.3620265748031493
0
LINE
8
BLACK
6
CONTINUOUS
10
5.4890170866141732
20
-4.3620265748031493
11
5.4886749999999997
21
-4.3618848818897638
0
LINE
8
BLACK
6
CONTINUOUS
10
5.4886749999999997
20
-4.3618848818897638
11
5.4865083070866136
21
-4.3597181889763776
0
LINE
8
BLACK
6
CONTINUOUS
10
5.4865083070866136
20
-4.3597181889763776
11
5.4863665748031494
21
-4.3593760629921263
0
LINE
8
BLACK
6
CONTINUOUS
10
5.4863665748031494
20
-4.3593760629921263
11
5.4860868503937006
21
-4.3591334645669289
0
LINE
8
BLACK
6
CONTINUOUS
10
5.4860868503937006
20
-4.3591334645669289
11
5.4839201574803145
21
-4.3548001181102363
0
LINE
8
BLACK
6
CONTINUOUS
10
5.4839201574803145
20
-4.3548001181102363
11
5.4838830314960632
21
-4.3542776771653546
0
LINE
8
BLACK
6
CONTINUOUS
10
5.4838830314960632
20
-4.3542776771653546
11
5.4836826377952752
21
-4.3537938976377948
0
LINE
8
BLACK
6
CONTINUOUS
10
5.4836826377952752
20
-4.3537938976377948
11
5.4836826377952752
21
-4.3494605511811022
0
LINE
8
BLACK
6
CONTINUOUS
10
5.4836826377952752
20
-4.3494605511811022
11
5.4838830314960632
21
-4.3489767322834645
0
LINE
8
BLACK
6
CONTINUOUS
10
5.4838830314960632
20
-4.3489767322834645
11
5.4839201574803145
21
-4.3484543307086616
0
LINE
8
BLACK
6
CONTINUOUS
10
5.4839201574803145
20
-4.3484543307086616
11
5.4860868110236218
21
-4.3441209842519681
0
LINE
8
BLACK
6
CONTINUOUS
10
5.4860868110236218
20
-4.3441209842519681
11
5.4863665748031494
21
-4.343878307086614
0
LINE
8
BLACK
6
CONTINUOUS
10
5.4863665748031494
20
-4.343878307086614
11
5.4865083070866136
21
-4.3435361811023618
0
LINE
8
BLACK
6
CONTINUOUS
10
5.4865083070866136
20
-4.3435361811023618
11
5.4886749999999997
21
-4.3413695669291341
0
LINE
8
BLACK
6
CONTINUOUS
10
5.4886749999999997
20
-4.3413695669291341
11
5.4890170866141732
21
-4.341227834645669
0
LINE
8
BLACK
6
CONTINUOUS
10
5.4890170866141732
20
-4.341227834645669
11
5.4892597637795273
21
-4.3409480708661414
0
LINE
8
BLACK
6
CONTINUOUS
10
5.4892597637795273
20
-4.3409480708661414
11
5.493593070866142
21
-4.338781417322835
0
LINE
8
BLACK
6
CONTINUOUS
10
5.493593070866142
20
-4.338781417322835
11
5.49384811023622
21
-4.3387632677165353
0
LINE
8
BLACK
6
CONTINUOUS
10
5.49384811023622
20
-4.3387632677165353
11
5.4940535826771653
21
-4.3386110629921255
0
LINE
8
BLACK
6
CONTINUOUS
10
5.4940535826771653
20
-4.3386110629921255
11
5.5027202755905513
21
-4.3364443700787403
0
LINE
8
BLACK
6
CONTINUOUS
10
5.5027202755905513
20
-4.3364443700787403
11
5.5030024409448819
21
-4.3364863385826773
0
LINE
8
BLACK
6
CONTINUOUS
10
5.5030024409448819
20
-4.3364863385826773
11
5.5032659842519687
21
-4.3363772047244096
0
LINE
8
BLACK
6
CONTINUOUS
10
5.5032659842519687
20
-4.3363772047244096
11
5.5140992913385825
21
-4.3363772047244096
0
LINE
8
BLACK
6
CONTINUOUS
10
5.5140992913385825
20
-4.3363772047244096
11
5.5143627952755905
21
-4.3364863385826773
0
LINE
8
BLACK
6
CONTINUOUS
10
5.4953845275590547
20
-4.3429168110236223
11
5.4915987795275587
21
-4.3448097244094486
0
LINE
8
BLACK
6
CONTINUOUS
10
5.4915987795275587
20
-4.3448097244094486
11
5.4899483858267715
21
-4.3464601181102358
0
LINE
8
BLACK
6
CONTINUOUS
10
5.4899483858267715
20
-4.3464601181102358
11
5.4881826377952754
21
-4.3499916929133855
0
LINE
8
BLACK
6
CONTINUOUS
10
5.4881826377952754
20
-4.3499916929133855
11
5.4881826377952754
21
-4.3532627165354327
0
LINE
8
BLACK
6
CONTINUOUS
10
5.4881826377952754
20
-4.3532627165354327
11
5.4899485039370077
21
-4.3567944488188974
0
LINE
8
BLACK
6
CONTINUOUS
10
5.4899485039370077
20
-4.3567944488188974
11
5.49159874015748
21
-4.3584446850393697
0
LINE
8
BLACK
6
CONTINUOUS
10
5.49159874015748
20
-4.3584446850393697
11
5.4953845275590547
21
-4.3603375590551181
0
LINE
8
BLACK
6
CONTINUOUS
10
5.4953845275590547
20
-4.3603375590551181
11
5.5035430314960632
21
-4.3623772047244094
0
LINE
8
BLACK
6
CONTINUOUS
10
5.5035430314960632
20
-4.3623772047244094
11
5.513822244094488
21
-4.3623772047244094
0
LINE
8
BLACK
6
CONTINUOUS
10
5.513822244094488
20
-4.3623772047244094
11
5.521980669291338
21
-4.3603375984251969
0
LINE
8
BLACK
6
CONTINUOUS
10
5.521980669291338
20
-4.3603375984251969
11
5.5257665354330712
21
-4.3584446850393697
0
LINE
8
BLACK
6
CONTINUOUS
10
5.5257665354330712
20
-4.3584446850393697
11
5.5274167716535434
21
-4.3567944094488187
0
LINE
8
BLACK
6
CONTINUOUS
10
5.5274167716535434
20
-4.3567944094488187
11
5.5291826377952757
21
-4.3532627165354327
0
LINE
8
BLACK
6
CONTINUOUS
10
5.5291826377952757
20
-4.3532627165354327
11
5.5291826377952757
21
-4.3499916929133855
0
LINE
8
BLACK
6
CONTINUOUS
10
5.5291826377952757
20
-4.3499916929133855
11
5.5274167716535434
21
-4.3464599606299208
0
LINE
8
BLACK
6
CONTINUOUS
10
5.5274167716535434
20
-4.3464599606299208
11
5.5257664566929137
21
-4.3448097244094486
0
LINE
8
BLACK
6
CONTINUOUS
10
5.5257664566929137
20
-4.3448097244094486
11
5.5219806299212602
21
-4.3429168110236223
0
LINE
8
BLACK
6
CONTINUOUS
10
5.5219806299212602
20
-4.3429168110236223
11
5.513822244094488
21
-4.3408772047244097
0
LINE
8
BLACK
6
CONTINUOUS
10
5.513822244094488
20
-4.3408772047244097
11
5.5035430314960632
21
-4.3408772047244097
0
LINE
8
BLACK
6
CONTINUOUS
10
5.5035430314960632
20
-4.3408772047244097
11
5.4953845275590547
21
-4.3429168110236223
0
LINE
8
BLACK
6
CONTINUOUS
10
6.19612779527559
20
-4.308231929133858
11
6.1964100000000002
21
-4.308189960629921
0
LINE
8
BLACK
6
CONTINUOUS
10
6.1964100000000002
20
-4.308189960629921
11
6.2050766929133854
21
-4.3103566535433071
0
LINE
8
BLACK
6
CONTINUOUS
10
6.2050766929133854
20
-4.3103566535433071
11
6.2052821259842519
21
-4.310508858267716
0
LINE
8
BLACK
6
CONTINUOUS
10
6.2052821259842519
20
-4.310508858267716
11
6.2055372047244095
21
-4.3105270078740157
0
LINE
8
BLACK
6
CONTINUOUS
10
6.2055372047244095
20
-4.3105270078740157
11
6.2098705511811021
21
-4.3126937007874018
0
LINE
8
BLACK
6
CONTINUOUS
10
6.2098705511811021
20
-4.3126937007874018
11
6.2101131102362199
21
-4.3129733858267718
0
LINE
8
BLACK
6
CONTINUOUS
10
6.2101131102362199
20
-4.3129733858267718
11
6.2104552755905509
21
-4.3131151181102361
0
LINE
8
BLACK
6
CONTINUOUS
10
6.2104552755905509
20
-4.3131151181102361
11
6.212621968503937
21
-4.3152817716535434
0
LINE
8
BLACK
6
CONTINUOUS
10
6.212621968503937
20
-4.3152817716535434
11
6.2127636614173225
21
-4.3156238976377947
0
LINE
8
BLACK
6
CONTINUOUS
10
6.2127636614173225
20
-4.3156238976377947
11
6.2130434645669288
21
-4.3158665748031497
0
LINE
8
BLACK
6
CONTINUOUS
10
6.2130434645669288
20
-4.3158665748031497
11
6.2152100787401574
21
-4.3201999212598423
0
LINE
8
BLACK
6
CONTINUOUS
10
6.2152100787401574
20
-4.3201999212598423
11
6.2152471653543309
21
-4.3207222440944877
0
LINE
8
BLACK
6
CONTINUOUS
10
6.2152471653543309
20
-4.3207222440944877
11
6.2154476377952754
21
-4.3212061417322838
0
LINE
8
BLACK
6
CONTINUOUS
10
6.2154476377952754
20
-4.3212061417322838
11
6.2154476377952754
21
-4.3255394881889764
0
LINE
8
BLACK
6
CONTINUOUS
10
6.2154476377952754
20
-4.3255394881889764
11
6.2152472047244096
21
-4.3260232677165353
0
LINE
8
BLACK
6
CONTINUOUS
10
6.2152472047244096
20
-4.3260232677165353
11
6.2152101181102362
21
-4.326545708661417
0
LINE
8
BLACK
6
CONTINUOUS
10
6.2152101181102362
20
-4.326545708661417
11
6.2130434645669288
21
-4.3308790157480317
0
LINE
8
BLACK
6
CONTINUOUS
10
6.2130434645669288
20
-4.3308790157480317
11
6.2127636614173225
21
-4.331121653543307
0
LINE
8
BLACK
6
CONTINUOUS
10
6.2127636614173225
20
-4.331121653543307
11
6.212621968503937
21
-4.3314637795275592
0
LINE
8
BLACK
6
CONTINUOUS
10
6.212621968503937
20
-4.3314637795275592
11
6.2104552755905509
21
-4.3336304724409445
0
LINE
8
BLACK
6
CONTINUOUS
10
6.2104552755905509
20
-4.3336304724409445
11
6.2101131496062987
21
-4.3337721653543309
0
LINE
8
BLACK
6
CONTINUOUS
10
6.2101131496062987
20
-4.3337721653543309
11
6.2098705511811021
21
-4.3340519291338584
0
LINE
8
BLACK
6
CONTINUOUS
10
6.2098705511811021
20
-4.3340519291338584
11
6.2055372047244095
21
-4.3362186220472436
0
LINE
8
BLACK
6
CONTINUOUS
10
6.2055372047244095
20
-4.3362186220472436
11
6.2052821259842519
21
-4.3362367322834645
0
LINE
8
BLACK
6
CONTINUOUS
10
6.2052821259842519
20
-4.3362367322834645
11
6.2050766929133854
21
-4.3363889763779531
0
LINE
8
BLACK
6
CONTINUOUS
10
6.2050766929133854
20
-4.3363889763779531
11
6.1964100000000002
21
-4.3385556299212595
0
LINE
8
BLACK
6
CONTINUOUS
10
6.1964100000000002
20
-4.3385556299212595
11
6.19612779527559
21
-4.3385136220472438
0
LINE
8
BLACK
6
CONTINUOUS
10
6.19612779527559
20
-4.3385136220472438
11
6.1958642913385829
21
-4.3386227952755902
0
LINE
8
BLACK
6
CONTINUOUS
10
6.1958642913385829
20
-4.3386227952755902
11
6.1850309842519682
21
-4.3386227952755902
0
LINE
8
BLACK
6
CONTINUOUS
10
6.1850309842519682
20
-4.3386227952755902
11
6.1847674409448814
21
-4.3385136220472438
0
LINE
8
BLACK
6
CONTINUOUS
10
6.1847674409448814
20
-4.3385136220472438
11
6.1844852755905508
21
-4.3385556299212595
0
LINE
8
BLACK
6
CONTINUOUS
10
6.1844852755905508
20
-4.3385556299212595
11
6.1758185826771648
21
-4.3363889763779531
0
LINE
8
BLACK
6
CONTINUOUS
10
6.1758185826771648
20
-4.3363889763779531
11
6.1756131102362204
21
-4.3362367322834645
0
LINE
8
BLACK
6
CONTINUOUS
10
6.1756131102362204
20
-4.3362367322834645
11
6.1753580708661415
21
-4.3362186220472436
0
LINE
8
BLACK
6
CONTINUOUS
10
6.1753580708661415
20
-4.3362186220472436
11
6.1710247637795277
21
-4.3340519685039371
0
LINE
8
BLACK
6
CONTINUOUS
10
6.1710247637795277
20
-4.3340519685039371
11
6.1707820866141727
21
-4.3337721653543309
0
LINE
8
BLACK
6
CONTINUOUS
10
6.1707820866141727
20
-4.3337721653543309
11
6.1704400000000001
21
-4.3336304724409445
0
LINE
8
BLACK
6
CONTINUOUS
10
6.1704400000000001
20
-4.3336304724409445
11
6.168273307086614
21
-4.3314637795275592
0
LINE
8
BLACK
6
CONTINUOUS
10
6.168273307086614
20
-4.3314637795275592
11
6.1681315748031498
21
-4.331121653543307
0
LINE
8
BLACK
6
CONTINUOUS
10
6.1681315748031498
20
-4.331121653543307
11
6.167851850393701
21
-4.3308790551181104
0
LINE
8
BLACK
6
CONTINUOUS
10
6.167851850393701
20
-4.3308790551181104
11
6.1656851574803149
21
-4.326545708661417
0
LINE
8
BLACK
6
CONTINUOUS
10
6.1656851574803149
20
-4.326545708661417
11
6.1656480314960627
21
-4.3260232677165353
0
LINE
8
BLACK
6
CONTINUOUS
10
6.1656480314960627
20
-4.3260232677165353
11
6.1654476377952756
21
-4.3255394881889764
0
LINE
8
BLACK
6
CONTINUOUS
10
6.1654476377952756
20
-4.3255394881889764
11
6.1654476377952756
21
-4.3212061417322838
0
LINE
8
BLACK
6
CONTINUOUS
10
6.1654476377952756
20
-4.3212061417322838
11
6.1656480314960627
21
-4.3207223228346452
0
LINE
8
BLACK
6
CONTINUOUS
10
6.1656480314960627
20
-4.3207223228346452
11
6.1656851574803149
21
-4.3201999212598423
0
LINE
8
BLACK
6
CONTINUOUS
10
6.1656851574803149
20
-4.3201999212598423
11
6.1678518110236222
21
-4.3158665748031497
0
LINE
8
BLACK
6
CONTINUOUS
10
6.1678518110236222
20
-4.3158665748031497
11
6.1681315748031498
21
-4.3156238976377947
0
LINE
8
BLACK
6
CONTINUOUS
10
6.1681315748031498
20
-4.3156238976377947
11
6.168273307086614
21
-4.3152817716535434
0
LINE
8
BLACK
6
CONTINUOUS
10
6.168273307086614
20
-4.3152817716535434
11
6.1704400000000001
21
-4.3131151574803148
0
LINE
8
BLACK
6
CONTINUOUS
10
6.1704400000000001
20
-4.3131151574803148
11
6.1707820866141727
21
-4.3129734251968506
0
LINE
8
BLACK
6
CONTINUOUS
10
6.1707820866141727
20
-4.3129734251968506
11
6.1710247637795277
21
-4.312693661417323
0
LINE
8
BLACK
6
CONTINUOUS
10
6.1710247637795277
20
-4.312693661417323
11
6.1753580708661415
21
-4.3105270078740157
0
LINE
8
BLACK
6
CONTINUOUS
10
6.1753580708661415
20
-4.3105270078740157
11
6.1756131102362204
21
-4.310508858267716
0
LINE
8
BLACK
6
CONTINUOUS
10
6.1756131102362204
20
-4.310508858267716
11
6.1758185826771648
21
-4.3103566535433071
0
LINE
8
BLACK
6
CONTINUOUS
10
6.1758185826771648
20
-4.3103566535433071
11
6.1844852755905508
21
-4.308189960629921
0
LINE
8
BLACK
6
CONTINUOUS
10
6.1844852755905508
20
-4.308189960629921
11
6.1847674409448814
21
-4.308231929133858
0
LINE
8
BLACK
6
CONTINUOUS
10
6.1847674409448814
20
-4.308231929133858
11
6.1850309842519682
21
-4.3081227952755903
0
LINE
8
BLACK
6
CONTINUOUS
10
6.1850309842519682
20
-4.3081227952755903
11
6.1958642913385829
21
-4.3081227952755903
0
LINE
8
BLACK
6
CONTINUOUS
10
6.1958642913385829
20
-4.3081227952755903
11
6.19612779527559
21
-4.308231929133858
0
LINE
8
BLACK
6
CONTINUOUS
10
6.1771495275590551
20
-4.314662401574803
11
6.1733637795275591
21
-4.3165553149606302
0
LINE
8
BLACK
6
CONTINUOUS
10
6.1733637795275591
20
-4.3165553149606302
11
6.1717133858267719
21
-4.3182057086614174
0
LINE
8
BLACK
6
CONTINUOUS
10
6.1717133858267719
20
-4.3182057086614174
11
6.1699476377952758
21
-4.3217372834645671
0
LINE
8
BLACK
6
CONTINUOUS
10
6.1699476377952758
20
-4.3217372834645671
11
6.1699476377952758
21
-4.3250083070866143
0
LINE
8
BLACK
6
CONTINUOUS
10
6.1699476377952758
20
-4.3250083070866143
11
6.1717135039370081
21
-4.328540039370079
0
LINE
8
BLACK
6
CONTINUOUS
10
6.1717135039370081
20
-4.328540039370079
11
6.1733637401574804
21
-4.3301902755905513
0
LINE
8
BLACK
6
CONTINUOUS
10
6.1733637401574804
20
-4.3301902755905513
11
6.1771495275590551
21
-4.3320831496062988
0
LINE
8
BLACK
6
CONTINUOUS
10
6.1771495275590551
20
-4.3320831496062988
11
6.1853080314960627
21
-4.3341227952755901
0
LINE
8
BLACK
6
CONTINUOUS
10
6.1853080314960627
20
-4.3341227952755901
11
6.1955872440944884
21
-4.3341227952755901
0
LINE
8
BLACK
6
CONTINUOUS
10
6.1955872440944884
20
-4.3341227952755901
11
6.2037456692913384
21
-4.3320831889763776
0
LINE
8
BLACK
6
CONTINUOUS
10
6.2037456692913384
20
-4.3320831889763776
11
6.2075315354330707
21
-4.3301902755905513
0
LINE
8
BLACK
6
CONTINUOUS
10
6.2075315354330707
20
-4.3301902755905513
11
6.2091817716535429
21
-4.3285400000000003
0
LINE
8
BLACK
6
CONTINUOUS
10
6.2091817716535429
20
-4.3285400000000003
11
6.2109476377952753
21
-4.3250083070866143
0
LINE
8
BLACK
6
CONTINUOUS
10
6.2109476377952753
20
-4.3250083070866143
11
6.2109476377952753
21
-4.3217372834645671
0
LINE
8
BLACK
6
CONTINUOUS
10
6.2109476377952753
20
-4.3217372834645671
11
6.2091817716535429
21
-4.3182055511811024
0
LINE
8
BLACK
6
CONTINUOUS
10
6.2091817716535429
20
-4.3182055511811024
11
6.2075314566929132
21
-4.3165553149606302
0
LINE
8
BLACK
6
CONTINUOUS
10
6.2075314566929132
20
-4.3165553149606302
11
6.2037456299212597
21
-4.314662401574803
0
LINE
8
BLACK
6
CONTINUOUS
10
6.2037456299212597
20
-4.314662401574803
11
6.1955872440944884
21
-4.3126227952755904
0
LINE
8
BLACK
6
CONTINUOUS
10
6.1955872440944884
20
-4.3126227952755904
11
6.1853080314960627
21
-4.3126227952755904
0
LINE
8
BLACK
6
CONTINUOUS
10
6.1853080314960627
20
-4.3126227952755904
11
6.1771495275590551
21
-4.314662401574803
0
LINE
8
BLACK
6
CONTINUOUS
10
5.4992747637795274
20
-4.2931855511811019
11
5.4996441732283463
21
-4.2931593307086615
0
LINE
8
BLACK
6
CONTINUOUS
10
5.4996441732283463
20
-4.2931593307086615
11
5.5061441732283463
21
-4.2953260236220467
0
LINE
8
BLACK
6
CONTINUOUS
10
5.5061441732283463
20
-4.2953260236220467
11
5.5065398031496064
21
-4.2956691338582678
0
LINE
8
BLACK
6
CONTINUOUS
10
5.5065398031496064
20
-4.2956691338582678
11
5.5070236220472442
21
-4.2958695669291336
0
LINE
8
BLACK
6
CONTINUOUS
10
5.5070236220472442
20
-4.2958695669291336
11
5.5291826377952757
21
-4.3180285826771652
0
LINE
8
BLACK
6
CONTINUOUS
10
5.5291826377952757
20
-4.3180285826771652
11
5.5291826377952757
21
-4.2952938582677165
0
LINE
8
BLACK
6
CONTINUOUS
10
5.5291826377952757
20
-4.2952938582677165
11
5.5298416535433068
21
-4.2937028740157483
0
LINE
8
BLACK
6
CONTINUOUS
10
5.5298416535433068
20
-4.2937028740157483
11
5.5314326377952758
21
-4.2930438582677164
0
LINE
8
BLACK
6
CONTINUOUS
10
5.5314326377952758
20
-4.2930438582677164
11
5.533023622047244
21
-4.2937028740157483
0
LINE
8
BLACK
6
CONTINUOUS
10
5.533023622047244
20
-4.2937028740157483
11
5.533682637795275
21
-4.2952938582677165
0
LINE
8
BLACK
6
CONTINUOUS
10
5.533682637795275
20
-4.2952938582677165
11
5.533682637795275
21
-4.3234605511811024
0
LINE
8
BLACK
6
CONTINUOUS
10
5.533682637795275
20
-4.3234605511811024
11
5.533023622047244
21
-4.3250515354330705
0
LINE
8
BLACK
6
CONTINUOUS
10
5.533023622047244
20
-4.3250515354330705
11
5.5314326377952758
21
-4.3257105511811025
0
LINE
8
BLACK
6
CONTINUOUS
10
5.5314326377952758
20
-4.3257105511811025
11
5.5298416535433068
21
-4.3250515354330705
0
LINE
8
BLACK
6
CONTINUOUS
10
5.5298416535433068
20
-4.3250515354330705
11
5.5042172047244096
21
-4.2994270866141733
0
LINE
8
BLACK
6
CONTINUOUS
10
5.5042172047244096
20
-4.2994270866141733
11
5.4985675196850394
21
-4.2975438582677166
0
LINE
8
BLACK
6
CONTINUOUS
10
5.4985675196850394
20
-4.2975438582677166
11
5.4951304330708659
21
-4.2975438582677166
0
LINE
8
BLACK
6
CONTINUOUS
10
5.4951304330708659
20
-4.2975438582677166
11
5.4915988188976375
21
-4.2993096456692914
0
LINE
8
BLACK
6
CONTINUOUS
10
5.4915988188976375
20
-4.2993096456692914
11
5.4899483858267715
21
-4.3009601181102362
0
LINE
8
BLACK
6
CONTINUOUS
10
5.4899483858267715
20
-4.3009601181102362
11
5.4881826377952754
21
-4.3044916929133858
0
LINE
8
BLACK
6
CONTINUOUS
10
5.4881826377952754
20
-4.3044916929133858
11
5.4881826377952754
21
-4.3142626771653543
0
LINE
8
BLACK
6
CONTINUOUS
10
5.4881826377952754
20
-4.3142626771653543
11
5.4899483858267715
21
-4.317794251968504
0
LINE
8
BLACK
6
CONTINUOUS
10
5.4899483858267715
20
-4.317794251968504
11
5.4918569685039369
21
-4.3197028346456694
0
LINE
8
BLACK
6
CONTINUOUS
10
5.4918569685039369
20
-4.3197028346456694
11
5.492515984251968
21
-4.3212938188976375
0
LINE
8
BLACK
6
CONTINUOUS
10
5.492515984251968
20
-4.3212938188976375
11
5.4918569685039369
21
-4.3228848425196853
0
LINE
8
BLACK
6
CONTINUOUS
10
5.4918569685039369
20
-4.3228848425196853
11
5.4902659842519688
21
-4.3235438582677164
0
LINE
8
BLACK
6
CONTINUOUS
10
5.4902659842519688
20
-4.3235438582677164
11
5.4886749999999997
21
-4.3228848425196853
0
LINE
8
BLACK
6
CONTINUOUS
10
5.4886749999999997
20
-4.3228848425196853
11
5.4865083070866136
21
-4.3207182283464567
0
LINE
8
BLACK
6
CONTINUOUS
10
5.4865083070866136
20
-4.3207182283464567
11
5.4863665748031494
21
-4.3203760629921257
0
LINE
8
BLACK
6
CONTINUOUS
10
5.4863665748031494
20
-4.3203760629921257
11
5.4860868110236218
21
-4.3201334251968504
0
LINE
8
BLACK
6
CONTINUOUS
10
5.4860868110236218
20
-4.3201334251968504
11
5.4839201574803145
21
-4.3158000787401578
0
LINE
8
BLACK
6
CONTINUOUS
10
5.4839201574803145
20
-4.3158000787401578
11
5.4838830314960632
21
-4.3152776377952753
0
LINE
8
BLACK
6
CONTINUOUS
10
5.4838830314960632
20
-4.3152776377952753
11
5.4836826377952752
21
-4.3147938582677163
0
LINE
8
BLACK
6
CONTINUOUS
10
5.4836826377952752
20
-4.3147938582677163
11
5.4836826377952752
21
-4.3039605511811025
0
LINE
8
BLACK
6
CONTINUOUS
10
5.4836826377952752
20
-4.3039605511811025
11
5.4838830314960632
21
-4.3034767322834648
0
LINE
8
BLACK
6
CONTINUOUS
10
5.4838830314960632
20
-4.3034767322834648
11
5.4839201574803145
21
-4.3029543307086611
0
LINE
8
BLACK
6
CONTINUOUS
10
5.4839201574803145
20
-4.3029543307086611
11
5.4860868110236218
21
-4.2986209842519685
0
LINE
8
BLACK
6
CONTINUOUS
10
5.4860868110236218
20
-4.2986209842519685
11
5.4863665748031494
21
-4.2983783070866144
0
LINE
8
BLACK
6
CONTINUOUS
10
5.4863665748031494
20
-4.2983783070866144
11
5.4865083070866136
21
-4.2980361811023622
0
LINE
8
BLACK
6
CONTINUOUS
10
5.4865083070866136
20
-4.2980361811023622
11
5.4886749999999997
21
-4.2958695669291336
0
LINE
8
BLACK
6
CONTINUOUS
10
5.4886749999999997
20
-4.2958695669291336
11
5.4890170866141732
21
-4.2957278346456693
0
LINE
8
BLACK
6
CONTINUOUS
10
5.4890170866141732
20
-4.2957278346456693
11
5.4892597244094485
21
-4.2954481102362205
0
LINE
8
BLACK
6
CONTINUOUS
10
5.4892597244094485
20
-4.2954481102362205
11
5.4935930314960633
21
-4.2932814173228344
0
LINE
8
BLACK
6
CONTINUOUS
10
5.4935930314960633
20
-4.2932814173228344
11
5.4941153937007874
21
-4.2932442519685035
0
LINE
8
BLACK
6
CONTINUOUS
10
5.4941153937007874
20
-4.2932442519685035
11
5.4945992913385826
21
-4.2930438582677164
0
LINE
8
BLACK
6
CONTINUOUS
10
5.4945992913385826
20
-4.2930438582677164
11
5.4989326377952752
21
-4.2930438582677164
0
LINE
8
BLACK
6
CONTINUOUS
10
5.4989326377952752
20
-4.2930438582677164
11
5.4992747637795274
21
-4.2931855511811019
0
LINE
8
BLACK
6
CONTINUOUS
10
6.0140000000000002
20
-4.2989999999999995
11
5.9939999999999998
21
-4.2989999999999995
0
LINE
8
BLACK
6
CONTINUOUS
10
5.9939999999999998
20
-4.2989999999999995
11
5.9939999999999998
21
-4.2789999999999999
0
LINE
8
BLACK
6
CONTINUOUS
10
5.9939999999999998
20
-4.2789999999999999
11
6.0140000000000002
21
-4.2789999999999999
0
LINE
8
BLACK
6
CONTINUOUS
10
6.0140000000000002
20
-4.2789999999999999
11
6.0140000000000002
21
-4.2989999999999995
0
LINE
8
BLACK
6
CONTINUOUS
10
6.1139999999999999
20
-4.2989999999999995
11
6.0939999999999994
21
-4.2989999999999995
0
LINE
8
BLACK
6
CONTINUOUS
10
6.0939999999999994
20
-4.2989999999999995
11
6.0939999999999994
21
-4.2789999999999999
0
LINE
8
BLACK
6
CONTINUOUS
10
6.0939999999999994
20
-4.2789999999999999
11
6.1139999999999999
21
-4.2789999999999999
0
LINE
8
BLACK
6
CONTINUOUS
10
6.1139999999999999
20
-4.2789999999999999
11
6.1139999999999999
21
-4.2989999999999995
0
LINE
8
BLACK
6
CONTINUOUS
10
6.2050148425196845
20
-4.264989842519685
11
6.2055372440944883
21
-4.265027007874016
0
LINE
8
BLACK
6
CONTINUOUS
10
6.2055372440944883
20
-4.265027007874016
11
6.2098705511811021
21
-4.2671937007874012
0
LINE
8
BLACK
6
CONTINUOUS
10
6.2098705511811021
20
-4.2671937007874012
11
6.2101131102362199
21
-4.2674733858267713
0
LINE
8
BLACK
6
CONTINUOUS
10
6.2101131102362199
20
-4.2674733858267713
11
6.2104552755905509
21
-4.2676151181102364
0
LINE
8
BLACK
6
CONTINUOUS
10
6.2104552755905509
20
-4.2676151181102364
11
6.212621968503937
21
-4.2697817716535429
0
LINE
8
BLACK
6
CONTINUOUS
10
6.212621968503937
20
-4.2697817716535429
11
6.2127636614173225
21
-4.2701238976377951
0
LINE
8
BLACK
6
CONTINUOUS
10
6.2127636614173225
20
-4.2701238976377951
11
6.2130434645669288
21
-4.2703665748031492
0
LINE
8
BLACK
6
CONTINUOUS
10
6.2130434645669288
20
-4.2703665748031492
11
6.2152100787401574
21
-4.2746999212598427
0
LINE
8
BLACK
6
CONTINUOUS
10
6.2152100787401574
20
-4.2746999212598427
11
6.2152471653543309
21
-4.275222244094488
0
LINE
8
BLACK
6
CONTINUOUS
10
6.2152471653543309
20
-4.275222244094488
11
6.2154476377952754
21
-4.2757061417322832
0
LINE
8
BLACK
6
CONTINUOUS
10
6.2154476377952754
20
-4.2757061417322832
11
6.2154476377952754
21
-4.2887061417322832
0
LINE
8
BLACK
6
CONTINUOUS
10
6.2154476377952754
20
-4.2887061417322832
11
6.2152472047244096
21
-4.2891899212598421
0
LINE
8
BLACK
6
CONTINUOUS
10
6.2152472047244096
20
-4.2891899212598421
11
6.2152101181102362
21
-4.2897123622047246
0
LINE
8
BLACK
6
CONTINUOUS
10
6.2152101181102362
20
-4.2897123622047246
11
6.2130434645669288
21
-4.2940456692913385
0
LINE
8
BLACK
6
CONTINUOUS
10
6.2130434645669288
20
-4.2940456692913385
11
6.2127636614173225
21
-4.2942883070866138
0
LINE
8
BLACK
6
CONTINUOUS
10
6.2127636614173225
20
-4.2942883070866138
11
6.212621968503937
21
-4.294630433070866
0
LINE
8
BLACK
6
CONTINUOUS
10
6.212621968503937
20
-4.294630433070866
11
6.2104552755905509
21
-4.2967971259842521
0
LINE
8
BLACK
6
CONTINUOUS
10
6.2104552755905509
20
-4.2967971259842521
11
6.2088642913385828
21
-4.2974561417322832
0
LINE
8
BLACK
6
CONTINUOUS
10
6.2088642913385828
20
-4.2974561417322832
11
6.2072733070866137
21
-4.2967971259842521
0
LINE
8
BLACK
6
CONTINUOUS
10
6.2072733070866137
20
-4.2967971259842521
11
6.2066142913385827
21
-4.2952061417322831
0
LINE
8
BLACK
6
CONTINUOUS
10
6.2066142913385827
20
-4.2952061417322831
11
6.2072733070866137
21
-4.293615157480315
0
LINE
8
BLACK
6
CONTINUOUS
10
6.2072733070866137
20
-4.293615157480315
11
6.2091817716535429
21
-4.291706653543307
0
LINE
8
BLACK
6
CONTINUOUS
10
6.2091817716535429
20
-4.291706653543307
11
6.2109476377952753
21
-4.2881749606299211
0
LINE
8
BLACK
6
CONTINUOUS
10
6.2109476377952753
20
-4.2881749606299211
11
6.2109476377952753
21
-4.2762372834645666
0
LINE
8
BLACK
6
CONTINUOUS
10
6.2109476377952753
20
-4.2762372834645666
11
6.2091817716535429
21
-4.2727055511811018
0
LINE
8
BLACK
6
CONTINUOUS
10
6.2091817716535429
20
-4.2727055511811018
11
6.2075314173228344
21
-4.2710552755905509
0
LINE
8
BLACK
6
CONTINUOUS
10
6.2075314173228344
20
-4.2710552755905509
11
6.2039998425196847
21
-4.2692894488188973
0
LINE
8
BLACK
6
CONTINUOUS
10
6.2039998425196847
20
-4.2692894488188973
11
6.1942287795275588
21
-4.2692894488188973
0
LINE
8
BLACK
6
CONTINUOUS
10
6.1942287795275588
20
-4.2692894488188973
11
6.1906971259842516
21
-4.2710552755905509
0
LINE
8
BLACK
6
CONTINUOUS
10
6.1906971259842516
20
-4.2710552755905509
11
6.1890467716535431
21
-4.2727055905511806
0
LINE
8
BLACK
6
CONTINUOUS
10
6.1890467716535431
20
-4.2727055905511806
11
6.1872809842519683
21
-4.2762372834645666
0
LINE
8
BLACK
6
CONTINUOUS
10
6.1872809842519683
20
-4.2762372834645666
11
6.1872809842519683
21
-4.2822061417322832
0
LINE
8
BLACK
6
CONTINUOUS
10
6.1872809842519683
20
-4.2822061417322832
11
6.186977952755905
21
-4.2829376377952757
0
LINE
8
BLACK
6
CONTINUOUS
10
6.186977952755905
20
-4.2829376377952757
11
6.1867242913385825
21
-4.2836877952755907
0
LINE
8
BLACK
6
CONTINUOUS
10
6.1867242913385825
20
-4.2836877952755907
11
6.1866525590551182
21
-4.2837232283464566
0
LINE
8
BLACK
6
CONTINUOUS
10
6.1866525590551182
20
-4.2837232283464566
11
6.1866219685039372
21
-4.2837971259842522
0
LINE
8
BLACK
6
CONTINUOUS
10
6.1866219685039372
20
-4.2837971259842522
11
6.1858903937007872
21
-4.2841001181102358
0
LINE
8
BLACK
6
CONTINUOUS
10
6.1858903937007872
20
-4.2841001181102358
11
6.1851806299212599
21
-4.2844511417322835
0
LINE
8
BLACK
6
CONTINUOUS
10
6.1851806299212599
20
-4.2844511417322835
11
6.1851048818897638
21
-4.2844255118110235
0
LINE
8
BLACK
6
CONTINUOUS
10
6.1851048818897638
20
-4.2844255118110235
11
6.1850309842519682
21
-4.2844561417322833
0
LINE
8
BLACK
6
CONTINUOUS
10
6.1850309842519682
20
-4.2844561417322833
11
6.1842995275590553
21
-4.2841531496062988
0
LINE
8
BLACK
6
CONTINUOUS
10
6.1842995275590553
20
-4.2841531496062988
11
6.1835493307086615
21
-4.2838994488188975
0
LINE
8
BLACK
6
CONTINUOUS
10
6.1835493307086615
20
-4.2838994488188975
11
6.1699476377952758
21
-4.2719979527559051
0
LINE
8
BLACK
6
CONTINUOUS
10
6.1699476377952758
20
-4.2719979527559051
11
6.1699476377952758
21
-4.2952061417322831
0
LINE
8
BLACK
6
CONTINUOUS
10
6.1699476377952758
20
-4.2952061417322831
11
6.1692886220472438
21
-4.2967971259842521
0
LINE
8
BLACK
6
CONTINUOUS
10
6.1692886220472438
20
-4.2967971259842521
11
6.1676976377952757
21
-4.2974561417322832
0
LINE
8
BLACK
6
CONTINUOUS
10
6.1676976377952757
20
-4.2974561417322832
11
6.1661066535433067
21
-4.2967971259842521
0
LINE
8
BLACK
6
CONTINUOUS
10
6.1661066535433067
20
-4.2967971259842521
11
6.1654476377952756
21
-4.2952061417322831
0
LINE
8
BLACK
6
CONTINUOUS
10
6.1654476377952756
20
-4.2952061417322831
11
6.1654476377952756
21
-4.2670394488188972
0
LINE
8
BLACK
6
CONTINUOUS
10
6.1654476377952756
20
-4.2670394488188972
11
6.1657506299212601
21
-4.2663079133858268
0
LINE
8
BLACK
6
CONTINUOUS
10
6.1657506299212601
20
-4.2663079133858268
11
6.1660043307086614
21
-4.2655577952755905
0
LINE
8
BLACK
6
CONTINUOUS
10
6.1660043307086614
20
-4.2655577952755905
11
6.1660760236220469
21
-4.2655223228346459
0
LINE
8
BLACK
6
CONTINUOUS
10
6.1660760236220469
20
-4.2655223228346459
11
6.1661066535433067
21
-4.2654484645669291
0
LINE
8
BLACK
6
CONTINUOUS
10
6.1661066535433067
20
-4.2654484645669291
11
6.1668380314960629
21
-4.2651454724409446
0
LINE
8
BLACK
6
CONTINUOUS
10
6.1668380314960629
20
-4.2651454724409446
11
6.1675479527559052
21
-4.2647944488188978
0
LINE
8
BLACK
6
CONTINUOUS
10
6.1675479527559052
20
-4.2647944488188978
11
6.1676237007874013
21
-4.264820039370079
0
LINE
8
BLACK
6
CONTINUOUS
10
6.1676237007874013
20
-4.264820039370079
11
6.1676976377952757
21
-4.2647894488188971
0
LINE
8
BLACK
6
CONTINUOUS
10
6.1676976377952757
20
-4.2647894488188971
11
6.1684291338582673
21
-4.2650924409448816
0
LINE
8
BLACK
6
CONTINUOUS
10
6.1684291338582673
20
-4.2650924409448816
11
6.1691792913385823
21
-4.2653461417322838
0
LINE
8
BLACK
6
CONTINUOUS
10
6.1691792913385823
20
-4.2653461417322838
11
6.1827809842519681
21
-4.2772475984251965
0
LINE
8
BLACK
6
CONTINUOUS
10
6.1827809842519681
20
-4.2772475984251965
11
6.1827809842519681
21
-4.2757061417322832
0
LINE
8
BLACK
6
CONTINUOUS
10
6.1827809842519681
20
-4.2757061417322832
11
6.182981377952756
21
-4.2752223228346455
0
LINE
8
BLACK
6
CONTINUOUS
10
6.182981377952756
20
-4.2752223228346455
11
6.1830185039370074
21
-4.2746999212598427
0
LINE
8
BLACK
6
CONTINUOUS
10
6.1830185039370074
20
-4.2746999212598427
11
6.1851851574803147
21
-4.2703665748031492
0
LINE
8
BLACK
6
CONTINUOUS
10
6.1851851574803147
20
-4.2703665748031492
11
6.1854649212598423
21
-4.2701238976377951
0
LINE
8
BLACK
6
CONTINUOUS
10
6.1854649212598423
20
-4.2701238976377951
11
6.1856066535433065
21
-4.2697818110236216
0
LINE
8
BLACK
6
CONTINUOUS
10
6.1856066535433065
20
-4.2697818110236216
11
6.1877733070866139
21
-4.2676151574803152
0
LINE
8
BLACK
6
CONTINUOUS
10
6.1877733070866139
20
-4.2676151574803152
11
6.1881154330708661
21
-4.26747342519685
0
LINE
8
BLACK
6
CONTINUOUS
10
6.1881154330708661
20
-4.26747342519685
11
6.1883580708661414
21
-4.2671937007874012
0
LINE
8
BLACK
6
CONTINUOUS
10
6.1883580708661414
20
-4.2671937007874012
11
6.1926914173228349
21
-4.265027007874016
0
LINE
8
BLACK
6
CONTINUOUS
10
6.1926914173228349
20
-4.265027007874016
11
6.1932137401574803
21
-4.2649898818897638
0
LINE
8
BLACK
6
CONTINUOUS
10
6.1932137401574803
20
-4.2649898818897638
11
6.1936976377952755
21
-4.2647894488188971
0
LINE
8
BLACK
6
CONTINUOUS
10
6.1936976377952755
20
-4.2647894488188971
11
6.204530984251968
21
-4.2647894488188971
0
LINE
8
BLACK
6
CONTINUOUS
10
6.204530984251968
20
-4.2647894488188971
11
6.2050148425196845
21
-4.264989842519685
0
LINE
8
BLACK
6
CONTINUOUS
10
5.5156902755905515
20
-4.2395362204724405
11
5.5163492913385825
21
-4.2411272047244095
0
LINE
8
BLACK
6
CONTINUOUS
10
5.5163492913385825
20
-4.2411272047244095
11
5.5163492913385825
21
-4.2757938582677166
0
LINE
8
BLACK
6
CONTINUOUS
10
5.5163492913385825
20
-4.2757938582677166
11
5.5156902755905515
21
-4.2773848425196848
0
LINE
8
BLACK
6
CONTINUOUS
10
5.5156902755905515
20
-4.2773848425196848
11
5.5140992913385825
21
-4.2780438582677167
0
LINE
8
BLACK
6
CONTINUOUS
10
5.5140992913385825
20
-4.2780438582677167
11
5.5125083070866143
21
-4.2773848425196848
0
LINE
8
BLACK
6
CONTINUOUS
10
5.5125083070866143
20
-4.2773848425196848
11
5.5118492913385824
21
-4.2757938582677166
0
LINE
8
BLACK
6
CONTINUOUS
10
5.5118492913385824
20
-4.2757938582677166
11
5.5118492913385824
21
-4.2411272047244095
0
LINE
8
BLACK
6
CONTINUOUS
10
5.5118492913385824
20
-4.2411272047244095
11
5.5125083070866143
21
-4.2395362204724405
0
LINE
8
BLACK
6
CONTINUOUS
10
5.5125083070866143
20
-4.2395362204724405
11
5.5140992913385825
21
-4.2388772047244094
0
LINE
8
BLACK
6
CONTINUOUS
10
5.5140992913385825
20
-4.2388772047244094
11
5.5156902755905515
21
-4.2395362204724405
0
LINE
8
BLACK
6
CONTINUOUS
10
6.197455275590551
20
-4.2112818110236221
11
6.1981142913385829
21
-4.2128727952755902
0
LINE
8
BLACK
6
CONTINUOUS
10
6.1981142913385829
20
-4.2128727952755902
11
6.1981142913385829
21
-4.2475394488188973
0
LINE
8
BLACK
6
CONTINUOUS
10
6.1981142913385829
20
-4.2475394488188973
11
6.197455275590551
21
-4.2491304330708664
0
LINE
8
BLACK
6
CONTINUOUS
10
6.197455275590551
20
-4.2491304330708664
11
6.1958642913385829
21
-4.2497894488188974
0
LINE
8
BLACK
6
CONTINUOUS
10
6.1958642913385829
20
-4.2497894488188974
11
6.1942733070866138
21
-4.2491304330708664
0
LINE
8
BLACK
6
CONTINUOUS
10
6.1942733070866138
20
-4.2491304330708664
11
6.1936142913385828
21
-4.2475394488188973
0
LINE
8
BLACK
6
CONTINUOUS
10
6.1936142913385828
20
-4.2475394488188973
11
6.1936142913385828
21
-4.2128727952755902
0
LINE
8
BLACK
6
CONTINUOUS
10
6.1936142913385828
20
-4.2128727952755902
11
6.1942733070866138
21
-4.2112818110236221
0
LINE
8
BLACK
6
CONTINUOUS
10
6.1942733070866138
20
-4.2112818110236221
11
6.1958642913385829
21
-4.2106227952755901
0
LINE
8
BLACK
6
CONTINUOUS
10
6.1958642913385829
20
-4.2106227952755901
11
6.197455275590551
21
-4.2112818110236221
0
LINE
8
BLACK
6
CONTINUOUS
10
5.609
20
-4.2439999999999998
11
5.5889999999999995
21
-4.2439999999999998
0
LINE
8
BLACK
6
CONTINUOUS
10
5.5889999999999995
20
-4.2439999999999998
11
5.5889999999999995
21
-4.2240000000000002
0
LINE
8
BLACK
6
CONTINUOUS
10
5.5889999999999995
20
-4.2240000000000002
11
5.609
21
-4.2240000000000002
0
LINE
8
BLACK
6
CONTINUOUS
10
5.609
20
-4.2240000000000002
11
5.609
21
-4.2439999999999998
0
LINE
8
BLACK
6
CONTINUOUS
10
5.533023622047244
20
-4.1940361811023621
11
5.533682637795275
21
-4.1956271653543302
0
LINE
8
BLACK
6
CONTINUOUS
10
5.533682637795275
20
-4.1956271653543302
11
5.533682637795275
21
-4.2216271653543309
0
LINE
8
BLACK
6
CONTINUOUS
10
5.533682637795275
20
-4.2216271653543309
11
5.533023622047244
21
-4.223218149606299
0
LINE
8
BLACK
6
CONTINUOUS
10
5.533023622047244
20
-4.223218149606299
11
5.5314326377952758
21
-4.223877165354331
0
LINE
8
BLACK
6
CONTINUOUS
10
5.5314326377952758
20
-4.223877165354331
11
5.5298416535433068
21
-4.223218149606299
0
LINE
8
BLACK
6
CONTINUOUS
10
5.5298416535433068
20
-4.223218149606299
11
5.5291826377952757
21
-4.2216271653543309
0
LINE
8
BLACK
6
CONTINUOUS
10
5.5291826377952757
20
-4.2216271653543309
11
5.5291826377952757
21
-4.2108771653543302
0
LINE
8
BLACK
6
CONTINUOUS
10
5.5291826377952757
20
-4.2108771653543302
11
5.4933638188976373
21
-4.2108771653543302
0
LINE
8
BLACK
6
CONTINUOUS
10
5.4933638188976373
20
-4.2108771653543302
11
5.493680708661417
21
-4.2110884251968503
0
LINE
8
BLACK
6
CONTINUOUS
10
5.493680708661417
20
-4.2110884251968503
11
5.4938095669291336
21
-4.211280866141732
0
LINE
8
BLACK
6
CONTINUOUS
10
5.4938095669291336
20
-4.211280866141732
11
5.4940236220472443
21
-4.2113695275590546
0
LINE
8
BLACK
6
CONTINUOUS
10
5.4940236220472443
20
-4.2113695275590546
11
5.4983569685039368
21
-4.2157028740157481
0
LINE
8
BLACK
6
CONTINUOUS
10
5.4983569685039368
20
-4.2157028740157481
11
5.4984986614173224
21
-4.2160449606299215
0
LINE
8
BLACK
6
CONTINUOUS
10
5.4984986614173224
20
-4.2160449606299215
11
5.4987784645669286
21
-4.2162876377952756
0
LINE
8
BLACK
6
CONTINUOUS
10
5.4987784645669286
20
-4.2162876377952756
11
5.500945118110236
21
-4.2206209448818894
0
LINE
8
BLACK
6
CONTINUOUS
10
5.500945118110236
20
-4.2206209448818894
11
5.5010671653543302
21
-4.2223387007874011
0
LINE
8
BLACK
6
CONTINUOUS
10
5.5010671653543302
20
-4.2223387007874011
11
5.4999388582677167
21
-4.2236396456692908
0
LINE
8
BLACK
6
CONTINUOUS
10
5.4999388582677167
20
-4.2236396456692908
11
5.4982211417322837
21
-4.2237616929133859
0
LINE
8
BLACK
6
CONTINUOUS
10
5.4982211417322837
20
-4.2237616929133859
11
5.496920196850394
21
-4.2226334251968503
0
LINE
8
BLACK
6
CONTINUOUS
10
5.496920196850394
20
-4.2226334251968503
11
5.4949167716535428
21
-4.2186266141732283
0
LINE
8
BLACK
6
CONTINUOUS
10
5.4949167716535428
20
-4.2186266141732283
11
5.4909992125984255
21
-4.2147090551181101
0
LINE
8
BLACK
6
CONTINUOUS
10
5.4909992125984255
20
-4.2147090551181101
11
5.4846845669291335
21
-4.2104992913385821
0
LINE
8
BLACK
6
CONTINUOUS
10
5.4846845669291335
20
-4.2104992913385821
11
5.4845556299212594
21
-4.2103067716535429
0
LINE
8
BLACK
6
CONTINUOUS
10
5.4845556299212594
20
-4.2103067716535429
11
5.4843416535433072
21
-4.2102181496062991
0
LINE
8
BLACK
6
CONTINUOUS
10
5.4843416535433072
20
-4.2102181496062991
11
5.4840909055118106
21
-4.2096127952755902
0
LINE
8
BLACK
6
CONTINUOUS
10
5.4840909055118106
20
-4.2096127952755902
11
5.4837263385826773
21
-4.2090684251968504
0
LINE
8
BLACK
6
CONTINUOUS
10
5.4837263385826773
20
-4.2090684251968504
11
5.4837712598425199
21
-4.2088411811023621
0
LINE
8
BLACK
6
CONTINUOUS
10
5.4837712598425199
20
-4.2088411811023621
11
5.4836826377952752
21
-4.208627165354331
0
LINE
8
BLACK
6
CONTINUOUS
10
5.4836826377952752
20
-4.208627165354331
11
5.4839333464566931
21
-4.2080218503937008
0
LINE
8
BLACK
6
CONTINUOUS
10
5.4839333464566931
20
-4.2080218503937008
11
5.4840605118110233
21
-4.2073790944881893
0
LINE
8
BLACK
6
CONTINUOUS
10
5.4840605118110233
20
-4.2073790944881893
11
5.4842529921259837
21
-4.2072501574803152
0
LINE
8
BLACK
6
CONTINUOUS
10
5.4842529921259837
20
-4.2072501574803152
11
5.4843416535433072
21
-4.207036181102362
0
LINE
8
BLACK
6
CONTINUOUS
10
5.4843416535433072
20
-4.207036181102362
11
5.4849469685039365
21
-4.2067854330708663
0
LINE
8
BLACK
6
CONTINUOUS
10
5.4849469685039365
20
-4.2067854330708663
11
5.4854913779527559
21
-4.2064208661417322
0
LINE
8
BLACK
6
CONTINUOUS
10
5.4854913779527559
20
-4.2064208661417322
11
5.4857185826771655
21
-4.2064657874015747
0
LINE
8
BLACK
6
CONTINUOUS
10
5.4857185826771655
20
-4.2064657874015747
11
5.4859326377952753
21
-4.2063771653543309
0
LINE
8
BLACK
6
CONTINUOUS
10
5.4859326377952753
20
-4.2063771653543309
11
5.5291826377952757
21
-4.2063771653543309
0
LINE
8
BLACK
6
CONTINUOUS
10
5.5291826377952757
20
-4.2063771653543309
11
5.5291826377952757
21
-4.1956271653543302
0
LINE
8
BLACK
6
CONTINUOUS
10
5.5291826377952757
20
-4.1956271653543302
11
5.5298416535433068
21
-4.1940361811023621
0
LINE
8
BLACK
6
CONTINUOUS
10
5.5298416535433068
20
-4.1940361811023621
11
5.5314326377952758
21
-4.193377165354331
0
LINE
8
BLACK
6
CONTINUOUS
10
5.5314326377952758
20
-4.193377165354331
11
5.533023622047244
21
-4.1940361811023621
0
LINE
8
BLACK
6
CONTINUOUS
10
6.1810397637795278
20
-4.1652644488188972
11
6.1814091732283467
21
-4.1652382283464569
0
LINE
8
BLACK
6
CONTINUOUS
10
6.1814091732283467
20
-4.1652382283464569
11
6.1879091732283467
21
-4.1674049212598421
0
LINE
8
BLACK
6
CONTINUOUS
10
6.1879091732283467
20
-4.1674049212598421
11
6.188304803149606
21
-4.1677480314960631
0
LINE
8
BLACK
6
CONTINUOUS
10
6.188304803149606
20
-4.1677480314960631
11
6.1887886220472437
21
-4.1679484645669289
0
LINE
8
BLACK
6
CONTINUOUS
10
6.1887886220472437
20
-4.1679484645669289
11
6.2109476377952753
21
-4.1901074803149605
0
LINE
8
BLACK
6
CONTINUOUS
10
6.2109476377952753
20
-4.1901074803149605
11
6.2109476377952753
21
-4.1673727559055118
0
LINE
8
BLACK
6
CONTINUOUS
10
6.2109476377952753
20
-4.1673727559055118
11
6.2116066535433072
21
-4.1657817716535428
0
LINE
8
BLACK
6
CONTINUOUS
10
6.2116066535433072
20
-4.1657817716535428
11
6.2131976377952753
21
-4.1651227559055117
0
LINE
8
BLACK
6
CONTINUOUS
10
6.2131976377952753
20
-4.1651227559055117
11
6.2147886220472444
21
-4.1657817716535428
0
LINE
8
BLACK
6
CONTINUOUS
10
6.2147886220472444
20
-4.1657817716535428
11
6.2154476377952754
21
-4.1673727559055118
0
LINE
8
BLACK
6
CONTINUOUS
10
6.2154476377952754
20
-4.1673727559055118
11
6.2154476377952754
21
-4.1955394488188977
0
LINE
8
BLACK
6
CONTINUOUS
10
6.2154476377952754
20
-4.1955394488188977
11
6.2147886220472444
21
-4.1971304330708659
0
LINE
8
BLACK
6
CONTINUOUS
10
6.2147886220472444
20
-4.1971304330708659
11
6.2131976377952753
21
-4.1977894488188978
0
LINE
8
BLACK
6
CONTINUOUS
10
6.2131976377952753
20
-4.1977894488188978
11
6.2116066535433072
21
-4.1971304330708659
0
LINE
8
BLACK
6
CONTINUOUS
10
6.2116066535433072
20
-4.1971304330708659
11
6.1859822047244091
21
-4.1715059842519686
0
LINE
8
BLACK
6
CONTINUOUS
10
6.1859822047244091
20
-4.1715059842519686
11
6.1803325196850389
21
-4.1696227559055119
0
LINE
8
BLACK
6
CONTINUOUS
10
6.1803325196850389
20
-4.1696227559055119
11
6.1768954330708663
21
-4.1696227559055119
0
LINE
8
BLACK
6
CONTINUOUS
10
6.1768954330708663
20
-4.1696227559055119
11
6.1733638188976379
21
-4.1713885433070867
0
LINE
8
BLACK
6
CONTINUOUS
10
6.1733638188976379
20
-4.1713885433070867
11
6.1717133858267719
21
-4.1730390157480315
0
LINE
8
BLACK
6
CONTINUOUS
10
6.1717133858267719
20
-4.1730390157480315
11
6.1699476377952758
21
-4.1765705905511812
0
LINE
8
BLACK
6
CONTINUOUS
10
6.1699476377952758
20
-4.1765705905511812
11
6.1699476377952758
21
-4.1863415748031496
0
LINE
8
BLACK
6
CONTINUOUS
10
6.1699476377952758
20
-4.1863415748031496
11
6.1717133858267719
21
-4.1898731496062993
0
LINE
8
BLACK
6
CONTINUOUS
10
6.1717133858267719
20
-4.1898731496062993
11
6.1736219685039373
21
-4.1917817322834647
0
LINE
8
BLACK
6
CONTINUOUS
10
6.1736219685039373
20
-4.1917817322834647
11
6.1742809842519684
21
-4.1933727165354329
0
LINE
8
BLACK
6
CONTINUOUS
10
6.1742809842519684
20
-4.1933727165354329
11
6.1736219685039373
21
-4.1949637401574806
0
LINE
8
BLACK
6
CONTINUOUS
10
6.1736219685039373
20
-4.1949637401574806
11
6.1720309842519683
21
-4.1956227559055117
0
LINE
8
BLACK
6
CONTINUOUS
10
6.1720309842519683
20
-4.1956227559055117
11
6.1704400000000001
21
-4.1949637401574806
0
LINE
8
BLACK
6
CONTINUOUS
10
6.1704400000000001
20
-4.1949637401574806
11
6.168273307086614
21
-4.192797125984252
0
LINE
8
BLACK
6
CONTINUOUS
10
6.168273307086614
20
-4.192797125984252
11
6.1681315748031498
21
-4.1924549606299211
0
LINE
8
BLACK
6
CONTINUOUS
10
6.1681315748031498
20
-4.1924549606299211
11
6.1678518110236222
21
-4.1922123228346457
0
LINE
8
BLACK
6
CONTINUOUS
10
6.1678518110236222
20
-4.1922123228346457
11
6.1656851574803149
21
-4.1878789763779523
0
LINE
8
BLACK
6
CONTINUOUS
10
6.1656851574803149
20
-4.1878789763779523
11
6.1656480314960627
21
-4.1873565354330706
0
LINE
8
BLACK
6
CONTINUOUS
10
6.1656480314960627
20
-4.1873565354330706
11
6.1654476377952756
21
-4.1868727559055117
0
LINE
8
BLACK
6
CONTINUOUS
10
6.1654476377952756
20
-4.1868727559055117
11
6.1654476377952756
21
-4.1760394488188979
0
LINE
8
BLACK
6
CONTINUOUS
10
6.1654476377952756
20
-4.1760394488188979
11
6.1656480314960627
21
-4.1755556299212602
0
LINE
8
BLACK
6
CONTINUOUS
10
6.1656480314960627
20
-4.1755556299212602
11
6.1656851574803149
21
-4.1750332283464564
0
LINE
8
BLACK
6
CONTINUOUS
10
6.1656851574803149
20
-4.1750332283464564
11
6.1678518110236222
21
-4.1706998818897638
0
LINE
8
BLACK
6
CONTINUOUS
10
6.1678518110236222
20
-4.1706998818897638
11
6.1681315748031498
21
-4.1704572047244097
0
LINE
8
BLACK
6
CONTINUOUS
10
6.1681315748031498
20
-4.1704572047244097
11
6.168273307086614
21
-4.1701150787401575
0
LINE
8
BLACK
6
CONTINUOUS
10
6.168273307086614
20
-4.1701150787401575
11
6.1704400000000001
21
-4.1679484645669289
0
LINE
8
BLACK
6
CONTINUOUS
10
6.1704400000000001
20
-4.1679484645669289
11
6.1707820866141727
21
-4.1678067322834647
0
LINE
8
BLACK
6
CONTINUOUS
10
6.1707820866141727
20
-4.1678067322834647
11
6.1710247244094489
21
-4.1675270078740159
0
LINE
8
BLACK
6
CONTINUOUS
10
6.1710247244094489
20
-4.1675270078740159
11
6.1753580314960628
21
-4.1653603149606298
0
LINE
8
BLACK
6
CONTINUOUS
10
6.1753580314960628
20
-4.1653603149606298
11
6.1758803937007869
21
-4.1653231496062988
0
LINE
8
BLACK
6
CONTINUOUS
10
6.1758803937007869
20
-4.1653231496062988
11
6.1763642913385821
21
-4.1651227559055117
0
LINE
8
BLACK
6
CONTINUOUS
10
6.1763642913385821
20
-4.1651227559055117
11
6.1806976377952756
21
-4.1651227559055117
0
LINE
8
BLACK
6
CONTINUOUS
10
6.1806976377952756
20
-4.1651227559055117
11
6.1810397637795278
21
-4.1652644488188972
0
LINE
8
BLACK
6
CONTINUOUS
10
5.6064999999999996
20
-3.9689999999999999
11
5.5865
21
-3.9689999999999999
0
LINE
8
BLACK
6
CONTINUOUS
10
5.5865
20
-3.9689999999999999
11
5.5865
21
-3.9489999999999998
0
LINE
8
BLACK
6
CONTINUOUS
10
5.5865
20
-3.9489999999999998
11
5.6064999999999996
21
-3.9489999999999998
0
LINE
8
BLACK
6
CONTINUOUS
10
5.6064999999999996
20
-3.9489999999999998
11
5.6064999999999996
21
-3.9689999999999999
0
LINE
8
BLACK
6
CONTINUOUS
10
5.7065000000000001
20
-3.9689999999999999
11
5.6864999999999997
21
-3.9689999999999999
0
LINE
8
BLACK
6
CONTINUOUS
10
5.6864999999999997
20
-3.9689999999999999
11
5.6864999999999997
21
-3.9489999999999998
0
LINE
8
BLACK
6
CONTINUOUS
10
5.6864999999999997
20
-3.9489999999999998
11
5.7065000000000001
21
-3.9489999999999998
0
LINE
8
BLACK
6
CONTINUOUS
10
5.7065000000000001
20
-3.9489999999999998
11
5.7065000000000001
21
-3.9689999999999999
0
LINE
8
BLACK
6
CONTINUOUS
10
5.8072886220472437
20
-3.8632818110236218
11
5.8079476377952757
21
-3.8648727952755904
0
LINE
8
BLACK
6
CONTINUOUS
10
5.8079476377952757
20
-3.8648727952755904
11
5.8072886220472437
21
-3.8664637795275589
0
LINE
8
BLACK
6
CONTINUOUS
10
5.8072886220472437
20
-3.8664637795275589
11
5.8056976377952756
21
-3.8671227952755904
0
LINE
8
BLACK
6
CONTINUOUS
10
5.8056976377952756
20
-3.8671227952755904
11
5.7703396062992125
21
-3.8671227952755904
0
LINE
8
BLACK
6
CONTINUOUS
10
5.7703396062992125
20
-3.8671227952755904
11
5.7936491338582679
21
-3.878000590551181
0
LINE
8
BLACK
6
CONTINUOUS
10
5.7936491338582679
20
-3.878000590551181
11
5.7941688188976377
21
-3.8785680314960631
0
LINE
8
BLACK
6
CONTINUOUS
10
5.7941688188976377
20
-3.8785680314960631
11
5.7947365748031494
21
-3.8790879921259842
0
LINE
8
BLACK
6
CONTINUOUS
10
5.7947365748031494
20
-3.8790879921259842
11
5.7947411811023617
21
-3.879193031496063
0
LINE
8
BLACK
6
CONTINUOUS
10
5.7947411811023617
20
-3.879193031496063
11
5.7948121653543305
21
-3.8792705511811021
0
LINE
8
BLACK
6
CONTINUOUS
10
5.7948121653543305
20
-3.8792705511811021
11
5.7947783464566927
21
-3.8800392519685039
0
LINE
8
BLACK
6
CONTINUOUS
10
5.7947783464566927
20
-3.8800392519685039
11
5.7948121653543305
21
-3.8808083858267715
0
LINE
8
BLACK
6
CONTINUOUS
10
5.7948121653543305
20
-3.8808083858267715
11
5.7947411417322829
21
-3.880885905511811
0
LINE
8
BLACK
6
CONTINUOUS
10
5.7947411417322829
20
-3.880885905511811
11
5.7947365354330707
21
-3.8809909842519685
0
LINE
8
BLACK
6
CONTINUOUS
10
5.7947365354330707
20
-3.8809909842519685
11
5.7941688976377952
21
-3.8815107480314959
0
LINE
8
BLACK
6
CONTINUOUS
10
5.7941688976377952
20
-3.8815107480314959
11
5.7936491338582679
21
-3.8820783858267718
0
LINE
8
BLACK
6
CONTINUOUS
10
5.7936491338582679
20
-3.8820783858267718
11
5.7703396456692913
21
-3.8929561417322835
0
LINE
8
BLACK
6
CONTINUOUS
10
5.7703396456692913
20
-3.8929561417322835
11
5.8056976377952756
21
-3.8929561417322835
0
LINE
8
BLACK
6
CONTINUOUS
10
5.8056976377952756
20
-3.8929561417322835
11
5.8072886220472437
21
-3.8936151574803151
0
LINE
8
BLACK
6
CONTINUOUS
10
5.8072886220472437
20
-3.8936151574803151
11
5.8079476377952757
21
-3.8952061417322832
0
LINE
8
BLACK
6
CONTINUOUS
10
5.8079476377952757
20
-3.8952061417322832
11
5.8072886220472437
21
-3.8967971259842518
0
LINE
8
BLACK
6
CONTINUOUS
10
5.8072886220472437
20
-3.8967971259842518
11
5.8056976377952756
21
-3.8974561417322833
0
LINE
8
BLACK
6
CONTINUOUS
10
5.8056976377952756
20
-3.8974561417322833
11
5.760197637795275
21
-3.8974561417322833
0
LINE
8
BLACK
6
CONTINUOUS
10
5.760197637795275
20
-3.8974561417322833
11
5.7598281496062995
21
-3.8973030708661418
0
LINE
8
BLACK
6
CONTINUOUS
10
5.7598281496062995
20
-3.8973030708661418
11
5.7594287007874012
21
-3.8973206692913385
0
LINE
8
BLACK
6
CONTINUOUS
10
5.7594287007874012
20
-3.8973206692913385
11
5.7590637795275592
21
-3.8969864566929133
0
LINE
8
BLACK
6
CONTINUOUS
10
5.7590637795275592
20
-3.8969864566929133
11
5.7586066535433069
21
-3.8967971259842518
0
LINE
8
BLACK
6
CONTINUOUS
10
5.7586066535433069
20
-3.8967971259842518
11
5.7584536220472442
21
-3.8964276771653541
0
LINE
8
BLACK
6
CONTINUOUS
10
5.7584536220472442
20
-3.8964276771653541
11
5.7581587401574801
21
-3.8961576377952754
0
LINE
8
BLACK
6
CONTINUOUS
10
5.7581587401574801
20
-3.8961576377952754
11
5.7581370078740157
21
-3.8956633070866142
0
LINE
8
BLACK
6
CONTINUOUS
10
5.7581370078740157
20
-3.8956633070866142
11
5.7579476377952759
21
-3.8952061417322832
0
LINE
8
BLACK
6
CONTINUOUS
10
5.7579476377952759
20
-3.8952061417322832
11
5.7581006692913386
21
-3.8948366535433072
0
LINE
8
BLACK
6
CONTINUOUS
10
5.7581006692913386
20
-3.8948366535433072
11
5.7580831102362202
21
-3.8944372047244094
0
LINE
8
BLACK
6
CONTINUOUS
10
5.7580831102362202
20
-3.8944372047244094
11
5.758417283464567
21
-3.8940722834645669
0
LINE
8
BLACK
6
CONTINUOUS
10
5.758417283464567
20
-3.8940722834645669
11
5.7586066535433069
21
-3.8936151574803151
0
LINE
8
BLACK
6
CONTINUOUS
10
5.7586066535433069
20
-3.8936151574803151
11
5.7589760629921258
21
-3.8934621259842519
0
LINE
8
BLACK
6
CONTINUOUS
10
5.7589760629921258
20
-3.8934621259842519
11
5.7592461417322838
21
-3.8931672440944882
0
LINE
8
BLACK
6
CONTINUOUS
10
5.7592461417322838
20
-3.8931672440944882
11
5.7873770078740154
21
-3.8800394488188976
0
LINE
8
BLACK
6
CONTINUOUS
10
5.7873770078740154
20
-3.8800394488188976
11
5.7592461417322838
21
-3.8669116929133858
0
LINE
8
BLACK
6
CONTINUOUS
10
5.7592461417322838
20
-3.8669116929133858
11
5.7589760629921258
21
-3.8666167716535433
0
LINE
8
BLACK
6
CONTINUOUS
10
5.7589760629921258
20
-3.8666167716535433
11
5.7586066535433069
21
-3.8664637795275589
0
LINE
8
BLACK
6
CONTINUOUS
10
5.7586066535433069
20
-3.8664637795275589
11
5.758417283464567
21
-3.8660066141732283
0
LINE
8
BLACK
6
CONTINUOUS
10
5.758417283464567
20
-3.8660066141732283
11
5.7580831102362202
21
-3.8656417322834646
0
LINE
8
BLACK
6
CONTINUOUS
10
5.7580831102362202
20
-3.8656417322834646
11
5.7581006692913386
21
-3.865242244094488
0
LINE
8
BLACK
6
CONTINUOUS
10
5.7581006692913386
20
-3.865242244094488
11
5.7579476377952759
21
-3.8648727952755904
0
LINE
8
BLACK
6
CONTINUOUS
10
5.7579476377952759
20
-3.8648727952755904
11
5.7581370078740157
21
-3.864415590551181
0
LINE
8
BLACK
6
CONTINUOUS
10
5.7581370078740157
20
-3.864415590551181
11
5.7581587401574801
21
-3.8639212992125982
0
LINE
8
BLACK
6
CONTINUOUS
10
5.7581587401574801
20
-3.8639212992125982
11
5.7584536220472442
21
-3.8636512204724407
0
LINE
8
BLACK
6
CONTINUOUS
10
5.7584536220472442
20
-3.8636512204724407
11
5.7586066535433069
21
-3.8632818110236218
0
LINE
8
BLACK
6
CONTINUOUS
10
5.7586066535433069
20
-3.8632818110236218
11
5.7590637795275592
21
-3.8630924409448819
0
LINE
8
BLACK
6
CONTINUOUS
10
5.7590637795275592
20
-3.8630924409448819
11
5.7594287007874012
21
-3.8627582677165355
0
LINE
8
BLACK
6
CONTINUOUS
10
5.7594287007874012
20
-3.8627582677165355
11
5.7598281496062995
21
-3.8627758267716534
0
LINE
8
BLACK
6
CONTINUOUS
10
5.7598281496062995
20
-3.8627758267716534
11
5.760197637795275
21
-3.8626227952755903
0
LINE
8
BLACK
6
CONTINUOUS
10
5.760197637795275
20
-3.8626227952755903
11
5.8056976377952756
21
-3.8626227952755903
0
LINE
8
BLACK
6
CONTINUOUS
10
5.8056976377952756
20
-3.8626227952755903
11
5.8072886220472437
21
-3.8632818110236218
0
LINE
8
BLACK
6
CONTINUOUS
10
5.6064999999999996
20
-3.8689999999999998
11
5.5865
21
-3.8689999999999998
0
LINE
8
BLACK
6
CONTINUOUS
10
5.5865
20
-3.8689999999999998
11
5.5865
21
-3.8489999999999998
0
LINE
8
BLACK
6
CONTINUOUS
10
5.5865
20
-3.8489999999999998
11
5.6064999999999996
21
-3.8489999999999998
0
LINE
8
BLACK
6
CONTINUOUS
10
5.6064999999999996
20
-3.8489999999999998
11
5.6064999999999996
21
-3.8689999999999998
0
LINE
8
BLACK
6
CONTINUOUS
10
5.7065000000000001
20
-3.8689999999999998
11
5.6864999999999997
21
-3.8689999999999998
0
LINE
8
BLACK
6
CONTINUOUS
10
5.6864999999999997
20
-3.8689999999999998
11
5.6864999999999997
21
-3.8489999999999998
0
LINE
8
BLACK
6
CONTINUOUS
10
5.6864999999999997
20
-3.8489999999999998
11
5.7065000000000001
21
-3.8489999999999998
0
LINE
8
BLACK
6
CONTINUOUS
10
5.7065000000000001
20
-3.8489999999999998
11
5.7065000000000001
21
-3.8689999999999998
0
LINE
8
BLACK
6
CONTINUOUS
10
5.8067038582677162
20
-3.8173603543307086
11
5.8078321653543306
21
-3.8186612992125983
0
LINE
8
BLACK
6
CONTINUOUS
10
5.8078321653543306
20
-3.8186612992125983
11
5.8077100787401577
21
-3.8203790157480313
0
LINE
8
BLACK
6
CONTINUOUS
10
5.8077100787401577
20
-3.8203790157480313
11
5.806409133858268
21
-3.8215073228346457
0
LINE
8
BLACK
6
CONTINUOUS
10
5.806409133858268
20
-3.8215073228346457
11
5.7949476377952758
21
-3.8253277952755904
0
LINE
8
BLACK
6
CONTINUOUS
10
5.7949476377952758
20
-3.8253277952755904
11
5.7949476377952758
21
-3.8437511023622046
0
LINE
8
BLACK
6
CONTINUOUS
10
5.7949476377952758
20
-3.8437511023622046
11
5.8064091732283467
21
-3.8475716141732281
0
LINE
8
BLACK
6
CONTINUOUS
10
5.8064091732283467
20
-3.8475716141732281
11
5.8077101181102364
21
-3.8486999212598425
0
LINE
8
BLACK
6
CONTINUOUS
10
5.8077101181102364
20
-3.8486999212598425
11
5.8078322047244093
21
-3.8504176771653542
0
LINE
8
BLACK
6
CONTINUOUS
10
5.8078322047244093
20
-3.8504176771653542
11
5.8067038582677162
21
-3.8517185826771652
0
LINE
8
BLACK
6
CONTINUOUS
10
5.8067038582677162
20
-3.8517185826771652
11
5.8049861417322832
21
-3.8518406692913385
0
LINE
8
BLACK
6
CONTINUOUS
10
5.8049861417322832
20
-3.8518406692913385
11
5.7594861417322836
21
-3.8366740157480312
0
LINE
8
BLACK
6
CONTINUOUS
10
5.7594861417322836
20
-3.8366740157480312
11
5.7593590944881887
21
-3.8365638188976376
0
LINE
8
BLACK
6
CONTINUOUS
10
5.7593590944881887
20
-3.8365638188976376
11
5.7591914173228345
21
-3.8365519291338583
0
LINE
8
BLACK
6
CONTINUOUS
10
5.7591914173228345
20
-3.8365519291338583
11
5.75872405511811
21
-3.836013031496063
0
LINE
8
BLACK
6
CONTINUOUS
10
5.75872405511811
20
-3.836013031496063
11
5.7581851968503939
21
-3.8355457086614173
0
LINE
8
BLACK
6
CONTINUOUS
10
5.7581851968503939
20
-3.8355457086614173
11
5.7581732677165354
21
-3.8353779921259843
0
LINE
8
BLACK
6
CONTINUOUS
10
5.7581732677165354
20
-3.8353779921259843
11
5.7580631102362201
21
-3.8352509842519682
0
LINE
8
BLACK
6
CONTINUOUS
10
5.7580631102362201
20
-3.8352509842519682
11
5.7581136614173225
21
-3.8345394881889763
0
LINE
8
BLACK
6
CONTINUOUS
10
5.7581136614173225
20
-3.8345394881889763
11
5.7580631102362201
21
-3.8338279921259844
0
LINE
8
BLACK
6
CONTINUOUS
10
5.7580631102362201
20
-3.8338279921259844
11
5.7581732677165354
21
-3.8337009448818895
0
LINE
8
BLACK
6
CONTINUOUS
10
5.7581732677165354
20
-3.8337009448818895
11
5.7581851968503939
21
-3.8335332677165352
0
LINE
8
BLACK
6
CONTINUOUS
10
5.7581851968503939
20
-3.8335332677165352
11
5.75872405511811
21
-3.8330659055118108
0
LINE
8
BLACK
6
CONTINUOUS
10
5.75872405511811
20
-3.8330659055118108
11
5.7591914173228345
21
-3.8325270472440942
0
LINE
8
BLACK
6
CONTINUOUS
10
5.7591914173228345
20
-3.8325270472440942
11
5.7593590944881887
21
-3.8325151181102362
0
LINE
8
BLACK
6
CONTINUOUS
10
5.7593590944881887
20
-3.8325151181102362
11
5.7594861417322836
21
-3.8324049606299213
0
LINE
8
BLACK
6
CONTINUOUS
10
5.7594861417322836
20
-3.8324049606299213
11
5.8049861417322832
21
-3.8172382677165353
0
LINE
8
BLACK
6
CONTINUOUS
10
5.8049861417322832
20
-3.8172382677165353
11
5.8067038582677162
21
-3.8173603543307086
0
LINE
8
BLACK
6
CONTINUOUS
10
5.7673126771653545
20
-3.8345394488188975
11
5.7904476377952756
21
-3.8422511023622046
0
LINE
8
BLACK
6
CONTINUOUS
10
5.7904476377952756
20
-3.8422511023622046
11
5.7904476377952756
21
-3.8268277952755905
0
LINE
8
BLACK
6
CONTINUOUS
10
5.7904476377952756
20
-3.8268277952755905
11
5.7673126771653545
21
-3.8345394488188975
0
LINE
8
BLACK
6
CONTINUOUS
10
5.7886277952755902
20
-3.7782319291338582
11
5.7889099999999996
21
-3.7781899606299212
0
LINE
8
BLACK
6
CONTINUOUS
10
5.7889099999999996
20
-3.7781899606299212
11
5.7975766929133856
21
-3.7803566535433069
0
LINE
8
BLACK
6
CONTINUOUS
10
5.7975766929133856
20
-3.7803566535433069
11
5.7977821259842521
21
-3.7805088582677167
0
LINE
8
BLACK
6
CONTINUOUS
10
5.7977821259842521
20
-3.7805088582677167
11
5.7980372047244098
21
-3.7805270078740159
0
LINE
8
BLACK
6
CONTINUOUS
10
5.7980372047244098
20
-3.7805270078740159
11
5.8023705511811023
21
-3.7826937007874015
0
LINE
8
BLACK
6
CONTINUOUS
10
5.8023705511811023
20
-3.7826937007874015
11
5.8026131102362202
21
-3.7829733858267716
0
LINE
8
BLACK
6
CONTINUOUS
10
5.8026131102362202
20
-3.7829733858267716
11
5.8029552755905511
21
-3.7831151181102363
0
LINE
8
BLACK
6
CONTINUOUS
10
5.8029552755905511
20
-3.7831151181102363
11
5.8051219685039372
21
-3.7852817716535432
0
LINE
8
BLACK
6
CONTINUOUS
10
5.8051219685039372
20
-3.7852817716535432
11
5.8052636614173228
21
-3.7856238976377954
0
LINE
8
BLACK
6
CONTINUOUS
10
5.8052636614173228
20
-3.7856238976377954
11
5.805543464566929
21
-3.7858665748031495
0
LINE
8
BLACK
6
CONTINUOUS
10
5.805543464566929
20
-3.7858665748031495
11
5.8077100787401577
21
-3.7901999212598425
0
LINE
8
BLACK
6
CONTINUOUS
10
5.8077100787401577
20
-3.7901999212598425
11
5.8077471653543302
21
-3.7907222440944883
0
LINE
8
BLACK
6
CONTINUOUS
10
5.8077471653543302
20
-3.7907222440944883
11
5.8079476377952757
21
-3.7912061417322835
0
LINE
8
BLACK
6
CONTINUOUS
10
5.8079476377952757
20
-3.7912061417322835
11
5.8079476377952757
21
-3.7955394881889761
0
LINE
8
BLACK
6
CONTINUOUS
10
5.8079476377952757
20
-3.7955394881889761
11
5.807747204724409
21
-3.7960232677165355
0
LINE
8
BLACK
6
CONTINUOUS
10
5.807747204724409
20
-3.7960232677165355
11
5.8077101181102364
21
-3.7965457086614172
0
LINE
8
BLACK
6
CONTINUOUS
10
5.8077101181102364
20
-3.7965457086614172
11
5.805543464566929
21
-3.8008790157480314
0
LINE
8
BLACK
6
CONTINUOUS
10
5.805543464566929
20
-3.8008790157480314
11
5.8052636614173228
21
-3.8011216535433072
0
LINE
8
BLACK
6
CONTINUOUS
10
5.8052636614173228
20
-3.8011216535433072
11
5.8051219685039372
21
-3.801463779527559
0
LINE
8
BLACK
6
CONTINUOUS
10
5.8051219685039372
20
-3.801463779527559
11
5.8029552755905511
21
-3.8036304724409447
0
LINE
8
BLACK
6
CONTINUOUS
10
5.8029552755905511
20
-3.8036304724409447
11
5.8026131496062989
21
-3.8037721653543306
0
LINE
8
BLACK
6
CONTINUOUS
10
5.8026131496062989
20
-3.8037721653543306
11
5.8023705511811023
21
-3.8040519291338581
0
LINE
8
BLACK
6
CONTINUOUS
10
5.8023705511811023
20
-3.8040519291338581
11
5.7980372047244098
21
-3.8062186220472438
0
LINE
8
BLACK
6
CONTINUOUS
10
5.7980372047244098
20
-3.8062186220472438
11
5.7977821259842521
21
-3.8062367322834643
0
LINE
8
BLACK
6
CONTINUOUS
10
5.7977821259842521
20
-3.8062367322834643
11
5.7975766929133856
21
-3.8063889763779528
0
LINE
8
BLACK
6
CONTINUOUS
10
5.7975766929133856
20
-3.8063889763779528
11
5.7889099999999996
21
-3.8085556299212597
0
LINE
8
BLACK
6
CONTINUOUS
10
5.7889099999999996
20
-3.8085556299212597
11
5.7886277952755902
21
-3.808513622047244
0
LINE
8
BLACK
6
CONTINUOUS
10
5.7886277952755902
20
-3.808513622047244
11
5.7883642913385822
21
-3.8086227952755904
0
LINE
8
BLACK
6
CONTINUOUS
10
5.7883642913385822
20
-3.8086227952755904
11
5.7775309842519684
21
-3.8086227952755904
0
LINE
8
BLACK
6
CONTINUOUS
10
5.7775309842519684
20
-3.8086227952755904
11
5.7772674409448816
21
-3.808513622047244
0
LINE
8
BLACK
6
CONTINUOUS
10
5.7772674409448816
20
-3.808513622047244
11
5.7769852755905511
21
-3.8085556299212597
0
LINE
8
BLACK
6
CONTINUOUS
10
5.7769852755905511
20
-3.8085556299212597
11
5.768318582677165
21
-3.8063889763779528
0
LINE
8
BLACK
6
CONTINUOUS
10
5.768318582677165
20
-3.8063889763779528
11
5.7681131102362206
21
-3.8062367322834643
0
LINE
8
BLACK
6
CONTINUOUS
10
5.7681131102362206
20
-3.8062367322834643
11
5.7678580708661418
21
-3.8062186220472438
0
LINE
8
BLACK
6
CONTINUOUS
10
5.7678580708661418
20
-3.8062186220472438
11
5.763524763779527
21
-3.8040519685039369
0
LINE
8
BLACK
6
CONTINUOUS
10
5.763524763779527
20
-3.8040519685039369
11
5.763282086614173
21
-3.8037721653543306
0
LINE
8
BLACK
6
CONTINUOUS
10
5.763282086614173
20
-3.8037721653543306
11
5.7629399999999995
21
-3.8036304724409447
0
LINE
8
BLACK
6
CONTINUOUS
10
5.7629399999999995
20
-3.8036304724409447
11
5.7607733070866143
21
-3.801463779527559
0
LINE
8
BLACK
6
CONTINUOUS
10
5.7607733070866143
20
-3.801463779527559
11
5.7606315748031491
21
-3.8011216535433072
0
LINE
8
BLACK
6
CONTINUOUS
10
5.7606315748031491
20
-3.8011216535433072
11
5.7603518503937003
21
-3.8008790551181102
0
LINE
8
BLACK
6
CONTINUOUS
10
5.7603518503937003
20
-3.8008790551181102
11
5.7581851574803151
21
-3.7965457086614172
0
LINE
8
BLACK
6
CONTINUOUS
10
5.7581851574803151
20
-3.7965457086614172
11
5.7581480314960629
21
-3.7960232677165355
0
LINE
8
BLACK
6
CONTINUOUS
10
5.7581480314960629
20
-3.7960232677165355
11
5.7579476377952759
21
-3.7955394881889761
0
LINE
8
BLACK
6
CONTINUOUS
10
5.7579476377952759
20
-3.7955394881889761
11
5.7579476377952759
21
-3.7912061417322835
0
LINE
8
BLACK
6
CONTINUOUS
10
5.7579476377952759
20
-3.7912061417322835
11
5.7581480314960629
21
-3.7907223228346454
0
LINE
8
BLACK
6
CONTINUOUS
10
5.7581480314960629
20
-3.7907223228346454
11
5.7581851574803151
21
-3.7901999212598425
0
LINE
8
BLACK
6
CONTINUOUS
10
5.7581851574803151
20
-3.7901999212598425
11
5.7603518110236216
21
-3.7858665748031495
0
LINE
8
BLACK
6
CONTINUOUS
10
5.7603518110236216
20
-3.7858665748031495
11
5.7606315748031491
21
-3.7856238976377954
0
LINE
8
BLACK
6
CONTINUOUS
10
5.7606315748031491
20
-3.7856238976377954
11
5.7607733070866143
21
-3.7852817716535432
0
LINE
8
BLACK
6
CONTINUOUS
10
5.7607733070866143
20
-3.7852817716535432
11
5.7629399999999995
21
-3.783115157480315
0
LINE
8
BLACK
6
CONTINUOUS
10
5.7629399999999995
20
-3.783115157480315
11
5.763282086614173
21
-3.7829734251968503
0
LINE
8
BLACK
6
CONTINUOUS
10
5.763282086614173
20
-3.7829734251968503
11
5.763524763779527
21
-3.7826936614173228
0
LINE
8
BLACK
6
CONTINUOUS
10
5.763524763779527
20
-3.7826936614173228
11
5.7678580708661418
21
-3.7805270078740159
0
LINE
8
BLACK
6
CONTINUOUS
10
5.7678580708661418
20
-3.7805270078740159
11
5.7681131102362206
21
-3.7805088582677167
0
LINE
8
BLACK
6
CONTINUOUS
10
5.7681131102362206
20
-3.7805088582677167
11
5.768318582677165
21
-3.7803566535433069
0
LINE
8
BLACK
6
CONTINUOUS
10
5.768318582677165
20
-3.7803566535433069
11
5.7769852755905511
21
-3.7781899606299212
0
LINE
8
BLACK
6
CONTINUOUS
10
5.7769852755905511
20
-3.7781899606299212
11
5.7772674409448816
21
-3.7782319291338582
0
LINE
8
BLACK
6
CONTINUOUS
10
5.7772674409448816
20
-3.7782319291338582
11
5.7775309842519684
21
-3.7781227952755905
0
LINE
8
BLACK
6
CONTINUOUS
10
5.7775309842519684
20
-3.7781227952755905
11
5.7883642913385822
21
-3.7781227952755905
0
LINE
8
BLACK
6
CONTINUOUS
10
5.7883642913385822
20
-3.7781227952755905
11
5.7886277952755902
21
-3.7782319291338582
0
LINE
8
BLACK
6
CONTINUOUS
10
5.7696495275590554
20
-3.7846624015748032
11
5.7658637795275594
21
-3.7865553149606299
0
LINE
8
BLACK
6
CONTINUOUS
10
5.7658637795275594
20
-3.7865553149606299
11
5.7642133858267712
21
-3.7882057086614171
0
LINE
8
BLACK
6
CONTINUOUS
10
5.7642133858267712
20
-3.7882057086614171
11
5.7624476377952751
21
-3.7917372834645668
0
LINE
8
BLACK
6
CONTINUOUS
10
5.7624476377952751
20
-3.7917372834645668
11
5.7624476377952751
21
-3.7950083070866141
0
LINE
8
BLACK
6
CONTINUOUS
10
5.7624476377952751
20
-3.7950083070866141
11
5.7642135039370075
21
-3.7985400393700788
0
LINE
8
BLACK
6
CONTINUOUS
10
5.7642135039370075
20
-3.7985400393700788
11
5.7658637401574806
21
-3.800190275590551
0
LINE
8
BLACK
6
CONTINUOUS
10
5.7658637401574806
20
-3.800190275590551
11
5.7696495275590554
21
-3.802083149606299
0
LINE
8
BLACK
6
CONTINUOUS
10
5.7696495275590554
20
-3.802083149606299
11
5.7778080314960629
21
-3.8041227952755903
0
LINE
8
BLACK
6
CONTINUOUS
10
5.7778080314960629
20
-3.8041227952755903
11
5.7880872440944877
21
-3.8041227952755903
0
LINE
8
BLACK
6
CONTINUOUS
10
5.7880872440944877
20
-3.8041227952755903
11
5.7962456692913387
21
-3.8020831889763778
0
LINE
8
BLACK
6
CONTINUOUS
10
5.7962456692913387
20
-3.8020831889763778
11
5.8000315354330709
21
-3.800190275590551
0
LINE
8
BLACK
6
CONTINUOUS
10
5.8000315354330709
20
-3.800190275590551
11
5.8016817716535432
21
-3.79854
0
LINE
8
BLACK
6
CONTINUOUS
10
5.8016817716535432
20
-3.79854
11
5.8034476377952755
21
-3.7950083070866141
0
LINE
8
BLACK
6
CONTINUOUS
10
5.8034476377952755
20
-3.7950083070866141
11
5.8034476377952755
21
-3.7917372834645668
0
LINE
8
BLACK
6
CONTINUOUS
10
5.8034476377952755
20
-3.7917372834645668
11
5.8016817716535432
21
-3.7882055511811021
0
LINE
8
BLACK
6
CONTINUOUS
10
5.8016817716535432
20
-3.7882055511811021
11
5.8000314566929134
21
-3.7865553149606299
0
LINE
8
BLACK
6
CONTINUOUS
10
5.8000314566929134
20
-3.7865553149606299
11
5.7962456299212599
21
-3.7846624015748032
0
LINE
8
BLACK
6
CONTINUOUS
10
5.7962456299212599
20
-3.7846624015748032
11
5.7880872440944877
21
-3.7826227952755906
0
LINE
8
BLACK
6
CONTINUOUS
10
5.7880872440944877
20
-3.7826227952755906
11
5.7778080314960629
21
-3.7826227952755906
0
LINE
8
BLACK
6
CONTINUOUS
10
5.7778080314960629
20
-3.7826227952755906
11
5.7696495275590554
21
-3.7846624015748032
0
LINE
8
BLACK
6
CONTINUOUS
10
5.6064999999999996
20
-3.7690000000000001
11
5.5865
21
-3.7690000000000001
0
LINE
8
BLACK
6
CONTINUOUS
10
5.5865
20
-3.7690000000000001
11
5.5865
21
-3.7490000000000001
0
LINE
8
BLACK
6
CONTINUOUS
10
5.5865
20
-3.7490000000000001
11
5.6064999999999996
21
-3.7490000000000001
0
LINE
8
BLACK
6
CONTINUOUS
10
5.6064999999999996
20
-3.7490000000000001
11
5.6064999999999996
21
-3.7690000000000001
0
LINE
8
BLACK
6
CONTINUOUS
10
5.7065000000000001
20
-3.7690000000000001
11
5.6864999999999997
21
-3.7690000000000001
0
LINE
8
BLACK
6
CONTINUOUS
10
5.6864999999999997
20
-3.7690000000000001
11
5.6864999999999997
21
-3.7490000000000001
0
LINE
8
BLACK
6
CONTINUOUS
10
5.6864999999999997
20
-3.7490000000000001
11
5.7065000000000001
21
-3.7490000000000001
0
LINE
8
BLACK
6
CONTINUOUS
10
5.7065000000000001
20
-3.7490000000000001
11
5.7065000000000001
21
-3.7690000000000001
0
LINE
8
BLACK
6
CONTINUOUS
10
5.7975148425196847
20
-3.7349898425196848
11
5.7980372440944876
21
-3.7350270078740158
0
LINE
8
BLACK
6
CONTINUOUS
10
5.7980372440944876
20
-3.7350270078740158
11
5.8023705511811023
21
-3.7371937007874014
0
LINE
8
BLACK
6
CONTINUOUS
10
5.8023705511811023
20
-3.7371937007874014
11
5.8026131102362202
21
-3.7374733858267715
0
LINE
8
BLACK
6
CONTINUOUS
10
5.8026131102362202
20
-3.7374733858267715
11
5.8029552755905511
21
-3.7376151181102362
0
LINE
8
BLACK
6
CONTINUOUS
10
5.8029552755905511
20
-3.7376151181102362
11
5.8051219685039372
21
-3.7397817716535431
0
LINE
8
BLACK
6
CONTINUOUS
10
5.8051219685039372
20
-3.7397817716535431
11
5.8052636614173228
21
-3.7401238976377953
0
LINE
8
BLACK
6
CONTINUOUS
10
5.8052636614173228
20
-3.7401238976377953
11
5.805543464566929
21
-3.7403665748031494
0
LINE
8
BLACK
6
CONTINUOUS
10
5.805543464566929
20
-3.7403665748031494
11
5.8077100787401577
21
-3.7446999212598424
0
LINE
8
BLACK
6
CONTINUOUS
10
5.8077100787401577
20
-3.7446999212598424
11
5.8077471653543302
21
-3.7452222440944882
0
LINE
8
BLACK
6
CONTINUOUS
10
5.8077471653543302
20
-3.7452222440944882
11
5.8079476377952757
21
-3.7457061417322834
0
LINE
8
BLACK
6
CONTINUOUS
10
5.8079476377952757
20
-3.7457061417322834
11
5.8079476377952757
21
-3.7587061417322833
0
LINE
8
BLACK
6
CONTINUOUS
10
5.8079476377952757
20
-3.7587061417322833
11
5.807747204724409
21
-3.7591899212598423
0
LINE
8
BLACK
6
CONTINUOUS
10
5.807747204724409
20
-3.7591899212598423
11
5.8077101181102364
21
-3.7597123622047244
0
LINE
8
BLACK
6
CONTINUOUS
10
5.8077101181102364
20
-3.7597123622047244
11
5.805543464566929
21
-3.7640456692913387
0
LINE
8
BLACK
6
CONTINUOUS
10
5.805543464566929
20
-3.7640456692913387
11
5.8052636614173228
21
-3.764288307086614
0
LINE
8
BLACK
6
CONTINUOUS
10
5.8052636614173228
20
-3.764288307086614
11
5.8051219685039372
21
-3.7646304330708662
0
LINE
8
BLACK
6
CONTINUOUS
10
5.8051219685039372
20
-3.7646304330708662
11
5.8029552755905511
21
-3.7667971259842519
0
LINE
8
BLACK
6
CONTINUOUS
10
5.8029552755905511
20
-3.7667971259842519
11
5.8013642913385821
21
-3.7674561417322834
0
LINE
8
BLACK
6
CONTINUOUS
10
5.8013642913385821
20
-3.7674561417322834
11
5.799773307086614
21
-3.7667971259842519
0
LINE
8
BLACK
6
CONTINUOUS
10
5.799773307086614
20
-3.7667971259842519
11
5.7991142913385829
21
-3.7652061417322833
0
LINE
8
BLACK
6
CONTINUOUS
10
5.7991142913385829
20
-3.7652061417322833
11
5.799773307086614
21
-3.7636151574803147
0
LINE
8
BLACK
6
CONTINUOUS
10
5.799773307086614
20
-3.7636151574803147
11
5.8016817716535432
21
-3.7617066535433068
0
LINE
8
BLACK
6
CONTINUOUS
10
5.8016817716535432
20
-3.7617066535433068
11
5.8034476377952755
21
-3.7581749606299213
0
LINE
8
BLACK
6
CONTINUOUS
10
5.8034476377952755
20
-3.7581749606299213
11
5.8034476377952755
21
-3.7462372834645667
0
LINE
8
BLACK
6
CONTINUOUS
10
5.8034476377952755
20
-3.7462372834645667
11
5.8016817716535432
21
-3.7427055511811025
0
LINE
8
BLACK
6
CONTINUOUS
10
5.8016817716535432
20
-3.7427055511811025
11
5.8000314173228347
21
-3.7410552755905511
0
LINE
8
BLACK
6
CONTINUOUS
10
5.8000314173228347
20
-3.7410552755905511
11
5.796499842519685
21
-3.7392894488188975
0
LINE
8
BLACK
6
CONTINUOUS
10
5.796499842519685
20
-3.7392894488188975
11
5.786728779527559
21
-3.7392894488188975
0
LINE
8
BLACK
6
CONTINUOUS
10
5.786728779527559
20
-3.7392894488188975
11
5.7831971259842518
21
-3.7410552755905511
0
LINE
8
BLACK
6
CONTINUOUS
10
5.7831971259842518
20
-3.7410552755905511
11
5.7815467716535434
21
-3.7427055905511812
0
LINE
8
BLACK
6
CONTINUOUS
10
5.7815467716535434
20
-3.7427055905511812
11
5.7797809842519685
21
-3.7462372834645667
0
LINE
8
BLACK
6
CONTINUOUS
10
5.7797809842519685
20
-3.7462372834645667
11
5.7797809842519685
21
-3.7522061417322834
0
LINE
8
BLACK
6
CONTINUOUS
10
5.7797809842519685
20
-3.7522061417322834
11
5.7794779527559053
21
-3.7529376377952754
0
LINE
8
BLACK
6
CONTINUOUS
10
5.7794779527559053
20
-3.7529376377952754
11
5.7792242913385827
21
-3.7536877952755905
0
LINE
8
BLACK
6
CONTINUOUS
10
5.7792242913385827
20
-3.7536877952755905
11
5.7791525590551176
21
-3.7537232283464568
0
LINE
8
BLACK
6
CONTINUOUS
10
5.7791525590551176
20
-3.7537232283464568
11
5.7791219685039366
21
-3.753797125984252
0
LINE
8
BLACK
6
CONTINUOUS
10
5.7791219685039366
20
-3.753797125984252
11
5.7783903937007874
21
-3.754100118110236
0
LINE
8
BLACK
6
CONTINUOUS
10
5.7783903937007874
20
-3.754100118110236
11
5.7776806299212593
21
-3.7544511417322832
0
LINE
8
BLACK
6
CONTINUOUS
10
5.7776806299212593
20
-3.7544511417322832
11
5.7776048818897641
21
-3.7544255118110237
0
LINE
8
BLACK
6
CONTINUOUS
10
5.7776048818897641
20
-3.7544255118110237
11
5.7775309842519684
21
-3.7544561417322835
0
LINE
8
BLACK
6
CONTINUOUS
10
5.7775309842519684
20
-3.7544561417322835
11
5.7767995275590547
21
-3.754153149606299
0
LINE
8
BLACK
6
CONTINUOUS
10
5.7767995275590547
20
-3.754153149606299
11
5.7760493307086609
21
-3.7538994488188977
0
LINE
8
BLACK
6
CONTINUOUS
10
5.7760493307086609
20
-3.7538994488188977
11
5.7624476377952751
21
-3.7419979527559053
0
LINE
8
BLACK
6
CONTINUOUS
10
5.7624476377952751
20
-3.7419979527559053
11
5.7624476377952751
21
-3.7652061417322833
0
LINE
8
BLACK
6
CONTINUOUS
10
5.7624476377952751
20
-3.7652061417322833
11
5.7617886220472441
21
-3.7667971259842519
0
LINE
8
BLACK
6
CONTINUOUS
10
5.7617886220472441
20
-3.7667971259842519
11
5.760197637795275
21
-3.7674561417322834
0
LINE
8
BLACK
6
CONTINUOUS
10
5.760197637795275
20
-3.7674561417322834
11
5.7586066535433069
21
-3.7667971259842519
0
LINE
8
BLACK
6
CONTINUOUS
10
5.7586066535433069
20
-3.7667971259842519
11
5.7579476377952759
21
-3.7652061417322833
0
LINE
8
BLACK
6
CONTINUOUS
10
5.7579476377952759
20
-3.7652061417322833
11
5.7579476377952759
21
-3.7370394488188974
0
LINE
8
BLACK
6
CONTINUOUS
10
5.7579476377952759
20
-3.7370394488188974
11
5.7582506299212595
21
-3.7363079133858266
0
LINE
8
BLACK
6
CONTINUOUS
10
5.7582506299212595
20
-3.7363079133858266
11
5.7585043307086616
21
-3.7355577952755903
0
LINE
8
BLACK
6
CONTINUOUS
10
5.7585043307086616
20
-3.7355577952755903
11
5.7585760236220471
21
-3.7355223228346457
0
LINE
8
BLACK
6
CONTINUOUS
10
5.7585760236220471
20
-3.7355223228346457
11
5.7586066535433069
21
-3.7354484645669292
0
LINE
8
BLACK
6
CONTINUOUS
10
5.7586066535433069
20
-3.7354484645669292
11
5.7593380314960632
21
-3.7351454724409447
0
LINE
8
BLACK
6
CONTINUOUS
10
5.7593380314960632
20
-3.7351454724409447
11
5.7600479527559054
21
-3.7347944488188975
0
LINE
8
BLACK
6
CONTINUOUS
10
5.7600479527559054
20
-3.7347944488188975
11
5.7601237007874015
21
-3.7348200393700788
0
LINE
8
BLACK
6
CONTINUOUS
10
5.7601237007874015
20
-3.7348200393700788
11
5.760197637795275
21
-3.7347894488188977
0
LINE
8
BLACK
6
CONTINUOUS
10
5.760197637795275
20
-3.7347894488188977
11
5.7609291338582675
21
-3.7350924409448818
0
LINE
8
BLACK
6
CONTINUOUS
10
5.7609291338582675
20
-3.7350924409448818
11
5.7616792913385826
21
-3.7353461417322835
0
LINE
8
BLACK
6
CONTINUOUS
10
5.7616792913385826
20
-3.7353461417322835
11
5.7752809842519683
21
-3.7472475984251967
0
LINE
8
BLACK
6
CONTINUOUS
10
5.7752809842519683
20
-3.7472475984251967
11
5.7752809842519683
21
-3.7457061417322834
0
LINE
8
BLACK
6
CONTINUOUS
10
5.7752809842519683
20
-3.7457061417322834
11
5.7754813779527554
21
-3.7452223228346457
0
LINE
8
BLACK
6
CONTINUOUS
10
5.7754813779527554
20
-3.7452223228346457
11
5.7755185039370076
21
-3.7446999212598424
0
LINE
8
BLACK
6
CONTINUOUS
10
5.7755185039370076
20
-3.7446999212598424
11
5.777685157480315
21
-3.7403665748031494
0
LINE
8
BLACK
6
CONTINUOUS
10
5.777685157480315
20
-3.7403665748031494
11
5.7779649212598425
21
-3.7401238976377953
0
LINE
8
BLACK
6
CONTINUOUS
10
5.7779649212598425
20
-3.7401238976377953
11
5.7781066535433068
21
-3.7397818110236218
0
LINE
8
BLACK
6
CONTINUOUS
10
5.7781066535433068
20
-3.7397818110236218
11
5.7802733070866141
21
-3.7376151574803149
0
LINE
8
BLACK
6
CONTINUOUS
10
5.7802733070866141
20
-3.7376151574803149
11
5.7806154330708663
21
-3.7374734251968502
0
LINE
8
BLACK
6
CONTINUOUS
10
5.7806154330708663
20
-3.7374734251968502
11
5.7808580708661417
21
-3.7371937007874014
0
LINE
8
BLACK
6
CONTINUOUS
10
5.7808580708661417
20
-3.7371937007874014
11
5.7851914173228343
21
-3.7350270078740158
0
LINE
8
BLACK
6
CONTINUOUS
10
5.7851914173228343
20
-3.7350270078740158
11
5.7857137401574805
21
-3.7349898818897636
0
LINE
8
BLACK
6
CONTINUOUS
10
5.7857137401574805
20
-3.7349898818897636
11
5.7861976377952757
21
-3.7347894488188977
0
LINE
8
BLACK
6
CONTINUOUS
10
5.7861976377952757
20
-3.7347894488188977
11
5.7970309842519683
21
-3.7347894488188977
0
LINE
8
BLACK
6
CONTINUOUS
10
5.7970309842519683
20
-3.7347894488188977
11
5.7975148425196847
21
-3.7349898425196848
0
LINE
8
BLACK
6
CONTINUOUS
10
5.7899552755905512
20
-3.6812818110236218
11
5.7906142913385823
21
-3.6828727952755904
0
LINE
8
BLACK
6
CONTINUOUS
10
5.7906142913385823
20
-3.6828727952755904
11
5.7906142913385823
21
-3.7175394488188975
0
LINE
8
BLACK
6
CONTINUOUS
10
5.7906142913385823
20
-3.7175394488188975
11
5.7899552755905512
21
-3.7191304330708661
0
LINE
8
BLACK
6
CONTINUOUS
10
5.7899552755905512
20
-3.7191304330708661
11
5.7883642913385822
21
-3.7197894488188976
0
LINE
8
BLACK
6
CONTINUOUS
10
5.7883642913385822
20
-3.7197894488188976
11
5.7867733070866141
21
-3.7191304330708661
0
LINE
8
BLACK
6
CONTINUOUS
10
5.7867733070866141
20
-3.7191304330708661
11
5.7861142913385821
21
-3.7175394488188975
0
LINE
8
BLACK
6
CONTINUOUS
10
5.7861142913385821
20
-3.7175394488188975
11
5.7861142913385821
21
-3.6828727952755904
0
LINE
8
BLACK
6
CONTINUOUS
10
5.7861142913385821
20
-3.6828727952755904
11
5.7867733070866141
21
-3.6812818110236218
0
LINE
8
BLACK
6
CONTINUOUS
10
5.7867733070866141
20
-3.6812818110236218
11
5.7883642913385822
21
-3.6806227952755903
0
LINE
8
BLACK
6
CONTINUOUS
10
5.7883642913385822
20
-3.6806227952755903
11
5.7899552755905512
21
-3.6812818110236218
0
LINE
8
BLACK
6
CONTINUOUS
10
5.7735397637795272
20
-3.6352644488188974
11
5.7739091732283461
21
-3.6352382283464566
0
LINE
8
BLACK
6
CONTINUOUS
10
5.7739091732283461
20
-3.6352382283464566
11
5.780409173228346
21
-3.6374049212598423
0
LINE
8
BLACK
6
CONTINUOUS
10
5.780409173228346
20
-3.6374049212598423
11
5.7808048031496062
21
-3.6377480314960629
0
LINE
8
BLACK
6
CONTINUOUS
10
5.7808048031496062
20
-3.6377480314960629
11
5.7812886220472439
21
-3.6379484645669291
0
LINE
8
BLACK
6
CONTINUOUS
10
5.7812886220472439
20
-3.6379484645669291
11
5.8034476377952755
21
-3.6601074803149607
0
LINE
8
BLACK
6
CONTINUOUS
10
5.8034476377952755
20
-3.6601074803149607
11
5.8034476377952755
21
-3.6373727559055116
0
LINE
8
BLACK
6
CONTINUOUS
10
5.8034476377952755
20
-3.6373727559055116
11
5.8041066535433066
21
-3.6357817716535434
0
LINE
8
BLACK
6
CONTINUOUS
10
5.8041066535433066
20
-3.6357817716535434
11
5.8056976377952756
21
-3.6351227559055119
0
LINE
8
BLACK
6
CONTINUOUS
10
5.8056976377952756
20
-3.6351227559055119
11
5.8072886220472437
21
-3.6357817716535434
0
LINE
8
BLACK
6
CONTINUOUS
10
5.8072886220472437
20
-3.6357817716535434
11
5.8079476377952757
21
-3.6373727559055116
0
LINE
8
BLACK
6
CONTINUOUS
10
5.8079476377952757
20
-3.6373727559055116
11
5.8079476377952757
21
-3.6655394488188975
0
LINE
8
BLACK
6
CONTINUOUS
10
5.8079476377952757
20
-3.6655394488188975
11
5.8072886220472437
21
-3.6671304330708661
0
LINE
8
BLACK
6
CONTINUOUS
10
5.8072886220472437
20
-3.6671304330708661
11
5.8056976377952756
21
-3.6677894488188976
0
LINE
8
BLACK
6
CONTINUOUS
10
5.8056976377952756
20
-3.6677894488188976
11
5.8041066535433066
21
-3.6671304330708661
0
LINE
8
BLACK
6
CONTINUOUS
10
5.8041066535433066
20
-3.6671304330708661
11
5.7784822047244093
21
-3.6415059842519684
0
LINE
8
BLACK
6
CONTINUOUS
10
5.7784822047244093
20
-3.6415059842519684
11
5.7728325196850392
21
-3.6396227559055117
0
LINE
8
BLACK
6
CONTINUOUS
10
5.7728325196850392
20
-3.6396227559055117
11
5.7693954330708657
21
-3.6396227559055117
0
LINE
8
BLACK
6
CONTINUOUS
10
5.7693954330708657
20
-3.6396227559055117
11
5.7658638188976381
21
-3.6413885433070865
0
LINE
8
BLACK
6
CONTINUOUS
10
5.7658638188976381
20
-3.6413885433070865
11
5.7642133858267712
21
-3.6430390157480312
0
LINE
8
BLACK
6
CONTINUOUS
10
5.7642133858267712
20
-3.6430390157480312
11
5.7624476377952751
21
-3.6465705905511809
0
LINE
8
BLACK
6
CONTINUOUS
10
5.7624476377952751
20
-3.6465705905511809
11
5.7624476377952751
21
-3.6563415748031494
0
LINE
8
BLACK
6
CONTINUOUS
10
5.7624476377952751
20
-3.6563415748031494
11
5.7642133858267712
21
-3.6598731496062991
0
LINE
8
BLACK
6
CONTINUOUS
10
5.7642133858267712
20
-3.6598731496062991
11
5.7661219685039367
21
-3.6617817322834645
0
LINE
8
BLACK
6
CONTINUOUS
10
5.7661219685039367
20
-3.6617817322834645
11
5.7667809842519686
21
-3.6633727165354331
0
LINE
8
BLACK
6
CONTINUOUS
10
5.7667809842519686
20
-3.6633727165354331
11
5.7661219685039367
21
-3.6649637401574804
0
LINE
8
BLACK
6
CONTINUOUS
10
5.7661219685039367
20
-3.6649637401574804
11
5.7645309842519685
21
-3.6656227559055119
0
LINE
8
BLACK
6
CONTINUOUS
10
5.7645309842519685
20
-3.6656227559055119
11
5.7629399999999995
21
-3.6649637401574804
0
LINE
8
BLACK
6
CONTINUOUS
10
5.7629399999999995
20
-3.6649637401574804
11
5.7607733070866143
21
-3.6627971259842518
0
LINE
8
BLACK
6
CONTINUOUS
10
5.7607733070866143
20
-3.6627971259842518
11
5.7606315748031491
21
-3.6624549606299213
0
LINE
8
BLACK
6
CONTINUOUS
10
5.7606315748031491
20
-3.6624549606299213
11
5.7603518110236216
21
-3.6622123228346455
0
LINE
8
BLACK
6
CONTINUOUS
10
5.7603518110236216
20
-3.6622123228346455
11
5.7581851574803151
21
-3.6578789763779525
0
LINE
8
BLACK
6
CONTINUOUS
10
5.7581851574803151
20
-3.6578789763779525
11
5.7581480314960629
21
-3.6573565354330708
0
LINE
8
BLACK
6
CONTINUOUS
10
5.7581480314960629
20
-3.6573565354330708
11
5.7579476377952759
21
-3.6568727559055119
0
LINE
8
BLACK
6
CONTINUOUS
10
5.7579476377952759
20
-3.6568727559055119
11
5.7579476377952759
21
-3.6460394488188976
0
LINE
8
BLACK
6
CONTINUOUS
10
5.7579476377952759
20
-3.6460394488188976
11
5.7581480314960629
21
-3.6455556299212599
0
LINE
8
BLACK
6
CONTINUOUS
10
5.7581480314960629
20
-3.6455556299212599
11
5.7581851574803151
21
-3.6450332283464566
0
LINE
8
BLACK
6
CONTINUOUS
10
5.7581851574803151
20
-3.6450332283464566
11
5.7603518110236216
21
-3.6406998818897636
0
LINE
8
BLACK
6
CONTINUOUS
10
5.7603518110236216
20
-3.6406998818897636
11
5.7606315748031491
21
-3.6404572047244095
0
LINE
8
BLACK
6
CONTINUOUS
10
5.7606315748031491
20
-3.6404572047244095
11
5.7607733070866143
21
-3.6401150787401573
0
LINE
8
BLACK
6
CONTINUOUS
10
5.7607733070866143
20
-3.6401150787401573
11
5.7629399999999995
21
-3.6379484645669291
0
LINE
8
BLACK
6
CONTINUOUS
10
5.7629399999999995
20
-3.6379484645669291
11
5.763282086614173
21
-3.6378067322834644
0
LINE
8
BLACK
6
CONTINUOUS
10
5.763282086614173
20
-3.6378067322834644
11
5.7635247244094483
21
-3.6375270078740156
0
LINE
8
BLACK
6
CONTINUOUS
10
5.7635247244094483
20
-3.6375270078740156
11
5.767858031496063
21
-3.6353603149606299
0
LINE
8
BLACK
6
CONTINUOUS
10
5.767858031496063
20
-3.6353603149606299
11
5.7683803937007871
21
-3.635323149606299
0
LINE
8
BLACK
6
CONTINUOUS
10
5.7683803937007871
20
-3.635323149606299
11
5.7688642913385824
21
-3.6351227559055119
0
LINE
8
BLACK
6
CONTINUOUS
10
5.7688642913385824
20
-3.6351227559055119
11
5.7731976377952758
21
-3.6351227559055119
0
LINE
8
BLACK
6
CONTINUOUS
10
5.7731976377952758
20
-3.6351227559055119
11
5.7735397637795272
21
-3.6352644488188974
  0
ENDSEC
  0
EOF
