  0
SECTION
  2
HEADER
  9
$ANGBASE
  50
0.0
  9
$ANGDIR
  70
1
  9
$MEASUREMENT
  70
0
  0
ENDSEC
  0
SECTION
  2
TABLES
  0
TABLE
  2
LTYPE
  70
4
  0
LTYPE
  5
40F
  2
CONTINUOUS
  70
0
  3
Solid line
  72
65
  73
0
  40
0.0
  0
LTYPE
  5
410
  2
DASHDOT
 70
0
  3
Dash Dot ____ _ ____ _
 72
65
 73
4
 40
2.0
 49
1.25
 49
-0.25
 49
0.25
 49
-0.25
  0
LTYPE
  5
411
  2
DASHED
 70
0
  3
Dashed __ __ __ __ __
 72
65
 73
2
 40
0.75
 49
0.5
 49
-0.25
  0
LTYPE
  5
43B
  2
DOTTED
 70
0
  3
Dotted .  .  .  .
 72
65
 73
2
 40
0.2
 49
0.0
 49
-0.2
  0
ENDTAB
  0
TABLE
  2
STYLE
  70
4
  0
STYLE
  2
KICAD
  70
0
  40
0
  41
1
  42
1
  50
0
  71
0
  3
isocp.shx
  0
STYLE
  2
KICADB
  70
0
  40
0
  41
1
  42
1
  50
0
  71
0
  3
isocp.shx
  0
STYLE
  2
KICADI
  70
0
  40
0
  41
1
  42
1
  50
15
  71
0
  3
isocp.shx
  0
STYLE
  2
KICADBI
  70
0
  40
0
  41
1
  42
1
  50
15
  71
0
  3
isocp.shx
  0
ENDTAB
  0
TABLE
  2
LAYER
  70
1
  0
LAYER
  2
BLACK
  70
0
  62
7
  6
CONTINUOUS
  0
ENDTAB
  0
ENDSEC
  0
SECTION
  2
ENTITIES
0
LINE
8
BLACK
6
CONTINUOUS
10
5.7052204724409448
20
-4.5281535433070861
11
5.6658503937007874
21
-4.5281535433070861
0
LINE
8
BLACK
6
CONTINUOUS
10
5.6658503937007874
20
-4.5281535433070861
11
5.6658503937007874
21
-4.4848464566929129
0
LINE
8
BLACK
6
CONTINUOUS
10
5.6658503937007874
20
-4.4848464566929129
11
5.7052204724409448
21
-4.4848464566929129
0
LINE
8
BLACK
6
CONTINUOUS
10
5.7052204724409448
20
-4.4848464566929129
11
5.7052204724409448
21
-4.5281535433070861
0
LINE
8
BLACK
6
CONTINUOUS
10
5.7721496062992124
20
-4.5281535433070861
11
5.732779527559055
21
-4.5281535433070861
0
LINE
8
BLACK
6
CONTINUOUS
10
5.732779527559055
20
-4.5281535433070861
11
5.732779527559055
21
-4.4848464566929129
0
LINE
8
BLACK
6
CONTINUOUS
10
5.732779527559055
20
-4.4848464566929129
11
5.7721496062992124
21
-4.4848464566929129
0
LINE
8
BLACK
6
CONTINUOUS
10
5.7721496062992124
20
-4.4848464566929129
11
5.7721496062992124
21
-4.5281535433070861
0
LINE
8
BLACK
6
CONTINUOUS
10
5.7106535433070862
20
-4.4771496062992124
11
5.667346456692913
21
-4.4771496062992124
0
LINE
8
BLACK
6
CONTINUOUS
10
5.667346456692913
20
-4.4771496062992124
11
5.667346456692913
21
-4.437779527559055
0
LINE
8
BLACK
6
CONTINUOUS
10
5.667346456692913
20
-4.437779527559055
11
5.7106535433070862
21
-4.437779527559055
0
LINE
8
BLACK
6
CONTINUOUS
10
5.7106535433070862
20
-4.437779527559055
11
5.7106535433070862
21
-4.4771496062992124
0
LINE
8
BLACK
6
CONTINUOUS
10
5.8760275590551183
20
-4.4594921259842515
11
5.8169724409448822
21
-4.4594921259842515
0
LINE
8
BLACK
6
CONTINUOUS
10
5.8169724409448822
20
-4.4594921259842515
11
5.8169724409448822
21
-4.4083110236220469
0
LINE
8
BLACK
6
CONTINUOUS
10
5.8169724409448822
20
-4.4083110236220469
11
5.8760275590551183
21
-4.4083110236220469
0
LINE
8
BLACK
6
CONTINUOUS
10
5.8760275590551183
20
-4.4083110236220469
11
5.8760275590551183
21
-4.4594921259842515
0
LINE
8
BLACK
6
CONTINUOUS
10
5.9510275590551176
20
-4.4594921259842515
11
5.8919724409448815
21
-4.4594921259842515
0
LINE
8
BLACK
6
CONTINUOUS
10
5.8919724409448815
20
-4.4594921259842515
11
5.8919724409448815
21
-4.4083110236220469
0
LINE
8
BLACK
6
CONTINUOUS
10
5.8919724409448815
20
-4.4083110236220469
11
5.9510275590551176
21
-4.4083110236220469
0
LINE
8
BLACK
6
CONTINUOUS
10
5.9510275590551176
20
-4.4083110236220469
11
5.9510275590551176
21
-4.4594921259842515
0
LINE
8
BLACK
6
CONTINUOUS
10
5.7960275590551182
20
-4.4319921259842516
11
5.7369724409448821
21
-4.4319921259842516
0
LINE
8
BLACK
6
CONTINUOUS
10
5.7369724409448821
20
-4.4319921259842516
11
5.7369724409448821
21
-4.380811023622047
0
LINE
8
BLACK
6
CONTINUOUS
10
5.7369724409448821
20
-4.380811023622047
11
5.7960275590551182
21
-4.380811023622047
0
LINE
8
BLACK
6
CONTINUOUS
10
5.7960275590551182
20
-4.380811023622047
11
5.7960275590551182
21
-4.4319921259842516
0
LINE
8
BLACK
6
CONTINUOUS
10
5.7106535433070862
20
-4.4102204724409448
11
5.667346456692913
21
-4.4102204724409448
0
LINE
8
BLACK
6
CONTINUOUS
10
5.667346456692913
20
-4.4102204724409448
11
5.667346456692913
21
-4.3708503937007874
0
LINE
8
BLACK
6
CONTINUOUS
10
5.667346456692913
20
-4.3708503937007874
11
5.7106535433070862
21
-4.3708503937007874
0
LINE
8
BLACK
6
CONTINUOUS
10
5.7106535433070862
20
-4.3708503937007874
11
5.7106535433070862
21
-4.4102204724409448
0
LINE
8
BLACK
6
CONTINUOUS
10
5.8760275590551183
20
-4.3846889763779524
11
5.8169724409448822
21
-4.3846889763779524
0
LINE
8
BLACK
6
CONTINUOUS
10
5.8169724409448822
20
-4.3846889763779524
11
5.8169724409448822
21
-4.3335078740157478
0
LINE
8
BLACK
6
CONTINUOUS
10
5.8169724409448822
20
-4.3335078740157478
11
5.8760275590551183
21
-4.3335078740157478
0
LINE
8
BLACK
6
CONTINUOUS
10
5.8760275590551183
20
-4.3335078740157478
11
5.8760275590551183
21
-4.3846889763779524
0
LINE
8
BLACK
6
CONTINUOUS
10
5.9510275590551176
20
-4.3846889763779524
11
5.8919724409448815
21
-4.3846889763779524
0
LINE
8
BLACK
6
CONTINUOUS
10
5.8919724409448815
20
-4.3846889763779524
11
5.8919724409448815
21
-4.3335078740157478
0
LINE
8
BLACK
6
CONTINUOUS
10
5.8919724409448815
20
-4.3335078740157478
11
5.9510275590551176
21
-4.3335078740157478
0
LINE
8
BLACK
6
CONTINUOUS
10
5.9510275590551176
20
-4.3335078740157478
11
5.9510275590551176
21
-4.3846889763779524
0
LINE
8
BLACK
6
CONTINUOUS
10
5.7106535433070862
20
-4.3646496062992126
11
5.667346456692913
21
-4.3646496062992126
0
LINE
8
BLACK
6
CONTINUOUS
10
5.667346456692913
20
-4.3646496062992126
11
5.667346456692913
21
-4.3252795275590552
0
LINE
8
BLACK
6
CONTINUOUS
10
5.667346456692913
20
-4.3252795275590552
11
5.7106535433070862
21
-4.3252795275590552
0
LINE
8
BLACK
6
CONTINUOUS
10
5.7106535433070862
20
-4.3252795275590552
11
5.7106535433070862
21
-4.3646496062992126
0
LINE
8
BLACK
6
CONTINUOUS
10
5.7960275590551182
20
-4.3571889763779525
11
5.7369724409448821
21
-4.3571889763779525
0
LINE
8
BLACK
6
CONTINUOUS
10
5.7369724409448821
20
-4.3571889763779525
11
5.7369724409448821
21
-4.3060078740157479
0
LINE
8
BLACK
6
CONTINUOUS
10
5.7369724409448821
20
-4.3060078740157479
11
5.7960275590551182
21
-4.3060078740157479
0
LINE
8
BLACK
6
CONTINUOUS
10
5.7960275590551182
20
-4.3060078740157479
11
5.7960275590551182
21
-4.3571889763779525
0
LINE
8
BLACK
6
CONTINUOUS
10
5.8317362204724406
20
-4.2862637795275589
11
5.9112637795275589
21
-4.2862637795275589
0
LINE
8
BLACK
6
CONTINUOUS
10
5.9112637795275589
20
-4.2862637795275589
11
5.9112637795275589
21
-4.2665787401574802
0
LINE
8
BLACK
6
CONTINUOUS
10
5.9112637795275589
20
-4.2665787401574802
11
5.9364606299212594
21
-4.2665787401574802
0
LINE
8
BLACK
6
CONTINUOUS
10
5.9364606299212594
20
-4.2665787401574802
11
5.9364606299212594
21
-4.2862637795275589
0
LINE
8
BLACK
6
CONTINUOUS
10
5.9364606299212594
20
-4.2862637795275589
11
5.9364606299212594
21
-4.3114606299212594
0
LINE
8
BLACK
6
CONTINUOUS
10
5.9364606299212594
20
-4.3114606299212594
11
5.80653937007874
21
-4.3114606299212594
0
LINE
8
BLACK
6
CONTINUOUS
10
5.80653937007874
20
-4.3114606299212594
11
5.80653937007874
21
-4.2866574803149602
0
LINE
8
BLACK
6
CONTINUOUS
10
5.80653937007874
20
-4.2866574803149602
11
5.80653937007874
21
-4.2665787401574802
0
LINE
8
BLACK
6
CONTINUOUS
10
5.80653937007874
20
-4.2665787401574802
11
5.8317362204724406
21
-4.2665787401574802
0
LINE
8
BLACK
6
CONTINUOUS
10
5.8317362204724406
20
-4.2665787401574802
11
5.8317362204724406
21
-4.2862637795275589
0
LINE
8
BLACK
6
CONTINUOUS
10
5.7106535433070862
20
-4.297720472440945
11
5.667346456692913
21
-4.297720472440945
0
LINE
8
BLACK
6
CONTINUOUS
10
5.667346456692913
20
-4.297720472440945
11
5.667346456692913
21
-4.2583503937007876
0
LINE
8
BLACK
6
CONTINUOUS
10
5.667346456692913
20
-4.2583503937007876
11
5.7106535433070862
21
-4.2583503937007876
0
LINE
8
BLACK
6
CONTINUOUS
10
5.7106535433070862
20
-4.2583503937007876
11
5.7106535433070862
21
-4.297720472440945
0
LINE
8
BLACK
6
CONTINUOUS
10
5.9364606299212594
20
-4.2063425196850392
11
5.9364606299212594
21
-4.2264212598425193
0
LINE
8
BLACK
6
CONTINUOUS
10
5.9364606299212594
20
-4.2264212598425193
11
5.9112637795275589
21
-4.2264212598425193
0
LINE
8
BLACK
6
CONTINUOUS
10
5.9112637795275589
20
-4.2264212598425193
11
5.9112637795275589
21
-4.2067362204724406
0
LINE
8
BLACK
6
CONTINUOUS
10
5.9112637795275589
20
-4.2067362204724406
11
5.8317362204724406
21
-4.2067362204724406
0
LINE
8
BLACK
6
CONTINUOUS
10
5.8317362204724406
20
-4.2067362204724406
11
5.8317362204724406
21
-4.2264212598425193
0
LINE
8
BLACK
6
CONTINUOUS
10
5.8317362204724406
20
-4.2264212598425193
11
5.80653937007874
21
-4.2264212598425193
0
LINE
8
BLACK
6
CONTINUOUS
10
5.80653937007874
20
-4.2264212598425193
11
5.80653937007874
21
-4.2067362204724406
0
LINE
8
BLACK
6
CONTINUOUS
10
5.80653937007874
20
-4.2067362204724406
11
5.80653937007874
21
-4.18153937007874
0
LINE
8
BLACK
6
CONTINUOUS
10
5.80653937007874
20
-4.18153937007874
11
5.9364606299212594
21
-4.18153937007874
0
LINE
8
BLACK
6
CONTINUOUS
10
5.9364606299212594
20
-4.18153937007874
11
5.9364606299212594
21
-4.2063425196850392
0
LINE
8
BLACK
6
CONTINUOUS
10
5.5887834645669292
20
-4.1598661417322838
11
5.5494133858267718
21
-4.1598661417322838
0
LINE
8
BLACK
6
CONTINUOUS
10
5.5494133858267718
20
-4.1598661417322838
11
5.5494133858267718
21
-4.1047480314960625
0
LINE
8
BLACK
6
CONTINUOUS
10
5.5494133858267718
20
-4.1047480314960625
11
5.5887834645669292
21
-4.1047480314960625
0
LINE
8
BLACK
6
CONTINUOUS
10
5.5887834645669292
20
-4.1047480314960625
11
5.5887834645669292
21
-4.1598661417322838
0
LINE
8
BLACK
6
CONTINUOUS
10
5.6635866141732283
20
-4.1598661417322838
11
5.6242165354330709
21
-4.1598661417322838
0
LINE
8
BLACK
6
CONTINUOUS
10
5.6242165354330709
20
-4.1598661417322838
11
5.6242165354330709
21
-4.1047480314960625
0
LINE
8
BLACK
6
CONTINUOUS
10
5.6242165354330709
20
-4.1047480314960625
11
5.6635866141732283
21
-4.1047480314960625
0
LINE
8
BLACK
6
CONTINUOUS
10
5.6635866141732283
20
-4.1047480314960625
11
5.6635866141732283
21
-4.1598661417322838
0
LINE
8
BLACK
6
CONTINUOUS
10
5.8839999999999995
20
-4.1589999999999998
11
5.8339999999999996
21
-4.1589999999999998
0
LINE
8
BLACK
6
CONTINUOUS
10
5.8339999999999996
20
-4.1589999999999998
11
5.8339999999999996
21
-4.0590000000000002
0
LINE
8
BLACK
6
CONTINUOUS
10
5.8339999999999996
20
-4.0590000000000002
11
5.8839999999999995
21
-4.0590000000000002
0
LINE
8
BLACK
6
CONTINUOUS
10
5.8839999999999995
20
-4.0590000000000002
11
5.8839999999999995
21
-4.1589999999999998
0
LINE
8
BLACK
6
CONTINUOUS
10
6.0465
20
-4.1589999999999998
11
5.9965000000000002
21
-4.1589999999999998
0
LINE
8
BLACK
6
CONTINUOUS
10
5.9965000000000002
20
-4.1589999999999998
11
5.9965000000000002
21
-4.0590000000000002
0
LINE
8
BLACK
6
CONTINUOUS
10
5.9965000000000002
20
-4.0590000000000002
11
6.0465
21
-4.0590000000000002
0
LINE
8
BLACK
6
CONTINUOUS
10
6.0465
20
-4.0590000000000002
11
6.0465
21
-4.1589999999999998
0
LINE
8
BLACK
6
CONTINUOUS
10
5.7346889763779529
20
-4.1585275590551181
11
5.6835078740157483
21
-4.1585275590551181
0
LINE
8
BLACK
6
CONTINUOUS
10
5.6835078740157483
20
-4.1585275590551181
11
5.6835078740157483
21
-4.0994724409448819
0
LINE
8
BLACK
6
CONTINUOUS
10
5.6835078740157483
20
-4.0994724409448819
11
5.7346889763779529
21
-4.0994724409448819
0
LINE
8
BLACK
6
CONTINUOUS
10
5.7346889763779529
20
-4.0994724409448819
11
5.7346889763779529
21
-4.1585275590551181
0
LINE
8
BLACK
6
CONTINUOUS
10
5.809492125984252
20
-4.1585275590551181
11
5.7583110236220474
21
-4.1585275590551181
0
LINE
8
BLACK
6
CONTINUOUS
10
5.7583110236220474
20
-4.1585275590551181
11
5.7583110236220474
21
-4.0994724409448819
0
LINE
8
BLACK
6
CONTINUOUS
10
5.7583110236220474
20
-4.0994724409448819
11
5.809492125984252
21
-4.0994724409448819
0
LINE
8
BLACK
6
CONTINUOUS
10
5.809492125984252
20
-4.0994724409448819
11
5.809492125984252
21
-4.1585275590551181
0
LINE
8
BLACK
6
CONTINUOUS
10
5.6261850393700783
20
-4.0732519685039366
11
5.5868149606299209
21
-4.0732519685039366
0
LINE
8
BLACK
6
CONTINUOUS
10
5.5868149606299209
20
-4.0732519685039366
11
5.5868149606299209
21
-4.0181338582677162
0
LINE
8
BLACK
6
CONTINUOUS
10
5.5868149606299209
20
-4.0181338582677162
11
5.6261850393700783
21
-4.0181338582677162
0
LINE
8
BLACK
6
CONTINUOUS
10
5.6261850393700783
20
-4.0181338582677162
11
5.6261850393700783
21
-4.0732519685039366
0
LINE
8
BLACK
6
CONTINUOUS
10
6.1174645669291339
20
-4.0251417322834646
11
6.0505354330708663
21
-4.0251417322834646
0
LINE
8
BLACK
6
CONTINUOUS
10
6.0505354330708663
20
-4.0251417322834646
11
6.0505354330708663
21
-3.9542755905511808
0
LINE
8
BLACK
6
CONTINUOUS
10
6.0505354330708663
20
-3.9542755905511808
11
6.1174645669291339
21
-3.9542755905511808
0
LINE
8
BLACK
6
CONTINUOUS
10
6.1174645669291339
20
-3.9542755905511808
11
6.1174645669291339
21
-4.0251417322834646
0
LINE
8
BLACK
6
CONTINUOUS
10
6.0009291338582678
20
-4.0231732283464563
11
5.8670708661417326
21
-4.0231732283464563
0
LINE
8
BLACK
6
CONTINUOUS
10
5.8670708661417326
20
-4.0231732283464563
11
5.8670708661417326
21
-3.9483700787401572
0
LINE
8
BLACK
6
CONTINUOUS
10
5.8670708661417326
20
-3.9483700787401572
11
6.0009291338582678
21
-3.9483700787401572
0
LINE
8
BLACK
6
CONTINUOUS
10
6.0009291338582678
20
-3.9483700787401572
11
6.0009291338582678
21
-4.0231732283464563
0
LINE
8
BLACK
6
CONTINUOUS
10
6.0009291338582678
20
-3.8696299212598424
11
5.8670708661417326
21
-3.8696299212598424
0
LINE
8
BLACK
6
CONTINUOUS
10
5.8670708661417326
20
-3.8696299212598424
11
5.8670708661417326
21
-3.7948267716535433
0
LINE
8
BLACK
6
CONTINUOUS
10
5.8670708661417326
20
-3.7948267716535433
11
6.0009291338582678
21
-3.7948267716535433
0
LINE
8
BLACK
6
CONTINUOUS
10
6.0009291338582678
20
-3.7948267716535433
11
6.0009291338582678
21
-3.8696299212598424
0
LINE
8
BLACK
6
CONTINUOUS
10
6.1174645669291339
20
-3.8637244094488188
11
6.0505354330708663
21
-3.8637244094488188
0
LINE
8
BLACK
6
CONTINUOUS
10
6.0505354330708663
20
-3.8637244094488188
11
6.0505354330708663
21
-3.7928582677165354
0
LINE
8
BLACK
6
CONTINUOUS
10
6.0505354330708663
20
-3.7928582677165354
11
6.1174645669291339
21
-3.7928582677165354
0
LINE
8
BLACK
6
CONTINUOUS
10
6.1174645669291339
20
-3.7928582677165354
11
6.1174645669291339
21
-3.8637244094488188
  0
ENDSEC
  0
EOF
