  0
SECTION
  2
HEADER
  9
$ANGBASE
  50
0.0
  9
$ANGDIR
  70
1
  9
$MEASUREMENT
  70
0
  0
ENDSEC
  0
SECTION
  2
TABLES
  0
TABLE
  2
LTYPE
  70
4
  0
LTYPE
  5
40F
  2
CONTINUOUS
  70
0
  3
Solid line
  72
65
  73
0
  40
0.0
  0
LTYPE
  5
410
  2
DASHDOT
 70
0
  3
Dash Dot ____ _ ____ _
 72
65
 73
4
 40
2.0
 49
1.25
 49
-0.25
 49
0.25
 49
-0.25
  0
LTYPE
  5
411
  2
DASHED
 70
0
  3
Dashed __ __ __ __ __
 72
65
 73
2
 40
0.75
 49
0.5
 49
-0.25
  0
LTYPE
  5
43B
  2
DOTTED
 70
0
  3
Dotted .  .  .  .
 72
65
 73
2
 40
0.2
 49
0.0
 49
-0.2
  0
ENDTAB
  0
TABLE
  2
STYLE
  70
4
  0
STYLE
  2
KICAD
  70
0
  40
0
  41
1
  42
1
  50
0
  71
0
  3
isocp.shx
  0
STYLE
  2
KICADB
  70
0
  40
0
  41
1
  42
1
  50
0
  71
0
  3
isocp.shx
  0
STYLE
  2
KICADI
  70
0
  40
0
  41
1
  42
1
  50
15
  71
0
  3
isocp.shx
  0
STYLE
  2
KICADBI
  70
0
  40
0
  41
1
  42
1
  50
15
  71
0
  3
isocp.shx
  0
ENDTAB
  0
TABLE
  2
LAYER
  70
1
  0
LAYER
  2
BLACK
  70
0
  62
7
  6
CONTINUOUS
  0
ENDTAB
  0
ENDSEC
  0
SECTION
  2
ENTITIES
0
LINE
8
BLACK
6
CONTINUOUS
10
6.2364999999999995
20
-3.3430157480314961
11
6.2371959842519686
21
-3.3433040157480316
0
LINE
8
BLACK
6
CONTINUOUS
10
6.2371959842519686
20
-3.3433040157480316
11
6.2374842519685041
21
-3.3439999999999999
0
LINE
8
BLACK
6
CONTINUOUS
10
6.2374842519685041
20
-3.3439999999999999
11
6.2374842519685041
21
-4.9239999999999995
0
LINE
8
BLACK
6
CONTINUOUS
10
6.2374842519685041
20
-4.9239999999999995
11
6.2371959842519686
21
-4.9246959842519686
0
LINE
8
BLACK
6
CONTINUOUS
10
6.2371959842519686
20
-4.9246959842519686
11
6.2364999999999995
21
-4.9249842519685041
0
LINE
8
BLACK
6
CONTINUOUS
10
6.2364999999999995
20
-4.9249842519685041
11
5.4565000000000001
21
-4.9249842519685041
0
LINE
8
BLACK
6
CONTINUOUS
10
5.4565000000000001
20
-4.9249842519685041
11
5.455804015748031
21
-4.9246959842519686
0
LINE
8
BLACK
6
CONTINUOUS
10
5.455804015748031
20
-4.9246959842519686
11
5.4555157480314955
21
-4.9239999999999995
0
LINE
8
BLACK
6
CONTINUOUS
10
5.4555157480314955
20
-4.9239999999999995
11
5.4555157480314955
21
-3.3439999999999999
0
LINE
8
BLACK
6
CONTINUOUS
10
5.4555157480314955
20
-3.3439999999999999
11
5.455804015748031
21
-3.3433040157480316
0
LINE
8
BLACK
6
CONTINUOUS
10
5.455804015748031
20
-3.3433040157480316
11
5.4565000000000001
21
-3.3430157480314961
0
LINE
8
BLACK
6
CONTINUOUS
10
5.4565000000000001
20
-3.3430157480314961
11
6.2364999999999995
21
-3.3430157480314961
0
LINE
8
BLACK
6
CONTINUOUS
10
5.4574842519685038
20
-3.344984251968504
11
5.4574842519685038
21
-4.9230157480314958
0
LINE
8
BLACK
6
CONTINUOUS
10
5.4574842519685038
20
-4.9230157480314958
11
6.2355157480314958
21
-4.9230157480314958
0
LINE
8
BLACK
6
CONTINUOUS
10
6.2355157480314958
20
-4.9230157480314958
11
6.2355157480314958
21
-3.344984251968504
0
LINE
8
BLACK
6
CONTINUOUS
10
6.2355157480314958
20
-3.344984251968504
11
5.4574842519685038
21
-3.344984251968504
  0
ENDSEC
  0
EOF
