  0
SECTION
  2
HEADER
  9
$ANGBASE
  50
0.0
  9
$ANGDIR
  70
1
  9
$MEASUREMENT
  70
0
  0
ENDSEC
  0
SECTION
  2
TABLES
  0
TABLE
  2
LTYPE
  70
4
  0
LTYPE
  5
40F
  2
CONTINUOUS
  70
0
  3
Solid line
  72
65
  73
0
  40
0.0
  0
LTYPE
  5
410
  2
DASHDOT
 70
0
  3
Dash Dot ____ _ ____ _
 72
65
 73
4
 40
2.0
 49
1.25
 49
-0.25
 49
0.25
 49
-0.25
  0
LTYPE
  5
411
  2
DASHED
 70
0
  3
Dashed __ __ __ __ __
 72
65
 73
2
 40
0.75
 49
0.5
 49
-0.25
  0
LTYPE
  5
43B
  2
DOTTED
 70
0
  3
Dotted .  .  .  .
 72
65
 73
2
 40
0.2
 49
0.0
 49
-0.2
  0
ENDTAB
  0
TABLE
  2
STYLE
  70
4
  0
STYLE
  2
KICAD
  70
0
  40
0
  41
1
  42
1
  50
0
  71
0
  3
isocp.shx
  0
STYLE
  2
KICADB
  70
0
  40
0
  41
1
  42
1
  50
0
  71
0
  3
isocp.shx
  0
STYLE
  2
KICADI
  70
0
  40
0
  41
1
  42
1
  50
15
  71
0
  3
isocp.shx
  0
STYLE
  2
KICADBI
  70
0
  40
0
  41
1
  42
1
  50
15
  71
0
  3
isocp.shx
  0
ENDTAB
  0
TABLE
  2
LAYER
  70
1
  0
LAYER
  2
BLACK
  70
0
  62
7
  6
CONTINUOUS
  0
ENDTAB
  0
ENDSEC
  0
SECTION
  2
ENTITIES
0
LINE
8
BLACK
6
CONTINUOUS
10
6.5909793307086613
20
-3.3426080708661416
11
6.5915559055118109
21
-3.3439999999999999
0
LINE
8
BLACK
6
CONTINUOUS
10
6.5915559055118109
20
-3.3439999999999999
11
6.5909793307086613
21
-3.3453919291338581
0
LINE
8
BLACK
6
CONTINUOUS
10
6.5909793307086613
20
-3.3453919291338581
11
6.5895874015748026
21
-3.3459685039370077
0
LINE
8
BLACK
6
CONTINUOUS
10
6.5895874015748026
20
-3.3459685039370077
11
6.5697440157480314
21
-3.3459685039370077
0
LINE
8
BLACK
6
CONTINUOUS
10
6.5697440157480314
20
-3.3459685039370077
11
6.5913335039370073
21
-3.3874415748031494
0
LINE
8
BLACK
6
CONTINUOUS
10
6.5913335039370073
20
-3.3874415748031494
11
6.5914648031496066
21
-3.3889424803149604
0
LINE
8
BLACK
6
CONTINUOUS
10
6.5914648031496066
20
-3.3889424803149604
11
6.5904963779527561
21
-3.3900966141732281
0
LINE
8
BLACK
6
CONTINUOUS
10
6.5904963779527561
20
-3.3900966141732281
11
6.5889955118110235
21
-3.3902279133858269
0
LINE
8
BLACK
6
CONTINUOUS
10
6.5889955118110235
20
-3.3902279133858269
11
6.5878413385826766
21
-3.3892594881889764
0
LINE
8
BLACK
6
CONTINUOUS
10
6.5878413385826766
20
-3.3892594881889764
11
6.5684685039370079
21
-3.3520446062992124
0
LINE
8
BLACK
6
CONTINUOUS
10
6.5684685039370079
20
-3.3520446062992124
11
6.5684685039370079
21
-4.9159553543307082
0
LINE
8
BLACK
6
CONTINUOUS
10
6.5684685039370079
20
-4.9159553543307082
11
6.5878413385826766
21
-4.8787405118110234
0
LINE
8
BLACK
6
CONTINUOUS
10
6.5878413385826766
20
-4.8787405118110234
11
6.5889955118110235
21
-4.8777720866141729
0
LINE
8
BLACK
6
CONTINUOUS
10
6.5889955118110235
20
-4.8777720866141729
11
6.5904963779527561
21
-4.8779033858267713
0
LINE
8
BLACK
6
CONTINUOUS
10
6.5904963779527561
20
-4.8779033858267713
11
6.5914648031496066
21
-4.8790575196850394
0
LINE
8
BLACK
6
CONTINUOUS
10
6.5914648031496066
20
-4.8790575196850394
11
6.5913335039370073
21
-4.8805584251968499
0
LINE
8
BLACK
6
CONTINUOUS
10
6.5913335039370073
20
-4.8805584251968499
11
6.5697440157480314
21
-4.9220314960629921
0
LINE
8
BLACK
6
CONTINUOUS
10
6.5697440157480314
20
-4.9220314960629921
11
6.5895874015748026
21
-4.9220314960629921
0
LINE
8
BLACK
6
CONTINUOUS
10
6.5895874015748026
20
-4.9220314960629921
11
6.5909793307086613
21
-4.9226080708661417
0
LINE
8
BLACK
6
CONTINUOUS
10
6.5909793307086613
20
-4.9226080708661417
11
6.5915559055118109
21
-4.9239999999999995
0
LINE
8
BLACK
6
CONTINUOUS
10
6.5915559055118109
20
-4.9239999999999995
11
6.5909793307086613
21
-4.9253919291338581
0
LINE
8
BLACK
6
CONTINUOUS
10
6.5909793307086613
20
-4.9253919291338581
11
6.5895874015748026
21
-4.9259685039370078
0
LINE
8
BLACK
6
CONTINUOUS
10
6.5895874015748026
20
-4.9259685039370078
11
6.5664999999999996
21
-4.9259685039370078
0
LINE
8
BLACK
6
CONTINUOUS
10
6.5664999999999996
20
-4.9259685039370078
11
6.2384685039370078
21
-4.9259685039370078
0
LINE
8
BLACK
6
CONTINUOUS
10
6.2384685039370078
20
-4.9259685039370078
11
6.2384685039370078
21
-5.0764100000000001
0
LINE
8
BLACK
6
CONTINUOUS
10
6.2384685039370078
20
-5.0764100000000001
11
6.2473901574803152
21
-5.0808708661417326
0
LINE
8
BLACK
6
CONTINUOUS
10
6.2473901574803152
20
-5.0808708661417326
11
6.2476423228346452
21
-5.0810944881889766
0
LINE
8
BLACK
6
CONTINUOUS
10
6.2476423228346452
20
-5.0810944881889766
11
6.2479621653543305
21
-5.081201102362205
0
LINE
8
BLACK
6
CONTINUOUS
10
6.2479621653543305
20
-5.081201102362205
11
6.2486966141732285
21
-5.0820293307086617
0
LINE
8
BLACK
6
CONTINUOUS
10
6.2486966141732285
20
-5.0820293307086617
11
6.249524881889764
21
-5.0827638188976376
0
LINE
8
BLACK
6
CONTINUOUS
10
6.249524881889764
20
-5.0827638188976376
11
6.2496314566929136
21
-5.0830836220472442
0
LINE
8
BLACK
6
CONTINUOUS
10
6.2496314566929136
20
-5.0830836220472442
11
6.2498551181102364
21
-5.0833358267716537
0
LINE
8
BLACK
6
CONTINUOUS
10
6.2498551181102364
20
-5.0833358267716537
11
6.2509619291338581
21
-5.0855494488188979
0
LINE
8
BLACK
6
CONTINUOUS
10
6.2509619291338581
20
-5.0855494488188979
11
6.2520687795275594
21
-5.0833358267716537
0
LINE
8
BLACK
6
CONTINUOUS
10
6.2520687795275594
20
-5.0833358267716537
11
6.2522924015748034
21
-5.0830836220472442
0
LINE
8
BLACK
6
CONTINUOUS
10
6.2522924015748034
20
-5.0830836220472442
11
6.2523990157480309
21
-5.0827638188976376
0
LINE
8
BLACK
6
CONTINUOUS
10
6.2523990157480309
20
-5.0827638188976376
11
6.2532272440944885
21
-5.0820293307086617
0
LINE
8
BLACK
6
CONTINUOUS
10
6.2532272440944885
20
-5.0820293307086617
11
6.2539617322834644
21
-5.081201102362205
0
LINE
8
BLACK
6
CONTINUOUS
10
6.2539617322834644
20
-5.081201102362205
11
6.254281535433071
21
-5.0810944881889766
0
LINE
8
BLACK
6
CONTINUOUS
10
6.254281535433071
20
-5.0810944881889766
11
6.2545337401574805
21
-5.0808708661417326
0
LINE
8
BLACK
6
CONTINUOUS
10
6.2545337401574805
20
-5.0808708661417326
11
6.2666071653543307
21
-5.0748341338582676
0
LINE
8
BLACK
6
CONTINUOUS
10
6.2666071653543307
20
-5.0748341338582676
11
6.267848267716535
21
-5.0745801181102363
0
LINE
8
BLACK
6
CONTINUOUS
10
6.267848267716535
20
-5.0745801181102363
11
6.2690721653543307
21
-5.0742522047244094
0
LINE
8
BLACK
6
CONTINUOUS
10
6.2690721653543307
20
-5.0742522047244094
11
6.2871824015748032
21
-5.0742522047244094
0
LINE
8
BLACK
6
CONTINUOUS
10
6.2871824015748032
20
-5.0742522047244094
11
6.2884060236220467
21
-5.0745800393700788
0
LINE
8
BLACK
6
CONTINUOUS
10
6.2884060236220467
20
-5.0745800393700788
11
6.2896473622047244
21
-5.0748340944881889
0
LINE
8
BLACK
6
CONTINUOUS
10
6.2896473622047244
20
-5.0748340944881889
11
6.3017208661417321
21
-5.0808708661417326
0
LINE
8
BLACK
6
CONTINUOUS
10
6.3017208661417321
20
-5.0808708661417326
11
6.3019730314960629
21
-5.0810944881889766
0
LINE
8
BLACK
6
CONTINUOUS
10
6.3019730314960629
20
-5.0810944881889766
11
6.3022928740157482
21
-5.081201102362205
0
LINE
8
BLACK
6
CONTINUOUS
10
6.3022928740157482
20
-5.081201102362205
11
6.3030273228346454
21
-5.0820293307086617
0
LINE
8
BLACK
6
CONTINUOUS
10
6.3030273228346454
20
-5.0820293307086617
11
6.3038555905511808
21
-5.0827638188976376
0
LINE
8
BLACK
6
CONTINUOUS
10
6.3038555905511808
20
-5.0827638188976376
11
6.3039621653543305
21
-5.0830836220472442
0
LINE
8
BLACK
6
CONTINUOUS
10
6.3039621653543305
20
-5.0830836220472442
11
6.3041858267716533
21
-5.0833358267716537
0
LINE
8
BLACK
6
CONTINUOUS
10
6.3041858267716533
20
-5.0833358267716537
11
6.3102225590551182
21
-5.0954092913385827
0
LINE
8
BLACK
6
CONTINUOUS
10
6.3102225590551182
20
-5.0954092913385827
11
6.3104765748031495
21
-5.0966505905511807
0
LINE
8
BLACK
6
CONTINUOUS
10
6.3104765748031495
20
-5.0966505905511807
11
6.3108044488188977
21
-5.0978742519685039
0
LINE
8
BLACK
6
CONTINUOUS
10
6.3108044488188977
20
-5.0978742519685039
11
6.3108044488188977
21
-5.1642784645669293
0
LINE
8
BLACK
6
CONTINUOUS
10
6.3108044488188977
20
-5.1642784645669293
11
6.3100660236220474
21
-5.1670343700787402
0
LINE
8
BLACK
6
CONTINUOUS
10
6.3100660236220474
20
-5.1670343700787402
11
6.3080485433070868
21
-5.1690518503937009
0
LINE
8
BLACK
6
CONTINUOUS
10
6.3080485433070868
20
-5.1690518503937009
11
6.3052926377952758
21
-5.1697902755905512
0
LINE
8
BLACK
6
CONTINUOUS
10
6.3052926377952758
20
-5.1697902755905512
11
6.302536732283464
21
-5.1690518503937009
0
LINE
8
BLACK
6
CONTINUOUS
10
6.302536732283464
20
-5.1690518503937009
11
6.3005192519685034
21
-5.1670343700787402
0
LINE
8
BLACK
6
CONTINUOUS
10
6.3005192519685034
20
-5.1670343700787402
11
6.2997808267716531
21
-5.1642784645669293
0
LINE
8
BLACK
6
CONTINUOUS
10
6.2997808267716531
20
-5.1642784645669293
11
6.2997808267716531
21
-5.0991754330708661
0
LINE
8
BLACK
6
CONTINUOUS
10
6.2997808267716531
20
-5.0991754330708661
11
6.2951475984251966
21
-5.0899090157480318
0
LINE
8
BLACK
6
CONTINUOUS
10
6.2951475984251966
20
-5.0899090157480318
11
6.285881220472441
21
-5.0852758267716531
0
LINE
8
BLACK
6
CONTINUOUS
10
6.285881220472441
20
-5.0852758267716531
11
6.2703733464566929
21
-5.0852758267716531
0
LINE
8
BLACK
6
CONTINUOUS
10
6.2703733464566929
20
-5.0852758267716531
11
6.2611069291338577
21
-5.0899090551181105
0
LINE
8
BLACK
6
CONTINUOUS
10
6.2611069291338577
20
-5.0899090551181105
11
6.2564737401574799
21
-5.0991754330708661
0
LINE
8
BLACK
6
CONTINUOUS
10
6.2564737401574799
20
-5.0991754330708661
11
6.2564737401574799
21
-5.1642784645669293
0
LINE
8
BLACK
6
CONTINUOUS
10
6.2564737401574799
20
-5.1642784645669293
11
6.2557353149606296
21
-5.1670343700787402
0
LINE
8
BLACK
6
CONTINUOUS
10
6.2557353149606296
20
-5.1670343700787402
11
6.253717834645669
21
-5.1690518503937009
0
LINE
8
BLACK
6
CONTINUOUS
10
6.253717834645669
20
-5.1690518503937009
11
6.2509619291338581
21
-5.1697902755905512
0
LINE
8
BLACK
6
CONTINUOUS
10
6.2509619291338581
20
-5.1697902755905512
11
6.2482060236220471
21
-5.1690518503937009
0
LINE
8
BLACK
6
CONTINUOUS
10
6.2482060236220471
20
-5.1690518503937009
11
6.2461885433070865
21
-5.1670343700787402
0
LINE
8
BLACK
6
CONTINUOUS
10
6.2461885433070865
20
-5.1670343700787402
11
6.2454501181102362
21
-5.1642784645669293
0
LINE
8
BLACK
6
CONTINUOUS
10
6.2454501181102362
20
-5.1642784645669293
11
6.2454501181102362
21
-5.0991754330708661
0
LINE
8
BLACK
6
CONTINUOUS
10
6.2454501181102362
20
-5.0991754330708661
11
6.2408168897637797
21
-5.0899090157480318
0
LINE
8
BLACK
6
CONTINUOUS
10
6.2408168897637797
20
-5.0899090157480318
11
6.2384685039370078
21
-5.088734803149606
0
LINE
8
BLACK
6
CONTINUOUS
10
6.2384685039370078
20
-5.088734803149606
11
6.2384685039370078
21
-5.2670874015748028
0
LINE
8
BLACK
6
CONTINUOUS
10
6.2384685039370078
20
-5.2670874015748028
11
6.2378919291338581
21
-5.2684793307086615
0
LINE
8
BLACK
6
CONTINUOUS
10
6.2378919291338581
20
-5.2684793307086615
11
6.2364999999999995
21
-5.2690559055118111
0
LINE
8
BLACK
6
CONTINUOUS
10
6.2364999999999995
20
-5.2690559055118111
11
6.2351080708661417
21
-5.2684793307086615
0
LINE
8
BLACK
6
CONTINUOUS
10
6.2351080708661417
20
-5.2684793307086615
11
6.2345314960629921
21
-5.2670874015748028
0
LINE
8
BLACK
6
CONTINUOUS
10
6.2345314960629921
20
-5.2670874015748028
11
6.2345314960629921
21
-5.2472439763779528
0
LINE
8
BLACK
6
CONTINUOUS
10
6.2345314960629921
20
-5.2472439763779528
11
6.1930583858267712
21
-5.2688335433070863
0
LINE
8
BLACK
6
CONTINUOUS
10
6.1930583858267712
20
-5.2688335433070863
11
6.1915575196850394
21
-5.2689648031496059
0
LINE
8
BLACK
6
CONTINUOUS
10
6.1915575196850394
20
-5.2689648031496059
11
6.1904033464566925
21
-5.2679963779527554
0
LINE
8
BLACK
6
CONTINUOUS
10
6.1904033464566925
20
-5.2679963779527554
11
6.1902720866141729
21
-5.2664955118110237
0
LINE
8
BLACK
6
CONTINUOUS
10
6.1902720866141729
20
-5.2664955118110237
11
6.1912405118110234
21
-5.2653413385826768
0
LINE
8
BLACK
6
CONTINUOUS
10
6.1912405118110234
20
-5.2653413385826768
11
6.2284553937007869
21
-5.2459685039370081
0
LINE
8
BLACK
6
CONTINUOUS
10
6.2284553937007869
20
-5.2459685039370081
11
5.4645446456692914
21
-5.2459685039370081
0
LINE
8
BLACK
6
CONTINUOUS
10
5.4645446456692914
20
-5.2459685039370081
11
5.5017594881889762
21
-5.2653413385826768
0
LINE
8
BLACK
6
CONTINUOUS
10
5.5017594881889762
20
-5.2653413385826768
11
5.5027279133858267
21
-5.2664955118110237
0
LINE
8
BLACK
6
CONTINUOUS
10
5.5027279133858267
20
-5.2664955118110237
11
5.5025966141732283
21
-5.2679963779527554
0
LINE
8
BLACK
6
CONTINUOUS
10
5.5025966141732283
20
-5.2679963779527554
11
5.5014424803149602
21
-5.2689648031496059
0
LINE
8
BLACK
6
CONTINUOUS
10
5.5014424803149602
20
-5.2689648031496059
11
5.4999415748031497
21
-5.2688335039370076
0
LINE
8
BLACK
6
CONTINUOUS
10
5.4999415748031497
20
-5.2688335039370076
11
5.4584685039370076
21
-5.2472439763779528
0
LINE
8
BLACK
6
CONTINUOUS
10
5.4584685039370076
20
-5.2472439763779528
11
5.4584685039370076
21
-5.2670874015748028
0
LINE
8
BLACK
6
CONTINUOUS
10
5.4584685039370076
20
-5.2670874015748028
11
5.4578919291338579
21
-5.2684793307086615
0
LINE
8
BLACK
6
CONTINUOUS
10
5.4578919291338579
20
-5.2684793307086615
11
5.4565000000000001
21
-5.2690559055118111
0
LINE
8
BLACK
6
CONTINUOUS
10
5.4565000000000001
20
-5.2690559055118111
11
5.4551080708661415
21
-5.2684793307086615
0
LINE
8
BLACK
6
CONTINUOUS
10
5.4551080708661415
20
-5.2684793307086615
11
5.4545314960629918
21
-5.2670874015748028
0
LINE
8
BLACK
6
CONTINUOUS
10
5.4545314960629918
20
-5.2670874015748028
11
5.4545314960629918
21
-5.1696777165354328
0
LINE
8
BLACK
6
CONTINUOUS
10
5.4545314960629918
20
-5.1696777165354328
11
5.4541115354330705
21
-5.1697902755905512
0
LINE
8
BLACK
6
CONTINUOUS
10
5.4541115354330705
20
-5.1697902755905512
11
5.4178910629921262
21
-5.1697902755905512
0
LINE
8
BLACK
6
CONTINUOUS
10
5.4178910629921262
20
-5.1697902755905512
11
5.381670590551181
21
-5.1697902755905512
0
LINE
8
BLACK
6
CONTINUOUS
10
5.381670590551181
20
-5.1697902755905512
11
5.3789146850393701
21
-5.1690518503937009
0
LINE
8
BLACK
6
CONTINUOUS
10
5.3789146850393701
20
-5.1690518503937009
11
5.3768972047244095
21
-5.1670343700787402
0
LINE
8
BLACK
6
CONTINUOUS
10
5.3768972047244095
20
-5.1670343700787402
11
5.3761587795275592
21
-5.1642784645669293
0
LINE
8
BLACK
6
CONTINUOUS
10
5.3761587795275592
20
-5.1642784645669293
11
5.3768972047244095
21
-5.1615225590551184
0
LINE
8
BLACK
6
CONTINUOUS
10
5.3768972047244095
20
-5.1615225590551184
11
5.3789146850393701
21
-5.1595050787401577
0
LINE
8
BLACK
6
CONTINUOUS
10
5.3789146850393701
20
-5.1595050787401577
11
5.381670590551181
21
-5.1587666535433065
0
LINE
8
BLACK
6
CONTINUOUS
10
5.381670590551181
20
-5.1587666535433065
11
5.4123792519685034
21
-5.1587666535433065
0
LINE
8
BLACK
6
CONTINUOUS
10
5.4123792519685034
20
-5.1587666535433065
11
5.4123792519685034
21
-5.0557110629921258
0
LINE
8
BLACK
6
CONTINUOUS
10
5.4123792519685034
20
-5.0557110629921258
11
5.4104036614173223
21
-5.0586744488188975
0
LINE
8
BLACK
6
CONTINUOUS
10
5.4104036614173223
20
-5.0586744488188975
11
5.4099901968503934
21
-5.0590377952755903
0
LINE
8
BLACK
6
CONTINUOUS
10
5.4099901968503934
20
-5.0590377952755903
11
5.4097150000000003
21
-5.0595144881889764
0
LINE
8
BLACK
6
CONTINUOUS
10
5.4097150000000003
20
-5.0595144881889764
11
5.3976415354330705
21
-5.0715879921259841
0
LINE
8
BLACK
6
CONTINUOUS
10
5.3976415354330705
20
-5.0715879921259841
11
5.3968730314960629
21
-5.0720316535433065
0
LINE
8
BLACK
6
CONTINUOUS
10
5.3968730314960629
20
-5.0720316535433065
11
5.3962090551181099
21
-5.0726204724409447
0
LINE
8
BLACK
6
CONTINUOUS
10
5.3962090551181099
20
-5.0726204724409447
11
5.3841355511811022
21
-5.0786572047244096
0
LINE
8
BLACK
6
CONTINUOUS
10
5.3841355511811022
20
-5.0786572047244096
11
5.3813403543307086
21
-5.0792292125984249
0
LINE
8
BLACK
6
CONTINUOUS
10
5.3813403543307086
20
-5.0792292125984249
11
5.3786336220472437
21
-5.0783269685039372
0
LINE
8
BLACK
6
CONTINUOUS
10
5.3786336220472437
20
-5.0783269685039372
11
5.3767406692913386
21
-5.0761922440944884
0
LINE
8
BLACK
6
CONTINUOUS
10
5.3767406692913386
20
-5.0761922440944884
11
5.3761686614173225
21
-5.0733970472440948
0
LINE
8
BLACK
6
CONTINUOUS
10
5.3761686614173225
20
-5.0733970472440948
11
5.3770709055118111
21
-5.0706903149606299
0
LINE
8
BLACK
6
CONTINUOUS
10
5.3770709055118111
20
-5.0706903149606299
11
5.3792056299212598
21
-5.068797362204724
0
LINE
8
BLACK
6
CONTINUOUS
10
5.3792056299212598
20
-5.068797362204724
11
5.3904790944881888
21
-5.0631605905511812
0
LINE
8
BLACK
6
CONTINUOUS
10
5.3904790944881888
20
-5.0631605905511812
11
5.4015341732283462
21
-5.0521055118110239
0
LINE
8
BLACK
6
CONTINUOUS
10
5.4015341732283462
20
-5.0521055118110239
11
5.4133049606299215
21
-5.0344494094488184
0
LINE
8
BLACK
6
CONTINUOUS
10
5.4133049606299215
20
-5.0344494094488184
11
5.4142475196850395
21
-5.0336210236220476
0
LINE
8
BLACK
6
CONTINUOUS
10
5.4142475196850395
20
-5.0336210236220476
11
5.4151351574803153
21
-5.0327334251968505
0
LINE
8
BLACK
6
CONTINUOUS
10
5.4151351574803153
20
-5.0327334251968505
11
5.4153112204724412
21
-5.0326862204724412
0
LINE
8
BLACK
6
CONTINUOUS
10
5.4153112204724412
20
-5.0326862204724412
11
5.4154480708661419
21
-5.0325659842519688
0
LINE
8
BLACK
6
CONTINUOUS
10
5.4154480708661419
20
-5.0325659842519688
11
5.416678622047244
21
-5.0323198425196853
0
LINE
8
BLACK
6
CONTINUOUS
10
5.416678622047244
20
-5.0323198425196853
11
5.4178910629921262
21
-5.0319950000000002
0
LINE
8
BLACK
6
CONTINUOUS
10
5.4178910629921262
20
-5.0319950000000002
11
5.4180670472440946
21
-5.032042125984252
0
LINE
8
BLACK
6
CONTINUOUS
10
5.4180670472440946
20
-5.032042125984252
11
5.4182457874015748
21
-5.0320064173228349
0
LINE
8
BLACK
6
CONTINUOUS
10
5.4182457874015748
20
-5.0320064173228349
11
5.4194345669291337
21
-5.0324085433070866
0
LINE
8
BLACK
6
CONTINUOUS
10
5.4194345669291337
20
-5.0324085433070866
11
5.4206469685039371
21
-5.0327334251968505
0
LINE
8
BLACK
6
CONTINUOUS
10
5.4206469685039371
20
-5.0327334251968505
11
5.4207758267716537
21
-5.0328622834645671
0
LINE
8
BLACK
6
CONTINUOUS
10
5.4207758267716537
20
-5.0328622834645671
11
5.420948464566929
21
-5.0329207086614174
0
LINE
8
BLACK
6
CONTINUOUS
10
5.420948464566929
20
-5.0329207086614174
11
5.421776811023622
21
-5.0338632677165354
0
LINE
8
BLACK
6
CONTINUOUS
10
5.421776811023622
20
-5.0338632677165354
11
5.4226644488188978
21
-5.0347509055118111
0
LINE
8
BLACK
6
CONTINUOUS
10
5.4226644488188978
20
-5.0347509055118111
11
5.4227116141732283
21
-5.0349269685039371
0
LINE
8
BLACK
6
CONTINUOUS
10
5.4227116141732283
20
-5.0349269685039371
11
5.4228318897637795
21
-5.0350638188976378
0
LINE
8
BLACK
6
CONTINUOUS
10
5.4228318897637795
20
-5.0350638188976378
11
5.4230779921259842
21
-5.0362943307086612
0
LINE
8
BLACK
6
CONTINUOUS
10
5.4230779921259842
20
-5.0362943307086612
11
5.4234028740157481
21
-5.0375068110236221
0
LINE
8
BLACK
6
CONTINUOUS
10
5.4234028740157481
20
-5.0375068110236221
11
5.4234028740157481
21
-5.1587666535433065
0
LINE
8
BLACK
6
CONTINUOUS
10
5.4234028740157481
20
-5.1587666535433065
11
5.4541115354330705
21
-5.1587666535433065
0
LINE
8
BLACK
6
CONTINUOUS
10
5.4541115354330705
20
-5.1587666535433065
11
5.4545314960629918
21
-5.1588791732283461
0
LINE
8
BLACK
6
CONTINUOUS
10
5.4545314960629918
20
-5.1588791732283461
11
5.4545314960629918
21
-4.9239999999999995
0
LINE
8
BLACK
6
CONTINUOUS
10
5.4545314960629918
20
-4.9239999999999995
11
5.4551080708661415
21
-4.9226080708661417
0
LINE
8
BLACK
6
CONTINUOUS
10
5.4551080708661415
20
-4.9226080708661417
11
5.4565000000000001
21
-4.9220314960629921
0
LINE
8
BLACK
6
CONTINUOUS
10
5.4565000000000001
20
-4.9220314960629921
11
5.4578919291338579
21
-4.9226080708661417
0
LINE
8
BLACK
6
CONTINUOUS
10
5.4578919291338579
20
-4.9226080708661417
11
5.4584685039370076
21
-4.9239999999999995
0
LINE
8
BLACK
6
CONTINUOUS
10
5.4584685039370076
20
-4.9239999999999995
11
5.4584685039370076
21
-5.161106141732283
0
LINE
8
BLACK
6
CONTINUOUS
10
5.4584685039370076
20
-5.161106141732283
11
5.458884921259842
21
-5.1615225590551184
0
LINE
8
BLACK
6
CONTINUOUS
10
5.458884921259842
20
-5.1615225590551184
11
5.4596233464566932
21
-5.1642784645669293
0
LINE
8
BLACK
6
CONTINUOUS
10
5.4596233464566932
20
-5.1642784645669293
11
5.458884921259842
21
-5.1670343700787402
0
LINE
8
BLACK
6
CONTINUOUS
10
5.458884921259842
20
-5.1670343700787402
11
5.4584685039370076
21
-5.1674507874015747
0
LINE
8
BLACK
6
CONTINUOUS
10
5.4584685039370076
20
-5.1674507874015747
11
5.4584685039370076
21
-5.240755984251968
0
LINE
8
BLACK
6
CONTINUOUS
10
5.4584685039370076
20
-5.240755984251968
11
5.4999415748031497
21
-5.219166496062992
0
LINE
8
BLACK
6
CONTINUOUS
10
5.4999415748031497
20
-5.219166496062992
11
5.5014424803149602
21
-5.2190351968503936
0
LINE
8
BLACK
6
CONTINUOUS
10
5.5014424803149602
20
-5.2190351968503936
11
5.5025966141732283
21
-5.2200036220472441
0
LINE
8
BLACK
6
CONTINUOUS
10
5.5025966141732283
20
-5.2200036220472441
11
5.5027279133858267
21
-5.2215044881889758
0
LINE
8
BLACK
6
CONTINUOUS
10
5.5027279133858267
20
-5.2215044881889758
11
5.5017594881889762
21
-5.2226586614173227
0
LINE
8
BLACK
6
CONTINUOUS
10
5.5017594881889762
20
-5.2226586614173227
11
5.4645446456692914
21
-5.2420314960629923
0
LINE
8
BLACK
6
CONTINUOUS
10
5.4645446456692914
20
-5.2420314960629923
11
6.2284553937007869
21
-5.2420314960629923
0
LINE
8
BLACK
6
CONTINUOUS
10
6.2284553937007869
20
-5.2420314960629923
11
6.1912405118110234
21
-5.2226586614173227
0
LINE
8
BLACK
6
CONTINUOUS
10
6.1912405118110234
20
-5.2226586614173227
11
6.1902720866141729
21
-5.2215044881889758
0
LINE
8
BLACK
6
CONTINUOUS
10
6.1902720866141729
20
-5.2215044881889758
11
6.1904033464566925
21
-5.2200036220472441
0
LINE
8
BLACK
6
CONTINUOUS
10
6.1904033464566925
20
-5.2200036220472441
11
6.1915575196850394
21
-5.2190351968503936
0
LINE
8
BLACK
6
CONTINUOUS
10
6.1915575196850394
20
-5.2190351968503936
11
6.1930583858267712
21
-5.2191664566929132
0
LINE
8
BLACK
6
CONTINUOUS
10
6.1930583858267712
20
-5.2191664566929132
11
6.2345314960629921
21
-5.240755984251968
0
LINE
8
BLACK
6
CONTINUOUS
10
6.2345314960629921
20
-5.240755984251968
11
6.2345314960629921
21
-5.0867662992125986
0
LINE
8
BLACK
6
CONTINUOUS
10
6.2345314960629921
20
-5.0867662992125986
11
6.2315505118110233
21
-5.0852758267716531
0
LINE
8
BLACK
6
CONTINUOUS
10
6.2315505118110233
20
-5.0852758267716531
11
6.2160426377952751
21
-5.0852758267716531
0
LINE
8
BLACK
6
CONTINUOUS
10
6.2160426377952751
20
-5.0852758267716531
11
6.2059328740157476
21
-5.0903307086614173
0
LINE
8
BLACK
6
CONTINUOUS
10
6.2059328740157476
20
-5.0903307086614173
11
6.2021430314960631
21
-5.0941205905511806
0
LINE
8
BLACK
6
CONTINUOUS
10
6.2021430314960631
20
-5.0941205905511806
11
6.2021430314960631
21
-5.1642784645669293
0
LINE
8
BLACK
6
CONTINUOUS
10
6.2021430314960631
20
-5.1642784645669293
11
6.2014046062992128
21
-5.1670343700787402
0
LINE
8
BLACK
6
CONTINUOUS
10
6.2014046062992128
20
-5.1670343700787402
11
6.1993871259842521
21
-5.1690518503937009
0
LINE
8
BLACK
6
CONTINUOUS
10
6.1993871259842521
20
-5.1690518503937009
11
6.1966312204724412
21
-5.1697902755905512
0
LINE
8
BLACK
6
CONTINUOUS
10
6.1966312204724412
20
-5.1697902755905512
11
6.1938753149606294
21
-5.1690518503937009
0
LINE
8
BLACK
6
CONTINUOUS
10
6.1938753149606294
20
-5.1690518503937009
11
6.1918578346456687
21
-5.1670343700787402
0
LINE
8
BLACK
6
CONTINUOUS
10
6.1918578346456687
20
-5.1670343700787402
11
6.1911194094488184
21
-5.1642784645669293
0
LINE
8
BLACK
6
CONTINUOUS
10
6.1911194094488184
20
-5.1642784645669293
11
6.1911194094488184
21
-5.0797640157480313
0
LINE
8
BLACK
6
CONTINUOUS
10
6.1911194094488184
20
-5.0797640157480313
11
6.1918578346456687
21
-5.0770081102362203
0
LINE
8
BLACK
6
CONTINUOUS
10
6.1918578346456687
20
-5.0770081102362203
11
6.1938753149606294
21
-5.0749906299212597
0
LINE
8
BLACK
6
CONTINUOUS
10
6.1938753149606294
20
-5.0749906299212597
11
6.1966312204724412
21
-5.0742522047244094
0
LINE
8
BLACK
6
CONTINUOUS
10
6.1966312204724412
20
-5.0742522047244094
11
6.1993871259842521
21
-5.0749906299212597
0
LINE
8
BLACK
6
CONTINUOUS
10
6.1993871259842521
20
-5.0749906299212597
11
6.2014046062992128
21
-5.0770081102362203
0
LINE
8
BLACK
6
CONTINUOUS
10
6.2014046062992128
20
-5.0770081102362203
11
6.2021430314960631
21
-5.0797640157480313
0
LINE
8
BLACK
6
CONTINUOUS
10
6.2021430314960631
20
-5.0797640157480313
11
6.2021430314960631
21
-5.0799008267716532
0
LINE
8
BLACK
6
CONTINUOUS
10
6.2021430314960631
20
-5.0799008267716532
11
6.212276456692913
21
-5.0748341338582676
0
LINE
8
BLACK
6
CONTINUOUS
10
6.212276456692913
20
-5.0748341338582676
11
6.2135175590551182
21
-5.0745801181102363
0
LINE
8
BLACK
6
CONTINUOUS
10
6.2135175590551182
20
-5.0745801181102363
11
6.2147414566929129
21
-5.0742522047244094
0
LINE
8
BLACK
6
CONTINUOUS
10
6.2147414566929129
20
-5.0742522047244094
11
6.2328516929133855
21
-5.0742522047244094
0
LINE
8
BLACK
6
CONTINUOUS
10
6.2328516929133855
20
-5.0742522047244094
11
6.2340753149606298
21
-5.0745800393700788
0
LINE
8
BLACK
6
CONTINUOUS
10
6.2340753149606298
20
-5.0745800393700788
11
6.2345314960629921
21
-5.0746733858267712
0
LINE
8
BLACK
6
CONTINUOUS
10
6.2345314960629921
20
-5.0746733858267712
11
6.2345314960629921
21
-4.9239999999999995
0
LINE
8
BLACK
6
CONTINUOUS
10
6.2345314960629921
20
-4.9239999999999995
11
6.2351080708661417
21
-4.9226080708661417
0
LINE
8
BLACK
6
CONTINUOUS
10
6.2351080708661417
20
-4.9226080708661417
11
6.2364999999999995
21
-4.9220314960629921
0
LINE
8
BLACK
6
CONTINUOUS
10
6.2364999999999995
20
-4.9220314960629921
11
6.5632559842519687
21
-4.9220314960629921
0
LINE
8
BLACK
6
CONTINUOUS
10
6.5632559842519687
20
-4.9220314960629921
11
6.541666456692913
21
-4.8805583858267712
0
LINE
8
BLACK
6
CONTINUOUS
10
6.541666456692913
20
-4.8805583858267712
11
6.5415351968503934
21
-4.8790575196850394
0
LINE
8
BLACK
6
CONTINUOUS
10
6.5415351968503934
20
-4.8790575196850394
11
6.5425036220472439
21
-4.8779033464566925
0
LINE
8
BLACK
6
CONTINUOUS
10
6.5425036220472439
20
-4.8779033464566925
11
6.5440044881889765
21
-4.8777720866141729
0
LINE
8
BLACK
6
CONTINUOUS
10
6.5440044881889765
20
-4.8777720866141729
11
6.5451586614173225
21
-4.8787405118110234
0
LINE
8
BLACK
6
CONTINUOUS
10
6.5451586614173225
20
-4.8787405118110234
11
6.5645314960629921
21
-4.9159553937007869
0
LINE
8
BLACK
6
CONTINUOUS
10
6.5645314960629921
20
-4.9159553937007869
11
6.5645314960629921
21
-3.3520445669291337
0
LINE
8
BLACK
6
CONTINUOUS
10
6.5645314960629921
20
-3.3520445669291337
11
6.5451586614173225
21
-3.3892594881889764
0
LINE
8
BLACK
6
CONTINUOUS
10
6.5451586614173225
20
-3.3892594881889764
11
6.5440044881889765
21
-3.3902279133858269
0
LINE
8
BLACK
6
CONTINUOUS
10
6.5440044881889765
20
-3.3902279133858269
11
6.5425036220472439
21
-3.3900966535433068
0
LINE
8
BLACK
6
CONTINUOUS
10
6.5425036220472439
20
-3.3900966535433068
11
6.5415351968503934
21
-3.3889424803149604
0
LINE
8
BLACK
6
CONTINUOUS
10
6.5415351968503934
20
-3.3889424803149604
11
6.541666456692913
21
-3.3874416141732282
0
LINE
8
BLACK
6
CONTINUOUS
10
6.541666456692913
20
-3.3874416141732282
11
6.5632559842519687
21
-3.3459685039370077
0
LINE
8
BLACK
6
CONTINUOUS
10
6.5632559842519687
20
-3.3459685039370077
11
6.2364999999999995
21
-3.3459685039370077
0
LINE
8
BLACK
6
CONTINUOUS
10
6.2364999999999995
20
-3.3459685039370077
11
6.2351080708661417
21
-3.3453919291338581
0
LINE
8
BLACK
6
CONTINUOUS
10
6.2351080708661417
20
-3.3453919291338581
11
6.2345314960629921
21
-3.3439999999999999
0
LINE
8
BLACK
6
CONTINUOUS
10
6.2345314960629921
20
-3.3439999999999999
11
6.2351080708661417
21
-3.3426080708661416
0
LINE
8
BLACK
6
CONTINUOUS
10
6.2351080708661417
20
-3.3426080708661416
11
6.2364999999999995
21
-3.342031496062992
0
LINE
8
BLACK
6
CONTINUOUS
10
6.2364999999999995
20
-3.342031496062992
11
6.5895874015748026
21
-3.342031496062992
0
LINE
8
BLACK
6
CONTINUOUS
10
6.5895874015748026
20
-3.342031496062992
11
6.5909793307086613
21
-3.3426080708661416
0
LINE
8
BLACK
6
CONTINUOUS
10
5.5519231102362205
20
-5.0323228346456688
11
5.5531644488188974
21
-5.0325768897637797
0
LINE
8
BLACK
6
CONTINUOUS
10
5.5531644488188974
20
-5.0325768897637797
11
5.5652379133858263
21
-5.0386136220472437
0
LINE
8
BLACK
6
CONTINUOUS
10
5.5652379133858263
20
-5.0386136220472437
11
5.5659018897637793
21
-5.0392024015748031
0
LINE
8
BLACK
6
CONTINUOUS
10
5.5659018897637793
20
-5.0392024015748031
11
5.5666703937007869
21
-5.0396461023622043
0
LINE
8
BLACK
6
CONTINUOUS
10
5.5666703937007869
20
-5.0396461023622043
11
5.5727071653543305
21
-5.045682874015748
0
LINE
8
BLACK
6
CONTINUOUS
10
5.5727071653543305
20
-5.045682874015748
11
5.5731508267716539
21
-5.0464513385826768
0
LINE
8
BLACK
6
CONTINUOUS
10
5.5731508267716539
20
-5.0464513385826768
11
5.5737396456692911
21
-5.0471153543307086
0
LINE
8
BLACK
6
CONTINUOUS
10
5.5737396456692911
20
-5.0471153543307086
11
5.5797763779527561
21
-5.0591888188976375
0
LINE
8
BLACK
6
CONTINUOUS
10
5.5797763779527561
20
-5.0591888188976375
11
5.5800303937007874
21
-5.0604301181102365
0
LINE
8
BLACK
6
CONTINUOUS
10
5.5800303937007874
20
-5.0604301181102365
11
5.5803582677165355
21
-5.0616537795275587
0
LINE
8
BLACK
6
CONTINUOUS
10
5.5803582677165355
20
-5.0616537795275587
11
5.5803582677165355
21
-5.1099477559055115
0
LINE
8
BLACK
6
CONTINUOUS
10
5.5803582677165355
20
-5.1099477559055115
11
5.5801822440944884
21
-5.1106046062992121
0
LINE
8
BLACK
6
CONTINUOUS
10
5.5801822440944884
20
-5.1106046062992121
11
5.5801937007874018
21
-5.1112845669291334
0
LINE
8
BLACK
6
CONTINUOUS
10
5.5801937007874018
20
-5.1112845669291334
11
5.5741569685039369
21
-5.1354315354330708
0
LINE
8
BLACK
6
CONTINUOUS
10
5.5741569685039369
20
-5.1354315354330708
11
5.5736984645669292
21
-5.1362574015748033
0
LINE
8
BLACK
6
CONTINUOUS
10
5.5736984645669292
20
-5.1362574015748033
11
5.5733958267716535
21
-5.1371521259842519
0
LINE
8
BLACK
6
CONTINUOUS
10
5.5733958267716535
20
-5.1371521259842519
11
5.5613223228346458
21
-5.1552623622047244
0
LINE
8
BLACK
6
CONTINUOUS
10
5.5613223228346458
20
-5.1552623622047244
11
5.560908858267716
21
-5.1556257086614172
0
LINE
8
BLACK
6
CONTINUOUS
10
5.560908858267716
20
-5.1556257086614172
11
5.5606336614173228
21
-5.1561024015748034
0
LINE
8
BLACK
6
CONTINUOUS
10
5.5606336614173228
20
-5.1561024015748034
11
5.5545969291338579
21
-5.1621391732283461
0
LINE
8
BLACK
6
CONTINUOUS
10
5.5545969291338579
20
-5.1621391732283461
11
5.5538284251968504
21
-5.1625828346456695
0
LINE
8
BLACK
6
CONTINUOUS
10
5.5538284251968504
20
-5.1625828346456695
11
5.5531644488188974
21
-5.1631716535433068
0
LINE
8
BLACK
6
CONTINUOUS
10
5.5531644488188974
20
-5.1631716535433068
11
5.5410909448818897
21
-5.1692083858267717
0
LINE
8
BLACK
6
CONTINUOUS
10
5.5410909448818897
20
-5.1692083858267717
11
5.5398496062992129
21
-5.169462401574803
0
LINE
8
BLACK
6
CONTINUOUS
10
5.5398496062992129
20
-5.169462401574803
11
5.5386259842519685
21
-5.1697902755905512
0
LINE
8
BLACK
6
CONTINUOUS
10
5.5386259842519685
20
-5.1697902755905512
11
5.514479015748031
21
-5.1697902755905512
0
LINE
8
BLACK
6
CONTINUOUS
10
5.514479015748031
20
-5.1697902755905512
11
5.5117231102362201
21
-5.1690518503937009
0
LINE
8
BLACK
6
CONTINUOUS
10
5.5117231102362201
20
-5.1690518503937009
11
5.5097056299212595
21
-5.1670343700787402
0
LINE
8
BLACK
6
CONTINUOUS
10
5.5097056299212595
20
-5.1670343700787402
11
5.5089672047244092
21
-5.1642784645669293
0
LINE
8
BLACK
6
CONTINUOUS
10
5.5089672047244092
20
-5.1642784645669293
11
5.5097056299212595
21
-5.1615225590551184
0
LINE
8
BLACK
6
CONTINUOUS
10
5.5097056299212595
20
-5.1615225590551184
11
5.5117231102362201
21
-5.1595050787401577
0
LINE
8
BLACK
6
CONTINUOUS
10
5.5117231102362201
20
-5.1595050787401577
11
5.514479015748031
21
-5.1587666535433065
0
LINE
8
BLACK
6
CONTINUOUS
10
5.514479015748031
20
-5.1587666535433065
11
5.5373248031496063
21
-5.1587666535433065
0
LINE
8
BLACK
6
CONTINUOUS
10
5.5373248031496063
20
-5.1587666535433065
11
5.5474345275590551
21
-5.1537117716535432
0
LINE
8
BLACK
6
CONTINUOUS
10
5.5474345275590551
20
-5.1537117716535432
11
5.55245279527559
21
-5.1486935039370074
0
LINE
8
BLACK
6
CONTINUOUS
10
5.55245279527559
20
-5.1486935039370074
11
5.5636940157480312
21
-5.1318316929133854
0
LINE
8
BLACK
6
CONTINUOUS
10
5.5636940157480312
20
-5.1318316929133854
11
5.568697401574803
21
-5.1118181496062993
0
LINE
8
BLACK
6
CONTINUOUS
10
5.568697401574803
20
-5.1118181496062993
11
5.5666703937007869
21
-5.1138451968503933
0
LINE
8
BLACK
6
CONTINUOUS
10
5.5666703937007869
20
-5.1138451968503933
11
5.5659018897637793
21
-5.1142888582677166
0
LINE
8
BLACK
6
CONTINUOUS
10
5.5659018897637793
20
-5.1142888582677166
11
5.5652379133858263
21
-5.1148776771653539
0
LINE
8
BLACK
6
CONTINUOUS
10
5.5652379133858263
20
-5.1148776771653539
11
5.5531644488188974
21
-5.1209144094488188
0
LINE
8
BLACK
6
CONTINUOUS
10
5.5531644488188974
20
-5.1209144094488188
11
5.5519231102362205
21
-5.1211684251968501
0
LINE
8
BLACK
6
CONTINUOUS
10
5.5519231102362205
20
-5.1211684251968501
11
5.5506994881889762
21
-5.1214962992125983
0
LINE
8
BLACK
6
CONTINUOUS
10
5.5506994881889762
20
-5.1214962992125983
11
5.5265524803149608
21
-5.1214962992125983
0
LINE
8
BLACK
6
CONTINUOUS
10
5.5265524803149608
20
-5.1214962992125983
11
5.5253288188976377
21
-5.1211684251968501
0
LINE
8
BLACK
6
CONTINUOUS
10
5.5253288188976377
20
-5.1211684251968501
11
5.5240875196850396
21
-5.1209144094488188
0
LINE
8
BLACK
6
CONTINUOUS
10
5.5240875196850396
20
-5.1209144094488188
11
5.5120140551181098
21
-5.1148776771653539
0
LINE
8
BLACK
6
CONTINUOUS
10
5.5120140551181098
20
-5.1148776771653539
11
5.5113500393700789
21
-5.1142888582677166
0
LINE
8
BLACK
6
CONTINUOUS
10
5.5113500393700789
20
-5.1142888582677166
11
5.5105815748031493
21
-5.1138451968503933
0
LINE
8
BLACK
6
CONTINUOUS
10
5.5105815748031493
20
-5.1138451968503933
11
5.5045448031496065
21
-5.1078084645669293
0
LINE
8
BLACK
6
CONTINUOUS
10
5.5045448031496065
20
-5.1078084645669293
11
5.5041011023622044
21
-5.1070399606299208
0
LINE
8
BLACK
6
CONTINUOUS
10
5.5041011023622044
20
-5.1070399606299208
11
5.5035123228346459
21
-5.1063759842519687
0
LINE
8
BLACK
6
CONTINUOUS
10
5.5035123228346459
20
-5.1063759842519687
11
5.497475590551181
21
-5.0943024803149601
0
LINE
8
BLACK
6
CONTINUOUS
10
5.497475590551181
20
-5.0943024803149601
11
5.4972215354330709
21
-5.0930611417322833
0
LINE
8
BLACK
6
CONTINUOUS
10
5.4972215354330709
20
-5.0930611417322833
11
5.4968937007874015
21
-5.0918375196850389
0
LINE
8
BLACK
6
CONTINUOUS
10
5.4968937007874015
20
-5.0918375196850389
11
5.4968937007874015
21
-5.0616537795275587
0
LINE
8
BLACK
6
CONTINUOUS
10
5.4968937007874015
20
-5.0616537795275587
11
5.4972215354330709
21
-5.0604301181102365
0
LINE
8
BLACK
6
CONTINUOUS
10
5.4972215354330709
20
-5.0604301181102365
11
5.497475590551181
21
-5.0591888188976375
0
LINE
8
BLACK
6
CONTINUOUS
10
5.497475590551181
20
-5.0591888188976375
11
5.5035123228346459
21
-5.0471153543307086
0
LINE
8
BLACK
6
CONTINUOUS
10
5.5035123228346459
20
-5.0471153543307086
11
5.5041011023622044
21
-5.0464513385826768
0
LINE
8
BLACK
6
CONTINUOUS
10
5.5041011023622044
20
-5.0464513385826768
11
5.5045448031496065
21
-5.045682874015748
0
LINE
8
BLACK
6
CONTINUOUS
10
5.5045448031496065
20
-5.045682874015748
11
5.5105815748031493
21
-5.0396461023622043
0
LINE
8
BLACK
6
CONTINUOUS
10
5.5105815748031493
20
-5.0396461023622043
11
5.5113500393700789
21
-5.0392024015748031
0
LINE
8
BLACK
6
CONTINUOUS
10
5.5113500393700789
20
-5.0392024015748031
11
5.5120140551181098
21
-5.0386136220472437
0
LINE
8
BLACK
6
CONTINUOUS
10
5.5120140551181098
20
-5.0386136220472437
11
5.5240875196850396
21
-5.0325768897637797
0
LINE
8
BLACK
6
CONTINUOUS
10
5.5240875196850396
20
-5.0325768897637797
11
5.5253288188976377
21
-5.0323228346456688
0
LINE
8
BLACK
6
CONTINUOUS
10
5.5253288188976377
20
-5.0323228346456688
11
5.5265524803149608
21
-5.0319950000000002
0
LINE
8
BLACK
6
CONTINUOUS
10
5.5265524803149608
20
-5.0319950000000002
11
5.5506994881889762
21
-5.0319950000000002
0
LINE
8
BLACK
6
CONTINUOUS
10
5.5506994881889762
20
-5.0319950000000002
11
5.5519231102362205
21
-5.0323228346456688
0
LINE
8
BLACK
6
CONTINUOUS
10
5.517743976377953
20
-5.0480734645669294
11
5.5129721653543307
21
-5.0528452755905509
0
LINE
8
BLACK
6
CONTINUOUS
10
5.5129721653543307
20
-5.0528452755905509
11
5.5079173228346452
21
-5.0629549606299209
0
LINE
8
BLACK
6
CONTINUOUS
10
5.5079173228346452
20
-5.0629549606299209
11
5.5079173228346452
21
-5.0905363385826767
0
LINE
8
BLACK
6
CONTINUOUS
10
5.5079173228346452
20
-5.0905363385826767
11
5.5129721653543307
21
-5.1006460629921255
0
LINE
8
BLACK
6
CONTINUOUS
10
5.5129721653543307
20
-5.1006460629921255
11
5.5177438976377955
21
-5.1054177952755904
0
LINE
8
BLACK
6
CONTINUOUS
10
5.5177438976377955
20
-5.1054177952755904
11
5.527853661417323
21
-5.1104726771653546
0
LINE
8
BLACK
6
CONTINUOUS
10
5.527853661417323
20
-5.1104726771653546
11
5.549398307086614
21
-5.1104726771653546
0
LINE
8
BLACK
6
CONTINUOUS
10
5.549398307086614
20
-5.1104726771653546
11
5.559507992125984
21
-5.1054177952755904
0
LINE
8
BLACK
6
CONTINUOUS
10
5.559507992125984
20
-5.1054177952755904
11
5.5642798031496064
21
-5.1006460236220468
0
LINE
8
BLACK
6
CONTINUOUS
10
5.5642798031496064
20
-5.1006460236220468
11
5.5693346456692909
21
-5.0905363385826767
0
LINE
8
BLACK
6
CONTINUOUS
10
5.5693346456692909
20
-5.0905363385826767
11
5.5693346456692909
21
-5.0629549606299209
0
LINE
8
BLACK
6
CONTINUOUS
10
5.5693346456692909
20
-5.0629549606299209
11
5.5642798031496064
21
-5.0528452755905509
0
LINE
8
BLACK
6
CONTINUOUS
10
5.5642798031496064
20
-5.0528452755905509
11
5.559507992125984
21
-5.0480734645669294
0
LINE
8
BLACK
6
CONTINUOUS
10
5.559507992125984
20
-5.0480734645669294
11
5.549398307086614
21
-5.0430186220472439
0
LINE
8
BLACK
6
CONTINUOUS
10
5.549398307086614
20
-5.0430186220472439
11
5.527853661417323
21
-5.0430186220472439
0
LINE
8
BLACK
6
CONTINUOUS
10
5.527853661417323
20
-5.0430186220472439
11
5.517743976377953
21
-5.0480734645669294
0
LINE
8
BLACK
6
CONTINUOUS
10
5.6298780314960633
20
-5.1468809448818895
11
5.6306037007874012
21
-5.1468809448818895
0
LINE
8
BLACK
6
CONTINUOUS
10
5.6306037007874012
20
-5.1468809448818895
11
5.63060374015748
21
-5.1468809448818895
0
LINE
8
BLACK
6
CONTINUOUS
10
5.63060374015748
20
-5.1468809448818895
11
5.6312321653543309
21
-5.1472437401574798
0
LINE
8
BLACK
6
CONTINUOUS
10
5.6312321653543309
20
-5.1472437401574798
11
5.6319330708661415
21
-5.1474315748031492
0
LINE
8
BLACK
6
CONTINUOUS
10
5.6319330708661415
20
-5.1474315748031492
11
5.6324461811023623
21
-5.14794468503937
0
LINE
8
BLACK
6
CONTINUOUS
10
5.6324461811023623
20
-5.14794468503937
11
5.6330746062992123
21
-5.148307519685039
0
LINE
8
BLACK
6
CONTINUOUS
10
5.6330746062992123
20
-5.148307519685039
11
5.639111377952756
21
-5.1543442913385826
0
LINE
8
BLACK
6
CONTINUOUS
10
5.639111377952756
20
-5.1543442913385826
11
5.6405379527559054
21
-5.1568151574803149
0
LINE
8
BLACK
6
CONTINUOUS
10
5.6405379527559054
20
-5.1568151574803149
11
5.6405379527559054
21
-5.1568151968503937
0
LINE
8
BLACK
6
CONTINUOUS
10
5.6405379527559054
20
-5.1568151968503937
11
5.6405379527559054
21
-5.1596683464566926
0
LINE
8
BLACK
6
CONTINUOUS
10
5.6405379527559054
20
-5.1596683464566926
11
5.6401264566929132
21
-5.1603810236220475
0
LINE
8
BLACK
6
CONTINUOUS
10
5.6401264566929132
20
-5.1603810236220475
11
5.639111377952756
21
-5.1621391732283461
0
LINE
8
BLACK
6
CONTINUOUS
10
5.639111377952756
20
-5.1621391732283461
11
5.6391112598425197
21
-5.1621392125984249
0
LINE
8
BLACK
6
CONTINUOUS
10
5.6391112598425197
20
-5.1621392125984249
11
5.6330746062992123
21
-5.1681759055118111
0
LINE
8
BLACK
6
CONTINUOUS
10
5.6330746062992123
20
-5.1681759055118111
11
5.6324461811023623
21
-5.1685387007874013
0
LINE
8
BLACK
6
CONTINUOUS
10
5.6324461811023623
20
-5.1685387007874013
11
5.6319330708661415
21
-5.1690518503937009
0
LINE
8
BLACK
6
CONTINUOUS
10
5.6319330708661415
20
-5.1690518503937009
11
5.6312321653543309
21
-5.1692396456692915
0
LINE
8
BLACK
6
CONTINUOUS
10
5.6312321653543309
20
-5.1692396456692915
11
5.63060374015748
21
-5.1696024803149605
0
LINE
8
BLACK
6
CONTINUOUS
10
5.63060374015748
20
-5.1696024803149605
11
5.6298780314960633
21
-5.1696024803149605
0
LINE
8
BLACK
6
CONTINUOUS
10
5.6298780314960633
20
-5.1696024803149605
11
5.6291771653543305
21
-5.1697902755905512
0
LINE
8
BLACK
6
CONTINUOUS
10
5.6291771653543305
20
-5.1697902755905512
11
5.6284762992125987
21
-5.1696024803149605
0
LINE
8
BLACK
6
CONTINUOUS
10
5.6284762992125987
20
-5.1696024803149605
11
5.6277505905511811
21
-5.1696024803149605
0
LINE
8
BLACK
6
CONTINUOUS
10
5.6277505905511811
20
-5.1696024803149605
11
5.6271221259842514
21
-5.1692396456692915
0
LINE
8
BLACK
6
CONTINUOUS
10
5.6271221259842514
20
-5.1692396456692915
11
5.6264212598425196
21
-5.1690518503937009
0
LINE
8
BLACK
6
CONTINUOUS
10
5.6264212598425196
20
-5.1690518503937009
11
5.6259081102362201
21
-5.1685387007874013
0
LINE
8
BLACK
6
CONTINUOUS
10
5.6259081102362201
20
-5.1685387007874013
11
5.6252797244094488
21
-5.1681759055118111
0
LINE
8
BLACK
6
CONTINUOUS
10
5.6252797244094488
20
-5.1681759055118111
11
5.6192429921259839
21
-5.1621391732283461
0
LINE
8
BLACK
6
CONTINUOUS
10
5.6192429921259839
20
-5.1621391732283461
11
5.6178164173228344
21
-5.1596683070866138
0
LINE
8
BLACK
6
CONTINUOUS
10
5.6178164173228344
20
-5.1596683070866138
11
5.6178164173228344
21
-5.1568151574803149
0
LINE
8
BLACK
6
CONTINUOUS
10
5.6178164173228344
20
-5.1568151574803149
11
5.6192429921259839
21
-5.1543442913385826
0
LINE
8
BLACK
6
CONTINUOUS
10
5.6192429921259839
20
-5.1543442913385826
11
5.6252796456692913
21
-5.1483075984251965
0
LINE
8
BLACK
6
CONTINUOUS
10
5.6252796456692913
20
-5.1483075984251965
11
5.6252797244094488
21
-5.148307519685039
0
LINE
8
BLACK
6
CONTINUOUS
10
5.6252797244094488
20
-5.148307519685039
11
5.6259081102362201
21
-5.14794468503937
0
LINE
8
BLACK
6
CONTINUOUS
10
5.6259081102362201
20
-5.14794468503937
11
5.6264212598425196
21
-5.1474315748031492
0
LINE
8
BLACK
6
CONTINUOUS
10
5.6264212598425196
20
-5.1474315748031492
11
5.6271221259842514
21
-5.1472437401574798
0
LINE
8
BLACK
6
CONTINUOUS
10
5.6271221259842514
20
-5.1472437401574798
11
5.6277505511811023
21
-5.1468809448818895
0
LINE
8
BLACK
6
CONTINUOUS
10
5.6277505511811023
20
-5.1468809448818895
11
5.6284762992125987
21
-5.1468809448818895
0
LINE
8
BLACK
6
CONTINUOUS
10
5.6284762992125987
20
-5.1468809448818895
11
5.6291771653543305
21
-5.1466931496062989
0
LINE
8
BLACK
6
CONTINUOUS
10
5.6291771653543305
20
-5.1466931496062989
11
5.6298780314960633
21
-5.1468809448818895
0
LINE
8
BLACK
6
CONTINUOUS
10
5.7330254724409446
20
-5.0323228346456688
11
5.7342668110236223
21
-5.0325768897637797
0
LINE
8
BLACK
6
CONTINUOUS
10
5.7342668110236223
20
-5.0325768897637797
11
5.7463402755905513
21
-5.0386136220472437
0
LINE
8
BLACK
6
CONTINUOUS
10
5.7463402755905513
20
-5.0386136220472437
11
5.7470042519685034
21
-5.0392024015748031
0
LINE
8
BLACK
6
CONTINUOUS
10
5.7470042519685034
20
-5.0392024015748031
11
5.7477727559055118
21
-5.0396461023622043
0
LINE
8
BLACK
6
CONTINUOUS
10
5.7477727559055118
20
-5.0396461023622043
11
5.7538095275590546
21
-5.045682874015748
0
LINE
8
BLACK
6
CONTINUOUS
10
5.7538095275590546
20
-5.045682874015748
11
5.7542531889763779
21
-5.0464513385826768
0
LINE
8
BLACK
6
CONTINUOUS
10
5.7542531889763779
20
-5.0464513385826768
11
5.7548420078740152
21
-5.0471153543307086
0
LINE
8
BLACK
6
CONTINUOUS
10
5.7548420078740152
20
-5.0471153543307086
11
5.7608787401574801
21
-5.0591888188976375
0
LINE
8
BLACK
6
CONTINUOUS
10
5.7608787401574801
20
-5.0591888188976375
11
5.7611327559055114
21
-5.0604301181102365
0
LINE
8
BLACK
6
CONTINUOUS
10
5.7611327559055114
20
-5.0604301181102365
11
5.7614606299212596
21
-5.0616537795275587
0
LINE
8
BLACK
6
CONTINUOUS
10
5.7614606299212596
20
-5.0616537795275587
11
5.7614606299212596
21
-5.0676905511811023
0
LINE
8
BLACK
6
CONTINUOUS
10
5.7614606299212596
20
-5.0676905511811023
11
5.7611327559055114
21
-5.0689141732283467
0
LINE
8
BLACK
6
CONTINUOUS
10
5.7611327559055114
20
-5.0689141732283467
11
5.7608787401574801
21
-5.0701555118110235
0
LINE
8
BLACK
6
CONTINUOUS
10
5.7608787401574801
20
-5.0701555118110235
11
5.7548420078740152
21
-5.0822289763779525
0
LINE
8
BLACK
6
CONTINUOUS
10
5.7548420078740152
20
-5.0822289763779525
11
5.7542531889763779
21
-5.0828929527559055
0
LINE
8
BLACK
6
CONTINUOUS
10
5.7542531889763779
20
-5.0828929527559055
11
5.7538095275590546
21
-5.083661456692913
0
LINE
8
BLACK
6
CONTINUOUS
10
5.7538095275590546
20
-5.083661456692913
11
5.7477727559055118
21
-5.0896982283464567
0
LINE
8
BLACK
6
CONTINUOUS
10
5.7477727559055118
20
-5.0896982283464567
11
5.7470042519685034
21
-5.0901418897637791
0
LINE
8
BLACK
6
CONTINUOUS
10
5.7470042519685034
20
-5.0901418897637791
11
5.7463402755905513
21
-5.0907307086614173
0
LINE
8
BLACK
6
CONTINUOUS
10
5.7463402755905513
20
-5.0907307086614173
11
5.7441266535433071
21
-5.0918375196850389
0
LINE
8
BLACK
6
CONTINUOUS
10
5.7441266535433071
20
-5.0918375196850389
11
5.7463402755905513
21
-5.0929443307086615
0
LINE
8
BLACK
6
CONTINUOUS
10
5.7463402755905513
20
-5.0929443307086615
11
5.7470042519685034
21
-5.09353311023622
0
LINE
8
BLACK
6
CONTINUOUS
10
5.7470042519685034
20
-5.09353311023622
11
5.7477727559055118
21
-5.0939768110236221
0
LINE
8
BLACK
6
CONTINUOUS
10
5.7477727559055118
20
-5.0939768110236221
11
5.7538095275590546
21
-5.1000135826771649
0
LINE
8
BLACK
6
CONTINUOUS
10
5.7538095275590546
20
-5.1000135826771649
11
5.7542531889763779
21
-5.1007820472440946
0
LINE
8
BLACK
6
CONTINUOUS
10
5.7542531889763779
20
-5.1007820472440946
11
5.7548420078740152
21
-5.1014460629921254
0
LINE
8
BLACK
6
CONTINUOUS
10
5.7548420078740152
20
-5.1014460629921254
11
5.7608787401574801
21
-5.1135195275590553
0
LINE
8
BLACK
6
CONTINUOUS
10
5.7608787401574801
20
-5.1135195275590553
11
5.7611327559055114
21
-5.1147608267716533
0
LINE
8
BLACK
6
CONTINUOUS
10
5.7611327559055114
20
-5.1147608267716533
11
5.7614606299212596
21
-5.1159844881889764
0
LINE
8
BLACK
6
CONTINUOUS
10
5.7614606299212596
20
-5.1159844881889764
11
5.7614606299212596
21
-5.1401314960629918
0
LINE
8
BLACK
6
CONTINUOUS
10
5.7614606299212596
20
-5.1401314960629918
11
5.7611327559055114
21
-5.1413551181102362
0
LINE
8
BLACK
6
CONTINUOUS
10
5.7611327559055114
20
-5.1413551181102362
11
5.7608787401574801
21
-5.142596456692913
0
LINE
8
BLACK
6
CONTINUOUS
10
5.7608787401574801
20
-5.142596456692913
11
5.7548420078740152
21
-5.1546699212598428
0
LINE
8
BLACK
6
CONTINUOUS
10
5.7548420078740152
20
-5.1546699212598428
11
5.7542531889763779
21
-5.1553338976377949
0
LINE
8
BLACK
6
CONTINUOUS
10
5.7542531889763779
20
-5.1553338976377949
11
5.7538095275590546
21
-5.1561024015748034
0
LINE
8
BLACK
6
CONTINUOUS
10
5.7538095275590546
20
-5.1561024015748034
11
5.7477727559055118
21
-5.1621391732283461
0
LINE
8
BLACK
6
CONTINUOUS
10
5.7477727559055118
20
-5.1621391732283461
11
5.7470042519685034
21
-5.1625828346456695
0
LINE
8
BLACK
6
CONTINUOUS
10
5.7470042519685034
20
-5.1625828346456695
11
5.7463402755905513
21
-5.1631716535433068
0
LINE
8
BLACK
6
CONTINUOUS
10
5.7463402755905513
20
-5.1631716535433068
11
5.7342668110236223
21
-5.1692083858267717
0
LINE
8
BLACK
6
CONTINUOUS
10
5.7342668110236223
20
-5.1692083858267717
11
5.7330254724409446
21
-5.169462401574803
0
LINE
8
BLACK
6
CONTINUOUS
10
5.7330254724409446
20
-5.169462401574803
11
5.7318018503937003
21
-5.1697902755905512
0
LINE
8
BLACK
6
CONTINUOUS
10
5.7318018503937003
20
-5.1697902755905512
11
5.7076548425196849
21
-5.1697902755905512
0
LINE
8
BLACK
6
CONTINUOUS
10
5.7076548425196849
20
-5.1697902755905512
11
5.7064311811023618
21
-5.169462401574803
0
LINE
8
BLACK
6
CONTINUOUS
10
5.7064311811023618
20
-5.169462401574803
11
5.7051898818897637
21
-5.1692083858267717
0
LINE
8
BLACK
6
CONTINUOUS
10
5.7051898818897637
20
-5.1692083858267717
11
5.6931164173228348
21
-5.1631716535433068
0
LINE
8
BLACK
6
CONTINUOUS
10
5.6931164173228348
20
-5.1631716535433068
11
5.692452401574803
21
-5.1625828346456695
0
LINE
8
BLACK
6
CONTINUOUS
10
5.692452401574803
20
-5.1625828346456695
11
5.6916839370078742
21
-5.1621391732283461
0
LINE
8
BLACK
6
CONTINUOUS
10
5.6916839370078742
20
-5.1621391732283461
11
5.6856471653543306
21
-5.1561024015748034
0
LINE
8
BLACK
6
CONTINUOUS
10
5.6856471653543306
20
-5.1561024015748034
11
5.6852034645669294
21
-5.1553338976377949
0
LINE
8
BLACK
6
CONTINUOUS
10
5.6852034645669294
20
-5.1553338976377949
11
5.68461468503937
21
-5.1546699212598428
0
LINE
8
BLACK
6
CONTINUOUS
10
5.68461468503937
20
-5.1546699212598428
11
5.678577952755905
21
-5.142596456692913
0
LINE
8
BLACK
6
CONTINUOUS
10
5.678577952755905
20
-5.142596456692913
11
5.678323897637795
21
-5.1413551181102362
0
LINE
8
BLACK
6
CONTINUOUS
10
5.678323897637795
20
-5.1413551181102362
11
5.6779960629921256
21
-5.1401314960629918
0
LINE
8
BLACK
6
CONTINUOUS
10
5.6779960629921256
20
-5.1401314960629918
11
5.6779960629921256
21
-5.1159844881889764
0
LINE
8
BLACK
6
CONTINUOUS
10
5.6779960629921256
20
-5.1159844881889764
11
5.678323897637795
21
-5.1147608267716533
0
LINE
8
BLACK
6
CONTINUOUS
10
5.678323897637795
20
-5.1147608267716533
11
5.678577952755905
21
-5.1135195275590553
0
LINE
8
BLACK
6
CONTINUOUS
10
5.678577952755905
20
-5.1135195275590553
11
5.68461468503937
21
-5.1014460629921254
0
LINE
8
BLACK
6
CONTINUOUS
10
5.68461468503937
20
-5.1014460629921254
11
5.6852034645669294
21
-5.1007820472440946
0
LINE
8
BLACK
6
CONTINUOUS
10
5.6852034645669294
20
-5.1007820472440946
11
5.6856471653543306
21
-5.1000135826771649
0
LINE
8
BLACK
6
CONTINUOUS
10
5.6856471653543306
20
-5.1000135826771649
11
5.6916839370078742
21
-5.0939768110236221
0
LINE
8
BLACK
6
CONTINUOUS
10
5.6916839370078742
20
-5.0939768110236221
11
5.692452401574803
21
-5.09353311023622
0
LINE
8
BLACK
6
CONTINUOUS
10
5.692452401574803
20
-5.09353311023622
11
5.6931164173228348
21
-5.0929443307086615
0
LINE
8
BLACK
6
CONTINUOUS
10
5.6931164173228348
20
-5.0929443307086615
11
5.695330039370079
21
-5.0918375196850389
0
LINE
8
BLACK
6
CONTINUOUS
10
5.695330039370079
20
-5.0918375196850389
11
5.6931164173228348
21
-5.0907307086614173
0
LINE
8
BLACK
6
CONTINUOUS
10
5.6931164173228348
20
-5.0907307086614173
11
5.692452401574803
21
-5.0901418897637791
0
LINE
8
BLACK
6
CONTINUOUS
10
5.692452401574803
20
-5.0901418897637791
11
5.6916839370078742
21
-5.0896982283464567
0
LINE
8
BLACK
6
CONTINUOUS
10
5.6916839370078742
20
-5.0896982283464567
11
5.6856471653543306
21
-5.083661456692913
0
LINE
8
BLACK
6
CONTINUOUS
10
5.6856471653543306
20
-5.083661456692913
11
5.6852034645669294
21
-5.0828929527559055
0
LINE
8
BLACK
6
CONTINUOUS
10
5.6852034645669294
20
-5.0828929527559055
11
5.68461468503937
21
-5.0822289763779525
0
LINE
8
BLACK
6
CONTINUOUS
10
5.68461468503937
20
-5.0822289763779525
11
5.678577952755905
21
-5.0701555118110235
0
LINE
8
BLACK
6
CONTINUOUS
10
5.678577952755905
20
-5.0701555118110235
11
5.678323897637795
21
-5.0689141732283467
0
LINE
8
BLACK
6
CONTINUOUS
10
5.678323897637795
20
-5.0689141732283467
11
5.6779960629921256
21
-5.0676905511811023
0
LINE
8
BLACK
6
CONTINUOUS
10
5.6779960629921256
20
-5.0676905511811023
11
5.6779960629921256
21
-5.0616537795275587
0
LINE
8
BLACK
6
CONTINUOUS
10
5.6779960629921256
20
-5.0616537795275587
11
5.678323897637795
21
-5.0604301181102365
0
LINE
8
BLACK
6
CONTINUOUS
10
5.678323897637795
20
-5.0604301181102365
11
5.678577952755905
21
-5.0591888188976375
0
LINE
8
BLACK
6
CONTINUOUS
10
5.678577952755905
20
-5.0591888188976375
11
5.68461468503937
21
-5.0471153543307086
0
LINE
8
BLACK
6
CONTINUOUS
10
5.68461468503937
20
-5.0471153543307086
11
5.6852034645669294
21
-5.0464513385826768
0
LINE
8
BLACK
6
CONTINUOUS
10
5.6852034645669294
20
-5.0464513385826768
11
5.6856471653543306
21
-5.045682874015748
0
LINE
8
BLACK
6
CONTINUOUS
10
5.6856471653543306
20
-5.045682874015748
11
5.6916839370078742
21
-5.0396461023622043
0
LINE
8
BLACK
6
CONTINUOUS
10
5.6916839370078742
20
-5.0396461023622043
11
5.692452401574803
21
-5.0392024015748031
0
LINE
8
BLACK
6
CONTINUOUS
10
5.692452401574803
20
-5.0392024015748031
11
5.6931164173228348
21
-5.0386136220472437
0
LINE
8
BLACK
6
CONTINUOUS
10
5.6931164173228348
20
-5.0386136220472437
11
5.7051898818897637
21
-5.0325768897637797
0
LINE
8
BLACK
6
CONTINUOUS
10
5.7051898818897637
20
-5.0325768897637797
11
5.7064311811023618
21
-5.0323228346456688
0
LINE
8
BLACK
6
CONTINUOUS
10
5.7064311811023618
20
-5.0323228346456688
11
5.7076548425196849
21
-5.0319950000000002
0
LINE
8
BLACK
6
CONTINUOUS
10
5.7076548425196849
20
-5.0319950000000002
11
5.7318018503937003
21
-5.0319950000000002
0
LINE
8
BLACK
6
CONTINUOUS
10
5.7318018503937003
20
-5.0319950000000002
11
5.7330254724409446
21
-5.0323228346456688
0
LINE
8
BLACK
6
CONTINUOUS
10
5.6988463385826771
20
-5.1024041732283463
11
5.6940745275590547
21
-5.1071759842519686
0
LINE
8
BLACK
6
CONTINUOUS
10
5.6940745275590547
20
-5.1071759842519686
11
5.6890196850393702
21
-5.1172856692913387
0
LINE
8
BLACK
6
CONTINUOUS
10
5.6890196850393702
20
-5.1172856692913387
11
5.6890196850393702
21
-5.1388303149606296
0
LINE
8
BLACK
6
CONTINUOUS
10
5.6890196850393702
20
-5.1388303149606296
11
5.6940745275590547
21
-5.1489399999999996
0
LINE
8
BLACK
6
CONTINUOUS
10
5.6940745275590547
20
-5.1489399999999996
11
5.6988463385826771
21
-5.153711811023622
0
LINE
8
BLACK
6
CONTINUOUS
10
5.6988463385826771
20
-5.153711811023622
11
5.7089560236220471
21
-5.1587666535433065
0
LINE
8
BLACK
6
CONTINUOUS
10
5.7089560236220471
20
-5.1587666535433065
11
5.7305006692913381
21
-5.1587666535433065
0
LINE
8
BLACK
6
CONTINUOUS
10
5.7305006692913381
20
-5.1587666535433065
11
5.7406103543307081
21
-5.153711811023622
0
LINE
8
BLACK
6
CONTINUOUS
10
5.7406103543307081
20
-5.153711811023622
11
5.7453821653543304
21
-5.1489399999999996
0
LINE
8
BLACK
6
CONTINUOUS
10
5.7453821653543304
20
-5.1489399999999996
11
5.7504370078740159
21
-5.1388303149606296
0
LINE
8
BLACK
6
CONTINUOUS
10
5.7504370078740159
20
-5.1388303149606296
11
5.7504370078740159
21
-5.1172856692913387
0
LINE
8
BLACK
6
CONTINUOUS
10
5.7504370078740159
20
-5.1172856692913387
11
5.7453821653543304
21
-5.1071759842519686
0
LINE
8
BLACK
6
CONTINUOUS
10
5.7453821653543304
20
-5.1071759842519686
11
5.7406103543307081
21
-5.1024041732283463
0
LINE
8
BLACK
6
CONTINUOUS
10
5.7406103543307081
20
-5.1024041732283463
11
5.7305006692913381
21
-5.0973493307086617
0
LINE
8
BLACK
6
CONTINUOUS
10
5.7305006692913381
20
-5.0973493307086617
11
5.7089560236220471
21
-5.0973493307086617
0
LINE
8
BLACK
6
CONTINUOUS
10
5.7089560236220471
20
-5.0973493307086617
11
5.6988463385826771
21
-5.1024041732283463
0
LINE
8
BLACK
6
CONTINUOUS
10
5.6988463385826771
20
-5.0480734645669294
11
5.6940745275590547
21
-5.0528452755905509
0
LINE
8
BLACK
6
CONTINUOUS
10
5.6940745275590547
20
-5.0528452755905509
11
5.6890196850393702
21
-5.0629549606299209
0
LINE
8
BLACK
6
CONTINUOUS
10
5.6890196850393702
20
-5.0629549606299209
11
5.6890196850393702
21
-5.0663893700787401
0
LINE
8
BLACK
6
CONTINUOUS
10
5.6890196850393702
20
-5.0663893700787401
11
5.6940745275590547
21
-5.0764990551181102
0
LINE
8
BLACK
6
CONTINUOUS
10
5.6940745275590547
20
-5.0764990551181102
11
5.6988463385826771
21
-5.0812708661417325
0
LINE
8
BLACK
6
CONTINUOUS
10
5.6988463385826771
20
-5.0812708661417325
11
5.7089560236220471
21
-5.0863257086614171
0
LINE
8
BLACK
6
CONTINUOUS
10
5.7089560236220471
20
-5.0863257086614171
11
5.7305006692913381
21
-5.0863257086614171
0
LINE
8
BLACK
6
CONTINUOUS
10
5.7305006692913381
20
-5.0863257086614171
11
5.7406103543307081
21
-5.0812708661417325
0
LINE
8
BLACK
6
CONTINUOUS
10
5.7406103543307081
20
-5.0812708661417325
11
5.7453821653543304
21
-5.0764990551181102
0
LINE
8
BLACK
6
CONTINUOUS
10
5.7453821653543304
20
-5.0764990551181102
11
5.7504370078740159
21
-5.0663893700787401
0
LINE
8
BLACK
6
CONTINUOUS
10
5.7504370078740159
20
-5.0663893700787401
11
5.7504370078740159
21
-5.0629549606299209
0
LINE
8
BLACK
6
CONTINUOUS
10
5.7504370078740159
20
-5.0629549606299209
11
5.7453821653543304
21
-5.0528452755905509
0
LINE
8
BLACK
6
CONTINUOUS
10
5.7453821653543304
20
-5.0528452755905509
11
5.7406103543307081
21
-5.0480734645669294
0
LINE
8
BLACK
6
CONTINUOUS
10
5.7406103543307081
20
-5.0480734645669294
11
5.7305006692913381
21
-5.0430186220472439
0
LINE
8
BLACK
6
CONTINUOUS
10
5.7305006692913381
20
-5.0430186220472439
11
5.7089560236220471
21
-5.0430186220472439
0
LINE
8
BLACK
6
CONTINUOUS
10
5.7089560236220471
20
-5.0430186220472439
11
5.6988463385826771
21
-5.0480734645669294
0
LINE
8
BLACK
6
CONTINUOUS
10
5.8406392519685042
20
-5.032042125984252
11
5.8408179921259844
21
-5.0320064173228349
0
LINE
8
BLACK
6
CONTINUOUS
10
5.8408179921259844
20
-5.0320064173228349
11
5.8420067716535433
21
-5.0324085433070866
0
LINE
8
BLACK
6
CONTINUOUS
10
5.8420067716535433
20
-5.0324085433070866
11
5.8432191732283467
21
-5.0327334251968505
0
LINE
8
BLACK
6
CONTINUOUS
10
5.8432191732283467
20
-5.0327334251968505
11
5.8433480314960633
21
-5.0328622834645671
0
LINE
8
BLACK
6
CONTINUOUS
10
5.8433480314960633
20
-5.0328622834645671
11
5.8435206692913386
21
-5.0329207086614174
0
LINE
8
BLACK
6
CONTINUOUS
10
5.8435206692913386
20
-5.0329207086614174
11
5.8443490157480316
21
-5.0338632677165354
0
LINE
8
BLACK
6
CONTINUOUS
10
5.8443490157480316
20
-5.0338632677165354
11
5.8452366535433073
21
-5.0347509055118111
0
LINE
8
BLACK
6
CONTINUOUS
10
5.8452366535433073
20
-5.0347509055118111
11
5.8452838188976379
21
-5.0349269685039371
0
LINE
8
BLACK
6
CONTINUOUS
10
5.8452838188976379
20
-5.0349269685039371
11
5.8454040944881891
21
-5.0350638188976378
0
LINE
8
BLACK
6
CONTINUOUS
10
5.8454040944881891
20
-5.0350638188976378
11
5.8456501968503938
21
-5.0362943307086612
0
LINE
8
BLACK
6
CONTINUOUS
10
5.8456501968503938
20
-5.0362943307086612
11
5.8459750787401576
21
-5.0375068110236221
0
LINE
8
BLACK
6
CONTINUOUS
10
5.8459750787401576
20
-5.0375068110236221
11
5.8459750787401576
21
-5.1587666535433065
0
LINE
8
BLACK
6
CONTINUOUS
10
5.8459750787401576
20
-5.1587666535433065
11
5.8766837401574801
21
-5.1587666535433065
0
LINE
8
BLACK
6
CONTINUOUS
10
5.8766837401574801
20
-5.1587666535433065
11
5.879439645669291
21
-5.1595050787401577
0
LINE
8
BLACK
6
CONTINUOUS
10
5.879439645669291
20
-5.1595050787401577
11
5.8814571259842516
21
-5.1615225590551184
0
LINE
8
BLACK
6
CONTINUOUS
10
5.8814571259842516
20
-5.1615225590551184
11
5.8821955511811019
21
-5.1642784645669293
0
LINE
8
BLACK
6
CONTINUOUS
10
5.8821955511811019
20
-5.1642784645669293
11
5.8814571259842516
21
-5.1670343700787402
0
LINE
8
BLACK
6
CONTINUOUS
10
5.8814571259842516
20
-5.1670343700787402
11
5.879439645669291
21
-5.1690518503937009
0
LINE
8
BLACK
6
CONTINUOUS
10
5.879439645669291
20
-5.1690518503937009
11
5.8766837401574801
21
-5.1697902755905512
0
LINE
8
BLACK
6
CONTINUOUS
10
5.8766837401574801
20
-5.1697902755905512
11
5.8404632677165349
21
-5.1697902755905512
0
LINE
8
BLACK
6
CONTINUOUS
10
5.8404632677165349
20
-5.1697902755905512
11
5.8042427952755906
21
-5.1697902755905512
0
LINE
8
BLACK
6
CONTINUOUS
10
5.8042427952755906
20
-5.1697902755905512
11
5.8014868897637797
21
-5.1690518503937009
0
LINE
8
BLACK
6
CONTINUOUS
10
5.8014868897637797
20
-5.1690518503937009
11
5.7994694094488191
21
-5.1670343700787402
0
LINE
8
BLACK
6
CONTINUOUS
10
5.7994694094488191
20
-5.1670343700787402
11
5.7987309842519688
21
-5.1642784645669293
0
LINE
8
BLACK
6
CONTINUOUS
10
5.7987309842519688
20
-5.1642784645669293
11
5.7994694094488191
21
-5.1615225590551184
0
LINE
8
BLACK
6
CONTINUOUS
10
5.7994694094488191
20
-5.1615225590551184
11
5.8014868897637797
21
-5.1595050787401577
0
LINE
8
BLACK
6
CONTINUOUS
10
5.8014868897637797
20
-5.1595050787401577
11
5.8042427952755906
21
-5.1587666535433065
0
LINE
8
BLACK
6
CONTINUOUS
10
5.8042427952755906
20
-5.1587666535433065
11
5.834951456692913
21
-5.1587666535433065
0
LINE
8
BLACK
6
CONTINUOUS
10
5.834951456692913
20
-5.1587666535433065
11
5.834951456692913
21
-5.0557110629921258
0
LINE
8
BLACK
6
CONTINUOUS
10
5.834951456692913
20
-5.0557110629921258
11
5.8329758661417319
21
-5.0586744488188975
0
LINE
8
BLACK
6
CONTINUOUS
10
5.8329758661417319
20
-5.0586744488188975
11
5.832562401574803
21
-5.0590377952755903
0
LINE
8
BLACK
6
CONTINUOUS
10
5.832562401574803
20
-5.0590377952755903
11
5.832287204724409
21
-5.0595144881889764
0
LINE
8
BLACK
6
CONTINUOUS
10
5.832287204724409
20
-5.0595144881889764
11
5.8202137401574801
21
-5.0715879921259841
0
LINE
8
BLACK
6
CONTINUOUS
10
5.8202137401574801
20
-5.0715879921259841
11
5.8194452362204725
21
-5.0720316535433065
0
LINE
8
BLACK
6
CONTINUOUS
10
5.8194452362204725
20
-5.0720316535433065
11
5.8187812598425195
21
-5.0726204724409447
0
LINE
8
BLACK
6
CONTINUOUS
10
5.8187812598425195
20
-5.0726204724409447
11
5.8067077559055118
21
-5.0786572047244096
0
LINE
8
BLACK
6
CONTINUOUS
10
5.8067077559055118
20
-5.0786572047244096
11
5.8039125590551182
21
-5.0792292125984249
0
LINE
8
BLACK
6
CONTINUOUS
10
5.8039125590551182
20
-5.0792292125984249
11
5.8012058267716533
21
-5.0783269685039372
0
LINE
8
BLACK
6
CONTINUOUS
10
5.8012058267716533
20
-5.0783269685039372
11
5.7993128740157482
21
-5.0761922440944884
0
LINE
8
BLACK
6
CONTINUOUS
10
5.7993128740157482
20
-5.0761922440944884
11
5.7987408661417321
21
-5.0733970472440948
0
LINE
8
BLACK
6
CONTINUOUS
10
5.7987408661417321
20
-5.0733970472440948
11
5.7996431102362207
21
-5.0706903149606299
0
LINE
8
BLACK
6
CONTINUOUS
10
5.7996431102362207
20
-5.0706903149606299
11
5.8017778346456694
21
-5.068797362204724
0
LINE
8
BLACK
6
CONTINUOUS
10
5.8017778346456694
20
-5.068797362204724
11
5.8130512992125984
21
-5.0631605905511812
0
LINE
8
BLACK
6
CONTINUOUS
10
5.8130512992125984
20
-5.0631605905511812
11
5.8241063779527558
21
-5.0521055118110239
0
LINE
8
BLACK
6
CONTINUOUS
10
5.8241063779527558
20
-5.0521055118110239
11
5.8358771653543302
21
-5.0344494094488184
0
LINE
8
BLACK
6
CONTINUOUS
10
5.8358771653543302
20
-5.0344494094488184
11
5.8368197244094491
21
-5.0336210236220476
0
LINE
8
BLACK
6
CONTINUOUS
10
5.8368197244094491
20
-5.0336210236220476
11
5.837707362204724
21
-5.0327334251968505
0
LINE
8
BLACK
6
CONTINUOUS
10
5.837707362204724
20
-5.0327334251968505
11
5.8378834251968499
21
-5.0326862204724412
0
LINE
8
BLACK
6
CONTINUOUS
10
5.8378834251968499
20
-5.0326862204724412
11
5.8380202755905515
21
-5.0325659842519688
0
LINE
8
BLACK
6
CONTINUOUS
10
5.8380202755905515
20
-5.0325659842519688
11
5.8392508267716536
21
-5.0323198425196853
0
LINE
8
BLACK
6
CONTINUOUS
10
5.8392508267716536
20
-5.0323198425196853
11
5.8404632677165349
21
-5.0319950000000002
0
LINE
8
BLACK
6
CONTINUOUS
10
5.8404632677165349
20
-5.0319950000000002
11
5.8406392519685042
21
-5.032042125984252
0
LINE
8
BLACK
6
CONTINUOUS
10
6.0650464566929134
20
-5.0745800393700788
11
6.0662877952755903
21
-5.0748340944881889
0
LINE
8
BLACK
6
CONTINUOUS
10
6.0662877952755903
20
-5.0748340944881889
11
6.0783612992125979
21
-5.0808708661417326
0
LINE
8
BLACK
6
CONTINUOUS
10
6.0783612992125979
20
-5.0808708661417326
11
6.0786134645669287
21
-5.0810944881889766
0
LINE
8
BLACK
6
CONTINUOUS
10
6.0786134645669287
20
-5.0810944881889766
11
6.0789333070866141
21
-5.081201102362205
0
LINE
8
BLACK
6
CONTINUOUS
10
6.0789333070866141
20
-5.081201102362205
11
6.0796677559055121
21
-5.0820293307086617
0
LINE
8
BLACK
6
CONTINUOUS
10
6.0796677559055121
20
-5.0820293307086617
11
6.0804960236220467
21
-5.0827638188976376
0
LINE
8
BLACK
6
CONTINUOUS
10
6.0804960236220467
20
-5.0827638188976376
11
6.0806025984251963
21
-5.0830836220472442
0
LINE
8
BLACK
6
CONTINUOUS
10
6.0806025984251963
20
-5.0830836220472442
11
6.0808262598425191
21
-5.0833358267716537
0
LINE
8
BLACK
6
CONTINUOUS
10
6.0808262598425191
20
-5.0833358267716537
11
6.0819330708661417
21
-5.0855494488188979
0
LINE
8
BLACK
6
CONTINUOUS
10
6.0819330708661417
20
-5.0855494488188979
11
6.0830399212598421
21
-5.0833358267716537
0
LINE
8
BLACK
6
CONTINUOUS
10
6.0830399212598421
20
-5.0833358267716537
11
6.0832635433070861
21
-5.0830836220472442
0
LINE
8
BLACK
6
CONTINUOUS
10
6.0832635433070861
20
-5.0830836220472442
11
6.0833701574803145
21
-5.0827638188976376
0
LINE
8
BLACK
6
CONTINUOUS
10
6.0833701574803145
20
-5.0827638188976376
11
6.0841983858267712
21
-5.0820293307086617
0
LINE
8
BLACK
6
CONTINUOUS
10
6.0841983858267712
20
-5.0820293307086617
11
6.084932874015748
21
-5.081201102362205
0
LINE
8
BLACK
6
CONTINUOUS
10
6.084932874015748
20
-5.081201102362205
11
6.0852526771653546
21
-5.0810944881889766
0
LINE
8
BLACK
6
CONTINUOUS
10
6.0852526771653546
20
-5.0810944881889766
11
6.0855048818897632
21
-5.0808708661417326
0
LINE
8
BLACK
6
CONTINUOUS
10
6.0855048818897632
20
-5.0808708661417326
11
6.0975783070866143
21
-5.0748341338582676
0
LINE
8
BLACK
6
CONTINUOUS
10
6.0975783070866143
20
-5.0748341338582676
11
6.0988194094488186
21
-5.0745801181102363
0
LINE
8
BLACK
6
CONTINUOUS
10
6.0988194094488186
20
-5.0745801181102363
11
6.1000433070866142
21
-5.0742522047244094
0
LINE
8
BLACK
6
CONTINUOUS
10
6.1000433070866142
20
-5.0742522047244094
11
6.1181535433070868
21
-5.0742522047244094
0
LINE
8
BLACK
6
CONTINUOUS
10
6.1181535433070868
20
-5.0742522047244094
11
6.1193771653543303
21
-5.0745800393700788
0
LINE
8
BLACK
6
CONTINUOUS
10
6.1193771653543303
20
-5.0745800393700788
11
6.120618503937008
21
-5.0748340944881889
0
LINE
8
BLACK
6
CONTINUOUS
10
6.120618503937008
20
-5.0748340944881889
11
6.1326920078740157
21
-5.0808708661417326
0
LINE
8
BLACK
6
CONTINUOUS
10
6.1326920078740157
20
-5.0808708661417326
11
6.1329441732283465
21
-5.0810944881889766
0
LINE
8
BLACK
6
CONTINUOUS
10
6.1329441732283465
20
-5.0810944881889766
11
6.1332640157480309
21
-5.081201102362205
0
LINE
8
BLACK
6
CONTINUOUS
10
6.1332640157480309
20
-5.081201102362205
11
6.133998464566929
21
-5.0820293307086617
0
LINE
8
BLACK
6
CONTINUOUS
10
6.133998464566929
20
-5.0820293307086617
11
6.1348267322834644
21
-5.0827638188976376
0
LINE
8
BLACK
6
CONTINUOUS
10
6.1348267322834644
20
-5.0827638188976376
11
6.1349333070866141
21
-5.0830836220472442
0
LINE
8
BLACK
6
CONTINUOUS
10
6.1349333070866141
20
-5.0830836220472442
11
6.1351569685039369
21
-5.0833358267716537
0
LINE
8
BLACK
6
CONTINUOUS
10
6.1351569685039369
20
-5.0833358267716537
11
6.1411937007874018
21
-5.0954092913385827
0
LINE
8
BLACK
6
CONTINUOUS
10
6.1411937007874018
20
-5.0954092913385827
11
6.1414477165354331
21
-5.0966505905511807
0
LINE
8
BLACK
6
CONTINUOUS
10
6.1414477165354331
20
-5.0966505905511807
11
6.1417755905511813
21
-5.0978742519685039
0
LINE
8
BLACK
6
CONTINUOUS
10
6.1417755905511813
20
-5.0978742519685039
11
6.1417755905511813
21
-5.1642784645669293
0
LINE
8
BLACK
6
CONTINUOUS
10
6.1417755905511813
20
-5.1642784645669293
11
6.141037165354331
21
-5.1670343700787402
0
LINE
8
BLACK
6
CONTINUOUS
10
6.141037165354331
20
-5.1670343700787402
11
6.1390196850393703
21
-5.1690518503937009
0
LINE
8
BLACK
6
CONTINUOUS
10
6.1390196850393703
20
-5.1690518503937009
11
6.1362637795275585
21
-5.1697902755905512
0
LINE
8
BLACK
6
CONTINUOUS
10
6.1362637795275585
20
-5.1697902755905512
11
6.1335078740157476
21
-5.1690518503937009
0
LINE
8
BLACK
6
CONTINUOUS
10
6.1335078740157476
20
-5.1690518503937009
11
6.131490393700787
21
-5.1670343700787402
0
LINE
8
BLACK
6
CONTINUOUS
10
6.131490393700787
20
-5.1670343700787402
11
6.1307519685039367
21
-5.1642784645669293
0
LINE
8
BLACK
6
CONTINUOUS
10
6.1307519685039367
20
-5.1642784645669293
11
6.1307519685039367
21
-5.0991754330708661
0
LINE
8
BLACK
6
CONTINUOUS
10
6.1307519685039367
20
-5.0991754330708661
11
6.1261187401574801
21
-5.0899090157480318
0
LINE
8
BLACK
6
CONTINUOUS
10
6.1261187401574801
20
-5.0899090157480318
11
6.1168523622047246
21
-5.0852758267716531
0
LINE
8
BLACK
6
CONTINUOUS
10
6.1168523622047246
20
-5.0852758267716531
11
6.1013444881889765
21
-5.0852758267716531
0
LINE
8
BLACK
6
CONTINUOUS
10
6.1013444881889765
20
-5.0852758267716531
11
6.0920780708661413
21
-5.0899090551181105
0
LINE
8
BLACK
6
CONTINUOUS
10
6.0920780708661413
20
-5.0899090551181105
11
6.0874448818897635
21
-5.0991754330708661
0
LINE
8
BLACK
6
CONTINUOUS
10
6.0874448818897635
20
-5.0991754330708661
11
6.0874448818897635
21
-5.1642784645669293
0
LINE
8
BLACK
6
CONTINUOUS
10
6.0874448818897635
20
-5.1642784645669293
11
6.0867064566929132
21
-5.1670343700787402
0
LINE
8
BLACK
6
CONTINUOUS
10
6.0867064566929132
20
-5.1670343700787402
11
6.0846889763779526
21
-5.1690518503937009
0
LINE
8
BLACK
6
CONTINUOUS
10
6.0846889763779526
20
-5.1690518503937009
11
6.0819330708661417
21
-5.1697902755905512
0
LINE
8
BLACK
6
CONTINUOUS
10
6.0819330708661417
20
-5.1697902755905512
11
6.0791771653543307
21
-5.1690518503937009
0
LINE
8
BLACK
6
CONTINUOUS
10
6.0791771653543307
20
-5.1690518503937009
11
6.0771596850393701
21
-5.1670343700787402
0
LINE
8
BLACK
6
CONTINUOUS
10
6.0771596850393701
20
-5.1670343700787402
11
6.0764212598425198
21
-5.1642784645669293
0
LINE
8
BLACK
6
CONTINUOUS
10
6.0764212598425198
20
-5.1642784645669293
11
6.0764212598425198
21
-5.0991754330708661
0
LINE
8
BLACK
6
CONTINUOUS
10
6.0764212598425198
20
-5.0991754330708661
11
6.0717880314960633
21
-5.0899090157480318
0
LINE
8
BLACK
6
CONTINUOUS
10
6.0717880314960633
20
-5.0899090157480318
11
6.0625216535433069
21
-5.0852758267716531
0
LINE
8
BLACK
6
CONTINUOUS
10
6.0625216535433069
20
-5.0852758267716531
11
6.0470137795275587
21
-5.0852758267716531
0
LINE
8
BLACK
6
CONTINUOUS
10
6.0470137795275587
20
-5.0852758267716531
11
6.0369040157480311
21
-5.0903307086614173
0
LINE
8
BLACK
6
CONTINUOUS
10
6.0369040157480311
20
-5.0903307086614173
11
6.0331141732283466
21
-5.0941205905511806
0
LINE
8
BLACK
6
CONTINUOUS
10
6.0331141732283466
20
-5.0941205905511806
11
6.0331141732283466
21
-5.1642784645669293
0
LINE
8
BLACK
6
CONTINUOUS
10
6.0331141732283466
20
-5.1642784645669293
11
6.0323757480314963
21
-5.1670343700787402
0
LINE
8
BLACK
6
CONTINUOUS
10
6.0323757480314963
20
-5.1670343700787402
11
6.0303582677165357
21
-5.1690518503937009
0
LINE
8
BLACK
6
CONTINUOUS
10
6.0303582677165357
20
-5.1690518503937009
11
6.0276023622047239
21
-5.1697902755905512
0
LINE
8
BLACK
6
CONTINUOUS
10
6.0276023622047239
20
-5.1697902755905512
11
6.024846456692913
21
-5.1690518503937009
0
LINE
8
BLACK
6
CONTINUOUS
10
6.024846456692913
20
-5.1690518503937009
11
6.0228289763779523
21
-5.1670343700787402
0
LINE
8
BLACK
6
CONTINUOUS
10
6.0228289763779523
20
-5.1670343700787402
11
6.022090551181102
21
-5.1642784645669293
0
LINE
8
BLACK
6
CONTINUOUS
10
6.022090551181102
20
-5.1642784645669293
11
6.022090551181102
21
-5.0797640157480313
0
LINE
8
BLACK
6
CONTINUOUS
10
6.022090551181102
20
-5.0797640157480313
11
6.0228289763779523
21
-5.0770081102362203
0
LINE
8
BLACK
6
CONTINUOUS
10
6.0228289763779523
20
-5.0770081102362203
11
6.024846456692913
21
-5.0749906299212597
0
LINE
8
BLACK
6
CONTINUOUS
10
6.024846456692913
20
-5.0749906299212597
11
6.0276023622047239
21
-5.0742522047244094
0
LINE
8
BLACK
6
CONTINUOUS
10
6.0276023622047239
20
-5.0742522047244094
11
6.0303582677165357
21
-5.0749906299212597
0
LINE
8
BLACK
6
CONTINUOUS
10
6.0303582677165357
20
-5.0749906299212597
11
6.0323757480314963
21
-5.0770081102362203
0
LINE
8
BLACK
6
CONTINUOUS
10
6.0323757480314963
20
-5.0770081102362203
11
6.0331141732283466
21
-5.0797640157480313
0
LINE
8
BLACK
6
CONTINUOUS
10
6.0331141732283466
20
-5.0797640157480313
11
6.0331141732283466
21
-5.0799008267716532
0
LINE
8
BLACK
6
CONTINUOUS
10
6.0331141732283466
20
-5.0799008267716532
11
6.0432475984251965
21
-5.0748341338582676
0
LINE
8
BLACK
6
CONTINUOUS
10
6.0432475984251965
20
-5.0748341338582676
11
6.0444887007874017
21
-5.0745801181102363
0
LINE
8
BLACK
6
CONTINUOUS
10
6.0444887007874017
20
-5.0745801181102363
11
6.0457125984251965
21
-5.0742522047244094
0
LINE
8
BLACK
6
CONTINUOUS
10
6.0457125984251965
20
-5.0742522047244094
11
6.0638228346456691
21
-5.0742522047244094
0
LINE
8
BLACK
6
CONTINUOUS
10
6.0638228346456691
20
-5.0742522047244094
11
6.0650464566929134
21
-5.0745800393700788
0
LINE
8
BLACK
6
CONTINUOUS
10
6.4472771653543308
20
-4.5155783070866145
11
6.4492946456692914
21
-4.5175957874015751
0
LINE
8
BLACK
6
CONTINUOUS
10
6.4492946456692914
20
-4.5175957874015751
11
6.4500330708661417
21
-4.520351692913386
0
LINE
8
BLACK
6
CONTINUOUS
10
6.4500330708661417
20
-4.520351692913386
11
6.4500330708661417
21
-4.5329501181102358
0
LINE
8
BLACK
6
CONTINUOUS
10
6.4500330708661417
20
-4.5329501181102358
11
6.4867784645669291
21
-4.5329501181102358
0
LINE
8
BLACK
6
CONTINUOUS
10
6.4867784645669291
20
-4.5329501181102358
11
6.48953437007874
21
-4.5336885433070861
0
LINE
8
BLACK
6
CONTINUOUS
10
6.48953437007874
20
-4.5336885433070861
11
6.4915518503937006
21
-4.5357060236220468
0
LINE
8
BLACK
6
CONTINUOUS
10
6.4915518503937006
20
-4.5357060236220468
11
6.4922902755905509
21
-4.5384619291338586
0
LINE
8
BLACK
6
CONTINUOUS
10
6.4922902755905509
20
-4.5384619291338586
11
6.4915518503937006
21
-4.5412178346456695
0
LINE
8
BLACK
6
CONTINUOUS
10
6.4915518503937006
20
-4.5412178346456695
11
6.48953437007874
21
-4.5432353149606302
0
LINE
8
BLACK
6
CONTINUOUS
10
6.48953437007874
20
-4.5432353149606302
11
6.4867784645669291
21
-4.5439737401574805
0
LINE
8
BLACK
6
CONTINUOUS
10
6.4867784645669291
20
-4.5439737401574805
11
6.4500330708661417
21
-4.5439737401574805
0
LINE
8
BLACK
6
CONTINUOUS
10
6.4500330708661417
20
-4.5439737401574805
11
6.4500330708661417
21
-4.5988293700787404
0
LINE
8
BLACK
6
CONTINUOUS
10
6.4500330708661417
20
-4.5988293700787404
11
6.4498033858267716
21
-4.5996864960629917
0
LINE
8
BLACK
6
CONTINUOUS
10
6.4498033858267716
20
-4.5996864960629917
11
6.4497502362204724
21
-4.6005723622047245
0
LINE
8
BLACK
6
CONTINUOUS
10
6.4497502362204724
20
-4.6005723622047245
11
6.4494402362204726
21
-4.6010418503937007
0
LINE
8
BLACK
6
CONTINUOUS
10
6.4494402362204726
20
-4.6010418503937007
11
6.4492946456692914
21
-4.6015852755905513
0
LINE
8
BLACK
6
CONTINUOUS
10
6.4492946456692914
20
-4.6015852755905513
11
6.4486672047244094
21
-4.6022126771653546
0
LINE
8
BLACK
6
CONTINUOUS
10
6.4486672047244094
20
-4.6022126771653546
11
6.4481782283464568
21
-4.602953346456693
0
LINE
8
BLACK
6
CONTINUOUS
10
6.4481782283464568
20
-4.602953346456693
11
6.4476749212598428
21
-4.6032049606299212
0
LINE
8
BLACK
6
CONTINUOUS
10
6.4476749212598428
20
-4.6032049606299212
11
6.4472771653543308
21
-4.6036027559055119
0
LINE
8
BLACK
6
CONTINUOUS
10
6.4472771653543308
20
-4.6036027559055119
11
6.4464199999999998
21
-4.6038324015748033
0
LINE
8
BLACK
6
CONTINUOUS
10
6.4464199999999998
20
-4.6038324015748033
11
6.4456262598425198
21
-4.6042292913385827
0
LINE
8
BLACK
6
CONTINUOUS
10
6.4456262598425198
20
-4.6042292913385827
11
6.4450646456692908
21
-4.6041955511811024
0
LINE
8
BLACK
6
CONTINUOUS
10
6.4450646456692908
20
-4.6041955511811024
11
6.4445212598425199
21
-4.6043411811023622
0
LINE
8
BLACK
6
CONTINUOUS
10
6.4445212598425199
20
-4.6043411811023622
11
6.4436640944881889
21
-4.6041114960629921
0
LINE
8
BLACK
6
CONTINUOUS
10
6.4436640944881889
20
-4.6041114960629921
11
6.4427782677165357
21
-4.6040583464566929
0
LINE
8
BLACK
6
CONTINUOUS
10
6.4427782677165357
20
-4.6040583464566929
11
6.3522270866141728
21
-4.5738746456692914
0
LINE
8
BLACK
6
CONTINUOUS
10
6.3522270866141728
20
-4.5738746456692914
11
6.3498461023622044
21
-4.572302598425197
0
LINE
8
BLACK
6
CONTINUOUS
10
6.3498461023622044
20
-4.572302598425197
11
6.3485701574803146
21
-4.5697506692913388
0
LINE
8
BLACK
6
CONTINUOUS
10
6.3485701574803146
20
-4.5697506692913388
11
6.3487411023622045
21
-4.5669026771653538
0
LINE
8
BLACK
6
CONTINUOUS
10
6.3487411023622045
20
-4.5669026771653538
11
6.3503131496062988
21
-4.5645216929133854
0
LINE
8
BLACK
6
CONTINUOUS
10
6.3503131496062988
20
-4.5645216929133854
11
6.352865078740157
21
-4.5632457480314956
0
LINE
8
BLACK
6
CONTINUOUS
10
6.352865078740157
20
-4.5632457480314956
11
6.355713070866142
21
-4.5634166929133855
0
LINE
8
BLACK
6
CONTINUOUS
10
6.355713070866142
20
-4.5634166929133855
11
6.4390094488188971
21
-4.5911821259842522
0
LINE
8
BLACK
6
CONTINUOUS
10
6.4390094488188971
20
-4.5911821259842522
11
6.4390094488188971
21
-4.5439737401574805
0
LINE
8
BLACK
6
CONTINUOUS
10
6.4390094488188971
20
-4.5439737401574805
11
6.4022640157480311
21
-4.5439737401574805
0
LINE
8
BLACK
6
CONTINUOUS
10
6.4022640157480311
20
-4.5439737401574805
11
6.3995081102362201
21
-4.5432353149606302
0
LINE
8
BLACK
6
CONTINUOUS
10
6.3995081102362201
20
-4.5432353149606302
11
6.3974906299212595
21
-4.5412178346456695
0
LINE
8
BLACK
6
CONTINUOUS
10
6.3974906299212595
20
-4.5412178346456695
11
6.3967522047244092
21
-4.5384619291338586
0
LINE
8
BLACK
6
CONTINUOUS
10
6.3967522047244092
20
-4.5384619291338586
11
6.3974906299212595
21
-4.5357060236220468
0
LINE
8
BLACK
6
CONTINUOUS
10
6.3974906299212595
20
-4.5357060236220468
11
6.3995081102362201
21
-4.5336885433070861
0
LINE
8
BLACK
6
CONTINUOUS
10
6.3995081102362201
20
-4.5336885433070861
11
6.4022640157480311
21
-4.5329501181102358
0
LINE
8
BLACK
6
CONTINUOUS
10
6.4022640157480311
20
-4.5329501181102358
11
6.4390094488188971
21
-4.5329501181102358
0
LINE
8
BLACK
6
CONTINUOUS
10
6.4390094488188971
20
-4.5329501181102358
11
6.4390094488188971
21
-4.520351692913386
0
LINE
8
BLACK
6
CONTINUOUS
10
6.4390094488188971
20
-4.520351692913386
11
6.4397478740157474
21
-4.5175957874015751
0
LINE
8
BLACK
6
CONTINUOUS
10
6.4397478740157474
20
-4.5175957874015751
11
6.4417653543307081
21
-4.5155783070866145
0
LINE
8
BLACK
6
CONTINUOUS
10
6.4417653543307081
20
-4.5155783070866145
11
6.4445212598425199
21
-4.5148398818897633
0
LINE
8
BLACK
6
CONTINUOUS
10
6.4445212598425199
20
-4.5148398818897633
11
6.4472771653543308
21
-4.5155783070866145
0
LINE
8
BLACK
6
CONTINUOUS
10
6.4391413385826768
20
-4.4003176771653543
11
6.439821299212598
21
-4.4003062598425196
0
LINE
8
BLACK
6
CONTINUOUS
10
6.439821299212598
20
-4.4003062598425196
11
6.4639683070866143
21
-4.4063430314960632
0
LINE
8
BLACK
6
CONTINUOUS
10
6.4639683070866143
20
-4.4063430314960632
11
6.4645002755905514
21
-4.4066383464566927
0
LINE
8
BLACK
6
CONTINUOUS
10
6.4645002755905514
20
-4.4066383464566927
11
6.4650964566929137
21
-4.4067603543307081
0
LINE
8
BLACK
6
CONTINUOUS
10
6.4650964566929137
20
-4.4067603543307081
11
6.4771699212598426
21
-4.412797086614173
0
LINE
8
BLACK
6
CONTINUOUS
10
6.4771699212598426
20
-4.412797086614173
11
6.4778338976377947
21
-4.4133858661417324
0
LINE
8
BLACK
6
CONTINUOUS
10
6.4778338976377947
20
-4.4133858661417324
11
6.4786024015748032
21
-4.4138295669291336
0
LINE
8
BLACK
6
CONTINUOUS
10
6.4786024015748032
20
-4.4138295669291336
11
6.4846391338582672
21
-4.4198662992125985
0
LINE
8
BLACK
6
CONTINUOUS
10
6.4846391338582672
20
-4.4198662992125985
11
6.4850827952755905
21
-4.4206347244094486
0
LINE
8
BLACK
6
CONTINUOUS
10
6.4850827952755905
20
-4.4206347244094486
11
6.4856716535433065
21
-4.4212987795275591
0
LINE
8
BLACK
6
CONTINUOUS
10
6.4856716535433065
20
-4.4212987795275591
11
6.4917083858267715
21
-4.4333722834645668
0
LINE
8
BLACK
6
CONTINUOUS
10
6.4917083858267715
20
-4.4333722834645668
11
6.4919624015748028
21
-4.4346135826771649
0
LINE
8
BLACK
6
CONTINUOUS
10
6.4919624015748028
20
-4.4346135826771649
11
6.4922902755905509
21
-4.435837244094488
0
LINE
8
BLACK
6
CONTINUOUS
10
6.4922902755905509
20
-4.435837244094488
11
6.4922902755905509
21
-4.4479107480314957
0
LINE
8
BLACK
6
CONTINUOUS
10
6.4922902755905509
20
-4.4479107480314957
11
6.4919624015748028
21
-4.44913437007874
0
LINE
8
BLACK
6
CONTINUOUS
10
6.4919624015748028
20
-4.44913437007874
11
6.4917083858267715
21
-4.4503757086614169
0
LINE
8
BLACK
6
CONTINUOUS
10
6.4917083858267715
20
-4.4503757086614169
11
6.4856716535433065
21
-4.4624491732283467
0
LINE
8
BLACK
6
CONTINUOUS
10
6.4856716535433065
20
-4.4624491732283467
11
6.4850828346456693
21
-4.4631131496062988
0
LINE
8
BLACK
6
CONTINUOUS
10
6.4850828346456693
20
-4.4631131496062988
11
6.4846391732283459
21
-4.4638816535433072
0
LINE
8
BLACK
6
CONTINUOUS
10
6.4846391732283459
20
-4.4638816535433072
11
6.4786024015748032
21
-4.46991842519685
0
LINE
8
BLACK
6
CONTINUOUS
10
6.4786024015748032
20
-4.46991842519685
11
6.4778338976377947
21
-4.4703620866141733
0
LINE
8
BLACK
6
CONTINUOUS
10
6.4778338976377947
20
-4.4703620866141733
11
6.4771699212598426
21
-4.4709509055118106
0
LINE
8
BLACK
6
CONTINUOUS
10
6.4771699212598426
20
-4.4709509055118106
11
6.4650964566929137
21
-4.4769876377952755
0
LINE
8
BLACK
6
CONTINUOUS
10
6.4650964566929137
20
-4.4769876377952755
11
6.4645003149606302
21
-4.4771096062992122
0
LINE
8
BLACK
6
CONTINUOUS
10
6.4645003149606302
20
-4.4771096062992122
11
6.4639683070866143
21
-4.4774049606299213
0
LINE
8
BLACK
6
CONTINUOUS
10
6.4639683070866143
20
-4.4774049606299213
11
6.439821299212598
21
-4.4834416929133853
0
LINE
8
BLACK
6
CONTINUOUS
10
6.439821299212598
20
-4.4834416929133853
11
6.4391413385826768
21
-4.4834302362204728
0
LINE
8
BLACK
6
CONTINUOUS
10
6.4391413385826768
20
-4.4834302362204728
11
6.4384844881889762
21
-4.4836062598425199
0
LINE
8
BLACK
6
CONTINUOUS
10
6.4384844881889762
20
-4.4836062598425199
11
6.4083007874015747
21
-4.4836062598425199
0
LINE
8
BLACK
6
CONTINUOUS
10
6.4083007874015747
20
-4.4836062598425199
11
6.4076438976377954
21
-4.4834302362204728
0
LINE
8
BLACK
6
CONTINUOUS
10
6.4076438976377954
20
-4.4834302362204728
11
6.4069639763779529
21
-4.4834416929133853
0
LINE
8
BLACK
6
CONTINUOUS
10
6.4069639763779529
20
-4.4834416929133853
11
6.3828169685039366
21
-4.4774049606299213
0
LINE
8
BLACK
6
CONTINUOUS
10
6.3828169685039366
20
-4.4774049606299213
11
6.382284921259842
21
-4.4771096062992122
0
LINE
8
BLACK
6
CONTINUOUS
10
6.382284921259842
20
-4.4771096062992122
11
6.3816888188976373
21
-4.4769876377952755
0
LINE
8
BLACK
6
CONTINUOUS
10
6.3816888188976373
20
-4.4769876377952755
11
6.3696153543307084
21
-4.4709509055118106
0
LINE
8
BLACK
6
CONTINUOUS
10
6.3696153543307084
20
-4.4709509055118106
11
6.3689513385826766
21
-4.4703620866141733
0
LINE
8
BLACK
6
CONTINUOUS
10
6.3689513385826766
20
-4.4703620866141733
11
6.3681828740157478
21
-4.46991842519685
0
LINE
8
BLACK
6
CONTINUOUS
10
6.3681828740157478
20
-4.46991842519685
11
6.362146102362205
21
-4.4638816535433072
0
LINE
8
BLACK
6
CONTINUOUS
10
6.362146102362205
20
-4.4638816535433072
11
6.3617024015748029
21
-4.4631131496062988
0
LINE
8
BLACK
6
CONTINUOUS
10
6.3617024015748029
20
-4.4631131496062988
11
6.3611136220472435
21
-4.4624491732283467
0
LINE
8
BLACK
6
CONTINUOUS
10
6.3611136220472435
20
-4.4624491732283467
11
6.3550768897637795
21
-4.4503757086614169
0
LINE
8
BLACK
6
CONTINUOUS
10
6.3550768897637795
20
-4.4503757086614169
11
6.3548228346456694
21
-4.44913437007874
0
LINE
8
BLACK
6
CONTINUOUS
10
6.3548228346456694
20
-4.44913437007874
11
6.354495
21
-4.4479107480314957
0
LINE
8
BLACK
6
CONTINUOUS
10
6.354495
20
-4.4479107480314957
11
6.354495
21
-4.435837244094488
0
LINE
8
BLACK
6
CONTINUOUS
10
6.354495
20
-4.435837244094488
11
6.3548228346456694
21
-4.4346135826771649
0
LINE
8
BLACK
6
CONTINUOUS
10
6.3548228346456694
20
-4.4346135826771649
11
6.3550768897637795
21
-4.4333722834645668
0
LINE
8
BLACK
6
CONTINUOUS
10
6.3550768897637795
20
-4.4333722834645668
11
6.3611136220472435
21
-4.4212987795275591
0
LINE
8
BLACK
6
CONTINUOUS
10
6.3611136220472435
20
-4.4212987795275591
11
6.3617024015748029
21
-4.4206347637795274
0
LINE
8
BLACK
6
CONTINUOUS
10
6.3617024015748029
20
-4.4206347637795274
11
6.362146102362205
21
-4.4198662992125985
0
LINE
8
BLACK
6
CONTINUOUS
10
6.362146102362205
20
-4.4198662992125985
11
6.3681828740157478
21
-4.4138295669291336
0
LINE
8
BLACK
6
CONTINUOUS
10
6.3681828740157478
20
-4.4138295669291336
11
6.3689513385826766
21
-4.4133858661417324
0
LINE
8
BLACK
6
CONTINUOUS
10
6.3689513385826766
20
-4.4133858661417324
11
6.3696153543307084
21
-4.412797086614173
0
LINE
8
BLACK
6
CONTINUOUS
10
6.3696153543307084
20
-4.412797086614173
11
6.3816888188976373
21
-4.4067603543307081
0
LINE
8
BLACK
6
CONTINUOUS
10
6.3816888188976373
20
-4.4067603543307081
11
6.3822849606299208
21
-4.4066383464566927
0
LINE
8
BLACK
6
CONTINUOUS
10
6.3822849606299208
20
-4.4066383464566927
11
6.3828169685039366
21
-4.4063430314960632
0
LINE
8
BLACK
6
CONTINUOUS
10
6.3828169685039366
20
-4.4063430314960632
11
6.4069639763779529
21
-4.4003062598425196
0
LINE
8
BLACK
6
CONTINUOUS
10
6.4069639763779529
20
-4.4003062598425196
11
6.4076438976377954
21
-4.4003176771653543
0
LINE
8
BLACK
6
CONTINUOUS
10
6.4076438976377954
20
-4.4003176771653543
11
6.4083007874015747
21
-4.4001416929133859
0
LINE
8
BLACK
6
CONTINUOUS
10
6.4083007874015747
20
-4.4001416929133859
11
6.4384844881889762
21
-4.4001416929133859
0
LINE
8
BLACK
6
CONTINUOUS
10
6.4384844881889762
20
-4.4001416929133859
11
6.4391413385826768
21
-4.4003176771653543
0
LINE
8
BLACK
6
CONTINUOUS
10
6.3860775984251967
20
-4.4168907480314958
11
6.3753451968503931
21
-4.4222569685039366
0
LINE
8
BLACK
6
CONTINUOUS
10
6.3753451968503931
20
-4.4222569685039366
11
6.3705734645669292
21
-4.4270286614173227
0
LINE
8
BLACK
6
CONTINUOUS
10
6.3705734645669292
20
-4.4270286614173227
11
6.3655186220472437
21
-4.4371383858267714
0
LINE
8
BLACK
6
CONTINUOUS
10
6.3655186220472437
20
-4.4371383858267714
11
6.3655186220472437
21
-4.4466095669291335
0
LINE
8
BLACK
6
CONTINUOUS
10
6.3655186220472437
20
-4.4466095669291335
11
6.3705734645669292
21
-4.4567192519685035
0
LINE
8
BLACK
6
CONTINUOUS
10
6.3705734645669292
20
-4.4567192519685035
11
6.3753452755905506
21
-4.4614910629921258
0
LINE
8
BLACK
6
CONTINUOUS
10
6.3753452755905506
20
-4.4614910629921258
11
6.386077559055118
21
-4.4668572047244091
0
LINE
8
BLACK
6
CONTINUOUS
10
6.386077559055118
20
-4.4668572047244091
11
6.4089793307086609
21
-4.4725826377952753
0
LINE
8
BLACK
6
CONTINUOUS
10
6.4089793307086609
20
-4.4725826377952753
11
6.4378059448818892
21
-4.4725826377952753
0
LINE
8
BLACK
6
CONTINUOUS
10
6.4378059448818892
20
-4.4725826377952753
11
6.4607076771653542
21
-4.4668572047244091
0
LINE
8
BLACK
6
CONTINUOUS
10
6.4607076771653542
20
-4.4668572047244091
11
6.4714399999999994
21
-4.4614910629921258
0
LINE
8
BLACK
6
CONTINUOUS
10
6.4714399999999994
20
-4.4614910629921258
11
6.4762118110236218
21
-4.4567192519685035
0
LINE
8
BLACK
6
CONTINUOUS
10
6.4762118110236218
20
-4.4567192519685035
11
6.4812666535433072
21
-4.4466095669291335
0
LINE
8
BLACK
6
CONTINUOUS
10
6.4812666535433072
20
-4.4466095669291335
11
6.4812666535433072
21
-4.4371383858267714
0
LINE
8
BLACK
6
CONTINUOUS
10
6.4812666535433072
20
-4.4371383858267714
11
6.4762118110236218
21
-4.4270287007874014
0
LINE
8
BLACK
6
CONTINUOUS
10
6.4762118110236218
20
-4.4270287007874014
11
6.4714399999999994
21
-4.4222569291338578
0
LINE
8
BLACK
6
CONTINUOUS
10
6.4714399999999994
20
-4.4222569291338578
11
6.4607076377952755
21
-4.4168907480314958
0
LINE
8
BLACK
6
CONTINUOUS
10
6.4607076377952755
20
-4.4168907480314958
11
6.4378059448818892
21
-4.4111653149606296
0
LINE
8
BLACK
6
CONTINUOUS
10
6.4378059448818892
20
-4.4111653149606296
11
6.4089793307086609
21
-4.4111653149606296
0
LINE
8
BLACK
6
CONTINUOUS
10
6.4089793307086609
20
-4.4111653149606296
11
6.3860775984251967
21
-4.4168907480314958
0
LINE
8
BLACK
6
CONTINUOUS
10
6.4846391732283459
20
-4.3413886220472442
11
6.4906759055118108
21
-4.3474253543307082
0
LINE
8
BLACK
6
CONTINUOUS
10
6.4906759055118108
20
-4.3474253543307082
11
6.4910387007874011
21
-4.3480537401574804
0
LINE
8
BLACK
6
CONTINUOUS
10
6.4910387007874011
20
-4.3480537401574804
11
6.4915518503937006
21
-4.348566889763779
0
LINE
8
BLACK
6
CONTINUOUS
10
6.4915518503937006
20
-4.348566889763779
11
6.4917396456692913
21
-4.3492677559055117
0
LINE
8
BLACK
6
CONTINUOUS
10
6.4917396456692913
20
-4.3492677559055117
11
6.4921024803149603
21
-4.3498962204724405
0
LINE
8
BLACK
6
CONTINUOUS
10
6.4921024803149603
20
-4.3498962204724405
11
6.4921024803149603
21
-4.3506218897637794
0
LINE
8
BLACK
6
CONTINUOUS
10
6.4921024803149603
20
-4.3506218897637794
11
6.4922902755905509
21
-4.3513227952755908
0
LINE
8
BLACK
6
CONTINUOUS
10
6.4922902755905509
20
-4.3513227952755908
11
6.4921024803149603
21
-4.3520236614173227
0
LINE
8
BLACK
6
CONTINUOUS
10
6.4921024803149603
20
-4.3520236614173227
11
6.4921024803149603
21
-4.3527493700787403
0
LINE
8
BLACK
6
CONTINUOUS
10
6.4921024803149603
20
-4.3527493700787403
11
6.4917396456692913
21
-4.3533777952755903
0
LINE
8
BLACK
6
CONTINUOUS
10
6.4917396456692913
20
-4.3533777952755903
11
6.4915518503937006
21
-4.3540787007874018
0
LINE
8
BLACK
6
CONTINUOUS
10
6.4915518503937006
20
-4.3540787007874018
11
6.4910387007874011
21
-4.3545918110236217
0
LINE
8
BLACK
6
CONTINUOUS
10
6.4910387007874011
20
-4.3545918110236217
11
6.4906759055118108
21
-4.3552202362204726
0
LINE
8
BLACK
6
CONTINUOUS
10
6.4906759055118108
20
-4.3552202362204726
11
6.4846391732283459
21
-4.3612569685039366
0
LINE
8
BLACK
6
CONTINUOUS
10
6.4846391732283459
20
-4.3612569685039366
11
6.4821683070866136
21
-4.3626835433070861
0
LINE
8
BLACK
6
CONTINUOUS
10
6.4821683070866136
20
-4.3626835433070861
11
6.4793151574803147
21
-4.3626835433070861
0
LINE
8
BLACK
6
CONTINUOUS
10
6.4793151574803147
20
-4.3626835433070861
11
6.4768442913385824
21
-4.3612569685039366
0
LINE
8
BLACK
6
CONTINUOUS
10
6.4768442913385824
20
-4.3612569685039366
11
6.4708075196850396
21
-4.3552202362204726
0
LINE
8
BLACK
6
CONTINUOUS
10
6.4708075196850396
20
-4.3552202362204726
11
6.4704446850393698
21
-4.3545918110236217
0
LINE
8
BLACK
6
CONTINUOUS
10
6.4704446850393698
20
-4.3545918110236217
11
6.4699315748031498
21
-4.3540787007874018
0
LINE
8
BLACK
6
CONTINUOUS
10
6.4699315748031498
20
-4.3540787007874018
11
6.4697437401574804
21
-4.3533777952755903
0
LINE
8
BLACK
6
CONTINUOUS
10
6.4697437401574804
20
-4.3533777952755903
11
6.4693809448818893
21
-4.3527493700787403
0
LINE
8
BLACK
6
CONTINUOUS
10
6.4693809448818893
20
-4.3527493700787403
11
6.4693809448818893
21
-4.3520236614173227
0
LINE
8
BLACK
6
CONTINUOUS
10
6.4693809448818893
20
-4.3520236614173227
11
6.4691931496062987
21
-4.3513227952755908
0
LINE
8
BLACK
6
CONTINUOUS
10
6.4691931496062987
20
-4.3513227952755908
11
6.4693809448818893
21
-4.3506218897637794
0
LINE
8
BLACK
6
CONTINUOUS
10
6.4693809448818893
20
-4.3506218897637794
11
6.4693809448818893
21
-4.3498962204724405
0
LINE
8
BLACK
6
CONTINUOUS
10
6.4693809448818893
20
-4.3498962204724405
11
6.4697437401574804
21
-4.3492677559055117
0
LINE
8
BLACK
6
CONTINUOUS
10
6.4697437401574804
20
-4.3492677559055117
11
6.4699315748031498
21
-4.348566889763779
0
LINE
8
BLACK
6
CONTINUOUS
10
6.4699315748031498
20
-4.348566889763779
11
6.4704446850393698
21
-4.3480537401574804
0
LINE
8
BLACK
6
CONTINUOUS
10
6.4704446850393698
20
-4.3480537401574804
11
6.4708075196850396
21
-4.3474253543307082
0
LINE
8
BLACK
6
CONTINUOUS
10
6.4708075196850396
20
-4.3474253543307082
11
6.4768442913385824
21
-4.3413886220472442
0
LINE
8
BLACK
6
CONTINUOUS
10
6.4768442913385824
20
-4.3413886220472442
11
6.4793151574803147
21
-4.3399620472440947
0
LINE
8
BLACK
6
CONTINUOUS
10
6.4793151574803147
20
-4.3399620472440947
11
6.4821683070866136
21
-4.3399620472440947
0
LINE
8
BLACK
6
CONTINUOUS
10
6.4821683070866136
20
-4.3399620472440947
11
6.4846391732283459
21
-4.3413886220472442
0
LINE
8
BLACK
6
CONTINUOUS
10
6.48953437007874
20
-4.2197777559055121
11
6.4915518503937006
21
-4.2217952362204727
0
LINE
8
BLACK
6
CONTINUOUS
10
6.4915518503937006
20
-4.2217952362204727
11
6.4922902755905509
21
-4.2245511417322836
0
LINE
8
BLACK
6
CONTINUOUS
10
6.4922902755905509
20
-4.2245511417322836
11
6.4922902755905509
21
-4.2969920866141731
0
LINE
8
BLACK
6
CONTINUOUS
10
6.4922902755905509
20
-4.2969920866141731
11
6.4915518503937006
21
-4.299747992125984
0
LINE
8
BLACK
6
CONTINUOUS
10
6.4915518503937006
20
-4.299747992125984
11
6.48953437007874
21
-4.3017654724409446
0
LINE
8
BLACK
6
CONTINUOUS
10
6.48953437007874
20
-4.3017654724409446
11
6.4867784645669291
21
-4.3025038976377949
0
LINE
8
BLACK
6
CONTINUOUS
10
6.4867784645669291
20
-4.3025038976377949
11
6.4840225590551182
21
-4.3017654724409446
0
LINE
8
BLACK
6
CONTINUOUS
10
6.4840225590551182
20
-4.3017654724409446
11
6.4820050787401575
21
-4.299747992125984
0
LINE
8
BLACK
6
CONTINUOUS
10
6.4820050787401575
20
-4.299747992125984
11
6.4812666535433072
21
-4.2969920866141731
0
LINE
8
BLACK
6
CONTINUOUS
10
6.4812666535433072
20
-4.2969920866141731
11
6.4812666535433072
21
-4.2662834251968507
0
LINE
8
BLACK
6
CONTINUOUS
10
6.4812666535433072
20
-4.2662834251968507
11
6.3782110629921256
21
-4.2662834251968507
0
LINE
8
BLACK
6
CONTINUOUS
10
6.3782110629921256
20
-4.2662834251968507
11
6.3811744488188973
21
-4.2682590157480318
0
LINE
8
BLACK
6
CONTINUOUS
10
6.3811744488188973
20
-4.2682590157480318
11
6.3815377559055113
21
-4.268672440944882
0
LINE
8
BLACK
6
CONTINUOUS
10
6.3815377559055113
20
-4.268672440944882
11
6.3820144881889762
21
-4.2689476771653538
0
LINE
8
BLACK
6
CONTINUOUS
10
6.3820144881889762
20
-4.2689476771653538
11
6.3940879921259839
21
-4.2810211811023624
0
LINE
8
BLACK
6
CONTINUOUS
10
6.3940879921259839
20
-4.2810211811023624
11
6.3945316535433072
21
-4.2817896456692912
0
LINE
8
BLACK
6
CONTINUOUS
10
6.3945316535433072
20
-4.2817896456692912
11
6.3951204724409445
21
-4.282453661417323
0
LINE
8
BLACK
6
CONTINUOUS
10
6.3951204724409445
20
-4.282453661417323
11
6.4011572047244094
21
-4.2945271259842519
0
LINE
8
BLACK
6
CONTINUOUS
10
6.4011572047244094
20
-4.2945271259842519
11
6.4017292125984246
21
-4.2973223228346455
0
LINE
8
BLACK
6
CONTINUOUS
10
6.4017292125984246
20
-4.2973223228346455
11
6.400826968503937
21
-4.3000290551181104
0
LINE
8
BLACK
6
CONTINUOUS
10
6.400826968503937
20
-4.3000290551181104
11
6.3986922440944882
21
-4.3019220078740155
0
LINE
8
BLACK
6
CONTINUOUS
10
6.3986922440944882
20
-4.3019220078740155
11
6.3958970472440946
21
-4.3024940157480316
0
LINE
8
BLACK
6
CONTINUOUS
10
6.3958970472440946
20
-4.3024940157480316
11
6.3931903149606297
21
-4.301591771653543
0
LINE
8
BLACK
6
CONTINUOUS
10
6.3931903149606297
20
-4.301591771653543
11
6.3912973622047247
21
-4.2994570472440943
0
LINE
8
BLACK
6
CONTINUOUS
10
6.3912973622047247
20
-4.2994570472440943
11
6.3856606299212597
21
-4.2881835826771653
0
LINE
8
BLACK
6
CONTINUOUS
10
6.3856606299212597
20
-4.2881835826771653
11
6.3746054724409449
21
-4.2771284251968504
0
LINE
8
BLACK
6
CONTINUOUS
10
6.3746054724409449
20
-4.2771284251968504
11
6.356949409448819
21
-4.2653577165354326
0
LINE
8
BLACK
6
CONTINUOUS
10
6.356949409448819
20
-4.2653577165354326
11
6.3561209055118111
21
-4.2644149999999996
0
LINE
8
BLACK
6
CONTINUOUS
10
6.3561209055118111
20
-4.2644149999999996
11
6.3552334251968503
21
-4.2635275196850388
0
LINE
8
BLACK
6
CONTINUOUS
10
6.3552334251968503
20
-4.2635275196850388
11
6.3551862598425197
21
-4.2633514960629917
0
LINE
8
BLACK
6
CONTINUOUS
10
6.3551862598425197
20
-4.2633514960629917
11
6.3550659448818898
21
-4.2632146062992122
0
LINE
8
BLACK
6
CONTINUOUS
10
6.3550659448818898
20
-4.2632146062992122
11
6.3548197637795276
21
-4.26198374015748
0
LINE
8
BLACK
6
CONTINUOUS
10
6.3548197637795276
20
-4.26198374015748
11
6.354495
21
-4.2607716141732279
0
LINE
8
BLACK
6
CONTINUOUS
10
6.354495
20
-4.2607716141732279
11
6.3545421259842518
21
-4.2605955905511808
0
LINE
8
BLACK
6
CONTINUOUS
10
6.3545421259842518
20
-4.2605955905511808
11
6.3545064173228347
21
-4.2604168503937005
0
LINE
8
BLACK
6
CONTINUOUS
10
6.3545064173228347
20
-4.2604168503937005
11
6.3549085826771652
21
-4.2592279921259841
0
LINE
8
BLACK
6
CONTINUOUS
10
6.3549085826771652
20
-4.2592279921259841
11
6.3552334251968503
21
-4.258015708661417
0
LINE
8
BLACK
6
CONTINUOUS
10
6.3552334251968503
20
-4.258015708661417
11
6.3553622834645669
21
-4.2578868110236217
0
LINE
8
BLACK
6
CONTINUOUS
10
6.3553622834645669
20
-4.2578868110236217
11
6.3554207086614172
21
-4.2577142125984251
0
LINE
8
BLACK
6
CONTINUOUS
10
6.3554207086614172
20
-4.2577142125984251
11
6.3563633858267714
21
-4.2568857086614171
0
LINE
8
BLACK
6
CONTINUOUS
10
6.3563633858267714
20
-4.2568857086614171
11
6.3572509055118109
21
-4.2559982283464564
0
LINE
8
BLACK
6
CONTINUOUS
10
6.3572509055118109
20
-4.2559982283464564
11
6.3574268897637793
21
-4.2559510629921258
0
LINE
8
BLACK
6
CONTINUOUS
10
6.3574268897637793
20
-4.2559510629921258
11
6.3575638188976376
21
-4.2558307480314959
0
LINE
8
BLACK
6
CONTINUOUS
10
6.3575638188976376
20
-4.2558307480314959
11
6.358794645669291
21
-4.2555845669291337
0
LINE
8
BLACK
6
CONTINUOUS
10
6.358794645669291
20
-4.2555845669291337
11
6.3600068110236219
21
-4.2552598031496061
0
LINE
8
BLACK
6
CONTINUOUS
10
6.3600068110236219
20
-4.2552598031496061
11
6.4812666535433072
21
-4.2552598031496061
0
LINE
8
BLACK
6
CONTINUOUS
10
6.4812666535433072
20
-4.2552598031496061
11
6.4812666535433072
21
-4.2245511417322836
0
LINE
8
BLACK
6
CONTINUOUS
10
6.4812666535433072
20
-4.2245511417322836
11
6.4820050787401575
21
-4.2217952362204727
0
LINE
8
BLACK
6
CONTINUOUS
10
6.4820050787401575
20
-4.2217952362204727
11
6.4840225590551182
21
-4.2197777559055121
0
LINE
8
BLACK
6
CONTINUOUS
10
6.4840225590551182
20
-4.2197777559055121
11
6.4867784645669291
21
-4.2190393307086609
0
LINE
8
BLACK
6
CONTINUOUS
10
6.4867784645669291
20
-4.2190393307086609
11
6.48953437007874
21
-4.2197777559055121
0
LINE
8
BLACK
6
CONTINUOUS
10
6.4638551181102359
20
-4.098632244094488
11
6.4650964566929137
21
-4.0988862992125981
0
LINE
8
BLACK
6
CONTINUOUS
10
6.4650964566929137
20
-4.0988862992125981
11
6.4771699212598426
21
-4.1049230708661417
0
LINE
8
BLACK
6
CONTINUOUS
10
6.4771699212598426
20
-4.1049230708661417
11
6.4778338976377947
21
-4.1055118503937003
0
LINE
8
BLACK
6
CONTINUOUS
10
6.4778338976377947
20
-4.1055118503937003
11
6.4786024015748032
21
-4.1059555511811023
0
LINE
8
BLACK
6
CONTINUOUS
10
6.4786024015748032
20
-4.1059555511811023
11
6.4846391338582672
21
-4.1119922834645672
0
LINE
8
BLACK
6
CONTINUOUS
10
6.4846391338582672
20
-4.1119922834645672
11
6.4850827952755905
21
-4.1127607086614173
0
LINE
8
BLACK
6
CONTINUOUS
10
6.4850827952755905
20
-4.1127607086614173
11
6.4856716535433065
21
-4.1134247637795278
0
LINE
8
BLACK
6
CONTINUOUS
10
6.4856716535433065
20
-4.1134247637795278
11
6.4917083858267715
21
-4.1254982677165355
0
LINE
8
BLACK
6
CONTINUOUS
10
6.4917083858267715
20
-4.1254982677165355
11
6.4919624015748028
21
-4.1267395669291336
0
LINE
8
BLACK
6
CONTINUOUS
10
6.4919624015748028
20
-4.1267395669291336
11
6.4922902755905509
21
-4.1279632283464567
0
LINE
8
BLACK
6
CONTINUOUS
10
6.4922902755905509
20
-4.1279632283464567
11
6.4922902755905509
21
-4.1641837007874019
0
LINE
8
BLACK
6
CONTINUOUS
10
6.4922902755905509
20
-4.1641837007874019
11
6.4919624015748028
21
-4.1654073228346453
0
LINE
8
BLACK
6
CONTINUOUS
10
6.4919624015748028
20
-4.1654073228346453
11
6.4917083858267715
21
-4.166648661417323
0
LINE
8
BLACK
6
CONTINUOUS
10
6.4917083858267715
20
-4.166648661417323
11
6.4856716535433065
21
-4.178722125984252
0
LINE
8
BLACK
6
CONTINUOUS
10
6.4856716535433065
20
-4.178722125984252
11
6.4850828346456693
21
-4.179386102362205
0
LINE
8
BLACK
6
CONTINUOUS
10
6.4850828346456693
20
-4.179386102362205
11
6.4846391732283459
21
-4.1801546062992125
0
LINE
8
BLACK
6
CONTINUOUS
10
6.4846391732283459
20
-4.1801546062992125
11
6.4786024015748032
21
-4.1861913779527562
0
LINE
8
BLACK
6
CONTINUOUS
10
6.4786024015748032
20
-4.1861913779527562
11
6.4761315354330709
21
-4.1876179527559056
0
LINE
8
BLACK
6
CONTINUOUS
10
6.4761315354330709
20
-4.1876179527559056
11
6.4732783858267711
21
-4.1876179527559056
0
LINE
8
BLACK
6
CONTINUOUS
10
6.4732783858267711
20
-4.1876179527559056
11
6.4708075196850396
21
-4.1861913779527562
0
LINE
8
BLACK
6
CONTINUOUS
10
6.4708075196850396
20
-4.1861913779527562
11
6.4693809448818893
21
-4.1837205118110239
0
LINE
8
BLACK
6
CONTINUOUS
10
6.4693809448818893
20
-4.1837205118110239
11
6.4693809448818893
21
-4.1808673622047241
0
LINE
8
BLACK
6
CONTINUOUS
10
6.4693809448818893
20
-4.1808673622047241
11
6.4708075196850396
21
-4.1783964960629918
0
LINE
8
BLACK
6
CONTINUOUS
10
6.4708075196850396
20
-4.1783964960629918
11
6.4762118110236218
21
-4.1729922047244097
0
LINE
8
BLACK
6
CONTINUOUS
10
6.4762118110236218
20
-4.1729922047244097
11
6.4812666535433072
21
-4.1628825196850396
0
LINE
8
BLACK
6
CONTINUOUS
10
6.4812666535433072
20
-4.1628825196850396
11
6.4812666535433072
21
-4.1292643700787401
0
LINE
8
BLACK
6
CONTINUOUS
10
6.4812666535433072
20
-4.1292643700787401
11
6.4762118110236218
21
-4.1191546850393701
0
LINE
8
BLACK
6
CONTINUOUS
10
6.4762118110236218
20
-4.1191546850393701
11
6.4714399606299216
21
-4.1143828740157478
0
LINE
8
BLACK
6
CONTINUOUS
10
6.4714399606299216
20
-4.1143828740157478
11
6.4613303149606294
21
-4.1093280314960632
0
LINE
8
BLACK
6
CONTINUOUS
10
6.4613303149606294
20
-4.1093280314960632
11
6.4337489370078735
21
-4.1093280314960632
0
LINE
8
BLACK
6
CONTINUOUS
10
6.4337489370078735
20
-4.1093280314960632
11
6.4236392125984247
21
-4.1143828740157478
0
LINE
8
BLACK
6
CONTINUOUS
10
6.4236392125984247
20
-4.1143828740157478
11
6.418867440944882
21
-4.1191546456692913
0
LINE
8
BLACK
6
CONTINUOUS
10
6.418867440944882
20
-4.1191546456692913
11
6.4138125984251966
21
-4.1292643700787401
0
LINE
8
BLACK
6
CONTINUOUS
10
6.4138125984251966
20
-4.1292643700787401
11
6.4138125984251966
21
-4.1460734645669293
0
LINE
8
BLACK
6
CONTINUOUS
10
6.4138125984251966
20
-4.1460734645669293
11
6.4136716535433074
21
-4.1465994488188977
0
LINE
8
BLACK
6
CONTINUOUS
10
6.4136716535433074
20
-4.1465994488188977
11
6.4137078740157483
21
-4.1471427165354333
0
LINE
8
BLACK
6
CONTINUOUS
10
6.4137078740157483
20
-4.1471427165354333
11
6.4133084645669287
21
-4.1479548425196846
0
LINE
8
BLACK
6
CONTINUOUS
10
6.4133084645669287
20
-4.1479548425196846
11
6.4130741732283463
21
-4.1488293700787402
0
LINE
8
BLACK
6
CONTINUOUS
10
6.4130741732283463
20
-4.1488293700787402
11
6.4126890157480316
21
-4.1492144881889761
0
LINE
8
BLACK
6
CONTINUOUS
10
6.4126890157480316
20
-4.1492144881889761
11
6.4124488188976381
21
-4.1497029921259845
0
LINE
8
BLACK
6
CONTINUOUS
10
6.4124488188976381
20
-4.1497029921259845
11
6.4116968897637792
21
-4.1502066141732286
0
LINE
8
BLACK
6
CONTINUOUS
10
6.4116968897637792
20
-4.1502066141732286
11
6.4110566929133856
21
-4.1508468503937008
0
LINE
8
BLACK
6
CONTINUOUS
10
6.4110566929133856
20
-4.1508468503937008
11
6.4105307086614172
21
-4.1509877559055113
0
LINE
8
BLACK
6
CONTINUOUS
10
6.4105307086614172
20
-4.1509877559055113
11
6.4100783464566931
21
-4.1512907874015745
0
LINE
8
BLACK
6
CONTINUOUS
10
6.4100783464566931
20
-4.1512907874015745
11
6.4091751574803144
21
-4.1513509842519687
0
LINE
8
BLACK
6
CONTINUOUS
10
6.4091751574803144
20
-4.1513509842519687
11
6.4083007874015747
21
-4.1515852755905511
0
LINE
8
BLACK
6
CONTINUOUS
10
6.4083007874015747
20
-4.1515852755905511
11
6.4077747637795275
21
-4.151444330708661
0
LINE
8
BLACK
6
CONTINUOUS
10
6.4077747637795275
20
-4.151444330708661
11
6.4072314960629919
21
-4.1514805511811019
0
LINE
8
BLACK
6
CONTINUOUS
10
6.4072314960629919
20
-4.1514805511811019
11
6.4064192913385822
21
-4.1510811417322833
0
LINE
8
BLACK
6
CONTINUOUS
10
6.4064192913385822
20
-4.1510811417322833
11
6.4055448818897638
21
-4.1508468503937008
0
LINE
8
BLACK
6
CONTINUOUS
10
6.4055448818897638
20
-4.1508468503937008
11
6.405159763779527
21
-4.150461732283464
0
LINE
8
BLACK
6
CONTINUOUS
10
6.405159763779527
20
-4.150461732283464
11
6.4046712204724408
21
-4.1502214960629917
0
LINE
8
BLACK
6
CONTINUOUS
10
6.4046712204724408
20
-4.1502214960629917
11
6.3655186220472437
21
-4.1159629921259846
0
LINE
8
BLACK
6
CONTINUOUS
10
6.3655186220472437
20
-4.1159629921259846
11
6.3655186220472437
21
-4.1822939370078736
0
LINE
8
BLACK
6
CONTINUOUS
10
6.3655186220472437
20
-4.1822939370078736
11
6.3647801968503934
21
-4.1850498425196854
0
LINE
8
BLACK
6
CONTINUOUS
10
6.3647801968503934
20
-4.1850498425196854
11
6.3627627165354328
21
-4.187067322834646
0
LINE
8
BLACK
6
CONTINUOUS
10
6.3627627165354328
20
-4.187067322834646
11
6.3600068110236219
21
-4.1878057480314963
0
LINE
8
BLACK
6
CONTINUOUS
10
6.3600068110236219
20
-4.1878057480314963
11
6.3572509055118109
21
-4.187067322834646
0
LINE
8
BLACK
6
CONTINUOUS
10
6.3572509055118109
20
-4.187067322834646
11
6.3552334251968503
21
-4.1850498425196854
0
LINE
8
BLACK
6
CONTINUOUS
10
6.3552334251968503
20
-4.1850498425196854
11
6.354495
21
-4.1822939370078736
0
LINE
8
BLACK
6
CONTINUOUS
10
6.354495
20
-4.1822939370078736
11
6.354495
21
-4.1038162204724404
0
LINE
8
BLACK
6
CONTINUOUS
10
6.354495
20
-4.1038162204724404
11
6.3546359055118105
21
-4.1032903149606295
0
LINE
8
BLACK
6
CONTINUOUS
10
6.3546359055118105
20
-4.1032903149606295
11
6.3545996850393696
21
-4.1027469685039373
0
LINE
8
BLACK
6
CONTINUOUS
10
6.3545996850393696
20
-4.1027469685039373
11
6.3549991338582679
21
-4.1019346062992126
0
LINE
8
BLACK
6
CONTINUOUS
10
6.3549991338582679
20
-4.1019346062992126
11
6.3552334251968503
21
-4.1010603149606295
0
LINE
8
BLACK
6
CONTINUOUS
10
6.3552334251968503
20
-4.1010603149606295
11
6.3556184251968499
21
-4.1006752755905511
0
LINE
8
BLACK
6
CONTINUOUS
10
6.3556184251968499
20
-4.1006752755905511
11
6.3558587401574798
21
-4.1001866535433074
0
LINE
8
BLACK
6
CONTINUOUS
10
6.3558587401574798
20
-4.1001866535433074
11
6.3566108267716537
21
-4.0996828740157483
0
LINE
8
BLACK
6
CONTINUOUS
10
6.3566108267716537
20
-4.0996828740157483
11
6.3572509055118109
21
-4.0990428346456689
0
LINE
8
BLACK
6
CONTINUOUS
10
6.3572509055118109
20
-4.0990428346456689
11
6.3577768503937007
21
-4.0989018897637797
0
LINE
8
BLACK
6
CONTINUOUS
10
6.3577768503937007
20
-4.0989018897637797
11
6.3582292519685035
21
-4.0985988976377952
0
LINE
8
BLACK
6
CONTINUOUS
10
6.3582292519685035
20
-4.0985988976377952
11
6.3591324803149609
21
-4.0985386614173231
0
LINE
8
BLACK
6
CONTINUOUS
10
6.3591324803149609
20
-4.0985386614173231
11
6.3600068110236219
21
-4.0983044094488186
0
LINE
8
BLACK
6
CONTINUOUS
10
6.3600068110236219
20
-4.0983044094488186
11
6.3605326771653541
21
-4.0984453149606299
0
LINE
8
BLACK
6
CONTINUOUS
10
6.3605326771653541
20
-4.0984453149606299
11
6.3610760629921259
21
-4.098409094488189
0
LINE
8
BLACK
6
CONTINUOUS
10
6.3610760629921259
20
-4.098409094488189
11
6.3618883858267719
21
-4.0988085433070864
0
LINE
8
BLACK
6
CONTINUOUS
10
6.3618883858267719
20
-4.0988085433070864
11
6.3627627165354328
21
-4.0990428346456689
0
LINE
8
BLACK
6
CONTINUOUS
10
6.3627627165354328
20
-4.0990428346456689
11
6.3631477165354333
21
-4.0994278346456694
0
LINE
8
BLACK
6
CONTINUOUS
10
6.3631477165354333
20
-4.0994278346456694
11
6.3636363779527558
21
-4.0996681496062992
0
LINE
8
BLACK
6
CONTINUOUS
10
6.3636363779527558
20
-4.0996681496062992
11
6.4027889763779529
21
-4.133926692913386
0
LINE
8
BLACK
6
CONTINUOUS
10
6.4027889763779529
20
-4.133926692913386
11
6.4027889763779529
21
-4.1279632283464567
0
LINE
8
BLACK
6
CONTINUOUS
10
6.4027889763779529
20
-4.1279632283464567
11
6.4031168110236223
21
-4.1267395669291336
0
LINE
8
BLACK
6
CONTINUOUS
10
6.4031168110236223
20
-4.1267395669291336
11
6.4033708661417323
21
-4.1254982677165355
0
LINE
8
BLACK
6
CONTINUOUS
10
6.4033708661417323
20
-4.1254982677165355
11
6.4094075984251964
21
-4.1134247637795278
0
LINE
8
BLACK
6
CONTINUOUS
10
6.4094075984251964
20
-4.1134247637795278
11
6.4099963779527558
21
-4.112760748031496
0
LINE
8
BLACK
6
CONTINUOUS
10
6.4099963779527558
20
-4.112760748031496
11
6.410440078740157
21
-4.1119922834645672
0
LINE
8
BLACK
6
CONTINUOUS
10
6.410440078740157
20
-4.1119922834645672
11
6.4164768110236219
21
-4.1059555511811023
0
LINE
8
BLACK
6
CONTINUOUS
10
6.4164768110236219
20
-4.1059555511811023
11
6.4172452755905507
21
-4.1055118503937003
0
LINE
8
BLACK
6
CONTINUOUS
10
6.4172452755905507
20
-4.1055118503937003
11
6.4179092913385825
21
-4.1049230708661417
0
LINE
8
BLACK
6
CONTINUOUS
10
6.4179092913385825
20
-4.1049230708661417
11
6.4299827952755901
21
-4.0988862992125981
0
LINE
8
BLACK
6
CONTINUOUS
10
6.4299827952755901
20
-4.0988862992125981
11
6.4312241338582679
21
-4.098632244094488
0
LINE
8
BLACK
6
CONTINUOUS
10
6.4312241338582679
20
-4.098632244094488
11
6.4324477559055113
21
-4.0983044094488186
0
LINE
8
BLACK
6
CONTINUOUS
10
6.4324477559055113
20
-4.0983044094488186
11
6.4626314960629916
21
-4.0983044094488186
0
LINE
8
BLACK
6
CONTINUOUS
10
6.4626314960629916
20
-4.0983044094488186
11
6.4638551181102359
21
-4.098632244094488
0
LINE
8
BLACK
6
CONTINUOUS
10
6.48953437007874
20
-3.8394627952755904
11
6.4915518503937006
21
-3.8414802755905511
0
LINE
8
BLACK
6
CONTINUOUS
10
6.4915518503937006
20
-3.8414802755905511
11
6.4922902755905509
21
-3.844236181102362
0
LINE
8
BLACK
6
CONTINUOUS
10
6.4922902755905509
20
-3.844236181102362
11
6.4915518503937006
21
-3.8469920866141734
0
LINE
8
BLACK
6
CONTINUOUS
10
6.4915518503937006
20
-3.8469920866141734
11
6.48953437007874
21
-3.849009566929134
0
LINE
8
BLACK
6
CONTINUOUS
10
6.48953437007874
20
-3.849009566929134
11
6.4867784645669291
21
-3.8497479921259843
0
LINE
8
BLACK
6
CONTINUOUS
10
6.4867784645669291
20
-3.8497479921259843
11
6.4216754330708659
21
-3.8497479921259843
0
LINE
8
BLACK
6
CONTINUOUS
10
6.4216754330708659
20
-3.8497479921259843
11
6.4124090157480316
21
-3.8543811811023621
0
LINE
8
BLACK
6
CONTINUOUS
10
6.4124090157480316
20
-3.8543811811023621
11
6.4077758267716538
21
-3.8636475984251968
0
LINE
8
BLACK
6
CONTINUOUS
10
6.4077758267716538
20
-3.8636475984251968
11
6.4077758267716538
21
-3.8791554330708662
0
LINE
8
BLACK
6
CONTINUOUS
10
6.4077758267716538
20
-3.8791554330708662
11
6.4124090157480316
21
-3.8884218503937009
0
LINE
8
BLACK
6
CONTINUOUS
10
6.4124090157480316
20
-3.8884218503937009
11
6.4216754330708659
21
-3.8930550787401574
0
LINE
8
BLACK
6
CONTINUOUS
10
6.4216754330708659
20
-3.8930550787401574
11
6.4867784645669291
21
-3.8930550787401574
0
LINE
8
BLACK
6
CONTINUOUS
10
6.4867784645669291
20
-3.8930550787401574
11
6.48953437007874
21
-3.8937935039370077
0
LINE
8
BLACK
6
CONTINUOUS
10
6.48953437007874
20
-3.8937935039370077
11
6.4915518503937006
21
-3.8958109842519684
0
LINE
8
BLACK
6
CONTINUOUS
10
6.4915518503937006
20
-3.8958109842519684
11
6.4922902755905509
21
-3.8985668897637793
0
LINE
8
BLACK
6
CONTINUOUS
10
6.4922902755905509
20
-3.8985668897637793
11
6.4915518503937006
21
-3.9013227952755907
0
LINE
8
BLACK
6
CONTINUOUS
10
6.4915518503937006
20
-3.9013227952755907
11
6.48953437007874
21
-3.9033402755905513
0
LINE
8
BLACK
6
CONTINUOUS
10
6.48953437007874
20
-3.9033402755905513
11
6.4867784645669291
21
-3.9040787007874016
0
LINE
8
BLACK
6
CONTINUOUS
10
6.4867784645669291
20
-3.9040787007874016
11
6.4216754330708659
21
-3.9040787007874016
0
LINE
8
BLACK
6
CONTINUOUS
10
6.4216754330708659
20
-3.9040787007874016
11
6.4124090157480316
21
-3.9087118897637794
0
LINE
8
BLACK
6
CONTINUOUS
10
6.4124090157480316
20
-3.9087118897637794
11
6.4077758267716538
21
-3.9179783070866141
0
LINE
8
BLACK
6
CONTINUOUS
10
6.4077758267716538
20
-3.9179783070866141
11
6.4077758267716538
21
-3.9334861417322835
0
LINE
8
BLACK
6
CONTINUOUS
10
6.4077758267716538
20
-3.9334861417322835
11
6.4128306692913384
21
-3.9435958661417323
0
LINE
8
BLACK
6
CONTINUOUS
10
6.4128306692913384
20
-3.9435958661417323
11
6.4166205905511813
21
-3.9473857874015748
0
LINE
8
BLACK
6
CONTINUOUS
10
6.4166205905511813
20
-3.9473857874015748
11
6.4867784645669291
21
-3.9473857874015748
0
LINE
8
BLACK
6
CONTINUOUS
10
6.4867784645669291
20
-3.9473857874015748
11
6.48953437007874
21
-3.9481242125984251
0
LINE
8
BLACK
6
CONTINUOUS
10
6.48953437007874
20
-3.9481242125984251
11
6.4915518503937006
21
-3.9501416929133857
0
LINE
8
BLACK
6
CONTINUOUS
10
6.4915518503937006
20
-3.9501416929133857
11
6.4922902755905509
21
-3.9528975984251966
0
LINE
8
BLACK
6
CONTINUOUS
10
6.4922902755905509
20
-3.9528975984251966
11
6.4915518503937006
21
-3.955653503937008
0
LINE
8
BLACK
6
CONTINUOUS
10
6.4915518503937006
20
-3.955653503937008
11
6.48953437007874
21
-3.9576709842519686
0
LINE
8
BLACK
6
CONTINUOUS
10
6.48953437007874
20
-3.9576709842519686
11
6.4867784645669291
21
-3.9584094094488189
0
LINE
8
BLACK
6
CONTINUOUS
10
6.4867784645669291
20
-3.9584094094488189
11
6.4022640157480311
21
-3.9584094094488189
0
LINE
8
BLACK
6
CONTINUOUS
10
6.4022640157480311
20
-3.9584094094488189
11
6.3995081102362201
21
-3.9576709842519686
0
LINE
8
BLACK
6
CONTINUOUS
10
6.3995081102362201
20
-3.9576709842519686
11
6.3974906299212595
21
-3.955653503937008
0
LINE
8
BLACK
6
CONTINUOUS
10
6.3974906299212595
20
-3.955653503937008
11
6.3967522047244092
21
-3.9528975984251966
0
LINE
8
BLACK
6
CONTINUOUS
10
6.3967522047244092
20
-3.9528975984251966
11
6.3974906299212595
21
-3.9501416929133857
0
LINE
8
BLACK
6
CONTINUOUS
10
6.3974906299212595
20
-3.9501416929133857
11
6.3995081102362201
21
-3.9481242125984251
0
LINE
8
BLACK
6
CONTINUOUS
10
6.3995081102362201
20
-3.9481242125984251
11
6.4022640157480311
21
-3.9473857874015748
0
LINE
8
BLACK
6
CONTINUOUS
10
6.4022640157480311
20
-3.9473857874015748
11
6.402400826771653
21
-3.9473857874015748
0
LINE
8
BLACK
6
CONTINUOUS
10
6.402400826771653
20
-3.9473857874015748
11
6.3973340944881887
21
-3.9372523228346457
0
LINE
8
BLACK
6
CONTINUOUS
10
6.3973340944881887
20
-3.9372523228346457
11
6.3970800393700786
21
-3.9360109842519684
0
LINE
8
BLACK
6
CONTINUOUS
10
6.3970800393700786
20
-3.9360109842519684
11
6.3967522047244092
21
-3.9347873622047245
0
LINE
8
BLACK
6
CONTINUOUS
10
6.3967522047244092
20
-3.9347873622047245
11
6.3967522047244092
21
-3.9166771259842519
0
LINE
8
BLACK
6
CONTINUOUS
10
6.3967522047244092
20
-3.9166771259842519
11
6.3970800393700786
21
-3.9154534645669292
0
LINE
8
BLACK
6
CONTINUOUS
10
6.3970800393700786
20
-3.9154534645669292
11
6.3973340944881887
21
-3.9142121653543307
0
LINE
8
BLACK
6
CONTINUOUS
10
6.3973340944881887
20
-3.9142121653543307
11
6.4033708661417323
21
-3.9021386614173226
0
LINE
8
BLACK
6
CONTINUOUS
10
6.4033708661417323
20
-3.9021386614173226
11
6.4035944881889764
21
-3.9018864566929135
0
LINE
8
BLACK
6
CONTINUOUS
10
6.4035944881889764
20
-3.9018864566929135
11
6.4037011023622048
21
-3.9015666535433069
0
LINE
8
BLACK
6
CONTINUOUS
10
6.4037011023622048
20
-3.9015666535433069
11
6.4045293307086615
21
-3.9008321653543305
0
LINE
8
BLACK
6
CONTINUOUS
10
6.4045293307086615
20
-3.9008321653543305
11
6.4052638188976374
21
-3.9000039370078738
0
LINE
8
BLACK
6
CONTINUOUS
10
6.4052638188976374
20
-3.9000039370078738
11
6.405583622047244
21
-3.8998973228346454
0
LINE
8
BLACK
6
CONTINUOUS
10
6.405583622047244
20
-3.8998973228346454
11
6.4058358267716535
21
-3.8996737007874014
0
LINE
8
BLACK
6
CONTINUOUS
10
6.4058358267716535
20
-3.8996737007874014
11
6.4080494488188977
21
-3.8985668897637793
0
LINE
8
BLACK
6
CONTINUOUS
10
6.4080494488188977
20
-3.8985668897637793
11
6.4058358267716535
21
-3.8974600787401572
0
LINE
8
BLACK
6
CONTINUOUS
10
6.4058358267716535
20
-3.8974600787401572
11
6.405583622047244
21
-3.8972364173228344
0
LINE
8
BLACK
6
CONTINUOUS
10
6.405583622047244
20
-3.8972364173228344
11
6.4052638188976374
21
-3.8971298425196848
0
LINE
8
BLACK
6
CONTINUOUS
10
6.4052638188976374
20
-3.8971298425196848
11
6.4045293307086615
21
-3.8963015748031493
0
LINE
8
BLACK
6
CONTINUOUS
10
6.4045293307086615
20
-3.8963015748031493
11
6.4037011023622048
21
-3.8955671259842517
0
LINE
8
BLACK
6
CONTINUOUS
10
6.4037011023622048
20
-3.8955671259842517
11
6.4035944881889764
21
-3.8952472834645668
0
LINE
8
BLACK
6
CONTINUOUS
10
6.4035944881889764
20
-3.8952472834645668
11
6.4033708661417323
21
-3.894995118110236
0
LINE
8
BLACK
6
CONTINUOUS
10
6.4033708661417323
20
-3.894995118110236
11
6.3973340944881887
21
-3.8829216141732283
0
LINE
8
BLACK
6
CONTINUOUS
10
6.3973340944881887
20
-3.8829216141732283
11
6.3970800393700786
21
-3.8816802755905511
0
LINE
8
BLACK
6
CONTINUOUS
10
6.3970800393700786
20
-3.8816802755905511
11
6.3967522047244092
21
-3.8804566535433072
0
LINE
8
BLACK
6
CONTINUOUS
10
6.3967522047244092
20
-3.8804566535433072
11
6.3967522047244092
21
-3.8623464173228346
0
LINE
8
BLACK
6
CONTINUOUS
10
6.3967522047244092
20
-3.8623464173228346
11
6.3970800393700786
21
-3.8611227559055119
0
LINE
8
BLACK
6
CONTINUOUS
10
6.3970800393700786
20
-3.8611227559055119
11
6.3973340944881887
21
-3.8598814566929134
0
LINE
8
BLACK
6
CONTINUOUS
10
6.3973340944881887
20
-3.8598814566929134
11
6.4033708661417323
21
-3.8478079527559053
0
LINE
8
BLACK
6
CONTINUOUS
10
6.4033708661417323
20
-3.8478079527559053
11
6.4035944881889764
21
-3.8475557480314961
0
LINE
8
BLACK
6
CONTINUOUS
10
6.4035944881889764
20
-3.8475557480314961
11
6.4037011023622048
21
-3.8472359448818896
0
LINE
8
BLACK
6
CONTINUOUS
10
6.4037011023622048
20
-3.8472359448818896
11
6.4045293307086615
21
-3.8465014566929132
0
LINE
8
BLACK
6
CONTINUOUS
10
6.4045293307086615
20
-3.8465014566929132
11
6.4052638188976374
21
-3.8456732283464565
0
LINE
8
BLACK
6
CONTINUOUS
10
6.4052638188976374
20
-3.8456732283464565
11
6.405583622047244
21
-3.8455666141732281
0
LINE
8
BLACK
6
CONTINUOUS
10
6.405583622047244
20
-3.8455666141732281
11
6.4058358267716535
21
-3.8453429921259841
0
LINE
8
BLACK
6
CONTINUOUS
10
6.4058358267716535
20
-3.8453429921259841
11
6.4179092913385825
21
-3.8393062598425196
0
LINE
8
BLACK
6
CONTINUOUS
10
6.4179092913385825
20
-3.8393062598425196
11
6.4191505905511805
21
-3.8390522047244096
0
LINE
8
BLACK
6
CONTINUOUS
10
6.4191505905511805
20
-3.8390522047244096
11
6.4203742519685036
21
-3.8387243700787401
0
LINE
8
BLACK
6
CONTINUOUS
10
6.4203742519685036
20
-3.8387243700787401
11
6.4867784645669291
21
-3.8387243700787401
0
LINE
8
BLACK
6
CONTINUOUS
10
6.4867784645669291
20
-3.8387243700787401
11
6.48953437007874
21
-3.8394627952755904
0
LINE
8
BLACK
6
CONTINUOUS
10
6.48953437007874
20
-3.670433937007874
11
6.4915518503937006
21
-3.6724514173228346
0
LINE
8
BLACK
6
CONTINUOUS
10
6.4915518503937006
20
-3.6724514173228346
11
6.4922902755905509
21
-3.6752073228346456
0
LINE
8
BLACK
6
CONTINUOUS
10
6.4922902755905509
20
-3.6752073228346456
11
6.4915518503937006
21
-3.6779632283464565
0
LINE
8
BLACK
6
CONTINUOUS
10
6.4915518503937006
20
-3.6779632283464565
11
6.48953437007874
21
-3.6799807086614171
0
LINE
8
BLACK
6
CONTINUOUS
10
6.48953437007874
20
-3.6799807086614171
11
6.4867784645669291
21
-3.6807191338582674
0
LINE
8
BLACK
6
CONTINUOUS
10
6.4867784645669291
20
-3.6807191338582674
11
6.4216754330708659
21
-3.6807191338582674
0
LINE
8
BLACK
6
CONTINUOUS
10
6.4216754330708659
20
-3.6807191338582674
11
6.4124090157480316
21
-3.6853523228346456
0
LINE
8
BLACK
6
CONTINUOUS
10
6.4124090157480316
20
-3.6853523228346456
11
6.4077758267716538
21
-3.6946187401574804
0
LINE
8
BLACK
6
CONTINUOUS
10
6.4077758267716538
20
-3.6946187401574804
11
6.4077758267716538
21
-3.7101265748031493
0
LINE
8
BLACK
6
CONTINUOUS
10
6.4077758267716538
20
-3.7101265748031493
11
6.4124090157480316
21
-3.7193929921259841
0
LINE
8
BLACK
6
CONTINUOUS
10
6.4124090157480316
20
-3.7193929921259841
11
6.4216754330708659
21
-3.724026220472441
0
LINE
8
BLACK
6
CONTINUOUS
10
6.4216754330708659
20
-3.724026220472441
11
6.4867784645669291
21
-3.724026220472441
0
LINE
8
BLACK
6
CONTINUOUS
10
6.4867784645669291
20
-3.724026220472441
11
6.48953437007874
21
-3.7247646456692913
0
LINE
8
BLACK
6
CONTINUOUS
10
6.48953437007874
20
-3.7247646456692913
11
6.4915518503937006
21
-3.726782125984252
0
LINE
8
BLACK
6
CONTINUOUS
10
6.4915518503937006
20
-3.726782125984252
11
6.4922902755905509
21
-3.7295380314960629
0
LINE
8
BLACK
6
CONTINUOUS
10
6.4922902755905509
20
-3.7295380314960629
11
6.4915518503937006
21
-3.7322939370078738
0
LINE
8
BLACK
6
CONTINUOUS
10
6.4915518503937006
20
-3.7322939370078738
11
6.48953437007874
21
-3.7343114173228344
0
LINE
8
BLACK
6
CONTINUOUS
10
6.48953437007874
20
-3.7343114173228344
11
6.4867784645669291
21
-3.7350498425196847
0
LINE
8
BLACK
6
CONTINUOUS
10
6.4867784645669291
20
-3.7350498425196847
11
6.4216754330708659
21
-3.7350498425196847
0
LINE
8
BLACK
6
CONTINUOUS
10
6.4216754330708659
20
-3.7350498425196847
11
6.4124090157480316
21
-3.739683031496063
0
LINE
8
BLACK
6
CONTINUOUS
10
6.4124090157480316
20
-3.739683031496063
11
6.4077758267716538
21
-3.7489494488188977
0
LINE
8
BLACK
6
CONTINUOUS
10
6.4077758267716538
20
-3.7489494488188977
11
6.4077758267716538
21
-3.7644572834645667
0
LINE
8
BLACK
6
CONTINUOUS
10
6.4077758267716538
20
-3.7644572834645667
11
6.4128306692913384
21
-3.7745670078740154
0
LINE
8
BLACK
6
CONTINUOUS
10
6.4128306692913384
20
-3.7745670078740154
11
6.4166205905511813
21
-3.7783569291338583
0
LINE
8
BLACK
6
CONTINUOUS
10
6.4166205905511813
20
-3.7783569291338583
11
6.4867784645669291
21
-3.7783569291338583
0
LINE
8
BLACK
6
CONTINUOUS
10
6.4867784645669291
20
-3.7783569291338583
11
6.48953437007874
21
-3.7790953543307086
0
LINE
8
BLACK
6
CONTINUOUS
10
6.48953437007874
20
-3.7790953543307086
11
6.4915518503937006
21
-3.7811128346456693
0
LINE
8
BLACK
6
CONTINUOUS
10
6.4915518503937006
20
-3.7811128346456693
11
6.4922902755905509
21
-3.7838687401574802
0
LINE
8
BLACK
6
CONTINUOUS
10
6.4922902755905509
20
-3.7838687401574802
11
6.4915518503937006
21
-3.7866246456692911
0
LINE
8
BLACK
6
CONTINUOUS
10
6.4915518503937006
20
-3.7866246456692911
11
6.48953437007874
21
-3.7886421259842518
0
LINE
8
BLACK
6
CONTINUOUS
10
6.48953437007874
20
-3.7886421259842518
11
6.4867784645669291
21
-3.7893805511811021
0
LINE
8
BLACK
6
CONTINUOUS
10
6.4867784645669291
20
-3.7893805511811021
11
6.4022640157480311
21
-3.7893805511811021
0
LINE
8
BLACK
6
CONTINUOUS
10
6.4022640157480311
20
-3.7893805511811021
11
6.3995081102362201
21
-3.7886421259842518
0
LINE
8
BLACK
6
CONTINUOUS
10
6.3995081102362201
20
-3.7886421259842518
11
6.3974906299212595
21
-3.7866246456692911
0
LINE
8
BLACK
6
CONTINUOUS
10
6.3974906299212595
20
-3.7866246456692911
11
6.3967522047244092
21
-3.7838687401574802
0
LINE
8
BLACK
6
CONTINUOUS
10
6.3967522047244092
20
-3.7838687401574802
11
6.3974906299212595
21
-3.7811128346456693
0
LINE
8
BLACK
6
CONTINUOUS
10
6.3974906299212595
20
-3.7811128346456693
11
6.3995081102362201
21
-3.7790953543307086
0
LINE
8
BLACK
6
CONTINUOUS
10
6.3995081102362201
20
-3.7790953543307086
11
6.4022640157480311
21
-3.7783569291338583
0
LINE
8
BLACK
6
CONTINUOUS
10
6.4022640157480311
20
-3.7783569291338583
11
6.402400826771653
21
-3.7783569291338583
0
LINE
8
BLACK
6
CONTINUOUS
10
6.402400826771653
20
-3.7783569291338583
11
6.3973340944881887
21
-3.7682234645669292
0
LINE
8
BLACK
6
CONTINUOUS
10
6.3973340944881887
20
-3.7682234645669292
11
6.3970800393700786
21
-3.766982125984252
0
LINE
8
BLACK
6
CONTINUOUS
10
6.3970800393700786
20
-3.766982125984252
11
6.3967522047244092
21
-3.7657585039370076
0
LINE
8
BLACK
6
CONTINUOUS
10
6.3967522047244092
20
-3.7657585039370076
11
6.3967522047244092
21
-3.7476482677165355
0
LINE
8
BLACK
6
CONTINUOUS
10
6.3967522047244092
20
-3.7476482677165355
11
6.3970800393700786
21
-3.7464246062992124
0
LINE
8
BLACK
6
CONTINUOUS
10
6.3970800393700786
20
-3.7464246062992124
11
6.3973340944881887
21
-3.7451833070866143
0
LINE
8
BLACK
6
CONTINUOUS
10
6.3973340944881887
20
-3.7451833070866143
11
6.4033708661417323
21
-3.7331098031496062
0
LINE
8
BLACK
6
CONTINUOUS
10
6.4033708661417323
20
-3.7331098031496062
11
6.4035944881889764
21
-3.7328575984251966
0
LINE
8
BLACK
6
CONTINUOUS
10
6.4035944881889764
20
-3.7328575984251966
11
6.4037011023622048
21
-3.7325377952755905
0
LINE
8
BLACK
6
CONTINUOUS
10
6.4037011023622048
20
-3.7325377952755905
11
6.4045293307086615
21
-3.7318033070866141
0
LINE
8
BLACK
6
CONTINUOUS
10
6.4045293307086615
20
-3.7318033070866141
11
6.4052638188976374
21
-3.7309750787401574
0
LINE
8
BLACK
6
CONTINUOUS
10
6.4052638188976374
20
-3.7309750787401574
11
6.405583622047244
21
-3.730868464566929
0
LINE
8
BLACK
6
CONTINUOUS
10
6.405583622047244
20
-3.730868464566929
11
6.4058358267716535
21
-3.730644842519685
0
LINE
8
BLACK
6
CONTINUOUS
10
6.4058358267716535
20
-3.730644842519685
11
6.4080494488188977
21
-3.7295380314960629
0
LINE
8
BLACK
6
CONTINUOUS
10
6.4080494488188977
20
-3.7295380314960629
11
6.4058358267716535
21
-3.7284312204724408
0
LINE
8
BLACK
6
CONTINUOUS
10
6.4058358267716535
20
-3.7284312204724408
11
6.405583622047244
21
-3.728207559055118
0
LINE
8
BLACK
6
CONTINUOUS
10
6.405583622047244
20
-3.728207559055118
11
6.4052638188976374
21
-3.7281009842519683
0
LINE
8
BLACK
6
CONTINUOUS
10
6.4052638188976374
20
-3.7281009842519683
11
6.4045293307086615
21
-3.7272727165354329
0
LINE
8
BLACK
6
CONTINUOUS
10
6.4045293307086615
20
-3.7272727165354329
11
6.4037011023622048
21
-3.7265382677165353
0
LINE
8
BLACK
6
CONTINUOUS
10
6.4037011023622048
20
-3.7265382677165353
11
6.4035944881889764
21
-3.7262184251968504
0
LINE
8
BLACK
6
CONTINUOUS
10
6.4035944881889764
20
-3.7262184251968504
11
6.4033708661417323
21
-3.7259662598425196
0
LINE
8
BLACK
6
CONTINUOUS
10
6.4033708661417323
20
-3.7259662598425196
11
6.3973340944881887
21
-3.7138927559055119
0
LINE
8
BLACK
6
CONTINUOUS
10
6.3973340944881887
20
-3.7138927559055119
11
6.3970800393700786
21
-3.7126514173228347
0
LINE
8
BLACK
6
CONTINUOUS
10
6.3970800393700786
20
-3.7126514173228347
11
6.3967522047244092
21
-3.7114277952755903
0
LINE
8
BLACK
6
CONTINUOUS
10
6.3967522047244092
20
-3.7114277952755903
11
6.3967522047244092
21
-3.6933175590551182
0
LINE
8
BLACK
6
CONTINUOUS
10
6.3967522047244092
20
-3.6933175590551182
11
6.3970800393700786
21
-3.6920938976377951
0
LINE
8
BLACK
6
CONTINUOUS
10
6.3970800393700786
20
-3.6920938976377951
11
6.3973340944881887
21
-3.690852598425197
0
LINE
8
BLACK
6
CONTINUOUS
10
6.3973340944881887
20
-3.690852598425197
11
6.4033708661417323
21
-3.6787790944881888
0
LINE
8
BLACK
6
CONTINUOUS
10
6.4033708661417323
20
-3.6787790944881888
11
6.4035944881889764
21
-3.6785268897637793
0
LINE
8
BLACK
6
CONTINUOUS
10
6.4035944881889764
20
-3.6785268897637793
11
6.4037011023622048
21
-3.6782070866141732
0
LINE
8
BLACK
6
CONTINUOUS
10
6.4037011023622048
20
-3.6782070866141732
11
6.4045293307086615
21
-3.6774725984251968
0
LINE
8
BLACK
6
CONTINUOUS
10
6.4045293307086615
20
-3.6774725984251968
11
6.4052638188976374
21
-3.6766443700787401
0
LINE
8
BLACK
6
CONTINUOUS
10
6.4052638188976374
20
-3.6766443700787401
11
6.405583622047244
21
-3.6765377559055117
0
LINE
8
BLACK
6
CONTINUOUS
10
6.405583622047244
20
-3.6765377559055117
11
6.4058358267716535
21
-3.6763141338582677
0
LINE
8
BLACK
6
CONTINUOUS
10
6.4058358267716535
20
-3.6763141338582677
11
6.4179092913385825
21
-3.6702774015748032
0
LINE
8
BLACK
6
CONTINUOUS
10
6.4179092913385825
20
-3.6702774015748032
11
6.4191505905511805
21
-3.6700233464566927
0
LINE
8
BLACK
6
CONTINUOUS
10
6.4191505905511805
20
-3.6700233464566927
11
6.4203742519685036
21
-3.6696955118110237
0
LINE
8
BLACK
6
CONTINUOUS
10
6.4203742519685036
20
-3.6696955118110237
11
6.4867784645669291
21
-3.6696955118110237
0
LINE
8
BLACK
6
CONTINUOUS
10
6.4867784645669291
20
-3.6696955118110237
11
6.48953437007874
21
-3.670433937007874
  0
ENDSEC
  0
EOF
