  0
SECTION
  2
HEADER
  9
$ANGBASE
  50
0.0
  9
$ANGDIR
  70
1
  9
$MEASUREMENT
  70
0
  0
ENDSEC
  0
SECTION
  2
TABLES
  0
TABLE
  2
LTYPE
  70
4
  0
LTYPE
  5
40F
  2
CONTINUOUS
  70
0
  3
Solid line
  72
65
  73
0
  40
0.0
  0
LTYPE
  5
410
  2
DASHDOT
 70
0
  3
Dash Dot ____ _ ____ _
 72
65
 73
4
 40
2.0
 49
1.25
 49
-0.25
 49
0.25
 49
-0.25
  0
LTYPE
  5
411
  2
DASHED
 70
0
  3
Dashed __ __ __ __ __
 72
65
 73
2
 40
0.75
 49
0.5
 49
-0.25
  0
LTYPE
  5
43B
  2
DOTTED
 70
0
  3
Dotted .  .  .  .
 72
65
 73
2
 40
0.2
 49
0.0
 49
-0.2
  0
ENDTAB
  0
TABLE
  2
STYLE
  70
4
  0
STYLE
  2
KICAD
  70
0
  40
0
  41
1
  42
1
  50
0
  71
0
  3
isocp.shx
  0
STYLE
  2
KICADB
  70
0
  40
0
  41
1
  42
1
  50
0
  71
0
  3
isocp.shx
  0
STYLE
  2
KICADI
  70
0
  40
0
  41
1
  42
1
  50
15
  71
0
  3
isocp.shx
  0
STYLE
  2
KICADBI
  70
0
  40
0
  41
1
  42
1
  50
15
  71
0
  3
isocp.shx
  0
ENDTAB
  0
TABLE
  2
LAYER
  70
1
  0
LAYER
  2
BLACK
  70
0
  62
7
  6
CONTINUOUS
  0
ENDTAB
  0
ENDSEC
  0
SECTION
  2
ENTITIES
0
LINE
8
BLACK
6
CONTINUOUS
10
5.66769342519685
20
-4.6047257086614168
11
5.6815462204724412
21
-4.6077749606299214
0
LINE
8
BLACK
6
CONTINUOUS
10
5.6815462204724412
20
-4.6077749606299214
11
5.6949881102362205
21
-4.61230405511811
0
LINE
8
BLACK
6
CONTINUOUS
10
5.6949881102362205
20
-4.61230405511811
11
5.7078614960629919
21
-4.6182599212598427
0
LINE
8
BLACK
6
CONTINUOUS
10
5.7078614960629919
20
-4.6182599212598427
11
5.7200155118110239
21
-4.6255727559055115
0
LINE
8
BLACK
6
CONTINUOUS
10
5.7200155118110239
20
-4.6255727559055115
11
5.7313075984251967
21
-4.6341567716535428
0
LINE
8
BLACK
6
CONTINUOUS
10
5.7313075984251967
20
-4.6341567716535428
11
5.7416053937007874
21
-4.6439113779527554
0
LINE
8
BLACK
6
CONTINUOUS
10
5.7416053937007874
20
-4.6439113779527554
11
5.7507881889763777
21
-4.6547221653543307
0
LINE
8
BLACK
6
CONTINUOUS
10
5.7507881889763777
20
-4.6547221653543307
11
5.7587483070866137
21
-4.6664624409448816
0
LINE
8
BLACK
6
CONTINUOUS
10
5.7587483070866137
20
-4.6664624409448816
11
5.7653923622047243
21
-4.6789945275590554
0
LINE
8
BLACK
6
CONTINUOUS
10
5.7653923622047243
20
-4.6789945275590554
11
5.7706425590551182
21
-4.6921714960629917
0
LINE
8
BLACK
6
CONTINUOUS
10
5.7706425590551182
20
-4.6921714960629917
11
5.7744372834645672
21
-4.7058388582677164
0
LINE
8
BLACK
6
CONTINUOUS
10
5.7744372834645672
20
-4.7058388582677164
11
5.7767320866141727
21
-4.7198364173228349
0
LINE
8
BLACK
6
CONTINUOUS
10
5.7767320866141727
20
-4.7198364173228349
11
5.7774999999999999
21
-4.734
0
LINE
8
BLACK
6
CONTINUOUS
10
5.7774999999999999
20
-4.734
11
5.7767320866141727
21
-4.7481635826771651
0
LINE
8
BLACK
6
CONTINUOUS
10
5.7767320866141727
20
-4.7481635826771651
11
5.7744372834645672
21
-4.7621611417322836
0
LINE
8
BLACK
6
CONTINUOUS
10
5.7744372834645672
20
-4.7621611417322836
11
5.7706425590551182
21
-4.7758285039370074
0
LINE
8
BLACK
6
CONTINUOUS
10
5.7706425590551182
20
-4.7758285039370074
11
5.7653923622047243
21
-4.7890054724409445
0
LINE
8
BLACK
6
CONTINUOUS
10
5.7653923622047243
20
-4.7890054724409445
11
5.7587483070866137
21
-4.8015375590551184
0
LINE
8
BLACK
6
CONTINUOUS
10
5.7587483070866137
20
-4.8015375590551184
11
5.7507881889763777
21
-4.8132778346456693
0
LINE
8
BLACK
6
CONTINUOUS
10
5.7507881889763777
20
-4.8132778346456693
11
5.7416053937007874
21
-4.8240886220472436
0
LINE
8
BLACK
6
CONTINUOUS
10
5.7416053937007874
20
-4.8240886220472436
11
5.7313075984251967
21
-4.8338432283464563
0
LINE
8
BLACK
6
CONTINUOUS
10
5.7313075984251967
20
-4.8338432283464563
11
5.7200155118110239
21
-4.8424272440944884
0
LINE
8
BLACK
6
CONTINUOUS
10
5.7200155118110239
20
-4.8424272440944884
11
5.7078614960629919
21
-4.8497400787401572
0
LINE
8
BLACK
6
CONTINUOUS
10
5.7078614960629919
20
-4.8497400787401572
11
5.6949881102362205
21
-4.8556959448818899
0
LINE
8
BLACK
6
CONTINUOUS
10
5.6949881102362205
20
-4.8556959448818899
11
5.6815462204724412
21
-4.8602250393700785
0
LINE
8
BLACK
6
CONTINUOUS
10
5.6815462204724412
20
-4.8602250393700785
11
5.66769342519685
21
-4.8632742913385822
0
LINE
8
BLACK
6
CONTINUOUS
10
5.66769342519685
20
-4.8632742913385822
11
5.6535922047244096
21
-4.8648078740157477
0
LINE
8
BLACK
6
CONTINUOUS
10
5.6535922047244096
20
-4.8648078740157477
11
5.6394077952755906
21
-4.8648078740157477
0
LINE
8
BLACK
6
CONTINUOUS
10
5.6394077952755906
20
-4.8648078740157477
11
5.6253065748031492
21
-4.8632742913385822
0
LINE
8
BLACK
6
CONTINUOUS
10
5.6253065748031492
20
-4.8632742913385822
11
5.611453779527559
21
-4.8602250393700785
0
LINE
8
BLACK
6
CONTINUOUS
10
5.611453779527559
20
-4.8602250393700785
11
5.5980118897637796
21
-4.8556959448818899
0
LINE
8
BLACK
6
CONTINUOUS
10
5.5980118897637796
20
-4.8556959448818899
11
5.5851385039370074
21
-4.8497400787401572
0
LINE
8
BLACK
6
CONTINUOUS
10
5.5851385039370074
20
-4.8497400787401572
11
5.5729844881889763
21
-4.8424272440944884
0
LINE
8
BLACK
6
CONTINUOUS
10
5.5729844881889763
20
-4.8424272440944884
11
5.5616924015748026
21
-4.8338432283464563
0
LINE
8
BLACK
6
CONTINUOUS
10
5.5616924015748026
20
-4.8338432283464563
11
5.5513946062992128
21
-4.8240886220472436
0
LINE
8
BLACK
6
CONTINUOUS
10
5.5513946062992128
20
-4.8240886220472436
11
5.5422118110236216
21
-4.8132778346456693
0
LINE
8
BLACK
6
CONTINUOUS
10
5.5422118110236216
20
-4.8132778346456693
11
5.5342516929133856
21
-4.8015375590551184
0
LINE
8
BLACK
6
CONTINUOUS
10
5.5342516929133856
20
-4.8015375590551184
11
5.5276076377952759
21
-4.7890054724409445
0
LINE
8
BLACK
6
CONTINUOUS
10
5.5276076377952759
20
-4.7890054724409445
11
5.5223574409448819
21
-4.7758285039370074
0
LINE
8
BLACK
6
CONTINUOUS
10
5.5223574409448819
20
-4.7758285039370074
11
5.518562716535433
21
-4.7621611417322836
0
LINE
8
BLACK
6
CONTINUOUS
10
5.518562716535433
20
-4.7621611417322836
11
5.5162679133858266
21
-4.7481635826771651
0
LINE
8
BLACK
6
CONTINUOUS
10
5.5162679133858266
20
-4.7481635826771651
11
5.5155000000000003
21
-4.734
0
LINE
8
BLACK
6
CONTINUOUS
10
5.5155000000000003
20
-4.734
11
5.5162679133858266
21
-4.7198364173228349
0
LINE
8
BLACK
6
CONTINUOUS
10
5.5162679133858266
20
-4.7198364173228349
11
5.518562716535433
21
-4.7058388582677164
0
LINE
8
BLACK
6
CONTINUOUS
10
5.518562716535433
20
-4.7058388582677164
11
5.5223574409448819
21
-4.6921714960629917
0
LINE
8
BLACK
6
CONTINUOUS
10
5.5223574409448819
20
-4.6921714960629917
11
5.5276076377952759
21
-4.6789945275590554
0
LINE
8
BLACK
6
CONTINUOUS
10
5.5276076377952759
20
-4.6789945275590554
11
5.5342516929133856
21
-4.6664624409448816
0
LINE
8
BLACK
6
CONTINUOUS
10
5.5342516929133856
20
-4.6664624409448816
11
5.5422118110236216
21
-4.6547221653543307
0
LINE
8
BLACK
6
CONTINUOUS
10
5.5422118110236216
20
-4.6547221653543307
11
5.5513946062992128
21
-4.6439113779527554
0
LINE
8
BLACK
6
CONTINUOUS
10
5.5513946062992128
20
-4.6439113779527554
11
5.5616924015748026
21
-4.6341567716535428
0
LINE
8
BLACK
6
CONTINUOUS
10
5.5616924015748026
20
-4.6341567716535428
11
5.5729844881889763
21
-4.6255727559055115
0
LINE
8
BLACK
6
CONTINUOUS
10
5.5729844881889763
20
-4.6255727559055115
11
5.5851385039370074
21
-4.6182599212598427
0
LINE
8
BLACK
6
CONTINUOUS
10
5.5851385039370074
20
-4.6182599212598427
11
5.5980118897637796
21
-4.61230405511811
0
LINE
8
BLACK
6
CONTINUOUS
10
5.5980118897637796
20
-4.61230405511811
11
5.611453779527559
21
-4.6077749606299214
0
LINE
8
BLACK
6
CONTINUOUS
10
5.611453779527559
20
-4.6077749606299214
11
5.6253065748031492
21
-4.6047257086614168
0
LINE
8
BLACK
6
CONTINUOUS
10
5.6253065748031492
20
-4.6047257086614168
11
5.6394077952755906
21
-4.6031921259842514
0
LINE
8
BLACK
6
CONTINUOUS
10
5.6394077952755906
20
-4.6031921259842514
11
5.6535922047244096
21
-4.6031921259842514
0
LINE
8
BLACK
6
CONTINUOUS
10
5.6535922047244096
20
-4.6031921259842514
11
5.66769342519685
21
-4.6047257086614168
0
LINE
8
BLACK
6
CONTINUOUS
10
6.0676934251968504
20
-4.6047257086614168
11
6.0815462204724406
21
-4.6077749606299214
0
LINE
8
BLACK
6
CONTINUOUS
10
6.0815462204724406
20
-4.6077749606299214
11
6.09498811023622
21
-4.61230405511811
0
LINE
8
BLACK
6
CONTINUOUS
10
6.09498811023622
20
-4.61230405511811
11
6.1078614960629922
21
-4.6182599212598427
0
LINE
8
BLACK
6
CONTINUOUS
10
6.1078614960629922
20
-4.6182599212598427
11
6.1200155118110233
21
-4.6255727559055115
0
LINE
8
BLACK
6
CONTINUOUS
10
6.1200155118110233
20
-4.6255727559055115
11
6.131307598425197
21
-4.6341567716535428
0
LINE
8
BLACK
6
CONTINUOUS
10
6.131307598425197
20
-4.6341567716535428
11
6.1416053937007868
21
-4.6439113779527554
0
LINE
8
BLACK
6
CONTINUOUS
10
6.1416053937007868
20
-4.6439113779527554
11
6.150788188976378
21
-4.6547221653543307
0
LINE
8
BLACK
6
CONTINUOUS
10
6.150788188976378
20
-4.6547221653543307
11
6.158748307086614
21
-4.6664624409448816
0
LINE
8
BLACK
6
CONTINUOUS
10
6.158748307086614
20
-4.6664624409448816
11
6.1653923622047246
21
-4.6789945275590554
0
LINE
8
BLACK
6
CONTINUOUS
10
6.1653923622047246
20
-4.6789945275590554
11
6.1706425590551177
21
-4.6921714960629917
0
LINE
8
BLACK
6
CONTINUOUS
10
6.1706425590551177
20
-4.6921714960629917
11
6.1744372834645667
21
-4.7058388582677164
0
LINE
8
BLACK
6
CONTINUOUS
10
6.1744372834645667
20
-4.7058388582677164
11
6.1767320866141731
21
-4.7198364173228349
0
LINE
8
BLACK
6
CONTINUOUS
10
6.1767320866141731
20
-4.7198364173228349
11
6.1775000000000002
21
-4.734
0
LINE
8
BLACK
6
CONTINUOUS
10
6.1775000000000002
20
-4.734
11
6.1767320866141731
21
-4.7481635826771651
0
LINE
8
BLACK
6
CONTINUOUS
10
6.1767320866141731
20
-4.7481635826771651
11
6.1744372834645667
21
-4.7621611417322836
0
LINE
8
BLACK
6
CONTINUOUS
10
6.1744372834645667
20
-4.7621611417322836
11
6.1706425590551177
21
-4.7758285039370074
0
LINE
8
BLACK
6
CONTINUOUS
10
6.1706425590551177
20
-4.7758285039370074
11
6.1653923622047246
21
-4.7890054724409445
0
LINE
8
BLACK
6
CONTINUOUS
10
6.1653923622047246
20
-4.7890054724409445
11
6.158748307086614
21
-4.8015375590551184
0
LINE
8
BLACK
6
CONTINUOUS
10
6.158748307086614
20
-4.8015375590551184
11
6.150788188976378
21
-4.8132778346456693
0
LINE
8
BLACK
6
CONTINUOUS
10
6.150788188976378
20
-4.8132778346456693
11
6.1416053937007868
21
-4.8240886220472436
0
LINE
8
BLACK
6
CONTINUOUS
10
6.1416053937007868
20
-4.8240886220472436
11
6.131307598425197
21
-4.8338432283464563
0
LINE
8
BLACK
6
CONTINUOUS
10
6.131307598425197
20
-4.8338432283464563
11
6.1200155118110233
21
-4.8424272440944884
0
LINE
8
BLACK
6
CONTINUOUS
10
6.1200155118110233
20
-4.8424272440944884
11
6.1078614960629922
21
-4.8497400787401572
0
LINE
8
BLACK
6
CONTINUOUS
10
6.1078614960629922
20
-4.8497400787401572
11
6.09498811023622
21
-4.8556959448818899
0
LINE
8
BLACK
6
CONTINUOUS
10
6.09498811023622
20
-4.8556959448818899
11
6.0815462204724406
21
-4.8602250393700785
0
LINE
8
BLACK
6
CONTINUOUS
10
6.0815462204724406
20
-4.8602250393700785
11
6.0676934251968504
21
-4.8632742913385822
0
LINE
8
BLACK
6
CONTINUOUS
10
6.0676934251968504
20
-4.8632742913385822
11
6.0535922047244091
21
-4.8648078740157477
0
LINE
8
BLACK
6
CONTINUOUS
10
6.0535922047244091
20
-4.8648078740157477
11
6.03940779527559
21
-4.8648078740157477
0
LINE
8
BLACK
6
CONTINUOUS
10
6.03940779527559
20
-4.8648078740157477
11
6.0253065748031496
21
-4.8632742913385822
0
LINE
8
BLACK
6
CONTINUOUS
10
6.0253065748031496
20
-4.8632742913385822
11
6.0114537795275593
21
-4.8602250393700785
0
LINE
8
BLACK
6
CONTINUOUS
10
6.0114537795275593
20
-4.8602250393700785
11
5.9980118897637791
21
-4.8556959448818899
0
LINE
8
BLACK
6
CONTINUOUS
10
5.9980118897637791
20
-4.8556959448818899
11
5.9851385039370077
21
-4.8497400787401572
0
LINE
8
BLACK
6
CONTINUOUS
10
5.9851385039370077
20
-4.8497400787401572
11
5.9729844881889766
21
-4.8424272440944884
0
LINE
8
BLACK
6
CONTINUOUS
10
5.9729844881889766
20
-4.8424272440944884
11
5.961692401574803
21
-4.8338432283464563
0
LINE
8
BLACK
6
CONTINUOUS
10
5.961692401574803
20
-4.8338432283464563
11
5.9513946062992122
21
-4.8240886220472436
0
LINE
8
BLACK
6
CONTINUOUS
10
5.9513946062992122
20
-4.8240886220472436
11
5.9422118110236219
21
-4.8132778346456693
0
LINE
8
BLACK
6
CONTINUOUS
10
5.9422118110236219
20
-4.8132778346456693
11
5.9342516929133859
21
-4.8015375590551184
0
LINE
8
BLACK
6
CONTINUOUS
10
5.9342516929133859
20
-4.8015375590551184
11
5.9276076377952753
21
-4.7890054724409445
0
LINE
8
BLACK
6
CONTINUOUS
10
5.9276076377952753
20
-4.7890054724409445
11
5.9223574409448814
21
-4.7758285039370074
0
LINE
8
BLACK
6
CONTINUOUS
10
5.9223574409448814
20
-4.7758285039370074
11
5.9185627165354333
21
-4.7621611417322836
0
LINE
8
BLACK
6
CONTINUOUS
10
5.9185627165354333
20
-4.7621611417322836
11
5.9162679133858269
21
-4.7481635826771651
0
LINE
8
BLACK
6
CONTINUOUS
10
5.9162679133858269
20
-4.7481635826771651
11
5.9154999999999998
21
-4.734
0
LINE
8
BLACK
6
CONTINUOUS
10
5.9154999999999998
20
-4.734
11
5.9162679133858269
21
-4.7198364173228349
0
LINE
8
BLACK
6
CONTINUOUS
10
5.9162679133858269
20
-4.7198364173228349
11
5.9185627165354333
21
-4.7058388582677164
0
LINE
8
BLACK
6
CONTINUOUS
10
5.9185627165354333
20
-4.7058388582677164
11
5.9223574409448814
21
-4.6921714960629917
0
LINE
8
BLACK
6
CONTINUOUS
10
5.9223574409448814
20
-4.6921714960629917
11
5.9276076377952753
21
-4.6789945275590554
0
LINE
8
BLACK
6
CONTINUOUS
10
5.9276076377952753
20
-4.6789945275590554
11
5.9342516929133859
21
-4.6664624409448816
0
LINE
8
BLACK
6
CONTINUOUS
10
5.9342516929133859
20
-4.6664624409448816
11
5.9422118110236219
21
-4.6547221653543307
0
LINE
8
BLACK
6
CONTINUOUS
10
5.9422118110236219
20
-4.6547221653543307
11
5.9513946062992122
21
-4.6439113779527554
0
LINE
8
BLACK
6
CONTINUOUS
10
5.9513946062992122
20
-4.6439113779527554
11
5.961692401574803
21
-4.6341567716535428
0
LINE
8
BLACK
6
CONTINUOUS
10
5.961692401574803
20
-4.6341567716535428
11
5.9729844881889766
21
-4.6255727559055115
0
LINE
8
BLACK
6
CONTINUOUS
10
5.9729844881889766
20
-4.6255727559055115
11
5.9851385039370077
21
-4.6182599212598427
0
LINE
8
BLACK
6
CONTINUOUS
10
5.9851385039370077
20
-4.6182599212598427
11
5.9980118897637791
21
-4.61230405511811
0
LINE
8
BLACK
6
CONTINUOUS
10
5.9980118897637791
20
-4.61230405511811
11
6.0114537795275593
21
-4.6077749606299214
0
LINE
8
BLACK
6
CONTINUOUS
10
6.0114537795275593
20
-4.6077749606299214
11
6.0253065748031496
21
-4.6047257086614168
0
LINE
8
BLACK
6
CONTINUOUS
10
6.0253065748031496
20
-4.6047257086614168
11
6.03940779527559
21
-4.6031921259842514
0
LINE
8
BLACK
6
CONTINUOUS
10
6.03940779527559
20
-4.6031921259842514
11
6.0535922047244091
21
-4.6031921259842514
0
LINE
8
BLACK
6
CONTINUOUS
10
6.0535922047244091
20
-4.6031921259842514
11
6.0676934251968504
21
-4.6047257086614168
0
LINE
8
BLACK
6
CONTINUOUS
10
5.6330307480314961
20
-4.4978044881889767
11
5.6343284251968502
21
-4.4986715748031498
0
LINE
8
BLACK
6
CONTINUOUS
10
5.6343284251968502
20
-4.4986715748031498
11
5.6351955118110233
21
-4.4999692519685039
0
LINE
8
BLACK
6
CONTINUOUS
10
5.6351955118110233
20
-4.4999692519685039
11
5.6354999999999995
21
-4.5015000000000001
0
LINE
8
BLACK
6
CONTINUOUS
10
5.6354999999999995
20
-4.5015000000000001
11
5.6354999999999995
21
-4.5664999999999996
0
LINE
8
BLACK
6
CONTINUOUS
10
5.6354999999999995
20
-4.5664999999999996
11
5.6351955118110233
21
-4.5680307480314957
0
LINE
8
BLACK
6
CONTINUOUS
10
5.6351955118110233
20
-4.5680307480314957
11
5.6343284251968502
21
-4.5693284251968507
0
LINE
8
BLACK
6
CONTINUOUS
10
5.6343284251968502
20
-4.5693284251968507
11
5.6330307480314961
21
-4.5701955118110238
0
LINE
8
BLACK
6
CONTINUOUS
10
5.6330307480314961
20
-4.5701955118110238
11
5.6315
21
-4.5705
0
LINE
8
BLACK
6
CONTINUOUS
10
5.6315
20
-4.5705
11
5.5664999999999996
21
-4.5705
0
LINE
8
BLACK
6
CONTINUOUS
10
5.5664999999999996
20
-4.5705
11
5.5649692519685034
21
-4.5701955118110238
0
LINE
8
BLACK
6
CONTINUOUS
10
5.5649692519685034
20
-4.5701955118110238
11
5.5636715748031493
21
-4.5693284251968507
0
LINE
8
BLACK
6
CONTINUOUS
10
5.5636715748031493
20
-4.5693284251968507
11
5.5628044881889762
21
-4.5680307480314957
0
LINE
8
BLACK
6
CONTINUOUS
10
5.5628044881889762
20
-4.5680307480314957
11
5.5625
21
-4.5664999999999996
0
LINE
8
BLACK
6
CONTINUOUS
10
5.5625
20
-4.5664999999999996
11
5.5625
21
-4.5015000000000001
0
LINE
8
BLACK
6
CONTINUOUS
10
5.5625
20
-4.5015000000000001
11
5.5628044881889762
21
-4.4999692519685039
0
LINE
8
BLACK
6
CONTINUOUS
10
5.5628044881889762
20
-4.4999692519685039
11
5.5636715748031493
21
-4.4986715748031498
0
LINE
8
BLACK
6
CONTINUOUS
10
5.5636715748031493
20
-4.4986715748031498
11
5.5649692519685034
21
-4.4978044881889767
0
LINE
8
BLACK
6
CONTINUOUS
10
5.5649692519685034
20
-4.4978044881889767
11
5.5664999999999996
21
-4.4974999999999996
0
LINE
8
BLACK
6
CONTINUOUS
10
5.5664999999999996
20
-4.4974999999999996
11
5.6315
21
-4.4974999999999996
0
LINE
8
BLACK
6
CONTINUOUS
10
5.6315
20
-4.4974999999999996
11
5.6330307480314961
21
-4.4978044881889767
0
LINE
8
BLACK
6
CONTINUOUS
10
5.7121842913385823
20
-4.4340840157480317
11
5.7134819685039373
21
-4.4349511023622048
0
LINE
8
BLACK
6
CONTINUOUS
10
5.7134819685039373
20
-4.4349511023622048
11
5.7143490551181104
21
-4.4362487795275589
0
LINE
8
BLACK
6
CONTINUOUS
10
5.7143490551181104
20
-4.4362487795275589
11
5.7146535433070866
21
-4.437779527559055
0
LINE
8
BLACK
6
CONTINUOUS
10
5.7146535433070866
20
-4.437779527559055
11
5.7146535433070866
21
-4.4771496062992124
0
LINE
8
BLACK
6
CONTINUOUS
10
5.7146535433070866
20
-4.4771496062992124
11
5.7143490551181104
21
-4.4786803543307085
0
LINE
8
BLACK
6
CONTINUOUS
10
5.7143490551181104
20
-4.4786803543307085
11
5.7134819685039373
21
-4.4799780314960627
0
LINE
8
BLACK
6
CONTINUOUS
10
5.7134819685039373
20
-4.4799780314960627
11
5.7121842913385823
21
-4.4808451181102358
0
LINE
8
BLACK
6
CONTINUOUS
10
5.7121842913385823
20
-4.4808451181102358
11
5.7106535433070862
21
-4.4811496062992129
0
LINE
8
BLACK
6
CONTINUOUS
10
5.7106535433070862
20
-4.4811496062992129
11
5.706744488188976
21
-4.4811496062992129
0
LINE
8
BLACK
6
CONTINUOUS
10
5.706744488188976
20
-4.4811496062992129
11
5.7067512204724409
21
-4.4811509448818896
0
LINE
8
BLACK
6
CONTINUOUS
10
5.7067512204724409
20
-4.4811509448818896
11
5.708048897637795
21
-4.4820180314960627
0
LINE
8
BLACK
6
CONTINUOUS
10
5.708048897637795
20
-4.4820180314960627
11
5.7089159842519681
21
-4.4833157086614168
0
LINE
8
BLACK
6
CONTINUOUS
10
5.7089159842519681
20
-4.4833157086614168
11
5.7092204724409443
21
-4.4848464566929129
0
LINE
8
BLACK
6
CONTINUOUS
10
5.7092204724409443
20
-4.4848464566929129
11
5.7092204724409443
21
-4.5281535433070861
0
LINE
8
BLACK
6
CONTINUOUS
10
5.7092204724409443
20
-4.5281535433070861
11
5.7089159842519681
21
-4.5296842913385822
0
LINE
8
BLACK
6
CONTINUOUS
10
5.7089159842519681
20
-4.5296842913385822
11
5.708048897637795
21
-4.5309819685039372
0
LINE
8
BLACK
6
CONTINUOUS
10
5.708048897637795
20
-4.5309819685039372
11
5.7067512204724409
21
-4.5318490551181103
0
LINE
8
BLACK
6
CONTINUOUS
10
5.7067512204724409
20
-4.5318490551181103
11
5.7052204724409448
21
-4.5321535433070865
0
LINE
8
BLACK
6
CONTINUOUS
10
5.7052204724409448
20
-4.5321535433070865
11
5.6658503937007874
21
-4.5321535433070865
0
LINE
8
BLACK
6
CONTINUOUS
10
5.6658503937007874
20
-4.5321535433070865
11
5.6643196456692912
21
-4.5318490551181103
0
LINE
8
BLACK
6
CONTINUOUS
10
5.6643196456692912
20
-4.5318490551181103
11
5.6630219685039371
21
-4.5309819685039372
0
LINE
8
BLACK
6
CONTINUOUS
10
5.6630219685039371
20
-4.5309819685039372
11
5.662154881889764
21
-4.5296842913385822
0
LINE
8
BLACK
6
CONTINUOUS
10
5.662154881889764
20
-4.5296842913385822
11
5.6618503937007869
21
-4.5281535433070861
0
LINE
8
BLACK
6
CONTINUOUS
10
5.6618503937007869
20
-4.5281535433070861
11
5.6618503937007869
21
-4.4848464566929129
0
LINE
8
BLACK
6
CONTINUOUS
10
5.6618503937007869
20
-4.4848464566929129
11
5.662154881889764
21
-4.4833157086614168
0
LINE
8
BLACK
6
CONTINUOUS
10
5.662154881889764
20
-4.4833157086614168
11
5.6630219685039371
21
-4.4820180314960627
0
LINE
8
BLACK
6
CONTINUOUS
10
5.6630219685039371
20
-4.4820180314960627
11
5.6643196456692912
21
-4.4811509448818896
0
LINE
8
BLACK
6
CONTINUOUS
10
5.6643196456692912
20
-4.4811509448818896
11
5.6658363779527559
21
-4.4808492125984252
0
LINE
8
BLACK
6
CONTINUOUS
10
5.6658363779527559
20
-4.4808492125984252
11
5.6658157086614169
21
-4.4808451181102358
0
LINE
8
BLACK
6
CONTINUOUS
10
5.6658157086614169
20
-4.4808451181102358
11
5.6645180314960628
21
-4.4799780314960627
0
LINE
8
BLACK
6
CONTINUOUS
10
5.6645180314960628
20
-4.4799780314960627
11
5.6636509448818897
21
-4.4786803543307085
0
LINE
8
BLACK
6
CONTINUOUS
10
5.6636509448818897
20
-4.4786803543307085
11
5.6633464566929135
21
-4.4771496062992124
0
LINE
8
BLACK
6
CONTINUOUS
10
5.6633464566929135
20
-4.4771496062992124
11
5.6633464566929135
21
-4.437779527559055
0
LINE
8
BLACK
6
CONTINUOUS
10
5.6633464566929135
20
-4.437779527559055
11
5.6636509448818897
21
-4.4362487795275589
0
LINE
8
BLACK
6
CONTINUOUS
10
5.6636509448818897
20
-4.4362487795275589
11
5.6645180314960628
21
-4.4349511023622048
0
LINE
8
BLACK
6
CONTINUOUS
10
5.6645180314960628
20
-4.4349511023622048
11
5.6658157086614169
21
-4.4340840157480317
0
LINE
8
BLACK
6
CONTINUOUS
10
5.6658157086614169
20
-4.4340840157480317
11
5.667346456692913
21
-4.4337795275590546
0
LINE
8
BLACK
6
CONTINUOUS
10
5.667346456692913
20
-4.4337795275590546
11
5.7106535433070862
21
-4.4337795275590546
0
LINE
8
BLACK
6
CONTINUOUS
10
5.7106535433070862
20
-4.4337795275590546
11
5.7121842913385823
21
-4.4340840157480317
0
LINE
8
BLACK
6
CONTINUOUS
10
5.7736803543307085
20
-4.4811509448818896
11
5.7749780314960626
21
-4.4820180314960627
0
LINE
8
BLACK
6
CONTINUOUS
10
5.7749780314960626
20
-4.4820180314960627
11
5.7758451181102357
21
-4.4833157086614168
0
LINE
8
BLACK
6
CONTINUOUS
10
5.7758451181102357
20
-4.4833157086614168
11
5.7761496062992128
21
-4.4848464566929129
0
LINE
8
BLACK
6
CONTINUOUS
10
5.7761496062992128
20
-4.4848464566929129
11
5.7761496062992128
21
-4.5281535433070861
0
LINE
8
BLACK
6
CONTINUOUS
10
5.7761496062992128
20
-4.5281535433070861
11
5.7758451181102357
21
-4.5296842913385822
0
LINE
8
BLACK
6
CONTINUOUS
10
5.7758451181102357
20
-4.5296842913385822
11
5.7749780314960626
21
-4.5309819685039372
0
LINE
8
BLACK
6
CONTINUOUS
10
5.7749780314960626
20
-4.5309819685039372
11
5.7736803543307085
21
-4.5318490551181103
0
LINE
8
BLACK
6
CONTINUOUS
10
5.7736803543307085
20
-4.5318490551181103
11
5.7721496062992124
21
-4.5321535433070865
0
LINE
8
BLACK
6
CONTINUOUS
10
5.7721496062992124
20
-4.5321535433070865
11
5.732779527559055
21
-4.5321535433070865
0
LINE
8
BLACK
6
CONTINUOUS
10
5.732779527559055
20
-4.5321535433070865
11
5.7312487795275588
21
-4.5318490551181103
0
LINE
8
BLACK
6
CONTINUOUS
10
5.7312487795275588
20
-4.5318490551181103
11
5.7299511023622047
21
-4.5309819685039372
0
LINE
8
BLACK
6
CONTINUOUS
10
5.7299511023622047
20
-4.5309819685039372
11
5.7290840157480316
21
-4.5296842913385822
0
LINE
8
BLACK
6
CONTINUOUS
10
5.7290840157480316
20
-4.5296842913385822
11
5.7287795275590554
21
-4.5281535433070861
0
LINE
8
BLACK
6
CONTINUOUS
10
5.7287795275590554
20
-4.5281535433070861
11
5.7287795275590554
21
-4.4848464566929129
0
LINE
8
BLACK
6
CONTINUOUS
10
5.7287795275590554
20
-4.4848464566929129
11
5.7290840157480316
21
-4.4833157086614168
0
LINE
8
BLACK
6
CONTINUOUS
10
5.7290840157480316
20
-4.4833157086614168
11
5.7299511023622047
21
-4.4820180314960627
0
LINE
8
BLACK
6
CONTINUOUS
10
5.7299511023622047
20
-4.4820180314960627
11
5.7312487795275588
21
-4.4811509448818896
0
LINE
8
BLACK
6
CONTINUOUS
10
5.7312487795275588
20
-4.4811509448818896
11
5.732779527559055
21
-4.4808464566929134
0
LINE
8
BLACK
6
CONTINUOUS
10
5.732779527559055
20
-4.4808464566929134
11
5.7721496062992124
21
-4.4808464566929134
0
LINE
8
BLACK
6
CONTINUOUS
10
5.7721496062992124
20
-4.4808464566929134
11
5.7736803543307085
21
-4.4811509448818896
0
LINE
8
BLACK
6
CONTINUOUS
10
6.0380307480314963
20
-4.4528044881889759
11
6.0393284251968504
21
-4.4536715748031499
0
LINE
8
BLACK
6
CONTINUOUS
10
6.0393284251968504
20
-4.4536715748031499
11
6.0401955118110235
21
-4.454969251968504
0
LINE
8
BLACK
6
CONTINUOUS
10
6.0401955118110235
20
-4.454969251968504
11
6.0404999999999998
21
-4.4565000000000001
0
LINE
8
BLACK
6
CONTINUOUS
10
6.0404999999999998
20
-4.4565000000000001
11
6.0404999999999998
21
-4.5214999999999996
0
LINE
8
BLACK
6
CONTINUOUS
10
6.0404999999999998
20
-4.5214999999999996
11
6.0401955118110235
21
-4.5230307480314957
0
LINE
8
BLACK
6
CONTINUOUS
10
6.0401955118110235
20
-4.5230307480314957
11
6.0393284251968504
21
-4.5243284251968499
0
LINE
8
BLACK
6
CONTINUOUS
10
6.0393284251968504
20
-4.5243284251968499
11
6.0380307480314963
21
-4.5251955118110239
0
LINE
8
BLACK
6
CONTINUOUS
10
6.0380307480314963
20
-4.5251955118110239
11
6.0365000000000002
21
-4.5255000000000001
0
LINE
8
BLACK
6
CONTINUOUS
10
6.0365000000000002
20
-4.5255000000000001
11
5.9714999999999998
21
-4.5255000000000001
0
LINE
8
BLACK
6
CONTINUOUS
10
5.9714999999999998
20
-4.5255000000000001
11
5.9699692519685037
21
-4.5251955118110239
0
LINE
8
BLACK
6
CONTINUOUS
10
5.9699692519685037
20
-4.5251955118110239
11
5.9686715748031496
21
-4.5243284251968499
0
LINE
8
BLACK
6
CONTINUOUS
10
5.9686715748031496
20
-4.5243284251968499
11
5.9678044881889765
21
-4.5230307480314957
0
LINE
8
BLACK
6
CONTINUOUS
10
5.9678044881889765
20
-4.5230307480314957
11
5.9675000000000002
21
-4.5214999999999996
0
LINE
8
BLACK
6
CONTINUOUS
10
5.9675000000000002
20
-4.5214999999999996
11
5.9675000000000002
21
-4.4565000000000001
0
LINE
8
BLACK
6
CONTINUOUS
10
5.9675000000000002
20
-4.4565000000000001
11
5.9678044881889765
21
-4.454969251968504
0
LINE
8
BLACK
6
CONTINUOUS
10
5.9678044881889765
20
-4.454969251968504
11
5.9686715748031496
21
-4.4536715748031499
0
LINE
8
BLACK
6
CONTINUOUS
10
5.9686715748031496
20
-4.4536715748031499
11
5.9699692519685037
21
-4.4528044881889759
0
LINE
8
BLACK
6
CONTINUOUS
10
5.9699692519685037
20
-4.4528044881889759
11
5.9714999999999998
21
-4.4524999999999997
0
LINE
8
BLACK
6
CONTINUOUS
10
5.9714999999999998
20
-4.4524999999999997
11
6.0365000000000002
21
-4.4524999999999997
0
LINE
8
BLACK
6
CONTINUOUS
10
6.0365000000000002
20
-4.4524999999999997
11
6.0380307480314963
21
-4.4528044881889759
0
LINE
8
BLACK
6
CONTINUOUS
10
6.138030748031496
20
-4.4528044881889759
11
6.1393284251968501
21
-4.4536715748031499
0
LINE
8
BLACK
6
CONTINUOUS
10
6.1393284251968501
20
-4.4536715748031499
11
6.1401955118110232
21
-4.454969251968504
0
LINE
8
BLACK
6
CONTINUOUS
10
6.1401955118110232
20
-4.454969251968504
11
6.1405000000000003
21
-4.4565000000000001
0
LINE
8
BLACK
6
CONTINUOUS
10
6.1405000000000003
20
-4.4565000000000001
11
6.1405000000000003
21
-4.5214999999999996
0
LINE
8
BLACK
6
CONTINUOUS
10
6.1405000000000003
20
-4.5214999999999996
11
6.1401955118110232
21
-4.5230307480314957
0
LINE
8
BLACK
6
CONTINUOUS
10
6.1401955118110232
20
-4.5230307480314957
11
6.1393284251968501
21
-4.5243284251968499
0
LINE
8
BLACK
6
CONTINUOUS
10
6.1393284251968501
20
-4.5243284251968499
11
6.138030748031496
21
-4.5251955118110239
0
LINE
8
BLACK
6
CONTINUOUS
10
6.138030748031496
20
-4.5251955118110239
11
6.1364999999999998
21
-4.5255000000000001
0
LINE
8
BLACK
6
CONTINUOUS
10
6.1364999999999998
20
-4.5255000000000001
11
6.0714999999999995
21
-4.5255000000000001
0
LINE
8
BLACK
6
CONTINUOUS
10
6.0714999999999995
20
-4.5255000000000001
11
6.0699692519685042
21
-4.5251955118110239
0
LINE
8
BLACK
6
CONTINUOUS
10
6.0699692519685042
20
-4.5251955118110239
11
6.0686715748031492
21
-4.5243284251968499
0
LINE
8
BLACK
6
CONTINUOUS
10
6.0686715748031492
20
-4.5243284251968499
11
6.0678044881889761
21
-4.5230307480314957
0
LINE
8
BLACK
6
CONTINUOUS
10
6.0678044881889761
20
-4.5230307480314957
11
6.0674999999999999
21
-4.5214999999999996
0
LINE
8
BLACK
6
CONTINUOUS
10
6.0674999999999999
20
-4.5214999999999996
11
6.0674999999999999
21
-4.4565000000000001
0
LINE
8
BLACK
6
CONTINUOUS
10
6.0674999999999999
20
-4.4565000000000001
11
6.0678044881889761
21
-4.454969251968504
0
LINE
8
BLACK
6
CONTINUOUS
10
6.0678044881889761
20
-4.454969251968504
11
6.0686715748031492
21
-4.4536715748031499
0
LINE
8
BLACK
6
CONTINUOUS
10
6.0686715748031492
20
-4.4536715748031499
11
6.0699692519685042
21
-4.4528044881889759
0
LINE
8
BLACK
6
CONTINUOUS
10
6.0699692519685042
20
-4.4528044881889759
11
6.0714999999999995
21
-4.4524999999999997
0
LINE
8
BLACK
6
CONTINUOUS
10
6.0714999999999995
20
-4.4524999999999997
11
6.1364999999999998
21
-4.4524999999999997
0
LINE
8
BLACK
6
CONTINUOUS
10
6.1364999999999998
20
-4.4524999999999997
11
6.138030748031496
21
-4.4528044881889759
0
LINE
8
BLACK
6
CONTINUOUS
10
5.6330307480314961
20
-4.3978044881889762
11
5.6343284251968502
21
-4.3986715748031493
0
LINE
8
BLACK
6
CONTINUOUS
10
5.6343284251968502
20
-4.3986715748031493
11
5.6351955118110233
21
-4.3999692519685034
0
LINE
8
BLACK
6
CONTINUOUS
10
5.6351955118110233
20
-4.3999692519685034
11
5.6354999999999995
21
-4.4014999999999995
0
LINE
8
BLACK
6
CONTINUOUS
10
5.6354999999999995
20
-4.4014999999999995
11
5.6354999999999995
21
-4.4664999999999999
0
LINE
8
BLACK
6
CONTINUOUS
10
5.6354999999999995
20
-4.4664999999999999
11
5.6351955118110233
21
-4.468030748031496
0
LINE
8
BLACK
6
CONTINUOUS
10
5.6351955118110233
20
-4.468030748031496
11
5.6343284251968502
21
-4.4693284251968501
0
LINE
8
BLACK
6
CONTINUOUS
10
5.6343284251968502
20
-4.4693284251968501
11
5.6330307480314961
21
-4.4701955118110233
0
LINE
8
BLACK
6
CONTINUOUS
10
5.6330307480314961
20
-4.4701955118110233
11
5.6315
21
-4.4704999999999995
0
LINE
8
BLACK
6
CONTINUOUS
10
5.6315
20
-4.4704999999999995
11
5.5664999999999996
21
-4.4704999999999995
0
LINE
8
BLACK
6
CONTINUOUS
10
5.5664999999999996
20
-4.4704999999999995
11
5.5649692519685034
21
-4.4701955118110233
0
LINE
8
BLACK
6
CONTINUOUS
10
5.5649692519685034
20
-4.4701955118110233
11
5.5636715748031493
21
-4.4693284251968501
0
LINE
8
BLACK
6
CONTINUOUS
10
5.5636715748031493
20
-4.4693284251968501
11
5.5628044881889762
21
-4.468030748031496
0
LINE
8
BLACK
6
CONTINUOUS
10
5.5628044881889762
20
-4.468030748031496
11
5.5625
21
-4.4664999999999999
0
LINE
8
BLACK
6
CONTINUOUS
10
5.5625
20
-4.4664999999999999
11
5.5625
21
-4.4014999999999995
0
LINE
8
BLACK
6
CONTINUOUS
10
5.5625
20
-4.4014999999999995
11
5.5628044881889762
21
-4.3999692519685034
0
LINE
8
BLACK
6
CONTINUOUS
10
5.5628044881889762
20
-4.3999692519685034
11
5.5636715748031493
21
-4.3986715748031493
0
LINE
8
BLACK
6
CONTINUOUS
10
5.5636715748031493
20
-4.3986715748031493
11
5.5649692519685034
21
-4.3978044881889762
0
LINE
8
BLACK
6
CONTINUOUS
10
5.5649692519685034
20
-4.3978044881889762
11
5.5664999999999996
21
-4.3975
0
LINE
8
BLACK
6
CONTINUOUS
10
5.5664999999999996
20
-4.3975
11
5.6315
21
-4.3975
0
LINE
8
BLACK
6
CONTINUOUS
10
5.6315
20
-4.3975
11
5.6330307480314961
21
-4.3978044881889762
0
LINE
8
BLACK
6
CONTINUOUS
10
5.8775583070866144
20
-4.4046155118110235
11
5.8788559842519685
21
-4.4054825984251966
0
LINE
8
BLACK
6
CONTINUOUS
10
5.8788559842519685
20
-4.4054825984251966
11
5.8797230708661417
21
-4.4067802755905507
0
LINE
8
BLACK
6
CONTINUOUS
10
5.8797230708661417
20
-4.4067802755905507
11
5.8800275590551179
21
-4.4083110236220469
0
LINE
8
BLACK
6
CONTINUOUS
10
5.8800275590551179
20
-4.4083110236220469
11
5.8800275590551179
21
-4.4594921259842515
0
LINE
8
BLACK
6
CONTINUOUS
10
5.8800275590551179
20
-4.4594921259842515
11
5.8797230708661417
21
-4.4610228740157476
0
LINE
8
BLACK
6
CONTINUOUS
10
5.8797230708661417
20
-4.4610228740157476
11
5.8788559842519685
21
-4.4623205511811026
0
LINE
8
BLACK
6
CONTINUOUS
10
5.8788559842519685
20
-4.4623205511811026
11
5.8775583070866144
21
-4.4631876377952757
0
LINE
8
BLACK
6
CONTINUOUS
10
5.8775583070866144
20
-4.4631876377952757
11
5.8760275590551183
21
-4.4634921259842519
0
LINE
8
BLACK
6
CONTINUOUS
10
5.8760275590551183
20
-4.4634921259842519
11
5.8169724409448822
21
-4.4634921259842519
0
LINE
8
BLACK
6
CONTINUOUS
10
5.8169724409448822
20
-4.4634921259842519
11
5.8154416929133861
21
-4.4631876377952757
0
LINE
8
BLACK
6
CONTINUOUS
10
5.8154416929133861
20
-4.4631876377952757
11
5.8141440157480311
21
-4.4623205511811026
0
LINE
8
BLACK
6
CONTINUOUS
10
5.8141440157480311
20
-4.4623205511811026
11
5.813276929133858
21
-4.4610228740157476
0
LINE
8
BLACK
6
CONTINUOUS
10
5.813276929133858
20
-4.4610228740157476
11
5.8129724409448817
21
-4.4594921259842515
0
LINE
8
BLACK
6
CONTINUOUS
10
5.8129724409448817
20
-4.4594921259842515
11
5.8129724409448817
21
-4.4083110236220469
0
LINE
8
BLACK
6
CONTINUOUS
10
5.8129724409448817
20
-4.4083110236220469
11
5.813276929133858
21
-4.4067802755905507
0
LINE
8
BLACK
6
CONTINUOUS
10
5.813276929133858
20
-4.4067802755905507
11
5.8141440157480311
21
-4.4054825984251966
0
LINE
8
BLACK
6
CONTINUOUS
10
5.8141440157480311
20
-4.4054825984251966
11
5.8154416929133861
21
-4.4046155118110235
0
LINE
8
BLACK
6
CONTINUOUS
10
5.8154416929133861
20
-4.4046155118110235
11
5.8169724409448822
21
-4.4043110236220473
0
LINE
8
BLACK
6
CONTINUOUS
10
5.8169724409448822
20
-4.4043110236220473
11
5.8760275590551183
21
-4.4043110236220473
0
LINE
8
BLACK
6
CONTINUOUS
10
5.8760275590551183
20
-4.4043110236220473
11
5.8775583070866144
21
-4.4046155118110235
0
LINE
8
BLACK
6
CONTINUOUS
10
5.9525583070866137
20
-4.4046155118110235
11
5.9538559842519687
21
-4.4054825984251966
0
LINE
8
BLACK
6
CONTINUOUS
10
5.9538559842519687
20
-4.4054825984251966
11
5.9547230708661418
21
-4.4067802755905507
0
LINE
8
BLACK
6
CONTINUOUS
10
5.9547230708661418
20
-4.4067802755905507
11
5.955027559055118
21
-4.4083110236220469
0
LINE
8
BLACK
6
CONTINUOUS
10
5.955027559055118
20
-4.4083110236220469
11
5.955027559055118
21
-4.4594921259842515
0
LINE
8
BLACK
6
CONTINUOUS
10
5.955027559055118
20
-4.4594921259842515
11
5.9547230708661418
21
-4.4610228740157476
0
LINE
8
BLACK
6
CONTINUOUS
10
5.9547230708661418
20
-4.4610228740157476
11
5.9538559842519687
21
-4.4623205511811026
0
LINE
8
BLACK
6
CONTINUOUS
10
5.9538559842519687
20
-4.4623205511811026
11
5.9525583070866137
21
-4.4631876377952757
0
LINE
8
BLACK
6
CONTINUOUS
10
5.9525583070866137
20
-4.4631876377952757
11
5.9510275590551176
21
-4.4634921259842519
0
LINE
8
BLACK
6
CONTINUOUS
10
5.9510275590551176
20
-4.4634921259842519
11
5.8919724409448815
21
-4.4634921259842519
0
LINE
8
BLACK
6
CONTINUOUS
10
5.8919724409448815
20
-4.4634921259842519
11
5.8904416929133854
21
-4.4631876377952757
0
LINE
8
BLACK
6
CONTINUOUS
10
5.8904416929133854
20
-4.4631876377952757
11
5.8891440157480313
21
-4.4623205511811026
0
LINE
8
BLACK
6
CONTINUOUS
10
5.8891440157480313
20
-4.4623205511811026
11
5.8882769291338581
21
-4.4610228740157476
0
LINE
8
BLACK
6
CONTINUOUS
10
5.8882769291338581
20
-4.4610228740157476
11
5.8879724409448819
21
-4.4594921259842515
0
LINE
8
BLACK
6
CONTINUOUS
10
5.8879724409448819
20
-4.4594921259842515
11
5.8879724409448819
21
-4.4083110236220469
0
LINE
8
BLACK
6
CONTINUOUS
10
5.8879724409448819
20
-4.4083110236220469
11
5.8882769291338581
21
-4.4067802755905507
0
LINE
8
BLACK
6
CONTINUOUS
10
5.8882769291338581
20
-4.4067802755905507
11
5.8891440157480313
21
-4.4054825984251966
0
LINE
8
BLACK
6
CONTINUOUS
10
5.8891440157480313
20
-4.4054825984251966
11
5.8904416929133854
21
-4.4046155118110235
0
LINE
8
BLACK
6
CONTINUOUS
10
5.8904416929133854
20
-4.4046155118110235
11
5.8919724409448815
21
-4.4043110236220473
0
LINE
8
BLACK
6
CONTINUOUS
10
5.8919724409448815
20
-4.4043110236220473
11
5.9510275590551176
21
-4.4043110236220473
0
LINE
8
BLACK
6
CONTINUOUS
10
5.9510275590551176
20
-4.4043110236220473
11
5.9525583070866137
21
-4.4046155118110235
0
LINE
8
BLACK
6
CONTINUOUS
10
5.7975583070866143
20
-4.3771155118110237
11
5.7988559842519685
21
-4.3779825984251968
0
LINE
8
BLACK
6
CONTINUOUS
10
5.7988559842519685
20
-4.3779825984251968
11
5.7997230708661416
21
-4.3792802755905509
0
LINE
8
BLACK
6
CONTINUOUS
10
5.7997230708661416
20
-4.3792802755905509
11
5.8000275590551178
21
-4.380811023622047
0
LINE
8
BLACK
6
CONTINUOUS
10
5.8000275590551178
20
-4.380811023622047
11
5.8000275590551178
21
-4.4319921259842516
0
LINE
8
BLACK
6
CONTINUOUS
10
5.8000275590551178
20
-4.4319921259842516
11
5.7997230708661416
21
-4.4335228740157477
0
LINE
8
BLACK
6
CONTINUOUS
10
5.7997230708661416
20
-4.4335228740157477
11
5.7988559842519685
21
-4.4348205511811019
0
LINE
8
BLACK
6
CONTINUOUS
10
5.7988559842519685
20
-4.4348205511811019
11
5.7975583070866143
21
-4.4356876377952759
0
LINE
8
BLACK
6
CONTINUOUS
10
5.7975583070866143
20
-4.4356876377952759
11
5.7960275590551182
21
-4.4359921259842521
0
LINE
8
BLACK
6
CONTINUOUS
10
5.7960275590551182
20
-4.4359921259842521
11
5.7369724409448821
21
-4.4359921259842521
0
LINE
8
BLACK
6
CONTINUOUS
10
5.7369724409448821
20
-4.4359921259842521
11
5.735441692913386
21
-4.4356876377952759
0
LINE
8
BLACK
6
CONTINUOUS
10
5.735441692913386
20
-4.4356876377952759
11
5.734144015748031
21
-4.4348205511811019
0
LINE
8
BLACK
6
CONTINUOUS
10
5.734144015748031
20
-4.4348205511811019
11
5.7332769291338579
21
-4.4335228740157477
0
LINE
8
BLACK
6
CONTINUOUS
10
5.7332769291338579
20
-4.4335228740157477
11
5.7329724409448817
21
-4.4319921259842516
0
LINE
8
BLACK
6
CONTINUOUS
10
5.7329724409448817
20
-4.4319921259842516
11
5.7329724409448817
21
-4.380811023622047
0
LINE
8
BLACK
6
CONTINUOUS
10
5.7329724409448817
20
-4.380811023622047
11
5.7332769291338579
21
-4.3792802755905509
0
LINE
8
BLACK
6
CONTINUOUS
10
5.7332769291338579
20
-4.3792802755905509
11
5.734144015748031
21
-4.3779825984251968
0
LINE
8
BLACK
6
CONTINUOUS
10
5.734144015748031
20
-4.3779825984251968
11
5.735441692913386
21
-4.3771155118110237
0
LINE
8
BLACK
6
CONTINUOUS
10
5.735441692913386
20
-4.3771155118110237
11
5.7369724409448821
21
-4.3768110236220474
0
LINE
8
BLACK
6
CONTINUOUS
10
5.7369724409448821
20
-4.3768110236220474
11
5.7960275590551182
21
-4.3768110236220474
0
LINE
8
BLACK
6
CONTINUOUS
10
5.7960275590551182
20
-4.3768110236220474
11
5.7975583070866143
21
-4.3771155118110237
0
LINE
8
BLACK
6
CONTINUOUS
10
6.0380307480314963
20
-4.3528044881889763
11
6.0393284251968504
21
-4.3536715748031494
0
LINE
8
BLACK
6
CONTINUOUS
10
6.0393284251968504
20
-4.3536715748031494
11
6.0401955118110235
21
-4.3549692519685035
0
LINE
8
BLACK
6
CONTINUOUS
10
6.0401955118110235
20
-4.3549692519685035
11
6.0404999999999998
21
-4.3564999999999996
0
LINE
8
BLACK
6
CONTINUOUS
10
6.0404999999999998
20
-4.3564999999999996
11
6.0404999999999998
21
-4.4215
0
LINE
8
BLACK
6
CONTINUOUS
10
6.0404999999999998
20
-4.4215
11
6.0401955118110235
21
-4.4230307480314961
0
LINE
8
BLACK
6
CONTINUOUS
10
6.0401955118110235
20
-4.4230307480314961
11
6.0393284251968504
21
-4.4243284251968502
0
LINE
8
BLACK
6
CONTINUOUS
10
6.0393284251968504
20
-4.4243284251968502
11
6.0380307480314963
21
-4.4251955118110233
0
LINE
8
BLACK
6
CONTINUOUS
10
6.0380307480314963
20
-4.4251955118110233
11
6.0365000000000002
21
-4.4254999999999995
0
LINE
8
BLACK
6
CONTINUOUS
10
6.0365000000000002
20
-4.4254999999999995
11
5.9714999999999998
21
-4.4254999999999995
0
LINE
8
BLACK
6
CONTINUOUS
10
5.9714999999999998
20
-4.4254999999999995
11
5.9699692519685037
21
-4.4251955118110233
0
LINE
8
BLACK
6
CONTINUOUS
10
5.9699692519685037
20
-4.4251955118110233
11
5.9686715748031496
21
-4.4243284251968502
0
LINE
8
BLACK
6
CONTINUOUS
10
5.9686715748031496
20
-4.4243284251968502
11
5.9678044881889765
21
-4.4230307480314961
0
LINE
8
BLACK
6
CONTINUOUS
10
5.9678044881889765
20
-4.4230307480314961
11
5.9675000000000002
21
-4.4215
0
LINE
8
BLACK
6
CONTINUOUS
10
5.9675000000000002
20
-4.4215
11
5.9675000000000002
21
-4.3564999999999996
0
LINE
8
BLACK
6
CONTINUOUS
10
5.9675000000000002
20
-4.3564999999999996
11
5.9678044881889765
21
-4.3549692519685035
0
LINE
8
BLACK
6
CONTINUOUS
10
5.9678044881889765
20
-4.3549692519685035
11
5.9686715748031496
21
-4.3536715748031494
0
LINE
8
BLACK
6
CONTINUOUS
10
5.9686715748031496
20
-4.3536715748031494
11
5.9699692519685037
21
-4.3528044881889763
0
LINE
8
BLACK
6
CONTINUOUS
10
5.9699692519685037
20
-4.3528044881889763
11
5.9714999999999998
21
-4.3525
0
LINE
8
BLACK
6
CONTINUOUS
10
5.9714999999999998
20
-4.3525
11
6.0365000000000002
21
-4.3525
0
LINE
8
BLACK
6
CONTINUOUS
10
6.0365000000000002
20
-4.3525
11
6.0380307480314963
21
-4.3528044881889763
0
LINE
8
BLACK
6
CONTINUOUS
10
6.138030748031496
20
-4.3528044881889763
11
6.1393284251968501
21
-4.3536715748031494
0
LINE
8
BLACK
6
CONTINUOUS
10
6.1393284251968501
20
-4.3536715748031494
11
6.1401955118110232
21
-4.3549692519685035
0
LINE
8
BLACK
6
CONTINUOUS
10
6.1401955118110232
20
-4.3549692519685035
11
6.1405000000000003
21
-4.3564999999999996
0
LINE
8
BLACK
6
CONTINUOUS
10
6.1405000000000003
20
-4.3564999999999996
11
6.1405000000000003
21
-4.4215
0
LINE
8
BLACK
6
CONTINUOUS
10
6.1405000000000003
20
-4.4215
11
6.1401955118110232
21
-4.4230307480314961
0
LINE
8
BLACK
6
CONTINUOUS
10
6.1401955118110232
20
-4.4230307480314961
11
6.1393284251968501
21
-4.4243284251968502
0
LINE
8
BLACK
6
CONTINUOUS
10
6.1393284251968501
20
-4.4243284251968502
11
6.138030748031496
21
-4.4251955118110233
0
LINE
8
BLACK
6
CONTINUOUS
10
6.138030748031496
20
-4.4251955118110233
11
6.1364999999999998
21
-4.4254999999999995
0
LINE
8
BLACK
6
CONTINUOUS
10
6.1364999999999998
20
-4.4254999999999995
11
6.0714999999999995
21
-4.4254999999999995
0
LINE
8
BLACK
6
CONTINUOUS
10
6.0714999999999995
20
-4.4254999999999995
11
6.0699692519685042
21
-4.4251955118110233
0
LINE
8
BLACK
6
CONTINUOUS
10
6.0699692519685042
20
-4.4251955118110233
11
6.0686715748031492
21
-4.4243284251968502
0
LINE
8
BLACK
6
CONTINUOUS
10
6.0686715748031492
20
-4.4243284251968502
11
6.0678044881889761
21
-4.4230307480314961
0
LINE
8
BLACK
6
CONTINUOUS
10
6.0678044881889761
20
-4.4230307480314961
11
6.0674999999999999
21
-4.4215
0
LINE
8
BLACK
6
CONTINUOUS
10
6.0674999999999999
20
-4.4215
11
6.0674999999999999
21
-4.3564999999999996
0
LINE
8
BLACK
6
CONTINUOUS
10
6.0674999999999999
20
-4.3564999999999996
11
6.0678044881889761
21
-4.3549692519685035
0
LINE
8
BLACK
6
CONTINUOUS
10
6.0678044881889761
20
-4.3549692519685035
11
6.0686715748031492
21
-4.3536715748031494
0
LINE
8
BLACK
6
CONTINUOUS
10
6.0686715748031492
20
-4.3536715748031494
11
6.0699692519685042
21
-4.3528044881889763
0
LINE
8
BLACK
6
CONTINUOUS
10
6.0699692519685042
20
-4.3528044881889763
11
6.0714999999999995
21
-4.3525
0
LINE
8
BLACK
6
CONTINUOUS
10
6.0714999999999995
20
-4.3525
11
6.1364999999999998
21
-4.3525
0
LINE
8
BLACK
6
CONTINUOUS
10
6.1364999999999998
20
-4.3525
11
6.138030748031496
21
-4.3528044881889763
0
LINE
8
BLACK
6
CONTINUOUS
10
5.7121842913385823
20
-4.321584015748031
11
5.7134819685039373
21
-4.322451102362205
0
LINE
8
BLACK
6
CONTINUOUS
10
5.7134819685039373
20
-4.322451102362205
11
5.7143490551181104
21
-4.3237487795275591
0
LINE
8
BLACK
6
CONTINUOUS
10
5.7143490551181104
20
-4.3237487795275591
11
5.7146535433070866
21
-4.3252795275590552
0
LINE
8
BLACK
6
CONTINUOUS
10
5.7146535433070866
20
-4.3252795275590552
11
5.7146535433070866
21
-4.3646496062992126
0
LINE
8
BLACK
6
CONTINUOUS
10
5.7146535433070866
20
-4.3646496062992126
11
5.7143490551181104
21
-4.3661803543307087
0
LINE
8
BLACK
6
CONTINUOUS
10
5.7143490551181104
20
-4.3661803543307087
11
5.7134819685039373
21
-4.3674780314960628
0
LINE
8
BLACK
6
CONTINUOUS
10
5.7134819685039373
20
-4.3674780314960628
11
5.7130749212598424
21
-4.36775
0
LINE
8
BLACK
6
CONTINUOUS
10
5.7130749212598424
20
-4.36775
11
5.7134819685039373
21
-4.3680219685039372
0
LINE
8
BLACK
6
CONTINUOUS
10
5.7134819685039373
20
-4.3680219685039372
11
5.7143490551181104
21
-4.3693196456692913
0
LINE
8
BLACK
6
CONTINUOUS
10
5.7143490551181104
20
-4.3693196456692913
11
5.7146535433070866
21
-4.3708503937007874
0
LINE
8
BLACK
6
CONTINUOUS
10
5.7146535433070866
20
-4.3708503937007874
11
5.7146535433070866
21
-4.4102204724409448
0
LINE
8
BLACK
6
CONTINUOUS
10
5.7146535433070866
20
-4.4102204724409448
11
5.7143490551181104
21
-4.4117512204724409
0
LINE
8
BLACK
6
CONTINUOUS
10
5.7143490551181104
20
-4.4117512204724409
11
5.7134819685039373
21
-4.4130488976377951
0
LINE
8
BLACK
6
CONTINUOUS
10
5.7134819685039373
20
-4.4130488976377951
11
5.7121842913385823
21
-4.4139159842519682
0
LINE
8
BLACK
6
CONTINUOUS
10
5.7121842913385823
20
-4.4139159842519682
11
5.7106535433070862
21
-4.4142204724409444
0
LINE
8
BLACK
6
CONTINUOUS
10
5.7106535433070862
20
-4.4142204724409444
11
5.667346456692913
21
-4.4142204724409444
0
LINE
8
BLACK
6
CONTINUOUS
10
5.667346456692913
20
-4.4142204724409444
11
5.6658157086614169
21
-4.4139159842519682
0
LINE
8
BLACK
6
CONTINUOUS
10
5.6658157086614169
20
-4.4139159842519682
11
5.6645180314960628
21
-4.4130488976377951
0
LINE
8
BLACK
6
CONTINUOUS
10
5.6645180314960628
20
-4.4130488976377951
11
5.6636509448818897
21
-4.4117512204724409
0
LINE
8
BLACK
6
CONTINUOUS
10
5.6636509448818897
20
-4.4117512204724409
11
5.6633464566929135
21
-4.4102204724409448
0
LINE
8
BLACK
6
CONTINUOUS
10
5.6633464566929135
20
-4.4102204724409448
11
5.6633464566929135
21
-4.3708503937007874
0
LINE
8
BLACK
6
CONTINUOUS
10
5.6633464566929135
20
-4.3708503937007874
11
5.6636509448818897
21
-4.3693196456692913
0
LINE
8
BLACK
6
CONTINUOUS
10
5.6636509448818897
20
-4.3693196456692913
11
5.6645180314960628
21
-4.3680219685039372
0
LINE
8
BLACK
6
CONTINUOUS
10
5.6645180314960628
20
-4.3680219685039372
11
5.664925039370079
21
-4.36775
0
LINE
8
BLACK
6
CONTINUOUS
10
5.664925039370079
20
-4.36775
11
5.6645180314960628
21
-4.3674780314960628
0
LINE
8
BLACK
6
CONTINUOUS
10
5.6645180314960628
20
-4.3674780314960628
11
5.6636509448818897
21
-4.3661803543307087
0
LINE
8
BLACK
6
CONTINUOUS
10
5.6636509448818897
20
-4.3661803543307087
11
5.6633464566929135
21
-4.3646496062992126
0
LINE
8
BLACK
6
CONTINUOUS
10
5.6633464566929135
20
-4.3646496062992126
11
5.6633464566929135
21
-4.3252795275590552
0
LINE
8
BLACK
6
CONTINUOUS
10
5.6633464566929135
20
-4.3252795275590552
11
5.6636509448818897
21
-4.3237487795275591
0
LINE
8
BLACK
6
CONTINUOUS
10
5.6636509448818897
20
-4.3237487795275591
11
5.6645180314960628
21
-4.322451102362205
0
LINE
8
BLACK
6
CONTINUOUS
10
5.6645180314960628
20
-4.322451102362205
11
5.6658157086614169
21
-4.321584015748031
0
LINE
8
BLACK
6
CONTINUOUS
10
5.6658157086614169
20
-4.321584015748031
11
5.667346456692913
21
-4.3212795275590548
0
LINE
8
BLACK
6
CONTINUOUS
10
5.667346456692913
20
-4.3212795275590548
11
5.7106535433070862
21
-4.3212795275590548
0
LINE
8
BLACK
6
CONTINUOUS
10
5.7106535433070862
20
-4.3212795275590548
11
5.7121842913385823
21
-4.321584015748031
0
LINE
8
BLACK
6
CONTINUOUS
10
5.8775583070866144
20
-4.3298123622047244
11
5.8788559842519685
21
-4.3306794488188975
0
LINE
8
BLACK
6
CONTINUOUS
10
5.8788559842519685
20
-4.3306794488188975
11
5.8797230708661417
21
-4.3319771259842517
0
LINE
8
BLACK
6
CONTINUOUS
10
5.8797230708661417
20
-4.3319771259842517
11
5.8800275590551179
21
-4.3335078740157478
0
LINE
8
BLACK
6
CONTINUOUS
10
5.8800275590551179
20
-4.3335078740157478
11
5.8800275590551179
21
-4.3846889763779524
0
LINE
8
BLACK
6
CONTINUOUS
10
5.8800275590551179
20
-4.3846889763779524
11
5.8797230708661417
21
-4.3862197244094485
0
LINE
8
BLACK
6
CONTINUOUS
10
5.8797230708661417
20
-4.3862197244094485
11
5.8788559842519685
21
-4.3875174015748026
0
LINE
8
BLACK
6
CONTINUOUS
10
5.8788559842519685
20
-4.3875174015748026
11
5.8775583070866144
21
-4.3883844881889766
0
LINE
8
BLACK
6
CONTINUOUS
10
5.8775583070866144
20
-4.3883844881889766
11
5.8760275590551183
21
-4.3886889763779529
0
LINE
8
BLACK
6
CONTINUOUS
10
5.8760275590551183
20
-4.3886889763779529
11
5.8169724409448822
21
-4.3886889763779529
0
LINE
8
BLACK
6
CONTINUOUS
10
5.8169724409448822
20
-4.3886889763779529
11
5.8154416929133861
21
-4.3883844881889766
0
LINE
8
BLACK
6
CONTINUOUS
10
5.8154416929133861
20
-4.3883844881889766
11
5.8141440157480311
21
-4.3875174015748026
0
LINE
8
BLACK
6
CONTINUOUS
10
5.8141440157480311
20
-4.3875174015748026
11
5.813276929133858
21
-4.3862197244094485
0
LINE
8
BLACK
6
CONTINUOUS
10
5.813276929133858
20
-4.3862197244094485
11
5.8129724409448817
21
-4.3846889763779524
0
LINE
8
BLACK
6
CONTINUOUS
10
5.8129724409448817
20
-4.3846889763779524
11
5.8129724409448817
21
-4.3335078740157478
0
LINE
8
BLACK
6
CONTINUOUS
10
5.8129724409448817
20
-4.3335078740157478
11
5.813276929133858
21
-4.3319771259842517
0
LINE
8
BLACK
6
CONTINUOUS
10
5.813276929133858
20
-4.3319771259842517
11
5.8141440157480311
21
-4.3306794488188975
0
LINE
8
BLACK
6
CONTINUOUS
10
5.8141440157480311
20
-4.3306794488188975
11
5.8154416929133861
21
-4.3298123622047244
0
LINE
8
BLACK
6
CONTINUOUS
10
5.8154416929133861
20
-4.3298123622047244
11
5.8169724409448822
21
-4.3295078740157482
0
LINE
8
BLACK
6
CONTINUOUS
10
5.8169724409448822
20
-4.3295078740157482
11
5.8760275590551183
21
-4.3295078740157482
0
LINE
8
BLACK
6
CONTINUOUS
10
5.8760275590551183
20
-4.3295078740157482
11
5.8775583070866144
21
-4.3298123622047244
0
LINE
8
BLACK
6
CONTINUOUS
10
5.9525583070866137
20
-4.3298123622047244
11
5.9538559842519687
21
-4.3306794488188975
0
LINE
8
BLACK
6
CONTINUOUS
10
5.9538559842519687
20
-4.3306794488188975
11
5.9547230708661418
21
-4.3319771259842517
0
LINE
8
BLACK
6
CONTINUOUS
10
5.9547230708661418
20
-4.3319771259842517
11
5.955027559055118
21
-4.3335078740157478
0
LINE
8
BLACK
6
CONTINUOUS
10
5.955027559055118
20
-4.3335078740157478
11
5.955027559055118
21
-4.3846889763779524
0
LINE
8
BLACK
6
CONTINUOUS
10
5.955027559055118
20
-4.3846889763779524
11
5.9547230708661418
21
-4.3862197244094485
0
LINE
8
BLACK
6
CONTINUOUS
10
5.9547230708661418
20
-4.3862197244094485
11
5.9538559842519687
21
-4.3875174015748026
0
LINE
8
BLACK
6
CONTINUOUS
10
5.9538559842519687
20
-4.3875174015748026
11
5.9525583070866137
21
-4.3883844881889766
0
LINE
8
BLACK
6
CONTINUOUS
10
5.9525583070866137
20
-4.3883844881889766
11
5.9510275590551176
21
-4.3886889763779529
0
LINE
8
BLACK
6
CONTINUOUS
10
5.9510275590551176
20
-4.3886889763779529
11
5.8919724409448815
21
-4.3886889763779529
0
LINE
8
BLACK
6
CONTINUOUS
10
5.8919724409448815
20
-4.3886889763779529
11
5.8904416929133854
21
-4.3883844881889766
0
LINE
8
BLACK
6
CONTINUOUS
10
5.8904416929133854
20
-4.3883844881889766
11
5.8891440157480313
21
-4.3875174015748026
0
LINE
8
BLACK
6
CONTINUOUS
10
5.8891440157480313
20
-4.3875174015748026
11
5.8882769291338581
21
-4.3862197244094485
0
LINE
8
BLACK
6
CONTINUOUS
10
5.8882769291338581
20
-4.3862197244094485
11
5.8879724409448819
21
-4.3846889763779524
0
LINE
8
BLACK
6
CONTINUOUS
10
5.8879724409448819
20
-4.3846889763779524
11
5.8879724409448819
21
-4.3335078740157478
0
LINE
8
BLACK
6
CONTINUOUS
10
5.8879724409448819
20
-4.3335078740157478
11
5.8882769291338581
21
-4.3319771259842517
0
LINE
8
BLACK
6
CONTINUOUS
10
5.8882769291338581
20
-4.3319771259842517
11
5.8891440157480313
21
-4.3306794488188975
0
LINE
8
BLACK
6
CONTINUOUS
10
5.8891440157480313
20
-4.3306794488188975
11
5.8904416929133854
21
-4.3298123622047244
0
LINE
8
BLACK
6
CONTINUOUS
10
5.8904416929133854
20
-4.3298123622047244
11
5.8919724409448815
21
-4.3295078740157482
0
LINE
8
BLACK
6
CONTINUOUS
10
5.8919724409448815
20
-4.3295078740157482
11
5.9510275590551176
21
-4.3295078740157482
0
LINE
8
BLACK
6
CONTINUOUS
10
5.9510275590551176
20
-4.3295078740157482
11
5.9525583070866137
21
-4.3298123622047244
0
LINE
8
BLACK
6
CONTINUOUS
10
5.6330307480314961
20
-4.2978044881889765
11
5.6343284251968502
21
-4.2986715748031497
0
LINE
8
BLACK
6
CONTINUOUS
10
5.6343284251968502
20
-4.2986715748031497
11
5.6351955118110233
21
-4.2999692519685038
0
LINE
8
BLACK
6
CONTINUOUS
10
5.6351955118110233
20
-4.2999692519685038
11
5.6354999999999995
21
-4.3014999999999999
0
LINE
8
BLACK
6
CONTINUOUS
10
5.6354999999999995
20
-4.3014999999999999
11
5.6354999999999995
21
-4.3665000000000003
0
LINE
8
BLACK
6
CONTINUOUS
10
5.6354999999999995
20
-4.3665000000000003
11
5.6351955118110233
21
-4.3680307480314964
0
LINE
8
BLACK
6
CONTINUOUS
10
5.6351955118110233
20
-4.3680307480314964
11
5.6343284251968502
21
-4.3693284251968505
0
LINE
8
BLACK
6
CONTINUOUS
10
5.6343284251968502
20
-4.3693284251968505
11
5.6330307480314961
21
-4.3701955118110236
0
LINE
8
BLACK
6
CONTINUOUS
10
5.6330307480314961
20
-4.3701955118110236
11
5.6315
21
-4.3704999999999998
0
LINE
8
BLACK
6
CONTINUOUS
10
5.6315
20
-4.3704999999999998
11
5.5664999999999996
21
-4.3704999999999998
0
LINE
8
BLACK
6
CONTINUOUS
10
5.5664999999999996
20
-4.3704999999999998
11
5.5649692519685034
21
-4.3701955118110236
0
LINE
8
BLACK
6
CONTINUOUS
10
5.5649692519685034
20
-4.3701955118110236
11
5.5636715748031493
21
-4.3693284251968505
0
LINE
8
BLACK
6
CONTINUOUS
10
5.5636715748031493
20
-4.3693284251968505
11
5.5628044881889762
21
-4.3680307480314964
0
LINE
8
BLACK
6
CONTINUOUS
10
5.5628044881889762
20
-4.3680307480314964
11
5.5625
21
-4.3665000000000003
0
LINE
8
BLACK
6
CONTINUOUS
10
5.5625
20
-4.3665000000000003
11
5.5625
21
-4.3014999999999999
0
LINE
8
BLACK
6
CONTINUOUS
10
5.5625
20
-4.3014999999999999
11
5.5628044881889762
21
-4.2999692519685038
0
LINE
8
BLACK
6
CONTINUOUS
10
5.5628044881889762
20
-4.2999692519685038
11
5.5636715748031493
21
-4.2986715748031497
0
LINE
8
BLACK
6
CONTINUOUS
10
5.5636715748031493
20
-4.2986715748031497
11
5.5649692519685034
21
-4.2978044881889765
0
LINE
8
BLACK
6
CONTINUOUS
10
5.5649692519685034
20
-4.2978044881889765
11
5.5664999999999996
21
-4.2975000000000003
0
LINE
8
BLACK
6
CONTINUOUS
10
5.5664999999999996
20
-4.2975000000000003
11
5.6315
21
-4.2975000000000003
0
LINE
8
BLACK
6
CONTINUOUS
10
5.6315
20
-4.2975000000000003
11
5.6330307480314961
21
-4.2978044881889765
0
LINE
8
BLACK
6
CONTINUOUS
10
5.7975583070866143
20
-4.3023123622047246
11
5.7988559842519685
21
-4.3031794488188977
0
LINE
8
BLACK
6
CONTINUOUS
10
5.7988559842519685
20
-4.3031794488188977
11
5.7997230708661416
21
-4.3044771259842518
0
LINE
8
BLACK
6
CONTINUOUS
10
5.7997230708661416
20
-4.3044771259842518
11
5.8000275590551178
21
-4.3060078740157479
0
LINE
8
BLACK
6
CONTINUOUS
10
5.8000275590551178
20
-4.3060078740157479
11
5.8000275590551178
21
-4.3571889763779525
0
LINE
8
BLACK
6
CONTINUOUS
10
5.8000275590551178
20
-4.3571889763779525
11
5.7997230708661416
21
-4.3587197244094487
0
LINE
8
BLACK
6
CONTINUOUS
10
5.7997230708661416
20
-4.3587197244094487
11
5.7988559842519685
21
-4.3600174015748028
0
LINE
8
BLACK
6
CONTINUOUS
10
5.7988559842519685
20
-4.3600174015748028
11
5.7975583070866143
21
-4.3608844881889759
0
LINE
8
BLACK
6
CONTINUOUS
10
5.7975583070866143
20
-4.3608844881889759
11
5.7960275590551182
21
-4.361188976377953
0
LINE
8
BLACK
6
CONTINUOUS
10
5.7960275590551182
20
-4.361188976377953
11
5.7369724409448821
21
-4.361188976377953
0
LINE
8
BLACK
6
CONTINUOUS
10
5.7369724409448821
20
-4.361188976377953
11
5.735441692913386
21
-4.3608844881889759
0
LINE
8
BLACK
6
CONTINUOUS
10
5.735441692913386
20
-4.3608844881889759
11
5.734144015748031
21
-4.3600174015748028
0
LINE
8
BLACK
6
CONTINUOUS
10
5.734144015748031
20
-4.3600174015748028
11
5.7332769291338579
21
-4.3587197244094487
0
LINE
8
BLACK
6
CONTINUOUS
10
5.7332769291338579
20
-4.3587197244094487
11
5.7329724409448817
21
-4.3571889763779525
0
LINE
8
BLACK
6
CONTINUOUS
10
5.7329724409448817
20
-4.3571889763779525
11
5.7329724409448817
21
-4.3060078740157479
0
LINE
8
BLACK
6
CONTINUOUS
10
5.7329724409448817
20
-4.3060078740157479
11
5.7332769291338579
21
-4.3044771259842518
0
LINE
8
BLACK
6
CONTINUOUS
10
5.7332769291338579
20
-4.3044771259842518
11
5.734144015748031
21
-4.3031794488188977
0
LINE
8
BLACK
6
CONTINUOUS
10
5.734144015748031
20
-4.3031794488188977
11
5.735441692913386
21
-4.3023123622047246
0
LINE
8
BLACK
6
CONTINUOUS
10
5.735441692913386
20
-4.3023123622047246
11
5.7369724409448821
21
-4.3020078740157484
0
LINE
8
BLACK
6
CONTINUOUS
10
5.7369724409448821
20
-4.3020078740157484
11
5.7960275590551182
21
-4.3020078740157484
0
LINE
8
BLACK
6
CONTINUOUS
10
5.7960275590551182
20
-4.3020078740157484
11
5.7975583070866143
21
-4.3023123622047246
0
LINE
8
BLACK
6
CONTINUOUS
10
6.0380307480314963
20
-4.2528044881889766
11
6.0393284251968504
21
-4.2536715748031497
0
LINE
8
BLACK
6
CONTINUOUS
10
6.0393284251968504
20
-4.2536715748031497
11
6.0401955118110235
21
-4.2549692519685038
0
LINE
8
BLACK
6
CONTINUOUS
10
6.0401955118110235
20
-4.2549692519685038
11
6.0404999999999998
21
-4.2565
0
LINE
8
BLACK
6
CONTINUOUS
10
6.0404999999999998
20
-4.2565
11
6.0404999999999998
21
-4.3215000000000003
0
LINE
8
BLACK
6
CONTINUOUS
10
6.0404999999999998
20
-4.3215000000000003
11
6.0401955118110235
21
-4.3230307480314956
0
LINE
8
BLACK
6
CONTINUOUS
10
6.0401955118110235
20
-4.3230307480314956
11
6.0393284251968504
21
-4.3243284251968506
0
LINE
8
BLACK
6
CONTINUOUS
10
6.0393284251968504
20
-4.3243284251968506
11
6.0380307480314963
21
-4.3251955118110237
0
LINE
8
BLACK
6
CONTINUOUS
10
6.0380307480314963
20
-4.3251955118110237
11
6.0365000000000002
21
-4.3254999999999999
0
LINE
8
BLACK
6
CONTINUOUS
10
6.0365000000000002
20
-4.3254999999999999
11
5.9714999999999998
21
-4.3254999999999999
0
LINE
8
BLACK
6
CONTINUOUS
10
5.9714999999999998
20
-4.3254999999999999
11
5.9699692519685037
21
-4.3251955118110237
0
LINE
8
BLACK
6
CONTINUOUS
10
5.9699692519685037
20
-4.3251955118110237
11
5.9686715748031496
21
-4.3243284251968506
0
LINE
8
BLACK
6
CONTINUOUS
10
5.9686715748031496
20
-4.3243284251968506
11
5.9678044881889765
21
-4.3230307480314956
0
LINE
8
BLACK
6
CONTINUOUS
10
5.9678044881889765
20
-4.3230307480314956
11
5.9675000000000002
21
-4.3215000000000003
0
LINE
8
BLACK
6
CONTINUOUS
10
5.9675000000000002
20
-4.3215000000000003
11
5.9675000000000002
21
-4.2565
0
LINE
8
BLACK
6
CONTINUOUS
10
5.9675000000000002
20
-4.2565
11
5.9678044881889765
21
-4.2549692519685038
0
LINE
8
BLACK
6
CONTINUOUS
10
5.9678044881889765
20
-4.2549692519685038
11
5.9686715748031496
21
-4.2536715748031497
0
LINE
8
BLACK
6
CONTINUOUS
10
5.9686715748031496
20
-4.2536715748031497
11
5.9699692519685037
21
-4.2528044881889766
0
LINE
8
BLACK
6
CONTINUOUS
10
5.9699692519685037
20
-4.2528044881889766
11
5.9714999999999998
21
-4.2524999999999995
0
LINE
8
BLACK
6
CONTINUOUS
10
5.9714999999999998
20
-4.2524999999999995
11
6.0365000000000002
21
-4.2524999999999995
0
LINE
8
BLACK
6
CONTINUOUS
10
6.0365000000000002
20
-4.2524999999999995
11
6.0380307480314963
21
-4.2528044881889766
0
LINE
8
BLACK
6
CONTINUOUS
10
6.138030748031496
20
-4.2528044881889766
11
6.1393284251968501
21
-4.2536715748031497
0
LINE
8
BLACK
6
CONTINUOUS
10
6.1393284251968501
20
-4.2536715748031497
11
6.1401955118110232
21
-4.2549692519685038
0
LINE
8
BLACK
6
CONTINUOUS
10
6.1401955118110232
20
-4.2549692519685038
11
6.1405000000000003
21
-4.2565
0
LINE
8
BLACK
6
CONTINUOUS
10
6.1405000000000003
20
-4.2565
11
6.1405000000000003
21
-4.3215000000000003
0
LINE
8
BLACK
6
CONTINUOUS
10
6.1405000000000003
20
-4.3215000000000003
11
6.1401955118110232
21
-4.3230307480314956
0
LINE
8
BLACK
6
CONTINUOUS
10
6.1401955118110232
20
-4.3230307480314956
11
6.1393284251968501
21
-4.3243284251968506
0
LINE
8
BLACK
6
CONTINUOUS
10
6.1393284251968501
20
-4.3243284251968506
11
6.138030748031496
21
-4.3251955118110237
0
LINE
8
BLACK
6
CONTINUOUS
10
6.138030748031496
20
-4.3251955118110237
11
6.1364999999999998
21
-4.3254999999999999
0
LINE
8
BLACK
6
CONTINUOUS
10
6.1364999999999998
20
-4.3254999999999999
11
6.0714999999999995
21
-4.3254999999999999
0
LINE
8
BLACK
6
CONTINUOUS
10
6.0714999999999995
20
-4.3254999999999999
11
6.0699692519685042
21
-4.3251955118110237
0
LINE
8
BLACK
6
CONTINUOUS
10
6.0699692519685042
20
-4.3251955118110237
11
6.0686715748031492
21
-4.3243284251968506
0
LINE
8
BLACK
6
CONTINUOUS
10
6.0686715748031492
20
-4.3243284251968506
11
6.0678044881889761
21
-4.3230307480314956
0
LINE
8
BLACK
6
CONTINUOUS
10
6.0678044881889761
20
-4.3230307480314956
11
6.0674999999999999
21
-4.3215000000000003
0
LINE
8
BLACK
6
CONTINUOUS
10
6.0674999999999999
20
-4.3215000000000003
11
6.0674999999999999
21
-4.2565
0
LINE
8
BLACK
6
CONTINUOUS
10
6.0674999999999999
20
-4.2565
11
6.0678044881889761
21
-4.2549692519685038
0
LINE
8
BLACK
6
CONTINUOUS
10
6.0678044881889761
20
-4.2549692519685038
11
6.0686715748031492
21
-4.2536715748031497
0
LINE
8
BLACK
6
CONTINUOUS
10
6.0686715748031492
20
-4.2536715748031497
11
6.0699692519685042
21
-4.2528044881889766
0
LINE
8
BLACK
6
CONTINUOUS
10
6.0699692519685042
20
-4.2528044881889766
11
6.0714999999999995
21
-4.2524999999999995
0
LINE
8
BLACK
6
CONTINUOUS
10
6.0714999999999995
20
-4.2524999999999995
11
6.1364999999999998
21
-4.2524999999999995
0
LINE
8
BLACK
6
CONTINUOUS
10
6.1364999999999998
20
-4.2524999999999995
11
6.138030748031496
21
-4.2528044881889766
0
LINE
8
BLACK
6
CONTINUOUS
10
5.8332669685039367
20
-4.2628832283464568
11
5.8345646456692908
21
-4.26375031496063
0
LINE
8
BLACK
6
CONTINUOUS
10
5.8345646456692908
20
-4.26375031496063
11
5.8354317322834648
21
-4.2650479921259841
0
LINE
8
BLACK
6
CONTINUOUS
10
5.8354317322834648
20
-4.2650479921259841
11
5.835736220472441
21
-4.2665787401574802
0
LINE
8
BLACK
6
CONTINUOUS
10
5.835736220472441
20
-4.2665787401574802
11
5.835736220472441
21
-4.2822637795275593
0
LINE
8
BLACK
6
CONTINUOUS
10
5.835736220472441
20
-4.2822637795275593
11
5.9072637795275593
21
-4.2822637795275593
0
LINE
8
BLACK
6
CONTINUOUS
10
5.9072637795275593
20
-4.2822637795275593
11
5.9072637795275593
21
-4.2665787401574802
0
LINE
8
BLACK
6
CONTINUOUS
10
5.9072637795275593
20
-4.2665787401574802
11
5.9075682677165355
21
-4.2650479921259841
0
LINE
8
BLACK
6
CONTINUOUS
10
5.9075682677165355
20
-4.2650479921259841
11
5.9084353543307087
21
-4.26375031496063
0
LINE
8
BLACK
6
CONTINUOUS
10
5.9084353543307087
20
-4.26375031496063
11
5.9097330314960628
21
-4.2628832283464568
0
LINE
8
BLACK
6
CONTINUOUS
10
5.9097330314960628
20
-4.2628832283464568
11
5.9112637795275589
21
-4.2625787401574806
0
LINE
8
BLACK
6
CONTINUOUS
10
5.9112637795275589
20
-4.2625787401574806
11
5.9364606299212594
21
-4.2625787401574806
0
LINE
8
BLACK
6
CONTINUOUS
10
5.9364606299212594
20
-4.2625787401574806
11
5.9379913779527556
21
-4.2628832283464568
0
LINE
8
BLACK
6
CONTINUOUS
10
5.9379913779527556
20
-4.2628832283464568
11
5.9392890551181097
21
-4.26375031496063
0
LINE
8
BLACK
6
CONTINUOUS
10
5.9392890551181097
20
-4.26375031496063
11
5.9401561417322837
21
-4.2650479921259841
0
LINE
8
BLACK
6
CONTINUOUS
10
5.9401561417322837
20
-4.2650479921259841
11
5.9404606299212599
21
-4.2665787401574802
0
LINE
8
BLACK
6
CONTINUOUS
10
5.9404606299212599
20
-4.2665787401574802
11
5.9404606299212599
21
-4.2862637795275589
0
LINE
8
BLACK
6
CONTINUOUS
10
5.9404606299212599
20
-4.2862637795275589
11
5.9404606299212599
21
-4.3114606299212594
0
LINE
8
BLACK
6
CONTINUOUS
10
5.9404606299212599
20
-4.3114606299212594
11
5.9401561417322837
21
-4.3129913779527556
0
LINE
8
BLACK
6
CONTINUOUS
10
5.9401561417322837
20
-4.3129913779527556
11
5.9392890551181097
21
-4.3142890551181106
0
LINE
8
BLACK
6
CONTINUOUS
10
5.9392890551181097
20
-4.3142890551181106
11
5.9379913779527556
21
-4.3151561417322837
0
LINE
8
BLACK
6
CONTINUOUS
10
5.9379913779527556
20
-4.3151561417322837
11
5.9364606299212594
21
-4.3154606299212599
0
LINE
8
BLACK
6
CONTINUOUS
10
5.9364606299212594
20
-4.3154606299212599
11
5.80653937007874
21
-4.3154606299212599
0
LINE
8
BLACK
6
CONTINUOUS
10
5.80653937007874
20
-4.3154606299212599
11
5.8050086220472439
21
-4.3151561417322837
0
LINE
8
BLACK
6
CONTINUOUS
10
5.8050086220472439
20
-4.3151561417322837
11
5.8037109448818898
21
-4.3142890551181106
0
LINE
8
BLACK
6
CONTINUOUS
10
5.8037109448818898
20
-4.3142890551181106
11
5.8028438582677166
21
-4.3129913779527556
0
LINE
8
BLACK
6
CONTINUOUS
10
5.8028438582677166
20
-4.3129913779527556
11
5.8025393700787404
21
-4.3114606299212594
0
LINE
8
BLACK
6
CONTINUOUS
10
5.8025393700787404
20
-4.3114606299212594
11
5.8025393700787404
21
-4.2862637795275589
0
LINE
8
BLACK
6
CONTINUOUS
10
5.8025393700787404
20
-4.2862637795275589
11
5.8025393700787404
21
-4.2665787401574802
0
LINE
8
BLACK
6
CONTINUOUS
10
5.8025393700787404
20
-4.2665787401574802
11
5.8028438582677166
21
-4.2650479921259841
0
LINE
8
BLACK
6
CONTINUOUS
10
5.8028438582677166
20
-4.2650479921259841
11
5.8037109448818898
21
-4.26375031496063
0
LINE
8
BLACK
6
CONTINUOUS
10
5.8037109448818898
20
-4.26375031496063
11
5.8050086220472439
21
-4.2628832283464568
0
LINE
8
BLACK
6
CONTINUOUS
10
5.8050086220472439
20
-4.2628832283464568
11
5.80653937007874
21
-4.2625787401574806
0
LINE
8
BLACK
6
CONTINUOUS
10
5.80653937007874
20
-4.2625787401574806
11
5.8317362204724406
21
-4.2625787401574806
0
LINE
8
BLACK
6
CONTINUOUS
10
5.8317362204724406
20
-4.2625787401574806
11
5.8332669685039367
21
-4.2628832283464568
0
LINE
8
BLACK
6
CONTINUOUS
10
5.7121842913385823
20
-4.2546548818897634
11
5.7134819685039373
21
-4.2555219685039365
0
LINE
8
BLACK
6
CONTINUOUS
10
5.7134819685039373
20
-4.2555219685039365
11
5.7143490551181104
21
-4.2568196456692915
0
LINE
8
BLACK
6
CONTINUOUS
10
5.7143490551181104
20
-4.2568196456692915
11
5.7146535433070866
21
-4.2583503937007876
0
LINE
8
BLACK
6
CONTINUOUS
10
5.7146535433070866
20
-4.2583503937007876
11
5.7146535433070866
21
-4.297720472440945
0
LINE
8
BLACK
6
CONTINUOUS
10
5.7146535433070866
20
-4.297720472440945
11
5.7143490551181104
21
-4.2992512204724411
0
LINE
8
BLACK
6
CONTINUOUS
10
5.7143490551181104
20
-4.2992512204724411
11
5.7134819685039373
21
-4.3005488976377952
0
LINE
8
BLACK
6
CONTINUOUS
10
5.7134819685039373
20
-4.3005488976377952
11
5.7121842913385823
21
-4.3014159842519684
0
LINE
8
BLACK
6
CONTINUOUS
10
5.7121842913385823
20
-4.3014159842519684
11
5.7106535433070862
21
-4.3017204724409446
0
LINE
8
BLACK
6
CONTINUOUS
10
5.7106535433070862
20
-4.3017204724409446
11
5.667346456692913
21
-4.3017204724409446
0
LINE
8
BLACK
6
CONTINUOUS
10
5.667346456692913
20
-4.3017204724409446
11
5.6658157086614169
21
-4.3014159842519684
0
LINE
8
BLACK
6
CONTINUOUS
10
5.6658157086614169
20
-4.3014159842519684
11
5.6645180314960628
21
-4.3005488976377952
0
LINE
8
BLACK
6
CONTINUOUS
10
5.6645180314960628
20
-4.3005488976377952
11
5.6636509448818897
21
-4.2992512204724411
0
LINE
8
BLACK
6
CONTINUOUS
10
5.6636509448818897
20
-4.2992512204724411
11
5.6633464566929135
21
-4.297720472440945
0
LINE
8
BLACK
6
CONTINUOUS
10
5.6633464566929135
20
-4.297720472440945
11
5.6633464566929135
21
-4.2583503937007876
0
LINE
8
BLACK
6
CONTINUOUS
10
5.6633464566929135
20
-4.2583503937007876
11
5.6636509448818897
21
-4.2568196456692915
0
LINE
8
BLACK
6
CONTINUOUS
10
5.6636509448818897
20
-4.2568196456692915
11
5.6645180314960628
21
-4.2555219685039365
0
LINE
8
BLACK
6
CONTINUOUS
10
5.6645180314960628
20
-4.2555219685039365
11
5.6658157086614169
21
-4.2546548818897634
0
LINE
8
BLACK
6
CONTINUOUS
10
5.6658157086614169
20
-4.2546548818897634
11
5.667346456692913
21
-4.2543503937007872
0
LINE
8
BLACK
6
CONTINUOUS
10
5.667346456692913
20
-4.2543503937007872
11
5.7106535433070862
21
-4.2543503937007872
0
LINE
8
BLACK
6
CONTINUOUS
10
5.7106535433070862
20
-4.2543503937007872
11
5.7121842913385823
21
-4.2546548818897634
0
LINE
8
BLACK
6
CONTINUOUS
10
5.7851331889763777
20
-4.1953209448818898
11
5.7883467716535435
21
-4.1974681889763783
0
LINE
8
BLACK
6
CONTINUOUS
10
5.7883467716535435
20
-4.1974681889763783
11
5.7904940157480311
21
-4.2006817716535432
0
LINE
8
BLACK
6
CONTINUOUS
10
5.7904940157480311
20
-4.2006817716535432
11
5.791248031496063
21
-4.2044724409448815
0
LINE
8
BLACK
6
CONTINUOUS
10
5.791248031496063
20
-4.2044724409448815
11
5.7904940157480311
21
-4.2082631102362207
0
LINE
8
BLACK
6
CONTINUOUS
10
5.7904940157480311
20
-4.2082631102362207
11
5.7883467716535435
21
-4.2114766929133856
0
LINE
8
BLACK
6
CONTINUOUS
10
5.7883467716535435
20
-4.2114766929133856
11
5.7851331889763777
21
-4.2136239370078741
0
LINE
8
BLACK
6
CONTINUOUS
10
5.7851331889763777
20
-4.2136239370078741
11
5.7816591732283467
21
-4.2143149606299213
0
LINE
8
BLACK
6
CONTINUOUS
10
5.7816591732283467
20
-4.2143149606299213
11
5.7851331889763777
21
-4.2150059842519685
0
LINE
8
BLACK
6
CONTINUOUS
10
5.7851331889763777
20
-4.2150059842519685
11
5.7883467716535435
21
-4.217153228346457
0
LINE
8
BLACK
6
CONTINUOUS
10
5.7883467716535435
20
-4.217153228346457
11
5.7904940157480311
21
-4.2203668110236219
0
LINE
8
BLACK
6
CONTINUOUS
10
5.7904940157480311
20
-4.2203668110236219
11
5.791248031496063
21
-4.2241574803149602
0
LINE
8
BLACK
6
CONTINUOUS
10
5.791248031496063
20
-4.2241574803149602
11
5.7904940157480311
21
-4.2279481496062994
0
LINE
8
BLACK
6
CONTINUOUS
10
5.7904940157480311
20
-4.2279481496062994
11
5.7883467716535435
21
-4.2311617322834643
0
LINE
8
BLACK
6
CONTINUOUS
10
5.7883467716535435
20
-4.2311617322834643
11
5.7851331889763777
21
-4.2333089763779528
0
LINE
8
BLACK
6
CONTINUOUS
10
5.7851331889763777
20
-4.2333089763779528
11
5.7816591732283467
21
-4.234
0
LINE
8
BLACK
6
CONTINUOUS
10
5.7816591732283467
20
-4.234
11
5.7851331889763777
21
-4.2346910236220472
0
LINE
8
BLACK
6
CONTINUOUS
10
5.7851331889763777
20
-4.2346910236220472
11
5.7883467716535435
21
-4.2368382677165357
0
LINE
8
BLACK
6
CONTINUOUS
10
5.7883467716535435
20
-4.2368382677165357
11
5.7904940157480311
21
-4.2400518503937006
0
LINE
8
BLACK
6
CONTINUOUS
10
5.7904940157480311
20
-4.2400518503937006
11
5.791248031496063
21
-4.2438425196850389
0
LINE
8
BLACK
6
CONTINUOUS
10
5.791248031496063
20
-4.2438425196850389
11
5.7904940157480311
21
-4.2476331889763781
0
LINE
8
BLACK
6
CONTINUOUS
10
5.7904940157480311
20
-4.2476331889763781
11
5.7883467716535435
21
-4.250846771653543
0
LINE
8
BLACK
6
CONTINUOUS
10
5.7883467716535435
20
-4.250846771653543
11
5.7851331889763777
21
-4.2529940157480315
0
LINE
8
BLACK
6
CONTINUOUS
10
5.7851331889763777
20
-4.2529940157480315
11
5.7816591732283467
21
-4.2536850393700787
0
LINE
8
BLACK
6
CONTINUOUS
10
5.7816591732283467
20
-4.2536850393700787
11
5.7851331889763777
21
-4.2543760629921259
0
LINE
8
BLACK
6
CONTINUOUS
10
5.7851331889763777
20
-4.2543760629921259
11
5.7883467716535435
21
-4.2565233070866144
0
LINE
8
BLACK
6
CONTINUOUS
10
5.7883467716535435
20
-4.2565233070866144
11
5.7904940157480311
21
-4.2597368897637793
0
LINE
8
BLACK
6
CONTINUOUS
10
5.7904940157480311
20
-4.2597368897637793
11
5.791248031496063
21
-4.2635275590551176
0
LINE
8
BLACK
6
CONTINUOUS
10
5.791248031496063
20
-4.2635275590551176
11
5.7904940157480311
21
-4.2673182283464568
0
LINE
8
BLACK
6
CONTINUOUS
10
5.7904940157480311
20
-4.2673182283464568
11
5.7883467716535435
21
-4.2705318110236217
0
LINE
8
BLACK
6
CONTINUOUS
10
5.7883467716535435
20
-4.2705318110236217
11
5.7851331889763777
21
-4.2726790551181102
0
LINE
8
BLACK
6
CONTINUOUS
10
5.7851331889763777
20
-4.2726790551181102
11
5.7813425196850394
21
-4.2734330708661412
0
LINE
8
BLACK
6
CONTINUOUS
10
5.7813425196850394
20
-4.2734330708661412
11
5.7775518503937002
21
-4.2726790551181102
0
LINE
8
BLACK
6
CONTINUOUS
10
5.7775518503937002
20
-4.2726790551181102
11
5.7743382677165354
21
-4.2705318110236217
0
LINE
8
BLACK
6
CONTINUOUS
10
5.7743382677165354
20
-4.2705318110236217
11
5.7721910236220468
21
-4.2673182283464568
0
LINE
8
BLACK
6
CONTINUOUS
10
5.7721910236220468
20
-4.2673182283464568
11
5.7714999999999996
21
-4.2638442125984248
0
LINE
8
BLACK
6
CONTINUOUS
10
5.7714999999999996
20
-4.2638442125984248
11
5.7708089763779524
21
-4.2673182283464568
0
LINE
8
BLACK
6
CONTINUOUS
10
5.7708089763779524
20
-4.2673182283464568
11
5.7686617322834648
21
-4.2705318110236217
0
LINE
8
BLACK
6
CONTINUOUS
10
5.7686617322834648
20
-4.2705318110236217
11
5.765448149606299
21
-4.2726790551181102
0
LINE
8
BLACK
6
CONTINUOUS
10
5.765448149606299
20
-4.2726790551181102
11
5.7616574803149607
21
-4.2734330708661412
0
LINE
8
BLACK
6
CONTINUOUS
10
5.7616574803149607
20
-4.2734330708661412
11
5.7578668110236215
21
-4.2726790551181102
0
LINE
8
BLACK
6
CONTINUOUS
10
5.7578668110236215
20
-4.2726790551181102
11
5.7546532283464567
21
-4.2705318110236217
0
LINE
8
BLACK
6
CONTINUOUS
10
5.7546532283464567
20
-4.2705318110236217
11
5.7525059842519681
21
-4.2673182283464568
0
LINE
8
BLACK
6
CONTINUOUS
10
5.7525059842519681
20
-4.2673182283464568
11
5.7517519685039371
21
-4.2635275590551176
0
LINE
8
BLACK
6
CONTINUOUS
10
5.7517519685039371
20
-4.2635275590551176
11
5.7525059842519681
21
-4.2597368897637793
0
LINE
8
BLACK
6
CONTINUOUS
10
5.7525059842519681
20
-4.2597368897637793
11
5.7546532283464567
21
-4.2565233070866144
0
LINE
8
BLACK
6
CONTINUOUS
10
5.7546532283464567
20
-4.2565233070866144
11
5.7578668110236215
21
-4.2543760629921259
0
LINE
8
BLACK
6
CONTINUOUS
10
5.7578668110236215
20
-4.2543760629921259
11
5.7613407874015747
21
-4.2536850393700787
0
LINE
8
BLACK
6
CONTINUOUS
10
5.7613407874015747
20
-4.2536850393700787
11
5.7578668110236215
21
-4.2529940157480315
0
LINE
8
BLACK
6
CONTINUOUS
10
5.7578668110236215
20
-4.2529940157480315
11
5.7546532283464567
21
-4.250846771653543
0
LINE
8
BLACK
6
CONTINUOUS
10
5.7546532283464567
20
-4.250846771653543
11
5.7525059842519681
21
-4.2476331889763781
0
LINE
8
BLACK
6
CONTINUOUS
10
5.7525059842519681
20
-4.2476331889763781
11
5.7517519685039371
21
-4.2438425196850389
0
LINE
8
BLACK
6
CONTINUOUS
10
5.7517519685039371
20
-4.2438425196850389
11
5.7525059842519681
21
-4.2400518503937006
0
LINE
8
BLACK
6
CONTINUOUS
10
5.7525059842519681
20
-4.2400518503937006
11
5.7546532283464567
21
-4.2368382677165357
0
LINE
8
BLACK
6
CONTINUOUS
10
5.7546532283464567
20
-4.2368382677165357
11
5.7578668110236215
21
-4.2346910236220472
0
LINE
8
BLACK
6
CONTINUOUS
10
5.7578668110236215
20
-4.2346910236220472
11
5.7613407874015747
21
-4.234
0
LINE
8
BLACK
6
CONTINUOUS
10
5.7613407874015747
20
-4.234
11
5.7578668110236215
21
-4.2333089763779528
0
LINE
8
BLACK
6
CONTINUOUS
10
5.7578668110236215
20
-4.2333089763779528
11
5.7546532283464567
21
-4.2311617322834643
0
LINE
8
BLACK
6
CONTINUOUS
10
5.7546532283464567
20
-4.2311617322834643
11
5.7525059842519681
21
-4.2279481496062994
0
LINE
8
BLACK
6
CONTINUOUS
10
5.7525059842519681
20
-4.2279481496062994
11
5.7517519685039371
21
-4.2241574803149602
0
LINE
8
BLACK
6
CONTINUOUS
10
5.7517519685039371
20
-4.2241574803149602
11
5.7525059842519681
21
-4.2203668110236219
0
LINE
8
BLACK
6
CONTINUOUS
10
5.7525059842519681
20
-4.2203668110236219
11
5.7546532283464567
21
-4.217153228346457
0
LINE
8
BLACK
6
CONTINUOUS
10
5.7546532283464567
20
-4.217153228346457
11
5.7578668110236215
21
-4.2150059842519685
0
LINE
8
BLACK
6
CONTINUOUS
10
5.7578668110236215
20
-4.2150059842519685
11
5.7613407874015747
21
-4.2143149606299213
0
LINE
8
BLACK
6
CONTINUOUS
10
5.7613407874015747
20
-4.2143149606299213
11
5.7578668110236215
21
-4.2136239370078741
0
LINE
8
BLACK
6
CONTINUOUS
10
5.7578668110236215
20
-4.2136239370078741
11
5.7546532283464567
21
-4.2114766929133856
0
LINE
8
BLACK
6
CONTINUOUS
10
5.7546532283464567
20
-4.2114766929133856
11
5.7525059842519681
21
-4.2082631102362207
0
LINE
8
BLACK
6
CONTINUOUS
10
5.7525059842519681
20
-4.2082631102362207
11
5.7517519685039371
21
-4.2044724409448815
0
LINE
8
BLACK
6
CONTINUOUS
10
5.7517519685039371
20
-4.2044724409448815
11
5.7525059842519681
21
-4.2006817716535432
0
LINE
8
BLACK
6
CONTINUOUS
10
5.7525059842519681
20
-4.2006817716535432
11
5.7546532283464567
21
-4.1974681889763783
0
LINE
8
BLACK
6
CONTINUOUS
10
5.7546532283464567
20
-4.1974681889763783
11
5.7578668110236215
21
-4.1953209448818898
0
LINE
8
BLACK
6
CONTINUOUS
10
5.7578668110236215
20
-4.1953209448818898
11
5.7616574803149607
21
-4.1945669291338579
0
LINE
8
BLACK
6
CONTINUOUS
10
5.7616574803149607
20
-4.1945669291338579
11
5.765448149606299
21
-4.1953209448818898
0
LINE
8
BLACK
6
CONTINUOUS
10
5.765448149606299
20
-4.1953209448818898
11
5.7686617322834648
21
-4.1974681889763783
0
LINE
8
BLACK
6
CONTINUOUS
10
5.7686617322834648
20
-4.1974681889763783
11
5.7708089763779524
21
-4.2006817716535432
0
LINE
8
BLACK
6
CONTINUOUS
10
5.7708089763779524
20
-4.2006817716535432
11
5.7714999999999996
21
-4.2041557480314964
0
LINE
8
BLACK
6
CONTINUOUS
10
5.7714999999999996
20
-4.2041557480314964
11
5.7721910236220468
21
-4.2006817716535432
0
LINE
8
BLACK
6
CONTINUOUS
10
5.7721910236220468
20
-4.2006817716535432
11
5.7743382677165354
21
-4.1974681889763783
0
LINE
8
BLACK
6
CONTINUOUS
10
5.7743382677165354
20
-4.1974681889763783
11
5.7775518503937002
21
-4.1953209448818898
0
LINE
8
BLACK
6
CONTINUOUS
10
5.7775518503937002
20
-4.1953209448818898
11
5.7813425196850394
21
-4.1945669291338579
0
LINE
8
BLACK
6
CONTINUOUS
10
5.7813425196850394
20
-4.1945669291338579
11
5.7851331889763777
21
-4.1953209448818898
0
LINE
8
BLACK
6
CONTINUOUS
10
5.7708089763779524
20
-4.2476331889763781
11
5.7686617322834648
21
-4.250846771653543
0
LINE
8
BLACK
6
CONTINUOUS
10
5.7686617322834648
20
-4.250846771653543
11
5.765448149606299
21
-4.2529940157480315
0
LINE
8
BLACK
6
CONTINUOUS
10
5.765448149606299
20
-4.2529940157480315
11
5.761974133858268
21
-4.2536850393700787
0
LINE
8
BLACK
6
CONTINUOUS
10
5.761974133858268
20
-4.2536850393700787
11
5.765448149606299
21
-4.2543760629921259
0
LINE
8
BLACK
6
CONTINUOUS
10
5.765448149606299
20
-4.2543760629921259
11
5.7686617322834648
21
-4.2565233070866144
0
LINE
8
BLACK
6
CONTINUOUS
10
5.7686617322834648
20
-4.2565233070866144
11
5.7708089763779524
21
-4.2597368897637793
0
LINE
8
BLACK
6
CONTINUOUS
10
5.7708089763779524
20
-4.2597368897637793
11
5.7714999999999996
21
-4.2632108661417325
0
LINE
8
BLACK
6
CONTINUOUS
10
5.7714999999999996
20
-4.2632108661417325
11
5.7721910236220468
21
-4.2597368897637793
0
LINE
8
BLACK
6
CONTINUOUS
10
5.7721910236220468
20
-4.2597368897637793
11
5.7743382677165354
21
-4.2565233070866144
0
LINE
8
BLACK
6
CONTINUOUS
10
5.7743382677165354
20
-4.2565233070866144
11
5.7775518503937002
21
-4.2543760629921259
0
LINE
8
BLACK
6
CONTINUOUS
10
5.7775518503937002
20
-4.2543760629921259
11
5.7810258267716534
21
-4.2536850393700787
0
LINE
8
BLACK
6
CONTINUOUS
10
5.7810258267716534
20
-4.2536850393700787
11
5.7775518503937002
21
-4.2529940157480315
0
LINE
8
BLACK
6
CONTINUOUS
10
5.7775518503937002
20
-4.2529940157480315
11
5.7743382677165354
21
-4.250846771653543
0
LINE
8
BLACK
6
CONTINUOUS
10
5.7743382677165354
20
-4.250846771653543
11
5.7721910236220468
21
-4.2476331889763781
0
LINE
8
BLACK
6
CONTINUOUS
10
5.7721910236220468
20
-4.2476331889763781
11
5.7714999999999996
21
-4.2441591732283461
0
LINE
8
BLACK
6
CONTINUOUS
10
5.7714999999999996
20
-4.2441591732283461
11
5.7708089763779524
21
-4.2476331889763781
0
LINE
8
BLACK
6
CONTINUOUS
10
5.7708089763779524
20
-4.2279481496062994
11
5.7686617322834648
21
-4.2311617322834643
0
LINE
8
BLACK
6
CONTINUOUS
10
5.7686617322834648
20
-4.2311617322834643
11
5.765448149606299
21
-4.2333089763779528
0
LINE
8
BLACK
6
CONTINUOUS
10
5.765448149606299
20
-4.2333089763779528
11
5.761974133858268
21
-4.234
0
LINE
8
BLACK
6
CONTINUOUS
10
5.761974133858268
20
-4.234
11
5.765448149606299
21
-4.2346910236220472
0
LINE
8
BLACK
6
CONTINUOUS
10
5.765448149606299
20
-4.2346910236220472
11
5.7686617322834648
21
-4.2368382677165357
0
LINE
8
BLACK
6
CONTINUOUS
10
5.7686617322834648
20
-4.2368382677165357
11
5.7708089763779524
21
-4.2400518503937006
0
LINE
8
BLACK
6
CONTINUOUS
10
5.7708089763779524
20
-4.2400518503937006
11
5.7714999999999996
21
-4.2435258267716538
0
LINE
8
BLACK
6
CONTINUOUS
10
5.7714999999999996
20
-4.2435258267716538
11
5.7721910236220468
21
-4.2400518503937006
0
LINE
8
BLACK
6
CONTINUOUS
10
5.7721910236220468
20
-4.2400518503937006
11
5.7743382677165354
21
-4.2368382677165357
0
LINE
8
BLACK
6
CONTINUOUS
10
5.7743382677165354
20
-4.2368382677165357
11
5.7775518503937002
21
-4.2346910236220472
0
LINE
8
BLACK
6
CONTINUOUS
10
5.7775518503937002
20
-4.2346910236220472
11
5.7810258267716534
21
-4.234
0
LINE
8
BLACK
6
CONTINUOUS
10
5.7810258267716534
20
-4.234
11
5.7775518503937002
21
-4.2333089763779528
0
LINE
8
BLACK
6
CONTINUOUS
10
5.7775518503937002
20
-4.2333089763779528
11
5.7743382677165354
21
-4.2311617322834643
0
LINE
8
BLACK
6
CONTINUOUS
10
5.7743382677165354
20
-4.2311617322834643
11
5.7721910236220468
21
-4.2279481496062994
0
LINE
8
BLACK
6
CONTINUOUS
10
5.7721910236220468
20
-4.2279481496062994
11
5.7714999999999996
21
-4.2244741338582674
0
LINE
8
BLACK
6
CONTINUOUS
10
5.7714999999999996
20
-4.2244741338582674
11
5.7708089763779524
21
-4.2279481496062994
0
LINE
8
BLACK
6
CONTINUOUS
10
5.7708089763779524
20
-4.2082631102362207
11
5.7686617322834648
21
-4.2114766929133856
0
LINE
8
BLACK
6
CONTINUOUS
10
5.7686617322834648
20
-4.2114766929133856
11
5.765448149606299
21
-4.2136239370078741
0
LINE
8
BLACK
6
CONTINUOUS
10
5.765448149606299
20
-4.2136239370078741
11
5.761974133858268
21
-4.2143149606299213
0
LINE
8
BLACK
6
CONTINUOUS
10
5.761974133858268
20
-4.2143149606299213
11
5.765448149606299
21
-4.2150059842519685
0
LINE
8
BLACK
6
CONTINUOUS
10
5.765448149606299
20
-4.2150059842519685
11
5.7686617322834648
21
-4.217153228346457
0
LINE
8
BLACK
6
CONTINUOUS
10
5.7686617322834648
20
-4.217153228346457
11
5.7708089763779524
21
-4.2203668110236219
0
LINE
8
BLACK
6
CONTINUOUS
10
5.7708089763779524
20
-4.2203668110236219
11
5.7714999999999996
21
-4.2238407874015751
0
LINE
8
BLACK
6
CONTINUOUS
10
5.7714999999999996
20
-4.2238407874015751
11
5.7721910236220468
21
-4.2203668110236219
0
LINE
8
BLACK
6
CONTINUOUS
10
5.7721910236220468
20
-4.2203668110236219
11
5.7743382677165354
21
-4.217153228346457
0
LINE
8
BLACK
6
CONTINUOUS
10
5.7743382677165354
20
-4.217153228346457
11
5.7775518503937002
21
-4.2150059842519685
0
LINE
8
BLACK
6
CONTINUOUS
10
5.7775518503937002
20
-4.2150059842519685
11
5.7810258267716534
21
-4.2143149606299213
0
LINE
8
BLACK
6
CONTINUOUS
10
5.7810258267716534
20
-4.2143149606299213
11
5.7775518503937002
21
-4.2136239370078741
0
LINE
8
BLACK
6
CONTINUOUS
10
5.7775518503937002
20
-4.2136239370078741
11
5.7743382677165354
21
-4.2114766929133856
0
LINE
8
BLACK
6
CONTINUOUS
10
5.7743382677165354
20
-4.2114766929133856
11
5.7721910236220468
21
-4.2082631102362207
0
LINE
8
BLACK
6
CONTINUOUS
10
5.7721910236220468
20
-4.2082631102362207
11
5.7714999999999996
21
-4.2047890944881887
0
LINE
8
BLACK
6
CONTINUOUS
10
5.7714999999999996
20
-4.2047890944881887
11
5.7708089763779524
21
-4.2082631102362207
0
LINE
8
BLACK
6
CONTINUOUS
10
5.6330307480314961
20
-4.197804488188976
11
5.6343284251968502
21
-4.1986715748031491
0
LINE
8
BLACK
6
CONTINUOUS
10
5.6343284251968502
20
-4.1986715748031491
11
5.6351955118110233
21
-4.1999692519685041
0
LINE
8
BLACK
6
CONTINUOUS
10
5.6351955118110233
20
-4.1999692519685041
11
5.6354999999999995
21
-4.2015000000000002
0
LINE
8
BLACK
6
CONTINUOUS
10
5.6354999999999995
20
-4.2015000000000002
11
5.6354999999999995
21
-4.2664999999999997
0
LINE
8
BLACK
6
CONTINUOUS
10
5.6354999999999995
20
-4.2664999999999997
11
5.6351955118110233
21
-4.2680307480314958
0
LINE
8
BLACK
6
CONTINUOUS
10
5.6351955118110233
20
-4.2680307480314958
11
5.6343284251968502
21
-4.26932842519685
0
LINE
8
BLACK
6
CONTINUOUS
10
5.6343284251968502
20
-4.26932842519685
11
5.6330307480314961
21
-4.2701955118110231
0
LINE
8
BLACK
6
CONTINUOUS
10
5.6330307480314961
20
-4.2701955118110231
11
5.6315
21
-4.2705000000000002
0
LINE
8
BLACK
6
CONTINUOUS
10
5.6315
20
-4.2705000000000002
11
5.5664999999999996
21
-4.2705000000000002
0
LINE
8
BLACK
6
CONTINUOUS
10
5.5664999999999996
20
-4.2705000000000002
11
5.5649692519685034
21
-4.2701955118110231
0
LINE
8
BLACK
6
CONTINUOUS
10
5.5649692519685034
20
-4.2701955118110231
11
5.5636715748031493
21
-4.26932842519685
0
LINE
8
BLACK
6
CONTINUOUS
10
5.5636715748031493
20
-4.26932842519685
11
5.5628044881889762
21
-4.2680307480314958
0
LINE
8
BLACK
6
CONTINUOUS
10
5.5628044881889762
20
-4.2680307480314958
11
5.5625
21
-4.2664999999999997
0
LINE
8
BLACK
6
CONTINUOUS
10
5.5625
20
-4.2664999999999997
11
5.5625
21
-4.2015000000000002
0
LINE
8
BLACK
6
CONTINUOUS
10
5.5625
20
-4.2015000000000002
11
5.5628044881889762
21
-4.1999692519685041
0
LINE
8
BLACK
6
CONTINUOUS
10
5.5628044881889762
20
-4.1999692519685041
11
5.5636715748031493
21
-4.1986715748031491
0
LINE
8
BLACK
6
CONTINUOUS
10
5.5636715748031493
20
-4.1986715748031491
11
5.5649692519685034
21
-4.197804488188976
0
LINE
8
BLACK
6
CONTINUOUS
10
5.5649692519685034
20
-4.197804488188976
11
5.5664999999999996
21
-4.1974999999999998
0
LINE
8
BLACK
6
CONTINUOUS
10
5.5664999999999996
20
-4.1974999999999998
11
5.6315
21
-4.1974999999999998
0
LINE
8
BLACK
6
CONTINUOUS
10
5.6315
20
-4.1974999999999998
11
5.6330307480314961
21
-4.197804488188976
0
LINE
8
BLACK
6
CONTINUOUS
10
5.9379913779527556
20
-4.1778438582677166
11
5.9392890551181097
21
-4.1787109448818898
0
LINE
8
BLACK
6
CONTINUOUS
10
5.9392890551181097
20
-4.1787109448818898
11
5.9401561417322837
21
-4.1800086220472439
0
LINE
8
BLACK
6
CONTINUOUS
10
5.9401561417322837
20
-4.1800086220472439
11
5.9404606299212599
21
-4.18153937007874
0
LINE
8
BLACK
6
CONTINUOUS
10
5.9404606299212599
20
-4.18153937007874
11
5.9404606299212599
21
-4.2063425196850392
0
LINE
8
BLACK
6
CONTINUOUS
10
5.9404606299212599
20
-4.2063425196850392
11
5.9404606299212599
21
-4.2264212598425193
0
LINE
8
BLACK
6
CONTINUOUS
10
5.9404606299212599
20
-4.2264212598425193
11
5.9401561417322837
21
-4.2279520078740154
0
LINE
8
BLACK
6
CONTINUOUS
10
5.9401561417322837
20
-4.2279520078740154
11
5.9392890551181097
21
-4.2292496850393704
0
LINE
8
BLACK
6
CONTINUOUS
10
5.9392890551181097
20
-4.2292496850393704
11
5.9379913779527556
21
-4.2301167716535435
0
LINE
8
BLACK
6
CONTINUOUS
10
5.9379913779527556
20
-4.2301167716535435
11
5.9364606299212594
21
-4.2304212598425197
0
LINE
8
BLACK
6
CONTINUOUS
10
5.9364606299212594
20
-4.2304212598425197
11
5.9112637795275589
21
-4.2304212598425197
0
LINE
8
BLACK
6
CONTINUOUS
10
5.9112637795275589
20
-4.2304212598425197
11
5.9097330314960628
21
-4.2301167716535435
0
LINE
8
BLACK
6
CONTINUOUS
10
5.9097330314960628
20
-4.2301167716535435
11
5.9084353543307087
21
-4.2292496850393704
0
LINE
8
BLACK
6
CONTINUOUS
10
5.9084353543307087
20
-4.2292496850393704
11
5.9075682677165355
21
-4.2279520078740154
0
LINE
8
BLACK
6
CONTINUOUS
10
5.9075682677165355
20
-4.2279520078740154
11
5.9072637795275593
21
-4.2264212598425193
0
LINE
8
BLACK
6
CONTINUOUS
10
5.9072637795275593
20
-4.2264212598425193
11
5.9072637795275593
21
-4.210736220472441
0
LINE
8
BLACK
6
CONTINUOUS
10
5.9072637795275593
20
-4.210736220472441
11
5.835736220472441
21
-4.210736220472441
0
LINE
8
BLACK
6
CONTINUOUS
10
5.835736220472441
20
-4.210736220472441
11
5.835736220472441
21
-4.2264212598425193
0
LINE
8
BLACK
6
CONTINUOUS
10
5.835736220472441
20
-4.2264212598425193
11
5.8354317322834648
21
-4.2279520078740154
0
LINE
8
BLACK
6
CONTINUOUS
10
5.8354317322834648
20
-4.2279520078740154
11
5.8345646456692908
21
-4.2292496850393704
0
LINE
8
BLACK
6
CONTINUOUS
10
5.8345646456692908
20
-4.2292496850393704
11
5.8332669685039367
21
-4.2301167716535435
0
LINE
8
BLACK
6
CONTINUOUS
10
5.8332669685039367
20
-4.2301167716535435
11
5.8317362204724406
21
-4.2304212598425197
0
LINE
8
BLACK
6
CONTINUOUS
10
5.8317362204724406
20
-4.2304212598425197
11
5.80653937007874
21
-4.2304212598425197
0
LINE
8
BLACK
6
CONTINUOUS
10
5.80653937007874
20
-4.2304212598425197
11
5.8050086220472439
21
-4.2301167716535435
0
LINE
8
BLACK
6
CONTINUOUS
10
5.8050086220472439
20
-4.2301167716535435
11
5.8037109448818898
21
-4.2292496850393704
0
LINE
8
BLACK
6
CONTINUOUS
10
5.8037109448818898
20
-4.2292496850393704
11
5.8028438582677166
21
-4.2279520078740154
0
LINE
8
BLACK
6
CONTINUOUS
10
5.8028438582677166
20
-4.2279520078740154
11
5.8025393700787404
21
-4.2264212598425193
0
LINE
8
BLACK
6
CONTINUOUS
10
5.8025393700787404
20
-4.2264212598425193
11
5.8025393700787404
21
-4.2063425196850392
0
LINE
8
BLACK
6
CONTINUOUS
10
5.8025393700787404
20
-4.2063425196850392
11
5.8025393700787404
21
-4.18153937007874
0
LINE
8
BLACK
6
CONTINUOUS
10
5.8025393700787404
20
-4.18153937007874
11
5.8028438582677166
21
-4.1800086220472439
0
LINE
8
BLACK
6
CONTINUOUS
10
5.8028438582677166
20
-4.1800086220472439
11
5.8037109448818898
21
-4.1787109448818898
0
LINE
8
BLACK
6
CONTINUOUS
10
5.8037109448818898
20
-4.1787109448818898
11
5.8050086220472439
21
-4.1778438582677166
0
LINE
8
BLACK
6
CONTINUOUS
10
5.8050086220472439
20
-4.1778438582677166
11
5.80653937007874
21
-4.1775393700787404
0
LINE
8
BLACK
6
CONTINUOUS
10
5.80653937007874
20
-4.1775393700787404
11
5.9364606299212594
21
-4.1775393700787404
0
LINE
8
BLACK
6
CONTINUOUS
10
5.9364606299212594
20
-4.1775393700787404
11
5.9379913779527556
21
-4.1778438582677166
0
LINE
8
BLACK
6
CONTINUOUS
10
5.5903142125984253
20
-4.1010525196850391
11
5.5916118897637794
21
-4.1019196062992123
0
LINE
8
BLACK
6
CONTINUOUS
10
5.5916118897637794
20
-4.1019196062992123
11
5.5924789763779525
21
-4.1032172834645673
0
LINE
8
BLACK
6
CONTINUOUS
10
5.5924789763779525
20
-4.1032172834645673
11
5.5927834645669288
21
-4.1047480314960625
0
LINE
8
BLACK
6
CONTINUOUS
10
5.5927834645669288
20
-4.1047480314960625
11
5.5927834645669288
21
-4.1598661417322838
0
LINE
8
BLACK
6
CONTINUOUS
10
5.5927834645669288
20
-4.1598661417322838
11
5.5924789763779525
21
-4.1613968897637799
0
LINE
8
BLACK
6
CONTINUOUS
10
5.5924789763779525
20
-4.1613968897637799
11
5.5916118897637794
21
-4.162694566929134
0
LINE
8
BLACK
6
CONTINUOUS
10
5.5916118897637794
20
-4.162694566929134
11
5.5903142125984253
21
-4.1635616535433071
0
LINE
8
BLACK
6
CONTINUOUS
10
5.5903142125984253
20
-4.1635616535433071
11
5.5887834645669292
21
-4.1638661417322833
0
LINE
8
BLACK
6
CONTINUOUS
10
5.5887834645669292
20
-4.1638661417322833
11
5.5494133858267718
21
-4.1638661417322833
0
LINE
8
BLACK
6
CONTINUOUS
10
5.5494133858267718
20
-4.1638661417322833
11
5.5478826377952757
21
-4.1635616535433071
0
LINE
8
BLACK
6
CONTINUOUS
10
5.5478826377952757
20
-4.1635616535433071
11
5.5465849606299216
21
-4.162694566929134
0
LINE
8
BLACK
6
CONTINUOUS
10
5.5465849606299216
20
-4.162694566929134
11
5.5457178740157476
21
-4.1613968897637799
0
LINE
8
BLACK
6
CONTINUOUS
10
5.5457178740157476
20
-4.1613968897637799
11
5.5454133858267713
21
-4.1598661417322838
0
LINE
8
BLACK
6
CONTINUOUS
10
5.5454133858267713
20
-4.1598661417322838
11
5.5454133858267713
21
-4.1047480314960625
0
LINE
8
BLACK
6
CONTINUOUS
10
5.5454133858267713
20
-4.1047480314960625
11
5.5457178740157476
21
-4.1032172834645673
0
LINE
8
BLACK
6
CONTINUOUS
10
5.5457178740157476
20
-4.1032172834645673
11
5.5465849606299216
21
-4.1019196062992123
0
LINE
8
BLACK
6
CONTINUOUS
10
5.5465849606299216
20
-4.1019196062992123
11
5.5478826377952757
21
-4.1010525196850391
0
LINE
8
BLACK
6
CONTINUOUS
10
5.5478826377952757
20
-4.1010525196850391
11
5.5494133858267718
21
-4.1007480314960629
0
LINE
8
BLACK
6
CONTINUOUS
10
5.5494133858267718
20
-4.1007480314960629
11
5.5887834645669292
21
-4.1007480314960629
0
LINE
8
BLACK
6
CONTINUOUS
10
5.5887834645669292
20
-4.1007480314960629
11
5.5903142125984253
21
-4.1010525196850391
0
LINE
8
BLACK
6
CONTINUOUS
10
5.6651173622047244
20
-4.1010525196850391
11
5.6664150393700785
21
-4.1019196062992123
0
LINE
8
BLACK
6
CONTINUOUS
10
5.6664150393700785
20
-4.1019196062992123
11
5.6672821259842516
21
-4.1032172834645673
0
LINE
8
BLACK
6
CONTINUOUS
10
5.6672821259842516
20
-4.1032172834645673
11
5.6675866141732278
21
-4.1047480314960625
0
LINE
8
BLACK
6
CONTINUOUS
10
5.6675866141732278
20
-4.1047480314960625
11
5.6675866141732278
21
-4.1598661417322838
0
LINE
8
BLACK
6
CONTINUOUS
10
5.6675866141732278
20
-4.1598661417322838
11
5.6672821259842516
21
-4.1613968897637799
0
LINE
8
BLACK
6
CONTINUOUS
10
5.6672821259842516
20
-4.1613968897637799
11
5.6664150393700785
21
-4.162694566929134
0
LINE
8
BLACK
6
CONTINUOUS
10
5.6664150393700785
20
-4.162694566929134
11
5.6651173622047244
21
-4.1635616535433071
0
LINE
8
BLACK
6
CONTINUOUS
10
5.6651173622047244
20
-4.1635616535433071
11
5.6635866141732283
21
-4.1638661417322833
0
LINE
8
BLACK
6
CONTINUOUS
10
5.6635866141732283
20
-4.1638661417322833
11
5.6242165354330709
21
-4.1638661417322833
0
LINE
8
BLACK
6
CONTINUOUS
10
5.6242165354330709
20
-4.1638661417322833
11
5.6226857874015748
21
-4.1635616535433071
0
LINE
8
BLACK
6
CONTINUOUS
10
5.6226857874015748
20
-4.1635616535433071
11
5.6213881102362206
21
-4.162694566929134
0
LINE
8
BLACK
6
CONTINUOUS
10
5.6213881102362206
20
-4.162694566929134
11
5.6205210236220475
21
-4.1613968897637799
0
LINE
8
BLACK
6
CONTINUOUS
10
5.6205210236220475
20
-4.1613968897637799
11
5.6202165354330704
21
-4.1598661417322838
0
LINE
8
BLACK
6
CONTINUOUS
10
5.6202165354330704
20
-4.1598661417322838
11
5.6202165354330704
21
-4.1047480314960625
0
LINE
8
BLACK
6
CONTINUOUS
10
5.6202165354330704
20
-4.1047480314960625
11
5.6205210236220475
21
-4.1032172834645673
0
LINE
8
BLACK
6
CONTINUOUS
10
5.6205210236220475
20
-4.1032172834645673
11
5.6213881102362206
21
-4.1019196062992123
0
LINE
8
BLACK
6
CONTINUOUS
10
5.6213881102362206
20
-4.1019196062992123
11
5.6226857874015748
21
-4.1010525196850391
0
LINE
8
BLACK
6
CONTINUOUS
10
5.6226857874015748
20
-4.1010525196850391
11
5.6242165354330709
21
-4.1007480314960629
0
LINE
8
BLACK
6
CONTINUOUS
10
5.6242165354330709
20
-4.1007480314960629
11
5.6635866141732283
21
-4.1007480314960629
0
LINE
8
BLACK
6
CONTINUOUS
10
5.6635866141732283
20
-4.1007480314960629
11
5.6651173622047244
21
-4.1010525196850391
0
LINE
8
BLACK
6
CONTINUOUS
10
5.8855307480314956
20
-4.0553044881889759
11
5.8868284251968506
21
-4.0561715748031499
0
LINE
8
BLACK
6
CONTINUOUS
10
5.8868284251968506
20
-4.0561715748031499
11
5.8876955118110237
21
-4.0574692519685041
0
LINE
8
BLACK
6
CONTINUOUS
10
5.8876955118110237
20
-4.0574692519685041
11
5.8879999999999999
21
-4.0590000000000002
0
LINE
8
BLACK
6
CONTINUOUS
10
5.8879999999999999
20
-4.0590000000000002
11
5.8879999999999999
21
-4.1589999999999998
0
LINE
8
BLACK
6
CONTINUOUS
10
5.8879999999999999
20
-4.1589999999999998
11
5.8876955118110237
21
-4.1605307480314959
0
LINE
8
BLACK
6
CONTINUOUS
10
5.8876955118110237
20
-4.1605307480314959
11
5.8868284251968506
21
-4.16182842519685
0
LINE
8
BLACK
6
CONTINUOUS
10
5.8868284251968506
20
-4.16182842519685
11
5.8855307480314956
21
-4.1626955118110232
0
LINE
8
BLACK
6
CONTINUOUS
10
5.8855307480314956
20
-4.1626955118110232
11
5.8839999999999995
21
-4.1630000000000003
0
LINE
8
BLACK
6
CONTINUOUS
10
5.8839999999999995
20
-4.1630000000000003
11
5.8339999999999996
21
-4.1630000000000003
0
LINE
8
BLACK
6
CONTINUOUS
10
5.8339999999999996
20
-4.1630000000000003
11
5.8324692519685035
21
-4.1626955118110232
0
LINE
8
BLACK
6
CONTINUOUS
10
5.8324692519685035
20
-4.1626955118110232
11
5.8311715748031494
21
-4.16182842519685
0
LINE
8
BLACK
6
CONTINUOUS
10
5.8311715748031494
20
-4.16182842519685
11
5.8303044881889763
21
-4.1605307480314959
0
LINE
8
BLACK
6
CONTINUOUS
10
5.8303044881889763
20
-4.1605307480314959
11
5.8300000000000001
21
-4.1589999999999998
0
LINE
8
BLACK
6
CONTINUOUS
10
5.8300000000000001
20
-4.1589999999999998
11
5.8300000000000001
21
-4.0590000000000002
0
LINE
8
BLACK
6
CONTINUOUS
10
5.8300000000000001
20
-4.0590000000000002
11
5.8303044881889763
21
-4.0574692519685041
0
LINE
8
BLACK
6
CONTINUOUS
10
5.8303044881889763
20
-4.0574692519685041
11
5.8311715748031494
21
-4.0561715748031499
0
LINE
8
BLACK
6
CONTINUOUS
10
5.8311715748031494
20
-4.0561715748031499
11
5.8324692519685035
21
-4.0553044881889759
0
LINE
8
BLACK
6
CONTINUOUS
10
5.8324692519685035
20
-4.0553044881889759
11
5.8339999999999996
21
-4.0549999999999997
0
LINE
8
BLACK
6
CONTINUOUS
10
5.8339999999999996
20
-4.0549999999999997
11
5.8839999999999995
21
-4.0549999999999997
0
LINE
8
BLACK
6
CONTINUOUS
10
5.8839999999999995
20
-4.0549999999999997
11
5.8855307480314956
21
-4.0553044881889759
0
LINE
8
BLACK
6
CONTINUOUS
10
6.0480307480314961
20
-4.0553044881889759
11
6.0493284251968502
21
-4.0561715748031499
0
LINE
8
BLACK
6
CONTINUOUS
10
6.0493284251968502
20
-4.0561715748031499
11
6.0501955118110233
21
-4.0574692519685041
0
LINE
8
BLACK
6
CONTINUOUS
10
6.0501955118110233
20
-4.0574692519685041
11
6.0504999999999995
21
-4.0590000000000002
0
LINE
8
BLACK
6
CONTINUOUS
10
6.0504999999999995
20
-4.0590000000000002
11
6.0504999999999995
21
-4.1589999999999998
0
LINE
8
BLACK
6
CONTINUOUS
10
6.0504999999999995
20
-4.1589999999999998
11
6.0501955118110233
21
-4.1605307480314959
0
LINE
8
BLACK
6
CONTINUOUS
10
6.0501955118110233
20
-4.1605307480314959
11
6.0493284251968502
21
-4.16182842519685
0
LINE
8
BLACK
6
CONTINUOUS
10
6.0493284251968502
20
-4.16182842519685
11
6.0480307480314961
21
-4.1626955118110232
0
LINE
8
BLACK
6
CONTINUOUS
10
6.0480307480314961
20
-4.1626955118110232
11
6.0465
21
-4.1630000000000003
0
LINE
8
BLACK
6
CONTINUOUS
10
6.0465
20
-4.1630000000000003
11
5.9965000000000002
21
-4.1630000000000003
0
LINE
8
BLACK
6
CONTINUOUS
10
5.9965000000000002
20
-4.1630000000000003
11
5.9949692519685041
21
-4.1626955118110232
0
LINE
8
BLACK
6
CONTINUOUS
10
5.9949692519685041
20
-4.1626955118110232
11
5.993671574803149
21
-4.16182842519685
0
LINE
8
BLACK
6
CONTINUOUS
10
5.993671574803149
20
-4.16182842519685
11
5.9928044881889759
21
-4.1605307480314959
0
LINE
8
BLACK
6
CONTINUOUS
10
5.9928044881889759
20
-4.1605307480314959
11
5.9924999999999997
21
-4.1589999999999998
0
LINE
8
BLACK
6
CONTINUOUS
10
5.9924999999999997
20
-4.1589999999999998
11
5.9924999999999997
21
-4.0590000000000002
0
LINE
8
BLACK
6
CONTINUOUS
10
5.9924999999999997
20
-4.0590000000000002
11
5.9928044881889759
21
-4.0574692519685041
0
LINE
8
BLACK
6
CONTINUOUS
10
5.9928044881889759
20
-4.0574692519685041
11
5.993671574803149
21
-4.0561715748031499
0
LINE
8
BLACK
6
CONTINUOUS
10
5.993671574803149
20
-4.0561715748031499
11
5.9949692519685041
21
-4.0553044881889759
0
LINE
8
BLACK
6
CONTINUOUS
10
5.9949692519685041
20
-4.0553044881889759
11
5.9965000000000002
21
-4.0549999999999997
0
LINE
8
BLACK
6
CONTINUOUS
10
5.9965000000000002
20
-4.0549999999999997
11
6.0465
21
-4.0549999999999997
0
LINE
8
BLACK
6
CONTINUOUS
10
6.0465
20
-4.0549999999999997
11
6.0480307480314961
21
-4.0553044881889759
0
LINE
8
BLACK
6
CONTINUOUS
10
5.7362197244094491
20
-4.0957769291338586
11
5.7375174015748032
21
-4.0966440157480317
0
LINE
8
BLACK
6
CONTINUOUS
10
5.7375174015748032
20
-4.0966440157480317
11
5.7383844881889763
21
-4.0979416929133858
0
LINE
8
BLACK
6
CONTINUOUS
10
5.7383844881889763
20
-4.0979416929133858
11
5.7386889763779525
21
-4.0994724409448819
0
LINE
8
BLACK
6
CONTINUOUS
10
5.7386889763779525
20
-4.0994724409448819
11
5.7386889763779525
21
-4.1585275590551181
0
LINE
8
BLACK
6
CONTINUOUS
10
5.7386889763779525
20
-4.1585275590551181
11
5.7383844881889763
21
-4.1600583070866142
0
LINE
8
BLACK
6
CONTINUOUS
10
5.7383844881889763
20
-4.1600583070866142
11
5.7375174015748032
21
-4.1613559842519683
0
LINE
8
BLACK
6
CONTINUOUS
10
5.7375174015748032
20
-4.1613559842519683
11
5.7362197244094491
21
-4.1622230708661414
0
LINE
8
BLACK
6
CONTINUOUS
10
5.7362197244094491
20
-4.1622230708661414
11
5.7346889763779529
21
-4.1625275590551176
0
LINE
8
BLACK
6
CONTINUOUS
10
5.7346889763779529
20
-4.1625275590551176
11
5.6835078740157483
21
-4.1625275590551176
0
LINE
8
BLACK
6
CONTINUOUS
10
5.6835078740157483
20
-4.1625275590551176
11
5.6819771259842522
21
-4.1622230708661414
0
LINE
8
BLACK
6
CONTINUOUS
10
5.6819771259842522
20
-4.1622230708661414
11
5.6806794488188972
21
-4.1613559842519683
0
LINE
8
BLACK
6
CONTINUOUS
10
5.6806794488188972
20
-4.1613559842519683
11
5.6798123622047241
21
-4.1600583070866142
0
LINE
8
BLACK
6
CONTINUOUS
10
5.6798123622047241
20
-4.1600583070866142
11
5.6795078740157479
21
-4.1585275590551181
0
LINE
8
BLACK
6
CONTINUOUS
10
5.6795078740157479
20
-4.1585275590551181
11
5.6795078740157479
21
-4.0994724409448819
0
LINE
8
BLACK
6
CONTINUOUS
10
5.6795078740157479
20
-4.0994724409448819
11
5.6798123622047241
21
-4.0979416929133858
0
LINE
8
BLACK
6
CONTINUOUS
10
5.6798123622047241
20
-4.0979416929133858
11
5.6806794488188972
21
-4.0966440157480317
0
LINE
8
BLACK
6
CONTINUOUS
10
5.6806794488188972
20
-4.0966440157480317
11
5.6819771259842522
21
-4.0957769291338586
0
LINE
8
BLACK
6
CONTINUOUS
10
5.6819771259842522
20
-4.0957769291338586
11
5.6835078740157483
21
-4.0954724409448815
0
LINE
8
BLACK
6
CONTINUOUS
10
5.6835078740157483
20
-4.0954724409448815
11
5.7346889763779529
21
-4.0954724409448815
0
LINE
8
BLACK
6
CONTINUOUS
10
5.7346889763779529
20
-4.0954724409448815
11
5.7362197244094491
21
-4.0957769291338586
0
LINE
8
BLACK
6
CONTINUOUS
10
5.8110228740157481
20
-4.0957769291338586
11
5.8123205511811022
21
-4.0966440157480317
0
LINE
8
BLACK
6
CONTINUOUS
10
5.8123205511811022
20
-4.0966440157480317
11
5.8131876377952754
21
-4.0979416929133858
0
LINE
8
BLACK
6
CONTINUOUS
10
5.8131876377952754
20
-4.0979416929133858
11
5.8134921259842516
21
-4.0994724409448819
0
LINE
8
BLACK
6
CONTINUOUS
10
5.8134921259842516
20
-4.0994724409448819
11
5.8134921259842516
21
-4.1585275590551181
0
LINE
8
BLACK
6
CONTINUOUS
10
5.8134921259842516
20
-4.1585275590551181
11
5.8131876377952754
21
-4.1600583070866142
0
LINE
8
BLACK
6
CONTINUOUS
10
5.8131876377952754
20
-4.1600583070866142
11
5.8123205511811022
21
-4.1613559842519683
0
LINE
8
BLACK
6
CONTINUOUS
10
5.8123205511811022
20
-4.1613559842519683
11
5.8110228740157481
21
-4.1622230708661414
0
LINE
8
BLACK
6
CONTINUOUS
10
5.8110228740157481
20
-4.1622230708661414
11
5.809492125984252
21
-4.1625275590551176
0
LINE
8
BLACK
6
CONTINUOUS
10
5.809492125984252
20
-4.1625275590551176
11
5.7583110236220474
21
-4.1625275590551176
0
LINE
8
BLACK
6
CONTINUOUS
10
5.7583110236220474
20
-4.1625275590551176
11
5.7567802755905513
21
-4.1622230708661414
0
LINE
8
BLACK
6
CONTINUOUS
10
5.7567802755905513
20
-4.1622230708661414
11
5.7554825984251972
21
-4.1613559842519683
0
LINE
8
BLACK
6
CONTINUOUS
10
5.7554825984251972
20
-4.1613559842519683
11
5.7546155118110232
21
-4.1600583070866142
0
LINE
8
BLACK
6
CONTINUOUS
10
5.7546155118110232
20
-4.1600583070866142
11
5.7543110236220469
21
-4.1585275590551181
0
LINE
8
BLACK
6
CONTINUOUS
10
5.7543110236220469
20
-4.1585275590551181
11
5.7543110236220469
21
-4.0994724409448819
0
LINE
8
BLACK
6
CONTINUOUS
10
5.7543110236220469
20
-4.0994724409448819
11
5.7546155118110232
21
-4.0979416929133858
0
LINE
8
BLACK
6
CONTINUOUS
10
5.7546155118110232
20
-4.0979416929133858
11
5.7554825984251972
21
-4.0966440157480317
0
LINE
8
BLACK
6
CONTINUOUS
10
5.7554825984251972
20
-4.0966440157480317
11
5.7567802755905513
21
-4.0957769291338586
0
LINE
8
BLACK
6
CONTINUOUS
10
5.7567802755905513
20
-4.0957769291338586
11
5.7583110236220474
21
-4.0954724409448815
0
LINE
8
BLACK
6
CONTINUOUS
10
5.7583110236220474
20
-4.0954724409448815
11
5.809492125984252
21
-4.0954724409448815
0
LINE
8
BLACK
6
CONTINUOUS
10
5.809492125984252
20
-4.0954724409448815
11
5.8110228740157481
21
-4.0957769291338586
0
LINE
8
BLACK
6
CONTINUOUS
10
6.1912125590551179
20
-3.9872194094488189
11
6.1993000787401575
21
-3.9903525196850391
0
LINE
8
BLACK
6
CONTINUOUS
10
6.1993000787401575
20
-3.9903525196850391
11
6.2066742125984247
21
-3.9949183858267716
0
LINE
8
BLACK
6
CONTINUOUS
10
6.2066742125984247
20
-3.9949183858267716
11
6.2130838188976378
21
-4.0007614960629923
0
LINE
8
BLACK
6
CONTINUOUS
10
6.2130838188976378
20
-4.0007614960629923
11
6.2183105905511811
21
-4.0076828740157477
0
LINE
8
BLACK
6
CONTINUOUS
10
6.2183105905511811
20
-4.0076828740157477
11
6.2221765748031492
21
-4.0154468503937011
0
LINE
8
BLACK
6
CONTINUOUS
10
6.2221765748031492
20
-4.0154468503937011
11
6.2245501181102361
21
-4.0237889763779524
0
LINE
8
BLACK
6
CONTINUOUS
10
6.2245501181102361
20
-4.0237889763779524
11
6.2253503937007872
21
-4.0324251968503937
0
LINE
8
BLACK
6
CONTINUOUS
10
6.2253503937007872
20
-4.0324251968503937
11
6.2245501181102361
21
-4.041061417322835
0
LINE
8
BLACK
6
CONTINUOUS
10
6.2245501181102361
20
-4.041061417322835
11
6.2221765748031492
21
-4.0494035433070863
0
LINE
8
BLACK
6
CONTINUOUS
10
6.2221765748031492
20
-4.0494035433070863
11
6.2183105905511811
21
-4.0571675196850396
0
LINE
8
BLACK
6
CONTINUOUS
10
6.2183105905511811
20
-4.0571675196850396
11
6.2130838188976378
21
-4.0640888976377951
0
LINE
8
BLACK
6
CONTINUOUS
10
6.2130838188976378
20
-4.0640888976377951
11
6.2066742125984247
21
-4.0699320078740158
0
LINE
8
BLACK
6
CONTINUOUS
10
6.2066742125984247
20
-4.0699320078740158
11
6.1993000787401575
21
-4.0744978740157478
0
LINE
8
BLACK
6
CONTINUOUS
10
6.1993000787401575
20
-4.0744978740157478
11
6.1912125590551179
21
-4.077630984251968
0
LINE
8
BLACK
6
CONTINUOUS
10
6.1912125590551179
20
-4.077630984251968
11
6.1826870078740157
21
-4.0792246850393701
0
LINE
8
BLACK
6
CONTINUOUS
10
6.1826870078740157
20
-4.0792246850393701
11
6.1740137795275585
21
-4.0792246850393701
0
LINE
8
BLACK
6
CONTINUOUS
10
6.1740137795275585
20
-4.0792246850393701
11
6.1654882283464563
21
-4.077630984251968
0
LINE
8
BLACK
6
CONTINUOUS
10
6.1654882283464563
20
-4.077630984251968
11
6.1574007086614175
21
-4.0744978740157478
0
LINE
8
BLACK
6
CONTINUOUS
10
6.1574007086614175
20
-4.0744978740157478
11
6.1500265748031495
21
-4.0699320078740158
0
LINE
8
BLACK
6
CONTINUOUS
10
6.1500265748031495
20
-4.0699320078740158
11
6.1436169685039372
21
-4.0640888976377951
0
LINE
8
BLACK
6
CONTINUOUS
10
6.1436169685039372
20
-4.0640888976377951
11
6.138390196850394
21
-4.0571675196850396
0
LINE
8
BLACK
6
CONTINUOUS
10
6.138390196850394
20
-4.0571675196850396
11
6.134524212598425
21
-4.0494035433070863
0
LINE
8
BLACK
6
CONTINUOUS
10
6.134524212598425
20
-4.0494035433070863
11
6.1321506692913381
21
-4.041061417322835
0
LINE
8
BLACK
6
CONTINUOUS
10
6.1321506692913381
20
-4.041061417322835
11
6.1313503937007869
21
-4.0324251968503937
0
LINE
8
BLACK
6
CONTINUOUS
10
6.1313503937007869
20
-4.0324251968503937
11
6.1321506692913381
21
-4.0237889763779524
0
LINE
8
BLACK
6
CONTINUOUS
10
6.1321506692913381
20
-4.0237889763779524
11
6.134524212598425
21
-4.0154468503937011
0
LINE
8
BLACK
6
CONTINUOUS
10
6.134524212598425
20
-4.0154468503937011
11
6.138390196850394
21
-4.0076828740157477
0
LINE
8
BLACK
6
CONTINUOUS
10
6.138390196850394
20
-4.0076828740157477
11
6.1436169685039372
21
-4.0007614960629923
0
LINE
8
BLACK
6
CONTINUOUS
10
6.1436169685039372
20
-4.0007614960629923
11
6.1500265748031495
21
-3.9949183858267716
0
LINE
8
BLACK
6
CONTINUOUS
10
6.1500265748031495
20
-3.9949183858267716
11
6.1574007086614175
21
-3.9903525196850391
0
LINE
8
BLACK
6
CONTINUOUS
10
6.1574007086614175
20
-3.9903525196850391
11
6.1654882283464563
21
-3.9872194094488189
0
LINE
8
BLACK
6
CONTINUOUS
10
6.1654882283464563
20
-3.9872194094488189
11
6.1740137795275585
21
-3.9856257086614173
0
LINE
8
BLACK
6
CONTINUOUS
10
6.1740137795275585
20
-3.9856257086614173
11
6.1826870078740157
21
-3.9856257086614173
0
LINE
8
BLACK
6
CONTINUOUS
10
6.1826870078740157
20
-3.9856257086614173
11
6.1912125590551179
21
-3.9872194094488189
0
LINE
8
BLACK
6
CONTINUOUS
10
5.6277157874015744
20
-4.0144383464566928
11
5.6290134645669294
21
-4.015305433070866
0
LINE
8
BLACK
6
CONTINUOUS
10
5.6290134645669294
20
-4.015305433070866
11
5.6298805511811025
21
-4.0166031102362201
0
LINE
8
BLACK
6
CONTINUOUS
10
5.6298805511811025
20
-4.0166031102362201
11
5.6301850393700787
21
-4.0181338582677162
0
LINE
8
BLACK
6
CONTINUOUS
10
5.6301850393700787
20
-4.0181338582677162
11
5.6301850393700787
21
-4.0732519685039366
0
LINE
8
BLACK
6
CONTINUOUS
10
5.6301850393700787
20
-4.0732519685039366
11
5.6298805511811025
21
-4.0747827165354327
0
LINE
8
BLACK
6
CONTINUOUS
10
5.6298805511811025
20
-4.0747827165354327
11
5.6290134645669294
21
-4.0760803937007877
0
LINE
8
BLACK
6
CONTINUOUS
10
5.6290134645669294
20
-4.0760803937007877
11
5.6277157874015744
21
-4.0769474803149608
0
LINE
8
BLACK
6
CONTINUOUS
10
5.6277157874015744
20
-4.0769474803149608
11
5.6261850393700783
21
-4.077251968503937
0
LINE
8
BLACK
6
CONTINUOUS
10
5.6261850393700783
20
-4.077251968503937
11
5.5868149606299209
21
-4.077251968503937
0
LINE
8
BLACK
6
CONTINUOUS
10
5.5868149606299209
20
-4.077251968503937
11
5.5852842125984248
21
-4.0769474803149608
0
LINE
8
BLACK
6
CONTINUOUS
10
5.5852842125984248
20
-4.0769474803149608
11
5.5839865354330707
21
-4.0760803937007877
0
LINE
8
BLACK
6
CONTINUOUS
10
5.5839865354330707
20
-4.0760803937007877
11
5.5831194488188975
21
-4.0747827165354327
0
LINE
8
BLACK
6
CONTINUOUS
10
5.5831194488188975
20
-4.0747827165354327
11
5.5828149606299213
21
-4.0732519685039366
0
LINE
8
BLACK
6
CONTINUOUS
10
5.5828149606299213
20
-4.0732519685039366
11
5.5828149606299213
21
-4.0181338582677162
0
LINE
8
BLACK
6
CONTINUOUS
10
5.5828149606299213
20
-4.0181338582677162
11
5.5831194488188975
21
-4.0166031102362201
0
LINE
8
BLACK
6
CONTINUOUS
10
5.5831194488188975
20
-4.0166031102362201
11
5.5839865354330707
21
-4.015305433070866
0
LINE
8
BLACK
6
CONTINUOUS
10
5.5839865354330707
20
-4.015305433070866
11
5.5852842125984248
21
-4.0144383464566928
0
LINE
8
BLACK
6
CONTINUOUS
10
5.5852842125984248
20
-4.0144383464566928
11
5.5868149606299209
21
-4.0141338582677166
0
LINE
8
BLACK
6
CONTINUOUS
10
5.5868149606299209
20
-4.0141338582677166
11
5.6261850393700783
21
-4.0141338582677166
0
LINE
8
BLACK
6
CONTINUOUS
10
5.6261850393700783
20
-4.0141338582677166
11
5.6277157874015744
21
-4.0144383464566928
0
LINE
8
BLACK
6
CONTINUOUS
10
6.11899531496063
20
-3.9505800787401575
11
6.1202929921259841
21
-3.9514471653543306
0
LINE
8
BLACK
6
CONTINUOUS
10
6.1202929921259841
20
-3.9514471653543306
11
6.1211600787401572
21
-3.9527448425196852
0
LINE
8
BLACK
6
CONTINUOUS
10
6.1211600787401572
20
-3.9527448425196852
11
6.1214645669291334
21
-3.9542755905511808
0
LINE
8
BLACK
6
CONTINUOUS
10
6.1214645669291334
20
-3.9542755905511808
11
6.1214645669291334
21
-4.0251417322834646
0
LINE
8
BLACK
6
CONTINUOUS
10
6.1214645669291334
20
-4.0251417322834646
11
6.1211600787401572
21
-4.0266724803149607
0
LINE
8
BLACK
6
CONTINUOUS
10
6.1211600787401572
20
-4.0266724803149607
11
6.1202929921259841
21
-4.0279701574803148
0
LINE
8
BLACK
6
CONTINUOUS
10
6.1202929921259841
20
-4.0279701574803148
11
6.11899531496063
21
-4.028837244094488
0
LINE
8
BLACK
6
CONTINUOUS
10
6.11899531496063
20
-4.028837244094488
11
6.1174645669291339
21
-4.0291417322834642
0
LINE
8
BLACK
6
CONTINUOUS
10
6.1174645669291339
20
-4.0291417322834642
11
6.0505354330708663
21
-4.0291417322834642
0
LINE
8
BLACK
6
CONTINUOUS
10
6.0505354330708663
20
-4.0291417322834642
11
6.0490046850393702
21
-4.028837244094488
0
LINE
8
BLACK
6
CONTINUOUS
10
6.0490046850393702
20
-4.028837244094488
11
6.047707007874016
21
-4.0279701574803148
0
LINE
8
BLACK
6
CONTINUOUS
10
6.047707007874016
20
-4.0279701574803148
11
6.046839921259842
21
-4.0266724803149607
0
LINE
8
BLACK
6
CONTINUOUS
10
6.046839921259842
20
-4.0266724803149607
11
6.0465354330708658
21
-4.0251417322834646
0
LINE
8
BLACK
6
CONTINUOUS
10
6.0465354330708658
20
-4.0251417322834646
11
6.0465354330708658
21
-3.9542755905511808
0
LINE
8
BLACK
6
CONTINUOUS
10
6.0465354330708658
20
-3.9542755905511808
11
6.046839921259842
21
-3.9527448425196852
0
LINE
8
BLACK
6
CONTINUOUS
10
6.046839921259842
20
-3.9527448425196852
11
6.047707007874016
21
-3.9514471653543306
0
LINE
8
BLACK
6
CONTINUOUS
10
6.047707007874016
20
-3.9514471653543306
11
6.0490046850393702
21
-3.9505800787401575
0
LINE
8
BLACK
6
CONTINUOUS
10
6.0490046850393702
20
-3.9505800787401575
11
6.0505354330708663
21
-3.9502755905511808
0
LINE
8
BLACK
6
CONTINUOUS
10
6.0505354330708663
20
-3.9502755905511808
11
6.1174645669291339
21
-3.9502755905511808
0
LINE
8
BLACK
6
CONTINUOUS
10
6.1174645669291339
20
-3.9502755905511808
11
6.11899531496063
21
-3.9505800787401575
0
LINE
8
BLACK
6
CONTINUOUS
10
6.0024598818897639
20
-3.9446745669291339
11
6.003757559055118
21
-3.945541653543307
0
LINE
8
BLACK
6
CONTINUOUS
10
6.003757559055118
20
-3.945541653543307
11
6.0046246456692911
21
-3.9468393307086611
0
LINE
8
BLACK
6
CONTINUOUS
10
6.0046246456692911
20
-3.9468393307086611
11
6.0049291338582673
21
-3.9483700787401572
0
LINE
8
BLACK
6
CONTINUOUS
10
6.0049291338582673
20
-3.9483700787401572
11
6.0049291338582673
21
-4.0231732283464563
0
LINE
8
BLACK
6
CONTINUOUS
10
6.0049291338582673
20
-4.0231732283464563
11
6.0046246456692911
21
-4.0247039763779524
0
LINE
8
BLACK
6
CONTINUOUS
10
6.0046246456692911
20
-4.0247039763779524
11
6.003757559055118
21
-4.0260016535433074
0
LINE
8
BLACK
6
CONTINUOUS
10
6.003757559055118
20
-4.0260016535433074
11
6.0024598818897639
21
-4.0268687401574805
0
LINE
8
BLACK
6
CONTINUOUS
10
6.0024598818897639
20
-4.0268687401574805
11
6.0009291338582678
21
-4.0271732283464567
0
LINE
8
BLACK
6
CONTINUOUS
10
6.0009291338582678
20
-4.0271732283464567
11
5.8670708661417326
21
-4.0271732283464567
0
LINE
8
BLACK
6
CONTINUOUS
10
5.8670708661417326
20
-4.0271732283464567
11
5.8655401181102365
21
-4.0268687401574805
0
LINE
8
BLACK
6
CONTINUOUS
10
5.8655401181102365
20
-4.0268687401574805
11
5.8642424409448815
21
-4.0260016535433074
0
LINE
8
BLACK
6
CONTINUOUS
10
5.8642424409448815
20
-4.0260016535433074
11
5.8633753543307083
21
-4.0247039763779524
0
LINE
8
BLACK
6
CONTINUOUS
10
5.8633753543307083
20
-4.0247039763779524
11
5.8630708661417321
21
-4.0231732283464563
0
LINE
8
BLACK
6
CONTINUOUS
10
5.8630708661417321
20
-4.0231732283464563
11
5.8630708661417321
21
-3.9483700787401572
0
LINE
8
BLACK
6
CONTINUOUS
10
5.8630708661417321
20
-3.9483700787401572
11
5.8633753543307083
21
-3.9468393307086611
0
LINE
8
BLACK
6
CONTINUOUS
10
5.8633753543307083
20
-3.9468393307086611
11
5.8642424409448815
21
-3.945541653543307
0
LINE
8
BLACK
6
CONTINUOUS
10
5.8642424409448815
20
-3.945541653543307
11
5.8655401181102365
21
-3.9446745669291339
0
LINE
8
BLACK
6
CONTINUOUS
10
5.8655401181102365
20
-3.9446745669291339
11
5.8670708661417326
21
-3.9443700787401572
0
LINE
8
BLACK
6
CONTINUOUS
10
5.8670708661417326
20
-3.9443700787401572
11
6.0009291338582678
21
-3.9443700787401572
0
LINE
8
BLACK
6
CONTINUOUS
10
6.0009291338582678
20
-3.9443700787401572
11
6.0024598818897639
21
-3.9446745669291339
0
LINE
8
BLACK
6
CONTINUOUS
10
5.6305307480314957
20
-3.9228044881889761
11
5.6318284251968507
21
-3.9236715748031497
0
LINE
8
BLACK
6
CONTINUOUS
10
5.6318284251968507
20
-3.9236715748031497
11
5.6326955118110238
21
-3.9249692519685038
0
LINE
8
BLACK
6
CONTINUOUS
10
5.6326955118110238
20
-3.9249692519685038
11
5.633
21
-3.9264999999999999
0
LINE
8
BLACK
6
CONTINUOUS
10
5.633
20
-3.9264999999999999
11
5.633
21
-3.9914999999999998
0
LINE
8
BLACK
6
CONTINUOUS
10
5.633
20
-3.9914999999999998
11
5.6326955118110238
21
-3.9930307480314959
0
LINE
8
BLACK
6
CONTINUOUS
10
5.6326955118110238
20
-3.9930307480314959
11
5.6318284251968507
21
-3.9943284251968505
0
LINE
8
BLACK
6
CONTINUOUS
10
5.6318284251968507
20
-3.9943284251968505
11
5.6305307480314957
21
-3.9951955118110236
0
LINE
8
BLACK
6
CONTINUOUS
10
5.6305307480314957
20
-3.9951955118110236
11
5.6289999999999996
21
-3.9954999999999998
0
LINE
8
BLACK
6
CONTINUOUS
10
5.6289999999999996
20
-3.9954999999999998
11
5.5640000000000001
21
-3.9954999999999998
0
LINE
8
BLACK
6
CONTINUOUS
10
5.5640000000000001
20
-3.9954999999999998
11
5.5624692519685039
21
-3.9951955118110236
0
LINE
8
BLACK
6
CONTINUOUS
10
5.5624692519685039
20
-3.9951955118110236
11
5.5611715748031498
21
-3.9943284251968505
0
LINE
8
BLACK
6
CONTINUOUS
10
5.5611715748031498
20
-3.9943284251968505
11
5.5603044881889758
21
-3.9930307480314959
0
LINE
8
BLACK
6
CONTINUOUS
10
5.5603044881889758
20
-3.9930307480314959
11
5.5599999999999996
21
-3.9914999999999998
0
LINE
8
BLACK
6
CONTINUOUS
10
5.5599999999999996
20
-3.9914999999999998
11
5.5599999999999996
21
-3.9264999999999999
0
LINE
8
BLACK
6
CONTINUOUS
10
5.5599999999999996
20
-3.9264999999999999
11
5.5603044881889758
21
-3.9249692519685038
0
LINE
8
BLACK
6
CONTINUOUS
10
5.5603044881889758
20
-3.9249692519685038
11
5.5611715748031498
21
-3.9236715748031497
0
LINE
8
BLACK
6
CONTINUOUS
10
5.5611715748031498
20
-3.9236715748031497
11
5.5624692519685039
21
-3.9228044881889761
0
LINE
8
BLACK
6
CONTINUOUS
10
5.5624692519685039
20
-3.9228044881889761
11
5.5640000000000001
21
-3.9224999999999999
0
LINE
8
BLACK
6
CONTINUOUS
10
5.5640000000000001
20
-3.9224999999999999
11
5.6289999999999996
21
-3.9224999999999999
0
LINE
8
BLACK
6
CONTINUOUS
10
5.6289999999999996
20
-3.9224999999999999
11
5.6305307480314957
21
-3.9228044881889761
0
LINE
8
BLACK
6
CONTINUOUS
10
5.7305307480314962
20
-3.9228044881889761
11
5.7318284251968503
21
-3.9236715748031497
0
LINE
8
BLACK
6
CONTINUOUS
10
5.7318284251968503
20
-3.9236715748031497
11
5.7326955118110234
21
-3.9249692519685038
0
LINE
8
BLACK
6
CONTINUOUS
10
5.7326955118110234
20
-3.9249692519685038
11
5.7329999999999997
21
-3.9264999999999999
0
LINE
8
BLACK
6
CONTINUOUS
10
5.7329999999999997
20
-3.9264999999999999
11
5.7329999999999997
21
-3.9914999999999998
0
LINE
8
BLACK
6
CONTINUOUS
10
5.7329999999999997
20
-3.9914999999999998
11
5.7326955118110234
21
-3.9930307480314959
0
LINE
8
BLACK
6
CONTINUOUS
10
5.7326955118110234
20
-3.9930307480314959
11
5.7318284251968503
21
-3.9943284251968505
0
LINE
8
BLACK
6
CONTINUOUS
10
5.7318284251968503
20
-3.9943284251968505
11
5.7305307480314962
21
-3.9951955118110236
0
LINE
8
BLACK
6
CONTINUOUS
10
5.7305307480314962
20
-3.9951955118110236
11
5.7290000000000001
21
-3.9954999999999998
0
LINE
8
BLACK
6
CONTINUOUS
10
5.7290000000000001
20
-3.9954999999999998
11
5.6639999999999997
21
-3.9954999999999998
0
LINE
8
BLACK
6
CONTINUOUS
10
5.6639999999999997
20
-3.9954999999999998
11
5.6624692519685036
21
-3.9951955118110236
0
LINE
8
BLACK
6
CONTINUOUS
10
5.6624692519685036
20
-3.9951955118110236
11
5.6611715748031495
21
-3.9943284251968505
0
LINE
8
BLACK
6
CONTINUOUS
10
5.6611715748031495
20
-3.9943284251968505
11
5.6603044881889764
21
-3.9930307480314959
0
LINE
8
BLACK
6
CONTINUOUS
10
5.6603044881889764
20
-3.9930307480314959
11
5.6600000000000001
21
-3.9914999999999998
0
LINE
8
BLACK
6
CONTINUOUS
10
5.6600000000000001
20
-3.9914999999999998
11
5.6600000000000001
21
-3.9264999999999999
0
LINE
8
BLACK
6
CONTINUOUS
10
5.6600000000000001
20
-3.9264999999999999
11
5.6603044881889764
21
-3.9249692519685038
0
LINE
8
BLACK
6
CONTINUOUS
10
5.6603044881889764
20
-3.9249692519685038
11
5.6611715748031495
21
-3.9236715748031497
0
LINE
8
BLACK
6
CONTINUOUS
10
5.6611715748031495
20
-3.9236715748031497
11
5.6624692519685036
21
-3.9228044881889761
0
LINE
8
BLACK
6
CONTINUOUS
10
5.6624692519685036
20
-3.9228044881889761
11
5.6639999999999997
21
-3.9224999999999999
0
LINE
8
BLACK
6
CONTINUOUS
10
5.6639999999999997
20
-3.9224999999999999
11
5.7290000000000001
21
-3.9224999999999999
0
LINE
8
BLACK
6
CONTINUOUS
10
5.7290000000000001
20
-3.9224999999999999
11
5.7305307480314962
21
-3.9228044881889761
0
LINE
8
BLACK
6
CONTINUOUS
10
5.7975117716535429
20
-3.8887942125984249
11
5.8055992913385825
21
-3.8919273228346456
0
LINE
8
BLACK
6
CONTINUOUS
10
5.8055992913385825
20
-3.8919273228346456
11
5.8129734251968506
21
-3.8964931889763781
0
LINE
8
BLACK
6
CONTINUOUS
10
5.8129734251968506
20
-3.8964931889763781
11
5.8193830314960628
21
-3.9023362992125983
0
LINE
8
BLACK
6
CONTINUOUS
10
5.8193830314960628
20
-3.9023362992125983
11
5.8246098031496061
21
-3.9092576771653542
0
LINE
8
BLACK
6
CONTINUOUS
10
5.8246098031496061
20
-3.9092576771653542
11
5.8284757874015742
21
-3.9170216535433071
0
LINE
8
BLACK
6
CONTINUOUS
10
5.8284757874015742
20
-3.9170216535433071
11
5.8308493307086611
21
-3.9253637795275589
0
LINE
8
BLACK
6
CONTINUOUS
10
5.8308493307086611
20
-3.9253637795275589
11
5.8316496062992123
21
-3.9339999999999997
0
LINE
8
BLACK
6
CONTINUOUS
10
5.8316496062992123
20
-3.9339999999999997
11
5.8308493307086611
21
-3.942636220472441
0
LINE
8
BLACK
6
CONTINUOUS
10
5.8308493307086611
20
-3.942636220472441
11
5.8284757874015742
21
-3.9509783464566928
0
LINE
8
BLACK
6
CONTINUOUS
10
5.8284757874015742
20
-3.9509783464566928
11
5.8246098031496061
21
-3.9587423228346457
0
LINE
8
BLACK
6
CONTINUOUS
10
5.8246098031496061
20
-3.9587423228346457
11
5.8193830314960628
21
-3.9656637007874016
0
LINE
8
BLACK
6
CONTINUOUS
10
5.8193830314960628
20
-3.9656637007874016
11
5.8129734251968506
21
-3.9715068110236218
0
LINE
8
BLACK
6
CONTINUOUS
10
5.8129734251968506
20
-3.9715068110236218
11
5.8055992913385825
21
-3.9760726771653543
0
LINE
8
BLACK
6
CONTINUOUS
10
5.8055992913385825
20
-3.9760726771653543
11
5.7975117716535429
21
-3.9792057874015749
0
LINE
8
BLACK
6
CONTINUOUS
10
5.7975117716535429
20
-3.9792057874015749
11
5.7889862204724407
21
-3.9807994881889761
0
LINE
8
BLACK
6
CONTINUOUS
10
5.7889862204724407
20
-3.9807994881889761
11
5.7803129921259844
21
-3.9807994881889761
0
LINE
8
BLACK
6
CONTINUOUS
10
5.7803129921259844
20
-3.9807994881889761
11
5.7717874409448822
21
-3.9792057874015749
0
LINE
8
BLACK
6
CONTINUOUS
10
5.7717874409448822
20
-3.9792057874015749
11
5.7636999212598425
21
-3.9760726771653543
0
LINE
8
BLACK
6
CONTINUOUS
10
5.7636999212598425
20
-3.9760726771653543
11
5.7563257874015745
21
-3.9715068110236218
0
LINE
8
BLACK
6
CONTINUOUS
10
5.7563257874015745
20
-3.9715068110236218
11
5.7499161811023622
21
-3.9656637007874016
0
LINE
8
BLACK
6
CONTINUOUS
10
5.7499161811023622
20
-3.9656637007874016
11
5.744689409448819
21
-3.9587423228346457
0
LINE
8
BLACK
6
CONTINUOUS
10
5.744689409448819
20
-3.9587423228346457
11
5.74082342519685
21
-3.9509783464566928
0
LINE
8
BLACK
6
CONTINUOUS
10
5.74082342519685
20
-3.9509783464566928
11
5.738449881889764
21
-3.942636220472441
0
LINE
8
BLACK
6
CONTINUOUS
10
5.738449881889764
20
-3.942636220472441
11
5.7376496062992128
21
-3.9339999999999997
0
LINE
8
BLACK
6
CONTINUOUS
10
5.7376496062992128
20
-3.9339999999999997
11
5.738449881889764
21
-3.9253637795275589
0
LINE
8
BLACK
6
CONTINUOUS
10
5.738449881889764
20
-3.9253637795275589
11
5.74082342519685
21
-3.9170216535433071
0
LINE
8
BLACK
6
CONTINUOUS
10
5.74082342519685
20
-3.9170216535433071
11
5.744689409448819
21
-3.9092576771653542
0
LINE
8
BLACK
6
CONTINUOUS
10
5.744689409448819
20
-3.9092576771653542
11
5.7499161811023622
21
-3.9023362992125983
0
LINE
8
BLACK
6
CONTINUOUS
10
5.7499161811023622
20
-3.9023362992125983
11
5.7563257874015745
21
-3.8964931889763781
0
LINE
8
BLACK
6
CONTINUOUS
10
5.7563257874015745
20
-3.8964931889763781
11
5.7636999212598425
21
-3.8919273228346456
0
LINE
8
BLACK
6
CONTINUOUS
10
5.7636999212598425
20
-3.8919273228346456
11
5.7717874409448822
21
-3.8887942125984249
0
LINE
8
BLACK
6
CONTINUOUS
10
5.7717874409448822
20
-3.8887942125984249
11
5.7803129921259844
21
-3.8872005118110233
0
LINE
8
BLACK
6
CONTINUOUS
10
5.7803129921259844
20
-3.8872005118110233
11
5.7889862204724407
21
-3.8872005118110233
0
LINE
8
BLACK
6
CONTINUOUS
10
5.7889862204724407
20
-3.8872005118110233
11
5.7975117716535429
21
-3.8887942125984249
0
LINE
8
BLACK
6
CONTINUOUS
10
5.6305307480314957
20
-3.8228044881889764
11
5.6318284251968507
21
-3.8236715748031496
0
LINE
8
BLACK
6
CONTINUOUS
10
5.6318284251968507
20
-3.8236715748031496
11
5.6326955118110238
21
-3.8249692519685037
0
LINE
8
BLACK
6
CONTINUOUS
10
5.6326955118110238
20
-3.8249692519685037
11
5.633
21
-3.8264999999999998
0
LINE
8
BLACK
6
CONTINUOUS
10
5.633
20
-3.8264999999999998
11
5.633
21
-3.8914999999999997
0
LINE
8
BLACK
6
CONTINUOUS
10
5.633
20
-3.8914999999999997
11
5.6326955118110238
21
-3.8930307480314958
0
LINE
8
BLACK
6
CONTINUOUS
10
5.6326955118110238
20
-3.8930307480314958
11
5.6318284251968507
21
-3.8943284251968504
0
LINE
8
BLACK
6
CONTINUOUS
10
5.6318284251968507
20
-3.8943284251968504
11
5.6305307480314957
21
-3.8951955118110235
0
LINE
8
BLACK
6
CONTINUOUS
10
5.6305307480314957
20
-3.8951955118110235
11
5.6289999999999996
21
-3.8954999999999997
0
LINE
8
BLACK
6
CONTINUOUS
10
5.6289999999999996
20
-3.8954999999999997
11
5.5640000000000001
21
-3.8954999999999997
0
LINE
8
BLACK
6
CONTINUOUS
10
5.5640000000000001
20
-3.8954999999999997
11
5.5624692519685039
21
-3.8951955118110235
0
LINE
8
BLACK
6
CONTINUOUS
10
5.5624692519685039
20
-3.8951955118110235
11
5.5611715748031498
21
-3.8943284251968504
0
LINE
8
BLACK
6
CONTINUOUS
10
5.5611715748031498
20
-3.8943284251968504
11
5.5603044881889758
21
-3.8930307480314958
0
LINE
8
BLACK
6
CONTINUOUS
10
5.5603044881889758
20
-3.8930307480314958
11
5.5599999999999996
21
-3.8914999999999997
0
LINE
8
BLACK
6
CONTINUOUS
10
5.5599999999999996
20
-3.8914999999999997
11
5.5599999999999996
21
-3.8264999999999998
0
LINE
8
BLACK
6
CONTINUOUS
10
5.5599999999999996
20
-3.8264999999999998
11
5.5603044881889758
21
-3.8249692519685037
0
LINE
8
BLACK
6
CONTINUOUS
10
5.5603044881889758
20
-3.8249692519685037
11
5.5611715748031498
21
-3.8236715748031496
0
LINE
8
BLACK
6
CONTINUOUS
10
5.5611715748031498
20
-3.8236715748031496
11
5.5624692519685039
21
-3.8228044881889764
0
LINE
8
BLACK
6
CONTINUOUS
10
5.5624692519685039
20
-3.8228044881889764
11
5.5640000000000001
21
-3.8224999999999998
0
LINE
8
BLACK
6
CONTINUOUS
10
5.5640000000000001
20
-3.8224999999999998
11
5.6289999999999996
21
-3.8224999999999998
0
LINE
8
BLACK
6
CONTINUOUS
10
5.6289999999999996
20
-3.8224999999999998
11
5.6305307480314957
21
-3.8228044881889764
0
LINE
8
BLACK
6
CONTINUOUS
10
5.7305307480314962
20
-3.8228044881889764
11
5.7318284251968503
21
-3.8236715748031496
0
LINE
8
BLACK
6
CONTINUOUS
10
5.7318284251968503
20
-3.8236715748031496
11
5.7326955118110234
21
-3.8249692519685037
0
LINE
8
BLACK
6
CONTINUOUS
10
5.7326955118110234
20
-3.8249692519685037
11
5.7329999999999997
21
-3.8264999999999998
0
LINE
8
BLACK
6
CONTINUOUS
10
5.7329999999999997
20
-3.8264999999999998
11
5.7329999999999997
21
-3.8914999999999997
0
LINE
8
BLACK
6
CONTINUOUS
10
5.7329999999999997
20
-3.8914999999999997
11
5.7326955118110234
21
-3.8930307480314958
0
LINE
8
BLACK
6
CONTINUOUS
10
5.7326955118110234
20
-3.8930307480314958
11
5.7318284251968503
21
-3.8943284251968504
0
LINE
8
BLACK
6
CONTINUOUS
10
5.7318284251968503
20
-3.8943284251968504
11
5.7305307480314962
21
-3.8951955118110235
0
LINE
8
BLACK
6
CONTINUOUS
10
5.7305307480314962
20
-3.8951955118110235
11
5.7290000000000001
21
-3.8954999999999997
0
LINE
8
BLACK
6
CONTINUOUS
10
5.7290000000000001
20
-3.8954999999999997
11
5.6639999999999997
21
-3.8954999999999997
0
LINE
8
BLACK
6
CONTINUOUS
10
5.6639999999999997
20
-3.8954999999999997
11
5.6624692519685036
21
-3.8951955118110235
0
LINE
8
BLACK
6
CONTINUOUS
10
5.6624692519685036
20
-3.8951955118110235
11
5.6611715748031495
21
-3.8943284251968504
0
LINE
8
BLACK
6
CONTINUOUS
10
5.6611715748031495
20
-3.8943284251968504
11
5.6603044881889764
21
-3.8930307480314958
0
LINE
8
BLACK
6
CONTINUOUS
10
5.6603044881889764
20
-3.8930307480314958
11
5.6600000000000001
21
-3.8914999999999997
0
LINE
8
BLACK
6
CONTINUOUS
10
5.6600000000000001
20
-3.8914999999999997
11
5.6600000000000001
21
-3.8264999999999998
0
LINE
8
BLACK
6
CONTINUOUS
10
5.6600000000000001
20
-3.8264999999999998
11
5.6603044881889764
21
-3.8249692519685037
0
LINE
8
BLACK
6
CONTINUOUS
10
5.6603044881889764
20
-3.8249692519685037
11
5.6611715748031495
21
-3.8236715748031496
0
LINE
8
BLACK
6
CONTINUOUS
10
5.6611715748031495
20
-3.8236715748031496
11
5.6624692519685036
21
-3.8228044881889764
0
LINE
8
BLACK
6
CONTINUOUS
10
5.6624692519685036
20
-3.8228044881889764
11
5.6639999999999997
21
-3.8224999999999998
0
LINE
8
BLACK
6
CONTINUOUS
10
5.6639999999999997
20
-3.8224999999999998
11
5.7290000000000001
21
-3.8224999999999998
0
LINE
8
BLACK
6
CONTINUOUS
10
5.7290000000000001
20
-3.8224999999999998
11
5.7305307480314962
21
-3.8228044881889764
0
LINE
8
BLACK
6
CONTINUOUS
10
6.1912125590551179
20
-3.7903690157480314
11
6.1993000787401575
21
-3.7935021259842521
0
LINE
8
BLACK
6
CONTINUOUS
10
6.1993000787401575
20
-3.7935021259842521
11
6.2066742125984247
21
-3.7980679921259841
0
LINE
8
BLACK
6
CONTINUOUS
10
6.2066742125984247
20
-3.7980679921259841
11
6.2130838188976378
21
-3.8039111023622048
0
LINE
8
BLACK
6
CONTINUOUS
10
6.2130838188976378
20
-3.8039111023622048
11
6.2183105905511811
21
-3.8108324803149607
0
LINE
8
BLACK
6
CONTINUOUS
10
6.2183105905511811
20
-3.8108324803149607
11
6.2221765748031492
21
-3.8185964566929131
0
LINE
8
BLACK
6
CONTINUOUS
10
6.2221765748031492
20
-3.8185964566929131
11
6.2245501181102361
21
-3.8269385826771654
0
LINE
8
BLACK
6
CONTINUOUS
10
6.2245501181102361
20
-3.8269385826771654
11
6.2253503937007872
21
-3.8355748031496062
0
LINE
8
BLACK
6
CONTINUOUS
10
6.2253503937007872
20
-3.8355748031496062
11
6.2245501181102361
21
-3.844211023622047
0
LINE
8
BLACK
6
CONTINUOUS
10
6.2245501181102361
20
-3.844211023622047
11
6.2221765748031492
21
-3.8525531496062992
0
LINE
8
BLACK
6
CONTINUOUS
10
6.2221765748031492
20
-3.8525531496062992
11
6.2183105905511811
21
-3.8603171259842517
0
LINE
8
BLACK
6
CONTINUOUS
10
6.2183105905511811
20
-3.8603171259842517
11
6.2130838188976378
21
-3.8672385039370076
0
LINE
8
BLACK
6
CONTINUOUS
10
6.2130838188976378
20
-3.8672385039370076
11
6.2066742125984247
21
-3.8730816141732283
0
LINE
8
BLACK
6
CONTINUOUS
10
6.2066742125984247
20
-3.8730816141732283
11
6.1993000787401575
21
-3.8776474803149608
0
LINE
8
BLACK
6
CONTINUOUS
10
6.1993000787401575
20
-3.8776474803149608
11
6.1912125590551179
21
-3.880780590551181
0
LINE
8
BLACK
6
CONTINUOUS
10
6.1912125590551179
20
-3.880780590551181
11
6.1826870078740157
21
-3.8823742913385826
0
LINE
8
BLACK
6
CONTINUOUS
10
6.1826870078740157
20
-3.8823742913385826
11
6.1740137795275585
21
-3.8823742913385826
0
LINE
8
BLACK
6
CONTINUOUS
10
6.1740137795275585
20
-3.8823742913385826
11
6.1654882283464563
21
-3.880780590551181
0
LINE
8
BLACK
6
CONTINUOUS
10
6.1654882283464563
20
-3.880780590551181
11
6.1574007086614175
21
-3.8776474803149608
0
LINE
8
BLACK
6
CONTINUOUS
10
6.1574007086614175
20
-3.8776474803149608
11
6.1500265748031495
21
-3.8730816141732283
0
LINE
8
BLACK
6
CONTINUOUS
10
6.1500265748031495
20
-3.8730816141732283
11
6.1436169685039372
21
-3.8672385039370076
0
LINE
8
BLACK
6
CONTINUOUS
10
6.1436169685039372
20
-3.8672385039370076
11
6.138390196850394
21
-3.8603171259842517
0
LINE
8
BLACK
6
CONTINUOUS
10
6.138390196850394
20
-3.8603171259842517
11
6.134524212598425
21
-3.8525531496062992
0
LINE
8
BLACK
6
CONTINUOUS
10
6.134524212598425
20
-3.8525531496062992
11
6.1321506692913381
21
-3.844211023622047
0
LINE
8
BLACK
6
CONTINUOUS
10
6.1321506692913381
20
-3.844211023622047
11
6.1313503937007869
21
-3.8355748031496062
0
LINE
8
BLACK
6
CONTINUOUS
10
6.1313503937007869
20
-3.8355748031496062
11
6.1321506692913381
21
-3.8269385826771654
0
LINE
8
BLACK
6
CONTINUOUS
10
6.1321506692913381
20
-3.8269385826771654
11
6.134524212598425
21
-3.8185964566929131
0
LINE
8
BLACK
6
CONTINUOUS
10
6.134524212598425
20
-3.8185964566929131
11
6.138390196850394
21
-3.8108324803149607
0
LINE
8
BLACK
6
CONTINUOUS
10
6.138390196850394
20
-3.8108324803149607
11
6.1436169685039372
21
-3.8039111023622048
0
LINE
8
BLACK
6
CONTINUOUS
10
6.1436169685039372
20
-3.8039111023622048
11
6.1500265748031495
21
-3.7980679921259841
0
LINE
8
BLACK
6
CONTINUOUS
10
6.1500265748031495
20
-3.7980679921259841
11
6.1574007086614175
21
-3.7935021259842521
0
LINE
8
BLACK
6
CONTINUOUS
10
6.1574007086614175
20
-3.7935021259842521
11
6.1654882283464563
21
-3.7903690157480314
0
LINE
8
BLACK
6
CONTINUOUS
10
6.1654882283464563
20
-3.7903690157480314
11
6.1740137795275585
21
-3.7887753149606298
0
LINE
8
BLACK
6
CONTINUOUS
10
6.1740137795275585
20
-3.7887753149606298
11
6.1826870078740157
21
-3.7887753149606298
0
LINE
8
BLACK
6
CONTINUOUS
10
6.1826870078740157
20
-3.7887753149606298
11
6.1912125590551179
21
-3.7903690157480314
0
LINE
8
BLACK
6
CONTINUOUS
10
6.0024598818897639
20
-3.7911312598425195
11
6.003757559055118
21
-3.7919983464566926
0
LINE
8
BLACK
6
CONTINUOUS
10
6.003757559055118
20
-3.7919983464566926
11
6.0046246456692911
21
-3.7932960236220472
0
LINE
8
BLACK
6
CONTINUOUS
10
6.0046246456692911
20
-3.7932960236220472
11
6.0049291338582673
21
-3.7948267716535433
0
LINE
8
BLACK
6
CONTINUOUS
10
6.0049291338582673
20
-3.7948267716535433
11
6.0049291338582673
21
-3.8696299212598424
0
LINE
8
BLACK
6
CONTINUOUS
10
6.0049291338582673
20
-3.8696299212598424
11
6.0046246456692911
21
-3.8711606692913385
0
LINE
8
BLACK
6
CONTINUOUS
10
6.0046246456692911
20
-3.8711606692913385
11
6.003757559055118
21
-3.8724583464566926
0
LINE
8
BLACK
6
CONTINUOUS
10
6.003757559055118
20
-3.8724583464566926
11
6.0024598818897639
21
-3.8733254330708662
0
LINE
8
BLACK
6
CONTINUOUS
10
6.0024598818897639
20
-3.8733254330708662
11
6.0009291338582678
21
-3.8736299212598424
0
LINE
8
BLACK
6
CONTINUOUS
10
6.0009291338582678
20
-3.8736299212598424
11
5.8670708661417326
21
-3.8736299212598424
0
LINE
8
BLACK
6
CONTINUOUS
10
5.8670708661417326
20
-3.8736299212598424
11
5.8655401181102365
21
-3.8733254330708662
0
LINE
8
BLACK
6
CONTINUOUS
10
5.8655401181102365
20
-3.8733254330708662
11
5.8642424409448815
21
-3.8724583464566926
0
LINE
8
BLACK
6
CONTINUOUS
10
5.8642424409448815
20
-3.8724583464566926
11
5.8633753543307083
21
-3.8711606692913385
0
LINE
8
BLACK
6
CONTINUOUS
10
5.8633753543307083
20
-3.8711606692913385
11
5.8630708661417321
21
-3.8696299212598424
0
LINE
8
BLACK
6
CONTINUOUS
10
5.8630708661417321
20
-3.8696299212598424
11
5.8630708661417321
21
-3.7948267716535433
0
LINE
8
BLACK
6
CONTINUOUS
10
5.8630708661417321
20
-3.7948267716535433
11
5.8633753543307083
21
-3.7932960236220472
0
LINE
8
BLACK
6
CONTINUOUS
10
5.8633753543307083
20
-3.7932960236220472
11
5.8642424409448815
21
-3.7919983464566926
0
LINE
8
BLACK
6
CONTINUOUS
10
5.8642424409448815
20
-3.7919983464566926
11
5.8655401181102365
21
-3.7911312598425195
0
LINE
8
BLACK
6
CONTINUOUS
10
5.8655401181102365
20
-3.7911312598425195
11
5.8670708661417326
21
-3.7908267716535433
0
LINE
8
BLACK
6
CONTINUOUS
10
5.8670708661417326
20
-3.7908267716535433
11
6.0009291338582678
21
-3.7908267716535433
0
LINE
8
BLACK
6
CONTINUOUS
10
6.0009291338582678
20
-3.7908267716535433
11
6.0024598818897639
21
-3.7911312598425195
0
LINE
8
BLACK
6
CONTINUOUS
10
6.11899531496063
20
-3.7891627559055117
11
6.1202929921259841
21
-3.7900298425196848
0
LINE
8
BLACK
6
CONTINUOUS
10
6.1202929921259841
20
-3.7900298425196848
11
6.1211600787401572
21
-3.7913275196850393
0
LINE
8
BLACK
6
CONTINUOUS
10
6.1211600787401572
20
-3.7913275196850393
11
6.1214645669291334
21
-3.7928582677165354
0
LINE
8
BLACK
6
CONTINUOUS
10
6.1214645669291334
20
-3.7928582677165354
11
6.1214645669291334
21
-3.8637244094488188
0
LINE
8
BLACK
6
CONTINUOUS
10
6.1214645669291334
20
-3.8637244094488188
11
6.1211600787401572
21
-3.8652551574803149
0
LINE
8
BLACK
6
CONTINUOUS
10
6.1211600787401572
20
-3.8652551574803149
11
6.1202929921259841
21
-3.866552834645669
0
LINE
8
BLACK
6
CONTINUOUS
10
6.1202929921259841
20
-3.866552834645669
11
6.11899531496063
21
-3.8674199212598426
0
LINE
8
BLACK
6
CONTINUOUS
10
6.11899531496063
20
-3.8674199212598426
11
6.1174645669291339
21
-3.8677244094488188
0
LINE
8
BLACK
6
CONTINUOUS
10
6.1174645669291339
20
-3.8677244094488188
11
6.0505354330708663
21
-3.8677244094488188
0
LINE
8
BLACK
6
CONTINUOUS
10
6.0505354330708663
20
-3.8677244094488188
11
6.0490046850393702
21
-3.8674199212598426
0
LINE
8
BLACK
6
CONTINUOUS
10
6.0490046850393702
20
-3.8674199212598426
11
6.047707007874016
21
-3.866552834645669
0
LINE
8
BLACK
6
CONTINUOUS
10
6.047707007874016
20
-3.866552834645669
11
6.046839921259842
21
-3.8652551574803149
0
LINE
8
BLACK
6
CONTINUOUS
10
6.046839921259842
20
-3.8652551574803149
11
6.0465354330708658
21
-3.8637244094488188
0
LINE
8
BLACK
6
CONTINUOUS
10
6.0465354330708658
20
-3.8637244094488188
11
6.0465354330708658
21
-3.7928582677165354
0
LINE
8
BLACK
6
CONTINUOUS
10
6.0465354330708658
20
-3.7928582677165354
11
6.046839921259842
21
-3.7913275196850393
0
LINE
8
BLACK
6
CONTINUOUS
10
6.046839921259842
20
-3.7913275196850393
11
6.047707007874016
21
-3.7900298425196848
0
LINE
8
BLACK
6
CONTINUOUS
10
6.047707007874016
20
-3.7900298425196848
11
6.0490046850393702
21
-3.7891627559055117
0
LINE
8
BLACK
6
CONTINUOUS
10
6.0490046850393702
20
-3.7891627559055117
11
6.0505354330708663
21
-3.7888582677165354
0
LINE
8
BLACK
6
CONTINUOUS
10
6.0505354330708663
20
-3.7888582677165354
11
6.1174645669291339
21
-3.7888582677165354
0
LINE
8
BLACK
6
CONTINUOUS
10
6.1174645669291339
20
-3.7888582677165354
11
6.11899531496063
21
-3.7891627559055117
0
LINE
8
BLACK
6
CONTINUOUS
10
5.6305307480314957
20
-3.7228044881889764
11
5.6318284251968507
21
-3.7236715748031495
0
LINE
8
BLACK
6
CONTINUOUS
10
5.6318284251968507
20
-3.7236715748031495
11
5.6326955118110238
21
-3.724969251968504
0
LINE
8
BLACK
6
CONTINUOUS
10
5.6326955118110238
20
-3.724969251968504
11
5.633
21
-3.7264999999999997
0
LINE
8
BLACK
6
CONTINUOUS
10
5.633
20
-3.7264999999999997
11
5.633
21
-3.7915000000000001
0
LINE
8
BLACK
6
CONTINUOUS
10
5.633
20
-3.7915000000000001
11
5.6326955118110238
21
-3.7930307480314958
0
LINE
8
BLACK
6
CONTINUOUS
10
5.6326955118110238
20
-3.7930307480314958
11
5.6318284251968507
21
-3.7943284251968503
0
LINE
8
BLACK
6
CONTINUOUS
10
5.6318284251968507
20
-3.7943284251968503
11
5.6305307480314957
21
-3.7951955118110234
0
LINE
8
BLACK
6
CONTINUOUS
10
5.6305307480314957
20
-3.7951955118110234
11
5.6289999999999996
21
-3.7955000000000001
0
LINE
8
BLACK
6
CONTINUOUS
10
5.6289999999999996
20
-3.7955000000000001
11
5.5640000000000001
21
-3.7955000000000001
0
LINE
8
BLACK
6
CONTINUOUS
10
5.5640000000000001
20
-3.7955000000000001
11
5.5624692519685039
21
-3.7951955118110234
0
LINE
8
BLACK
6
CONTINUOUS
10
5.5624692519685039
20
-3.7951955118110234
11
5.5611715748031498
21
-3.7943284251968503
0
LINE
8
BLACK
6
CONTINUOUS
10
5.5611715748031498
20
-3.7943284251968503
11
5.5603044881889758
21
-3.7930307480314958
0
LINE
8
BLACK
6
CONTINUOUS
10
5.5603044881889758
20
-3.7930307480314958
11
5.5599999999999996
21
-3.7915000000000001
0
LINE
8
BLACK
6
CONTINUOUS
10
5.5599999999999996
20
-3.7915000000000001
11
5.5599999999999996
21
-3.7264999999999997
0
LINE
8
BLACK
6
CONTINUOUS
10
5.5599999999999996
20
-3.7264999999999997
11
5.5603044881889758
21
-3.724969251968504
0
LINE
8
BLACK
6
CONTINUOUS
10
5.5603044881889758
20
-3.724969251968504
11
5.5611715748031498
21
-3.7236715748031495
0
LINE
8
BLACK
6
CONTINUOUS
10
5.5611715748031498
20
-3.7236715748031495
11
5.5624692519685039
21
-3.7228044881889764
0
LINE
8
BLACK
6
CONTINUOUS
10
5.5624692519685039
20
-3.7228044881889764
11
5.5640000000000001
21
-3.7224999999999997
0
LINE
8
BLACK
6
CONTINUOUS
10
5.5640000000000001
20
-3.7224999999999997
11
5.6289999999999996
21
-3.7224999999999997
0
LINE
8
BLACK
6
CONTINUOUS
10
5.6289999999999996
20
-3.7224999999999997
11
5.6305307480314957
21
-3.7228044881889764
0
LINE
8
BLACK
6
CONTINUOUS
10
5.7305307480314962
20
-3.7228044881889764
11
5.7318284251968503
21
-3.7236715748031495
0
LINE
8
BLACK
6
CONTINUOUS
10
5.7318284251968503
20
-3.7236715748031495
11
5.7326955118110234
21
-3.724969251968504
0
LINE
8
BLACK
6
CONTINUOUS
10
5.7326955118110234
20
-3.724969251968504
11
5.7329999999999997
21
-3.7264999999999997
0
LINE
8
BLACK
6
CONTINUOUS
10
5.7329999999999997
20
-3.7264999999999997
11
5.7329999999999997
21
-3.7915000000000001
0
LINE
8
BLACK
6
CONTINUOUS
10
5.7329999999999997
20
-3.7915000000000001
11
5.7326955118110234
21
-3.7930307480314958
0
LINE
8
BLACK
6
CONTINUOUS
10
5.7326955118110234
20
-3.7930307480314958
11
5.7318284251968503
21
-3.7943284251968503
0
LINE
8
BLACK
6
CONTINUOUS
10
5.7318284251968503
20
-3.7943284251968503
11
5.7305307480314962
21
-3.7951955118110234
0
LINE
8
BLACK
6
CONTINUOUS
10
5.7305307480314962
20
-3.7951955118110234
11
5.7290000000000001
21
-3.7955000000000001
0
LINE
8
BLACK
6
CONTINUOUS
10
5.7290000000000001
20
-3.7955000000000001
11
5.6639999999999997
21
-3.7955000000000001
0
LINE
8
BLACK
6
CONTINUOUS
10
5.6639999999999997
20
-3.7955000000000001
11
5.6624692519685036
21
-3.7951955118110234
0
LINE
8
BLACK
6
CONTINUOUS
10
5.6624692519685036
20
-3.7951955118110234
11
5.6611715748031495
21
-3.7943284251968503
0
LINE
8
BLACK
6
CONTINUOUS
10
5.6611715748031495
20
-3.7943284251968503
11
5.6603044881889764
21
-3.7930307480314958
0
LINE
8
BLACK
6
CONTINUOUS
10
5.6603044881889764
20
-3.7930307480314958
11
5.6600000000000001
21
-3.7915000000000001
0
LINE
8
BLACK
6
CONTINUOUS
10
5.6600000000000001
20
-3.7915000000000001
11
5.6600000000000001
21
-3.7264999999999997
0
LINE
8
BLACK
6
CONTINUOUS
10
5.6600000000000001
20
-3.7264999999999997
11
5.6603044881889764
21
-3.724969251968504
0
LINE
8
BLACK
6
CONTINUOUS
10
5.6603044881889764
20
-3.724969251968504
11
5.6611715748031495
21
-3.7236715748031495
0
LINE
8
BLACK
6
CONTINUOUS
10
5.6611715748031495
20
-3.7236715748031495
11
5.6624692519685036
21
-3.7228044881889764
0
LINE
8
BLACK
6
CONTINUOUS
10
5.6624692519685036
20
-3.7228044881889764
11
5.6639999999999997
21
-3.7224999999999997
0
LINE
8
BLACK
6
CONTINUOUS
10
5.6639999999999997
20
-3.7224999999999997
11
5.7290000000000001
21
-3.7224999999999997
0
LINE
8
BLACK
6
CONTINUOUS
10
5.7290000000000001
20
-3.7224999999999997
11
5.7305307480314962
21
-3.7228044881889764
0
LINE
8
BLACK
6
CONTINUOUS
10
5.66769342519685
20
-3.4047257086614171
11
5.6815462204724412
21
-3.4077749606299212
0
LINE
8
BLACK
6
CONTINUOUS
10
5.6815462204724412
20
-3.4077749606299212
11
5.6949881102362205
21
-3.4123040551181103
0
LINE
8
BLACK
6
CONTINUOUS
10
5.6949881102362205
20
-3.4123040551181103
11
5.7078614960629919
21
-3.4182599212598426
0
LINE
8
BLACK
6
CONTINUOUS
10
5.7078614960629919
20
-3.4182599212598426
11
5.7200155118110239
21
-3.4255727559055118
0
LINE
8
BLACK
6
CONTINUOUS
10
5.7200155118110239
20
-3.4255727559055118
11
5.7313075984251967
21
-3.434156771653543
0
LINE
8
BLACK
6
CONTINUOUS
10
5.7313075984251967
20
-3.434156771653543
11
5.7416053937007874
21
-3.4439113779527557
0
LINE
8
BLACK
6
CONTINUOUS
10
5.7416053937007874
20
-3.4439113779527557
11
5.7507881889763777
21
-3.4547221653543305
0
LINE
8
BLACK
6
CONTINUOUS
10
5.7507881889763777
20
-3.4547221653543305
11
5.7587483070866137
21
-3.4664624409448819
0
LINE
8
BLACK
6
CONTINUOUS
10
5.7587483070866137
20
-3.4664624409448819
11
5.7653923622047243
21
-3.4789945275590552
0
LINE
8
BLACK
6
CONTINUOUS
10
5.7653923622047243
20
-3.4789945275590552
11
5.7706425590551182
21
-3.4921714960629919
0
LINE
8
BLACK
6
CONTINUOUS
10
5.7706425590551182
20
-3.4921714960629919
11
5.7744372834645672
21
-3.5058388582677162
0
LINE
8
BLACK
6
CONTINUOUS
10
5.7744372834645672
20
-3.5058388582677162
11
5.7767320866141727
21
-3.5198364173228347
0
LINE
8
BLACK
6
CONTINUOUS
10
5.7767320866141727
20
-3.5198364173228347
11
5.7774999999999999
21
-3.5339999999999998
0
LINE
8
BLACK
6
CONTINUOUS
10
5.7774999999999999
20
-3.5339999999999998
11
5.7767320866141727
21
-3.5481635826771654
0
LINE
8
BLACK
6
CONTINUOUS
10
5.7767320866141727
20
-3.5481635826771654
11
5.7744372834645672
21
-3.5621611417322834
0
LINE
8
BLACK
6
CONTINUOUS
10
5.7744372834645672
20
-3.5621611417322834
11
5.7706425590551182
21
-3.5758285039370077
0
LINE
8
BLACK
6
CONTINUOUS
10
5.7706425590551182
20
-3.5758285039370077
11
5.7653923622047243
21
-3.5890054724409448
0
LINE
8
BLACK
6
CONTINUOUS
10
5.7653923622047243
20
-3.5890054724409448
11
5.7587483070866137
21
-3.6015375590551182
0
LINE
8
BLACK
6
CONTINUOUS
10
5.7587483070866137
20
-3.6015375590551182
11
5.7507881889763777
21
-3.6132778346456691
0
LINE
8
BLACK
6
CONTINUOUS
10
5.7507881889763777
20
-3.6132778346456691
11
5.7416053937007874
21
-3.6240886220472439
0
LINE
8
BLACK
6
CONTINUOUS
10
5.7416053937007874
20
-3.6240886220472439
11
5.7313075984251967
21
-3.6338432283464566
0
LINE
8
BLACK
6
CONTINUOUS
10
5.7313075984251967
20
-3.6338432283464566
11
5.7200155118110239
21
-3.6424272440944883
0
LINE
8
BLACK
6
CONTINUOUS
10
5.7200155118110239
20
-3.6424272440944883
11
5.7078614960629919
21
-3.6497400787401575
0
LINE
8
BLACK
6
CONTINUOUS
10
5.7078614960629919
20
-3.6497400787401575
11
5.6949881102362205
21
-3.6556959448818898
0
LINE
8
BLACK
6
CONTINUOUS
10
5.6949881102362205
20
-3.6556959448818898
11
5.6815462204724412
21
-3.6602250393700788
0
LINE
8
BLACK
6
CONTINUOUS
10
5.6815462204724412
20
-3.6602250393700788
11
5.66769342519685
21
-3.6632742913385825
0
LINE
8
BLACK
6
CONTINUOUS
10
5.66769342519685
20
-3.6632742913385825
11
5.6535922047244096
21
-3.6648078740157479
0
LINE
8
BLACK
6
CONTINUOUS
10
5.6535922047244096
20
-3.6648078740157479
11
5.6394077952755906
21
-3.6648078740157479
0
LINE
8
BLACK
6
CONTINUOUS
10
5.6394077952755906
20
-3.6648078740157479
11
5.6253065748031492
21
-3.6632742913385825
0
LINE
8
BLACK
6
CONTINUOUS
10
5.6253065748031492
20
-3.6632742913385825
11
5.611453779527559
21
-3.6602250393700788
0
LINE
8
BLACK
6
CONTINUOUS
10
5.611453779527559
20
-3.6602250393700788
11
5.5980118897637796
21
-3.6556959448818898
0
LINE
8
BLACK
6
CONTINUOUS
10
5.5980118897637796
20
-3.6556959448818898
11
5.5851385039370074
21
-3.6497400787401575
0
LINE
8
BLACK
6
CONTINUOUS
10
5.5851385039370074
20
-3.6497400787401575
11
5.5729844881889763
21
-3.6424272440944883
0
LINE
8
BLACK
6
CONTINUOUS
10
5.5729844881889763
20
-3.6424272440944883
11
5.5616924015748026
21
-3.6338432283464566
0
LINE
8
BLACK
6
CONTINUOUS
10
5.5616924015748026
20
-3.6338432283464566
11
5.5513946062992128
21
-3.6240886220472439
0
LINE
8
BLACK
6
CONTINUOUS
10
5.5513946062992128
20
-3.6240886220472439
11
5.5422118110236216
21
-3.6132778346456691
0
LINE
8
BLACK
6
CONTINUOUS
10
5.5422118110236216
20
-3.6132778346456691
11
5.5342516929133856
21
-3.6015375590551182
0
LINE
8
BLACK
6
CONTINUOUS
10
5.5342516929133856
20
-3.6015375590551182
11
5.5276076377952759
21
-3.5890054724409448
0
LINE
8
BLACK
6
CONTINUOUS
10
5.5276076377952759
20
-3.5890054724409448
11
5.5223574409448819
21
-3.5758285039370077
0
LINE
8
BLACK
6
CONTINUOUS
10
5.5223574409448819
20
-3.5758285039370077
11
5.518562716535433
21
-3.5621611417322834
0
LINE
8
BLACK
6
CONTINUOUS
10
5.518562716535433
20
-3.5621611417322834
11
5.5162679133858266
21
-3.5481635826771654
0
LINE
8
BLACK
6
CONTINUOUS
10
5.5162679133858266
20
-3.5481635826771654
11
5.5155000000000003
21
-3.5339999999999998
0
LINE
8
BLACK
6
CONTINUOUS
10
5.5155000000000003
20
-3.5339999999999998
11
5.5162679133858266
21
-3.5198364173228347
0
LINE
8
BLACK
6
CONTINUOUS
10
5.5162679133858266
20
-3.5198364173228347
11
5.518562716535433
21
-3.5058388582677162
0
LINE
8
BLACK
6
CONTINUOUS
10
5.518562716535433
20
-3.5058388582677162
11
5.5223574409448819
21
-3.4921714960629919
0
LINE
8
BLACK
6
CONTINUOUS
10
5.5223574409448819
20
-3.4921714960629919
11
5.5276076377952759
21
-3.4789945275590552
0
LINE
8
BLACK
6
CONTINUOUS
10
5.5276076377952759
20
-3.4789945275590552
11
5.5342516929133856
21
-3.4664624409448819
0
LINE
8
BLACK
6
CONTINUOUS
10
5.5342516929133856
20
-3.4664624409448819
11
5.5422118110236216
21
-3.4547221653543305
0
LINE
8
BLACK
6
CONTINUOUS
10
5.5422118110236216
20
-3.4547221653543305
11
5.5513946062992128
21
-3.4439113779527557
0
LINE
8
BLACK
6
CONTINUOUS
10
5.5513946062992128
20
-3.4439113779527557
11
5.5616924015748026
21
-3.434156771653543
0
LINE
8
BLACK
6
CONTINUOUS
10
5.5616924015748026
20
-3.434156771653543
11
5.5729844881889763
21
-3.4255727559055118
0
LINE
8
BLACK
6
CONTINUOUS
10
5.5729844881889763
20
-3.4255727559055118
11
5.5851385039370074
21
-3.4182599212598426
0
LINE
8
BLACK
6
CONTINUOUS
10
5.5851385039370074
20
-3.4182599212598426
11
5.5980118897637796
21
-3.4123040551181103
0
LINE
8
BLACK
6
CONTINUOUS
10
5.5980118897637796
20
-3.4123040551181103
11
5.611453779527559
21
-3.4077749606299212
0
LINE
8
BLACK
6
CONTINUOUS
10
5.611453779527559
20
-3.4077749606299212
11
5.6253065748031492
21
-3.4047257086614171
0
LINE
8
BLACK
6
CONTINUOUS
10
5.6253065748031492
20
-3.4047257086614171
11
5.6394077952755906
21
-3.4031921259842517
0
LINE
8
BLACK
6
CONTINUOUS
10
5.6394077952755906
20
-3.4031921259842517
11
5.6535922047244096
21
-3.4031921259842517
0
LINE
8
BLACK
6
CONTINUOUS
10
5.6535922047244096
20
-3.4031921259842517
11
5.66769342519685
21
-3.4047257086614171
0
LINE
8
BLACK
6
CONTINUOUS
10
6.0676934251968504
20
-3.4047257086614171
11
6.0815462204724406
21
-3.4077749606299212
0
LINE
8
BLACK
6
CONTINUOUS
10
6.0815462204724406
20
-3.4077749606299212
11
6.09498811023622
21
-3.4123040551181103
0
LINE
8
BLACK
6
CONTINUOUS
10
6.09498811023622
20
-3.4123040551181103
11
6.1078614960629922
21
-3.4182599212598426
0
LINE
8
BLACK
6
CONTINUOUS
10
6.1078614960629922
20
-3.4182599212598426
11
6.1200155118110233
21
-3.4255727559055118
0
LINE
8
BLACK
6
CONTINUOUS
10
6.1200155118110233
20
-3.4255727559055118
11
6.131307598425197
21
-3.434156771653543
0
LINE
8
BLACK
6
CONTINUOUS
10
6.131307598425197
20
-3.434156771653543
11
6.1416053937007868
21
-3.4439113779527557
0
LINE
8
BLACK
6
CONTINUOUS
10
6.1416053937007868
20
-3.4439113779527557
11
6.150788188976378
21
-3.4547221653543305
0
LINE
8
BLACK
6
CONTINUOUS
10
6.150788188976378
20
-3.4547221653543305
11
6.158748307086614
21
-3.4664624409448819
0
LINE
8
BLACK
6
CONTINUOUS
10
6.158748307086614
20
-3.4664624409448819
11
6.1653923622047246
21
-3.4789945275590552
0
LINE
8
BLACK
6
CONTINUOUS
10
6.1653923622047246
20
-3.4789945275590552
11
6.1706425590551177
21
-3.4921714960629919
0
LINE
8
BLACK
6
CONTINUOUS
10
6.1706425590551177
20
-3.4921714960629919
11
6.1744372834645667
21
-3.5058388582677162
0
LINE
8
BLACK
6
CONTINUOUS
10
6.1744372834645667
20
-3.5058388582677162
11
6.1767320866141731
21
-3.5198364173228347
0
LINE
8
BLACK
6
CONTINUOUS
10
6.1767320866141731
20
-3.5198364173228347
11
6.1775000000000002
21
-3.5339999999999998
0
LINE
8
BLACK
6
CONTINUOUS
10
6.1775000000000002
20
-3.5339999999999998
11
6.1767320866141731
21
-3.5481635826771654
0
LINE
8
BLACK
6
CONTINUOUS
10
6.1767320866141731
20
-3.5481635826771654
11
6.1744372834645667
21
-3.5621611417322834
0
LINE
8
BLACK
6
CONTINUOUS
10
6.1744372834645667
20
-3.5621611417322834
11
6.1706425590551177
21
-3.5758285039370077
0
LINE
8
BLACK
6
CONTINUOUS
10
6.1706425590551177
20
-3.5758285039370077
11
6.1653923622047246
21
-3.5890054724409448
0
LINE
8
BLACK
6
CONTINUOUS
10
6.1653923622047246
20
-3.5890054724409448
11
6.158748307086614
21
-3.6015375590551182
0
LINE
8
BLACK
6
CONTINUOUS
10
6.158748307086614
20
-3.6015375590551182
11
6.150788188976378
21
-3.6132778346456691
0
LINE
8
BLACK
6
CONTINUOUS
10
6.150788188976378
20
-3.6132778346456691
11
6.1416053937007868
21
-3.6240886220472439
0
LINE
8
BLACK
6
CONTINUOUS
10
6.1416053937007868
20
-3.6240886220472439
11
6.131307598425197
21
-3.6338432283464566
0
LINE
8
BLACK
6
CONTINUOUS
10
6.131307598425197
20
-3.6338432283464566
11
6.1200155118110233
21
-3.6424272440944883
0
LINE
8
BLACK
6
CONTINUOUS
10
6.1200155118110233
20
-3.6424272440944883
11
6.1078614960629922
21
-3.6497400787401575
0
LINE
8
BLACK
6
CONTINUOUS
10
6.1078614960629922
20
-3.6497400787401575
11
6.09498811023622
21
-3.6556959448818898
0
LINE
8
BLACK
6
CONTINUOUS
10
6.09498811023622
20
-3.6556959448818898
11
6.0815462204724406
21
-3.6602250393700788
0
LINE
8
BLACK
6
CONTINUOUS
10
6.0815462204724406
20
-3.6602250393700788
11
6.0676934251968504
21
-3.6632742913385825
0
LINE
8
BLACK
6
CONTINUOUS
10
6.0676934251968504
20
-3.6632742913385825
11
6.0535922047244091
21
-3.6648078740157479
0
LINE
8
BLACK
6
CONTINUOUS
10
6.0535922047244091
20
-3.6648078740157479
11
6.03940779527559
21
-3.6648078740157479
0
LINE
8
BLACK
6
CONTINUOUS
10
6.03940779527559
20
-3.6648078740157479
11
6.0253065748031496
21
-3.6632742913385825
0
LINE
8
BLACK
6
CONTINUOUS
10
6.0253065748031496
20
-3.6632742913385825
11
6.0114537795275593
21
-3.6602250393700788
0
LINE
8
BLACK
6
CONTINUOUS
10
6.0114537795275593
20
-3.6602250393700788
11
5.9980118897637791
21
-3.6556959448818898
0
LINE
8
BLACK
6
CONTINUOUS
10
5.9980118897637791
20
-3.6556959448818898
11
5.9851385039370077
21
-3.6497400787401575
0
LINE
8
BLACK
6
CONTINUOUS
10
5.9851385039370077
20
-3.6497400787401575
11
5.9729844881889766
21
-3.6424272440944883
0
LINE
8
BLACK
6
CONTINUOUS
10
5.9729844881889766
20
-3.6424272440944883
11
5.961692401574803
21
-3.6338432283464566
0
LINE
8
BLACK
6
CONTINUOUS
10
5.961692401574803
20
-3.6338432283464566
11
5.9513946062992122
21
-3.6240886220472439
0
LINE
8
BLACK
6
CONTINUOUS
10
5.9513946062992122
20
-3.6240886220472439
11
5.9422118110236219
21
-3.6132778346456691
0
LINE
8
BLACK
6
CONTINUOUS
10
5.9422118110236219
20
-3.6132778346456691
11
5.9342516929133859
21
-3.6015375590551182
0
LINE
8
BLACK
6
CONTINUOUS
10
5.9342516929133859
20
-3.6015375590551182
11
5.9276076377952753
21
-3.5890054724409448
0
LINE
8
BLACK
6
CONTINUOUS
10
5.9276076377952753
20
-3.5890054724409448
11
5.9223574409448814
21
-3.5758285039370077
0
LINE
8
BLACK
6
CONTINUOUS
10
5.9223574409448814
20
-3.5758285039370077
11
5.9185627165354333
21
-3.5621611417322834
0
LINE
8
BLACK
6
CONTINUOUS
10
5.9185627165354333
20
-3.5621611417322834
11
5.9162679133858269
21
-3.5481635826771654
0
LINE
8
BLACK
6
CONTINUOUS
10
5.9162679133858269
20
-3.5481635826771654
11
5.9154999999999998
21
-3.5339999999999998
0
LINE
8
BLACK
6
CONTINUOUS
10
5.9154999999999998
20
-3.5339999999999998
11
5.9162679133858269
21
-3.5198364173228347
0
LINE
8
BLACK
6
CONTINUOUS
10
5.9162679133858269
20
-3.5198364173228347
11
5.9185627165354333
21
-3.5058388582677162
0
LINE
8
BLACK
6
CONTINUOUS
10
5.9185627165354333
20
-3.5058388582677162
11
5.9223574409448814
21
-3.4921714960629919
0
LINE
8
BLACK
6
CONTINUOUS
10
5.9223574409448814
20
-3.4921714960629919
11
5.9276076377952753
21
-3.4789945275590552
0
LINE
8
BLACK
6
CONTINUOUS
10
5.9276076377952753
20
-3.4789945275590552
11
5.9342516929133859
21
-3.4664624409448819
0
LINE
8
BLACK
6
CONTINUOUS
10
5.9342516929133859
20
-3.4664624409448819
11
5.9422118110236219
21
-3.4547221653543305
0
LINE
8
BLACK
6
CONTINUOUS
10
5.9422118110236219
20
-3.4547221653543305
11
5.9513946062992122
21
-3.4439113779527557
0
LINE
8
BLACK
6
CONTINUOUS
10
5.9513946062992122
20
-3.4439113779527557
11
5.961692401574803
21
-3.434156771653543
0
LINE
8
BLACK
6
CONTINUOUS
10
5.961692401574803
20
-3.434156771653543
11
5.9729844881889766
21
-3.4255727559055118
0
LINE
8
BLACK
6
CONTINUOUS
10
5.9729844881889766
20
-3.4255727559055118
11
5.9851385039370077
21
-3.4182599212598426
0
LINE
8
BLACK
6
CONTINUOUS
10
5.9851385039370077
20
-3.4182599212598426
11
5.9980118897637791
21
-3.4123040551181103
0
LINE
8
BLACK
6
CONTINUOUS
10
5.9980118897637791
20
-3.4123040551181103
11
6.0114537795275593
21
-3.4077749606299212
0
LINE
8
BLACK
6
CONTINUOUS
10
6.0114537795275593
20
-3.4077749606299212
11
6.0253065748031496
21
-3.4047257086614171
0
LINE
8
BLACK
6
CONTINUOUS
10
6.0253065748031496
20
-3.4047257086614171
11
6.03940779527559
21
-3.4031921259842517
0
LINE
8
BLACK
6
CONTINUOUS
10
6.03940779527559
20
-3.4031921259842517
11
6.0535922047244091
21
-3.4031921259842517
0
LINE
8
BLACK
6
CONTINUOUS
10
6.0535922047244091
20
-3.4031921259842517
11
6.0676934251968504
21
-3.4047257086614171
  0
ENDSEC
  0
EOF
