<?xml version='1.0' encoding='ASCII' standalone='yes'?>
<svg xmlns:svg="http://www.w3.org/2000/svg" xmlns="http://www.w3.org/2000/svg" xmlns:xlink="http://www.w3.org/1999/xlink" version="1.1" width="297.0022mm" height="210.0072mm" viewBox="0.0000 0.0000 297.0022 210.0072">
<title>SVG Image created as TPS63036V01-F_Fab.svg date 2024/07/06 20:22:35 </title>
  <desc>Image generated by PCBNEW </desc>
<g style="fill:#848484; fill-opacity:1.0000;stroke:#848484; stroke-opacity:1.0000; stroke-linecap:round; stroke-linejoin:round;" transform="translate(0 0) scale(1 1)">
</g>
<g style="fill:#848484; fill-opacity:0.0;  stroke:#848484; stroke-width:0.0000; stroke-opacity:1;  stroke-linecap:round; stroke-linejoin:round;">
</g>
<g style="fill:#848484; fill-opacity:0.0;  stroke:#848484; stroke-width:0.5974; stroke-opacity:1;  stroke-linecap:round; stroke-linejoin:round;">
<g transform="rotate(-90.000000 100.3807 138.1901)">
<text x="100.3807" y="144.2300" textLength="37.3990" font-size="8.0533" lengthAdjust="spacingAndGlyphs" text-anchor="end" opacity="0">MA02-1</text>
</g>
<g class="stroked-text"><desc>MA02-1</desc>
<path d="M106.6772 173.9599 L100.6372 173.9599 "/>
<path d="M100.6372 173.9599 L104.9515 171.9466 "/>
<path d="M104.9515 171.9466 L100.6372 169.9333 "/>
<path d="M100.6372 169.9333 L106.6772 169.9333 "/>
<path d="M104.9515 167.3447 L104.9515 164.4686 "/>
<path d="M106.6772 167.9200 L100.6372 165.9067 "/>
<path d="M100.6372 165.9067 L106.6772 163.8933 "/>
<path d="M100.6372 160.7296 L100.6372 160.1543 "/>
<path d="M100.6372 160.1543 L100.9248 159.5791 "/>
<path d="M100.9248 159.5791 L101.2125 159.2915 "/>
<path d="M101.2125 159.2915 L101.7877 159.0039 "/>
<path d="M101.7877 159.0039 L102.9382 158.7162 "/>
<path d="M102.9382 158.7162 L104.3762 158.7162 "/>
<path d="M104.3762 158.7162 L105.5267 159.0039 "/>
<path d="M105.5267 159.0039 L106.1019 159.2915 "/>
<path d="M106.1019 159.2915 L106.3896 159.5791 "/>
<path d="M106.3896 159.5791 L106.6772 160.1543 "/>
<path d="M106.6772 160.1543 L106.6772 160.7296 "/>
<path d="M106.6772 160.7296 L106.3896 161.3048 "/>
<path d="M106.3896 161.3048 L106.1019 161.5924 "/>
<path d="M106.1019 161.5924 L105.5267 161.8800 "/>
<path d="M105.5267 161.8800 L104.3762 162.1676 "/>
<path d="M104.3762 162.1676 L102.9382 162.1676 "/>
<path d="M102.9382 162.1676 L101.7877 161.8800 "/>
<path d="M101.7877 161.8800 L101.2125 161.5924 "/>
<path d="M101.2125 161.5924 L100.9248 161.3048 "/>
<path d="M100.9248 161.3048 L100.6372 160.7296 "/>
<path d="M101.2125 156.4153 L100.9248 156.1277 "/>
<path d="M100.9248 156.1277 L100.6372 155.5525 "/>
<path d="M100.6372 155.5525 L100.6372 154.1144 "/>
<path d="M100.6372 154.1144 L100.9248 153.5392 "/>
<path d="M100.9248 153.5392 L101.2125 153.2515 "/>
<path d="M101.2125 153.2515 L101.7877 152.9639 "/>
<path d="M101.7877 152.9639 L102.3629 152.9639 "/>
<path d="M102.3629 152.9639 L103.2258 153.2515 "/>
<path d="M103.2258 153.2515 L106.6772 156.7029 "/>
<path d="M106.6772 156.7029 L106.6772 152.9639 "/>
<path d="M104.3762 150.3754 L104.3762 145.7735 "/>
<path d="M106.6772 139.7336 L106.6772 143.1850 "/>
<path d="M106.6772 141.4593 L100.6372 141.4593 "/>
<path d="M100.6372 141.4593 L101.5001 142.0345 "/>
<path d="M101.5001 142.0345 L102.0753 142.6097 "/>
<path d="M102.0753 142.6097 L102.3629 143.1850 "/>
</g><g transform="rotate(-90.000000 100.3807 111.6409)">
<text x="100.3807" y="117.6808" textLength="37.3990" font-size="8.0533" lengthAdjust="spacingAndGlyphs" text-anchor="end" opacity="0">MA02-1</text>
</g>
<g class="stroked-text"><desc>MA02-1</desc>
<path d="M106.6772 147.4107 L100.6372 147.4107 "/>
<path d="M100.6372 147.4107 L104.9515 145.3974 "/>
<path d="M104.9515 145.3974 L100.6372 143.3841 "/>
<path d="M100.6372 143.3841 L106.6772 143.3841 "/>
<path d="M104.9515 140.7955 L104.9515 137.9194 "/>
<path d="M106.6772 141.3708 L100.6372 139.3575 "/>
<path d="M100.6372 139.3575 L106.6772 137.3441 "/>
<path d="M100.6372 134.1804 L100.6372 133.6051 "/>
<path d="M100.6372 133.6051 L100.9248 133.0299 "/>
<path d="M100.9248 133.0299 L101.2125 132.7423 "/>
<path d="M101.2125 132.7423 L101.7877 132.4547 "/>
<path d="M101.7877 132.4547 L102.9382 132.1670 "/>
<path d="M102.9382 132.1670 L104.3762 132.1670 "/>
<path d="M104.3762 132.1670 L105.5267 132.4547 "/>
<path d="M105.5267 132.4547 L106.1019 132.7423 "/>
<path d="M106.1019 132.7423 L106.3896 133.0299 "/>
<path d="M106.3896 133.0299 L106.6772 133.6051 "/>
<path d="M106.6772 133.6051 L106.6772 134.1804 "/>
<path d="M106.6772 134.1804 L106.3896 134.7556 "/>
<path d="M106.3896 134.7556 L106.1019 135.0432 "/>
<path d="M106.1019 135.0432 L105.5267 135.3308 "/>
<path d="M105.5267 135.3308 L104.3762 135.6184 "/>
<path d="M104.3762 135.6184 L102.9382 135.6184 "/>
<path d="M102.9382 135.6184 L101.7877 135.3308 "/>
<path d="M101.7877 135.3308 L101.2125 135.0432 "/>
<path d="M101.2125 135.0432 L100.9248 134.7556 "/>
<path d="M100.9248 134.7556 L100.6372 134.1804 "/>
<path d="M101.2125 129.8661 L100.9248 129.5785 "/>
<path d="M100.9248 129.5785 L100.6372 129.0033 "/>
<path d="M100.6372 129.0033 L100.6372 127.5652 "/>
<path d="M100.6372 127.5652 L100.9248 126.9900 "/>
<path d="M100.9248 126.9900 L101.2125 126.7023 "/>
<path d="M101.2125 126.7023 L101.7877 126.4147 "/>
<path d="M101.7877 126.4147 L102.3629 126.4147 "/>
<path d="M102.3629 126.4147 L103.2258 126.7023 "/>
<path d="M103.2258 126.7023 L106.6772 130.1537 "/>
<path d="M106.6772 130.1537 L106.6772 126.4147 "/>
<path d="M104.3762 123.8262 L104.3762 119.2243 "/>
<path d="M106.6772 113.1844 L106.6772 116.6358 "/>
<path d="M106.6772 114.9101 L100.6372 114.9101 "/>
<path d="M100.6372 114.9101 L101.5001 115.4853 "/>
<path d="M101.5001 115.4853 L102.0753 116.0605 "/>
<path d="M102.0753 116.0605 L102.3629 116.6358 "/>
</g></g>
<g style="fill:#848484; fill-opacity:1.0000;  stroke:#848484; stroke-width:0.0000; stroke-opacity:1;  stroke-linecap:round; stroke-linejoin:round;">
<path style="fill:#848484; fill-opacity:1.0000;  stroke:#848484; stroke-width:0.0000; stroke-opacity:1;  stroke-linecap:round; stroke-linejoin:round;fill-rule:evenodd;" d="M 116.6421,83.1005 113.9871,83.1005 113.9871,80.4456 116.6421,80.4456 Z"/> 
<path style="fill:#848484; fill-opacity:1.0000;  stroke:#848484; stroke-width:0.0000; stroke-opacity:1;  stroke-linecap:round; stroke-linejoin:round;fill-rule:evenodd;" d="M 129.9167,83.1005 127.2617,83.1005 127.2617,80.4456 129.9167,80.4456 Z"/> 
<path style="fill:#848484; fill-opacity:1.0000;  stroke:#848484; stroke-width:0.0000; stroke-opacity:1;  stroke-linecap:round; stroke-linejoin:round;fill-rule:evenodd;" d="M 116.6421,69.8259 113.9871,69.8259 113.9871,67.1710 116.6421,67.1710 Z"/> 
<path style="fill:#848484; fill-opacity:1.0000;  stroke:#848484; stroke-width:0.0000; stroke-opacity:1;  stroke-linecap:round; stroke-linejoin:round;fill-rule:evenodd;" d="M 129.9167,69.8259 127.2617,69.8259 127.2617,67.1710 129.9167,67.1710 Z"/> 
<path style="fill:#848484; fill-opacity:1.0000;  stroke:#848484; stroke-width:0.0000; stroke-opacity:1;  stroke-linecap:round; stroke-linejoin:round;fill-rule:evenodd;" d="M 116.6421,56.5513 113.9871,56.5513 113.9871,53.8964 116.6421,53.8964 Z"/> 
<path style="fill:#848484; fill-opacity:1.0000;  stroke:#848484; stroke-width:0.0000; stroke-opacity:1;  stroke-linecap:round; stroke-linejoin:round;fill-rule:evenodd;" d="M 129.9167,56.5513 127.2617,56.5513 127.2617,53.8964 129.9167,53.8964 Z"/> 
<path style="fill:#848484; fill-opacity:1.0000;  stroke:#848484; stroke-width:0.0000; stroke-opacity:1;  stroke-linecap:round; stroke-linejoin:round;fill-rule:evenodd;" d="M 116.9739,146.1549 114.3190,146.1549 114.3190,143.4999 116.9739,143.4999 Z"/> 
<path style="fill:#848484; fill-opacity:1.0000;  stroke:#848484; stroke-width:0.0000; stroke-opacity:1;  stroke-linecap:round; stroke-linejoin:round;fill-rule:evenodd;" d="M 116.9739,119.6057 114.3190,119.6057 114.3190,116.9507 116.9739,116.9507 Z"/> 
<path style="fill:#848484; fill-opacity:1.0000;  stroke:#848484; stroke-width:0.0000; stroke-opacity:1;  stroke-linecap:round; stroke-linejoin:round;fill-rule:evenodd;" d="M 170.7361,153.4559 168.0811,153.4559 168.0811,150.8010 170.7361,150.8010 Z"/> 
<path style="fill:#848484; fill-opacity:1.0000;  stroke:#848484; stroke-width:0.0000; stroke-opacity:1;  stroke-linecap:round; stroke-linejoin:round;fill-rule:evenodd;" d="M 184.0107,153.4559 181.3557,153.4559 181.3557,150.8010 184.0107,150.8010 Z"/> 
<path style="fill:#848484; fill-opacity:1.0000;  stroke:#848484; stroke-width:0.0000; stroke-opacity:1;  stroke-linecap:round; stroke-linejoin:round;fill-rule:evenodd;" d="M 170.7361,140.1813 168.0811,140.1813 168.0811,137.5264 170.7361,137.5264 Z"/> 
<path style="fill:#848484; fill-opacity:1.0000;  stroke:#848484; stroke-width:0.0000; stroke-opacity:1;  stroke-linecap:round; stroke-linejoin:round;fill-rule:evenodd;" d="M 184.0107,140.1813 181.3557,140.1813 181.3557,137.5264 184.0107,137.5264 Z"/> 
<path style="fill:#848484; fill-opacity:1.0000;  stroke:#848484; stroke-width:0.0000; stroke-opacity:1;  stroke-linecap:round; stroke-linejoin:round;fill-rule:evenodd;" d="M 170.7361,126.9067 168.0811,126.9067 168.0811,124.2518 170.7361,124.2518 Z"/> 
<path style="fill:#848484; fill-opacity:1.0000;  stroke:#848484; stroke-width:0.0000; stroke-opacity:1;  stroke-linecap:round; stroke-linejoin:round;fill-rule:evenodd;" d="M 184.0107,126.9067 181.3557,126.9067 181.3557,124.2518 184.0107,124.2518 Z"/> 
<g>
</g>
<g>
</g>
<g>
</g>
<g>
</g>
<g>
</g>
<g>
</g>
<g>
</g>
<g>
</g>
<g>
</g>
<g>
</g>
<g>
</g>
<g>
</g>
<g>
</g>
<g>
</g>
<g>
</g>
<g>
</g>
<g>
</g>
<g>
</g>
<g>
</g>
<g>
</g>
<g>
</g>
<g>
</g>
<g>
</g>
<g>
</g>
<g>
</g>
</g> 
<svg:g><svg:g><svg:title>SVG Image created as TPS63036V01-Edge_Cuts.svg date 2024/07/06 20:22:35 </svg:title>
  <svg:desc>Image generated by PCBNEW </svg:desc>
<svg:g style="fill:#C2C200; fill-opacity:1.0000;stroke:#C2C200; stroke-opacity:1.0000; stroke-linecap:round; stroke-linejoin:round;" transform="translate(0 0) scale(1 1)">
</svg:g>
<svg:g style="fill:#C2C200; fill-opacity:0.0;  stroke:#C2C200; stroke-width:0.0000; stroke-opacity:1;  stroke-linecap:round; stroke-linejoin:round;">
</svg:g>
<svg:g style="fill:#C2C200; fill-opacity:0.0;  stroke:#C2C200; stroke-width:0.2613; stroke-opacity:1;  stroke-linecap:round; stroke-linejoin:round;">
<svg:path d="M96.7302 209.8729 L200.2720 209.8729 "/>
<svg:path d="M96.7302 0.1343 L96.7302 209.8729 "/>
<svg:path d="M200.2720 209.8729 L200.2720 0.1343 "/>
<svg:path d="M200.2720 0.1343 L96.7302 0.1343 "/>
<svg:g>
</svg:g>
<svg:g>
</svg:g>
<svg:g>
</svg:g>
<svg:g>
</svg:g>
<svg:g>
</svg:g>
<svg:g>
</svg:g>
<svg:g>
</svg:g>
<svg:g>
</svg:g>
<svg:g>
</svg:g>
<svg:g>
</svg:g>
<svg:g>
</svg:g>
<svg:g>
</svg:g>
<svg:g>
</svg:g>
<svg:g>
</svg:g>
<svg:g>
</svg:g>
<svg:g>
</svg:g>
<svg:g>
</svg:g>
<svg:g>
</svg:g>
<svg:g>
</svg:g>
<svg:g>
</svg:g>
<svg:g>
</svg:g>
<svg:g>
</svg:g>
<svg:g>
</svg:g>
<svg:g>
</svg:g>
<svg:g>
</svg:g>
</svg:g> 
</svg:g></svg:g></svg>
