M48
; DRILL file {KiCad 7.0.11+1} date Sat Jul  6 20:21:57 2024
; FORMAT={3:3/ absolute / metric / suppress leading zeros}
; #@! TF.CreationDate,2024-07-06T20:21:57+00:00
; #@! TF.GenerationSoftware,Kicad,Pcbnew,7.0.11+1
; #@! TF.FileFunction,Plated,1,2,PTH
FMAT,2
METRIC,TZ
; #@! TA.AperFunction,Plated,PTH,ViaDrill
T1C0.400
; #@! TA.AperFunction,Plated,PTH,ComponentDrill
T2C0.889
; #@! TA.AperFunction,Plated,PTH,ComponentDrill
T3C1.300
; #@! TA.AperFunction,Plated,PTH,ComponentDrill
T4C3.200
%
G90
G05
T1
X139676Y-87045
X139676Y-88245
X139676Y-89445
X139676Y-90645
X139676Y-91845
X139676Y-93045
X139676Y-94245
X139676Y-95445
X139676Y-96645
X139676Y-99345
X139676Y-100545
X139676Y-101745
X139676Y-102945
X139676Y-104145
X139676Y-105345
X139676Y-106545
X139676Y-107745
X139676Y-108945
X139676Y-110145
X139676Y-111345
X139676Y-112545
X139676Y-115245
X139676Y-116445
X139676Y-117645
X139676Y-118845
X139676Y-120045
X139676Y-121245
X139676Y-122445
X139676Y-123645
X140276Y-86145
X140564Y-113894
X140576Y-123645
X141476Y-86145
X141776Y-123645
X142676Y-86145
X143876Y-86145
X144120Y-107734
X144374Y-103543
X144755Y-106972
X145076Y-86145
X145136Y-107925
X145199Y-103543
X145376Y-123645
X145453Y-106274
X146088Y-103543
X146276Y-86145
X146576Y-123645
X147176Y-114045
X147476Y-86145
X147776Y-102045
X148076Y-114045
X148376Y-101145
X148676Y-86145
X148976Y-114045
X149276Y-123645
X149876Y-86145
X149876Y-114345
X150176Y-105345
X150476Y-123645
X150776Y-114345
X151076Y-86145
X151076Y-105345
X151676Y-106845
X151676Y-123645
X152276Y-86145
X152876Y-106845
X153476Y-86145
X154076Y-106845
X154376Y-102945
X154376Y-103845
X154376Y-104745
X154376Y-105645
X154676Y-86145
X155876Y-86145
X156176Y-123645
X157076Y-86145
X157376Y-87045
X157376Y-88245
X157376Y-89445
X157376Y-90645
X157376Y-91845
X157376Y-93045
X157376Y-94245
X157376Y-104445
X157376Y-105645
X157376Y-106845
X157376Y-108045
X157376Y-109245
X157376Y-110445
X157376Y-111645
X157376Y-112845
X157376Y-114045
X157376Y-115245
X157376Y-116445
X157376Y-117645
X157376Y-118845
X157376Y-120045
X157376Y-121245
X157376Y-122445
X157376Y-123645
T2
X142151Y-95479
X142151Y-98019
X142151Y-100559
X142215Y-107544
X142215Y-110084
X142215Y-112624
X142215Y-115164
X144691Y-95479
X144691Y-98019
X144691Y-100559
X152502Y-108941
X152502Y-111481
X152502Y-114021
X155042Y-108941
X155042Y-111481
X155042Y-114021
T3
X146930Y-99924
X156930Y-97424
X156930Y-102424
T4
X143421Y-89764
X143421Y-120244
X153581Y-89764
X153581Y-120244
M30
