%TF.GenerationSoftware,KiCad,Pcbnew,7.0.11+1*%
%TF.CreationDate,2024-07-06T20:21:57+00:00*%
%TF.ProjectId,TPS63036V01,54505336-3330-4333-9656-30312e6b6963,rev?*%
%TF.SameCoordinates,Original*%
%TF.FileFunction,Copper,L2,Bot*%
%TF.FilePolarity,Positive*%
%FSLAX46Y46*%
G04 Gerber Fmt 4.6, Leading zero omitted, Abs format (unit mm)*
G04 Created by KiCad (PCBNEW 7.0.11+1) date 2024-07-06 20:21:57*
%MOMM*%
%LPD*%
G01*
G04 APERTURE LIST*
G04 Aperture macros list*
%AMRoundRect*
0 Rectangle with rounded corners*
0 $1 Rounding radius*
0 $2 $3 $4 $5 $6 $7 $8 $9 X,Y pos of 4 corners*
0 Add a 4 corners polygon primitive as box body*
4,1,4,$2,$3,$4,$5,$6,$7,$8,$9,$2,$3,0*
0 Add four circle primitives for the rounded corners*
1,1,$1+$1,$2,$3*
1,1,$1+$1,$4,$5*
1,1,$1+$1,$6,$7*
1,1,$1+$1,$8,$9*
0 Add four rect primitives between the rounded corners*
20,1,$1+$1,$2,$3,$4,$5,0*
20,1,$1+$1,$4,$5,$6,$7,0*
20,1,$1+$1,$6,$7,$8,$9,0*
20,1,$1+$1,$8,$9,$2,$3,0*%
G04 Aperture macros list end*
%ADD10C,0.101600*%
%TA.AperFunction,NonConductor*%
%ADD11C,0.101600*%
%TD*%
%TA.AperFunction,ComponentPad*%
%ADD12R,1.651000X1.651000*%
%TD*%
%TA.AperFunction,ComponentPad*%
%ADD13C,6.451600*%
%TD*%
%TA.AperFunction,ComponentPad*%
%ADD14C,2.184400*%
%TD*%
%TA.AperFunction,SMDPad,CuDef*%
%ADD15R,1.100000X1.000000*%
%TD*%
%TA.AperFunction,SMDPad,CuDef*%
%ADD16R,1.500000X1.300000*%
%TD*%
%TA.AperFunction,SMDPad,CuDef*%
%ADD17R,1.300000X1.500000*%
%TD*%
%TA.AperFunction,SMDPad,CuDef*%
%ADD18R,3.400000X1.900000*%
%TD*%
%TA.AperFunction,SMDPad,CuDef*%
%ADD19R,1.700000X1.800000*%
%TD*%
%TA.AperFunction,SMDPad,CuDef*%
%ADD20R,1.000000X1.100000*%
%TD*%
%TA.AperFunction,SMDPad,CuDef*%
%ADD21R,1.000000X1.400000*%
%TD*%
%TA.AperFunction,SMDPad,CuDef*%
%ADD22RoundRect,0.150000X0.000000X0.000000X0.000000X0.000000X0.000000X0.000000X0.000000X0.000000X0*%
%TD*%
%TA.AperFunction,SMDPad,CuDef*%
%ADD23R,1.270000X2.540000*%
%TD*%
%TA.AperFunction,SMDPad,CuDef*%
%ADD24R,3.300000X0.640000*%
%TD*%
%TA.AperFunction,SMDPad,CuDef*%
%ADD25R,0.640000X0.510000*%
%TD*%
%TA.AperFunction,ViaPad*%
%ADD26C,0.806400*%
%TD*%
%TA.AperFunction,Conductor*%
%ADD27C,1.270000*%
%TD*%
%TA.AperFunction,Conductor*%
%ADD28C,0.304800*%
%TD*%
%TA.AperFunction,Conductor*%
%ADD29C,0.254000*%
%TD*%
%TA.AperFunction,Conductor*%
%ADD30C,1.016000*%
%TD*%
%TA.AperFunction,Conductor*%
%ADD31C,0.406400*%
%TD*%
G04 APERTURE END LIST*
D10*
D11*
X155585567Y-116666326D02*
X155585567Y-115497926D01*
X155585567Y-115497926D02*
X155196100Y-116332497D01*
X155196100Y-116332497D02*
X154806634Y-115497926D01*
X154806634Y-115497926D02*
X154806634Y-116666326D01*
X153693872Y-116666326D02*
X154250253Y-116666326D01*
X154250253Y-116666326D02*
X154250253Y-115497926D01*
X153360043Y-116332497D02*
X152803662Y-116332497D01*
X153471319Y-116666326D02*
X153081853Y-115497926D01*
X153081853Y-115497926D02*
X152692386Y-116666326D01*
X151913452Y-116054307D02*
X151746538Y-116109945D01*
X151746538Y-116109945D02*
X151690900Y-116165583D01*
X151690900Y-116165583D02*
X151635262Y-116276859D01*
X151635262Y-116276859D02*
X151635262Y-116443773D01*
X151635262Y-116443773D02*
X151690900Y-116555049D01*
X151690900Y-116555049D02*
X151746538Y-116610688D01*
X151746538Y-116610688D02*
X151857814Y-116666326D01*
X151857814Y-116666326D02*
X152302919Y-116666326D01*
X152302919Y-116666326D02*
X152302919Y-115497926D01*
X152302919Y-115497926D02*
X151913452Y-115497926D01*
X151913452Y-115497926D02*
X151802176Y-115553564D01*
X151802176Y-115553564D02*
X151746538Y-115609202D01*
X151746538Y-115609202D02*
X151690900Y-115720478D01*
X151690900Y-115720478D02*
X151690900Y-115831754D01*
X151690900Y-115831754D02*
X151746538Y-115943030D01*
X151746538Y-115943030D02*
X151802176Y-115998668D01*
X151802176Y-115998668D02*
X151913452Y-116054307D01*
X151913452Y-116054307D02*
X152302919Y-116054307D01*
D10*
D11*
X148402969Y-91772937D02*
X148458607Y-91717299D01*
X148458607Y-91717299D02*
X148514245Y-91606023D01*
X148514245Y-91606023D02*
X148514245Y-91327832D01*
X148514245Y-91327832D02*
X148458607Y-91216556D01*
X148458607Y-91216556D02*
X148402969Y-91160918D01*
X148402969Y-91160918D02*
X148291693Y-91105280D01*
X148291693Y-91105280D02*
X148180417Y-91105280D01*
X148180417Y-91105280D02*
X148013503Y-91160918D01*
X148013503Y-91160918D02*
X147345845Y-91828575D01*
X147345845Y-91828575D02*
X147345845Y-91105280D01*
X148514245Y-90381985D02*
X148514245Y-90270708D01*
X148514245Y-90270708D02*
X148458607Y-90159432D01*
X148458607Y-90159432D02*
X148402969Y-90103794D01*
X148402969Y-90103794D02*
X148291693Y-90048156D01*
X148291693Y-90048156D02*
X148069141Y-89992518D01*
X148069141Y-89992518D02*
X147790950Y-89992518D01*
X147790950Y-89992518D02*
X147568398Y-90048156D01*
X147568398Y-90048156D02*
X147457122Y-90103794D01*
X147457122Y-90103794D02*
X147401484Y-90159432D01*
X147401484Y-90159432D02*
X147345845Y-90270708D01*
X147345845Y-90270708D02*
X147345845Y-90381985D01*
X147345845Y-90381985D02*
X147401484Y-90493261D01*
X147401484Y-90493261D02*
X147457122Y-90548899D01*
X147457122Y-90548899D02*
X147568398Y-90604537D01*
X147568398Y-90604537D02*
X147790950Y-90660175D01*
X147790950Y-90660175D02*
X148069141Y-90660175D01*
X148069141Y-90660175D02*
X148291693Y-90604537D01*
X148291693Y-90604537D02*
X148402969Y-90548899D01*
X148402969Y-90548899D02*
X148458607Y-90493261D01*
X148458607Y-90493261D02*
X148514245Y-90381985D01*
X147345845Y-88879756D02*
X147345845Y-89547413D01*
X147345845Y-89213585D02*
X148514245Y-89213585D01*
X148514245Y-89213585D02*
X148347331Y-89324861D01*
X148347331Y-89324861D02*
X148236055Y-89436137D01*
X148236055Y-89436137D02*
X148180417Y-89547413D01*
X148514245Y-88490289D02*
X148514245Y-87766994D01*
X148514245Y-87766994D02*
X148069141Y-88156461D01*
X148069141Y-88156461D02*
X148069141Y-87989546D01*
X148069141Y-87989546D02*
X148013503Y-87878270D01*
X148013503Y-87878270D02*
X147957864Y-87822632D01*
X147957864Y-87822632D02*
X147846588Y-87766994D01*
X147846588Y-87766994D02*
X147568398Y-87766994D01*
X147568398Y-87766994D02*
X147457122Y-87822632D01*
X147457122Y-87822632D02*
X147401484Y-87878270D01*
X147401484Y-87878270D02*
X147345845Y-87989546D01*
X147345845Y-87989546D02*
X147345845Y-88323375D01*
X147345845Y-88323375D02*
X147401484Y-88434651D01*
X147401484Y-88434651D02*
X147457122Y-88490289D01*
D10*
D11*
X150165245Y-91932594D02*
X149330674Y-91932594D01*
X149330674Y-91932594D02*
X149163760Y-91988233D01*
X149163760Y-91988233D02*
X149052484Y-92099509D01*
X149052484Y-92099509D02*
X148996845Y-92266423D01*
X148996845Y-92266423D02*
X148996845Y-92377699D01*
X149330674Y-91431851D02*
X149330674Y-90875470D01*
X148996845Y-91543127D02*
X150165245Y-91153661D01*
X150165245Y-91153661D02*
X148996845Y-90764194D01*
X149108122Y-89707070D02*
X149052484Y-89762708D01*
X149052484Y-89762708D02*
X148996845Y-89929622D01*
X148996845Y-89929622D02*
X148996845Y-90040898D01*
X148996845Y-90040898D02*
X149052484Y-90207813D01*
X149052484Y-90207813D02*
X149163760Y-90319089D01*
X149163760Y-90319089D02*
X149275036Y-90374727D01*
X149275036Y-90374727D02*
X149497588Y-90430365D01*
X149497588Y-90430365D02*
X149664503Y-90430365D01*
X149664503Y-90430365D02*
X149887055Y-90374727D01*
X149887055Y-90374727D02*
X149998331Y-90319089D01*
X149998331Y-90319089D02*
X150109607Y-90207813D01*
X150109607Y-90207813D02*
X150165245Y-90040898D01*
X150165245Y-90040898D02*
X150165245Y-89929622D01*
X150165245Y-89929622D02*
X150109607Y-89762708D01*
X150109607Y-89762708D02*
X150053969Y-89707070D01*
X148996845Y-89206327D02*
X150165245Y-89206327D01*
X149608864Y-89206327D02*
X149608864Y-88538670D01*
X148996845Y-88538670D02*
X150165245Y-88538670D01*
X150165245Y-87759737D02*
X150165245Y-87537184D01*
X150165245Y-87537184D02*
X150109607Y-87425908D01*
X150109607Y-87425908D02*
X149998331Y-87314632D01*
X149998331Y-87314632D02*
X149775779Y-87258994D01*
X149775779Y-87258994D02*
X149386312Y-87258994D01*
X149386312Y-87258994D02*
X149163760Y-87314632D01*
X149163760Y-87314632D02*
X149052484Y-87425908D01*
X149052484Y-87425908D02*
X148996845Y-87537184D01*
X148996845Y-87537184D02*
X148996845Y-87759737D01*
X148996845Y-87759737D02*
X149052484Y-87871013D01*
X149052484Y-87871013D02*
X149163760Y-87982289D01*
X149163760Y-87982289D02*
X149386312Y-88037927D01*
X149386312Y-88037927D02*
X149775779Y-88037927D01*
X149775779Y-88037927D02*
X149998331Y-87982289D01*
X149998331Y-87982289D02*
X150109607Y-87871013D01*
X150109607Y-87871013D02*
X150165245Y-87759737D01*
D12*
%TO.P,SV3,1*%
%TO.N,GND*%
X144691100Y-100558600D03*
%TO.P,SV3,2*%
X142151100Y-100558600D03*
%TO.P,SV3,3*%
%TO.N,N$4*%
X144691100Y-98018600D03*
%TO.P,SV3,4*%
X142151100Y-98018600D03*
%TO.P,SV3,5*%
%TO.N,GND*%
X144691100Y-95478600D03*
%TO.P,SV3,6*%
X142151100Y-95478600D03*
%TD*%
%TO.P,SV6,1*%
%TO.N,N$21*%
X142214600Y-112623600D03*
%TO.P,SV6,2*%
%TO.N,GND*%
X142214600Y-115163600D03*
%TD*%
D13*
%TO.P,X4,P$1*%
%TO.N,GND*%
X143421100Y-120243600D03*
%TD*%
D12*
%TO.P,SV1,1*%
%TO.N,N$1*%
X142214600Y-107543600D03*
%TO.P,SV1,2*%
%TO.N,N$3*%
X142214600Y-110083600D03*
%TD*%
D13*
%TO.P,X1,P$1*%
%TO.N,GND*%
X143421100Y-89763600D03*
%TD*%
D14*
%TO.P,P2,1*%
%TO.N,N$31*%
X156930100Y-102423600D03*
%TO.P,P2,2*%
%TO.N,N$32*%
X146930100Y-99923600D03*
%TO.P,P2,3*%
X156930100Y-97423600D03*
%TD*%
D13*
%TO.P,X3,P$1*%
%TO.N,GND*%
X153581100Y-89763600D03*
%TD*%
D12*
%TO.P,SV5,1*%
%TO.N,GND*%
X155041600Y-114020600D03*
%TO.P,SV5,2*%
X152501600Y-114020600D03*
%TO.P,SV5,3*%
%TO.N,N$31*%
X155041600Y-111480600D03*
%TO.P,SV5,4*%
X152501600Y-111480600D03*
%TO.P,SV5,5*%
%TO.N,GND*%
X155041600Y-108940600D03*
%TO.P,SV5,6*%
X152501600Y-108940600D03*
%TD*%
D13*
%TO.P,X2,P$1*%
%TO.N,GND*%
X153581100Y-120243600D03*
%TD*%
D15*
%TO.P,C21,1*%
%TO.N,N$32*%
X144500600Y-111519600D03*
%TO.P,C21,2*%
%TO.N,N$31*%
X144500600Y-113219600D03*
%TD*%
D16*
%TO.P,C18,1*%
%TO.N,GND*%
X148501100Y-112621100D03*
%TO.P,C18,2*%
%TO.N,N$31*%
X148501100Y-110721100D03*
%TD*%
%TO.P,C19,1*%
%TO.N,GND*%
X146469100Y-111922600D03*
%TO.P,C19,2*%
%TO.N,N$31*%
X146469100Y-110022600D03*
%TD*%
D17*
%TO.P,C16,1*%
%TO.N,GND*%
X145011100Y-104876600D03*
%TO.P,C16,2*%
%TO.N,+BAT2*%
X146911100Y-104876600D03*
%TD*%
D18*
%TO.P,P1,1*%
%TO.N,N$4*%
X150723600Y-97338600D03*
%TO.P,P1,2*%
%TO.N,+BAT2*%
X150723600Y-101238600D03*
%TD*%
D16*
%TO.P,C17,1*%
%TO.N,GND*%
X150406100Y-112621100D03*
%TO.P,C17,2*%
%TO.N,N$31*%
X150406100Y-110721100D03*
%TD*%
D19*
%TO.P,D1,A*%
%TO.N,GND*%
X154533600Y-97238600D03*
%TO.P,D1,K*%
%TO.N,+BAT2*%
X154533600Y-101338600D03*
%TD*%
D20*
%TO.P,R10,1*%
%TO.N,N$32*%
X144412600Y-114465100D03*
%TO.P,R10,2*%
%TO.N,N$31*%
X146112600Y-114465100D03*
%TD*%
D21*
%TO.P,X9,1*%
%TO.N,GND*%
X143355100Y-104960600D03*
%TO.P,X9,2*%
%TO.N,N$1*%
X141455100Y-104960600D03*
%TO.P,X9,3*%
%TO.N,+BAT2*%
X142405100Y-102760600D03*
%TD*%
D22*
%TO.P,X10,A1*%
%TO.N,+BAT2*%
X146846100Y-106793600D03*
%TO.P,X10,A2*%
%TO.N,N$3*%
X146346100Y-106793600D03*
%TO.P,X10,B1*%
%TO.N,N$19*%
X146846100Y-107293600D03*
%TO.P,X10,B2*%
%TO.N,N$21*%
X146346100Y-107293600D03*
%TO.P,X10,C1*%
%TO.N,N$26*%
X146846100Y-107793600D03*
%TO.P,X10,C2*%
%TO.N,GND*%
X146346100Y-107793600D03*
%TO.P,X10,D1*%
%TO.N,N$31*%
X146846100Y-108293600D03*
%TO.P,X10,D2*%
%TO.N,N$32*%
X146346100Y-108293600D03*
%TD*%
D15*
%TO.P,R28,1*%
%TO.N,GND*%
X144500600Y-108662100D03*
%TO.P,R28,2*%
%TO.N,N$32*%
X144500600Y-110362100D03*
%TD*%
D23*
%TO.P,C20,+*%
%TO.N,+BAT2*%
X148818600Y-104368600D03*
%TO.P,C20,-*%
%TO.N,GND*%
X152946100Y-104368600D03*
%TD*%
D24*
%TO.P,L2,1-1*%
%TO.N,N$19*%
X149136100Y-106531100D03*
D25*
%TO.P,L2,1-2*%
X147806100Y-107096100D03*
%TO.P,L2,1-3*%
X150466100Y-107096100D03*
D24*
%TO.P,L2,2-1*%
%TO.N,N$26*%
X149136100Y-109191100D03*
D25*
%TO.P,L2,2-2*%
X150466100Y-108626100D03*
%TO.P,L2,2-3*%
X147806100Y-108626100D03*
%TD*%
D26*
%TO.N,GND*%
X157376100Y-93045100D03*
X151676100Y-123645100D03*
X144119600Y-107734100D03*
X157376100Y-108045100D03*
X139676100Y-112545100D03*
X141776100Y-123645100D03*
X157376100Y-111645100D03*
X139676100Y-102945100D03*
X157376100Y-114045100D03*
X154376100Y-102945100D03*
X148676100Y-86145100D03*
X139676100Y-106545100D03*
X156176100Y-123645100D03*
X142676100Y-86145100D03*
X140576100Y-123645100D03*
X157376100Y-122445100D03*
X153476100Y-86145100D03*
X157376100Y-104445100D03*
X145135600Y-107924600D03*
X147776100Y-102045100D03*
X150776100Y-114345100D03*
X157376100Y-109245100D03*
X157376100Y-110445100D03*
X139676100Y-91845100D03*
X148376100Y-101145100D03*
X139676100Y-89445100D03*
X140276100Y-86145100D03*
X154376100Y-103845100D03*
X139676100Y-99345100D03*
X139676100Y-104145100D03*
X145376100Y-123645100D03*
X147176100Y-114045100D03*
X157376100Y-106845100D03*
X145199100Y-103543100D03*
X155876100Y-86145100D03*
X139676100Y-122445100D03*
X150176100Y-105345100D03*
X157376100Y-112845100D03*
X157376100Y-105645100D03*
X146576100Y-123645100D03*
X143876100Y-86145100D03*
X154676100Y-86145100D03*
X139676100Y-123645100D03*
X157376100Y-87045100D03*
X154376100Y-104745100D03*
X139676100Y-105345100D03*
X157376100Y-117645100D03*
X157376100Y-89445100D03*
X139676100Y-95445100D03*
X150476100Y-123645100D03*
X151076100Y-86145100D03*
X139676100Y-116445100D03*
X157376100Y-118845100D03*
X157376100Y-123645100D03*
X139676100Y-90645100D03*
X139676100Y-96645100D03*
X139676100Y-100545100D03*
X157076100Y-86145100D03*
X139676100Y-93045100D03*
X139676100Y-107745100D03*
X157376100Y-115245100D03*
X147476100Y-86145100D03*
X139676100Y-120045100D03*
X154076100Y-106845100D03*
X152876100Y-106845100D03*
X157376100Y-116445100D03*
X139676100Y-111345100D03*
X148076100Y-114045100D03*
X139676100Y-110145100D03*
X146276100Y-86145100D03*
X157376100Y-90645100D03*
X157376100Y-120045100D03*
X157376100Y-88245100D03*
X139676100Y-87045100D03*
X149876100Y-114345100D03*
X152276100Y-86145100D03*
X157376100Y-94245100D03*
X151076100Y-105345100D03*
X148976100Y-114045100D03*
X139676100Y-118845100D03*
X154376100Y-105645100D03*
X144373600Y-103543100D03*
X139676100Y-117645100D03*
X139676100Y-115245100D03*
X139676100Y-94245100D03*
X139676100Y-101745100D03*
X139676100Y-121245100D03*
X146088100Y-103543100D03*
X149276100Y-123645100D03*
X157376100Y-91845100D03*
X139676100Y-108945100D03*
X149876100Y-86145100D03*
X145076100Y-86145100D03*
X139676100Y-88245100D03*
X157376100Y-121245100D03*
X151676100Y-106845100D03*
X141476100Y-86145100D03*
%TO.N,N$32*%
X140563600Y-113893600D03*
%TO.N,N$21*%
X144754600Y-106972100D03*
%TO.N,N$3*%
X145453100Y-106273600D03*
%TD*%
D27*
%TO.N,+BAT2*%
X146913600Y-105003600D02*
X148183600Y-105003600D01*
X146911100Y-104876600D02*
X146913600Y-105003600D01*
X150723600Y-101238600D02*
X154433600Y-101238600D01*
X148183600Y-105003600D02*
X148818600Y-104368600D01*
X154433600Y-101238600D02*
X154533600Y-101338600D01*
D28*
X142405100Y-102760600D02*
X146575600Y-102760600D01*
X146575600Y-102760600D02*
X146913600Y-103098600D01*
D27*
X148818600Y-103143600D02*
X150723600Y-101238600D01*
X148818600Y-104368600D02*
X148818600Y-103143600D01*
D28*
X146913600Y-103098600D02*
X146913600Y-105003600D01*
D29*
%TO.N,N$19*%
X147806100Y-106531100D02*
X147802600Y-106527600D01*
X147608600Y-107293600D02*
X147806100Y-107096100D01*
X150466100Y-106531100D02*
X150469600Y-106527600D01*
X149139600Y-106527600D02*
X149136100Y-106531100D01*
X149136100Y-106531100D02*
X147806100Y-106531100D01*
X150469600Y-106527600D02*
X149139600Y-106527600D01*
X147802600Y-106527600D02*
X147802600Y-107092600D01*
X146846100Y-107293600D02*
X147608600Y-107293600D01*
X147802600Y-107092600D02*
X147806100Y-107096100D01*
X150466100Y-107096100D02*
X150466100Y-106531100D01*
%TO.N,N$26*%
X149012600Y-109067600D02*
X149136100Y-109191100D01*
X149203100Y-109258100D02*
X149136100Y-109191100D01*
X147739100Y-109067600D02*
X149012600Y-109067600D01*
X150466100Y-109198100D02*
X150406100Y-109258100D01*
X147806100Y-109000600D02*
X147739100Y-109067600D01*
X147806100Y-108626100D02*
X147806100Y-109000600D01*
X150466100Y-108626100D02*
X150466100Y-109198100D01*
X150406100Y-109258100D02*
X149203100Y-109258100D01*
%TO.N,N$31*%
X144500600Y-113219600D02*
X145287100Y-113219600D01*
X145834100Y-114059600D02*
X146112600Y-114465100D01*
D27*
X155041600Y-111480600D02*
X152501600Y-111480600D01*
D30*
X147294600Y-110528100D02*
X148183600Y-110528100D01*
D27*
X151678600Y-110721100D02*
X152438100Y-111480600D01*
D30*
X146662100Y-109959100D02*
X146725600Y-109959100D01*
D29*
X147294600Y-110528100D02*
X145643600Y-110528100D01*
D30*
X148371600Y-110655100D02*
X148501100Y-110721100D01*
D29*
X145389600Y-113258600D02*
X145389600Y-113615100D01*
D27*
X150406100Y-110721100D02*
X151678600Y-110721100D01*
D30*
X146469100Y-110022600D02*
X146662100Y-109959100D01*
X148183600Y-110528100D02*
X148310600Y-110655100D01*
D29*
X145389600Y-110782100D02*
X145389600Y-113258600D01*
X145834100Y-114147600D02*
X145834100Y-114059600D01*
X145643600Y-110528100D02*
X145389600Y-110782100D01*
D30*
X148371600Y-110655100D02*
X148310600Y-110655100D01*
X146725600Y-109959100D02*
X147294600Y-110528100D01*
D27*
X150406100Y-110721100D02*
X148501100Y-110721100D01*
D31*
X152438100Y-111480600D02*
X152501600Y-111480600D01*
D29*
X145287100Y-113219600D02*
X145389600Y-113258600D01*
X145389600Y-113615100D02*
X145834100Y-114059600D01*
%TO.N,N$32*%
X144500600Y-111519600D02*
X144398100Y-111392600D01*
X143611600Y-112179100D02*
X143611600Y-113957100D01*
D28*
X140563600Y-113893600D02*
X143548100Y-113893600D01*
D29*
X143611600Y-114084100D02*
X143611600Y-113957100D01*
X144500600Y-109829600D02*
X144818100Y-109512100D01*
X144437100Y-114274600D02*
X144500600Y-114338100D01*
X144398100Y-111392600D02*
X143611600Y-112179100D01*
X143611600Y-114084100D02*
X143802100Y-114274600D01*
X144818100Y-109512100D02*
X145135600Y-109512100D01*
D31*
X146930100Y-99923600D02*
X148441100Y-99923600D01*
D28*
X146346100Y-108293600D02*
X145846100Y-108293600D01*
D29*
X145516600Y-109092100D02*
X145516600Y-109131100D01*
X145135600Y-109512100D02*
X145516600Y-109131100D01*
X144500600Y-110362100D02*
X144500600Y-109829600D01*
D28*
X145516600Y-108623100D02*
X145516600Y-109092100D01*
D31*
X148841100Y-99523600D02*
X154830100Y-99523600D01*
X154830100Y-99523600D02*
X156930100Y-97423600D01*
X148441100Y-99923600D02*
X148841100Y-99523600D01*
D28*
X144500600Y-110362100D02*
X144500600Y-111519600D01*
D29*
X144500600Y-114338100D02*
X144412600Y-114465100D01*
X143611600Y-113957100D02*
X143548100Y-113893600D01*
D28*
X145846100Y-108293600D02*
X145516600Y-108623100D01*
D29*
X143802100Y-114274600D02*
X144437100Y-114274600D01*
%TO.N,N$21*%
X145901600Y-107293600D02*
X145580100Y-106972100D01*
X146346100Y-107293600D02*
X145901600Y-107293600D01*
X145580100Y-106972100D02*
X144754600Y-106972100D01*
%TO.N,N$3*%
X146100100Y-106793600D02*
X145580100Y-106273600D01*
X146346100Y-106793600D02*
X146100100Y-106793600D01*
X145580100Y-106273600D02*
X145453100Y-106273600D01*
D27*
%TO.N,N$4*%
X142151100Y-98018600D02*
X144691100Y-98018600D01*
X150043600Y-98018600D02*
X150723600Y-97338600D01*
X144691100Y-98018600D02*
X150043600Y-98018600D01*
D29*
%TO.N,N$1*%
X141135100Y-105280600D02*
X141455100Y-104960600D01*
X142214600Y-107543600D02*
X141452600Y-107543600D01*
X141135100Y-107226100D02*
X141135100Y-105280600D01*
X141452600Y-107543600D02*
X141135100Y-107226100D01*
%TD*%
%TA.AperFunction,Conductor*%
%TO.N,+BAT2*%
G36*
X147063100Y-105930599D02*
G01*
X147412317Y-105930599D01*
X147456511Y-105948905D01*
X147474817Y-105993099D01*
X147456511Y-106037293D01*
X147456510Y-106037294D01*
X147431668Y-106062135D01*
X147422199Y-106069906D01*
X147375866Y-106100865D01*
X147375865Y-106100866D01*
X147344906Y-106147199D01*
X147337134Y-106156669D01*
X147122104Y-106371700D01*
X147077910Y-106390006D01*
X147057267Y-106386499D01*
X146996100Y-106365095D01*
X146996100Y-106497705D01*
X146977100Y-106516706D01*
X146977100Y-106925581D01*
X146933600Y-106943600D01*
X146832495Y-106943600D01*
X146696100Y-106807205D01*
X146696100Y-106365095D01*
X146631563Y-106387678D01*
X146521448Y-106468946D01*
X146521443Y-106468950D01*
X146511674Y-106482187D01*
X146470700Y-106506873D01*
X146436143Y-106502245D01*
X146416650Y-106493638D01*
X146416644Y-106493636D01*
X146399662Y-106491666D01*
X146362672Y-106473777D01*
X146296906Y-106408011D01*
X146278600Y-106363817D01*
X146278600Y-105993099D01*
X146296906Y-105948905D01*
X146341100Y-105930599D01*
X146759100Y-105930599D01*
X146759100Y-105194100D01*
X147063100Y-105194100D01*
X147063100Y-105930599D01*
G37*
%TD.AperFunction*%
%TD*%
%TA.AperFunction,Conductor*%
%TO.N,N$31*%
G36*
X146996100Y-108271995D02*
G01*
X146996100Y-108722103D01*
X147060636Y-108699521D01*
X147060637Y-108699521D01*
X147131486Y-108647233D01*
X147177915Y-108635718D01*
X147218887Y-108660406D01*
X147231100Y-108697520D01*
X147231100Y-109006100D01*
X147212794Y-109050294D01*
X147168600Y-109068600D01*
X146621100Y-109068600D01*
X146621100Y-110112100D01*
X146602794Y-110156294D01*
X146558600Y-110174600D01*
X146379600Y-110174600D01*
X146335406Y-110156294D01*
X146317100Y-110112100D01*
X146317100Y-109068600D01*
X146058382Y-109068600D01*
X146014188Y-109050294D01*
X145995882Y-109006100D01*
X146014187Y-108961907D01*
X146362675Y-108613419D01*
X146399662Y-108595532D01*
X146416650Y-108593562D01*
X146420072Y-108592050D01*
X146433833Y-108587787D01*
X146452559Y-108584287D01*
X146499364Y-108594161D01*
X146514330Y-108608610D01*
X146521444Y-108618249D01*
X146521448Y-108618253D01*
X146631562Y-108699521D01*
X146696100Y-108722104D01*
X146696100Y-108279995D01*
X146832495Y-108143600D01*
X146867705Y-108143600D01*
X146996100Y-108271995D01*
G37*
%TD.AperFunction*%
%TD*%
%TA.AperFunction,Conductor*%
%TO.N,N$26*%
G36*
X148064011Y-107625406D02*
G01*
X148165294Y-107726689D01*
X148183600Y-107770883D01*
X148183600Y-108004600D01*
X148165294Y-108048794D01*
X148121100Y-108067100D01*
X147958100Y-108067100D01*
X147958100Y-108715600D01*
X147943809Y-108750100D01*
X147668391Y-108750100D01*
X147654100Y-108715600D01*
X147654100Y-108067100D01*
X147440711Y-108067100D01*
X147415292Y-108070049D01*
X147415291Y-108070049D01*
X147320586Y-108111866D01*
X147272763Y-108112970D01*
X147238166Y-108079936D01*
X147237062Y-108032113D01*
X147245055Y-108017576D01*
X147252020Y-108008138D01*
X147252021Y-108008136D01*
X147274604Y-107943600D01*
X146816495Y-107943600D01*
X146723100Y-107850205D01*
X146723100Y-107658304D01*
X146758600Y-107643600D01*
X147274603Y-107643600D01*
X147281817Y-107633433D01*
X147322321Y-107607983D01*
X147332790Y-107607100D01*
X148019817Y-107607100D01*
X148064011Y-107625406D01*
G37*
%TD.AperFunction*%
%TD*%
%TA.AperFunction,Conductor*%
%TO.N,GND*%
G36*
X158354738Y-84980693D02*
G01*
X158380458Y-85025242D01*
X158381600Y-85038300D01*
X158381600Y-124968900D01*
X158364007Y-125017238D01*
X158319458Y-125042958D01*
X158306400Y-125044100D01*
X138695800Y-125044100D01*
X138647462Y-125026507D01*
X138621742Y-124981958D01*
X138620600Y-124968900D01*
X138620600Y-120421000D01*
X139844882Y-120421000D01*
X139855227Y-120618387D01*
X139913936Y-120989062D01*
X139913937Y-120989064D01*
X140011076Y-121351592D01*
X140145566Y-121701954D01*
X140145567Y-121701955D01*
X140315953Y-122036356D01*
X140520358Y-122351112D01*
X140520364Y-122351121D01*
X140756540Y-122642772D01*
X140756557Y-122642791D01*
X141021908Y-122908142D01*
X141021927Y-122908159D01*
X141313578Y-123144335D01*
X141313587Y-123144341D01*
X141628343Y-123348746D01*
X141962744Y-123519132D01*
X141962745Y-123519133D01*
X142313107Y-123653623D01*
X142675635Y-123750762D01*
X142675637Y-123750763D01*
X143046313Y-123809472D01*
X143243699Y-123819816D01*
X143243700Y-123819815D01*
X143243700Y-121834586D01*
X143358231Y-121843600D01*
X143483969Y-121843600D01*
X143598500Y-121834586D01*
X143598500Y-123819816D01*
X143795886Y-123809472D01*
X144166562Y-123750763D01*
X144166564Y-123750762D01*
X144529092Y-123653623D01*
X144879454Y-123519133D01*
X144879455Y-123519132D01*
X145213856Y-123348746D01*
X145528612Y-123144341D01*
X145528621Y-123144335D01*
X145820272Y-122908159D01*
X145820291Y-122908142D01*
X146085642Y-122642791D01*
X146085659Y-122642772D01*
X146321835Y-122351121D01*
X146321841Y-122351112D01*
X146526246Y-122036356D01*
X146696632Y-121701955D01*
X146696633Y-121701954D01*
X146831123Y-121351592D01*
X146928262Y-120989064D01*
X146928263Y-120989062D01*
X146986972Y-120618387D01*
X146997317Y-120421000D01*
X150004882Y-120421000D01*
X150015227Y-120618387D01*
X150073936Y-120989062D01*
X150073937Y-120989064D01*
X150171076Y-121351592D01*
X150305566Y-121701954D01*
X150305567Y-121701955D01*
X150475953Y-122036356D01*
X150680358Y-122351112D01*
X150680364Y-122351121D01*
X150916540Y-122642772D01*
X150916557Y-122642791D01*
X151181908Y-122908142D01*
X151181927Y-122908159D01*
X151473578Y-123144335D01*
X151473587Y-123144341D01*
X151788343Y-123348746D01*
X152122744Y-123519132D01*
X152122745Y-123519133D01*
X152473107Y-123653623D01*
X152835635Y-123750762D01*
X152835637Y-123750763D01*
X153206313Y-123809472D01*
X153403699Y-123819816D01*
X153403700Y-123819815D01*
X153403700Y-121834586D01*
X153518231Y-121843600D01*
X153643969Y-121843600D01*
X153758500Y-121834586D01*
X153758500Y-123819816D01*
X153955886Y-123809472D01*
X154326562Y-123750763D01*
X154326564Y-123750762D01*
X154689092Y-123653623D01*
X155039454Y-123519133D01*
X155039455Y-123519132D01*
X155373856Y-123348746D01*
X155688612Y-123144341D01*
X155688621Y-123144335D01*
X155980272Y-122908159D01*
X155980291Y-122908142D01*
X156245642Y-122642791D01*
X156245659Y-122642772D01*
X156481835Y-122351121D01*
X156481841Y-122351112D01*
X156686246Y-122036356D01*
X156856632Y-121701955D01*
X156856633Y-121701954D01*
X156991123Y-121351592D01*
X157088262Y-120989064D01*
X157088263Y-120989062D01*
X157146972Y-120618387D01*
X157157317Y-120421000D01*
X155172086Y-120421000D01*
X155186048Y-120243600D01*
X155172086Y-120066200D01*
X157157317Y-120066200D01*
X157157317Y-120066199D01*
X157146972Y-119868812D01*
X157088263Y-119498137D01*
X157088262Y-119498135D01*
X156991123Y-119135607D01*
X156856633Y-118785245D01*
X156856632Y-118785244D01*
X156686246Y-118450843D01*
X156481841Y-118136087D01*
X156481835Y-118136078D01*
X156245659Y-117844427D01*
X156245642Y-117844408D01*
X155980291Y-117579057D01*
X155980272Y-117579040D01*
X155688621Y-117342864D01*
X155688612Y-117342858D01*
X155373856Y-117138453D01*
X155134345Y-117016416D01*
X155099263Y-116978795D01*
X155096571Y-116927426D01*
X155127528Y-116886344D01*
X155168485Y-116874212D01*
X155790142Y-116874212D01*
X155790142Y-115276100D01*
X155807735Y-115227762D01*
X155852284Y-115202042D01*
X155865342Y-115200900D01*
X155900770Y-115200900D01*
X155900780Y-115200899D01*
X155969737Y-115190851D01*
X156076119Y-115138844D01*
X156159844Y-115055119D01*
X156211851Y-114948737D01*
X156221899Y-114879780D01*
X156221900Y-114879770D01*
X156221900Y-114198000D01*
X155452442Y-114198000D01*
X155460047Y-114184828D01*
X155489864Y-114054193D01*
X155479851Y-113920572D01*
X155449485Y-113843200D01*
X156221900Y-113843200D01*
X156221900Y-113161429D01*
X156221899Y-113161419D01*
X156211851Y-113092462D01*
X156159844Y-112986080D01*
X156076119Y-112902355D01*
X155969736Y-112850348D01*
X155969737Y-112850348D01*
X155900780Y-112840300D01*
X155219000Y-112840300D01*
X155219000Y-113610154D01*
X155108598Y-113576100D01*
X155008288Y-113576100D01*
X154909101Y-113591050D01*
X154864200Y-113612673D01*
X154864200Y-112840300D01*
X154182419Y-112840300D01*
X154113462Y-112850348D01*
X154007080Y-112902355D01*
X153923355Y-112986080D01*
X153871348Y-113092462D01*
X153861300Y-113161419D01*
X153861300Y-113843200D01*
X154630758Y-113843200D01*
X154623153Y-113856372D01*
X154593336Y-113987007D01*
X154603349Y-114120628D01*
X154633715Y-114198000D01*
X153861300Y-114198000D01*
X153861300Y-114879780D01*
X153871348Y-114948737D01*
X153923355Y-115055119D01*
X154007082Y-115138846D01*
X154024337Y-115147281D01*
X154060037Y-115184316D01*
X154063578Y-115235634D01*
X154033304Y-115277222D01*
X153991310Y-115290040D01*
X153551890Y-115290040D01*
X153503552Y-115272447D01*
X153477832Y-115227898D01*
X153486765Y-115177240D01*
X153518863Y-115147281D01*
X153536117Y-115138846D01*
X153619844Y-115055119D01*
X153671851Y-114948737D01*
X153681899Y-114879780D01*
X153681900Y-114879770D01*
X153681900Y-114198000D01*
X152912442Y-114198000D01*
X152920047Y-114184828D01*
X152949864Y-114054193D01*
X152939851Y-113920572D01*
X152909485Y-113843200D01*
X153681900Y-113843200D01*
X153681900Y-113161429D01*
X153681899Y-113161419D01*
X153671851Y-113092462D01*
X153619844Y-112986080D01*
X153536119Y-112902355D01*
X153429736Y-112850348D01*
X153429737Y-112850348D01*
X153360780Y-112840300D01*
X152679000Y-112840300D01*
X152679000Y-113610154D01*
X152568598Y-113576100D01*
X152468288Y-113576100D01*
X152369101Y-113591050D01*
X152324200Y-113612673D01*
X152324200Y-112840300D01*
X151642430Y-112840300D01*
X151642415Y-112840301D01*
X151596941Y-112846926D01*
X151546572Y-112836485D01*
X151533510Y-112819940D01*
X151532926Y-112820525D01*
X151510901Y-112798500D01*
X150583500Y-112798500D01*
X150583500Y-113625900D01*
X151189770Y-113625900D01*
X151189780Y-113625899D01*
X151235257Y-113619273D01*
X151285627Y-113629713D01*
X151317501Y-113670087D01*
X151321300Y-113693687D01*
X151321300Y-113843200D01*
X152090758Y-113843200D01*
X152083153Y-113856372D01*
X152053336Y-113987007D01*
X152063349Y-114120628D01*
X152093715Y-114198000D01*
X151321300Y-114198000D01*
X151321300Y-114879780D01*
X151331348Y-114948737D01*
X151383355Y-115055119D01*
X151467082Y-115138846D01*
X151484337Y-115147281D01*
X151520037Y-115184316D01*
X151523578Y-115235634D01*
X151493304Y-115277222D01*
X151451310Y-115290040D01*
X151430198Y-115290040D01*
X151430198Y-116874212D01*
X151993715Y-116874212D01*
X152042053Y-116891805D01*
X152067773Y-116936354D01*
X152058840Y-116987012D01*
X152027855Y-117016416D01*
X151788343Y-117138453D01*
X151473587Y-117342858D01*
X151473578Y-117342864D01*
X151181927Y-117579040D01*
X151181908Y-117579057D01*
X150916557Y-117844408D01*
X150916540Y-117844427D01*
X150680364Y-118136078D01*
X150680358Y-118136087D01*
X150475953Y-118450843D01*
X150305567Y-118785244D01*
X150305566Y-118785245D01*
X150171076Y-119135607D01*
X150073937Y-119498135D01*
X150073936Y-119498137D01*
X150015227Y-119868812D01*
X150004882Y-120066199D01*
X150004883Y-120066200D01*
X151990114Y-120066200D01*
X151976152Y-120243600D01*
X151990114Y-120421000D01*
X150004882Y-120421000D01*
X146997317Y-120421000D01*
X145012086Y-120421000D01*
X145026048Y-120243600D01*
X145012086Y-120066200D01*
X146997317Y-120066200D01*
X146997317Y-120066199D01*
X146986972Y-119868812D01*
X146928263Y-119498137D01*
X146928262Y-119498135D01*
X146831123Y-119135607D01*
X146696633Y-118785245D01*
X146696632Y-118785244D01*
X146526246Y-118450843D01*
X146321841Y-118136087D01*
X146321835Y-118136078D01*
X146085659Y-117844427D01*
X146085642Y-117844408D01*
X145820291Y-117579057D01*
X145820272Y-117579040D01*
X145528621Y-117342864D01*
X145528612Y-117342858D01*
X145213856Y-117138453D01*
X144879455Y-116968067D01*
X144879454Y-116968066D01*
X144529092Y-116833576D01*
X144166564Y-116736437D01*
X144166562Y-116736436D01*
X143795887Y-116677727D01*
X143598500Y-116667382D01*
X143598500Y-118652613D01*
X143483969Y-118643600D01*
X143358231Y-118643600D01*
X143243700Y-118652613D01*
X143243700Y-116667383D01*
X143243699Y-116667382D01*
X143046312Y-116677727D01*
X142675637Y-116736436D01*
X142675635Y-116736437D01*
X142313107Y-116833576D01*
X141962745Y-116968066D01*
X141962744Y-116968067D01*
X141628343Y-117138453D01*
X141313587Y-117342858D01*
X141313578Y-117342864D01*
X141021927Y-117579040D01*
X141021908Y-117579057D01*
X140756557Y-117844408D01*
X140756540Y-117844427D01*
X140520364Y-118136078D01*
X140520358Y-118136087D01*
X140315953Y-118450843D01*
X140145567Y-118785244D01*
X140145566Y-118785245D01*
X140011076Y-119135607D01*
X139913937Y-119498135D01*
X139913936Y-119498137D01*
X139855227Y-119868812D01*
X139844882Y-120066199D01*
X139844883Y-120066200D01*
X141830114Y-120066200D01*
X141816152Y-120243600D01*
X141830114Y-120421000D01*
X139844882Y-120421000D01*
X138620600Y-120421000D01*
X138620600Y-113893600D01*
X140002701Y-113893600D01*
X140021813Y-114038772D01*
X140077846Y-114174049D01*
X140077847Y-114174050D01*
X140166985Y-114290215D01*
X140283150Y-114379353D01*
X140418429Y-114435387D01*
X140563600Y-114454499D01*
X140708771Y-114435387D01*
X140844050Y-114379353D01*
X140913322Y-114326197D01*
X140962379Y-114310730D01*
X141009904Y-114330414D01*
X141033657Y-114376042D01*
X141034300Y-114385858D01*
X141034300Y-114986200D01*
X141803758Y-114986200D01*
X141796153Y-114999372D01*
X141766336Y-115130007D01*
X141776349Y-115263628D01*
X141806715Y-115341000D01*
X141034300Y-115341000D01*
X141034300Y-116022780D01*
X141044348Y-116091737D01*
X141096355Y-116198119D01*
X141180080Y-116281844D01*
X141286463Y-116333851D01*
X141286462Y-116333851D01*
X141355419Y-116343899D01*
X141355430Y-116343900D01*
X142037200Y-116343900D01*
X142037200Y-115574045D01*
X142147602Y-115608100D01*
X142247912Y-115608100D01*
X142347099Y-115593150D01*
X142392000Y-115571526D01*
X142392000Y-116343900D01*
X143073770Y-116343900D01*
X143073780Y-116343899D01*
X143142737Y-116333851D01*
X143249119Y-116281844D01*
X143332844Y-116198119D01*
X143384851Y-116091737D01*
X143394899Y-116022780D01*
X143394900Y-116022770D01*
X143394900Y-115341000D01*
X142625442Y-115341000D01*
X142633047Y-115327828D01*
X142662864Y-115197193D01*
X142652851Y-115063572D01*
X142622485Y-114986200D01*
X143394900Y-114986200D01*
X143394900Y-114444786D01*
X143412493Y-114396448D01*
X143457042Y-114370728D01*
X143507700Y-114379661D01*
X143523274Y-114391612D01*
X143563220Y-114431558D01*
X143570076Y-114441083D01*
X143570666Y-114440638D01*
X143574865Y-114446198D01*
X143574866Y-114446199D01*
X143583969Y-114454498D01*
X143607477Y-114475928D01*
X143609968Y-114478306D01*
X143622520Y-114490858D01*
X143623567Y-114491575D01*
X143631742Y-114498049D01*
X143649552Y-114514285D01*
X143652199Y-114516698D01*
X143662575Y-114520717D01*
X143677905Y-114528797D01*
X143687084Y-114535086D01*
X143701715Y-114538526D01*
X143744741Y-114566716D01*
X143759701Y-114611729D01*
X143759701Y-115030157D01*
X143768572Y-115074759D01*
X143802364Y-115125332D01*
X143802365Y-115125332D01*
X143802366Y-115125334D01*
X143852942Y-115159128D01*
X143897543Y-115168000D01*
X144927656Y-115167999D01*
X144972258Y-115159128D01*
X145022834Y-115125334D01*
X145056628Y-115074758D01*
X145065500Y-115030157D01*
X145065499Y-113932413D01*
X145083092Y-113884076D01*
X145104516Y-113868371D01*
X145104098Y-113867745D01*
X145138090Y-113845031D01*
X145188055Y-113832803D01*
X145233044Y-113854382D01*
X145437674Y-114059012D01*
X145459414Y-114105632D01*
X145459700Y-114112186D01*
X145459700Y-115030155D01*
X145459701Y-115030157D01*
X145468572Y-115074759D01*
X145502364Y-115125332D01*
X145502365Y-115125332D01*
X145502366Y-115125334D01*
X145552942Y-115159128D01*
X145597543Y-115168000D01*
X146627656Y-115167999D01*
X146672258Y-115159128D01*
X146722834Y-115125334D01*
X146756628Y-115074758D01*
X146765500Y-115030157D01*
X146765499Y-113900044D01*
X146756628Y-113855442D01*
X146739517Y-113829834D01*
X146722835Y-113804867D01*
X146722401Y-113804577D01*
X146672258Y-113771072D01*
X146672256Y-113771071D01*
X146627657Y-113762200D01*
X145963686Y-113762200D01*
X145915348Y-113744607D01*
X145910512Y-113740174D01*
X145691526Y-113521188D01*
X145669786Y-113474568D01*
X145669500Y-113468014D01*
X145669500Y-113307044D01*
X145672248Y-113286901D01*
X145673287Y-113283163D01*
X145669864Y-113248498D01*
X145669500Y-113241108D01*
X145669500Y-113002600D01*
X145687093Y-112954262D01*
X145731642Y-112928542D01*
X145744700Y-112927400D01*
X146291700Y-112927400D01*
X146291700Y-111820400D01*
X146309293Y-111772062D01*
X146353842Y-111746342D01*
X146366900Y-111745200D01*
X146571300Y-111745200D01*
X146619638Y-111762793D01*
X146645358Y-111807342D01*
X146646500Y-111820400D01*
X146646500Y-112927400D01*
X147252770Y-112927400D01*
X147252779Y-112927399D01*
X147310257Y-112919024D01*
X147360626Y-112929464D01*
X147392501Y-112969838D01*
X147396300Y-112993438D01*
X147396300Y-113304780D01*
X147406348Y-113373737D01*
X147458355Y-113480119D01*
X147542080Y-113563844D01*
X147648463Y-113615851D01*
X147648462Y-113615851D01*
X147717419Y-113625899D01*
X147717430Y-113625900D01*
X148323700Y-113625900D01*
X148323700Y-112798500D01*
X148678500Y-112798500D01*
X148678500Y-113625900D01*
X149284770Y-113625900D01*
X149284780Y-113625899D01*
X149353735Y-113615852D01*
X149420571Y-113583177D01*
X149471724Y-113577753D01*
X149486629Y-113583177D01*
X149553464Y-113615852D01*
X149622419Y-113625899D01*
X149622430Y-113625900D01*
X150228700Y-113625900D01*
X150228700Y-112798500D01*
X148678500Y-112798500D01*
X148323700Y-112798500D01*
X148323700Y-112518900D01*
X148341293Y-112470562D01*
X148385842Y-112444842D01*
X148398900Y-112443700D01*
X151516871Y-112443700D01*
X151552300Y-112427178D01*
X151600634Y-112439565D01*
X151616442Y-112450128D01*
X151661043Y-112459000D01*
X153342156Y-112458999D01*
X153386758Y-112450128D01*
X153437334Y-112416334D01*
X153471128Y-112365758D01*
X153478434Y-112329028D01*
X153505120Y-112285052D01*
X153552189Y-112268500D01*
X153991012Y-112268500D01*
X154039350Y-112286093D01*
X154064767Y-112329030D01*
X154072072Y-112365759D01*
X154105864Y-112416332D01*
X154105865Y-112416332D01*
X154105866Y-112416334D01*
X154156442Y-112450128D01*
X154201043Y-112459000D01*
X155882156Y-112458999D01*
X155926758Y-112450128D01*
X155977334Y-112416334D01*
X156011128Y-112365758D01*
X156020000Y-112321157D01*
X156019999Y-110640044D01*
X156011128Y-110595442D01*
X155977334Y-110544866D01*
X155926758Y-110511072D01*
X155926756Y-110511071D01*
X155882157Y-110502200D01*
X154201044Y-110502200D01*
X154201042Y-110502201D01*
X154156440Y-110511072D01*
X154105867Y-110544864D01*
X154072072Y-110595442D01*
X154072071Y-110595444D01*
X154064766Y-110632171D01*
X154038080Y-110676148D01*
X153991011Y-110692700D01*
X153552188Y-110692700D01*
X153503850Y-110675107D01*
X153478433Y-110632170D01*
X153471128Y-110595444D01*
X153471128Y-110595442D01*
X153437334Y-110544866D01*
X153386758Y-110511072D01*
X153386756Y-110511071D01*
X153342157Y-110502200D01*
X152605107Y-110502200D01*
X152556769Y-110484607D01*
X152551943Y-110480184D01*
X152311603Y-110239844D01*
X152289864Y-110193224D01*
X152303178Y-110143537D01*
X152311604Y-110133495D01*
X152324200Y-110120899D01*
X152324200Y-109351045D01*
X152434602Y-109385100D01*
X152534912Y-109385100D01*
X152634099Y-109370150D01*
X152679000Y-109348526D01*
X152679000Y-110120900D01*
X153360770Y-110120900D01*
X153360780Y-110120899D01*
X153429737Y-110110851D01*
X153536119Y-110058844D01*
X153619844Y-109975119D01*
X153671851Y-109868737D01*
X153681899Y-109799780D01*
X153861300Y-109799780D01*
X153871348Y-109868737D01*
X153923355Y-109975119D01*
X154007080Y-110058844D01*
X154113463Y-110110851D01*
X154113462Y-110110851D01*
X154182419Y-110120899D01*
X154182430Y-110120900D01*
X154864200Y-110120900D01*
X154864200Y-109351045D01*
X154974602Y-109385100D01*
X155074912Y-109385100D01*
X155174099Y-109370150D01*
X155219000Y-109348526D01*
X155219000Y-110120900D01*
X155900770Y-110120900D01*
X155900780Y-110120899D01*
X155969737Y-110110851D01*
X156076119Y-110058844D01*
X156159844Y-109975119D01*
X156211851Y-109868737D01*
X156221899Y-109799780D01*
X156221900Y-109799770D01*
X156221900Y-109118000D01*
X155452442Y-109118000D01*
X155460047Y-109104828D01*
X155489864Y-108974193D01*
X155479851Y-108840572D01*
X155449485Y-108763200D01*
X156221900Y-108763200D01*
X156221900Y-108081429D01*
X156221899Y-108081419D01*
X156211851Y-108012462D01*
X156159844Y-107906080D01*
X156076119Y-107822355D01*
X155969736Y-107770348D01*
X155969737Y-107770348D01*
X155900780Y-107760300D01*
X155219000Y-107760300D01*
X155219000Y-108530154D01*
X155108598Y-108496100D01*
X155008288Y-108496100D01*
X154909101Y-108511050D01*
X154864200Y-108532673D01*
X154864200Y-107760300D01*
X154182419Y-107760300D01*
X154113462Y-107770348D01*
X154007080Y-107822355D01*
X153923355Y-107906080D01*
X153871348Y-108012462D01*
X153861300Y-108081419D01*
X153861300Y-108763200D01*
X154630758Y-108763200D01*
X154623153Y-108776372D01*
X154593336Y-108907007D01*
X154603349Y-109040628D01*
X154633715Y-109118000D01*
X153861300Y-109118000D01*
X153861300Y-109799780D01*
X153681899Y-109799780D01*
X153681900Y-109799770D01*
X153681900Y-109118000D01*
X152912442Y-109118000D01*
X152920047Y-109104828D01*
X152949864Y-108974193D01*
X152939851Y-108840572D01*
X152909485Y-108763200D01*
X153681900Y-108763200D01*
X153681900Y-108081429D01*
X153681899Y-108081419D01*
X153671851Y-108012462D01*
X153619844Y-107906080D01*
X153536119Y-107822355D01*
X153429736Y-107770348D01*
X153429737Y-107770348D01*
X153360780Y-107760300D01*
X152679000Y-107760300D01*
X152679000Y-108530154D01*
X152568598Y-108496100D01*
X152468288Y-108496100D01*
X152369101Y-108511050D01*
X152324200Y-108532673D01*
X152324200Y-107760300D01*
X151642419Y-107760300D01*
X151573462Y-107770348D01*
X151467080Y-107822355D01*
X151383355Y-107906080D01*
X151331348Y-108012462D01*
X151321300Y-108081419D01*
X151321300Y-108763200D01*
X152090758Y-108763200D01*
X152083153Y-108776372D01*
X152053336Y-108907007D01*
X152063349Y-109040628D01*
X152093715Y-109118000D01*
X151321300Y-109118000D01*
X151321300Y-109799780D01*
X151328204Y-109847157D01*
X151317764Y-109897526D01*
X151277390Y-109929401D01*
X151253790Y-109933200D01*
X151245511Y-109933200D01*
X151216733Y-109927475D01*
X151215761Y-109927072D01*
X151171158Y-109918200D01*
X149641044Y-109918200D01*
X149641042Y-109918201D01*
X149596442Y-109927072D01*
X149595465Y-109927477D01*
X149566690Y-109933200D01*
X149340511Y-109933200D01*
X149311733Y-109927475D01*
X149310761Y-109927072D01*
X149266159Y-109918200D01*
X149266157Y-109918200D01*
X148454930Y-109918200D01*
X148424067Y-109911575D01*
X148381666Y-109892492D01*
X148381664Y-109892491D01*
X148374865Y-109891245D01*
X148368520Y-109890082D01*
X148355415Y-109886429D01*
X148342925Y-109881692D01*
X148342924Y-109881691D01*
X148342923Y-109881691D01*
X148285339Y-109874698D01*
X148280851Y-109874015D01*
X148223799Y-109863560D01*
X148223797Y-109863560D01*
X148181728Y-109866104D01*
X148165888Y-109867063D01*
X148161348Y-109867200D01*
X147599502Y-109867200D01*
X147551164Y-109849607D01*
X147546328Y-109845174D01*
X147493527Y-109792373D01*
X147471787Y-109745753D01*
X147485101Y-109696066D01*
X147527238Y-109666561D01*
X147546693Y-109663999D01*
X150801156Y-109663999D01*
X150845758Y-109655128D01*
X150896334Y-109621334D01*
X150930128Y-109570758D01*
X150939000Y-109526157D01*
X150938999Y-108896161D01*
X150939000Y-108896157D01*
X150938999Y-108356044D01*
X150930128Y-108311442D01*
X150903770Y-108271995D01*
X150896335Y-108260867D01*
X150882318Y-108251501D01*
X150845758Y-108227072D01*
X150845756Y-108227071D01*
X150801157Y-108218200D01*
X150131044Y-108218200D01*
X150131042Y-108218201D01*
X150086440Y-108227072D01*
X150035867Y-108260864D01*
X150002072Y-108311442D01*
X150002071Y-108311443D01*
X149993200Y-108356042D01*
X149993200Y-108643000D01*
X149975607Y-108691338D01*
X149931058Y-108717058D01*
X149918000Y-108718200D01*
X148354199Y-108718200D01*
X148305861Y-108700607D01*
X148280141Y-108656058D01*
X148278999Y-108643000D01*
X148278999Y-108356044D01*
X148278999Y-108356043D01*
X148270128Y-108311442D01*
X148245671Y-108274839D01*
X148233444Y-108224874D01*
X148256195Y-108178739D01*
X148258619Y-108176518D01*
X148261413Y-108174066D01*
X148261417Y-108174065D01*
X148311174Y-108109220D01*
X148329480Y-108065026D01*
X148341500Y-108004600D01*
X148341500Y-107770883D01*
X148337022Y-107748374D01*
X148331410Y-107720161D01*
X148329480Y-107710457D01*
X148311174Y-107666263D01*
X148276946Y-107615037D01*
X148276945Y-107615036D01*
X148276943Y-107615033D01*
X148232963Y-107571053D01*
X148211223Y-107524433D01*
X148224537Y-107474746D01*
X148232966Y-107464701D01*
X148236330Y-107461336D01*
X148236334Y-107461334D01*
X148270128Y-107410758D01*
X148279000Y-107366157D01*
X148278999Y-107079198D01*
X148296592Y-107030862D01*
X148341140Y-107005142D01*
X148354199Y-107003999D01*
X149918000Y-107003999D01*
X149966338Y-107021592D01*
X149992058Y-107066141D01*
X149993200Y-107079199D01*
X149993200Y-107366155D01*
X149993201Y-107366157D01*
X150002072Y-107410759D01*
X150035864Y-107461332D01*
X150035865Y-107461332D01*
X150035866Y-107461334D01*
X150086442Y-107495128D01*
X150131043Y-107504000D01*
X150801156Y-107503999D01*
X150845758Y-107495128D01*
X150896334Y-107461334D01*
X150930128Y-107410758D01*
X150939000Y-107366157D01*
X150938999Y-106866161D01*
X150939000Y-106866157D01*
X150938999Y-106196044D01*
X150930128Y-106151442D01*
X150908609Y-106119237D01*
X150896335Y-106100867D01*
X150896334Y-106100866D01*
X150845758Y-106067072D01*
X150845756Y-106067071D01*
X150801157Y-106058200D01*
X147703172Y-106058200D01*
X147654834Y-106040607D01*
X147629114Y-105996058D01*
X147628615Y-105992816D01*
X147625789Y-105971351D01*
X147620697Y-105932673D01*
X147605289Y-105895477D01*
X147603046Y-105844087D01*
X147634361Y-105803277D01*
X147674766Y-105791500D01*
X148258971Y-105791500D01*
X148258994Y-105791499D01*
X149468656Y-105791499D01*
X149513258Y-105782628D01*
X149563834Y-105748834D01*
X149597628Y-105698258D01*
X149606500Y-105653657D01*
X149606500Y-104546000D01*
X151956300Y-104546000D01*
X151956300Y-105672280D01*
X151966348Y-105741237D01*
X152018355Y-105847619D01*
X152102080Y-105931344D01*
X152208463Y-105983351D01*
X152208462Y-105983351D01*
X152277419Y-105993399D01*
X152277430Y-105993400D01*
X152768700Y-105993400D01*
X152768700Y-104546000D01*
X153123500Y-104546000D01*
X153123500Y-105993400D01*
X153614770Y-105993400D01*
X153614780Y-105993399D01*
X153683737Y-105983351D01*
X153790119Y-105931344D01*
X153873844Y-105847619D01*
X153925851Y-105741237D01*
X153935899Y-105672280D01*
X153935900Y-105672270D01*
X153935900Y-104546000D01*
X153123500Y-104546000D01*
X152768700Y-104546000D01*
X151956300Y-104546000D01*
X149606500Y-104546000D01*
X149606500Y-104370139D01*
X149606500Y-104279825D01*
X149606500Y-104191200D01*
X151956300Y-104191200D01*
X152768700Y-104191200D01*
X152768700Y-102743800D01*
X153123500Y-102743800D01*
X153123500Y-104191200D01*
X153935900Y-104191200D01*
X153935900Y-103064929D01*
X153935899Y-103064919D01*
X153925851Y-102995962D01*
X153873844Y-102889580D01*
X153790119Y-102805855D01*
X153683736Y-102753848D01*
X153683737Y-102753848D01*
X153614780Y-102743800D01*
X153123500Y-102743800D01*
X152768700Y-102743800D01*
X152277419Y-102743800D01*
X152208462Y-102753848D01*
X152102080Y-102805855D01*
X152018355Y-102889580D01*
X151966348Y-102995962D01*
X151956300Y-103064919D01*
X151956300Y-104191200D01*
X149606500Y-104191200D01*
X149606500Y-103501106D01*
X149624093Y-103452768D01*
X149628515Y-103447943D01*
X150652857Y-102423600D01*
X155680244Y-102423600D01*
X155699231Y-102640630D01*
X155755619Y-102851075D01*
X155755621Y-102851079D01*
X155847689Y-103048522D01*
X155847692Y-103048527D01*
X155847693Y-103048528D01*
X155883283Y-103099356D01*
X155972657Y-103226995D01*
X156126704Y-103381042D01*
X156126707Y-103381044D01*
X156126708Y-103381045D01*
X156305172Y-103506007D01*
X156305174Y-103506007D01*
X156305177Y-103506010D01*
X156469491Y-103582629D01*
X156502624Y-103598080D01*
X156713065Y-103654468D01*
X156930100Y-103673456D01*
X157147135Y-103654468D01*
X157357576Y-103598080D01*
X157505328Y-103529182D01*
X157555022Y-103506010D01*
X157555022Y-103506009D01*
X157555028Y-103506007D01*
X157733492Y-103381045D01*
X157887545Y-103226992D01*
X158012507Y-103048528D01*
X158104580Y-102851076D01*
X158160968Y-102640635D01*
X158179956Y-102423600D01*
X158160968Y-102206565D01*
X158104580Y-101996124D01*
X158081250Y-101946092D01*
X158012510Y-101798677D01*
X158012507Y-101798674D01*
X158012507Y-101798672D01*
X157887545Y-101620208D01*
X157887544Y-101620207D01*
X157887542Y-101620204D01*
X157733495Y-101466157D01*
X157555022Y-101341189D01*
X157357579Y-101249121D01*
X157357575Y-101249119D01*
X157213840Y-101210605D01*
X157147135Y-101192732D01*
X157147133Y-101192731D01*
X157147130Y-101192731D01*
X156930100Y-101173744D01*
X156713069Y-101192731D01*
X156502624Y-101249119D01*
X156502620Y-101249121D01*
X156305177Y-101341189D01*
X156126704Y-101466157D01*
X155972657Y-101620204D01*
X155847689Y-101798677D01*
X155755621Y-101996120D01*
X155755619Y-101996124D01*
X155699231Y-102206569D01*
X155680244Y-102423600D01*
X150652857Y-102423600D01*
X150712933Y-102363524D01*
X150759553Y-102341785D01*
X150766107Y-102341499D01*
X152438656Y-102341499D01*
X152483258Y-102332628D01*
X152533834Y-102298834D01*
X152567628Y-102248258D01*
X152576500Y-102203657D01*
X152576500Y-102101700D01*
X152594093Y-102053362D01*
X152638642Y-102027642D01*
X152651700Y-102026500D01*
X153455501Y-102026500D01*
X153503839Y-102044093D01*
X153529559Y-102088642D01*
X153530701Y-102101700D01*
X153530701Y-102253657D01*
X153539572Y-102298259D01*
X153573364Y-102348832D01*
X153573365Y-102348832D01*
X153573366Y-102348834D01*
X153623942Y-102382628D01*
X153668543Y-102391500D01*
X155398656Y-102391499D01*
X155443258Y-102382628D01*
X155493834Y-102348834D01*
X155527628Y-102298258D01*
X155536500Y-102253657D01*
X155536499Y-100423544D01*
X155527628Y-100378942D01*
X155509010Y-100351079D01*
X155493835Y-100328367D01*
X155493831Y-100328364D01*
X155443258Y-100294572D01*
X155443256Y-100294571D01*
X155398657Y-100285700D01*
X153668544Y-100285700D01*
X153668542Y-100285701D01*
X153623940Y-100294572D01*
X153573367Y-100328364D01*
X153539572Y-100378942D01*
X153537338Y-100390173D01*
X153510651Y-100434149D01*
X153463583Y-100450700D01*
X152651699Y-100450700D01*
X152603361Y-100433107D01*
X152577641Y-100388558D01*
X152576499Y-100375500D01*
X152576499Y-100273544D01*
X152576499Y-100273543D01*
X152567628Y-100228942D01*
X152557707Y-100214095D01*
X152533835Y-100178367D01*
X152533831Y-100178364D01*
X152483258Y-100144572D01*
X152483256Y-100144571D01*
X152438657Y-100135700D01*
X149008544Y-100135700D01*
X149008542Y-100135701D01*
X148963940Y-100144572D01*
X148913367Y-100178364D01*
X148879572Y-100228942D01*
X148879571Y-100228943D01*
X148870700Y-100273542D01*
X148870700Y-101946092D01*
X148853107Y-101994430D01*
X148848674Y-101999266D01*
X148230185Y-102617756D01*
X148230180Y-102617759D01*
X148230181Y-102617760D01*
X148198701Y-102649240D01*
X148198695Y-102649247D01*
X148177253Y-102683371D01*
X148172376Y-102690245D01*
X148147246Y-102721758D01*
X148147242Y-102721764D01*
X148129757Y-102758070D01*
X148125681Y-102765446D01*
X148104236Y-102799576D01*
X148104234Y-102799582D01*
X148090920Y-102837629D01*
X148087694Y-102845417D01*
X148070210Y-102881722D01*
X148070206Y-102881736D01*
X148061239Y-102921022D01*
X148058905Y-102929125D01*
X148045594Y-102967163D01*
X148041079Y-103007225D01*
X148039667Y-103015533D01*
X148030701Y-103054819D01*
X148030701Y-103080423D01*
X148030700Y-103080436D01*
X148030700Y-104011093D01*
X148013107Y-104059431D01*
X148008674Y-104064267D01*
X147879267Y-104193674D01*
X147832647Y-104215414D01*
X147826093Y-104215700D01*
X147789199Y-104215700D01*
X147740861Y-104198107D01*
X147715141Y-104153558D01*
X147713999Y-104140500D01*
X147713999Y-104111544D01*
X147713999Y-104111543D01*
X147705128Y-104066942D01*
X147700109Y-104059431D01*
X147671335Y-104016367D01*
X147663442Y-104011093D01*
X147620758Y-103982572D01*
X147620756Y-103982571D01*
X147576157Y-103973700D01*
X147294100Y-103973700D01*
X147245762Y-103956107D01*
X147220042Y-103911558D01*
X147218900Y-103898500D01*
X147218900Y-103160668D01*
X147220885Y-103148498D01*
X147220248Y-103148409D01*
X147221210Y-103141512D01*
X147218980Y-103093280D01*
X147218900Y-103089807D01*
X147218900Y-103070315D01*
X147218900Y-103070311D01*
X147218554Y-103068462D01*
X147217354Y-103058127D01*
X147215938Y-103027491D01*
X147210718Y-103015669D01*
X147205590Y-102999113D01*
X147203215Y-102986403D01*
X147203214Y-102986401D01*
X147187071Y-102960330D01*
X147182217Y-102951121D01*
X147169834Y-102923075D01*
X147160691Y-102913932D01*
X147149933Y-102900351D01*
X147143127Y-102889358D01*
X147118656Y-102870878D01*
X147110801Y-102864042D01*
X146835371Y-102588612D01*
X146828169Y-102578601D01*
X146827655Y-102578990D01*
X146823455Y-102573428D01*
X146787769Y-102540897D01*
X146785276Y-102538517D01*
X146771476Y-102524717D01*
X146771471Y-102524714D01*
X146771468Y-102524711D01*
X146769925Y-102523654D01*
X146761771Y-102517196D01*
X146739104Y-102496533D01*
X146739103Y-102496532D01*
X146732846Y-102494108D01*
X146727046Y-102491861D01*
X146711723Y-102483785D01*
X146701053Y-102476476D01*
X146701051Y-102476475D01*
X146701049Y-102476474D01*
X146671210Y-102469456D01*
X146661264Y-102466377D01*
X146632670Y-102455300D01*
X146619746Y-102455300D01*
X146602530Y-102453303D01*
X146589944Y-102450343D01*
X146589942Y-102450343D01*
X146559578Y-102454579D01*
X146549188Y-102455300D01*
X143133199Y-102455300D01*
X143084861Y-102437707D01*
X143059141Y-102393158D01*
X143057999Y-102380100D01*
X143057999Y-102045544D01*
X143057999Y-102045543D01*
X143049128Y-102000942D01*
X143015334Y-101950366D01*
X142964758Y-101916572D01*
X142964756Y-101916571D01*
X142920157Y-101907700D01*
X141890044Y-101907700D01*
X141890042Y-101907701D01*
X141845440Y-101916572D01*
X141794867Y-101950364D01*
X141761072Y-102000942D01*
X141761071Y-102000943D01*
X141752200Y-102045542D01*
X141752200Y-103475655D01*
X141752201Y-103475657D01*
X141761072Y-103520259D01*
X141794864Y-103570832D01*
X141794865Y-103570832D01*
X141794866Y-103570834D01*
X141845442Y-103604628D01*
X141890043Y-103613500D01*
X142920156Y-103613499D01*
X142964758Y-103604628D01*
X143015334Y-103570834D01*
X143049128Y-103520258D01*
X143058000Y-103475657D01*
X143058000Y-103141100D01*
X143075593Y-103092762D01*
X143120142Y-103067042D01*
X143133200Y-103065900D01*
X146417993Y-103065900D01*
X146466331Y-103083493D01*
X146471167Y-103087926D01*
X146586274Y-103203033D01*
X146608014Y-103249653D01*
X146608300Y-103256207D01*
X146608300Y-103898500D01*
X146590707Y-103946838D01*
X146546158Y-103972558D01*
X146533100Y-103973700D01*
X146246044Y-103973700D01*
X146246042Y-103973701D01*
X146201440Y-103982572D01*
X146150866Y-104016364D01*
X146137629Y-104036176D01*
X146096145Y-104066592D01*
X146044816Y-104063227D01*
X146007658Y-104027655D01*
X146007544Y-104027424D01*
X145953844Y-103917580D01*
X145870119Y-103833855D01*
X145763736Y-103781848D01*
X145763737Y-103781848D01*
X145694780Y-103771800D01*
X145188500Y-103771800D01*
X145188500Y-104978800D01*
X145170907Y-105027138D01*
X145126358Y-105052858D01*
X145113300Y-105054000D01*
X144252900Y-105054000D01*
X144252900Y-105062800D01*
X144235307Y-105111138D01*
X144190758Y-105136858D01*
X144177700Y-105138000D01*
X143532500Y-105138000D01*
X143532500Y-106015400D01*
X143888770Y-106015400D01*
X143888780Y-106015399D01*
X143957737Y-106005351D01*
X144064117Y-105953345D01*
X144077869Y-105939593D01*
X144124489Y-105917852D01*
X144164073Y-105925207D01*
X144258463Y-105971351D01*
X144327419Y-105981399D01*
X144327430Y-105981400D01*
X144859670Y-105981400D01*
X144908008Y-105998993D01*
X144933728Y-106043542D01*
X144929146Y-106085375D01*
X144922730Y-106100866D01*
X144911313Y-106128427D01*
X144892201Y-106273600D01*
X144900271Y-106334899D01*
X144889137Y-106385119D01*
X144848327Y-106416434D01*
X144815899Y-106419271D01*
X144754600Y-106411201D01*
X144609427Y-106430313D01*
X144474151Y-106486346D01*
X144474148Y-106486348D01*
X144357984Y-106575484D01*
X144268848Y-106691648D01*
X144268846Y-106691651D01*
X144212813Y-106826927D01*
X144193701Y-106972100D01*
X144212813Y-107117272D01*
X144268846Y-107252549D01*
X144268847Y-107252550D01*
X144357985Y-107368715D01*
X144474150Y-107457853D01*
X144609429Y-107513887D01*
X144754600Y-107532999D01*
X144899771Y-107513887D01*
X145035050Y-107457853D01*
X145151215Y-107368715D01*
X145218200Y-107281418D01*
X145261584Y-107253782D01*
X145277859Y-107252000D01*
X145433014Y-107252000D01*
X145481352Y-107269593D01*
X145486188Y-107274026D01*
X145662720Y-107450558D01*
X145669576Y-107460083D01*
X145670166Y-107459638D01*
X145674365Y-107465198D01*
X145674366Y-107465199D01*
X145684838Y-107474746D01*
X145706977Y-107494928D01*
X145709468Y-107497306D01*
X145716160Y-107503998D01*
X145722020Y-107509858D01*
X145723067Y-107510575D01*
X145731242Y-107517049D01*
X145739342Y-107524433D01*
X145751699Y-107535698D01*
X145762075Y-107539717D01*
X145777405Y-107547797D01*
X145786584Y-107554086D01*
X145804727Y-107558352D01*
X145847752Y-107586544D01*
X145862590Y-107635797D01*
X145861492Y-107641029D01*
X145863278Y-107643600D01*
X146420900Y-107643600D01*
X146469238Y-107661193D01*
X146494958Y-107705742D01*
X146496100Y-107718800D01*
X146496100Y-107868400D01*
X146478507Y-107916738D01*
X146433958Y-107942458D01*
X146420900Y-107943600D01*
X145863277Y-107943600D01*
X145853203Y-107958109D01*
X145811183Y-107987780D01*
X145794910Y-107990340D01*
X145774993Y-107991261D01*
X145774991Y-107991262D01*
X145763163Y-107996484D01*
X145746614Y-108001608D01*
X145733904Y-108003984D01*
X145733902Y-108003985D01*
X145707834Y-108020126D01*
X145698623Y-108024981D01*
X145670574Y-108037366D01*
X145661432Y-108046508D01*
X145647850Y-108057266D01*
X145636859Y-108064072D01*
X145636858Y-108064072D01*
X145636858Y-108064073D01*
X145629477Y-108073845D01*
X145618378Y-108088543D01*
X145611543Y-108096396D01*
X145533455Y-108174484D01*
X145486835Y-108196224D01*
X145437148Y-108182910D01*
X145407643Y-108140773D01*
X145406013Y-108131089D01*
X145405793Y-108131122D01*
X145395351Y-108059462D01*
X145343344Y-107953080D01*
X145259619Y-107869355D01*
X145153236Y-107817348D01*
X145153237Y-107817348D01*
X145084280Y-107807300D01*
X144678000Y-107807300D01*
X144678000Y-108764300D01*
X144660407Y-108812638D01*
X144615858Y-108838358D01*
X144602800Y-108839500D01*
X143595800Y-108839500D01*
X143595800Y-109195780D01*
X143605848Y-109264737D01*
X143657855Y-109371119D01*
X143741580Y-109454844D01*
X143847963Y-109506851D01*
X143847962Y-109506851D01*
X143916919Y-109516899D01*
X143916930Y-109516900D01*
X144235914Y-109516900D01*
X144284252Y-109534493D01*
X144309972Y-109579042D01*
X144301039Y-109629700D01*
X144289088Y-109645274D01*
X144284343Y-109650018D01*
X144284337Y-109650025D01*
X144283611Y-109651086D01*
X144277153Y-109659238D01*
X144253979Y-109684660D01*
X144208413Y-109708531D01*
X144198404Y-109709200D01*
X143935544Y-109709200D01*
X143935542Y-109709201D01*
X143890940Y-109718072D01*
X143840367Y-109751864D01*
X143806572Y-109802442D01*
X143806571Y-109802443D01*
X143797700Y-109847042D01*
X143797700Y-110877155D01*
X143797701Y-110877160D01*
X143807451Y-110926181D01*
X143807451Y-110955521D01*
X143797700Y-111004541D01*
X143797700Y-111566013D01*
X143780107Y-111614351D01*
X143775684Y-111619176D01*
X143611819Y-111783042D01*
X143454638Y-111940223D01*
X143445115Y-111947079D01*
X143445560Y-111947668D01*
X143440001Y-111951865D01*
X143410269Y-111984479D01*
X143407875Y-111986986D01*
X143395340Y-111999522D01*
X143395337Y-111999525D01*
X143394611Y-112000586D01*
X143388153Y-112008738D01*
X143369504Y-112029196D01*
X143369500Y-112029202D01*
X143365479Y-112039580D01*
X143357402Y-112054903D01*
X143351114Y-112064082D01*
X143351113Y-112064085D01*
X143344777Y-112091024D01*
X143341697Y-112100970D01*
X143338321Y-112109685D01*
X143304455Y-112148404D01*
X143253624Y-112156295D01*
X143209613Y-112129667D01*
X143192999Y-112082521D01*
X143192999Y-111783044D01*
X143192999Y-111783043D01*
X143184128Y-111738442D01*
X143150334Y-111687866D01*
X143099758Y-111654072D01*
X143099756Y-111654071D01*
X143055157Y-111645200D01*
X141374044Y-111645200D01*
X141374042Y-111645201D01*
X141329440Y-111654072D01*
X141278867Y-111687864D01*
X141245072Y-111738442D01*
X141245071Y-111738443D01*
X141236200Y-111783042D01*
X141236200Y-113464155D01*
X141236201Y-113464156D01*
X141242730Y-113496985D01*
X141243018Y-113498430D01*
X141235193Y-113549271D01*
X141196518Y-113583187D01*
X141169263Y-113588300D01*
X141067368Y-113588300D01*
X141019030Y-113570707D01*
X141007708Y-113558879D01*
X140960215Y-113496985D01*
X140865974Y-113424670D01*
X140844049Y-113407846D01*
X140708772Y-113351813D01*
X140563600Y-113332701D01*
X140418427Y-113351813D01*
X140283151Y-113407846D01*
X140283148Y-113407848D01*
X140166984Y-113496984D01*
X140077848Y-113613148D01*
X140077846Y-113613151D01*
X140021813Y-113748427D01*
X140002701Y-113893600D01*
X138620600Y-113893600D01*
X138620600Y-110924155D01*
X141236200Y-110924155D01*
X141236201Y-110924157D01*
X141245072Y-110968759D01*
X141278864Y-111019332D01*
X141278865Y-111019332D01*
X141278866Y-111019334D01*
X141329442Y-111053128D01*
X141374043Y-111062000D01*
X143055156Y-111061999D01*
X143099758Y-111053128D01*
X143150334Y-111019334D01*
X143184128Y-110968758D01*
X143193000Y-110924157D01*
X143192999Y-109243044D01*
X143184128Y-109198442D01*
X143182349Y-109195780D01*
X143150335Y-109147867D01*
X143144425Y-109143918D01*
X143099758Y-109114072D01*
X143099756Y-109114071D01*
X143055157Y-109105200D01*
X141374044Y-109105200D01*
X141374042Y-109105201D01*
X141329440Y-109114072D01*
X141278867Y-109147864D01*
X141245072Y-109198442D01*
X141245071Y-109198443D01*
X141236200Y-109243042D01*
X141236200Y-110924155D01*
X138620600Y-110924155D01*
X138620600Y-105675655D01*
X140802200Y-105675655D01*
X140802201Y-105675656D01*
X140811072Y-105720258D01*
X140842526Y-105767332D01*
X140855200Y-105809111D01*
X140855200Y-107168173D01*
X140853310Y-107179756D01*
X140854044Y-107179859D01*
X140853081Y-107186758D01*
X140855120Y-107230839D01*
X140855200Y-107234312D01*
X140855200Y-107252035D01*
X140855439Y-107253316D01*
X140856635Y-107263636D01*
X140857914Y-107291290D01*
X140857915Y-107291294D01*
X140862409Y-107301472D01*
X140867534Y-107318022D01*
X140869578Y-107328958D01*
X140869581Y-107328965D01*
X140884151Y-107352496D01*
X140889005Y-107361705D01*
X140890971Y-107366156D01*
X140900183Y-107387021D01*
X140900184Y-107387022D01*
X140908050Y-107394888D01*
X140918809Y-107408470D01*
X140924667Y-107417930D01*
X140924669Y-107417933D01*
X140924670Y-107417934D01*
X140924672Y-107417936D01*
X140946754Y-107434611D01*
X140954610Y-107441448D01*
X141213720Y-107700558D01*
X141227836Y-107720161D01*
X141228290Y-107721071D01*
X141236200Y-107754642D01*
X141236200Y-108384155D01*
X141236201Y-108384157D01*
X141245072Y-108428759D01*
X141278864Y-108479332D01*
X141278865Y-108479332D01*
X141278866Y-108479334D01*
X141329442Y-108513128D01*
X141374043Y-108522000D01*
X143055156Y-108521999D01*
X143099758Y-108513128D01*
X143142303Y-108484700D01*
X143595800Y-108484700D01*
X144323200Y-108484700D01*
X144323200Y-107807300D01*
X143916919Y-107807300D01*
X143847962Y-107817348D01*
X143741580Y-107869355D01*
X143657855Y-107953080D01*
X143605848Y-108059462D01*
X143595800Y-108128419D01*
X143595800Y-108484700D01*
X143142303Y-108484700D01*
X143150334Y-108479334D01*
X143184128Y-108428758D01*
X143193000Y-108384157D01*
X143192999Y-106703044D01*
X143184128Y-106658442D01*
X143150334Y-106607866D01*
X143099758Y-106574072D01*
X143099756Y-106574071D01*
X143055157Y-106565200D01*
X141490200Y-106565200D01*
X141441862Y-106547607D01*
X141416142Y-106503058D01*
X141415000Y-106490000D01*
X141415000Y-105888699D01*
X141432593Y-105840361D01*
X141477142Y-105814641D01*
X141490200Y-105813499D01*
X141970156Y-105813499D01*
X142014758Y-105804628D01*
X142065334Y-105770834D01*
X142099128Y-105720258D01*
X142108000Y-105675657D01*
X142107999Y-105138000D01*
X142500300Y-105138000D01*
X142500300Y-105694280D01*
X142510348Y-105763237D01*
X142562355Y-105869619D01*
X142646080Y-105953344D01*
X142752463Y-106005351D01*
X142752462Y-106005351D01*
X142821419Y-106015399D01*
X142821430Y-106015400D01*
X143177700Y-106015400D01*
X143177700Y-105138000D01*
X142500300Y-105138000D01*
X142107999Y-105138000D01*
X142107999Y-104783200D01*
X142500300Y-104783200D01*
X143177700Y-104783200D01*
X143532500Y-104783200D01*
X143963300Y-104783200D01*
X143963300Y-104774400D01*
X143980893Y-104726062D01*
X144025442Y-104700342D01*
X144038500Y-104699200D01*
X144833700Y-104699200D01*
X144833700Y-103771800D01*
X144327419Y-103771800D01*
X144258462Y-103781848D01*
X144152080Y-103833855D01*
X144071164Y-103914772D01*
X144024544Y-103936512D01*
X143984964Y-103929158D01*
X143957736Y-103915847D01*
X143888780Y-103905800D01*
X143532500Y-103905800D01*
X143532500Y-104783200D01*
X143177700Y-104783200D01*
X143177700Y-103905800D01*
X142821419Y-103905800D01*
X142752462Y-103915848D01*
X142646080Y-103967855D01*
X142562355Y-104051580D01*
X142510348Y-104157962D01*
X142500300Y-104226919D01*
X142500300Y-104783200D01*
X142107999Y-104783200D01*
X142107999Y-104245544D01*
X142099128Y-104200942D01*
X142065334Y-104150366D01*
X142014758Y-104116572D01*
X142014756Y-104116571D01*
X141970157Y-104107700D01*
X140940044Y-104107700D01*
X140940042Y-104107701D01*
X140895440Y-104116572D01*
X140844867Y-104150364D01*
X140811072Y-104200942D01*
X140811071Y-104200943D01*
X140802200Y-104245542D01*
X140802200Y-105675655D01*
X138620600Y-105675655D01*
X138620600Y-101417780D01*
X140970800Y-101417780D01*
X140980848Y-101486737D01*
X141032855Y-101593119D01*
X141116580Y-101676844D01*
X141222963Y-101728851D01*
X141222962Y-101728851D01*
X141291919Y-101738899D01*
X141291930Y-101738900D01*
X141973700Y-101738900D01*
X141973700Y-100969045D01*
X142084102Y-101003100D01*
X142184412Y-101003100D01*
X142283599Y-100988150D01*
X142328500Y-100966526D01*
X142328500Y-101738900D01*
X143010270Y-101738900D01*
X143010280Y-101738899D01*
X143079237Y-101728851D01*
X143185619Y-101676844D01*
X143269344Y-101593119D01*
X143321351Y-101486737D01*
X143331399Y-101417780D01*
X143331400Y-101417770D01*
X143331400Y-100736000D01*
X142561942Y-100736000D01*
X142569547Y-100722828D01*
X142599364Y-100592193D01*
X142589351Y-100458572D01*
X142558985Y-100381200D01*
X143331400Y-100381200D01*
X143331400Y-99699429D01*
X143331399Y-99699419D01*
X143321351Y-99630462D01*
X143269344Y-99524080D01*
X143185619Y-99440355D01*
X143079236Y-99388348D01*
X143079237Y-99388348D01*
X143010280Y-99378300D01*
X142328500Y-99378300D01*
X142328500Y-100148154D01*
X142218098Y-100114100D01*
X142117788Y-100114100D01*
X142018601Y-100129050D01*
X141973700Y-100150673D01*
X141973700Y-99378300D01*
X141291919Y-99378300D01*
X141222962Y-99388348D01*
X141116580Y-99440355D01*
X141032855Y-99524080D01*
X140980848Y-99630462D01*
X140970800Y-99699419D01*
X140970800Y-100381200D01*
X141740258Y-100381200D01*
X141732653Y-100394372D01*
X141702836Y-100525007D01*
X141712849Y-100658628D01*
X141743215Y-100736000D01*
X140970800Y-100736000D01*
X140970800Y-101417780D01*
X138620600Y-101417780D01*
X138620600Y-98859155D01*
X141172700Y-98859155D01*
X141172701Y-98859157D01*
X141181572Y-98903759D01*
X141215364Y-98954332D01*
X141215365Y-98954332D01*
X141215366Y-98954334D01*
X141265942Y-98988128D01*
X141310543Y-98997000D01*
X142991656Y-98996999D01*
X143036258Y-98988128D01*
X143086834Y-98954334D01*
X143120628Y-98903758D01*
X143127934Y-98867028D01*
X143154620Y-98823052D01*
X143201689Y-98806500D01*
X143640512Y-98806500D01*
X143688850Y-98824093D01*
X143714267Y-98867030D01*
X143721572Y-98903759D01*
X143755364Y-98954332D01*
X143755365Y-98954332D01*
X143755366Y-98954334D01*
X143805942Y-98988128D01*
X143850543Y-98997000D01*
X145531656Y-98996999D01*
X145576258Y-98988128D01*
X145626834Y-98954334D01*
X145660628Y-98903758D01*
X145667934Y-98867028D01*
X145694620Y-98823052D01*
X145741689Y-98806500D01*
X146116216Y-98806500D01*
X146164554Y-98824093D01*
X146190274Y-98868642D01*
X146181341Y-98919300D01*
X146159352Y-98943296D01*
X146126708Y-98966155D01*
X146126706Y-98966156D01*
X146126700Y-98966161D01*
X145972657Y-99120204D01*
X145847689Y-99298677D01*
X145803597Y-99393233D01*
X145767223Y-99429607D01*
X145715979Y-99434089D01*
X145702416Y-99429011D01*
X145619238Y-99388348D01*
X145550280Y-99378300D01*
X144868500Y-99378300D01*
X144868500Y-100148154D01*
X144758098Y-100114100D01*
X144657788Y-100114100D01*
X144558601Y-100129050D01*
X144513700Y-100150673D01*
X144513700Y-99378300D01*
X143831919Y-99378300D01*
X143762962Y-99388348D01*
X143656580Y-99440355D01*
X143572855Y-99524080D01*
X143520848Y-99630462D01*
X143510800Y-99699419D01*
X143510800Y-100381200D01*
X144280258Y-100381200D01*
X144272653Y-100394372D01*
X144242836Y-100525007D01*
X144252849Y-100658628D01*
X144283215Y-100736000D01*
X143510800Y-100736000D01*
X143510800Y-101417780D01*
X143520848Y-101486737D01*
X143572855Y-101593119D01*
X143656580Y-101676844D01*
X143762963Y-101728851D01*
X143762962Y-101728851D01*
X143831919Y-101738899D01*
X143831930Y-101738900D01*
X144513700Y-101738900D01*
X144513700Y-100969045D01*
X144624102Y-101003100D01*
X144724412Y-101003100D01*
X144823599Y-100988150D01*
X144868500Y-100966526D01*
X144868500Y-101738900D01*
X145550270Y-101738900D01*
X145550280Y-101738899D01*
X145619237Y-101728851D01*
X145725619Y-101676844D01*
X145809344Y-101593119D01*
X145861351Y-101486737D01*
X145871399Y-101417780D01*
X145871400Y-101417770D01*
X145871400Y-100807286D01*
X145888993Y-100758948D01*
X145933542Y-100733228D01*
X145984200Y-100742161D01*
X145999774Y-100754112D01*
X146126704Y-100881042D01*
X146126707Y-100881044D01*
X146126708Y-100881045D01*
X146305172Y-101006007D01*
X146305174Y-101006007D01*
X146305177Y-101006010D01*
X146469491Y-101082629D01*
X146502624Y-101098080D01*
X146713065Y-101154468D01*
X146930100Y-101173456D01*
X147147135Y-101154468D01*
X147357576Y-101098080D01*
X147555028Y-101006007D01*
X147733492Y-100881045D01*
X147887545Y-100726992D01*
X148012507Y-100548528D01*
X148104580Y-100351076D01*
X148108770Y-100335436D01*
X148138275Y-100293300D01*
X148181408Y-100279700D01*
X148396366Y-100279700D01*
X148411796Y-100281300D01*
X148413970Y-100281755D01*
X148426181Y-100284316D01*
X148458575Y-100280277D01*
X148467876Y-100279700D01*
X148470605Y-100279700D01*
X148470608Y-100279700D01*
X148490948Y-100276305D01*
X148493962Y-100275865D01*
X148544113Y-100269615D01*
X148544115Y-100269613D01*
X148550086Y-100267837D01*
X148550190Y-100268188D01*
X148552549Y-100267433D01*
X148552430Y-100267086D01*
X148558316Y-100265064D01*
X148558324Y-100265063D01*
X148602771Y-100241008D01*
X148605476Y-100239615D01*
X148650882Y-100217419D01*
X148650887Y-100217413D01*
X148655957Y-100213795D01*
X148656171Y-100214095D01*
X148658152Y-100212618D01*
X148657926Y-100212328D01*
X148662839Y-100208502D01*
X148662846Y-100208499D01*
X148697082Y-100171306D01*
X148699188Y-100169111D01*
X148966577Y-99901725D01*
X149013197Y-99879986D01*
X149019751Y-99879700D01*
X154785366Y-99879700D01*
X154800796Y-99881300D01*
X154802970Y-99881755D01*
X154815181Y-99884316D01*
X154847575Y-99880277D01*
X154856876Y-99879700D01*
X154859605Y-99879700D01*
X154859608Y-99879700D01*
X154879948Y-99876305D01*
X154882962Y-99875865D01*
X154933113Y-99869615D01*
X154933115Y-99869613D01*
X154939086Y-99867837D01*
X154939190Y-99868188D01*
X154941549Y-99867433D01*
X154941430Y-99867086D01*
X154947316Y-99865064D01*
X154947324Y-99865063D01*
X154991771Y-99841008D01*
X154994476Y-99839615D01*
X155039882Y-99817419D01*
X155039887Y-99817413D01*
X155044957Y-99813795D01*
X155045171Y-99814095D01*
X155047152Y-99812618D01*
X155046926Y-99812328D01*
X155051842Y-99808500D01*
X155051846Y-99808499D01*
X155086094Y-99771293D01*
X155088201Y-99769098D01*
X156299393Y-98557906D01*
X156346012Y-98536167D01*
X156384347Y-98542927D01*
X156471172Y-98583413D01*
X156502624Y-98598080D01*
X156713065Y-98654468D01*
X156930100Y-98673456D01*
X157147135Y-98654468D01*
X157357576Y-98598080D01*
X157505328Y-98529182D01*
X157555022Y-98506010D01*
X157555022Y-98506009D01*
X157555028Y-98506007D01*
X157733492Y-98381045D01*
X157887545Y-98226992D01*
X158012507Y-98048528D01*
X158104580Y-97851076D01*
X158160968Y-97640635D01*
X158179956Y-97423600D01*
X158160968Y-97206565D01*
X158104580Y-96996124D01*
X158089129Y-96962991D01*
X158012510Y-96798677D01*
X158012507Y-96798674D01*
X158012507Y-96798672D01*
X157887545Y-96620208D01*
X157887544Y-96620207D01*
X157887542Y-96620204D01*
X157733495Y-96466157D01*
X157601230Y-96373544D01*
X157555028Y-96341193D01*
X157555027Y-96341192D01*
X157555022Y-96341189D01*
X157357579Y-96249121D01*
X157357575Y-96249119D01*
X157213840Y-96210605D01*
X157147135Y-96192732D01*
X157147133Y-96192731D01*
X157147130Y-96192731D01*
X156930100Y-96173744D01*
X156713069Y-96192731D01*
X156502624Y-96249119D01*
X156502620Y-96249121D01*
X156305177Y-96341189D01*
X156126704Y-96466157D01*
X155972657Y-96620204D01*
X155875200Y-96759388D01*
X155833063Y-96788893D01*
X155781819Y-96784409D01*
X155745446Y-96748036D01*
X155738400Y-96716255D01*
X155738400Y-96304929D01*
X155738399Y-96304919D01*
X155728351Y-96235962D01*
X155676344Y-96129580D01*
X155592619Y-96045855D01*
X155486236Y-95993848D01*
X155486237Y-95993848D01*
X155417280Y-95983800D01*
X154711000Y-95983800D01*
X154711000Y-98493400D01*
X155175150Y-98493400D01*
X155223488Y-98510993D01*
X155249208Y-98555542D01*
X155240275Y-98606200D01*
X155228324Y-98621774D01*
X154704625Y-99145474D01*
X154658005Y-99167214D01*
X154651451Y-99167500D01*
X148885829Y-99167500D01*
X148870399Y-99165900D01*
X148856019Y-99162885D01*
X148823623Y-99166923D01*
X148814323Y-99167500D01*
X148811585Y-99167500D01*
X148791255Y-99170892D01*
X148788184Y-99171339D01*
X148738088Y-99177584D01*
X148732116Y-99179362D01*
X148732013Y-99179017D01*
X148729654Y-99179773D01*
X148729771Y-99180113D01*
X148723872Y-99182138D01*
X148679456Y-99206174D01*
X148676695Y-99207596D01*
X148631319Y-99229779D01*
X148626250Y-99233399D01*
X148626040Y-99233104D01*
X148624046Y-99234591D01*
X148624268Y-99234877D01*
X148619350Y-99238704D01*
X148585148Y-99275857D01*
X148582998Y-99278098D01*
X148315625Y-99545474D01*
X148269005Y-99567214D01*
X148262450Y-99567500D01*
X148181408Y-99567500D01*
X148133070Y-99549907D01*
X148108770Y-99511763D01*
X148104580Y-99496124D01*
X148073285Y-99429011D01*
X148012510Y-99298677D01*
X148012507Y-99298674D01*
X148012507Y-99298672D01*
X147887545Y-99120208D01*
X147887544Y-99120207D01*
X147887542Y-99120204D01*
X147733499Y-98966161D01*
X147733495Y-98966158D01*
X147733492Y-98966155D01*
X147700848Y-98943298D01*
X147671347Y-98901164D01*
X147675829Y-98849920D01*
X147712203Y-98813546D01*
X147743984Y-98806500D01*
X150089907Y-98806500D01*
X150089943Y-98806499D01*
X150132370Y-98806499D01*
X150132374Y-98806499D01*
X150171673Y-98797529D01*
X150179973Y-98796119D01*
X150220034Y-98791606D01*
X150258095Y-98778286D01*
X150266176Y-98775959D01*
X150305473Y-98766991D01*
X150341781Y-98749504D01*
X150349571Y-98746278D01*
X150387620Y-98732965D01*
X150421769Y-98711506D01*
X150429115Y-98707446D01*
X150465440Y-98689955D01*
X150496968Y-98664811D01*
X150503812Y-98659955D01*
X150537956Y-98638502D01*
X150566181Y-98610275D01*
X150566189Y-98610269D01*
X150569441Y-98607016D01*
X150569444Y-98607015D01*
X150712933Y-98463524D01*
X150759554Y-98441785D01*
X150766108Y-98441499D01*
X152438656Y-98441499D01*
X152483258Y-98432628D01*
X152533834Y-98398834D01*
X152567628Y-98348258D01*
X152576500Y-98303657D01*
X152576499Y-97416000D01*
X153328800Y-97416000D01*
X153328800Y-98172280D01*
X153338848Y-98241237D01*
X153390855Y-98347619D01*
X153474580Y-98431344D01*
X153580963Y-98483351D01*
X153580962Y-98483351D01*
X153649919Y-98493399D01*
X153649930Y-98493400D01*
X154356200Y-98493400D01*
X154356200Y-97416000D01*
X153328800Y-97416000D01*
X152576499Y-97416000D01*
X152576499Y-97061200D01*
X153328800Y-97061200D01*
X154356200Y-97061200D01*
X154356200Y-95983800D01*
X153649919Y-95983800D01*
X153580962Y-95993848D01*
X153474580Y-96045855D01*
X153390855Y-96129580D01*
X153338848Y-96235962D01*
X153328800Y-96304919D01*
X153328800Y-97061200D01*
X152576499Y-97061200D01*
X152576499Y-96373544D01*
X152567628Y-96328942D01*
X152551576Y-96304919D01*
X152533835Y-96278367D01*
X152533831Y-96278364D01*
X152483258Y-96244572D01*
X152483256Y-96244571D01*
X152438657Y-96235700D01*
X149008544Y-96235700D01*
X149008542Y-96235701D01*
X148963940Y-96244572D01*
X148913367Y-96278364D01*
X148879572Y-96328942D01*
X148879571Y-96328943D01*
X148870700Y-96373542D01*
X148870700Y-97155500D01*
X148853107Y-97203838D01*
X148808558Y-97229558D01*
X148795500Y-97230700D01*
X145741688Y-97230700D01*
X145693350Y-97213107D01*
X145667933Y-97170170D01*
X145660628Y-97133443D01*
X145660628Y-97133442D01*
X145626834Y-97082866D01*
X145576258Y-97049072D01*
X145576256Y-97049071D01*
X145531657Y-97040200D01*
X143850544Y-97040200D01*
X143850542Y-97040201D01*
X143805940Y-97049072D01*
X143755367Y-97082864D01*
X143721572Y-97133442D01*
X143721571Y-97133444D01*
X143714266Y-97170171D01*
X143687580Y-97214148D01*
X143640511Y-97230700D01*
X143201688Y-97230700D01*
X143153350Y-97213107D01*
X143127933Y-97170170D01*
X143120628Y-97133443D01*
X143120628Y-97133442D01*
X143086834Y-97082866D01*
X143036258Y-97049072D01*
X143036256Y-97049071D01*
X142991657Y-97040200D01*
X141310544Y-97040200D01*
X141310542Y-97040201D01*
X141265940Y-97049072D01*
X141215367Y-97082864D01*
X141181572Y-97133442D01*
X141181571Y-97133443D01*
X141172700Y-97178042D01*
X141172700Y-98859155D01*
X138620600Y-98859155D01*
X138620600Y-96337780D01*
X140970800Y-96337780D01*
X140980848Y-96406737D01*
X141032855Y-96513119D01*
X141116580Y-96596844D01*
X141222963Y-96648851D01*
X141222962Y-96648851D01*
X141291919Y-96658899D01*
X141291930Y-96658900D01*
X141973700Y-96658900D01*
X141973700Y-95889045D01*
X142084102Y-95923100D01*
X142184412Y-95923100D01*
X142283599Y-95908150D01*
X142328500Y-95886526D01*
X142328500Y-96658900D01*
X143010270Y-96658900D01*
X143010280Y-96658899D01*
X143079237Y-96648851D01*
X143185619Y-96596844D01*
X143269344Y-96513119D01*
X143321351Y-96406737D01*
X143331399Y-96337780D01*
X143510800Y-96337780D01*
X143520848Y-96406737D01*
X143572855Y-96513119D01*
X143656580Y-96596844D01*
X143762963Y-96648851D01*
X143762962Y-96648851D01*
X143831919Y-96658899D01*
X143831930Y-96658900D01*
X144513700Y-96658900D01*
X144513700Y-95889045D01*
X144624102Y-95923100D01*
X144724412Y-95923100D01*
X144823599Y-95908150D01*
X144868500Y-95886526D01*
X144868500Y-96658900D01*
X145550270Y-96658900D01*
X145550280Y-96658899D01*
X145619237Y-96648851D01*
X145725619Y-96596844D01*
X145809344Y-96513119D01*
X145861351Y-96406737D01*
X145871399Y-96337780D01*
X145871400Y-96337770D01*
X145871400Y-95656000D01*
X145101942Y-95656000D01*
X145109547Y-95642828D01*
X145139364Y-95512193D01*
X145129351Y-95378572D01*
X145098985Y-95301200D01*
X145871400Y-95301200D01*
X145871400Y-94619429D01*
X145871399Y-94619419D01*
X145861351Y-94550462D01*
X145809344Y-94444080D01*
X145725619Y-94360355D01*
X145619236Y-94308348D01*
X145619237Y-94308348D01*
X145550280Y-94298300D01*
X144868500Y-94298300D01*
X144868500Y-95068154D01*
X144758098Y-95034100D01*
X144657788Y-95034100D01*
X144558601Y-95049050D01*
X144513700Y-95070673D01*
X144513700Y-94298300D01*
X143831919Y-94298300D01*
X143762962Y-94308348D01*
X143656580Y-94360355D01*
X143572855Y-94444080D01*
X143520848Y-94550462D01*
X143510800Y-94619419D01*
X143510800Y-95301200D01*
X144280258Y-95301200D01*
X144272653Y-95314372D01*
X144242836Y-95445007D01*
X144252849Y-95578628D01*
X144283215Y-95656000D01*
X143510800Y-95656000D01*
X143510800Y-96337780D01*
X143331399Y-96337780D01*
X143331400Y-96337770D01*
X143331400Y-95656000D01*
X142561942Y-95656000D01*
X142569547Y-95642828D01*
X142599364Y-95512193D01*
X142589351Y-95378572D01*
X142558985Y-95301200D01*
X143331400Y-95301200D01*
X143331400Y-94619429D01*
X143331399Y-94619419D01*
X143321351Y-94550462D01*
X143269344Y-94444080D01*
X143185619Y-94360355D01*
X143079236Y-94308348D01*
X143079237Y-94308348D01*
X143010280Y-94298300D01*
X142328500Y-94298300D01*
X142328500Y-95068154D01*
X142218098Y-95034100D01*
X142117788Y-95034100D01*
X142018601Y-95049050D01*
X141973700Y-95070673D01*
X141973700Y-94298300D01*
X141291919Y-94298300D01*
X141222962Y-94308348D01*
X141116580Y-94360355D01*
X141032855Y-94444080D01*
X140980848Y-94550462D01*
X140970800Y-94619419D01*
X140970800Y-95301200D01*
X141740258Y-95301200D01*
X141732653Y-95314372D01*
X141702836Y-95445007D01*
X141712849Y-95578628D01*
X141743215Y-95656000D01*
X140970800Y-95656000D01*
X140970800Y-96337780D01*
X138620600Y-96337780D01*
X138620600Y-89941000D01*
X139844882Y-89941000D01*
X139855227Y-90138387D01*
X139913936Y-90509062D01*
X139913937Y-90509064D01*
X140011076Y-90871592D01*
X140145566Y-91221954D01*
X140145567Y-91221955D01*
X140315953Y-91556356D01*
X140520358Y-91871112D01*
X140520364Y-91871121D01*
X140756540Y-92162772D01*
X140756557Y-92162791D01*
X141021908Y-92428142D01*
X141021927Y-92428159D01*
X141313578Y-92664335D01*
X141313587Y-92664341D01*
X141628343Y-92868746D01*
X141962744Y-93039132D01*
X141962745Y-93039133D01*
X142313107Y-93173623D01*
X142675635Y-93270762D01*
X142675637Y-93270763D01*
X143046313Y-93329472D01*
X143243699Y-93339816D01*
X143243700Y-93339815D01*
X143243700Y-91354586D01*
X143358231Y-91363600D01*
X143483969Y-91363600D01*
X143598500Y-91354586D01*
X143598500Y-93339816D01*
X143795886Y-93329472D01*
X144166562Y-93270763D01*
X144166564Y-93270762D01*
X144529092Y-93173623D01*
X144879454Y-93039133D01*
X144879455Y-93039132D01*
X145213856Y-92868746D01*
X145528612Y-92664341D01*
X145528621Y-92664335D01*
X145820272Y-92428159D01*
X145820291Y-92428142D01*
X146085642Y-92162791D01*
X146085659Y-92162772D01*
X146321835Y-91871121D01*
X146321841Y-91871112D01*
X146526246Y-91556356D01*
X146696632Y-91221955D01*
X146696633Y-91221954D01*
X146831123Y-90871592D01*
X146928262Y-90509064D01*
X146928263Y-90509062D01*
X146986972Y-90138386D01*
X146987662Y-90125223D01*
X147007761Y-90077872D01*
X147053594Y-90054519D01*
X147103716Y-90066090D01*
X147134673Y-90107171D01*
X147137959Y-90129158D01*
X147137959Y-92036461D01*
X148713759Y-92036461D01*
X148762097Y-92054054D01*
X148787817Y-92098603D01*
X148788959Y-92111661D01*
X148788959Y-92585585D01*
X150373131Y-92585585D01*
X150373131Y-91651894D01*
X150390724Y-91603556D01*
X150435273Y-91577836D01*
X150485931Y-91586769D01*
X150511399Y-91610937D01*
X150680358Y-91871112D01*
X150680364Y-91871121D01*
X150916540Y-92162772D01*
X150916557Y-92162791D01*
X151181908Y-92428142D01*
X151181927Y-92428159D01*
X151473578Y-92664335D01*
X151473587Y-92664341D01*
X151788343Y-92868746D01*
X152122744Y-93039132D01*
X152122745Y-93039133D01*
X152473107Y-93173623D01*
X152835635Y-93270762D01*
X152835637Y-93270763D01*
X153206313Y-93329472D01*
X153403699Y-93339816D01*
X153403700Y-93339815D01*
X153403700Y-91354586D01*
X153518231Y-91363600D01*
X153643969Y-91363600D01*
X153758500Y-91354586D01*
X153758500Y-93339816D01*
X153955886Y-93329472D01*
X154326562Y-93270763D01*
X154326564Y-93270762D01*
X154689092Y-93173623D01*
X155039454Y-93039133D01*
X155039455Y-93039132D01*
X155373856Y-92868746D01*
X155688612Y-92664341D01*
X155688621Y-92664335D01*
X155980272Y-92428159D01*
X155980291Y-92428142D01*
X156245642Y-92162791D01*
X156245659Y-92162772D01*
X156481835Y-91871121D01*
X156481841Y-91871112D01*
X156686246Y-91556356D01*
X156856632Y-91221955D01*
X156856633Y-91221954D01*
X156991123Y-90871592D01*
X157088262Y-90509064D01*
X157088263Y-90509062D01*
X157146972Y-90138387D01*
X157157317Y-89941000D01*
X155172086Y-89941000D01*
X155186048Y-89763600D01*
X155172086Y-89586200D01*
X157157317Y-89586200D01*
X157157317Y-89586199D01*
X157146972Y-89388812D01*
X157088263Y-89018137D01*
X157088262Y-89018135D01*
X156991123Y-88655607D01*
X156856633Y-88305245D01*
X156856632Y-88305244D01*
X156686246Y-87970843D01*
X156481841Y-87656087D01*
X156481835Y-87656078D01*
X156245659Y-87364427D01*
X156245642Y-87364408D01*
X155980291Y-87099057D01*
X155980272Y-87099040D01*
X155688621Y-86862864D01*
X155688612Y-86862858D01*
X155373856Y-86658453D01*
X155039455Y-86488067D01*
X155039454Y-86488066D01*
X154689092Y-86353576D01*
X154326564Y-86256437D01*
X154326562Y-86256436D01*
X153955887Y-86197727D01*
X153758500Y-86187382D01*
X153758500Y-88172613D01*
X153643969Y-88163600D01*
X153518231Y-88163600D01*
X153403700Y-88172613D01*
X153403700Y-86187383D01*
X153403699Y-86187382D01*
X153206312Y-86197727D01*
X152835637Y-86256436D01*
X152835635Y-86256437D01*
X152473107Y-86353576D01*
X152122745Y-86488066D01*
X152122744Y-86488067D01*
X151788343Y-86658453D01*
X151473587Y-86862858D01*
X151473578Y-86862864D01*
X151181927Y-87099040D01*
X151181908Y-87099057D01*
X150916557Y-87364408D01*
X150916540Y-87364427D01*
X150680364Y-87656078D01*
X150680358Y-87656087D01*
X150511399Y-87916262D01*
X150470317Y-87947219D01*
X150418948Y-87944527D01*
X150381327Y-87909445D01*
X150373131Y-87875305D01*
X150373131Y-87054360D01*
X148788959Y-87054360D01*
X148788959Y-87483908D01*
X148771366Y-87532246D01*
X148726817Y-87557966D01*
X148713759Y-87559108D01*
X147137959Y-87559108D01*
X147137959Y-89398041D01*
X147120366Y-89446379D01*
X147075817Y-89472099D01*
X147025159Y-89463166D01*
X146992094Y-89423761D01*
X146987662Y-89401977D01*
X146986972Y-89388812D01*
X146928263Y-89018137D01*
X146928262Y-89018135D01*
X146831123Y-88655607D01*
X146696633Y-88305245D01*
X146696632Y-88305244D01*
X146526246Y-87970843D01*
X146321841Y-87656087D01*
X146321835Y-87656078D01*
X146085659Y-87364427D01*
X146085642Y-87364408D01*
X145820291Y-87099057D01*
X145820272Y-87099040D01*
X145528621Y-86862864D01*
X145528612Y-86862858D01*
X145213856Y-86658453D01*
X144879455Y-86488067D01*
X144879454Y-86488066D01*
X144529092Y-86353576D01*
X144166564Y-86256437D01*
X144166562Y-86256436D01*
X143795887Y-86197727D01*
X143598500Y-86187382D01*
X143598500Y-88172613D01*
X143483969Y-88163600D01*
X143358231Y-88163600D01*
X143243700Y-88172613D01*
X143243700Y-86187383D01*
X143243699Y-86187382D01*
X143046312Y-86197727D01*
X142675637Y-86256436D01*
X142675635Y-86256437D01*
X142313107Y-86353576D01*
X141962745Y-86488066D01*
X141962744Y-86488067D01*
X141628343Y-86658453D01*
X141313587Y-86862858D01*
X141313578Y-86862864D01*
X141021927Y-87099040D01*
X141021908Y-87099057D01*
X140756557Y-87364408D01*
X140756540Y-87364427D01*
X140520364Y-87656078D01*
X140520358Y-87656087D01*
X140315953Y-87970843D01*
X140145567Y-88305244D01*
X140145566Y-88305245D01*
X140011076Y-88655607D01*
X139913937Y-89018135D01*
X139913936Y-89018137D01*
X139855227Y-89388812D01*
X139844882Y-89586199D01*
X139844883Y-89586200D01*
X141830114Y-89586200D01*
X141816152Y-89763600D01*
X141830114Y-89941000D01*
X139844882Y-89941000D01*
X138620600Y-89941000D01*
X138620600Y-85038300D01*
X138638193Y-84989962D01*
X138682742Y-84964242D01*
X138695800Y-84963100D01*
X158306400Y-84963100D01*
X158354738Y-84980693D01*
G37*
%TD.AperFunction*%
%TD*%
M02*
