%TF.GenerationSoftware,KiCad,Pcbnew,7.0.11+1*%
%TF.CreationDate,2024-07-06T20:21:57+00:00*%
%TF.ProjectId,TPS63036V01,54505336-3330-4333-9656-30312e6b6963,rev?*%
%TF.SameCoordinates,Original*%
%TF.FileFunction,Soldermask,Bot*%
%TF.FilePolarity,Negative*%
%FSLAX46Y46*%
G04 Gerber Fmt 4.6, Leading zero omitted, Abs format (unit mm)*
G04 Created by KiCad (PCBNEW 7.0.11+1) date 2024-07-06 20:21:57*
%MOMM*%
%LPD*%
G01*
G04 APERTURE LIST*
G04 Aperture macros list*
%AMRoundRect*
0 Rectangle with rounded corners*
0 $1 Rounding radius*
0 $2 $3 $4 $5 $6 $7 $8 $9 X,Y pos of 4 corners*
0 Add a 4 corners polygon primitive as box body*
4,1,4,$2,$3,$4,$5,$6,$7,$8,$9,$2,$3,0*
0 Add four circle primitives for the rounded corners*
1,1,$1+$1,$2,$3*
1,1,$1+$1,$4,$5*
1,1,$1+$1,$6,$7*
1,1,$1+$1,$8,$9*
0 Add four rect primitives between the rounded corners*
20,1,$1+$1,$2,$3,$4,$5,0*
20,1,$1+$1,$4,$5,$6,$7,0*
20,1,$1+$1,$6,$7,$8,$9,0*
20,1,$1+$1,$8,$9,$2,$3,0*%
G04 Aperture macros list end*
%ADD10RoundRect,0.101600X0.825500X-0.825500X0.825500X0.825500X-0.825500X0.825500X-0.825500X-0.825500X0*%
%ADD11RoundRect,0.101600X-0.825500X-0.825500X0.825500X-0.825500X0.825500X0.825500X-0.825500X0.825500X0*%
%ADD12C,6.654800*%
%ADD13C,2.387600*%
%ADD14RoundRect,0.101600X-0.550000X0.500000X-0.550000X-0.500000X0.550000X-0.500000X0.550000X0.500000X0*%
%ADD15RoundRect,0.101600X0.750000X-0.650000X0.750000X0.650000X-0.750000X0.650000X-0.750000X-0.650000X0*%
%ADD16RoundRect,0.101600X-0.650000X-0.750000X0.650000X-0.750000X0.650000X0.750000X-0.650000X0.750000X0*%
%ADD17RoundRect,0.101600X-1.700000X0.950000X-1.700000X-0.950000X1.700000X-0.950000X1.700000X0.950000X0*%
%ADD18RoundRect,0.101600X-0.850000X0.900000X-0.850000X-0.900000X0.850000X-0.900000X0.850000X0.900000X0*%
%ADD19RoundRect,0.101600X-0.500000X-0.550000X0.500000X-0.550000X0.500000X0.550000X-0.500000X0.550000X0*%
%ADD20RoundRect,0.101600X0.500000X0.700000X-0.500000X0.700000X-0.500000X-0.700000X0.500000X-0.700000X0*%
%ADD21RoundRect,0.251600X0.000000X0.000000X0.000000X0.000000X0.000000X0.000000X0.000000X0.000000X0*%
%ADD22RoundRect,0.101600X0.635000X-1.270000X0.635000X1.270000X-0.635000X1.270000X-0.635000X-1.270000X0*%
%ADD23RoundRect,0.101600X1.650000X0.320000X-1.650000X0.320000X-1.650000X-0.320000X1.650000X-0.320000X0*%
%ADD24RoundRect,0.101600X0.320000X-0.255000X0.320000X0.255000X-0.320000X0.255000X-0.320000X-0.255000X0*%
G04 APERTURE END LIST*
D10*
%TO.C,SV3*%
X144691100Y-100558600D03*
X142151100Y-100558600D03*
X144691100Y-98018600D03*
X142151100Y-98018600D03*
X144691100Y-95478600D03*
X142151100Y-95478600D03*
%TD*%
D11*
%TO.C,SV6*%
X142214600Y-112623600D03*
X142214600Y-115163600D03*
%TD*%
D12*
%TO.C,X4*%
X143421100Y-120243600D03*
%TD*%
D11*
%TO.C,SV1*%
X142214600Y-107543600D03*
X142214600Y-110083600D03*
%TD*%
D12*
%TO.C,X1*%
X143421100Y-89763600D03*
%TD*%
D13*
%TO.C,P2*%
X156930100Y-102423600D03*
X146930100Y-99923600D03*
X156930100Y-97423600D03*
%TD*%
D12*
%TO.C,X3*%
X153581100Y-89763600D03*
%TD*%
D10*
%TO.C,SV5*%
X155041600Y-114020600D03*
X152501600Y-114020600D03*
X155041600Y-111480600D03*
X152501600Y-111480600D03*
X155041600Y-108940600D03*
X152501600Y-108940600D03*
%TD*%
D12*
%TO.C,X2*%
X153581100Y-120243600D03*
%TD*%
D14*
%TO.C,C21*%
X144500600Y-111519600D03*
X144500600Y-113219600D03*
%TD*%
D15*
%TO.C,C18*%
X148501100Y-112621100D03*
X148501100Y-110721100D03*
%TD*%
%TO.C,C19*%
X146469100Y-111922600D03*
X146469100Y-110022600D03*
%TD*%
D16*
%TO.C,C16*%
X145011100Y-104876600D03*
X146911100Y-104876600D03*
%TD*%
D17*
%TO.C,P1*%
X150723600Y-97338600D03*
X150723600Y-101238600D03*
%TD*%
D15*
%TO.C,C17*%
X150406100Y-112621100D03*
X150406100Y-110721100D03*
%TD*%
D18*
%TO.C,D1*%
X154533600Y-97238600D03*
X154533600Y-101338600D03*
%TD*%
D19*
%TO.C,R10*%
X144412600Y-114465100D03*
X146112600Y-114465100D03*
%TD*%
D20*
%TO.C,X9*%
X143355100Y-104960600D03*
X141455100Y-104960600D03*
X142405100Y-102760600D03*
%TD*%
D21*
%TO.C,X10*%
X146846100Y-106793600D03*
X146346100Y-106793600D03*
X146846100Y-107293600D03*
X146346100Y-107293600D03*
X146846100Y-107793600D03*
X146346100Y-107793600D03*
X146846100Y-108293600D03*
X146346100Y-108293600D03*
%TD*%
D14*
%TO.C,R28*%
X144500600Y-108662100D03*
X144500600Y-110362100D03*
%TD*%
D22*
%TO.C,C20*%
X148818600Y-104368600D03*
X152946100Y-104368600D03*
%TD*%
D23*
%TO.C,L2*%
X149136100Y-106531100D03*
D24*
X147806100Y-107096100D03*
X150466100Y-107096100D03*
D23*
X149136100Y-109191100D03*
D24*
X150466100Y-108626100D03*
X147806100Y-108626100D03*
%TD*%
M02*
