%TF.GenerationSoftware,KiCad,Pcbnew,7.0.11+1*%
%TF.CreationDate,2024-07-06T20:21:57+00:00*%
%TF.ProjectId,TPS63036V01,54505336-3330-4333-9656-30312e6b6963,rev?*%
%TF.SameCoordinates,Original*%
%TF.FileFunction,Legend,Top*%
%TF.FilePolarity,Positive*%
%FSLAX46Y46*%
G04 Gerber Fmt 4.6, Leading zero omitted, Abs format (unit mm)*
G04 Created by KiCad (PCBNEW 7.0.11+1) date 2024-07-06 20:21:57*
%MOMM*%
%LPD*%
G01*
G04 APERTURE LIST*
%ADD10C,0.200000*%
%ADD11C,0.101600*%
%ADD12C,0.152400*%
%ADD13C,0.127000*%
G04 APERTURE END LIST*
D10*
X140627100Y-111798100D02*
X140627100Y-115989100D01*
X140627100Y-106718100D02*
X140627100Y-110909100D01*
D11*
X148980230Y-92217437D02*
X148924592Y-92161799D01*
X148924592Y-92161799D02*
X148868954Y-92050523D01*
X148868954Y-92050523D02*
X148868954Y-91772332D01*
X148868954Y-91772332D02*
X148924592Y-91661056D01*
X148924592Y-91661056D02*
X148980230Y-91605418D01*
X148980230Y-91605418D02*
X149091506Y-91549780D01*
X149091506Y-91549780D02*
X149202782Y-91549780D01*
X149202782Y-91549780D02*
X149369696Y-91605418D01*
X149369696Y-91605418D02*
X150037354Y-92273075D01*
X150037354Y-92273075D02*
X150037354Y-91549780D01*
X148868954Y-90826485D02*
X148868954Y-90715208D01*
X148868954Y-90715208D02*
X148924592Y-90603932D01*
X148924592Y-90603932D02*
X148980230Y-90548294D01*
X148980230Y-90548294D02*
X149091506Y-90492656D01*
X149091506Y-90492656D02*
X149314058Y-90437018D01*
X149314058Y-90437018D02*
X149592249Y-90437018D01*
X149592249Y-90437018D02*
X149814801Y-90492656D01*
X149814801Y-90492656D02*
X149926077Y-90548294D01*
X149926077Y-90548294D02*
X149981716Y-90603932D01*
X149981716Y-90603932D02*
X150037354Y-90715208D01*
X150037354Y-90715208D02*
X150037354Y-90826485D01*
X150037354Y-90826485D02*
X149981716Y-90937761D01*
X149981716Y-90937761D02*
X149926077Y-90993399D01*
X149926077Y-90993399D02*
X149814801Y-91049037D01*
X149814801Y-91049037D02*
X149592249Y-91104675D01*
X149592249Y-91104675D02*
X149314058Y-91104675D01*
X149314058Y-91104675D02*
X149091506Y-91049037D01*
X149091506Y-91049037D02*
X148980230Y-90993399D01*
X148980230Y-90993399D02*
X148924592Y-90937761D01*
X148924592Y-90937761D02*
X148868954Y-90826485D01*
X150037354Y-89324256D02*
X150037354Y-89991913D01*
X150037354Y-89658085D02*
X148868954Y-89658085D01*
X148868954Y-89658085D02*
X149035868Y-89769361D01*
X149035868Y-89769361D02*
X149147144Y-89880637D01*
X149147144Y-89880637D02*
X149202782Y-89991913D01*
X148868954Y-88934789D02*
X148868954Y-88211494D01*
X148868954Y-88211494D02*
X149314058Y-88600961D01*
X149314058Y-88600961D02*
X149314058Y-88434046D01*
X149314058Y-88434046D02*
X149369696Y-88322770D01*
X149369696Y-88322770D02*
X149425335Y-88267132D01*
X149425335Y-88267132D02*
X149536611Y-88211494D01*
X149536611Y-88211494D02*
X149814801Y-88211494D01*
X149814801Y-88211494D02*
X149926077Y-88267132D01*
X149926077Y-88267132D02*
X149981716Y-88322770D01*
X149981716Y-88322770D02*
X150037354Y-88434046D01*
X150037354Y-88434046D02*
X150037354Y-88767875D01*
X150037354Y-88767875D02*
X149981716Y-88879151D01*
X149981716Y-88879151D02*
X149926077Y-88934789D01*
X148644926Y-121843481D02*
X149813326Y-121454015D01*
X149813326Y-121454015D02*
X148644926Y-121064548D01*
X148644926Y-120452529D02*
X148644926Y-120341252D01*
X148644926Y-120341252D02*
X148700564Y-120229976D01*
X148700564Y-120229976D02*
X148756202Y-120174338D01*
X148756202Y-120174338D02*
X148867478Y-120118700D01*
X148867478Y-120118700D02*
X149090030Y-120063062D01*
X149090030Y-120063062D02*
X149368221Y-120063062D01*
X149368221Y-120063062D02*
X149590773Y-120118700D01*
X149590773Y-120118700D02*
X149702049Y-120174338D01*
X149702049Y-120174338D02*
X149757688Y-120229976D01*
X149757688Y-120229976D02*
X149813326Y-120341252D01*
X149813326Y-120341252D02*
X149813326Y-120452529D01*
X149813326Y-120452529D02*
X149757688Y-120563805D01*
X149757688Y-120563805D02*
X149702049Y-120619443D01*
X149702049Y-120619443D02*
X149590773Y-120675081D01*
X149590773Y-120675081D02*
X149368221Y-120730719D01*
X149368221Y-120730719D02*
X149090030Y-120730719D01*
X149090030Y-120730719D02*
X148867478Y-120675081D01*
X148867478Y-120675081D02*
X148756202Y-120619443D01*
X148756202Y-120619443D02*
X148700564Y-120563805D01*
X148700564Y-120563805D02*
X148644926Y-120452529D01*
X149813326Y-118950300D02*
X149813326Y-119617957D01*
X149813326Y-119284129D02*
X148644926Y-119284129D01*
X148644926Y-119284129D02*
X148811840Y-119395405D01*
X148811840Y-119395405D02*
X148923116Y-119506681D01*
X148923116Y-119506681D02*
X148978754Y-119617957D01*
X149479497Y-118505195D02*
X149479497Y-117948814D01*
X149813326Y-118616471D02*
X148644926Y-118227005D01*
X148644926Y-118227005D02*
X149813326Y-117837538D01*
X140288326Y-98499067D02*
X139119926Y-98499067D01*
X140288326Y-97942686D02*
X139119926Y-97942686D01*
X139119926Y-97942686D02*
X140288326Y-97275029D01*
X140288326Y-97275029D02*
X139119926Y-97275029D01*
X144401132Y-109958307D02*
X144790599Y-109958307D01*
X144957513Y-110570326D02*
X144401132Y-110570326D01*
X144401132Y-110570326D02*
X144401132Y-109401926D01*
X144401132Y-109401926D02*
X144957513Y-109401926D01*
X145458256Y-110570326D02*
X145458256Y-109401926D01*
X145458256Y-109401926D02*
X146125913Y-110570326D01*
X146125913Y-110570326D02*
X146125913Y-109401926D01*
X144401132Y-113110326D02*
X144401132Y-111941926D01*
X144401132Y-111941926D02*
X144846237Y-111941926D01*
X144846237Y-111941926D02*
X144957513Y-111997564D01*
X144957513Y-111997564D02*
X145013151Y-112053202D01*
X145013151Y-112053202D02*
X145068789Y-112164478D01*
X145068789Y-112164478D02*
X145068789Y-112331392D01*
X145068789Y-112331392D02*
X145013151Y-112442668D01*
X145013151Y-112442668D02*
X144957513Y-112498307D01*
X144957513Y-112498307D02*
X144846237Y-112553945D01*
X144846237Y-112553945D02*
X144401132Y-112553945D01*
X145513894Y-113054688D02*
X145680808Y-113110326D01*
X145680808Y-113110326D02*
X145958999Y-113110326D01*
X145958999Y-113110326D02*
X146070275Y-113054688D01*
X146070275Y-113054688D02*
X146125913Y-112999049D01*
X146125913Y-112999049D02*
X146181551Y-112887773D01*
X146181551Y-112887773D02*
X146181551Y-112776497D01*
X146181551Y-112776497D02*
X146125913Y-112665221D01*
X146125913Y-112665221D02*
X146070275Y-112609583D01*
X146070275Y-112609583D02*
X145958999Y-112553945D01*
X145958999Y-112553945D02*
X145736446Y-112498307D01*
X145736446Y-112498307D02*
X145625170Y-112442668D01*
X145625170Y-112442668D02*
X145569532Y-112387030D01*
X145569532Y-112387030D02*
X145513894Y-112275754D01*
X145513894Y-112275754D02*
X145513894Y-112164478D01*
X145513894Y-112164478D02*
X145569532Y-112053202D01*
X145569532Y-112053202D02*
X145625170Y-111997564D01*
X145625170Y-111997564D02*
X145736446Y-111941926D01*
X145736446Y-111941926D02*
X146014637Y-111941926D01*
X146014637Y-111941926D02*
X146181551Y-111997564D01*
X145013151Y-114474064D02*
X144901875Y-114418426D01*
X144901875Y-114418426D02*
X144734961Y-114418426D01*
X144734961Y-114418426D02*
X144568046Y-114474064D01*
X144568046Y-114474064D02*
X144456770Y-114585340D01*
X144456770Y-114585340D02*
X144401132Y-114696616D01*
X144401132Y-114696616D02*
X144345494Y-114919168D01*
X144345494Y-114919168D02*
X144345494Y-115086083D01*
X144345494Y-115086083D02*
X144401132Y-115308635D01*
X144401132Y-115308635D02*
X144456770Y-115419911D01*
X144456770Y-115419911D02*
X144568046Y-115531188D01*
X144568046Y-115531188D02*
X144734961Y-115586826D01*
X144734961Y-115586826D02*
X144846237Y-115586826D01*
X144846237Y-115586826D02*
X145013151Y-115531188D01*
X145013151Y-115531188D02*
X145068789Y-115475549D01*
X145068789Y-115475549D02*
X145068789Y-115086083D01*
X145068789Y-115086083D02*
X144846237Y-115086083D01*
X145569532Y-115586826D02*
X145569532Y-114418426D01*
X145569532Y-114418426D02*
X146237189Y-115586826D01*
X146237189Y-115586826D02*
X146237189Y-114418426D01*
X146793570Y-115586826D02*
X146793570Y-114418426D01*
X146793570Y-114418426D02*
X147071760Y-114418426D01*
X147071760Y-114418426D02*
X147238675Y-114474064D01*
X147238675Y-114474064D02*
X147349951Y-114585340D01*
X147349951Y-114585340D02*
X147405589Y-114696616D01*
X147405589Y-114696616D02*
X147461227Y-114919168D01*
X147461227Y-114919168D02*
X147461227Y-115086083D01*
X147461227Y-115086083D02*
X147405589Y-115308635D01*
X147405589Y-115308635D02*
X147349951Y-115419911D01*
X147349951Y-115419911D02*
X147238675Y-115531188D01*
X147238675Y-115531188D02*
X147071760Y-115586826D01*
X147071760Y-115586826D02*
X146793570Y-115586826D01*
X147057426Y-124129481D02*
X147057426Y-123461824D01*
X148225826Y-123795653D02*
X147057426Y-123795653D01*
X148225826Y-123072357D02*
X147057426Y-123072357D01*
X147057426Y-123072357D02*
X147057426Y-122627252D01*
X147057426Y-122627252D02*
X147113064Y-122515976D01*
X147113064Y-122515976D02*
X147168702Y-122460338D01*
X147168702Y-122460338D02*
X147279978Y-122404700D01*
X147279978Y-122404700D02*
X147446892Y-122404700D01*
X147446892Y-122404700D02*
X147558168Y-122460338D01*
X147558168Y-122460338D02*
X147613807Y-122515976D01*
X147613807Y-122515976D02*
X147669445Y-122627252D01*
X147669445Y-122627252D02*
X147669445Y-123072357D01*
X148170188Y-121959595D02*
X148225826Y-121792681D01*
X148225826Y-121792681D02*
X148225826Y-121514490D01*
X148225826Y-121514490D02*
X148170188Y-121403214D01*
X148170188Y-121403214D02*
X148114549Y-121347576D01*
X148114549Y-121347576D02*
X148003273Y-121291938D01*
X148003273Y-121291938D02*
X147891997Y-121291938D01*
X147891997Y-121291938D02*
X147780721Y-121347576D01*
X147780721Y-121347576D02*
X147725083Y-121403214D01*
X147725083Y-121403214D02*
X147669445Y-121514490D01*
X147669445Y-121514490D02*
X147613807Y-121737043D01*
X147613807Y-121737043D02*
X147558168Y-121848319D01*
X147558168Y-121848319D02*
X147502530Y-121903957D01*
X147502530Y-121903957D02*
X147391254Y-121959595D01*
X147391254Y-121959595D02*
X147279978Y-121959595D01*
X147279978Y-121959595D02*
X147168702Y-121903957D01*
X147168702Y-121903957D02*
X147113064Y-121848319D01*
X147113064Y-121848319D02*
X147057426Y-121737043D01*
X147057426Y-121737043D02*
X147057426Y-121458852D01*
X147057426Y-121458852D02*
X147113064Y-121291938D01*
X147057426Y-120290452D02*
X147057426Y-120513005D01*
X147057426Y-120513005D02*
X147113064Y-120624281D01*
X147113064Y-120624281D02*
X147168702Y-120679919D01*
X147168702Y-120679919D02*
X147335616Y-120791195D01*
X147335616Y-120791195D02*
X147558168Y-120846833D01*
X147558168Y-120846833D02*
X148003273Y-120846833D01*
X148003273Y-120846833D02*
X148114549Y-120791195D01*
X148114549Y-120791195D02*
X148170188Y-120735557D01*
X148170188Y-120735557D02*
X148225826Y-120624281D01*
X148225826Y-120624281D02*
X148225826Y-120401728D01*
X148225826Y-120401728D02*
X148170188Y-120290452D01*
X148170188Y-120290452D02*
X148114549Y-120234814D01*
X148114549Y-120234814D02*
X148003273Y-120179176D01*
X148003273Y-120179176D02*
X147725083Y-120179176D01*
X147725083Y-120179176D02*
X147613807Y-120234814D01*
X147613807Y-120234814D02*
X147558168Y-120290452D01*
X147558168Y-120290452D02*
X147502530Y-120401728D01*
X147502530Y-120401728D02*
X147502530Y-120624281D01*
X147502530Y-120624281D02*
X147558168Y-120735557D01*
X147558168Y-120735557D02*
X147613807Y-120791195D01*
X147613807Y-120791195D02*
X147725083Y-120846833D01*
X147057426Y-119789709D02*
X147057426Y-119066414D01*
X147057426Y-119066414D02*
X147502530Y-119455881D01*
X147502530Y-119455881D02*
X147502530Y-119288966D01*
X147502530Y-119288966D02*
X147558168Y-119177690D01*
X147558168Y-119177690D02*
X147613807Y-119122052D01*
X147613807Y-119122052D02*
X147725083Y-119066414D01*
X147725083Y-119066414D02*
X148003273Y-119066414D01*
X148003273Y-119066414D02*
X148114549Y-119122052D01*
X148114549Y-119122052D02*
X148170188Y-119177690D01*
X148170188Y-119177690D02*
X148225826Y-119288966D01*
X148225826Y-119288966D02*
X148225826Y-119622795D01*
X148225826Y-119622795D02*
X148170188Y-119734071D01*
X148170188Y-119734071D02*
X148114549Y-119789709D01*
X147057426Y-118343119D02*
X147057426Y-118231842D01*
X147057426Y-118231842D02*
X147113064Y-118120566D01*
X147113064Y-118120566D02*
X147168702Y-118064928D01*
X147168702Y-118064928D02*
X147279978Y-118009290D01*
X147279978Y-118009290D02*
X147502530Y-117953652D01*
X147502530Y-117953652D02*
X147780721Y-117953652D01*
X147780721Y-117953652D02*
X148003273Y-118009290D01*
X148003273Y-118009290D02*
X148114549Y-118064928D01*
X148114549Y-118064928D02*
X148170188Y-118120566D01*
X148170188Y-118120566D02*
X148225826Y-118231842D01*
X148225826Y-118231842D02*
X148225826Y-118343119D01*
X148225826Y-118343119D02*
X148170188Y-118454395D01*
X148170188Y-118454395D02*
X148114549Y-118510033D01*
X148114549Y-118510033D02*
X148003273Y-118565671D01*
X148003273Y-118565671D02*
X147780721Y-118621309D01*
X147780721Y-118621309D02*
X147502530Y-118621309D01*
X147502530Y-118621309D02*
X147279978Y-118565671D01*
X147279978Y-118565671D02*
X147168702Y-118510033D01*
X147168702Y-118510033D02*
X147113064Y-118454395D01*
X147113064Y-118454395D02*
X147057426Y-118343119D01*
X147057426Y-117564185D02*
X147057426Y-116840890D01*
X147057426Y-116840890D02*
X147502530Y-117230357D01*
X147502530Y-117230357D02*
X147502530Y-117063442D01*
X147502530Y-117063442D02*
X147558168Y-116952166D01*
X147558168Y-116952166D02*
X147613807Y-116896528D01*
X147613807Y-116896528D02*
X147725083Y-116840890D01*
X147725083Y-116840890D02*
X148003273Y-116840890D01*
X148003273Y-116840890D02*
X148114549Y-116896528D01*
X148114549Y-116896528D02*
X148170188Y-116952166D01*
X148170188Y-116952166D02*
X148225826Y-117063442D01*
X148225826Y-117063442D02*
X148225826Y-117397271D01*
X148225826Y-117397271D02*
X148170188Y-117508547D01*
X148170188Y-117508547D02*
X148114549Y-117564185D01*
X147057426Y-115839404D02*
X147057426Y-116061957D01*
X147057426Y-116061957D02*
X147113064Y-116173233D01*
X147113064Y-116173233D02*
X147168702Y-116228871D01*
X147168702Y-116228871D02*
X147335616Y-116340147D01*
X147335616Y-116340147D02*
X147558168Y-116395785D01*
X147558168Y-116395785D02*
X148003273Y-116395785D01*
X148003273Y-116395785D02*
X148114549Y-116340147D01*
X148114549Y-116340147D02*
X148170188Y-116284509D01*
X148170188Y-116284509D02*
X148225826Y-116173233D01*
X148225826Y-116173233D02*
X148225826Y-115950680D01*
X148225826Y-115950680D02*
X148170188Y-115839404D01*
X148170188Y-115839404D02*
X148114549Y-115783766D01*
X148114549Y-115783766D02*
X148003273Y-115728128D01*
X148003273Y-115728128D02*
X147725083Y-115728128D01*
X147725083Y-115728128D02*
X147613807Y-115783766D01*
X147613807Y-115783766D02*
X147558168Y-115839404D01*
X147558168Y-115839404D02*
X147502530Y-115950680D01*
X147502530Y-115950680D02*
X147502530Y-116173233D01*
X147502530Y-116173233D02*
X147558168Y-116284509D01*
X147558168Y-116284509D02*
X147613807Y-116340147D01*
X147613807Y-116340147D02*
X147725083Y-116395785D01*
X147217954Y-92059594D02*
X148052525Y-92059594D01*
X148052525Y-92059594D02*
X148219439Y-92115233D01*
X148219439Y-92115233D02*
X148330716Y-92226509D01*
X148330716Y-92226509D02*
X148386354Y-92393423D01*
X148386354Y-92393423D02*
X148386354Y-92504699D01*
X148052525Y-91558851D02*
X148052525Y-91002470D01*
X148386354Y-91670127D02*
X147217954Y-91280661D01*
X147217954Y-91280661D02*
X148386354Y-90891194D01*
X148275077Y-89834070D02*
X148330716Y-89889708D01*
X148330716Y-89889708D02*
X148386354Y-90056622D01*
X148386354Y-90056622D02*
X148386354Y-90167898D01*
X148386354Y-90167898D02*
X148330716Y-90334813D01*
X148330716Y-90334813D02*
X148219439Y-90446089D01*
X148219439Y-90446089D02*
X148108163Y-90501727D01*
X148108163Y-90501727D02*
X147885611Y-90557365D01*
X147885611Y-90557365D02*
X147718696Y-90557365D01*
X147718696Y-90557365D02*
X147496144Y-90501727D01*
X147496144Y-90501727D02*
X147384868Y-90446089D01*
X147384868Y-90446089D02*
X147273592Y-90334813D01*
X147273592Y-90334813D02*
X147217954Y-90167898D01*
X147217954Y-90167898D02*
X147217954Y-90056622D01*
X147217954Y-90056622D02*
X147273592Y-89889708D01*
X147273592Y-89889708D02*
X147329230Y-89834070D01*
X148386354Y-89333327D02*
X147217954Y-89333327D01*
X147774335Y-89333327D02*
X147774335Y-88665670D01*
X148386354Y-88665670D02*
X147217954Y-88665670D01*
X147217954Y-87886737D02*
X147217954Y-87664184D01*
X147217954Y-87664184D02*
X147273592Y-87552908D01*
X147273592Y-87552908D02*
X147384868Y-87441632D01*
X147384868Y-87441632D02*
X147607420Y-87385994D01*
X147607420Y-87385994D02*
X147996887Y-87385994D01*
X147996887Y-87385994D02*
X148219439Y-87441632D01*
X148219439Y-87441632D02*
X148330716Y-87552908D01*
X148330716Y-87552908D02*
X148386354Y-87664184D01*
X148386354Y-87664184D02*
X148386354Y-87886737D01*
X148386354Y-87886737D02*
X148330716Y-87998013D01*
X148330716Y-87998013D02*
X148219439Y-88109289D01*
X148219439Y-88109289D02*
X147996887Y-88164927D01*
X147996887Y-88164927D02*
X147607420Y-88164927D01*
X147607420Y-88164927D02*
X147384868Y-88109289D01*
X147384868Y-88109289D02*
X147273592Y-87998013D01*
X147273592Y-87998013D02*
X147217954Y-87886737D01*
X149279926Y-112627515D02*
X149279926Y-112404962D01*
X149279926Y-112404962D02*
X149335564Y-112293686D01*
X149335564Y-112293686D02*
X149446840Y-112182410D01*
X149446840Y-112182410D02*
X149669392Y-112126772D01*
X149669392Y-112126772D02*
X150058859Y-112126772D01*
X150058859Y-112126772D02*
X150281411Y-112182410D01*
X150281411Y-112182410D02*
X150392688Y-112293686D01*
X150392688Y-112293686D02*
X150448326Y-112404962D01*
X150448326Y-112404962D02*
X150448326Y-112627515D01*
X150448326Y-112627515D02*
X150392688Y-112738791D01*
X150392688Y-112738791D02*
X150281411Y-112850067D01*
X150281411Y-112850067D02*
X150058859Y-112905705D01*
X150058859Y-112905705D02*
X149669392Y-112905705D01*
X149669392Y-112905705D02*
X149446840Y-112850067D01*
X149446840Y-112850067D02*
X149335564Y-112738791D01*
X149335564Y-112738791D02*
X149279926Y-112627515D01*
X149279926Y-111626029D02*
X150225773Y-111626029D01*
X150225773Y-111626029D02*
X150337049Y-111570391D01*
X150337049Y-111570391D02*
X150392688Y-111514753D01*
X150392688Y-111514753D02*
X150448326Y-111403477D01*
X150448326Y-111403477D02*
X150448326Y-111180924D01*
X150448326Y-111180924D02*
X150392688Y-111069648D01*
X150392688Y-111069648D02*
X150337049Y-111014010D01*
X150337049Y-111014010D02*
X150225773Y-110958372D01*
X150225773Y-110958372D02*
X149279926Y-110958372D01*
X149279926Y-110568905D02*
X149279926Y-109901248D01*
X150448326Y-110235077D02*
X149279926Y-110235077D01*
X151767132Y-116666326D02*
X151767132Y-115497926D01*
X151767132Y-115497926D02*
X152156599Y-116332497D01*
X152156599Y-116332497D02*
X152546065Y-115497926D01*
X152546065Y-115497926D02*
X152546065Y-116666326D01*
X153658827Y-116666326D02*
X153102446Y-116666326D01*
X153102446Y-116666326D02*
X153102446Y-115497926D01*
X153992656Y-116332497D02*
X154549037Y-116332497D01*
X153881380Y-116666326D02*
X154270846Y-115497926D01*
X154270846Y-115497926D02*
X154660313Y-116666326D01*
X155439247Y-116054307D02*
X155606161Y-116109945D01*
X155606161Y-116109945D02*
X155661799Y-116165583D01*
X155661799Y-116165583D02*
X155717437Y-116276859D01*
X155717437Y-116276859D02*
X155717437Y-116443773D01*
X155717437Y-116443773D02*
X155661799Y-116555049D01*
X155661799Y-116555049D02*
X155606161Y-116610688D01*
X155606161Y-116610688D02*
X155494885Y-116666326D01*
X155494885Y-116666326D02*
X155049780Y-116666326D01*
X155049780Y-116666326D02*
X155049780Y-115497926D01*
X155049780Y-115497926D02*
X155439247Y-115497926D01*
X155439247Y-115497926D02*
X155550523Y-115553564D01*
X155550523Y-115553564D02*
X155606161Y-115609202D01*
X155606161Y-115609202D02*
X155661799Y-115720478D01*
X155661799Y-115720478D02*
X155661799Y-115831754D01*
X155661799Y-115831754D02*
X155606161Y-115943030D01*
X155606161Y-115943030D02*
X155550523Y-115998668D01*
X155550523Y-115998668D02*
X155439247Y-116054307D01*
X155439247Y-116054307D02*
X155049780Y-116054307D01*
X145431826Y-97038567D02*
X144263426Y-97038567D01*
X144263426Y-97038567D02*
X144263426Y-96593462D01*
X144263426Y-96593462D02*
X144319064Y-96482186D01*
X144319064Y-96482186D02*
X144374702Y-96426548D01*
X144374702Y-96426548D02*
X144485978Y-96370910D01*
X144485978Y-96370910D02*
X144652892Y-96370910D01*
X144652892Y-96370910D02*
X144764168Y-96426548D01*
X144764168Y-96426548D02*
X144819807Y-96482186D01*
X144819807Y-96482186D02*
X144875445Y-96593462D01*
X144875445Y-96593462D02*
X144875445Y-97038567D01*
X144374702Y-95925805D02*
X144319064Y-95870167D01*
X144319064Y-95870167D02*
X144263426Y-95758891D01*
X144263426Y-95758891D02*
X144263426Y-95480700D01*
X144263426Y-95480700D02*
X144319064Y-95369424D01*
X144319064Y-95369424D02*
X144374702Y-95313786D01*
X144374702Y-95313786D02*
X144485978Y-95258148D01*
X144485978Y-95258148D02*
X144597254Y-95258148D01*
X144597254Y-95258148D02*
X144764168Y-95313786D01*
X144764168Y-95313786D02*
X145431826Y-95981443D01*
X145431826Y-95981443D02*
X145431826Y-95258148D01*
D12*
%TO.C,SV3*%
X141516100Y-101828600D02*
X145326100Y-101828600D01*
X145326100Y-101828600D02*
X145961100Y-101193600D01*
X140881100Y-101193600D02*
X141516100Y-101828600D01*
X140881100Y-101193600D02*
X140881100Y-99923600D01*
X140881100Y-99923600D02*
X141516100Y-99288600D01*
X145961100Y-99923600D02*
X145961100Y-101193600D01*
X141516100Y-99288600D02*
X140881100Y-98653600D01*
X145326100Y-99288600D02*
X145961100Y-99923600D01*
X140881100Y-98653600D02*
X140881100Y-97383600D01*
X145961100Y-98653600D02*
X145326100Y-99288600D01*
X140881100Y-97383600D02*
X141516100Y-96748600D01*
X145961100Y-97383600D02*
X145961100Y-98653600D01*
X141516100Y-96748600D02*
X140881100Y-96113600D01*
X145326100Y-96748600D02*
X145961100Y-97383600D01*
X140881100Y-96113600D02*
X140881100Y-94843600D01*
X145961100Y-96113600D02*
X145326100Y-96748600D01*
X140881100Y-94843600D02*
X141516100Y-94208600D01*
X145961100Y-94843600D02*
X145961100Y-96113600D01*
X141516100Y-94208600D02*
X145326100Y-94208600D01*
X145326100Y-94208600D02*
X145961100Y-94843600D01*
%TO.C,SV6*%
X142849600Y-111353600D02*
X141579600Y-111353600D01*
X141579600Y-111353600D02*
X140944600Y-111988600D01*
X143484600Y-111988600D02*
X142849600Y-111353600D01*
X143484600Y-111988600D02*
X143484600Y-113258600D01*
X143484600Y-113258600D02*
X142849600Y-113893600D01*
X140944600Y-113258600D02*
X140944600Y-111988600D01*
X142849600Y-113893600D02*
X143484600Y-114528600D01*
X141579600Y-113893600D02*
X140944600Y-113258600D01*
X143484600Y-114528600D02*
X143484600Y-115798600D01*
X140944600Y-114528600D02*
X141579600Y-113893600D01*
X143484600Y-115798600D02*
X142849600Y-116433600D01*
X140944600Y-115798600D02*
X140944600Y-114528600D01*
X142849600Y-116433600D02*
X141579600Y-116433600D01*
X141579600Y-116433600D02*
X140944600Y-115798600D01*
G36*
X142468600Y-115417600D02*
G01*
X141960600Y-115417600D01*
X141960600Y-114909600D01*
X142468600Y-114909600D01*
X142468600Y-115417600D01*
G37*
%TO.C,SV1*%
X142849600Y-106273600D02*
X141579600Y-106273600D01*
X141579600Y-106273600D02*
X140944600Y-106908600D01*
X143484600Y-106908600D02*
X142849600Y-106273600D01*
X143484600Y-106908600D02*
X143484600Y-108178600D01*
X143484600Y-108178600D02*
X142849600Y-108813600D01*
X140944600Y-108178600D02*
X140944600Y-106908600D01*
X142849600Y-108813600D02*
X143484600Y-109448600D01*
X141579600Y-108813600D02*
X140944600Y-108178600D01*
X143484600Y-109448600D02*
X143484600Y-110718600D01*
X140944600Y-109448600D02*
X141579600Y-108813600D01*
X143484600Y-110718600D02*
X142849600Y-111353600D01*
X140944600Y-110718600D02*
X140944600Y-109448600D01*
X142849600Y-111353600D02*
X141579600Y-111353600D01*
X141579600Y-111353600D02*
X140944600Y-110718600D01*
G36*
X142468600Y-110337600D02*
G01*
X141960600Y-110337600D01*
X141960600Y-109829600D01*
X142468600Y-109829600D01*
X142468600Y-110337600D01*
G37*
D13*
%TO.C,P2*%
X146930100Y-104823600D02*
X146930100Y-95023600D01*
X156930100Y-104823600D02*
X146930100Y-104823600D01*
X146930100Y-95023600D02*
X156930100Y-95023600D01*
X156930100Y-95023600D02*
X156930100Y-104823600D01*
X154769906Y-99923600D02*
G75*
G03*
X149090294Y-99923600I-2839806J0D01*
G01*
X149090294Y-99923600D02*
G75*
G03*
X154769906Y-99923600I2839806J0D01*
G01*
D12*
%TO.C,SV5*%
X151866600Y-115290600D02*
X155676600Y-115290600D01*
X155676600Y-115290600D02*
X156311600Y-114655600D01*
X151231600Y-114655600D02*
X151866600Y-115290600D01*
X151231600Y-114655600D02*
X151231600Y-113385600D01*
X151231600Y-113385600D02*
X151866600Y-112750600D01*
X156311600Y-113385600D02*
X156311600Y-114655600D01*
X151866600Y-112750600D02*
X151231600Y-112115600D01*
X155676600Y-112750600D02*
X156311600Y-113385600D01*
X151231600Y-112115600D02*
X151231600Y-110845600D01*
X156311600Y-112115600D02*
X155676600Y-112750600D01*
X151231600Y-110845600D02*
X151866600Y-110210600D01*
X156311600Y-110845600D02*
X156311600Y-112115600D01*
X151866600Y-110210600D02*
X151231600Y-109575600D01*
X155676600Y-110210600D02*
X156311600Y-110845600D01*
X151231600Y-109575600D02*
X151231600Y-108305600D01*
X156311600Y-109575600D02*
X155676600Y-110210600D01*
X151231600Y-108305600D02*
X151866600Y-107670600D01*
X156311600Y-108305600D02*
X156311600Y-109575600D01*
X151866600Y-107670600D02*
X155676600Y-107670600D01*
X155676600Y-107670600D02*
X156311600Y-108305600D01*
%TD*%
M02*
